<?xml version="1.0" standalone="no"?>
<!DOCTYPE svg PUBLIC "-//W3C//DTD SVG 20010904//EN"
 "http://www.w3.org/TR/2001/REC-SVG-20010904/DTD/svg10.dtd">
<svg version="1.0" xmlns="http://www.w3.org/2000/svg"
 width="1024.000000pt" height="1024.000000pt" viewBox="0 0 1024.000000 1024.000000"
 preserveAspectRatio="xMidYMid meet">

<g transform="translate(0.000000,1024.000000) scale(0.100000,-0.100000)"
fill="#000000" stroke="none">
<path d="M5005 9650 c-27 -11 -80 -27 -116 -34 -72 -16 -130 -41 -175 -79 -16
-13 -37 -26 -46 -30 -10 -3 -18 -13 -18 -20 0 -8 -14 -20 -30 -27 -41 -17
-110 -110 -142 -190 -71 -178 -73 -302 -12 -494 28 -87 35 -121 26 -124 -17
-5 -15 -87 4 -125 9 -18 44 -61 79 -97 37 -38 80 -97 105 -143 23 -44 40 -80
38 -80 -195 -95 -358 -211 -408 -292 -15 -24 -41 -44 -85 -65 -102 -49 -216
-197 -287 -372 -40 -100 -42 -106 -42 -218 0 -94 5 -133 27 -215 45 -164 94
-255 197 -365 46 -49 51 -58 46 -89 -12 -75 42 -254 106 -355 29 -44 34 -62
39 -138 7 -101 30 -149 113 -235 29 -29 47 -53 41 -53 -7 0 -24 -23 -40 -51
-31 -59 -43 -152 -27 -211 17 -64 -5 -42 -28 26 -11 35 -28 67 -36 70 -61 23
-148 -17 -181 -84 -32 -63 -30 -121 7 -187 l30 -53 -24 0 c-31 0 -365 -114
-431 -148 -126 -63 -199 -130 -277 -253 -30 -47 -42 -57 -72 -62 -20 -3 -134
-33 -253 -67 -120 -34 -274 -77 -343 -96 -69 -20 -144 -46 -166 -60 -51 -29
-120 -104 -186 -202 -27 -41 -108 -134 -179 -208 -126 -133 -150 -161 -287
-339 -39 -49 -86 -107 -106 -129 -20 -21 -36 -42 -36 -46 0 -4 -22 -22 -49
-40 -83 -57 -100 -107 -56 -170 25 -36 148 -322 180 -419 27 -82 17 -179 -33
-321 -51 -147 -80 -210 -95 -210 -7 0 -55 -34 -107 -75 -90 -71 -164 -115
-193 -115 -38 0 -191 -47 -255 -79 -80 -38 -93 -58 -37 -53 19 2 35 1 35 -1 0
-3 -34 -17 -76 -33 -63 -22 -82 -35 -105 -67 -32 -44 -38 -77 -14 -77 8 0 23
9 33 21 9 11 74 54 145 96 70 41 127 79 127 84 0 5 -11 9 -25 9 -57 0 -19 18
72 34 168 30 225 59 332 171 34 36 64 65 66 65 2 0 11 -14 19 -31 11 -22 13
-36 6 -49 -21 -38 -11 -70 38 -122 l47 -52 -38 22 c-47 27 -50 27 -42 1 4 -12
3 -24 -2 -28 -5 -3 -20 -34 -32 -68 -17 -46 -28 -63 -42 -63 -15 0 -17 6 -12
37 4 25 3 34 -5 29 -6 -4 -9 -13 -6 -20 7 -19 -14 -30 -30 -17 -11 9 -18 8
-29 -3 -8 -8 -17 -12 -21 -9 -3 4 -6 2 -6 -4 0 -5 -18 -15 -40 -22 -35 -10
-40 -16 -40 -41 0 -32 -23 -50 -62 -50 -13 0 -31 -9 -41 -20 -20 -24 -22 -34
-4 -25 6 4 3 -1 -8 -10 -26 -20 -32 -2 -11 30 22 34 20 42 -5 19 -12 -10 -28
-35 -37 -54 -14 -34 -15 -34 -23 -12 -5 13 -13 20 -19 17 -5 -3 -10 -1 -10 5
0 21 -20 -1 -21 -23 -1 -17 -3 -15 -9 8 -4 17 -8 24 -9 16 -1 -11 -4 -11 -16
-1 -22 18 -27 8 -15 -25 14 -38 5 -44 -14 -8 -8 16 -27 35 -42 41 l-27 13 17
-26 c22 -33 12 -32 -27 5 -38 36 -41 36 -79 9 -34 -25 -32 -34 5 -20 22 8 28
6 41 -14 15 -23 15 -25 -9 -41 -24 -16 -85 -12 -85 6 0 5 -7 16 -16 24 -14 14
-12 19 22 50 21 19 80 55 133 81 89 44 155 85 135 85 -23 0 -198 -74 -222 -94
-15 -13 -41 -30 -59 -39 -53 -28 -76 -65 -70 -116 9 -78 74 -111 171 -86 33 9
79 12 133 8 l81 -6 96 52 96 51 733 2 732 3 -722 5 -722 5 17 21 c28 34 260
44 1077 46 457 1 691 4 640 10 -44 4 -143 7 -220 6 -77 -2 -379 -2 -672 0
-458 2 -532 4 -527 16 5 12 39 15 174 18 l169 3 35 34 c41 40 46 62 28 119
-12 37 -12 48 2 89 9 26 16 53 16 61 0 26 77 177 120 234 l43 58 47 -44 c69
-64 105 -81 142 -65 43 18 95 102 103 167 5 39 16 64 41 95 19 23 44 62 57 87
l22 45 57 0 c66 0 92 19 139 100 22 37 29 63 29 102 l0 52 53 15 c28 8 75 30
102 48 47 30 57 33 160 38 78 4 120 10 143 23 33 18 33 18 105 -18 106 -52
209 -69 387 -62 80 3 161 11 180 17 23 7 80 9 167 4 154 -7 165 -4 210 73 59
103 149 220 160 210 2 -3 -27 -47 -65 -99 -81 -110 -134 -203 -162 -284 -39
-112 -71 -237 -77 -300 -7 -73 4 -92 67 -124 69 -35 117 -43 163 -25 50 18
309 79 456 106 57 11 112 24 123 30 18 10 19 9 4 -18 -21 -40 -124 -153 -248
-272 l-108 -104 -122 -1 c-111 -1 -129 -4 -181 -28 -48 -23 -58 -32 -64 -58
-3 -18 -12 -34 -19 -37 -9 -3 -14 -20 -14 -43 0 -21 -5 -40 -11 -42 -8 -3 -8
-10 2 -25 7 -12 10 -26 5 -30 -4 -4 -501 -9 -1103 -10 -603 -2 -1098 -5 -1101
-8 -3 -3 495 -4 1106 -3 l1112 3 0 -32 c0 -17 -4 -35 -10 -38 -15 -9 -12 -63
4 -72 12 -7 -706 -8 -874 -1 -42 1 -42 2 15 8 l60 7 -55 1 c-69 1 -151 -12
-130 -21 8 -4 44 -8 80 -10 44 -2 30 -4 -42 -5 -64 -1 -108 -6 -108 -12 0 -13
193 -13 206 0 6 6 409 10 1144 10 l1135 1 24 -33 c30 -40 97 -75 170 -88 84
-16 404 -12 486 5 86 18 216 81 270 130 71 66 87 74 161 78 l69 3 -69 2 c-60
2 -67 4 -56 17 7 8 21 15 31 15 10 0 22 7 26 15 7 12 23 13 93 5 l85 -9 -82 3
c-46 1 -83 0 -83 -3 0 -4 326 -5 725 -3 640 2 728 1 741 -13 9 -8 12 -15 8
-15 -3 0 -1 -6 5 -14 18 -21 193 -16 218 6 15 14 40 18 114 20 l94 2 -85 5
c-134 9 -63 23 114 23 108 -1 162 -5 191 -16 39 -14 38 -15 -90 -17 l-130 -3
160 -6 c126 -5 175 -4 228 8 43 10 63 18 55 24 -8 5 -1 8 19 8 17 0 35 4 38
10 4 6 -7 8 -27 5 -23 -3 -20 -1 12 8 46 13 45 24 -2 22 -16 0 -28 2 -28 6 0
14 -67 49 -93 49 -16 0 -38 -13 -59 -34 -29 -29 -96 -58 -82 -35 3 5 0 9 -6 9
-6 0 -9 4 -6 9 7 11 -38 42 -62 43 -9 1 -28 -2 -42 -7 -22 -7 -23 -6 -11 9 18
21 9 20 -39 -4 -46 -23 -112 -26 -133 -6 -9 9 -19 11 -28 5 -34 -21 -39 -11
-33 74 3 45 14 120 25 167 10 47 30 138 44 202 44 198 90 312 149 367 14 14
29 21 33 17 5 -4 8 -80 7 -169 -1 -124 -6 -185 -22 -261 -21 -101 -66 -207
-90 -214 -10 -3 -9 3 3 22 10 15 16 29 13 31 -6 7 -108 -36 -108 -44 0 -9 94
-36 192 -56 81 -16 184 -19 261 -9 96 13 30 25 -128 22 -91 -1 -167 1 -171 5
-4 3 5 35 19 70 57 142 91 427 68 563 -12 69 -12 69 14 90 35 28 65 74 65 100
0 17 8 23 38 28 30 4 51 19 96 66 65 68 100 138 122 240 l15 72 -67 191 c-65
189 -102 265 -193 402 -26 39 -60 93 -76 120 -51 90 -146 206 -269 329 -67 67
-173 179 -236 250 -127 143 -206 214 -282 252 -46 23 -49 28 -43 52 3 15 9 71
12 125 3 53 9 97 13 97 4 0 25 -7 46 -16 21 -9 67 -16 103 -17 103 -1 178 48
220 143 17 40 19 68 19 235 0 187 0 192 -38 340 -63 248 -74 338 -75 615 l-1
245 -38 129 c-36 120 -37 132 -27 185 18 93 6 119 -123 247 -134 134 -161 152
-297 203 -142 52 -142 52 -177 113 -17 29 -68 91 -114 138 -75 77 -101 95
-274 193 -106 59 -227 123 -270 141 -171 71 -337 102 -628 116 -116 6 -285 17
-376 25 -320 29 -360 42 -405 128 -25 47 -35 57 -59 59 -40 4 -44 21 -45 188
-1 142 -15 223 -51 289 -10 20 -33 71 -49 114 -48 122 -121 214 -206 257 -36
18 -37 20 -10 14 l30 -5 -28 25 c-30 27 -134 64 -209 73 -26 3 -45 10 -42 14
3 5 -12 9 -34 9 -22 0 -59 2 -83 5 -31 4 -59 -1 -94 -15z m-235 -110 c-8 -5
-19 -10 -25 -10 -5 0 -3 5 5 10 8 5 20 10 25 10 6 0 3 -5 -5 -10z m975 -505
c4 -22 1 -51 -5 -65 -10 -25 -10 -24 -6 5 4 29 -4 89 -18 130 -5 13 -2 11 8
-5 8 -14 18 -43 21 -65z m-18 -117 c-3 -8 -6 -5 -6 6 -1 11 2 17 5 13 3 -3 4
-12 1 -19z m-82 -49 c14 -29 26 -42 46 -46 25 -5 29 -11 39 -72 7 -40 11 -208
12 -416 l1 -350 -46 -95 c-25 -52 -61 -116 -81 -141 -32 -43 -40 -48 -98 -58
-52 -10 -70 -9 -103 3 l-40 15 31 0 c17 1 63 17 102 36 58 29 79 47 112 93 22
31 39 64 38 72 -5 25 -46 23 -100 -5 -82 -43 -77 -15 11 57 65 52 81 90 81
191 0 48 -3 55 -22 61 -56 14 -66 -5 -18 -32 16 -9 30 -20 30 -25 0 -16 -53
-87 -65 -87 -7 0 -24 9 -39 21 -32 25 -37 4 -6 -29 26 -28 55 -28 74 0 9 12
19 19 23 15 10 -10 -84 -104 -134 -133 -37 -22 -45 -24 -65 -12 l-23 13 23 3
c12 2 22 6 22 8 0 14 -53 191 -70 235 -21 53 -20 59 13 96 25 28 47 15 47 -28
0 -15 5 -31 10 -34 6 -3 10 -2 10 2 0 5 6 17 13 27 10 14 18 15 39 7 29 -11
148 4 148 19 0 5 -16 14 -35 20 -43 14 -44 22 -2 42 36 17 93 91 82 107 -9 15
-28 14 -51 -4 -18 -14 -17 -14 10 -5 25 9 27 9 17 -4 -15 -18 -71 -38 -71 -26
0 9 43 61 83 102 18 19 23 38 10 38 -5 0 -51 -32 -103 -72 -52 -39 -126 -92
-164 -117 -65 -43 -73 -46 -135 -46 -77 0 -121 9 -133 27 -8 10 -11 10 -15 1
-6 -17 -27 -17 -20 0 4 10 -16 19 -66 33 -63 17 -68 19 -37 22 44 3 207 31
228 39 10 4 13 2 8 -5 -5 -9 6 -12 38 -12 25 0 46 2 46 4 0 2 3 11 6 20 5 14
-7 15 -107 12 -64 -2 -103 0 -89 4 14 4 41 8 61 9 20 1 49 4 65 7 33 6 112 69
102 80 -4 3 -21 -5 -38 -20 -32 -26 -76 -43 -87 -33 -3 4 6 12 21 18 14 7 26
16 26 20 0 5 6 6 14 3 8 -3 26 7 40 23 26 27 27 27 41 9 21 -28 30 -13 10 17
-8 13 -20 40 -25 58 l-10 34 20 -25 c26 -34 41 -17 48 50 l5 52 15 -31 c24
-51 34 -37 27 37 l-6 67 22 -47 c12 -27 25 -48 30 -48 5 0 9 26 10 58 0 49 2
53 10 31 6 -15 19 -29 29 -32 16 -4 20 2 26 39 3 24 4 51 0 59 -13 34 12 12
29 -26z m-390 -337 c-3 -3 -11 0 -18 7 -9 10 -8 11 6 5 10 -3 15 -9 12 -12z
m582 -87 c61 -173 75 -279 79 -610 6 -466 -20 -761 -98 -1112 -11 -51 -24 -93
-29 -93 -4 0 -15 8 -25 17 -14 14 -16 30 -11 93 6 71 49 379 69 485 5 28 11
201 15 386 6 352 -6 613 -32 738 -8 38 -17 99 -20 137 l-7 69 22 -35 c13 -19
29 -53 37 -75z m39 57 c50 -60 100 -187 159 -404 49 -184 66 -288 75 -483 5
-104 16 -249 25 -320 13 -108 14 -164 7 -325 -10 -191 -11 -198 -52 -320 -39
-117 -60 -163 -60 -130 0 7 16 61 35 120 37 117 56 256 54 415 -1 85 -1 88
-14 60 -8 -16 -14 -48 -15 -71 -1 -116 -53 -331 -103 -429 -44 -84 -45 -53 -8
142 63 326 71 414 71 744 1 343 -14 485 -64 628 -9 24 -16 53 -17 65 0 11 -3
15 -6 8 -3 -7 4 -50 16 -95 31 -122 51 -330 51 -532 0 -300 -14 -444 -66 -700
-26 -126 -49 -242 -51 -257 -3 -16 -10 -28 -15 -28 -5 0 -7 8 -4 18 3 9 17 85
31 167 14 83 32 187 40 233 40 223 22 1035 -24 1097 -4 6 -13 47 -20 93 -7 46
-29 141 -50 213 -21 71 -35 129 -32 129 3 0 20 -17 37 -38z m66 1 c59 -67 187
-425 238 -664 16 -75 40 -180 54 -235 22 -87 46 -224 61 -349 2 -22 -8 10 -24
70 -29 116 -70 211 -71 167 0 -13 18 -81 39 -150 69 -222 65 -260 -7 -72 -67
176 -72 201 -82 405 -6 133 -15 211 -28 260 -40 145 -146 453 -178 518 -33 65
-34 86 -2 50z m-695 -9 c-3 -3 -12 -4 -19 -1 -8 3 -5 6 6 6 11 1 17 -2 13 -5z
m850 -24 l72 -12 83 -106 c46 -58 130 -156 187 -217 131 -140 242 -282 317
-410 57 -96 88 -155 80 -155 -2 0 -23 7 -46 15 -45 16 -90 19 -127 9 -39 -11
-26 -20 50 -38 87 -20 127 -35 127 -48 0 -5 -5 -6 -11 -3 -17 11 -237 -65
-263 -91 l-24 -24 -59 82 c-73 100 -135 223 -205 400 -35 90 -61 142 -80 160
-19 17 -44 65 -69 130 -59 152 -70 175 -116 256 l-42 73 27 -5 c15 -3 59 -10
99 -16z m218 -20 c33 -5 179 -16 325 -24 302 -17 396 -31 547 -82 124 -41 172
-65 382 -182 174 -99 210 -127 287 -223 56 -70 64 -89 40 -89 -16 0 20 -70 87
-168 20 -29 44 -77 53 -107 10 -30 22 -51 27 -48 18 11 0 104 -36 176 -20 39
-34 73 -32 76 2 2 53 -15 112 -38 106 -42 174 -85 242 -155 l33 -34 -39 5
c-62 8 -151 -22 -192 -65 -53 -57 -125 -172 -151 -243 -13 -35 -60 -141 -106
-234 -45 -94 -90 -200 -100 -237 -19 -71 -34 -80 -34 -20 0 46 85 413 135 582
39 128 43 215 15 290 -28 75 -45 89 -35 29 12 -70 8 -183 -10 -266 -19 -87
-41 -125 -32 -55 3 23 1 42 -4 42 -5 0 -9 5 -9 11 0 6 7 9 15 5 9 -3 15 0 15
9 0 8 -6 15 -14 15 -11 0 -12 8 -4 39 7 28 5 72 -7 162 -25 189 -25 190 -44
187 -13 -2 -15 4 -13 33 2 26 -2 38 -13 43 -13 5 -15 1 -10 -17 5 -17 4 -19
-4 -7 -6 8 -8 27 -5 43 4 20 2 27 -10 27 -11 0 -16 9 -16 28 0 35 -9 45 -27
31 -9 -9 -13 -8 -13 0 0 6 -7 11 -15 11 -20 0 -20 3 19 -82 47 -103 55 -130
62 -220 8 -97 23 -89 26 14 4 109 20 80 26 -44 4 -92 1 -116 -28 -223 -31
-120 -70 -236 -108 -330 -12 -27 -24 -63 -28 -80 -3 -16 -8 -25 -11 -19 -4 12
22 179 32 205 4 10 -2 19 -17 27 -22 10 -22 11 7 12 27 2 25 3 -13 12 -31 7
-47 6 -58 -3 -12 -10 -13 -6 -8 22 9 46 63 179 63 156 1 -10 -6 -34 -14 -54
-8 -20 -13 -38 -10 -41 3 -3 0 -11 -6 -19 -9 -10 -7 -13 10 -13 18 0 19 3 11
25 -5 14 -6 25 -1 25 5 0 12 12 16 28 7 25 8 25 15 7 14 -38 23 21 9 63 -25
77 -28 78 -57 20 -38 -73 -115 -189 -140 -212 -28 -25 -28 -19 4 38 31 56 26
70 -12 30 -23 -25 -22 -23 5 15 32 47 34 64 4 40 -10 -8 -3 5 16 29 30 38 32
59 3 30 -9 -9 -12 -9 -12 -1 0 7 9 18 21 26 22 16 10 34 -13 21 -7 -4 -5 2 6
14 18 21 18 21 -8 45 -14 13 -26 33 -27 43 0 11 -6 1 -13 -21 -7 -22 -20 -53
-30 -70 l-17 -30 6 32 c11 59 7 142 -8 164 -14 20 -16 20 -26 2 -6 -10 -11
-13 -11 -6 0 6 5 15 10 18 16 10 12 48 -5 42 -12 -5 -12 -2 -3 18 16 35 7 47
-66 84 -77 40 -94 55 -136 116 -31 45 -50 57 -50 32 0 -22 67 -170 114 -252
26 -44 55 -107 65 -141 21 -66 37 -154 28 -154 -3 0 -15 30 -27 68 -37 117
-103 222 -126 200 -3 -4 7 -35 24 -70 48 -100 104 -240 98 -245 -3 -3 -17 8
-30 24 -41 48 -188 102 -283 103 -43 0 -62 23 -97 117 -62 168 -135 275 -333
483 -60 63 -136 149 -170 190 -69 86 -96 111 -138 133 l-30 16 35 1 c19 0 62
-5 95 -10z m-1547 -215 c-3 -3 -9 2 -12 12 -6 14 -5 15 5 6 7 -7 10 -15 7 -18z
m119 -11 c-3 -3 -12 -4 -19 -1 -8 3 -5 6 6 6 11 1 17 -2 13 -5z m-107 -42 c0
-5 -23 -28 -51 -52 -37 -31 -47 -45 -38 -51 10 -6 6 -11 -14 -18 -15 -6 -27
-14 -27 -18 0 -4 41 -46 90 -94 50 -47 90 -92 90 -99 0 -8 -24 9 -52 37 -100
96 -154 125 -202 107 -18 -7 -22 -24 -6 -24 10 0 160 -119 160 -127 0 -2 -33
18 -72 45 -74 50 -139 80 -108 50 51 -49 147 -123 220 -170 180 -115 419 -363
534 -551 29 -47 29 -23 0 44 -30 73 -115 203 -174 267 -22 24 -40 46 -40 49 0
3 41 -32 92 -78 193 -177 290 -357 273 -510 -9 -79 -17 -89 -52 -63 -32 24
-65 79 -174 291 -43 84 -97 181 -120 215 -69 103 -281 299 -374 346 -22 11
-63 39 -90 62 -65 54 -116 80 -157 80 -19 0 -66 -16 -106 -35 -40 -19 -72 -30
-72 -24 0 31 142 151 250 211 25 14 81 46 125 72 82 47 95 52 95 38z m328 -29
c-16 -2 -40 -2 -55 0 -16 2 -3 4 27 4 30 0 43 -2 28 -4z m121 -60 c-5 -32 -14
-87 -22 -123 l-13 -65 -27 71 c-27 70 -65 117 -117 145 -23 13 -17 14 70 20
52 3 100 6 106 7 7 1 8 -16 3 -55z m731 -263 c12 -197 7 -509 -11 -716 -9
-113 -57 -369 -85 -456 -17 -51 -41 -68 -29 -20 83 326 110 640 101 1155 -6
345 6 363 24 37z m-889 233 c13 -16 12 -17 -3 -4 -10 7 -18 15 -18 17 0 8 8 3
21 -13z m1199 -283 c81 -226 116 -305 166 -366 19 -23 34 -44 34 -48 0 -3 -18
-23 -41 -43 -23 -21 -45 -48 -50 -61 -5 -14 -12 -23 -14 -20 -9 9 -113 423
-179 711 -24 108 9 40 84 -173z m-853 198 c-3 -8 -6 -5 -6 6 -1 11 2 17 5 13
3 -3 4 -12 1 -19z m2303 -68 c0 -5 -2 -10 -4 -10 -3 0 -8 5 -11 10 -3 6 -1 10
4 10 6 0 11 -4 11 -10z m-2085 -22 c-7 -32 -43 -65 -109 -98 -47 -24 -72 -30
-122 -30 -35 0 -65 3 -68 8 -2 4 13 6 35 4 71 -7 101 5 177 73 40 36 77 65 82
65 5 0 7 -10 5 -22z m-1067 -40 c57 -31 272 -181 272 -191 0 -4 -49 18 -110
48 -60 30 -113 55 -116 55 -16 0 27 -37 91 -78 139 -89 325 -242 371 -304 63
-86 122 -213 150 -322 8 -34 18 -70 21 -81 5 -17 3 -18 -9 -8 -8 7 -32 52 -52
100 -104 242 -164 330 -274 401 -64 40 -83 33 -27 -11 109 -85 174 -186 218
-337 13 -47 28 -93 32 -104 8 -17 7 -17 -26 -1 -19 10 -77 46 -129 80 -115 75
-147 92 -292 151 -62 26 -117 50 -123 54 -35 27 -253 106 -263 95 -4 -4 209
-106 368 -177 183 -82 241 -112 335 -173 109 -71 135 -84 327 -153 92 -34 180
-69 195 -79 53 -33 143 -104 143 -113 0 -4 -35 7 -77 26 -72 31 -150 47 -127
25 5 -5 79 -44 164 -87 325 -162 418 -219 613 -373 139 -109 257 -189 322
-219 l50 -22 -65 6 c-45 4 -85 1 -130 -11 -36 -9 -71 -17 -78 -17 -7 -1 -11
-6 -9 -12 2 -6 13 -10 23 -8 10 1 36 5 56 9 21 3 90 -2 153 -12 126 -19 145
-28 287 -136 40 -31 79 -58 86 -60 8 -3 -8 -22 -40 -47 -29 -24 -119 -109
-200 -190 -130 -128 -148 -143 -148 -120 0 15 -4 38 -9 52 -11 27 -84 74 -128
82 -15 3 -36 7 -45 10 -29 9 -41 -6 -23 -26 14 -15 14 -18 1 -23 -15 -6 -31 8
-31 28 0 6 -12 11 -27 13 -17 2 -28 -1 -28 -9 0 -6 8 -9 20 -6 15 4 20 0 20
-14 0 -25 25 -35 88 -35 36 1 51 -3 48 -11 -3 -6 2 -14 10 -17 9 -3 12 -11 8
-18 -4 -7 5 -2 20 11 l26 25 -11 -32 c-6 -17 -18 -33 -27 -35 -16 -4 -16 -5 0
-6 10 0 22 8 28 19 12 23 30 18 30 -9 0 -15 -46 -123 -92 -218 -13 -27 -25
-29 -50 -6 -31 28 -33 5 -2 -30 l29 -32 -30 25 c-16 14 -34 28 -40 32 -5 5 0
15 13 24 12 8 22 20 22 26 0 6 -10 3 -21 -8 -22 -19 -22 -19 -16 8 6 23 4 25
-13 21 -15 -4 -20 0 -20 13 0 14 -2 16 -9 6 -7 -11 -9 -11 -14 2 -4 10 -13 13
-23 9 -11 -4 -15 -2 -11 4 4 6 -2 13 -13 16 -11 3 -20 12 -20 21 0 19 11 21
27 5 6 -6 17 -9 24 -7 13 4 -100 55 -136 62 -11 1 -27 5 -35 8 -8 3 -44 16
-80 28 -36 12 -92 35 -125 50 -119 55 -141 61 -131 34 3 -9 2 -12 -5 -9 -6 4
-8 13 -5 21 3 7 -3 18 -14 24 -26 14 -29 13 -22 -12 3 -14 2 -19 -6 -14 -7 4
-12 15 -12 24 0 17 -48 66 -72 74 -7 3 -13 19 -14 37 -2 40 18 36 27 -5 6 -25
7 -26 8 -5 1 22 2 23 26 7 13 -9 31 -16 39 -16 8 0 16 -5 18 -11 2 -6 22 -12
45 -13 22 -1 48 -8 57 -16 19 -15 30 -7 41 28 5 17 2 22 -12 22 -10 0 -28 3
-40 6 -19 5 -23 2 -23 -15 0 -11 -5 -21 -11 -21 -6 0 -8 8 -4 19 4 14 0 21
-17 27 -13 4 -27 7 -32 6 -4 -2 -14 2 -20 8 -7 5 -16 7 -19 3 -4 -3 -18 0 -32
7 -18 10 -24 21 -23 38 2 14 -3 27 -10 29 -9 4 -11 -2 -6 -21 4 -19 2 -26 -8
-26 -25 0 -28 11 -12 42 9 17 14 39 11 49 -3 11 0 19 5 19 6 0 17 8 24 18 13
16 14 16 20 -5 3 -12 12 -19 19 -17 7 3 22 -10 35 -30 12 -20 28 -36 35 -36 7
0 1 13 -16 31 -16 17 -29 37 -29 45 0 19 26 18 34 -1 3 -8 10 -15 16 -15 5 0
10 7 10 15 0 8 -5 15 -12 15 -6 0 -8 3 -5 6 4 4 18 -1 33 -11 22 -14 28 -15
35 -4 8 11 12 11 23 -3 16 -22 26 -23 26 -3 0 17 25 20 35 5 10 -16 35 -12 29
5 -9 23 13 18 30 -6 11 -16 20 -19 33 -14 16 8 16 9 -4 12 -14 3 -20 9 -16 19
4 11 9 12 19 3 11 -9 19 -8 37 4 27 17 43 11 49 -18 2 -11 10 -19 16 -17 7 1
12 -4 12 -12 0 -30 17 -24 18 5 0 22 -5 33 -18 36 -10 3 -21 16 -24 29 -4 13
-11 24 -16 24 -6 0 -10 6 -10 13 0 6 12 0 25 -16 24 -27 24 -27 35 -6 9 16 14
18 26 8 11 -9 18 -9 25 -2 8 8 5 14 -9 22 -14 7 -18 17 -15 31 3 11 0 20 -6
20 -6 0 -11 -11 -11 -24 0 -19 -4 -23 -20 -19 -11 3 -23 10 -27 16 -4 6 0 8
10 4 11 -4 17 -1 17 8 0 8 -6 14 -12 13 -8 -2 -13 7 -12 20 0 12 -3 22 -8 22
-4 0 -8 -16 -8 -36 0 -23 -4 -33 -11 -28 -6 3 -9 19 -7 35 3 18 0 29 -8 29 -6
0 -12 -6 -11 -12 2 -56 -13 -77 -18 -26 -4 36 -4 38 -15 38 -5 0 -7 -13 -3
-30 3 -19 1 -30 -6 -30 -6 0 -12 12 -12 28 l-2 27 -4 -29 c-3 -21 -7 -26 -13
-16 -7 11 -11 11 -24 1 -20 -17 -36 -6 -36 27 0 17 -3 23 -10 16 -6 -6 -6 -21
-1 -42 12 -39 5 -42 -11 -4 -11 25 -13 31 -17 50 -2 4 -6 -2 -11 -13 -8 -19
-8 -19 -17 4 -8 19 -11 21 -16 8 -3 -8 1 -21 9 -27 18 -16 18 -31 0 -24 -7 3
-18 20 -24 37 -5 18 -10 24 -11 15 -1 -22 -21 -24 -21 -3 0 8 -5 15 -11 15 -7
0 -9 -10 -6 -25 2 -15 0 -24 -6 -22 -6 2 -11 11 -13 21 -4 26 -14 33 -14 10
-1 -19 -1 -19 -15 0 -8 11 -18 17 -21 13 -4 -3 6 -20 20 -38 15 -17 25 -34 22
-36 -7 -7 -56 47 -56 61 0 6 -11 12 -25 12 l-25 2 30 -36 c42 -51 27 -54 -16
-3 -44 51 -57 46 -20 -9 36 -54 19 -50 -22 5 -18 25 -38 45 -44 45 -6 0 -1
-12 13 -26 l24 -27 -25 14 c-14 8 -34 21 -44 29 -18 14 -19 13 -12 -5 4 -11
10 -27 14 -35 3 -8 -7 -4 -22 9 -46 43 -62 33 -20 -12 22 -22 46 -47 54 -53
12 -10 12 -15 3 -25 -10 -10 -14 -8 -20 6 -9 25 -89 105 -104 105 -6 0 1 -14
16 -32 33 -39 18 -50 -19 -14 -14 15 -32 26 -39 26 -8 0 -17 7 -21 15 -3 8
-10 15 -16 15 -20 0 -9 -16 35 -50 24 -19 44 -41 45 -48 0 -7 7 -15 15 -18 17
-7 20 -34 4 -34 -6 0 -19 -10 -29 -22 -10 -13 -22 -19 -27 -15 -4 5 2 17 15
27 25 21 29 50 7 50 -8 0 -15 5 -15 12 0 13 -48 58 -62 58 -14 0 -9 -30 7 -36
19 -8 19 -28 -1 -45 -13 -11 -14 -9 -9 14 6 21 4 27 -9 27 -9 0 -16 -4 -16
-10 0 -5 -4 -10 -10 -10 -5 0 -10 7 -10 15 0 8 7 15 15 15 22 0 18 21 -4 27
-11 3 -21 13 -24 24 -3 10 -11 19 -17 19 -8 0 -9 -6 -5 -17 4 -10 10 -29 12
-43 4 -23 3 -22 -16 8 -12 18 -21 37 -21 42 0 6 -5 10 -10 10 -7 0 -7 -7 0
-21 11 -19 10 -20 -10 -9 -12 6 -24 18 -27 26 -5 14 -33 20 -33 7 0 -5 -12
-13 -26 -20 -25 -12 -26 -11 -10 6 19 21 20 31 3 31 -7 0 -38 13 -69 29 -31
16 -59 27 -62 24 -3 -4 -6 3 -6 14 0 29 -22 35 -36 10 -7 -13 -14 -16 -18 -8
-4 6 -3 11 3 11 6 0 8 7 4 16 -4 10 -13 14 -29 10 -19 -5 -32 4 -71 50 -26 30
-60 78 -75 106 -15 28 -31 54 -35 57 -15 11 -46 51 -40 51 3 0 15 -9 26 -21
11 -12 21 -16 25 -10 5 7 14 7 31 -1 28 -13 30 -19 13 -36 -9 -9 -8 -12 4 -12
9 0 19 7 22 16 4 9 9 14 12 11 3 -3 1 -14 -5 -26 -6 -11 -7 -22 -2 -25 5 -3
12 2 16 12 7 16 8 15 15 -3 6 -18 8 -17 23 10 18 34 22 29 7 -9 -11 -30 3 -36
19 -9 14 25 25 9 11 -16 -9 -17 -8 -21 5 -21 8 0 15 6 15 14 0 8 4 17 9 20 5
3 9 -6 9 -20 0 -34 9 -41 27 -18 13 18 14 18 8 -3 -3 -13 -1 -23 5 -23 6 0 13
8 15 18 4 13 5 11 6 -5 2 -36 20 -27 41 20 11 23 18 33 15 22 -2 -11 -7 -32
-11 -47 -7 -32 2 -36 23 -10 13 16 14 15 8 -5 -4 -14 -2 -23 4 -23 6 0 11 10
12 23 0 12 5 31 10 42 7 16 8 13 4 -13 -3 -23 -1 -31 7 -26 8 5 9 2 5 -9 -12
-31 9 -18 25 16 l16 32 -5 -45 c-6 -51 6 -47 24 8 l13 37 -6 -44 -5 -44 21 24
20 24 -6 -30 -6 -30 25 28 c30 34 43 35 21 2 -14 -22 -14 -25 -1 -25 8 0 18
10 21 23 3 12 15 33 26 47 l19 25 -14 -40 c-8 -22 -14 -46 -15 -52 0 -23 20
-14 30 13 6 14 17 36 26 47 14 21 15 18 9 -33 l-6 -55 27 53 c30 60 44 61 24
2 -17 -51 -6 -64 14 -16 8 20 22 43 30 51 13 13 15 13 18 -2 2 -10 -5 -26 -14
-35 -19 -19 -25 -54 -8 -43 5 3 22 27 37 52 32 55 45 38 14 -18 -19 -33 -20
-39 -7 -39 9 0 16 6 16 13 0 6 10 23 21 37 18 22 20 22 16 5 -3 -11 -8 -29
-13 -40 -7 -19 -6 -19 12 -4 10 9 25 14 32 12 11 -4 12 -1 3 16 -14 26 3 29
18 4 7 -12 13 -14 18 -7 5 6 19 15 33 19 14 4 27 10 30 14 3 3 34 20 69 36 61
29 69 30 202 30 77 0 139 3 139 6 0 11 -82 37 -145 48 -33 5 -116 12 -185 16
-176 8 -305 15 -380 20 -37 2 -70 0 -77 -7 -10 -8 -13 -6 -13 6 0 14 -3 15
-22 5 -17 -9 -23 -9 -26 0 -3 9 -7 9 -18 0 -10 -8 -14 -8 -14 -1 0 6 -7 9 -15
6 -9 -4 -15 0 -15 7 0 9 -3 10 -8 4 -4 -5 -16 -10 -27 -10 -11 0 -24 5 -28 10
-6 6 -10 6 -14 -2 -7 -19 -23 -16 -24 5 0 12 -2 13 -6 3 -5 -11 -7 -11 -14 0
-7 11 -11 10 -22 -5 -13 -18 -14 -18 -20 5 -6 20 -9 22 -18 9 -9 -12 -12 -13
-16 -1 -5 11 -7 11 -14 0 -6 -10 -11 -11 -16 -3 -13 17 -40 23 -52 11 -7 -7
-11 -8 -11 0 0 10 -55 28 -74 24 -4 -1 -14 3 -20 8 -7 6 -21 12 -32 14 -10 2
-35 10 -54 19 -33 14 -36 13 -42 -4 -4 -10 -10 -18 -12 -18 -3 0 -3 6 0 14 3
8 -24 43 -65 86 -39 40 -71 69 -71 64 0 -11 -95 82 -132 131 -21 27 -8 17 40
-30 40 -38 72 -63 72 -56 0 11 3 11 15 1 8 -7 22 -9 31 -6 9 4 22 2 28 -2 21
-17 64 -23 69 -9 4 9 8 9 15 -2 6 -8 15 -10 22 -6 9 6 11 4 5 -5 -6 -10 -2
-11 19 -6 15 4 26 2 26 -4 0 -15 30 -12 30 3 1 7 6 5 14 -5 22 -29 43 -20 37
15 -1 5 3 6 9 2 6 -4 8 -15 5 -26 -8 -25 30 -27 40 -1 6 16 7 16 20 -2 18 -25
43 -14 48 21 3 22 4 20 6 -12 2 -37 3 -39 16 -21 8 11 15 14 15 8 0 -20 16
-14 29 11 11 21 11 21 8 -5 -6 -42 18 -34 31 10 8 28 10 30 8 9 -4 -33 17 -46
45 -28 15 9 19 8 19 -4 0 -8 5 -15 11 -15 6 0 9 9 6 19 -3 14 -1 18 9 14 8 -3
14 -9 14 -13 0 -4 24 -8 53 -8 l52 0 -53 18 c-29 11 -124 53 -210 94 -145 69
-295 126 -332 126 -33 1 -200 60 -275 98 -66 33 -145 86 -212 142 -18 15 -20
13 -28 -17 -7 -25 -9 -20 -21 36 -19 91 -34 100 -34 23 0 -217 288 -641 609
-894 82 -65 94 -76 71 -63 -77 43 -240 180 -348 293 -40 43 -112 136 -160 207
-155 232 -222 398 -222 547 0 37 -4 68 -9 68 -13 0 -31 -91 -31 -157 0 -91 45
-219 121 -343 l21 -35 -26 30 c-36 41 -89 155 -111 237 -13 53 -16 96 -13 210
5 170 26 240 109 373 69 110 115 161 164 181 l39 16 -36 -40 c-45 -50 -60
-101 -56 -195 3 -80 10 -69 29 51 15 97 44 130 163 188 103 50 142 54 204 22z
m2707 -28 c3 -5 2 -10 -4 -10 -5 0 -13 5 -16 10 -3 6 -2 10 4 10 5 0 13 -4 16
-10z m35 -19 c0 -5 -10 -11 -22 -14 -22 -6 -22 -6 -4 8 23 17 26 18 26 6z m0
-25 c0 -3 -4 -8 -10 -11 -5 -3 -10 -1 -10 4 0 6 5 11 10 11 6 0 10 -2 10 -4z
m1131 -282 c64 -44 72 -64 64 -159 l-7 -82 -36 19 c-28 15 -53 18 -104 16
l-66 -4 30 61 c30 58 51 115 43 115 -2 0 -22 -31 -45 -69 -22 -38 -69 -101
-105 -140 -52 -57 -125 -171 -125 -196 0 -18 30 4 85 63 107 114 212 153 295
110 44 -23 45 -24 69 -113 21 -81 24 -113 26 -325 1 -168 7 -265 19 -340 22
-130 55 -279 69 -305 6 -11 -12 0 -40 25 -61 55 -123 87 -217 111 -104 27
-180 25 -244 -7 -29 -14 -52 -29 -52 -34 0 -4 17 -11 38 -15 l37 -8 -52 -12
c-106 -25 -156 -81 -177 -199 -15 -87 -35 -121 -92 -153 -43 -25 -54 -28 -54
-13 0 5 15 16 33 23 58 25 67 45 83 173 8 65 12 124 9 132 -4 11 -16 13 -50 8
l-45 -7 0 36 c0 20 29 123 65 230 40 118 65 210 65 236 0 56 -12 41 -35 -41
-9 -36 -40 -121 -68 -190 -50 -123 -51 -127 -55 -250 l-4 -125 -47 -45 c-26
-25 -55 -56 -65 -70 -13 -19 -16 -20 -11 -5 4 11 11 54 16 95 5 41 14 88 19
104 14 41 12 86 -2 86 -7 0 -14 -10 -14 -23 -1 -12 -16 -60 -34 -107 -34 -87
-45 -102 -151 -191 -49 -42 -90 -105 -113 -173 -4 -10 -9 -17 -12 -14 -10 10
48 124 90 178 53 68 76 112 132 258 52 133 77 235 94 380 7 57 14 102 15 100
11 -12 57 -142 67 -190 7 -32 16 -58 21 -58 19 0 48 94 57 191 11 106 23 141
96 272 35 62 21 78 -30 35 -37 -30 -38 -31 -31 -7 13 43 59 142 94 204 19 33
62 110 96 170 138 248 171 280 269 270 30 -3 64 -14 87 -31z m-3012 -194 c22
-36 46 -89 55 -119 23 -77 21 -301 -3 -301 -3 0 -4 46 -3 103 4 126 -13 185
-95 326 -102 175 -101 173 -43 111 28 -30 68 -84 89 -120z m2376 21 c3 -5 1
-12 -5 -16 -5 -3 -10 1 -10 9 0 18 6 21 15 7z m-18 -53 c-3 -8 -6 -5 -6 6 -1
11 2 17 5 13 3 -3 4 -12 1 -19z m14 -88 c-16 -58 -39 -162 -51 -232 -22 -122
-40 -165 -40 -95 0 90 60 357 80 357 4 0 12 18 19 41 7 23 14 39 16 37 2 -2
-9 -51 -24 -108z m-1591 -94 c0 -22 -2 -37 -5 -34 -6 6 -35 175 -34 198 2 31
39 -126 39 -164z m1350 154 c0 -5 -4 -10 -10 -10 -5 0 -10 5 -10 10 0 6 5 10
10 10 6 0 10 -4 10 -10z m211 -31 c-6 -16 -10 -18 -10 -7 -1 22 12 55 16 42 2
-6 -1 -22 -6 -35z m-179 9 c-7 -7 -12 -8 -12 -2 0 14 12 26 19 19 2 -3 -1 -11
-7 -17z m165 -60 c-3 -8 -6 -5 -6 6 -1 11 2 17 5 13 3 -3 4 -12 1 -19z m-3557
-174 c0 -8 -4 -12 -10 -9 -5 3 -10 10 -10 16 0 5 5 9 10 9 6 0 10 -7 10 -16z
m30 -127 c25 -31 49 -56 53 -57 5 0 5 6 1 13 -6 8 -3 8 9 -1 9 -8 15 -17 14
-20 -3 -11 161 -170 252 -245 25 -21 31 -31 22 -40 -8 -8 -11 -7 -11 4 0 7
-30 34 -68 59 -188 125 -242 172 -297 254 -29 45 -63 101 -74 126 l-22 45 38
-41 c21 -22 58 -66 83 -97z m3281 83 c22 -23 46 -54 54 -71 24 -46 55 -176 55
-231 0 -59 -40 -242 -70 -318 -41 -106 -150 -329 -245 -500 -90 -160 -77 -100
16 77 210 403 223 433 254 622 27 159 3 306 -65 399 -40 56 -59 54 -21 -1 16
-24 40 -73 53 -108 20 -55 23 -81 22 -189 -2 -108 -6 -139 -32 -228 -35 -119
-116 -269 -195 -365 -57 -68 -154 -196 -182 -239 -17 -28 -47 -36 -73 -19 -11
7 -11 9 1 14 8 3 36 39 62 79 26 40 78 116 115 168 174 246 260 440 260 588 0
70 -23 212 -46 278 -33 97 -24 108 37 44z m126 -127 c41 -74 47 -136 29 -278
-27 -211 -71 -343 -161 -490 -13 -22 -34 -56 -45 -75 -11 -19 -30 -51 -43 -71
-12 -20 -42 -71 -67 -112 -24 -42 -46 -75 -47 -73 -2 1 24 56 57 122 180 362
208 428 251 592 44 164 42 289 -6 405 -14 33 11 17 32 -20z m-2867 -34 c-7
-11 -14 -18 -17 -15 -3 3 0 12 7 21 18 21 23 19 10 -6z m70 -19 c0 -5 -4 -10
-10 -10 -5 0 -10 5 -10 10 0 6 5 10 10 10 6 0 10 -4 10 -10z m-454 -150 c22
-19 53 -45 67 -57 15 -13 37 -24 50 -24 17 -1 18 -2 5 -6 -10 -2 -18 -9 -18
-14 0 -5 -4 -9 -10 -9 -5 0 -10 7 -10 15 0 8 -5 15 -11 15 -13 0 -130 105
-143 129 -10 18 -7 16 70 -49z m276 -132 c-7 -7 -12 -8 -12 -2 0 14 12 26 19
19 2 -3 -1 -11 -7 -17z m-122 -3 c-7 -8 -17 -15 -22 -15 -6 0 -5 7 2 15 7 8
17 15 22 15 6 0 5 -7 -2 -15z m55 -15 c-3 -5 -10 -10 -16 -10 -5 0 -9 5 -9 10
0 6 7 10 16 10 8 0 12 -4 9 -10z m40 -9 c3 -5 1 -12 -5 -16 -5 -3 -10 1 -10 9
0 18 6 21 15 7z m65 -6 c-7 -9 -15 -13 -17 -11 -7 7 7 26 19 26 6 0 6 -6 -2
-15z m-367 -53 c-31 -63 -19 -101 40 -137 40 -24 41 -25 15 -25 -40 0 -88 47
-97 95 -12 67 9 114 50 115 14 0 12 -7 -8 -48z m232 37 c11 -17 -1 -21 -15 -4
-8 9 -8 15 -2 15 6 0 14 -5 17 -11z m251 -25 c-4 -9 -9 -15 -11 -12 -3 3 -3
13 1 22 4 9 9 15 11 12 3 -3 3 -13 -1 -22z m-161 -24 c10 -11 14 -20 9 -20 -5
0 -15 9 -22 20 -7 11 -11 20 -9 20 2 0 12 -9 22 -20z m-40 0 c3 -5 2 -10 -4
-10 -5 0 -13 5 -16 10 -3 6 -2 10 4 10 5 0 13 -4 16 -10z m25 -41 c0 -6 -4 -7
-10 -4 -5 3 -10 11 -10 16 0 6 5 7 10 4 6 -3 10 -11 10 -16z m345 -18 c3 -5 1
-12 -5 -16 -5 -3 -10 1 -10 9 0 18 6 21 15 7z m-255 -75 l64 -71 -74 70 c-41
39 -76 71 -79 73 -2 1 2 1 10 1 8 -1 43 -33 79 -73z m900 39 c14 -19 14 -19
-2 -6 -10 7 -18 18 -18 24 0 6 1 8 3 6 1 -2 9 -13 17 -24z m-100 1 c0 -3 -4
-8 -10 -11 -5 -3 -10 -1 -10 4 0 6 5 11 10 11 6 0 10 -2 10 -4z m-319 -33 c-8
-15 -10 -15 -11 -2 0 17 10 32 18 25 2 -3 -1 -13 -7 -23z m393 11 c3 -8 2 -12
-4 -9 -6 3 -10 10 -10 16 0 14 7 11 14 -7z m2775 -15 c63 -14 194 -84 247
-133 42 -38 46 -46 58 -116 7 -41 12 -76 11 -78 -2 -2 -27 12 -57 31 -55 35
-137 73 -238 109 -41 15 -84 20 -172 22 -108 1 -141 7 -125 22 12 12 92 23
170 24 42 0 77 4 77 9 0 11 -13 15 -90 31 -30 6 -62 15 -70 20 -20 13 110 13
165 0 22 -5 41 -7 43 -6 2 2 -13 13 -32 25 -23 15 -67 26 -128 34 -78 10 -87
13 -58 18 39 8 133 2 199 -12z m-3899 4 c0 -5 -14 -35 -30 -67 -17 -32 -30
-73 -30 -90 0 -31 3 -33 88 -63 48 -17 121 -38 163 -48 42 -9 85 -23 97 -31
12 -8 58 -67 104 -130 114 -160 199 -257 271 -311 78 -57 82 -61 28 -32 -89
49 -224 198 -348 386 -20 29 -46 59 -59 67 -18 12 -283 66 -325 66 -21 0 -6
-30 35 -68 49 -45 82 -57 206 -73 125 -17 150 -27 65 -28 -99 -1 -188 14 -242
40 -54 26 -99 90 -109 155 -8 53 23 191 48 216 18 18 38 24 38 11z m1100 -3
c0 -5 -4 -10 -10 -10 -5 0 -10 5 -10 10 0 6 5 10 10 10 6 0 10 -4 10 -10z
m-748 -112 c56 -53 234 -204 324 -276 16 -13 22 -20 14 -16 -44 21 -397 322
-379 324 3 0 22 -15 41 -32z m3078 -5 c0 -4 -24 -32 -54 -63 -44 -45 -59 -70
-82 -135 -15 -44 -33 -93 -40 -110 -13 -29 -13 -29 -13 -5 -1 33 22 119 40
151 17 32 131 167 142 168 4 1 7 -2 7 -6z m-2870 -93 c0 -13 -5 -18 -15 -14
-12 5 -13 10 -4 20 15 19 19 18 19 -6z m3429 -25 c122 -50 215 -111 219 -145
l4 -25 -34 31 c-85 80 -311 163 -445 164 -28 0 -55 5 -59 11 -5 8 25 10 107 7
104 -4 122 -8 208 -43z m-3316 1 c4 -10 1 -13 -9 -9 -10 4 -12 0 -8 -13 6 -15
4 -17 -6 -7 -13 12 -7 43 9 43 5 0 11 -7 14 -14z m630 -26 c3 -11 1 -20 -4
-20 -5 0 -9 2 -9 4 0 2 -3 11 -6 20 -3 9 -2 16 4 16 5 0 12 -9 15 -20z m1552
-20 c-9 -18 -32 -53 -50 -79 -49 -68 -87 -140 -80 -151 3 -5 -1 -7 -9 -4 -17
7 -6 30 94 186 55 86 77 109 45 48z m-1771 -5 c30 -39 23 -47 -10 -12 -28 30
-37 47 -26 47 5 0 22 -16 36 -35z m2851 0 c151 -53 255 -125 271 -188 6 -25 1
-23 -48 26 -49 49 -65 58 -149 85 -95 30 -151 43 -288 62 -87 13 -96 17 -79
37 21 26 194 13 293 -22z m-3226 16 c7 -5 12 -14 9 -21 -2 -7 -10 -4 -22 9
-19 21 -12 28 13 12z m-89 -5 c0 -3 -4 -8 -10 -11 -5 -3 -10 -1 -10 4 0 6 5
11 10 11 6 0 10 -2 10 -4z m891 -44 c-7 -2 -23 5 -35 17 l-21 22 35 -17 c20
-10 29 -19 21 -22z m-841 8 c0 -5 -7 -10 -16 -10 -8 0 -12 5 -9 10 3 6 10 10
16 10 5 0 9 -4 9 -10z m326 -12 c27 -26 31 -48 9 -48 -8 0 -15 8 -15 19 0 10
-9 21 -20 24 -11 3 -20 10 -20 16 0 18 20 13 46 -11z m554 12 c0 -5 -4 -10
-10 -10 -5 0 -10 5 -10 10 0 6 5 10 10 10 6 0 10 -4 10 -10z m-370 -15 c11
-13 10 -14 -4 -9 -9 3 -16 10 -16 15 0 13 6 11 20 -6z m-300 -6 c0 -6 -7 -17
-15 -25 -16 -16 -19 -7 -9 20 7 18 24 22 24 5z m-150 -9 c0 -5 -7 -10 -16 -10
-8 0 -12 5 -9 10 3 6 10 10 16 10 5 0 9 -4 9 -10z m416 -17 c-7 -7 -26 7 -26
19 0 6 6 6 15 -2 9 -7 13 -15 11 -17z m-336 -3 c0 -5 -7 -7 -15 -4 -8 4 -12
10 -9 15 6 11 24 2 24 -11z m304 -32 c-3 -4 -14 -2 -24 4 -23 15 -32 7 -32
-27 0 -14 -4 -25 -9 -25 -5 0 -9 4 -9 9 0 5 -10 12 -22 16 -21 7 -22 7 -4 12
23 6 40 21 49 45 6 16 8 15 31 -5 13 -12 22 -25 20 -29z m91 32 c3 -5 1 -10
-4 -10 -6 0 -11 5 -11 10 0 6 2 10 4 10 3 0 8 -4 11 -10z m-435 -20 c0 -5 -5
-10 -11 -10 -5 0 -7 5 -4 10 3 6 8 10 11 10 2 0 4 -4 4 -10z m210 -5 c0 -8 -4
-15 -10 -15 -5 0 -10 7 -10 15 0 8 5 15 10 15 6 0 10 -7 10 -15z m-150 -19 c0
-3 -4 -8 -10 -11 -5 -3 -10 -1 -10 4 0 6 5 11 10 11 6 0 10 -2 10 -4z m120
-16 c0 -11 -7 -20 -15 -20 -15 0 -21 21 -8 33 12 13 23 7 23 -13z m2643 9
c-24 -4 -82 -27 -130 -50 -120 -58 -123 -60 -123 -50 0 5 45 32 100 60 82 41
110 51 148 50 l47 -1 -42 -9z m-2812 -56 c10 -13 6 -12 -17 4 -17 12 -37 30
-45 40 -10 13 -6 12 17 -4 17 -12 37 -30 45 -40z m219 32 c0 -8 -2 -15 -4 -15
-2 0 -12 -3 -21 -6 -15 -6 -15 -4 -4 15 16 25 29 27 29 6z m108 -2 c2 -8 -5
-13 -17 -13 -12 0 -21 6 -21 16 0 18 31 15 38 -3z m-231 -9 c-3 -3 -12 -4 -19
-1 -8 3 -5 6 6 6 11 1 17 -2 13 -5z m-827 -23 c0 -5 -3 -11 -7 -13 -5 -1 -20
-18 -35 -36 -28 -33 -35 -71 -22 -119 10 -38 25 -26 19 15 -8 48 19 92 70 116
33 16 47 17 112 7 40 -6 90 -11 110 -11 57 0 35 -8 -53 -19 -91 -11 -194 -46
-194 -65 0 -7 17 -17 37 -22 l37 -9 -50 -23 c-27 -13 -57 -27 -66 -33 -27 -14
-34 -11 -46 16 -23 50 -6 137 34 180 23 25 54 34 54 16z m990 -1 c0 -5 -7 -10
-15 -10 -8 0 -15 5 -15 10 0 6 7 10 15 10 8 0 15 -4 15 -10z m44 -22 c5 -22 3
-26 -9 -22 -15 6 -20 35 -8 47 8 9 9 8 17 -25z m1524 -28 c83 -44 93 -64 22
-40 -32 10 -45 10 -86 -4 -106 -35 -516 -408 -568 -518 -33 -68 -44 -132 -26
-153 7 -8 8 -15 2 -15 -5 0 -15 7 -22 15 -20 25 -4 98 46 210 44 99 50 108
167 223 192 187 356 333 372 330 6 -2 47 -23 93 -48z m-1643 -88 c-4 -5 -165
117 -165 124 0 2 38 -24 84 -58 46 -35 82 -65 81 -66z m25 108 c0 -5 -4 -10
-10 -10 -5 0 -10 5 -10 10 0 6 5 10 10 10 6 0 10 -4 10 -10z m40 -19 c0 -6 -4
-13 -10 -16 -5 -3 -10 1 -10 9 0 9 5 16 10 16 6 0 10 -4 10 -9z m33 -34 c-3
-5 -10 -4 -15 1 -6 6 -7 16 -3 22 6 9 9 9 16 -1 4 -7 5 -17 2 -22z m33 -14
c-11 -11 -19 6 -11 24 8 17 8 17 12 0 3 -10 2 -21 -1 -24z m-99 -5 c-3 -8 -6
-5 -6 6 -1 11 2 17 5 13 3 -3 4 -12 1 -19z m2383 -8 c144 -17 149 -18 165 -50
8 -16 15 -39 15 -50 0 -17 -4 -20 -21 -15 -20 7 -21 4 -18 -66 3 -79 -8 -186
-21 -194 -4 -2 -15 16 -25 40 l-17 45 -54 0 c-30 0 -54 -2 -54 -5 0 -3 15 -29
33 -58 19 -28 49 -78 68 -110 19 -32 66 -95 106 -138 79 -88 90 -108 73 -138
-24 -46 -77 -50 -98 -8 -27 52 -32 77 -16 77 23 0 28 28 9 58 -46 70 -201 240
-211 230 -12 -12 26 -60 123 -156 52 -51 93 -98 90 -105 -9 -29 -36 -14 -79
46 -64 87 -125 140 -194 172 -33 14 -68 31 -79 37 -76 42 -198 98 -203 94 -11
-12 29 -42 120 -91 108 -58 151 -98 203 -186 21 -35 55 -86 76 -113 21 -27 44
-66 51 -88 10 -34 9 -41 -8 -58 -10 -10 -30 -20 -44 -22 -20 -2 -28 4 -42 32
-9 19 -19 45 -22 57 -6 18 -4 21 16 16 l23 -6 -21 24 c-12 13 -49 66 -83 117
-63 94 -84 110 -95 70 -4 -18 -8 -20 -18 -10 -6 6 -25 12 -41 12 -23 0 -27 -3
-19 -13 6 -7 43 -75 82 -151 85 -168 91 -216 26 -216 -14 0 -43 60 -48 96 -2
12 6 32 17 44 l20 23 -28 -5 c-25 -5 -30 -1 -53 44 -14 28 -23 52 -21 54 2 2
12 -14 22 -35 9 -22 24 -42 31 -45 17 -7 2 26 -60 126 -34 56 -45 67 -61 62
-11 -3 -35 -8 -52 -11 -34 -5 -40 -12 -23 -29 12 -12 110 -293 110 -317 0 -42
-21 1 -55 111 -37 118 -80 212 -97 212 -15 0 -96 61 -102 77 -3 7 13 1 37 -15
38 -26 102 -52 81 -33 -26 23 -162 109 -184 116 -14 4 -36 17 -50 30 -41 37
-141 100 -195 123 l-50 21 46 -1 c53 -1 85 14 94 42 8 27 -8 46 -51 62 -56 20
-40 31 35 23 77 -8 92 -3 155 52 73 62 108 72 292 87 215 17 289 18 394 6z
m-2334 -27 c-10 -10 -19 5 -10 18 6 11 8 11 12 0 2 -7 1 -15 -2 -18z m73 -7
c-3 -3 -11 5 -18 17 -13 21 -12 21 5 5 10 -10 16 -20 13 -22z m246 6 c-3 -3
-11 0 -18 7 -9 10 -8 11 6 5 10 -3 15 -9 12 -12z m-288 -14 c-3 -8 -6 -5 -6 6
-1 11 2 17 5 13 3 -3 4 -12 1 -19z m104 -34 c21 -24 22 -26 3 -16 -25 13 -50
42 -37 42 5 0 20 -12 34 -26z m-55 -65 c3 -6 -17 6 -45 26 -28 20 -51 39 -51
41 0 7 88 -55 96 -67z m-758 11 c50 -24 91 -45 89 -47 -6 -6 -207 81 -207 90
0 11 1 11 118 -43z m811 14 c14 -12 -19 -1 -35 12 -18 14 -18 14 6 3 14 -6 27
-13 29 -15z m731 -4 c0 -5 -4 -10 -10 -10 -5 0 -10 5 -10 10 0 6 5 10 10 10 6
0 10 -4 10 -10z m30 0 c0 -5 -5 -10 -11 -10 -5 0 -7 5 -4 10 3 6 8 10 11 10 2
0 4 -4 4 -10z m675 -10 c-3 -5 -14 -10 -23 -10 -15 0 -15 2 -2 10 20 13 33 13
25 0z m-2419 -14 c55 -19 265 -118 261 -123 -5 -4 -233 72 -295 98 -64 28 -81
25 -51 -7 28 -32 83 -57 241 -113 103 -36 228 -88 188 -78 -55 15 -312 103
-344 118 -22 10 -42 19 -44 19 -16 0 34 -39 109 -85 96 -59 241 -113 394 -146
76 -16 81 -18 31 -13 -128 13 -364 92 -489 166 -84 49 -168 142 -152 168 9 15
106 12 151 -4z m1124 5 c0 -6 -4 -13 -10 -16 -5 -3 -10 1 -10 9 0 9 5 16 10
16 6 0 10 -4 10 -9z m680 -16 c-7 -8 -17 -15 -22 -15 -6 0 -5 7 2 15 7 8 17
15 22 15 6 0 5 -7 -2 -15z m-839 -12 c13 -16 12 -17 -3 -4 -10 7 -18 15 -18
17 0 8 8 3 21 -13z m237 -68 c-1 -27 -1 -27 -5 -5 -5 29 -53 71 -53 47 0 -8
-6 -20 -14 -26 -12 -10 -13 -7 -4 23 l11 34 33 -21 c27 -18 33 -28 32 -52z
m1081 51 c18 4 35 -1 51 -14 23 -19 23 -20 6 -37 -22 -23 -72 -24 -93 -2 -23
22 -8 35 16 13 14 -13 24 -14 45 -7 33 13 34 23 1 15 -27 -7 -66 18 -64 40 0
7 2 6 5 -1 3 -7 16 -10 33 -7z m-1047 -48 c-9 -9 -12 -7 -12 12 0 19 3 21 12
12 9 -9 9 -15 0 -24z m-662 12 c8 -5 11 -10 5 -10 -5 0 -17 5 -25 10 -8 5 -10
10 -5 10 6 0 17 -5 25 -10z m708 -11 c-2 -6 -8 -10 -13 -10 -5 0 -11 4 -13 10
-2 6 4 11 13 11 9 0 15 -5 13 -11z m-661 -5 c-3 -3 -12 -4 -19 -1 -8 3 -5 6 6
6 11 1 17 -2 13 -5z m489 -25 c3 -6 -5 -3 -20 6 -14 10 -26 19 -26 22 0 7 39
-17 46 -28z m205 6 c5 4 9 1 9 -6 0 -7 7 -4 15 7 14 19 14 18 15 -3 0 -26 -8
-28 -45 -11 -26 12 -30 19 -17 32 4 4 8 1 10 -8 2 -9 8 -14 13 -11z m79 -20
c0 -8 -4 -15 -10 -15 -5 0 -10 -4 -10 -10 0 -5 9 -10 21 -10 15 0 19 4 14 19
-3 11 -1 22 5 26 5 3 10 3 11 -2 3 -32 3 -73 1 -73 -2 0 -17 7 -33 16 -20 10
-29 20 -25 30 3 9 6 20 6 25 0 5 5 9 10 9 6 0 10 -7 10 -15z m80 -17 c0 -5 -7
-8 -15 -8 -15 0 -20 21 -8 33 7 7 23 -11 23 -25z m-210 12 c0 -5 -2 -10 -4
-10 -3 0 -8 5 -11 10 -3 6 -1 10 4 10 6 0 11 -4 11 -10z m257 -16 c3 -8 1 -25
-5 -37 -10 -21 -11 -21 -11 6 -1 16 -5 26 -11 22 -11 -7 -14 8 -3 18 11 12 23
8 30 -9z m-202 -4 c8 -13 -5 -13 -25 0 -13 8 -13 10 2 10 9 0 20 -4 23 -10z
m-33 -32 c-7 -7 -12 -8 -12 -2 0 14 12 26 19 19 2 -3 -1 -11 -7 -17z m198 -4
c0 -9 -7 -14 -17 -12 -25 5 -28 28 -4 28 12 0 21 -6 21 -16z m-120 2 c0 -3 -4
-8 -10 -11 -5 -3 -10 -1 -10 4 0 6 5 11 10 11 6 0 10 -2 10 -4z m30 -26 c0 -5
-2 -10 -4 -10 -3 0 -8 5 -11 10 -3 6 -1 10 4 10 6 0 11 -4 11 -10z m-1730 -18
c0 -26 -20 -42 -53 -42 -76 0 -401 -96 -505 -149 -50 -25 -152 -102 -224 -170
-102 -94 -83 -35 22 70 66 66 161 117 380 204 143 57 299 103 353 104 20 1 27
-4 27 -17z m1366 -222 c69 -122 187 -248 369 -396 30 -25 55 -50 55 -56 0 -6
3 -8 7 -5 3 4 16 -2 28 -13 11 -10 45 -33 75 -49 63 -35 60 -42 -3 -10 -106
54 -305 208 -409 316 -85 89 -237 339 -263 433 -7 25 60 -80 141 -220z m404
221 c0 -11 5 -23 10 -26 6 -3 10 -10 10 -16 0 -5 -4 -9 -10 -9 -5 0 -10 7 -10
15 0 8 -7 15 -16 15 -13 0 -14 3 -5 13 6 8 8 17 4 20 -3 4 -1 7 5 7 7 0 12 -9
12 -19z m66 -28 c-7 -17 -8 -17 -17 0 -12 21 -2 44 13 29 6 -6 8 -19 4 -29z
m34 16 c0 -5 -4 -9 -10 -9 -5 0 -10 7 -10 16 0 8 5 12 10 9 6 -3 10 -10 10
-16z m59 7 c10 -12 8 -13 -8 -9 -13 3 -21 1 -21 -8 0 -7 -3 -9 -6 -6 -4 4 -1
13 6 22 15 18 15 18 29 1z m41 -16 c0 -5 -4 -10 -10 -10 -5 0 -10 5 -10 10 0
6 5 10 10 10 6 0 10 -4 10 -10z m-27 -30 c3 -11 1 -20 -4 -20 -5 0 -9 2 -9 4
0 2 -3 11 -6 20 -3 9 -2 16 4 16 5 0 12 -9 15 -20z m-1867 -7 c-3 -10 -9 -43
-15 -74 -11 -65 -7 -103 42 -354 20 -99 41 -214 47 -255 7 -41 20 -96 30 -122
10 -27 17 -48 15 -48 -2 0 -13 16 -25 37 -12 21 -30 83 -41 147 -11 61 -40
181 -64 266 -75 268 -77 295 -29 377 25 43 50 59 40 26z m1794 2 c0 -8 -4 -15
-10 -15 -5 0 -7 7 -4 15 4 8 8 15 10 15 2 0 4 -7 4 -15z m30 0 c0 -8 -2 -15
-4 -15 -2 0 -6 7 -10 15 -3 8 -1 15 4 15 6 0 10 -7 10 -15z m79 -18 c0 -21 -1
-21 -9 -2 -12 28 -12 37 0 30 6 -3 10 -16 9 -28z m-79 -93 c0 -8 -98 49 -128
73 -15 13 8 2 51 -23 42 -25 77 -48 77 -50z m-1751 57 c23 -18 23 -20 27 -257
6 -296 15 -374 63 -528 21 -66 42 -143 45 -171 4 -27 10 -59 13 -70 3 -11 2
-17 -1 -14 -4 4 -18 53 -31 110 -13 57 -35 136 -48 174 -14 39 -32 126 -42
195 -9 68 -27 172 -40 230 -45 202 -55 350 -22 350 7 0 23 -9 36 -19z m1811
15 c0 -3 -4 -8 -10 -11 -5 -3 -10 -1 -10 4 0 6 5 11 10 11 6 0 10 -2 10 -4z
m-1023 -12 c-3 -3 -12 -4 -19 -1 -8 3 -5 6 6 6 11 1 17 -2 13 -5z m1034 -17
c-10 -9 -11 -8 -5 6 3 10 9 15 12 12 3 -3 0 -11 -7 -18z m2054 -26 c31 -18
105 -86 190 -176 77 -81 205 -215 285 -298 149 -155 211 -231 269 -326 35 -58
35 -70 -1 -49 -37 21 -410 18 -513 -4 -127 -28 -350 -97 -490 -153 -15 -6 -14
-3 6 13 41 34 142 75 349 145 180 60 226 74 303 91 15 4 26 10 23 14 -2 4 3 8
12 9 9 0 37 5 62 10 l45 9 -75 13 c-41 7 -124 21 -185 32 -60 11 -139 24 -175
29 -36 5 -81 15 -101 21 -33 10 -43 8 -125 -30 -116 -55 -239 -125 -292 -168
-63 -52 -62 -33 1 22 59 51 118 88 254 161 48 26 90 49 93 51 2 2 -27 3 -65 1
-51 -1 -82 -8 -113 -25 -23 -13 -47 -21 -52 -18 -6 3 -10 1 -10 -4 0 -6 -9
-11 -20 -11 -11 0 -21 -6 -21 -12 -1 -7 -5 1 -8 17 -4 17 -4 35 1 41 15 21 39
86 29 79 -15 -8 -14 -1 4 42 8 19 14 56 14 82 l-2 46 -7 -55 c-3 -30 -14 -72
-23 -92 -17 -41 -33 -52 -22 -17 5 15 4 19 -5 14 -6 -4 -10 -18 -7 -31 2 -12
0 -29 -4 -36 -6 -8 -9 3 -9 30 0 23 5 42 10 42 6 0 11 36 12 83 l2 82 3 -84
c4 -81 4 -84 18 -57 9 16 15 56 15 92 0 62 1 64 26 64 14 0 39 8 55 17 52 31
178 246 179 306 0 23 6 22 65 -12z m-2495 -166 c47 -54 99 -114 117 -133 45
-52 30 -55 -17 -4 -22 23 -40 39 -40 35 0 -3 -9 2 -20 12 -12 10 -18 25 -15
32 2 8 1 12 -4 9 -13 -8 -67 50 -126 136 -92 133 -80 123 105 -87z m515 165
c3 -5 1 -10 -4 -10 -6 0 -11 5 -11 10 0 6 2 10 4 10 3 0 8 -4 11 -10z m-1816
-57 c-2 -98 -17 -119 -18 -25 -1 48 3 82 9 82 6 0 10 -25 9 -57z m1736 2 l20
-16 -20 10 c-11 5 -29 17 -40 26 l-20 16 20 -10 c11 -5 29 -17 40 -26z m-2330
16 c26 -6 23 -8 -28 -15 -100 -13 -172 -55 -197 -116 -17 -41 -38 -40 -32 2 5
33 22 52 81 90 66 42 114 53 176 39z m3253 -23 c8 -8 1 -16 -28 -30 -50 -25
-188 -159 -225 -218 -16 -25 -41 -70 -57 -100 -16 -30 -26 -44 -22 -30 9 35
51 117 87 170 36 53 204 220 221 220 7 0 17 -5 24 -12z m-2445 -153 c62 -39
245 -124 312 -145 22 -7 55 -21 73 -31 18 -10 78 -39 133 -63 56 -24 95 -46
88 -48 -8 -3 -30 3 -49 12 -19 9 -60 25 -90 35 -30 10 -91 35 -135 56 -44 20
-125 56 -180 78 -155 65 -266 139 -306 204 -33 55 -21 53 39 -5 31 -31 83 -73
115 -93z m2517 106 c0 -5 -8 -12 -19 -16 -17 -5 -106 -99 -159 -169 -41 -53
-23 -14 22 48 61 84 120 146 140 146 9 0 16 -4 16 -9z m-2655 -100 c21 -116
179 -510 232 -579 32 -42 41 -30 18 25 -19 43 -169 446 -179 481 -12 37 13 26
67 -30 143 -152 172 -178 228 -207 86 -47 106 -36 31 17 -74 52 -189 159 -180
168 4 3 42 -8 85 -26 65 -28 345 -129 406 -147 11 -3 16 -12 13 -20 -3 -8 -6
-22 -6 -30 0 -12 -6 -9 -25 9 -27 27 -277 132 -298 125 -11 -4 31 -25 221
-113 l84 -38 -6 -37 c-3 -21 -11 -50 -16 -65 l-11 -28 -61 60 -60 59 27 -45
c16 -25 39 -59 52 -76 12 -17 23 -34 23 -37 0 -4 -17 -34 -37 -68 l-38 -60
-65 8 c-144 17 -173 8 -273 -89 -51 -50 -68 -75 -82 -118 -29 -89 -114 -260
-162 -324 -24 -33 -51 -76 -59 -95 -37 -88 -124 -136 -189 -105 -35 16 -90 72
-81 81 3 3 23 -10 46 -28 32 -26 51 -33 80 -33 51 2 97 36 120 90 11 24 38 67
60 96 23 29 60 88 82 132 39 77 40 84 40 174 -1 168 -25 205 -35 54 -7 -93
-35 -200 -64 -243 -51 -75 -230 -236 -246 -220 -15 15 8 44 68 91 69 53 147
138 181 196 51 86 43 250 -22 454 -13 42 -29 101 -35 131 -11 57 -14 459 -3
493 6 19 9 18 34 -13 16 -18 31 -49 35 -70z m-351 -12 c49 -24 76 -52 64 -64
-3 -4 -17 -1 -30 6 -21 11 -22 11 -10 -4 8 -9 11 -21 7 -27 -3 -5 -2 -10 3
-10 9 0 20 -28 29 -73 3 -15 -2 -14 -30 7 -37 28 -47 32 -47 16 0 -6 23 -25
50 -42 28 -17 50 -35 50 -39 0 -14 -13 -10 -40 11 -14 11 -32 20 -40 19 -11 0
-10 -2 4 -10 15 -9 16 -13 5 -20 -10 -6 -8 -9 8 -9 30 0 71 -20 77 -36 7 -17
6 -17 -33 2 -17 8 -37 14 -44 11 -6 -2 12 -16 41 -31 28 -14 52 -31 52 -36 0
-14 -5 -13 -50 10 -47 24 -57 25 -39 4 7 -9 30 -23 51 -31 21 -8 44 -25 50
-36 10 -20 10 -20 -17 1 -15 12 -35 22 -44 21 -11 0 -9 -4 7 -11 12 -6 22 -15
22 -20 0 -5 11 -13 25 -18 31 -12 34 -34 4 -25 -15 5 -19 4 -15 -4 4 -6 14
-11 21 -11 14 0 45 -59 45 -83 0 -6 -17 7 -38 28 -22 22 -54 48 -73 58 l-34
19 30 -28 c96 -86 123 -117 153 -173 18 -33 29 -61 23 -61 -6 0 -17 12 -25 28
-18 35 -51 72 -63 72 -5 0 -36 29 -67 66 -58 65 -86 81 -48 27 11 -15 36 -60
55 -99 20 -39 60 -105 90 -147 30 -42 62 -97 71 -124 18 -52 13 -50 -36 19
-97 135 -297 348 -415 442 -45 35 -37 5 13 -47 136 -141 216 -243 294 -372
l43 -70 -57 60 c-173 184 -276 275 -313 275 -25 0 2 -33 134 -161 131 -127
204 -213 222 -262 14 -37 9 -34 -24 13 -15 22 -35 40 -44 40 -13 0 -13 2 -2 9
11 7 3 20 -34 60 -26 28 -52 51 -57 51 -11 0 16 -53 36 -69 9 -8 16 -23 15
-35 0 -20 -1 -20 -17 3 -44 64 -50 59 -12 -13 45 -84 36 -97 -18 -25 -81 107
-219 262 -246 276 -32 17 -30 11 14 -47 80 -105 149 -270 175 -419 17 -100 18
-111 6 -111 -5 0 -12 20 -15 45 -10 65 -44 159 -119 328 -83 188 -151 284
-246 350 -103 70 -115 65 -46 -20 56 -68 103 -153 145 -261 25 -62 40 -87 62
-100 38 -22 63 -63 93 -153 31 -90 31 -92 0 -46 -14 20 -29 37 -34 37 -4 0
-22 23 -40 51 -37 55 -52 60 -26 7 l16 -33 -20 25 c-11 13 -36 57 -56 97 -32
67 -55 92 -55 61 0 -7 23 -69 50 -137 28 -69 60 -161 71 -205 33 -134 69 -235
95 -266 41 -48 78 -54 309 -53 189 1 200 0 115 -9 -140 -14 -341 -4 -387 19
-53 26 -67 51 -126 223 -30 85 -61 170 -71 188 -17 32 -153 140 -170 134 -5
-2 -15 6 -23 18 -8 11 -19 20 -25 20 -6 0 -1 -11 12 -25 13 -14 30 -23 37 -21
7 3 13 -1 13 -9 0 -8 8 -20 18 -27 19 -14 72 -81 72 -91 0 -3 -25 20 -56 51
-34 34 -48 45 -37 27 68 -104 119 -198 139 -259 13 -38 24 -72 24 -75 0 -3
-25 41 -56 99 -59 110 -172 279 -287 429 -46 59 -155 138 -253 182 -61 28
-119 38 -112 21 2 -5 44 -43 94 -85 50 -42 103 -92 118 -112 43 -56 76 -137
97 -238 26 -127 24 -142 -9 -81 -66 120 -138 180 -284 239 -109 43 -130 45
-52 4 99 -53 194 -117 250 -171 60 -57 75 -88 18 -38 -20 17 -48 37 -63 43
-14 7 -91 55 -171 109 -109 72 -155 109 -183 148 -73 99 -171 135 -243 91 -25
-15 -34 -31 -44 -72 -31 -127 8 -283 161 -641 82 -195 113 -288 89 -273 -5 3
-10 14 -10 23 0 9 -32 85 -71 167 -39 83 -88 192 -110 242 -44 107 -119 355
-119 396 0 19 -5 27 -17 27 -13 0 -15 2 -5 9 12 7 37 180 27 190 -9 8 -16 -6
-19 -35 -2 -15 -10 -28 -18 -30 -13 -1 -14 3 -5 26 11 29 4 60 -13 60 -5 0
-10 -15 -10 -32 0 -56 -17 -65 -22 -13 -8 69 -26 79 -26 15 -1 -60 -8 -75 -17
-34 -9 43 -20 59 -43 62 -16 2 -26 -7 -41 -37 -27 -51 -26 -61 2 -61 24 -1 67
-32 67 -49 0 -15 -11 -13 -34 4 -11 8 -31 15 -45 14 -25 0 -25 -1 7 -16 20
-11 32 -24 32 -36 0 -19 -1 -19 -18 -4 -10 10 -28 17 -40 17 -11 0 -23 7 -25
15 -4 11 -5 11 -3 -2 1 -15 70 -72 87 -73 4 0 9 14 13 32 3 17 8 29 10 27 2
-2 -3 -36 -12 -75 l-15 -72 -46 25 c-25 14 -50 29 -55 34 -13 12 -26 11 -26
-1 0 -5 17 -18 38 -29 21 -11 44 -26 51 -34 20 -25 -5 -29 -44 -7 -43 24 -63
26 -45 5 7 -9 15 -13 18 -11 3 3 17 -4 33 -14 25 -19 27 -25 23 -73 -2 -28 -6
-67 -9 -84 -6 -36 -4 -36 -64 16 -19 17 -37 28 -40 25 -3 -3 16 -24 43 -48
l49 -42 -2 -80 c-1 -43 -4 -81 -6 -83 -3 -2 -13 7 -24 20 -26 31 -27 16 -2
-20 17 -23 26 -58 22 -84 -1 -5 -7 -5 -13 0 -7 4 -16 8 -19 8 -5 0 -101 103
-128 138 -26 33 8 17 48 -23 35 -36 61 -50 61 -34 0 8 -83 83 -92 84 -12 0 -9
20 3 20 5 0 28 -14 50 -32 54 -43 58 -31 6 18 -36 34 -47 39 -65 31 -11 -5
-28 -24 -37 -43 -12 -25 -22 -33 -47 -36 l-32 -3 59 -57 c32 -32 61 -58 64
-58 14 0 81 -73 81 -87 0 -16 -8 -12 -58 35 -7 6 -17 12 -22 12 -4 0 -25 18
-47 40 -27 28 -44 39 -56 34 -20 -7 -23 -26 -4 -22 18 4 67 -32 67 -49 0 -8 6
-13 13 -10 6 2 29 -11 49 -31 21 -19 46 -36 56 -37 19 -1 72 -37 72 -49 0 -14
-26 -4 -38 15 -10 16 -17 18 -25 10 -8 -8 -6 -16 6 -29 25 -27 21 -31 -23 -27
-46 4 -54 -10 -12 -18 26 -5 92 -56 92 -71 0 -15 -36 -4 -48 14 -14 22 -32 27
-32 7 0 -12 85 -70 106 -71 16 -1 41 -29 41 -48 0 -9 -6 -14 -14 -11 -7 3 -13
10 -13 15 0 15 -32 37 -53 38 -10 0 -20 7 -23 15 -4 8 -18 15 -33 15 l-26 0
29 -25 c38 -32 22 -53 -16 -22 -15 12 -28 29 -30 37 -4 20 -24 40 -40 40 -10
-1 -9 -4 2 -13 8 -7 22 -25 30 -41 8 -16 29 -38 46 -50 38 -24 61 -56 42 -56
-23 1 -92 75 -208 224 -8 11 -36 43 -61 70 -58 65 -245 299 -260 327 -8 17 -8
23 2 30 7 4 16 6 21 3 4 -2 12 6 19 18 46 87 270 362 394 483 79 78 132 140
179 212 70 107 105 141 171 167 22 8 155 47 295 86 140 39 325 91 410 115 349
97 678 158 825 151 29 -1 71 -13 99 -27z m1347 -65 c79 -28 265 -119 275 -135
3 -6 -41 13 -98 42 -56 29 -146 67 -198 85 -52 19 -86 34 -74 34 11 0 54 -12
95 -26z m1769 -8 c0 -8 -17 -25 -37 -37 -21 -13 -85 -68 -143 -124 -57 -55
-90 -82 -73 -60 40 51 144 153 203 199 53 41 50 40 50 22z m617 -113 c-2 -21
-4 -6 -4 32 0 39 2 55 4 38 2 -18 2 -50 0 -70z m-2037 -59 c0 -2 -9 0 -20 6
-11 6 -20 13 -20 16 0 2 9 0 20 -6 11 -6 20 -13 20 -16z m1969 -96 c0 -48 -3
-64 -8 -48 -7 24 -3 120 5 120 2 0 4 -33 3 -72z m-2214 37 c44 -13 70 -24 59
-24 -24 -1 -154 37 -154 44 0 8 11 6 95 -20z m-327 -57 c-31 -171 -129 -354
-365 -683 -39 -55 -84 -111 -99 -125 l-28 -25 30 40 c50 66 206 303 273 414
96 161 139 251 164 345 24 95 40 116 25 34z m2582 0 c-23 -35 -23 -31 -1 15 8
15 16 25 19 22 2 -2 -5 -19 -18 -37z m-1701 -93 c12 -12 -27 -2 -131 35 -62
22 -117 45 -123 51 -5 6 48 -10 119 -36 72 -25 132 -48 135 -50z m1682 28
c-12 -20 -14 -14 -5 12 4 9 9 14 11 11 3 -2 0 -13 -6 -23z m364 17 c3 -5 1
-10 -4 -10 -6 0 -11 5 -11 10 0 6 2 10 4 10 3 0 8 -4 11 -10z m-2008 -56 c-3
-3 -12 -4 -19 -1 -8 3 -5 6 6 6 11 1 17 -2 13 -5z m2158 -34 c3 -5 -1 -10 -10
-10 -9 0 -13 5 -10 10 3 6 8 10 10 10 2 0 7 -4 10 -10z m109 -6 c3 -8 2 -12
-4 -9 -6 3 -10 10 -10 16 0 14 7 11 14 -7z m94 -6 c-2 -6 -10 -14 -16 -16 -7
-2 -10 2 -6 12 7 18 28 22 22 4z m32 2 c0 -5 -5 -10 -11 -10 -5 0 -7 5 -4 10
3 6 8 10 11 10 2 0 4 -4 4 -10z m-150 -25 c13 -14 21 -25 18 -25 -2 0 -15 11
-28 25 -13 14 -21 25 -18 25 2 0 15 -11 28 -25z m-2915 -17 c28 -27 133 -201
212 -348 9 -18 13 -20 13 -8 0 25 -34 108 -68 164 -16 27 -45 80 -66 117 l-36
68 35 14 c19 8 38 15 42 15 4 0 20 -38 34 -83 15 -45 41 -113 59 -152 122
-270 120 -267 120 -216 0 49 -35 175 -85 310 -43 115 -52 151 -39 151 4 0 35
-20 69 -45 74 -52 126 -110 163 -180 23 -43 27 -61 26 -133 -2 -107 -16 -123
-34 -37 -15 73 -36 102 -28 39 7 -49 40 -164 48 -164 12 0 41 61 49 104 19
101 -28 215 -132 319 -38 38 -64 68 -59 66 5 -2 59 -38 120 -79 l111 -75 -6
-160 c-4 -152 -9 -181 -50 -323 l-15 -53 -37 34 c-21 19 -67 53 -102 77 -35
23 -107 86 -160 140 -105 106 -166 153 -230 176 -79 27 -61 6 94 -110 45 -34
106 -90 135 -126 85 -102 142 -159 197 -196 85 -58 87 -59 79 -89 -4 -18 -11
-24 -21 -20 -12 4 -14 0 -10 -15 3 -11 1 -23 -4 -26 -5 -3 -10 3 -10 13 -1 10
-4 5 -8 -12 -3 -16 -9 -25 -13 -20 -3 6 0 28 7 50 12 35 12 38 -1 21 -7 -11
-14 -29 -14 -40 -1 -20 -1 -20 -15 -2 -13 16 -14 14 -10 -28 l5 -47 -32 22
c-34 24 -32 18 15 -48 17 -24 27 -46 24 -49 -4 -4 -25 5 -47 20 -54 36 -116
59 -305 116 -88 27 -225 71 -303 99 -79 28 -152 51 -163 51 -10 0 -19 3 -19 6
0 4 35 43 78 88 42 45 99 114 125 154 27 39 54 72 62 72 8 0 48 -15 89 -34 42
-19 76 -31 76 -27 0 12 -17 24 -90 62 -36 18 -66 34 -68 35 -2 1 12 26 31 55
36 57 100 218 112 282 4 20 9 37 12 37 2 0 20 -15 38 -32z m2865 22 c0 -5 -5
-10 -11 -10 -5 0 -7 5 -4 10 3 6 8 10 11 10 2 0 4 -4 4 -10z m-4078 -97 c15
-15 28 -31 28 -36 0 -5 16 -32 36 -59 35 -50 40 -79 6 -42 -16 18 -89 123
-106 152 -12 21 7 13 36 -15z m-1908 -49 c15 -38 7 -50 -29 -46 -19 2 -35 6
-35 7 0 2 3 11 6 20 6 14 8 14 31 0 l24 -16 -16 25 c-15 22 -15 26 -2 26 8 0
18 -7 21 -16z m2561 -161 c-59 -92 -119 -185 -132 -205 -13 -21 -26 -38 -30
-38 -8 0 -109 76 -134 101 -17 17 -17 21 -2 71 25 85 50 125 99 159 65 44 116
58 201 52 64 -5 72 -4 84 15 7 12 15 19 17 17 3 -2 -44 -80 -103 -172z m4070
153 c14 -9 37 -40 51 -69 14 -28 41 -77 59 -107 18 -30 49 -109 70 -175 20
-66 46 -138 57 -160 31 -59 21 -174 -22 -261 -43 -88 -86 -127 -163 -149 -34
-9 -111 -33 -172 -52 -120 -38 -119 -38 -270 0 -55 14 -133 29 -174 33 -68 6
-78 10 -117 46 -23 21 -62 64 -85 94 -24 31 -66 71 -93 89 -63 40 -168 131
-141 121 28 -10 117 -27 122 -22 2 2 -11 11 -29 19 -18 9 -26 17 -18 17 8 0
35 -11 59 -25 53 -31 68 -33 22 -3 -19 12 -29 24 -22 26 6 2 18 -1 25 -7 7 -6
26 -13 42 -15 16 -2 38 -7 49 -11 19 -6 19 -6 1 9 -22 18 -121 40 -136 31 -5
-3 -10 -2 -10 3 0 5 -6 9 -12 10 -18 1 -49 8 -153 32 -156 37 -158 38 -72 39
54 1 77 5 77 14 0 9 2 9 9 -1 8 -13 46 -13 69 1 7 5 12 3 12 -5 0 -9 3 -9 10
2 9 13 10 13 10 0 0 -13 1 -13 10 0 9 13 10 13 10 0 1 -11 4 -10 15 4 14 19
15 19 15 1 0 -18 1 -18 15 1 14 19 14 19 15 -1 0 -17 2 -17 10 -5 9 13 10 13
11 0 0 -10 3 -8 9 5 l9 20 0 -20 c1 -11 5 -16 9 -10 9 13 35 19 28 6 -3 -5 1
-12 10 -15 10 -4 13 -2 8 7 -5 8 -2 7 9 -2 14 -11 17 -11 17 0 0 11 2 11 10
-1 5 -8 10 -10 10 -5 0 6 4 3 10 -5 7 -12 12 -12 29 4 15 13 24 16 33 9 21
-17 108 -33 108 -19 0 8 2 8 8 0 4 -6 27 -15 51 -19 43 -7 44 -7 37 16 -3 13
-9 34 -12 46 -5 17 2 27 33 47 29 20 44 41 66 95 34 83 45 94 118 115 30 8 73
23 95 32 l39 17 -29 8 c-31 9 -381 -55 -476 -86 -25 -8 -126 -35 -225 -60 -99
-25 -189 -48 -200 -52 -14 -3 -17 -2 -10 5 15 16 233 95 360 131 118 33 363
85 460 96 48 6 56 9 41 17 -29 16 -238 3 -336 -21 -163 -40 -160 -40 -176 -24
-12 13 -14 12 -15 -4 0 -11 -3 -13 -6 -5 -3 7 1 19 8 28 10 12 14 12 20 2 6
-9 9 -7 9 7 1 20 1 20 15 1 15 -19 15 -19 15 2 0 15 5 20 15 16 8 -4 15 -1 15
4 0 6 8 10 18 10 9 -1 56 13 105 30 48 17 87 29 87 27 0 -2 19 3 43 11 23 9
65 18 92 21 28 3 52 8 55 10 12 12 202 -6 225 -21z m-2702 -43 c-7 -2 -21 -2
-30 0 -10 3 -4 5 12 5 17 0 24 -2 18 -5z m-3803 -23 c0 -4 -11 -10 -25 -12
-27 -6 -32 1 -14 19 12 12 39 7 39 -7z m195 3 c-14 -36 -16 -47 -3 -27 7 12
21 20 30 19 11 -2 15 2 11 13 -4 14 -3 14 5 3 5 -7 14 -11 19 -8 6 4 23 -8 39
-26 16 -17 19 -24 8 -14 -21 17 -22 17 -39 -18 -20 -44 -13 -57 11 -21 9 15
19 24 21 22 6 -6 -28 -52 -40 -54 -12 -2 -37 -29 -37 -40 0 -5 11 -35 25 -67
14 -32 24 -59 22 -61 -1 -2 -17 24 -35 58 -24 46 -29 65 -21 79 6 13 6 24 -2
37 -16 26 -5 52 22 52 22 0 22 21 -1 28 -7 3 -10 0 -6 -7 4 -7 2 -9 -8 -5 -9
3 -17 -3 -21 -17 -7 -20 -8 -20 -17 -5 -5 9 -14 14 -20 10 -5 -4 -2 5 7 20 10
15 15 29 12 32 -3 3 -8 -4 -12 -15 -3 -12 -11 -21 -16 -21 -6 0 -8 3 -6 8 2 4
7 15 10 24 3 9 15 16 27 15 12 -1 18 -6 15 -14z m633 -23 c92 -72 126 -132
177 -313 19 -69 35 -129 35 -133 0 -19 -14 12 -55 126 -53 145 -106 239 -174
309 -59 61 -52 66 17 11z m3025 33 c-7 -2 -19 -2 -25 0 -7 3 -2 5 12 5 14 0
19 -2 13 -5z m-3873 -43 c0 -5 -7 -10 -16 -10 -8 0 -12 5 -9 10 3 6 10 10 16
10 5 0 9 -4 9 -10z m3831 -18 c66 -42 150 -104 146 -108 -2 -2 -42 5 -88 16
-46 11 -119 23 -161 26 -56 5 -78 11 -78 20 0 11 20 14 84 14 124 0 127 24 6
47 l-65 13 65 -6 c36 -3 77 -13 91 -22z m-3801 -18 c0 -8 -4 -12 -10 -9 -5 3
-10 10 -10 16 0 5 5 9 10 9 6 0 10 -7 10 -16z m-48 -12 c-7 -2 -12 -11 -12
-19 0 -9 -3 -14 -6 -10 -10 10 7 48 19 40 8 -5 8 -8 -1 -11z m4139 -79 c75
-46 219 -112 299 -138 92 -28 236 -44 264 -28 14 8 0 11 -56 16 -130 11 -334
75 -423 133 -22 14 -31 22 -20 18 298 -105 396 -125 620 -127 167 -2 171 -1
230 26 32 15 75 40 95 54 l35 26 -25 -27 c-51 -56 -163 -100 -344 -135 l-168
-33 -93 16 c-148 25 -291 87 -473 207 -59 39 -109 72 -112 75 -8 9 134 -61
171 -83z m-3741 -23 c33 -136 79 -268 127 -365 57 -114 123 -223 141 -230 8
-3 28 3 46 14 36 22 154 71 170 71 6 -1 -31 -21 -82 -45 -51 -24 -104 -53
-118 -64 -35 -27 -52 -17 -102 62 -94 148 -195 379 -233 530 -21 85 -21 88 -4
108 10 10 22 16 27 11 4 -4 17 -46 28 -92z m-363 64 c-3 -3 -12 -4 -19 -1 -8
3 -5 6 6 6 11 1 17 -2 13 -5z m-60 -36 c-3 -7 -5 -2 -5 12 0 14 2 19 5 13 2
-7 2 -19 0 -25z m2110 -40 c-3 -7 -5 -2 -5 12 0 14 2 19 5 13 2 -7 2 -19 0
-25z m1791 17 c97 -23 296 -129 349 -186 15 -16 69 -61 119 -99 102 -77 123
-101 154 -181 12 -30 28 -65 37 -78 8 -13 10 -20 4 -17 -6 4 -24 33 -40 64
-52 102 -87 139 -197 212 -110 73 -124 79 -124 56 0 -24 39 -64 129 -129 88
-65 180 -158 207 -209 17 -33 15 -34 -36 -8 -47 24 -50 24 -50 6 0 -22 56 -64
103 -77 24 -7 52 -25 65 -41 13 -16 46 -40 73 -54 49 -24 49 -25 34 -52 -8
-15 -27 -42 -43 -61 -25 -29 -31 -32 -50 -22 -11 6 -34 11 -50 11 -44 0 -142
-22 -142 -31 0 -5 35 -9 78 -9 111 -1 124 -11 138 -102 6 -40 17 -87 24 -103
12 -29 10 -34 -25 -85 -21 -30 -68 -86 -104 -124 -53 -55 -59 -65 -33 -50 64
37 144 106 157 137 14 32 14 31 15 -30 0 -81 -16 -153 -52 -233 l-29 -65 -19
25 c-11 14 -18 31 -15 38 2 6 -2 12 -10 12 -8 0 -17 11 -21 25 -6 25 -31 45
-55 45 -8 0 -6 -6 4 -18 19 -21 22 -32 8 -32 -5 0 -16 16 -25 35 -18 37 -42
49 -31 15 4 -11 2 -20 -4 -20 -6 0 -11 6 -11 14 0 17 -37 28 -45 12 -3 -8 -7
-8 -11 2 -11 24 -26 12 -19 -15 5 -23 4 -26 -7 -15 -7 7 -13 18 -13 25 0 7 -7
12 -15 12 -8 0 -25 6 -37 13 -21 12 -22 11 -16 -23 4 -24 2 -35 -6 -35 -7 0
-11 8 -10 18 1 9 -3 28 -9 42 -6 14 -11 18 -12 10 0 -12 -4 -10 -16 5 -12 14
-18 16 -21 7 -3 -9 -9 -10 -17 -3 -6 5 -48 23 -93 40 -45 16 -133 53 -195 82
-62 28 -185 80 -273 115 -88 35 -153 63 -144 64 8 0 73 -16 144 -35 160 -44
194 -49 224 -33 38 20 39 40 2 27 -34 -12 -26 -15 -201 79 -86 47 -101 52
-158 52 -57 0 -67 -3 -93 -29 l-29 -29 6 26 c9 37 20 49 72 79 41 24 47 25 94
15 104 -24 120 -5 31 35 -41 18 -77 26 -120 27 -33 1 -59 4 -57 7 2 3 29 14
61 23 83 24 193 78 193 93 0 7 -3 13 -7 13 -17 0 -112 -30 -176 -54 -78 -30
-84 -31 -67 -11 26 32 172 116 221 127 57 13 46 26 -23 27 -21 1 -38 6 -38 11
0 21 56 32 135 26 55 -5 75 -3 64 4 -9 5 -49 13 -88 16 -39 4 -74 11 -77 15
-9 15 41 32 91 32 l50 -1 -50 17 c-36 13 -51 23 -53 39 -3 20 -2 20 100 -7
133 -37 289 -94 356 -132 30 -17 58 -29 64 -27 17 6 -37 61 -93 95 -66 39
-242 106 -324 123 -92 19 -88 16 -71 47 7 16 19 62 25 103 16 104 20 106 132
91 50 -6 93 -10 96 -8 2 3 -50 17 -117 33 -111 27 -150 44 -99 44 17 0 135
-29 224 -55 11 -3 2 4 -20 15 -22 11 -78 32 -125 46 -47 14 -89 30 -93 34 -13
12 10 48 41 64 35 19 101 20 180 1z m-3911 -72 c-2 -16 -4 -3 -4 27 0 30 2 43
4 28 2 -16 2 -40 0 -55z m67 56 c-27 -11 -34 -10 -34 0 0 11 31 20 44 13 5 -3
1 -9 -10 -13z m6131 -17 c-1 -16 -5 -34 -9 -41 -5 -7 -6 -15 -3 -18 3 -2 -1
-12 -9 -21 -7 -10 -21 -26 -30 -37 -14 -18 -14 -17 0 8 9 15 14 33 10 39 -5 8
-10 5 -15 -8 -6 -15 -8 -16 -8 -3 -1 9 -8 19 -16 23 -8 3 -15 10 -15 16 0 6 7
4 16 -5 21 -21 29 -13 14 14 -6 12 -7 21 -3 21 5 0 14 -15 22 -32 8 -20 15
-28 18 -20 3 8 0 19 -6 25 -14 14 -14 37 -1 37 6 0 10 -10 11 -22 1 -25 4 -19
13 25 8 35 14 35 11 -1z m-4455 8 c0 -5 -2 -10 -4 -10 -3 0 -8 5 -11 10 -3 6
-1 10 4 10 6 0 11 -4 11 -10z m-1850 -151 c-11 -74 -20 -181 -19 -239 0 -107
19 -286 33 -308 4 -7 2 -12 -4 -12 -7 0 -14 9 -17 19 -3 11 -11 22 -19 25 -8
3 -14 12 -14 20 0 9 6 13 14 10 11 -4 13 0 9 16 -3 12 -11 19 -19 16 -7 -3
-18 2 -24 10 -7 8 -18 14 -25 14 -13 0 -29 29 -21 38 3 3 21 -7 40 -22 19 -14
36 -26 38 -26 2 0 1 73 0 162 -3 115 1 197 13 278 18 123 23 146 30 138 3 -3
-4 -65 -15 -139z m190 121 c0 -5 -15 -10 -32 -9 -31 1 -32 1 -8 9 35 11 40 11
40 0z m6008 -45 c-3 -3 -9 2 -12 12 -6 14 -5 15 5 6 7 -7 10 -15 7 -18z
m-5991 3 c-2 -7 -11 -12 -20 -10 -8 1 -18 -2 -22 -8 -7 -12 -25 -13 -25 -2 0
5 12 13 28 19 37 15 44 15 39 1z m2203 -115 c0 -16 -21 -7 -90 41 -24 17 -48
34 -53 37 -5 4 -6 16 -2 28 6 20 11 17 76 -36 38 -31 69 -63 69 -70z m3757 95
c-3 -8 -6 -5 -6 6 -1 11 2 17 5 13 3 -3 4 -12 1 -19z m-66 -11 c-10 -9 -11 -8
-5 6 3 10 9 15 12 12 3 -3 0 -11 -7 -18z m119 -18 c0 6 4 11 9 11 5 0 3 -13
-5 -30 -9 -16 -20 -30 -25 -30 -13 0 -11 18 3 22 9 3 8 9 -5 22 -9 10 -17 23
-17 29 1 7 10 1 20 -12 11 -13 20 -18 20 -12z m-6000 0 c0 -5 -4 -9 -10 -9 -5
0 -10 7 -10 16 0 8 5 12 10 9 6 -3 10 -10 10 -16z m648 7 c32 -17 80 -66 64
-66 -6 0 -15 6 -19 14 -4 7 -26 25 -47 40 -42 28 -41 34 2 12z m670 -11 c-3
-3 -9 2 -12 12 -6 14 -5 15 5 6 7 -7 10 -15 7 -18z m-733 5 c3 -5 1 -10 -4
-10 -6 0 -11 5 -11 10 0 6 2 10 4 10 3 0 8 -4 11 -10z m-645 -4 c0 -3 -4 -8
-10 -11 -5 -3 -10 -1 -10 4 0 6 5 11 10 11 6 0 10 -2 10 -4z m5980 -13 c0 -5
-5 -15 -10 -23 -8 -12 -10 -11 -10 8 0 12 5 22 10 22 6 0 10 -3 10 -7z m-5910
-19 c0 -8 -5 -12 -10 -9 -6 4 -8 11 -5 16 9 14 15 11 15 -7z m2114 -48 c38
-16 46 -36 21 -56 -8 -7 -15 -8 -15 -3 0 5 -19 20 -42 33 -58 31 -78 50 -78
72 0 17 3 16 39 -6 21 -14 55 -32 75 -40z m3831 45 c3 -6 -4 -15 -15 -21 -11
-6 -20 -18 -20 -27 0 -9 -3 -14 -6 -10 -4 3 -3 14 1 24 8 16 10 24 14 38 2 9
20 5 26 -4z m-105 -32 c-7 -11 -14 -18 -17 -15 -3 3 0 12 7 21 18 21 23 19 10
-6z m-5850 2 c0 -6 -4 -13 -10 -16 -5 -3 -10 1 -10 9 0 9 5 16 10 16 6 0 10
-4 10 -9z m641 -8 c13 -17 13 -17 -6 -3 -11 8 -22 16 -24 17 -2 2 0 3 6 3 6 0
17 -8 24 -17z m124 -3 c10 -11 16 -20 13 -20 -3 0 -13 9 -23 20 -10 11 -16 20
-13 20 3 0 13 -9 23 -20z m5006 -3 c-10 -9 -11 -8 -5 6 3 10 9 15 12 12 3 -3
0 -11 -7 -18z m191 -15 c-9 -10 -19 -14 -20 -10 -5 12 19 39 29 33 4 -3 1 -14
-9 -23z m-6016 3 c-3 -20 -16 -31 -16 -13 0 13 8 28 16 28 1 0 1 -7 0 -15z
m759 -3 c-3 -3 -11 0 -18 7 -9 10 -8 11 6 5 10 -3 15 -9 12 -12z m-675 -7 c0
-9 -6 -12 -15 -9 -8 4 -12 10 -9 15 8 14 24 10 24 -6z m2032 -25 c37 -23 68
-45 68 -50 0 -5 -7 -16 -16 -24 -14 -15 -19 -14 -55 6 -44 24 -94 83 -84 98 9
15 13 13 87 -30z m-1212 -17 c0 -8 -38 17 -51 33 -9 11 -2 9 19 -6 17 -13 32
-25 32 -27z m5156 20 c-7 -7 -26 7 -26 19 0 6 6 6 15 -2 9 -7 13 -15 11 -17z
m-5351 7 c3 -5 -1 -10 -9 -10 -9 0 -16 5 -16 10 0 6 4 10 9 10 6 0 13 -4 16
-10z m140 -18 c-6 -7 -45 9 -45 18 0 4 11 3 24 -3 14 -7 23 -13 21 -15z m-85
-2 c0 -5 -7 -7 -15 -4 -8 4 -15 8 -15 10 0 2 7 4 15 4 8 0 15 -4 15 -10z
m2719 -62 c2 -17 -18 -6 -52 27 -21 20 -37 38 -37 40 0 8 89 -60 89 -67z
m-3416 38 c6 -16 -2 -28 -14 -20 -12 7 -11 34 0 34 5 0 11 -6 14 -14z m29 -8
c-7 -7 -12 -8 -12 -2 0 6 3 14 7 17 3 4 9 5 12 2 2 -3 -1 -11 -7 -17z m729 2
c31 -26 15 -26 -18 0 -14 11 -21 20 -15 20 5 0 20 -9 33 -20z m59 -11 c6 -10
7 -19 3 -19 -4 0 -13 11 -20 25 -13 29 2 24 17 -6z m-870 11 c0 -5 -5 -10 -11
-10 -5 0 -7 5 -4 10 3 6 8 10 11 10 2 0 4 -4 4 -10z m695 0 c3 -5 1 -10 -4
-10 -6 0 -11 5 -11 10 0 6 2 10 4 10 3 0 8 -4 11 -10z m205 -10 c0 -5 -2 -10
-4 -10 -3 0 -8 5 -11 10 -3 6 -1 10 4 10 6 0 11 -4 11 -10z m2626 -62 c-9 -29
-25 -71 -36 -93 -23 -46 -22 -41 17 77 30 93 46 106 19 16z m-2766 48 c0 -3
-4 -8 -10 -11 -5 -3 -10 -1 -10 4 0 6 5 11 10 11 6 0 10 -2 10 -4z m4677 -15
c28 -10 62 -26 74 -35 54 -38 234 -226 274 -287 73 -111 133 -140 305 -147
117 -4 166 4 418 74 19 5 21 3 16 -12 -13 -37 -39 -55 -106 -75 -57 -17 -83
-20 -151 -15 -45 4 -136 10 -202 14 -87 6 -132 14 -165 29 -59 27 -147 100
-205 171 -74 91 -216 231 -270 268 -58 39 -57 40 12 15z m-6177 -73 c39 -46
94 -116 123 -156 204 -286 388 -521 504 -643 40 -42 73 -80 73 -84 0 -4 -40
29 -88 74 -65 58 -92 77 -100 69 -8 -8 -9 -5 -5 11 4 17 1 21 -18 21 -14 0
-19 3 -12 8 19 12 -10 44 -33 35 -17 -6 -17 -5 -6 10 12 14 12 19 -2 32 -14
15 -16 15 -16 1 0 -10 -6 -13 -16 -9 -11 4 -12 9 -5 16 17 17 13 31 -4 17 -21
-18 -29 -6 -14 19 18 28 3 39 -21 15 -19 -19 -19 -20 42 -99 33 -44 81 -102
105 -129 24 -27 41 -51 39 -53 -12 -13 -159 153 -268 303 -169 233 -268 355
-367 451 -94 92 -103 104 -90 119 19 24 70 54 91 54 10 0 49 -37 88 -82z m795
73 c3 -5 1 -12 -5 -16 -5 -3 -10 1 -10 9 0 18 6 21 15 7z m2032 -17 c33 -14
41 -28 23 -39 -12 -7 -70 26 -91 52 -12 14 -11 15 10 8 13 -4 39 -14 58 -21z
m-1277 -5 c0 -4 -7 -6 -15 -3 -8 4 -15 10 -15 15 0 4 7 6 15 3 8 -4 15 -10 15
-15z m92 -14 c3 -14 1 -25 -3 -25 -5 0 -9 6 -9 14 0 8 -3 22 -7 32 -4 11 -3
15 4 11 6 -4 13 -18 15 -32z m1838 -49 c102 -41 250 -94 329 -116 152 -44 271
-91 271 -109 0 -15 1 -15 -72 18 -35 16 -111 43 -169 61 -284 89 -392 124
-479 159 -52 21 -103 41 -113 44 -27 10 -9 30 22 24 14 -3 109 -39 211 -81z
m-2630 64 c0 -5 -4 -10 -10 -10 -5 0 -10 5 -10 10 0 6 5 10 10 10 6 0 10 -4
10 -10z m590 0 c0 -5 -2 -10 -4 -10 -3 0 -8 5 -11 10 -3 6 -1 10 4 10 6 0 11
-4 11 -10z m165 0 c-3 -5 2 -22 11 -37 15 -26 15 -27 -1 -8 -31 37 -37 55 -20
55 9 0 13 -4 10 -10z m-1215 -78 c63 -62 84 -92 62 -92 -4 0 -22 16 -39 35
-18 19 -35 35 -39 35 -12 0 -73 73 -68 82 8 13 9 12 84 -60z m402 46 c-7 -7
-12 -8 -12 -2 0 6 3 14 7 17 3 4 9 5 12 2 2 -3 -1 -11 -7 -17z m698 12 c0 -5
-4 -10 -10 -10 -5 0 -10 5 -10 10 0 6 5 10 10 10 6 0 10 -4 10 -10z m1860 -56
c164 -63 323 -118 455 -158 97 -29 235 -92 235 -107 0 -13 -17 -11 -48 5 -27
14 -411 143 -684 231 -82 26 -148 51 -148 56 0 7 28 28 40 29 3 0 70 -25 150
-56z m-2490 37 c0 -6 -4 -13 -10 -16 -5 -3 -10 1 -10 9 0 9 5 16 10 16 6 0 10
-4 10 -9z m675 -1 c3 -5 1 -10 -4 -10 -6 0 -11 5 -11 10 0 6 2 10 4 10 3 0 8
-4 11 -10z m-90 -20 c3 -5 -1 -10 -9 -10 -9 0 -16 5 -16 10 0 6 4 10 9 10 6 0
13 -4 16 -10z m156 -7 c13 -16 12 -17 -3 -4 -17 13 -22 21 -14 21 2 0 10 -8
17 -17z m-791 -3 c0 -5 -4 -10 -10 -10 -5 0 -10 5 -10 10 0 6 5 10 10 10 6 0
10 -4 10 -10z m60 -10 c0 -5 -4 -10 -10 -10 -5 0 -10 5 -10 10 0 6 5 10 10 10
6 0 10 -4 10 -10z m680 -5 c11 -13 10 -14 -4 -9 -9 3 -16 10 -16 15 0 13 6 11
20 -6z m90 -5 c0 -5 -2 -10 -4 -10 -3 0 -8 5 -11 10 -3 6 -1 10 4 10 6 0 11
-4 11 -10z m1606 -34 c107 -39 226 -78 509 -166 173 -54 297 -110 243 -110 -7
0 -65 18 -128 39 -63 22 -194 64 -290 95 -96 30 -233 76 -305 100 -71 25 -142
46 -156 46 -26 0 -51 -21 -62 -50 -4 -11 -6 -9 -6 5 0 23 14 44 49 68 13 9 25
17 25 17 1 0 55 -20 121 -44z m2239 -5 c-15 -14 -24 -19 -19 -11 25 42 39 59
43 49 2 -6 -9 -23 -24 -38z m-4595 4 c0 -8 -4 -15 -10 -15 -5 0 -10 7 -10 15
0 8 5 15 10 15 6 0 10 -7 10 -15z m580 -1 c0 -2 -7 -4 -15 -4 -8 0 -15 4 -15
10 0 5 7 7 15 4 8 -4 15 -8 15 -10z m-620 -15 c0 -5 -4 -9 -10 -9 -5 0 -10 7
-10 16 0 8 5 12 10 9 6 -3 10 -10 10 -16z m780 11 c0 -5 -4 -10 -10 -10 -5 0
-10 5 -10 10 0 6 5 10 10 10 6 0 10 -4 10 -10z m-1120 -45 c0 -20 -10 -19 -26
3 -19 25 -17 34 6 22 11 -6 20 -17 20 -25z m400 21 c0 -2 -7 -9 -15 -16 -13
-11 -14 -10 -9 4 5 14 24 23 24 12z m40 -16 c0 -5 -2 -10 -4 -10 -3 0 -8 5
-11 10 -3 6 -1 10 4 10 6 0 11 -4 11 -10z m-30 -30 c0 -5 -4 -10 -10 -10 -5 0
-10 5 -10 10 0 6 5 10 10 10 6 0 10 -4 10 -10z m47 -17 c1 -24 1 -25 -7 -8
-11 26 -12 35 -2 35 4 0 8 -12 9 -27z m-80 -40 c-3 -10 -5 -4 -5 12 0 17 2 24
5 18 2 -7 2 -21 0 -30z m43 17 c0 -11 -4 -20 -9 -20 -5 0 -7 9 -4 20 3 11 7
20 9 20 2 0 4 -9 4 -20z m4501 -26 c17 -8 29 -17 26 -20 -5 -5 -77 24 -77 31
0 9 21 5 51 -11z m-4481 -13 c0 -6 -4 -13 -10 -16 -5 -3 -10 1 -10 9 0 9 5 16
10 16 6 0 10 -4 10 -9z m41 -14 c-10 -9 -11 -8 -5 6 3 10 9 15 12 12 3 -3 0
-11 -7 -18z m5264 -38 c-128 -51 -248 -86 -322 -93 -55 -6 -54 -5 32 18 50 14
149 45 220 70 161 55 204 58 70 5z m-5289 5 c-4 -9 -9 -15 -11 -12 -3 3 -3 13
1 22 4 9 9 15 11 12 3 -3 3 -13 -1 -22z m-454 -9 c6 -13 15 -22 19 -19 5 3 9
-2 9 -10 0 -20 -5 -20 -35 0 -14 9 -25 25 -25 35 0 27 18 24 32 -6z m470 -27
c-7 -7 -12 -8 -12 -2 0 6 3 14 7 17 3 4 9 5 12 2 2 -3 -1 -11 -7 -17z m-396
-45 c-7 -7 -26 7 -26 19 0 6 6 6 15 -2 9 -7 13 -15 11 -17z m-32 -9 c4 -11 1
-14 -11 -12 -10 2 -19 11 -21 21 -4 21 24 13 32 -9z m2967 -1 c13 -16 12 -17
-3 -4 -10 7 -18 15 -18 17 0 8 8 3 21 -13z m-2514 -15 c-3 -8 -6 -5 -6 6 -1
11 2 17 5 13 3 -3 4 -12 1 -19z m2501 -70 c33 -51 77 -124 98 -163 20 -38 44
-78 52 -87 19 -23 92 -24 132 -3 27 14 30 20 30 68 0 28 -9 88 -19 132 -11 44
-18 82 -15 84 10 11 44 -93 55 -171 12 -81 12 -89 -6 -108 -20 -22 -102 -50
-145 -50 -41 0 -58 19 -94 103 -19 42 -54 110 -79 149 -48 79 -80 138 -74 138
3 0 32 -42 65 -92z m-3413 -102 c-37 -116 -64 -185 -65 -164 0 4 13 64 29 135
16 70 32 148 36 172 l7 43 18 -27 c17 -26 16 -29 -25 -159z m504 148 c3 -16 1
-17 -13 -5 -19 16 -21 34 -3 29 6 -3 14 -13 16 -24z m2971 -24 c12 -16 19 -30
16 -30 -2 0 -14 14 -26 30 -12 17 -19 30 -16 30 2 0 14 -13 26 -30z m-3054
-11 c10 -17 -13 -36 -27 -22 -12 12 -4 33 11 33 5 0 12 -5 16 -11z m108 -15
c4 -10 1 -14 -6 -12 -15 5 -23 28 -10 28 5 0 13 -7 16 -16z m-84 -25 c0 -5 -7
-9 -15 -9 -15 0 -20 12 -9 23 8 8 24 -1 24 -14z m60 -31 c0 -6 -7 -5 -15 2 -8
7 -15 17 -15 22 0 6 7 5 15 -2 8 -7 15 -17 15 -22z m45 2 c10 -11 14 -20 8
-20 -5 0 -18 9 -28 20 -10 11 -14 20 -8 20 5 0 18 -9 28 -20z m-95 0 c0 -5 -4
-10 -10 -10 -5 0 -10 5 -10 10 0 6 5 10 10 10 6 0 10 -4 10 -10z m6112 -232
c-16 -295 -25 -358 -62 -452 -25 -61 -31 -90 -27 -123 2 -23 1 -40 -4 -37 -5
3 -6 -2 -3 -10 3 -9 10 -14 14 -11 4 3 10 -1 13 -8 3 -9 -126 -12 -618 -12
l-623 0 29 20 c32 22 38 38 12 28 -14 -4 -13 -1 5 18 22 24 24 24 295 29 l272
6 -265 2 -265 3 40 21 c22 11 150 93 285 183 270 179 453 295 661 421 76 45
161 99 190 118 29 19 55 33 58 31 2 -3 -1 -105 -7 -227z m165 215 c-20 -2 -52
-2 -70 0 -17 2 0 4 38 4 39 0 53 -2 32 -4z m-6307 -13 c0 -5 -7 -10 -15 -10
-8 0 -15 5 -15 10 0 6 7 10 15 10 8 0 15 -4 15 -10z m65 0 c3 -5 2 -10 -4 -10
-5 0 -13 5 -16 10 -3 6 -2 10 4 10 5 0 13 -4 16 -10z m3094 -52 c19 -36 19
-39 3 -19 -31 38 -59 88 -41 74 8 -6 25 -31 38 -55z m-3054 42 c-3 -5 -10 -10
-16 -10 -5 0 -9 5 -9 10 0 6 7 10 16 10 8 0 12 -4 9 -10z m4791 -63 c7 -35
-10 -58 -24 -31 -5 11 -12 39 -16 64 l-6 45 20 -25 c10 -14 22 -38 26 -53z
m-4746 47 c0 -2 -7 -4 -15 -4 -8 0 -15 4 -15 10 0 5 7 7 15 4 8 -4 15 -8 15
-10z m-110 -4 c0 -5 -7 -10 -15 -10 -8 0 -15 5 -15 10 0 6 7 10 15 10 8 0 15
-4 15 -10z m57 -25 c8 -9 23 -13 33 -10 10 3 21 1 25 -5 10 -17 -37 -11 -75
10 -23 13 -29 19 -17 20 10 0 25 -7 34 -15z m3667 -25 c87 -27 94 -42 8 -19
-36 11 -95 19 -130 19 -40 0 -61 4 -57 10 10 17 109 11 179 -10z m-3703 -7
c13 -16 12 -17 -3 -4 -10 7 -18 15 -18 17 0 8 8 3 21 -13z m59 -13 c0 -5 -4
-10 -10 -10 -5 0 -10 5 -10 10 0 6 5 10 10 10 6 0 10 -4 10 -10z m37 -16 c-3
-3 -12 -4 -19 -1 -8 3 -5 6 6 6 11 1 17 -2 13 -5z m33 -24 c0 -5 -4 -10 -9
-10 -6 0 -13 5 -16 10 -3 6 1 10 9 10 9 0 16 -4 16 -10z m35 -30 c3 -5 2 -10
-4 -10 -5 0 -13 5 -16 10 -3 6 -2 10 4 10 5 0 13 -4 16 -10z m3474 -48 c26
-26 69 -77 95 -112 26 -36 71 -90 101 -121 68 -70 116 -87 271 -96 63 -3 112
-9 109 -12 -6 -5 -11 -6 -73 -9 -25 -2 -35 -8 -39 -22 -3 -11 -10 -20 -15 -20
-6 0 -8 7 -5 15 5 10 -4 16 -31 20 -113 18 -170 37 -242 84 -41 27 -107 64
-145 81 -71 31 -71 31 -113 113 -32 63 -41 74 -36 47 3 -19 17 -54 30 -78 29
-54 8 -50 -24 4 -17 29 -22 50 -19 81 9 90 62 99 136 25z m-171 -34 c-1 -87
12 -122 86 -233 85 -128 121 -186 155 -250 l32 -60 -31 35 c-17 19 -60 77 -97
128 -36 51 -70 95 -75 98 -17 11 -21 -6 -11 -41 19 -60 -2 -30 -57 82 -50 104
-52 111 -47 173 4 58 28 140 41 140 2 0 4 -33 4 -72z m-3268 48 c0 -11 -19
-15 -25 -6 -3 5 1 10 9 10 9 0 16 -2 16 -4z m-36 -52 c3 -8 2 -12 -4 -9 -6 3
-10 10 -10 16 0 14 7 11 14 -7z m3713 -86 c-3 -8 -6 -5 -6 6 -1 11 2 17 5 13
3 -3 4 -12 1 -19z m20 -70 c-3 -8 -6 -5 -6 6 -1 11 2 17 5 13 3 -3 4 -12 1
-19z m30 -20 c-3 -7 -5 -2 -5 12 0 14 2 19 5 13 2 -7 2 -19 0 -25z m-518 -51
c-8 -63 -28 -125 -29 -87 0 24 20 143 27 152 10 17 10 3 2 -65z m551 50 c0
-13 -7 -32 -16 -43 -15 -18 -15 -18 -5 3 6 12 11 31 11 42 0 12 2 21 5 21 3 0
5 -10 5 -23z m121 -8 c-5 -13 -10 -19 -10 -12 -1 15 10 45 15 40 3 -2 0 -15
-5 -28z m27 -23 c-7 -25 -16 -46 -21 -46 -4 0 -6 3 -4 8 3 4 10 27 17 51 6 23
13 41 16 38 3 -2 -1 -25 -8 -51z m162 23 c0 -5 -4 -9 -10 -9 -5 0 -10 7 -10
16 0 8 5 12 10 9 6 -3 10 -10 10 -16z m-283 -11 c-3 -8 -6 -5 -6 6 -1 11 2 17
5 13 3 -3 4 -12 1 -19z m57 -12 c-3 -15 -8 -25 -11 -23 -2 3 -1 17 3 31 3 15
8 25 11 23 2 -3 1 -17 -3 -31z m100 -3 c-10 -40 -14 -41 -14 -5 0 18 5 32 10
32 6 0 8 -11 4 -27z m37 0 c-12 -20 -14 -14 -5 12 4 9 9 14 11 11 3 -2 0 -13
-6 -23z m136 1 c-9 -9 -28 6 -21 18 4 6 10 6 17 -1 6 -6 8 -13 4 -17z m-397 6
c0 -5 -5 -10 -11 -10 -5 0 -7 5 -4 10 3 6 8 10 11 10 2 0 4 -4 4 -10z m147
-32 c-3 -8 -6 -5 -6 6 -1 11 2 17 5 13 3 -3 4 -12 1 -19z m165 0 c-7 -7 -12
-8 -12 -2 0 14 12 26 19 19 2 -3 -1 -11 -7 -17z m263 12 c3 -5 1 -10 -4 -10
-6 0 -11 5 -11 10 0 6 2 10 4 10 3 0 8 -4 11 -10z m-534 -23 c-10 -9 -11 -8
-5 6 3 10 9 15 12 12 3 -3 0 -11 -7 -18z m469 13 c0 -5 -4 -10 -10 -10 -5 0
-10 5 -10 10 0 6 5 10 10 10 6 0 10 -4 10 -10z m134 -11 c-3 -5 -10 -7 -15 -3
-5 3 -7 10 -3 15 3 5 10 7 15 3 5 -3 7 -10 3 -15z m-279 1 c3 -5 1 -10 -4 -10
-6 0 -11 5 -11 10 0 6 2 10 4 10 3 0 8 -4 11 -10z m60 -10 c-3 -5 -10 -10 -16
-10 -5 0 -9 5 -9 10 0 6 7 10 16 10 8 0 12 -4 9 -10z m125 -10 c0 -5 -4 -10
-10 -10 -5 0 -10 5 -10 10 0 6 5 10 10 10 6 0 10 -4 10 -10z m-60 -10 c0 -5
-4 -10 -10 -10 -5 0 -10 5 -10 10 0 6 5 10 10 10 6 0 10 -4 10 -10z m235 0 c3
-6 -1 -13 -10 -16 -19 -8 -30 0 -20 15 8 14 22 14 30 1z m-390 -10 c3 -5 -1
-10 -10 -10 -9 0 -13 5 -10 10 3 6 8 10 10 10 2 0 7 -4 10 -10z m60 -10 c3 -5
-3 -10 -15 -10 -12 0 -18 5 -15 10 3 6 10 10 15 10 5 0 12 -4 15 -10z m235 0
c0 -5 -4 -10 -10 -10 -5 0 -10 5 -10 10 0 6 5 10 10 10 6 0 10 -4 10 -10z
m-45 -10 c3 -5 1 -10 -4 -10 -6 0 -11 5 -11 10 0 6 2 10 4 10 3 0 8 -4 11 -10z
m-245 -30 c0 -5 -7 -10 -15 -10 -8 0 -15 5 -15 10 0 6 7 10 15 10 8 0 15 -4
15 -10z m377 -16 c-9 -9 -28 6 -21 18 4 6 10 6 17 -1 6 -6 8 -13 4 -17z m50
11 c9 -25 -4 -29 -17 -6 -7 15 -7 21 0 21 6 0 13 -7 17 -15z m-697 -10 c0 -2
-9 -9 -20 -15 -12 -6 -20 -7 -20 -1 0 5 8 12 18 14 9 3 18 5 20 6 1 0 2 -1 2
-4z m330 -5 c0 -5 -4 -10 -10 -10 -5 0 -10 5 -10 10 0 6 5 10 10 10 6 0 10 -4
10 -10z m200 0 c0 -5 -5 -10 -11 -10 -5 0 -7 5 -4 10 3 6 8 10 11 10 2 0 4 -4
4 -10z m-500 -20 c-8 -5 -17 -7 -19 -4 -3 3 1 9 9 14 8 5 17 7 19 4 3 -3 -1
-9 -9 -14z m440 16 c0 -3 -4 -8 -10 -11 -5 -3 -10 -1 -10 4 0 6 5 11 10 11 6
0 10 -2 10 -4z m-570 -37 c0 -5 -4 -9 -10 -9 -5 0 -10 7 -10 16 0 8 5 12 10 9
6 -3 10 -10 10 -16z m370 7 c0 -3 -4 -8 -10 -11 -5 -3 -10 -1 -10 4 0 6 5 11
10 11 6 0 10 -2 10 -4z m-892 -50 l-1 -33 -125 -6 c-138 -7 -174 -2 -63 9 40
4 69 11 68 17 -2 8 87 44 115 46 4 1 7 -14 6 -33z m592 9 c-7 -9 -15 -13 -19
-10 -3 3 1 10 9 15 21 14 24 12 10 -5z m-130 -9 c0 -3 -4 -8 -10 -11 -5 -3
-10 -1 -10 4 0 6 5 11 10 11 6 0 10 -2 10 -4z m60 -6 c0 -5 -2 -10 -4 -10 -3
0 -8 5 -11 10 -3 6 -1 10 4 10 6 0 11 -4 11 -10z m-520 -61 c0 -12 -267 -12
-274 0 -4 5 49 10 121 10 70 1 129 4 131 6 7 6 22 -5 22 -16z m-131 -19 c98 0
131 -3 131 -12 0 -10 -32 -12 -132 -11 -97 2 -125 0 -103 -7 17 -6 37 -7 45
-4 24 9 190 -8 190 -19 0 -6 -40 -8 -112 -5 -62 3 -140 2 -173 -2 -42 -5 -6
-8 118 -9 131 -1 176 -4 171 -12 -9 -16 -346 -3 -356 14 -11 18 1 27 40 28 20
0 31 3 25 6 -7 2 -13 16 -13 29 0 21 3 23 19 14 11 -5 78 -10 150 -10z m519
-45 c-3 -3 -9 2 -12 12 -6 14 -5 15 5 6 7 -7 10 -15 7 -18z m-360 -98 c7 -23
15 -48 18 -54 5 -10 -136 -13 -685 -13 -454 0 -691 3 -691 10 0 6 9 19 20 30
19 19 34 20 258 21 130 0 260 4 287 8 38 7 57 5 80 -7 17 -9 67 -17 120 -20
75 -4 93 -2 104 12 7 9 19 16 25 17 6 0 26 10 44 22 32 21 42 22 221 19 l187
-3 12 -42z"/>
<path d="M5401 8411 c-8 -6 -9 -11 -3 -15 6 -3 14 -1 17 5 9 14 2 20 -14 10z"/>
<path d="M5951 8234 c0 -11 3 -14 6 -6 3 7 2 16 -1 19 -3 4 -6 -2 -5 -13z"/>
<path d="M6930 7926 c0 -3 24 -57 54 -119 30 -61 61 -135 70 -163 9 -28 24
-60 32 -70 14 -18 15 -15 11 37 -6 67 -36 141 -92 229 -38 59 -75 102 -75 86z"/>
<path d="M7638 7323 c6 -2 18 -2 25 0 6 3 1 5 -13 5 -14 0 -19 -2 -12 -5z"/>
<path d="M7574 7298 c-3 -4 4 -8 15 -8 12 0 21 4 21 8 0 5 -7 9 -15 9 -9 0
-18 -4 -21 -9z"/>
<path d="M6340 7494 c0 -16 33 -73 46 -78 20 -7 18 -1 -12 44 -26 38 -34 47
-34 34z"/>
<path d="M4240 7627 c0 -10 14 -20 38 -26 20 -5 65 -17 99 -25 94 -25 180 -67
310 -154 95 -64 134 -98 201 -176 46 -53 86 -96 89 -96 2 0 -8 23 -24 51 -68
125 -327 331 -503 398 -98 38 -210 53 -210 28z"/>
<path d="M4240 7408 c0 -2 7 -21 15 -43 21 -59 20 -68 -7 -51 -32 21 -114 40
-135 31 -15 -6 -13 -9 13 -23 58 -32 89 -61 76 -74 -7 -7 -12 -16 -12 -21 0
-5 9 1 19 14 19 24 19 24 -6 37 -13 8 -23 16 -20 19 6 6 57 -26 57 -36 0 -4
-7 -16 -15 -27 -22 -29 -18 -36 8 -11 13 12 22 27 19 32 -2 6 12 -8 32 -30 19
-22 32 -42 29 -45 -3 -3 -8 1 -10 8 -3 6 -9 10 -14 6 -15 -9 -10 -21 12 -27
11 -3 23 -14 26 -25 2 -11 14 -24 26 -31 32 -16 173 -61 192 -61 35 0 125 -40
209 -93 143 -90 400 -189 531 -204 45 -5 48 -4 35 10 -8 8 -53 32 -100 53 -47
21 -130 65 -185 97 -171 100 -255 137 -346 153 -111 20 -143 31 -192 64 -61
41 -119 105 -173 190 -26 41 -52 78 -58 82 -11 7 -26 11 -26 6z m128 -269 c13
-16 19 -29 13 -29 -5 0 -19 14 -31 30 -28 39 -12 38 18 -1z m518 -217 c-5 -4
-66 26 -66 33 0 3 16 -3 35 -12 19 -9 33 -18 31 -21z"/>
<path d="M4248 7210 c-9 -17 -13 -30 -8 -30 6 0 10 5 10 10 0 6 10 11 23 11
16 1 17 3 5 6 -10 2 -15 10 -11 19 9 24 -1 15 -19 -16z"/>
<path d="M4270 7149 c0 -5 5 -7 10 -4 6 3 10 8 10 11 0 2 -4 4 -10 4 -5 0 -10
-5 -10 -11z"/>
<path d="M4295 7140 c-3 -5 1 -10 10 -10 9 0 13 5 10 10 -3 6 -8 10 -10 10 -2
0 -7 -4 -10 -10z"/>
<path d="M4460 6681 c0 -5 5 -13 10 -16 6 -3 10 -2 10 4 0 5 -4 13 -10 16 -5
3 -10 2 -10 -4z"/>
<path d="M4712 6373 c5 -7 14 -10 19 -7 16 10 9 23 -10 21 -15 -1 -17 -4 -9
-14z"/>
<path d="M5276 6031 c-3 -5 1 -14 9 -21 12 -10 15 -10 15 3 0 19 -16 31 -24
18z"/>
<path d="M5360 6030 c0 -5 5 -10 10 -10 6 0 10 5 10 10 0 6 -4 10 -10 10 -5 0
-10 -4 -10 -10z"/>
<path d="M5910 6029 c0 -5 5 -7 10 -4 6 3 10 1 10 -4 0 -6 5 -11 10 -11 6 0
10 7 10 15 0 8 -9 15 -20 15 -11 0 -20 -5 -20 -11z"/>
<path d="M6095 6032 c-12 -12 -3 -19 21 -16 36 4 40 11 10 16 -14 3 -28 3 -31
0z"/>
<path d="M6300 6003 c0 -34 17 -46 18 -14 0 17 -4 31 -9 31 -5 0 -9 -8 -9 -17z"/>
<path d="M5905 6000 c3 -5 8 -10 11 -10 2 0 4 5 4 10 0 6 -5 10 -11 10 -5 0
-7 -4 -4 -10z"/>
<path d="M6157 5990 c-3 -11 -2 -22 3 -25 4 -3 10 6 12 20 6 30 -7 34 -15 5z"/>
<path d="M6205 5993 c4 -10 7 -26 7 -35 0 -10 3 -18 9 -18 10 0 12 30 3 54 -3
9 -11 16 -16 16 -6 0 -7 -8 -3 -17z"/>
<path d="M6245 6000 c-3 -5 1 -10 9 -10 9 0 16 -8 16 -19 0 -11 5 -23 10 -26
13 -8 13 6 0 39 -10 27 -24 33 -35 16z"/>
<path d="M6180 5962 c0 -18 5 -32 10 -32 6 0 9 11 7 25 -5 37 -17 42 -17 7z"/>
<path d="M6240 5963 c0 -23 22 -83 30 -83 13 0 13 27 0 35 -5 3 -10 15 -10 25
0 10 -4 22 -10 25 -5 3 -10 3 -10 -2z"/>
<path d="M6340 5950 c0 -9 4 -20 10 -26 5 -5 11 -32 12 -59 2 -39 7 -50 22
-53 12 -3 17 1 13 10 -2 7 -9 12 -14 11 -6 -1 -9 18 -8 42 1 28 -5 52 -17 67
-13 17 -18 19 -18 8z"/>
<path d="M6303 5934 c-17 -18 -16 -35 1 -28 14 5 26 -23 26 -63 0 -13 5 -23
11 -23 11 0 5 39 -15 96 -9 26 -13 30 -23 18z"/>
<path d="M6394 5918 c3 -17 8 -34 11 -36 11 -11 16 9 10 37 -9 42 -29 41 -21
-1z"/>
<path d="M6190 5897 c0 -16 3 -17 14 -7 12 9 17 5 26 -29 6 -22 15 -43 20 -46
5 -3 8 0 5 7 -2 7 -9 32 -15 55 -8 32 -15 41 -30 40 -13 -1 -20 -8 -20 -20z"/>
<path d="M6442 5900 c0 -14 2 -19 5 -12 2 6 2 18 0 25 -3 6 -5 1 -5 -13z"/>
<path d="M6120 5896 c0 -8 5 -18 11 -22 6 -3 9 -17 6 -30 -2 -13 0 -24 4 -24
5 0 9 -7 9 -15 0 -8 5 -15 10 -15 6 0 10 7 10 15 0 8 -5 15 -11 15 -6 0 -9 9
-6 20 3 11 1 23 -4 26 -5 3 -9 14 -9 25 0 10 -4 19 -10 19 -5 0 -10 -6 -10
-14z"/>
<path d="M6157 5904 c-8 -8 1 -24 14 -24 5 0 9 7 9 15 0 15 -12 20 -23 9z"/>
<path d="M6281 5863 c-15 -13 -18 -22 -11 -33 8 -12 10 -12 10 5 0 18 2 18 21
-5 l20 -25 -7 25 c-4 14 -7 31 -7 38 0 15 -1 15 -26 -5z"/>
<path d="M6034 5853 c3 -10 1 -25 -4 -33 -8 -12 -10 -12 -16 3 -3 9 -10 14
-16 11 -5 -3 -2 -14 8 -26 17 -18 19 -18 31 -2 10 14 16 15 25 6 14 -14 28
-16 28 -3 0 5 -9 13 -20 16 -15 5 -19 12 -15 26 5 13 2 19 -10 19 -11 0 -15
-6 -11 -17z"/>
<path d="M6188 5863 c-23 -6 -23 -9 6 -39 13 -15 26 -22 30 -16 3 5 -2 13 -11
16 -15 6 -15 8 -3 16 19 12 2 28 -22 23z"/>
<path d="M6410 5830 c0 -11 5 -20 10 -20 6 0 10 9 10 20 0 11 -4 20 -10 20 -5
0 -10 -9 -10 -20z"/>
<path d="M6444 5837 c3 -10 6 -22 6 -27 0 -4 9 -10 20 -13 15 -4 20 0 20 16 0
16 -3 18 -9 8 -7 -10 -12 -8 -26 10 -12 17 -16 19 -11 6z"/>
<path d="M5636 5825 c-3 -8 6 -23 21 -35 36 -28 41 -17 10 19 -19 23 -27 27
-31 16z"/>
<path d="M5800 5830 c0 -5 5 -10 10 -10 6 0 10 -4 10 -10 0 -5 -7 -10 -15 -10
-8 0 -15 -7 -15 -15 0 -8 4 -15 10 -15 14 0 32 39 26 56 -6 16 -26 19 -26 4z"/>
<path d="M5936 5828 c14 -25 37 -48 48 -48 8 0 8 2 0 8 -6 4 -16 17 -23 30 -6
12 -16 22 -22 22 -6 0 -7 -6 -3 -12z"/>
<path d="M5755 5821 c-3 -5 -1 -12 5 -16 5 -3 10 1 10 9 0 18 -6 21 -15 7z"/>
<path d="M5850 5807 c0 -17 5 -27 15 -27 19 0 19 9 0 34 -14 19 -15 19 -15 -7z"/>
<path d="M5893 5815 c9 -8 17 -20 20 -27 2 -7 7 -10 11 -6 11 10 -13 48 -30
48 -14 0 -14 -2 -1 -15z"/>
<path d="M6500 5806 c0 -9 4 -16 9 -16 4 0 25 -11 45 -25 49 -33 45 -25 -9 19
-32 27 -45 33 -45 22z"/>
<path d="M6090 5780 c0 -5 5 -10 11 -10 5 0 7 5 4 10 -3 6 -8 10 -11 10 -2 0
-4 -4 -4 -10z"/>
<path d="M5917 5650 c-6 -26 -10 -31 -16 -21 -5 8 -7 20 -4 28 3 7 1 13 -5 13
-9 0 -27 -49 -20 -55 2 -1 13 -6 26 -9 26 -9 35 7 30 51 -3 27 -3 27 -11 -7z"/>
<path d="M5949 5658 c0 -2 -3 -18 -5 -35 -4 -24 -1 -33 9 -33 11 0 15 11 14
35 -1 19 -5 35 -9 35 -4 0 -8 -1 -9 -2z"/>
<path d="M5987 5654 c-13 -13 -7 -24 13 -24 16 0 19 -5 14 -29 -4 -16 -1 -32
5 -35 7 -5 11 2 11 18 0 13 3 31 6 40 4 11 0 16 -14 16 -11 0 -22 5 -24 11 -2
5 -7 7 -11 3z"/>
<path d="M5980 5600 c0 -11 5 -20 10 -20 6 0 10 9 10 20 0 11 -4 20 -10 20 -5
0 -10 -9 -10 -20z"/>
<path d="M6046 5608 c-11 -24 -2 -44 23 -51 17 -4 21 -1 21 20 0 14 4 22 10
18 6 -4 8 -14 6 -23 -3 -10 -2 -23 3 -31 6 -10 11 -5 16 19 6 27 3 36 -11 47
-23 16 -40 11 -36 -11 2 -9 -2 -16 -7 -16 -5 0 -11 10 -14 23 -3 19 -4 20 -11
5z"/>
<path d="M6147 5594 c-17 -17 3 -61 22 -49 9 5 9 11 -1 23 -11 13 -10 14 7 5
11 -6 30 -9 43 -8 14 1 21 -3 18 -10 -2 -7 0 -18 5 -26 6 -10 9 -3 9 21 0 33
-2 35 -32 36 -18 1 -40 4 -49 8 -8 4 -18 3 -22 0z"/>
<path d="M6200 5551 c0 -5 5 -13 10 -16 6 -3 10 -2 10 4 0 5 -4 13 -10 16 -5
3 -10 2 -10 -4z"/>
<path d="M6260 5551 c0 -6 4 -11 9 -11 5 0 12 -10 14 -22 4 -16 5 -14 4 6 -2
27 -27 52 -27 27z"/>
<path d="M6307 5500 c3 -11 7 -20 9 -20 2 0 4 9 4 20 0 11 -4 20 -9 20 -5 0
-7 -9 -4 -20z"/>
<path d="M6340 5494 c0 -8 5 -12 10 -9 6 3 10 10 10 16 0 5 -4 9 -10 9 -5 0
-10 -7 -10 -16z"/>
<path d="M6400 5500 c0 -5 5 -10 11 -10 5 0 7 5 4 10 -3 6 -8 10 -11 10 -2 0
-4 -4 -4 -10z"/>
<path d="M6380 5467 c0 -7 12 -13 28 -14 15 0 19 1 10 4 -10 2 -18 9 -18 14 0
5 -4 9 -10 9 -5 0 -10 -6 -10 -13z"/>
<path d="M8441 7056 c-50 -97 -104 -164 -206 -254 -79 -70 -168 -172 -150
-172 4 0 67 47 140 105 106 83 143 119 179 174 59 88 78 134 74 179 l-3 36
-34 -68z"/>
<path d="M8501 6675 c-2 -45 -69 -213 -96 -240 -26 -26 -88 -48 -183 -66 -56
-10 -81 -23 -70 -34 5 -6 175 22 213 35 42 14 69 43 99 110 37 82 53 150 45
190 -6 34 -6 34 -8 5z"/>
<path d="M8214 6542 c-130 -85 -228 -197 -248 -284 -10 -43 9 -33 54 27 23 31
96 109 163 175 125 123 135 149 31 82z"/>
<path d="M7718 5599 c-10 -10 -36 -22 -58 -25 -46 -7 -54 -24 -12 -24 16 0 53
-13 83 -30 31 -16 85 -39 122 -50 38 -12 82 -34 102 -51 43 -38 44 -25 8 59
-26 58 -30 62 -60 62 -28 0 -32 3 -30 28 2 24 -1 27 -35 30 -21 2 -38 7 -38
13 0 17 -65 8 -82 -12z"/>
<path d="M7570 5484 c0 -3 28 -37 62 -76 82 -92 121 -114 99 -55 -13 34 -78
105 -112 123 -29 15 -49 18 -49 8z"/>
<path d="M7190 5272 c0 -20 143 -119 196 -135 33 -10 64 -5 64 11 0 13 -198
128 -232 136 -23 5 -28 3 -28 -12z"/>
<path d="M7440 5271 c0 -15 101 -91 121 -91 39 0 26 20 -39 59 -71 43 -82 47
-82 32z"/>
<path d="M7918 5105 c16 -31 69 -91 75 -85 3 3 -15 28 -41 55 -25 28 -40 41
-34 30z"/>
<path d="M8071 4744 c0 -11 3 -14 6 -6 3 7 2 16 -1 19 -3 4 -6 -2 -5 -13z"/>
<path d="M8066 4685 c-9 -26 -7 -32 5 -12 6 10 9 21 6 23 -2 3 -7 -2 -11 -11z"/>
<path d="M8062 4623 c-12 -27 -16 -39 -7 -29 8 11 15 25 16 30 0 6 4 2 9 -9 6
-15 7 -11 7 18 -1 20 -1 37 -2 37 -1 0 -11 -21 -23 -47z"/>
<path d="M8060 4575 c-7 -9 -10 -18 -7 -21 3 -3 10 4 17 15 13 25 8 27 -10 6z"/>
<path d="M8026 4554 c-4 -9 -4 -19 -1 -22 2 -3 7 3 11 12 4 9 4 19 1 22 -2 3
-7 -3 -11 -12z"/>
<path d="M4273 4860 c-1 -11 6 -22 18 -25 30 -10 36 3 8 14 -13 5 -18 10 -11
10 7 1 10 6 7 11 -10 16 -21 12 -22 -10z"/>
<path d="M4284 4801 c16 -18 56 -35 56 -24 0 20 -25 43 -47 43 -25 0 -25 -1
-9 -19z"/>
<path d="M4322 4540 c6 -18 68 -65 68 -52 0 5 -16 22 -36 37 -20 16 -35 22
-32 15z"/>
<path d="M4295 4480 c3 -5 8 -10 11 -10 2 0 4 5 4 10 0 6 -5 10 -11 10 -5 0
-7 -4 -4 -10z"/>
<path d="M2411 4073 c0 -5 22 -22 49 -39 40 -26 50 -29 55 -16 3 8 4 15 3 16
-2 1 -22 11 -44 24 -43 23 -64 28 -63 15z"/>
<path d="M2356 3947 c9 -23 94 -66 94 -47 0 6 -5 10 -11 10 -6 0 -25 11 -43
25 -37 28 -48 31 -40 12z"/>
<path d="M4020 3926 c0 -2 8 -10 18 -17 15 -13 16 -12 3 4 -13 16 -21 21 -21
13z"/>
<path d="M2342 3908 c2 -6 28 -26 57 -45 63 -41 63 -22 0 24 -47 34 -63 40
-57 21z"/>
<path d="M2330 3865 c7 -8 32 -25 56 -37 24 -12 44 -27 44 -35 0 -7 5 -13 10
-13 12 0 13 10 2 26 -8 13 -105 74 -117 74 -4 0 -2 -7 5 -15z"/>
<path d="M2320 3811 c0 -6 10 -15 21 -22 15 -8 18 -13 10 -18 -9 -6 -8 -11 4
-21 8 -7 15 -10 15 -7 0 3 12 -5 27 -19 43 -40 39 -19 -7 33 -44 51 -70 71
-70 54z"/>
<path d="M2320 3731 c0 -13 91 -103 98 -97 3 3 -2 14 -11 24 -19 21 -23 42 -5
24 17 -17 33 -15 18 3 -7 8 -18 15 -25 15 -6 0 -20 9 -30 20 -19 20 -45 27
-45 11z"/>
<path d="M2155 3571 c-3 -6 -15 -11 -27 -11 -17 0 -18 -2 -8 -15 14 -17 40
-20 40 -5 0 6 7 10 16 10 9 0 14 5 12 12 -6 16 -25 21 -33 9z"/>
<path d="M2380 3548 c0 -7 9 -19 20 -26 17 -10 20 -10 20 3 0 8 -9 19 -20 25
-15 8 -20 8 -20 -2z"/>
<path d="M2083 3529 c-9 -9 -7 -20 5 -45 15 -33 32 -45 32 -23 0 7 -8 18 -17
25 -14 10 -15 15 -6 25 9 9 19 5 43 -20 30 -30 50 -39 50 -23 0 4 -16 17 -35
30 -19 12 -35 27 -35 32 0 13 -23 13 -37 -1z"/>
<path d="M2206 3431 c-4 -5 3 -15 15 -21 18 -10 20 -9 17 6 -4 20 -23 30 -32
15z"/>
<path d="M2260 3411 c0 -5 16 -19 35 -31 19 -12 35 -28 35 -37 0 -8 5 -13 12
-11 25 9 17 25 -26 56 -47 34 -56 38 -56 23z"/>
<path d="M2180 3385 c12 -15 30 -12 30 6 0 5 -10 9 -21 9 -18 0 -19 -2 -9 -15z"/>
<path d="M2230 3381 c0 -5 18 -24 40 -41 29 -23 40 -28 40 -16 0 8 -13 22 -30
31 -16 9 -30 20 -30 25 0 6 -4 10 -10 10 -5 0 -10 -4 -10 -9z"/>
<path d="M2208 3333 c7 -3 16 -2 19 1 4 3 -2 6 -13 5 -11 0 -14 -3 -6 -6z"/>
<path d="M2216 3304 c-5 -14 -1 -16 22 -11 16 3 34 1 41 -6 8 -8 11 -8 11 1 0
7 -6 13 -12 14 -7 0 -17 2 -23 2 -5 1 -15 5 -21 9 -7 4 -15 0 -18 -9z"/>
<path d="M2310 3266 c0 -7 9 -16 21 -19 20 -5 20 -5 3 14 -20 23 -24 23 -24 5z"/>
<path d="M2262 3261 c-11 -7 -11 -9 2 -14 10 -4 16 -1 16 8 0 17 -1 17 -18 6z"/>
<path d="M5350 3802 c0 -8 63 -33 342 -136 182 -68 198 -72 198 -57 0 25 -262
133 -427 176 -104 27 -113 29 -113 17z"/>
<path d="M5970 3596 c0 -8 4 -17 9 -20 5 -4 7 3 4 14 -6 23 -13 26 -13 6z"/>
<path d="M5960 3561 c0 -6 4 -13 10 -16 6 -3 7 1 4 9 -7 18 -14 21 -14 7z"/>
<path d="M5990 3525 c0 -5 5 -17 10 -25 5 -8 10 -10 10 -5 0 6 -5 17 -10 25
-5 8 -10 11 -10 5z"/>
<path d="M9056 3938 c-42 -75 -81 -119 -159 -182 -81 -64 -142 -93 -271 -126
-174 -45 -310 -99 -250 -100 10 0 28 -7 38 -15 29 -22 67 -20 60 3 -5 15 -3
14 10 -2 15 -19 18 -19 118 9 104 28 286 106 300 128 5 9 8 9 8 0 0 -15 116
20 195 59 184 91 227 134 209 207 -6 23 -16 37 -27 39 -17 3 -18 -1 -12 -30 4
-24 3 -29 -4 -18 -6 8 -11 22 -11 31 0 12 -11 16 -41 17 -23 1 -47 -2 -54 -8
-8 -6 -17 0 -29 20 -9 17 -23 30 -31 30 -7 0 -29 -28 -49 -62z m74 -27 c0 -6
-4 -13 -10 -16 -5 -3 -10 1 -10 9 0 9 5 16 10 16 6 0 10 -4 10 -9z m34 -26
c-10 -15 -20 -23 -22 -17 -3 11 29 54 36 48 2 -3 -4 -17 -14 -31z m72 -43
c-12 -12 -18 8 -10 35 l8 28 4 -28 c2 -16 1 -31 -2 -35z m-36 14 c0 -14 5 -28
10 -31 33 -20 -24 -58 -177 -119 -48 -19 -60 -21 -56 -9 3 8 0 19 -8 24 -10 6
-11 9 -1 9 7 0 16 -8 20 -17 5 -14 8 -12 13 12 6 28 6 29 15 8 8 -19 11 -20
29 -7 16 12 18 18 7 34 -6 11 -12 25 -12 32 0 7 9 -2 21 -21 26 -43 33 -35 15
17 -9 23 -11 42 -6 42 5 0 14 -18 21 -39 12 -42 20 -43 67 -13 13 8 19 18 14
21 -14 9 -25 51 -14 51 6 0 15 -15 21 -32 9 -26 14 -30 21 -18 6 10 4 20 -6
31 -16 18 -19 49 -4 49 6 0 10 -11 10 -24z m-62 -68 c-19 -11 -38 -10 -38 3 0
6 7 8 16 5 14 -5 15 -1 10 31 l-6 38 15 -34 c12 -28 13 -36 3 -43z m132 47
c-7 -9 -15 -13 -17 -11 -6 6 20 36 26 30 2 -2 -2 -10 -9 -19z m-230 -86 c0 -5
-4 -9 -10 -9 -5 0 -10 7 -10 16 0 8 5 12 10 9 6 -3 10 -10 10 -16z m-520 -229
c0 -5 -2 -10 -4 -10 -3 0 -8 5 -11 10 -3 6 -1 10 4 10 6 0 11 -4 11 -10z"/>
<path d="M9255 3661 c-33 -26 -88 -64 -122 -85 -56 -34 -73 -40 -155 -47 -51
-5 -115 -16 -142 -25 -49 -16 -292 -137 -309 -154 -13 -12 70 -19 233 -19 101
0 147 4 153 12 7 9 10 9 14 0 6 -17 68 -16 163 1 169 31 251 84 293 189 14 35
28 81 32 103 6 37 6 38 -10 19 -10 -11 -23 -35 -31 -52 -8 -18 -18 -33 -23
-33 -4 0 -13 -11 -19 -24 -24 -54 -83 -106 -136 -121 -51 -14 -514 -30 -501
-17 8 8 69 24 230 62 164 39 273 91 351 167 31 30 52 59 47 63 -4 5 -35 -13
-68 -39z"/>
<path d="M9304 3621 c-22 -34 -54 -59 -168 -133 -6 -4 -7 -10 -4 -13 4 -4 36
8 73 26 62 30 124 85 126 112 1 7 5 1 9 -13 7 -21 8 -19 9 18 1 23 -3 42 -9
42 -5 0 -21 -18 -36 -39z"/>
<path d="M2920 4151 c0 -6 5 -13 10 -16 6 -3 10 1 10 9 0 9 -4 16 -10 16 -5 0
-10 -4 -10 -9z"/>
<path d="M2903 4095 c-3 -9 -3 -18 -1 -21 3 -3 8 4 11 16 6 23 -1 27 -10 5z"/>
<path d="M6225 3146 c28 -14 102 -49 165 -80 63 -30 130 -64 148 -76 17 -12
32 -18 32 -13 0 15 -61 68 -122 106 -100 63 -136 78 -206 83 l-67 5 50 -25z"/>
<path d="M2175 3160 c-3 -6 1 -7 9 -4 18 7 21 14 7 14 -6 0 -13 -4 -16 -10z"/>
<path d="M2227 3083 c-12 -12 -7 -22 8 -17 8 4 15 10 15 15 0 11 -14 12 -23 2z"/>
<path d="M2251 3041 c-8 -5 -10 -14 -6 -21 6 -9 10 -8 17 4 12 21 7 28 -11 17z"/>
<path d="M8188 2273 c57 -2 147 -2 200 0 53 1 7 3 -103 3 -110 0 -154 -2 -97
-3z"/>
<path d="M8348 2233 c18 -2 45 -2 60 0 15 2 0 4 -33 4 -33 0 -45 -2 -27 -4z"/>
<path d="M7455 2212 c23 -5 13 -8 -40 -12 -46 -4 -12 -7 100 -7 121 0 154 2
115 8 -70 10 -215 19 -175 11z"/>
<path d="M8190 2199 c-19 -4 34 -7 119 -8 85 0 151 2 147 7 -9 9 -217 10 -266
1z"/>
<path d="M6070 2824 c0 -24 86 -131 97 -120 8 7 -52 99 -74 114 -13 8 -23 11
-23 6z"/>
<path d="M5525 2119 c-33 -3 32 -6 145 -6 217 0 235 4 35 9 -66 2 -147 0 -180
-3z"/>
<path d="M5083 2083 c9 -2 23 -2 30 0 6 3 -1 5 -18 5 -16 0 -22 -2 -12 -5z"/>
<path d="M5723 2083 c26 -2 67 -2 90 0 23 2 2 3 -48 3 -49 0 -68 -1 -42 -3z"/>
<path d="M5533 2073 c9 -2 23 -2 30 0 6 3 -1 5 -18 5 -16 0 -22 -2 -12 -5z"/>
<path d="M4613 2063 c20 -2 54 -2 75 0 20 2 3 4 -38 4 -41 0 -58 -2 -37 -4z"/>
<path d="M4808 2063 c7 -3 16 -2 19 1 4 3 -2 6 -13 5 -11 0 -14 -3 -6 -6z"/>
<path d="M5243 2053 c15 -2 37 -2 50 0 12 2 0 4 -28 4 -27 0 -38 -2 -22 -4z"/>
<path d="M5688 2053 c39 -2 105 -2 145 0 39 1 7 3 -73 3 -80 0 -112 -2 -72 -3z"/>
<path d="M9428 2351 c-1 -5 -32 -12 -68 -15 -92 -9 -121 -16 -114 -27 3 -5 13
-5 24 1 27 14 71 12 120 -5 79 -28 110 -18 110 36 0 15 -7 19 -34 19 -19 0
-36 -4 -38 -9z"/>
<path d="M2335 2159 c-17 -4 159 -4 390 -2 231 2 422 7 425 10 7 7 -779 -1
-815 -8z"/>
<path d="M3203 2163 c9 -2 25 -2 35 0 9 3 1 5 -18 5 -19 0 -27 -2 -17 -5z"/>
<path d="M3465 2160 c201 -8 1011 -13 1004 -6 -2 2 -272 5 -599 8 -327 2 -509
1 -405 -2z"/>
<path d="M9393 2126 c-34 -6 -65 -15 -70 -20 -5 -5 -1 -7 8 -4 9 4 42 9 75 13
58 7 113 26 69 23 -11 0 -48 -6 -82 -12z"/>
<path d="M2433 2123 c15 -2 39 -2 55 0 15 2 2 4 -28 4 -30 0 -43 -2 -27 -4z"/>
<path d="M3543 2123 c37 -2 96 -2 130 0 34 2 4 3 -68 3 -71 0 -99 -1 -62 -3z"/>
<path d="M4385 2119 c-15 -6 -11 -8 18 -8 20 -1 37 1 37 3 0 9 -37 12 -55 5z"/>
<path d="M7448 2123 c34 -2 88 -2 120 0 31 2 3 3 -63 3 -66 0 -92 -1 -57 -3z"/>
<path d="M8238 2123 c12 -2 32 -2 45 0 12 2 2 4 -23 4 -25 0 -35 -2 -22 -4z"/>
<path d="M8873 2123 c15 -2 39 -2 55 0 15 2 2 4 -28 4 -30 0 -43 -2 -27 -4z"/>
<path d="M4288 2113 c6 -2 18 -2 25 0 6 3 1 5 -13 5 -14 0 -19 -2 -12 -5z"/>
<path d="M8378 2113 c18 -2 45 -2 60 0 15 2 0 4 -33 4 -33 0 -45 -2 -27 -4z"/>
<path d="M7528 2083 c6 -2 18 -2 25 0 6 3 1 5 -13 5 -14 0 -19 -2 -12 -5z"/>
<path d="M8608 2083 c7 -3 16 -2 19 1 4 3 -2 6 -13 5 -11 0 -14 -3 -6 -6z"/>
<path d="M8973 2083 c20 -2 54 -2 75 0 20 2 3 4 -38 4 -41 0 -58 -2 -37 -4z"/>
<path d="M9098 2083 c6 -2 18 -2 25 0 6 3 1 5 -13 5 -14 0 -19 -2 -12 -5z"/>
<path d="M9333 2083 c9 -2 23 -2 30 0 6 3 -1 5 -18 5 -16 0 -22 -2 -12 -5z"/>
<path d="M9433 2083 c9 -2 23 -2 30 0 6 3 -1 5 -18 5 -16 0 -22 -2 -12 -5z"/>
<path d="M2333 2073 c26 -2 67 -2 90 0 23 2 2 3 -48 3 -49 0 -68 -1 -42 -3z"/>
<path d="M4268 2073 c7 -3 16 -2 19 1 4 3 -2 6 -13 5 -11 0 -14 -3 -6 -6z"/>
<path d="M4373 2073 c9 -2 25 -2 35 0 9 3 1 5 -18 5 -19 0 -27 -2 -17 -5z"/>
<path d="M6978 2073 c12 -2 32 -2 45 0 12 2 2 4 -23 4 -25 0 -35 -2 -22 -4z"/>
<path d="M1913 2053 c9 -2 25 -2 35 0 9 3 1 5 -18 5 -19 0 -27 -2 -17 -5z"/>
<path d="M4318 2053 c17 -2 47 -2 65 0 17 2 3 4 -33 4 -36 0 -50 -2 -32 -4z"/>
<path d="M7093 2043 c42 -2 112 -2 155 0 42 1 7 3 -78 3 -85 0 -120 -2 -77 -3z"/>
<path d="M9118 2043 c34 -2 90 -2 125 0 34 2 6 3 -63 3 -69 0 -97 -1 -62 -3z"/>
<path d="M9428 2043 c12 -2 30 -2 40 0 9 3 -1 5 -23 4 -22 0 -30 -2 -17 -4z"/>
<path d="M3433 2033 c9 -2 23 -2 30 0 6 3 -1 5 -18 5 -16 0 -22 -2 -12 -5z"/>
<path d="M3418 2013 c7 -3 16 -2 19 1 4 3 -2 6 -13 5 -11 0 -14 -3 -6 -6z"/>
<path d="M3113 2003 c15 -2 37 -2 50 0 12 2 0 4 -28 4 -27 0 -38 -2 -22 -4z"/>
<path d="M2160 1990 c-168 -4 -91 -6 304 -8 291 -1 527 0 525 2 -8 7 -611 12
-829 6z"/>
<path d="M3268 1993 c28 -2 76 -2 105 0 28 2 5 3 -53 3 -58 0 -81 -1 -52 -3z"/>
<path d="M3750 1989 c81 -8 2215 -10 2207 -3 -3 3 -515 6 -1139 7 -623 1
-1104 -1 -1068 -4z"/>
<path d="M1663 1973 c48 -2 126 -2 175 0 48 1 8 3 -88 3 -96 0 -136 -2 -87 -3z"/>
<path d="M3088 1963 c23 -2 59 -2 80 0 20 2 1 4 -43 4 -44 0 -61 -2 -37 -4z"/>
<path d="M3518 1963 c34 -2 90 -2 125 0 34 2 6 3 -63 3 -69 0 -97 -1 -62 -3z"/>
<path d="M3748 1953 c18 -2 45 -2 60 0 15 2 0 4 -33 4 -33 0 -45 -2 -27 -4z"/>
<path d="M3853 1948 c7 -4 210 -7 452 -6 242 1 395 3 340 5 -244 7 -802 7
-792 1z"/>
<path d="M5903 1953 c15 -2 39 -2 55 0 15 2 2 4 -28 4 -30 0 -43 -2 -27 -4z"/>
<path d="M5037 1943 c150 -2 396 -2 546 0 149 1 27 2 -273 2 -300 0 -422 -1
-273 -2z"/>
<path d="M3048 1933 c23 -2 61 -2 85 0 23 2 4 4 -43 4 -47 0 -66 -2 -42 -4z"/>
<path d="M3208 1933 c6 -2 18 -2 25 0 6 3 1 5 -13 5 -14 0 -19 -2 -12 -5z"/>
<path d="M3288 1933 c7 -3 16 -2 19 1 4 3 -2 6 -13 5 -11 0 -14 -3 -6 -6z"/>
<path d="M3467 1933 c18 -2 50 -2 70 0 21 2 7 4 -32 4 -38 0 -55 -2 -38 -4z"/>
<path d="M3633 1933 c9 -2 23 -2 30 0 6 3 -1 5 -18 5 -16 0 -22 -2 -12 -5z"/>
<path d="M2008 1903 c7 -3 16 -2 19 1 4 3 -2 6 -13 5 -11 0 -14 -3 -6 -6z"/>
<path d="M2823 1903 c15 -2 37 -2 50 0 12 2 0 4 -28 4 -27 0 -38 -2 -22 -4z"/>
<path d="M4533 1903 c9 -2 23 -2 30 0 6 3 -1 5 -18 5 -16 0 -22 -2 -12 -5z"/>
<path d="M4903 1903 c15 -2 39 -2 55 0 15 2 2 4 -28 4 -30 0 -43 -2 -27 -4z"/>
<path d="M5368 1903 c6 -2 18 -2 25 0 6 3 1 5 -13 5 -14 0 -19 -2 -12 -5z"/>
<path d="M5698 1903 c12 -2 32 -2 45 0 12 2 2 4 -23 4 -25 0 -35 -2 -22 -4z"/>
<path d="M27 103 c-25 -4 -27 -8 -27 -54 0 -48 1 -49 30 -49 30 0 30 1 30 55
0 30 -1 54 -2 54 -2 -1 -15 -4 -31 -6z"/>
</g>
</svg>
