<?xml version="1.0" standalone="no"?>
<!DOCTYPE svg PUBLIC "-//W3C//DTD SVG 20010904//EN"
 "http://www.w3.org/TR/2001/REC-SVG-20010904/DTD/svg10.dtd">
<svg version="1.0" xmlns="http://www.w3.org/2000/svg"
 width="1024.000000pt" height="1024.000000pt" viewBox="0 0 1024.000000 1024.000000"
 preserveAspectRatio="xMidYMid meet">

<g transform="translate(0.000000,1024.000000) scale(0.100000,-0.100000)"
fill="#000000" stroke="none">
<path d="M4481 9636 c-17 -42 22 -148 68 -190 31 -28 26 -35 -16 -25 -62 14
-243 11 -308 -6 -165 -43 -245 -130 -345 -378 -58 -140 -148 -216 -307 -256
-117 -30 -218 -67 -292 -108 -128 -71 -236 -216 -266 -360 -27 -126 -14 -178
43 -171 23 3 27 10 38 66 28 137 111 243 239 306 43 20 80 35 83 31 3 -3 -8
-20 -25 -38 -50 -53 -101 -140 -129 -224 -22 -67 -26 -95 -26 -198 -1 -76 6
-152 17 -206 l17 -87 -54 -63 c-91 -109 -119 -166 -138 -286 -12 -71 0 -195
23 -242 13 -28 43 -37 67 -21 12 7 14 28 12 100 -3 80 -1 96 23 147 26 57 60
103 77 103 4 0 8 -17 8 -38 0 -94 80 -307 157 -420 l30 -43 -28 -30 c-46 -49
-59 -107 -59 -258 l0 -136 -72 0 c-57 0 -111 -11 -243 -48 -373 -106 -405
-119 -440 -188 -9 -15 -24 -81 -35 -147 -20 -117 -100 -641 -100 -653 0 -4
-34 -34 -76 -69 -41 -34 -87 -80 -101 -102 -26 -38 -26 -40 -20 -176 4 -75 16
-276 27 -447 11 -170 27 -409 35 -530 8 -121 15 -229 15 -241 0 -18 -18 -25
-152 -63 -359 -100 -488 -148 -645 -239 -111 -65 -192 -131 -229 -186 -54 -82
-417 -908 -475 -1082 -30 -90 -33 -110 -33 -214 0 -63 5 -160 11 -215 10 -97
10 -102 -18 -186 -16 -47 -38 -129 -48 -182 -11 -54 -25 -106 -33 -116 -66
-91 -126 -186 -156 -249 l-37 -77 -3 -323 -3 -322 318 0 318 1 -50 45 c-61 55
-231 172 -303 208 -36 18 -50 31 -45 39 63 99 67 101 146 61 128 -65 259 -171
357 -288 l55 -66 1561 0 1561 0 7 498 c3 273 11 652 16 840 11 394 17 349 -87
582 -141 314 -267 588 -295 644 l-30 59 12 96 c6 53 15 108 18 123 l7 27 78
-54 c157 -108 356 -190 558 -231 46 -9 102 -27 124 -41 217 -134 894 -487
1023 -533 50 -18 62 -27 62 -44 0 -12 -13 -103 -29 -202 -69 -419 -108 -723
-131 -1024 -29 -391 -40 -567 -40 -650 l0 -90 1077 -2 1076 -3 61 61 c138 138
348 238 563 268 l41 6 46 -64 c25 -36 46 -66 46 -69 0 -2 -44 -7 -98 -10 -140
-8 -272 -57 -409 -149 -24 -16 -43 -32 -43 -36 0 -4 348 -6 772 -5 l773 3 0
227 c0 263 5 246 -121 453 l-67 111 10 147 c11 148 5 238 -18 296 -7 17 -34
64 -61 105 -26 41 -48 83 -48 95 0 11 7 82 16 156 20 171 14 255 -29 396 -102
330 -349 912 -422 993 -53 58 -168 133 -320 207 -177 86 -285 120 -492 154
-190 32 -227 45 -396 142 -52 30 -147 70 -228 98 -126 42 -139 45 -139 28 0
-10 18 -74 39 -141 47 -146 87 -284 135 -467 19 -74 49 -185 66 -247 37 -134
37 -173 -3 -187 -34 -12 -131 26 -286 115 -162 92 -329 224 -308 245 3 3 83
-30 179 -75 191 -88 271 -121 294 -121 12 0 14 7 9 32 -13 62 -147 533 -192
678 -25 80 -52 170 -61 200 -8 30 -20 61 -25 68 -6 7 -50 40 -98 73 -126 86
-168 127 -243 231 -36 51 -92 123 -125 159 l-60 66 -6 129 c-9 200 -3 185
-115 293 l-99 96 15 87 c8 48 25 182 37 300 l22 212 43 8 c114 19 227 117 292
252 48 101 56 150 71 443 12 262 8 304 -43 374 l-30 41 41 87 c81 175 116 349
109 537 l-4 114 33 -32 c56 -54 86 -128 91 -224 5 -89 15 -108 54 -102 34 5
48 43 48 139 0 154 -48 260 -183 405 -41 44 -67 81 -67 94 0 55 -46 213 -86
297 -24 50 -72 126 -106 168 -102 126 -99 118 -36 96 123 -42 222 -119 271
-209 33 -62 67 -188 67 -253 0 -39 4 -49 20 -54 57 -18 75 21 74 160 -1 146
-47 274 -139 383 -60 73 -121 119 -220 167 -98 47 -165 67 -291 85 l-82 12 -6
61 c-18 162 -74 282 -179 391 -78 80 -109 93 -141 60 -25 -25 -19 -43 38 -113
29 -36 63 -84 74 -106 16 -33 52 -137 52 -153 0 -3 -27 25 -61 62 -34 36 -101
96 -150 132 -56 42 -110 93 -149 142 -149 188 -335 280 -547 270 -91 -5 -116
-18 -111 -57 3 -24 7 -26 93 -37 135 -16 228 -52 312 -120 42 -35 90 -100 80
-111 -3 -3 -19 5 -36 16 -61 44 -239 121 -326 142 -84 20 -104 21 -285 13
-328 -13 -350 -12 -428 27 -54 28 -74 45 -106 92 -33 47 -45 57 -68 57 -21 0
-31 -6 -37 -24z m670 -310 c104 -24 362 -117 342 -123 -6 -2 -178 14 -382 37
-204 22 -399 40 -434 41 l-62 1 73 24 c149 49 305 56 463 20z m-868 -85 c-81
-43 -126 -75 -195 -140 -27 -24 -48 -41 -48 -37 0 4 13 33 29 65 52 102 126
147 246 150 l40 0 -72 -38z m752 -125 c66 -8 202 -25 303 -36 100 -11 226 -30
279 -40 90 -19 262 -73 343 -108 l35 -16 -110 -14 c-67 -9 -202 -15 -345 -15
-270 -1 -275 0 -580 93 -107 33 -222 65 -255 71 -71 13 -263 17 -355 7 -63 -7
-64 -7 -32 7 68 31 210 67 292 73 99 8 255 0 425 -22z m-192 -300 c132 -28
175 -45 115 -46 -57 0 -255 -37 -353 -65 -108 -32 -247 -96 -345 -160 -91 -59
-260 -222 -336 -325 -33 -44 -60 -76 -62 -71 -5 15 25 144 48 204 32 85 140
216 230 279 l25 18 -30 -6 c-63 -13 -183 -66 -260 -113 -103 -63 -183 -136
-241 -217 -26 -36 -48 -63 -50 -61 -7 7 24 86 63 160 44 84 169 213 256 265
128 77 312 138 479 161 116 16 326 5 461 -23z m1527 -228 c-30 -81 -106 -161
-193 -202 -112 -53 -161 -60 -462 -60 -270 -1 -270 -1 -350 -29 -92 -33 -167
-72 -243 -129 l-53 -40 22 44 c56 112 181 232 292 284 100 45 209 58 377 45
182 -14 294 -14 362 0 64 13 173 69 225 114 21 18 39 32 41 30 1 -1 -6 -27
-18 -57z m-1241 30 c-20 -40 -82 -120 -151 -199 -66 -76 -144 -144 -312 -274
l-89 -69 34 63 c46 85 152 223 208 273 56 49 36 46 -84 -15 -140 -71 -298
-247 -407 -452 l-37 -70 -1 44 c0 100 57 243 146 360 87 113 85 109 19 72
-129 -72 -251 -171 -337 -274 -26 -32 -48 -52 -48 -44 0 28 79 173 127 232 72
88 154 150 288 215 159 78 330 127 525 149 131 15 133 15 119 -11z m1477 -103
c38 -125 25 -297 -32 -413 -84 -172 -316 -308 -544 -318 l-95 -5 65 24 c349
127 550 390 550 721 l0 101 20 -30 c11 -16 27 -52 36 -80z m-582 -369 c48 -8
90 -17 92 -19 3 -2 -33 -8 -78 -11 -355 -31 -612 -159 -836 -416 -61 -69 -65
-72 -59 -42 4 19 18 60 31 93 80 199 218 327 416 386 92 27 295 31 434 9z
m-961 -288 c-10 -18 -50 -65 -90 -105 -118 -119 -278 -183 -458 -183 -142 0
-273 44 -356 120 l-44 39 50 -15 c211 -64 457 -57 644 17 42 16 119 59 171 94
52 35 96 64 98 65 2 0 -5 -15 -15 -32z m1585 -48 c4 -82 39 -200 87 -294 24
-50 43 -92 41 -94 -3 -2 -26 2 -52 10 -36 10 -55 23 -72 48 -37 55 -55 134
-49 215 6 75 25 165 36 165 3 0 7 -22 9 -50z m-1067 -133 c-76 -221 -328 -387
-586 -387 -84 0 -195 17 -195 30 0 4 36 10 80 14 148 12 314 74 454 168 32 22
104 84 160 138 55 54 102 97 104 96 1 -2 -7 -28 -17 -59z m-1641 -78 c-25 -83
-57 -129 -117 -168 -93 -62 -231 -78 -324 -38 l-34 15 35 1 c128 4 272 72 380
181 41 42 76 75 78 75 1 -1 -7 -31 -18 -66z m2120 42 c63 0 133 4 155 9 l40 9
-45 -39 c-56 -49 -220 -131 -320 -161 l-75 -22 32 -14 c127 -51 301 -31 471
56 l42 21 0 -39 c0 -55 21 -151 70 -316 38 -128 41 -149 40 -250 -1 -179 -15
-428 -56 -980 -17 -237 -23 -285 -35 -285 -5 0 -9 29 -9 65 0 37 -4 65 -10 65
-6 0 -10 32 -10 76 0 59 -5 84 -20 109 -21 35 -61 66 -95 75 -16 5 -21 17 -25
60 -7 68 -21 95 -57 107 -16 5 -102 7 -196 4 -162 -6 -170 -7 -188 -30 -14
-17 -19 -39 -19 -82 0 -99 -27 -64 -46 60 -4 24 -15 51 -24 60 -10 9 -65 57
-123 106 l-106 90 0 53 c-1 48 -5 58 -35 88 -32 32 -38 34 -104 34 -39 0 -74
-4 -77 -10 -3 -5 -40 -10 -81 -10 l-74 0 0 200 c0 110 4 200 8 200 20 0 125
107 154 157 28 47 43 60 103 90 197 100 324 224 429 419 l27 50 72 -13 c40 -7
124 -12 187 -12z m-1365 -208 c-41 -66 -131 -176 -169 -209 -121 -104 -265
-159 -421 -158 -55 1 -111 5 -125 11 -22 9 -18 11 34 17 82 11 149 32 241 78
101 50 161 94 258 188 78 74 95 83 191 99 4 0 0 -11 -9 -26z m-1038 -754 c7
-13 13 -50 13 -82 0 -51 -2 -58 -17 -53 -10 2 -44 12 -75 20 l-58 17 0 110 0
111 63 -50 c34 -27 68 -60 74 -73z m511 -16 c166 -105 128 -93 338 -105 104
-6 190 -12 192 -13 1 -1 -5 -18 -13 -38 -8 -20 -15 -57 -15 -81 l0 -45 -116
-96 c-63 -53 -119 -106 -123 -118 -8 -22 -11 -22 -198 -19 -181 3 -189 4 -198
24 -13 28 -55 58 -83 61 -22 1 -22 3 -22 198 l0 197 48 36 c41 31 53 35 95 32
31 -2 64 -13 95 -33z m2642 -179 c-6 -158 -7 -161 -42 -236 -59 -124 -147
-202 -207 -183 -15 5 -19 13 -16 33 2 15 7 57 10 95 5 51 10 67 22 67 29 0 79
39 102 80 19 35 23 55 22 133 l0 92 57 42 c31 23 57 41 58 40 0 -1 -3 -74 -6
-163z m-3295 -16 c83 -16 166 -37 185 -46 63 -31 62 -98 -3 -146 -36 -27 -170
-34 -302 -17 l-90 12 -169 -66 c-93 -36 -172 -68 -175 -71 -7 -7 -40 -236 -41
-281 0 -29 -10 -38 -151 -132 l-151 -100 6 34 c4 20 27 170 51 335 25 165 49
308 54 318 19 36 50 51 191 91 80 22 197 56 260 75 128 39 108 39 335 -6z
m1835 -33 l0 -25 -285 0 -285 0 0 25 0 25 285 0 285 0 0 -25z m142 -211 c85
-71 105 -93 116 -127 14 -47 123 -567 118 -567 0 0 -40 38 -88 84 -71 70 -104
93 -190 135 -131 65 -217 90 -343 98 -127 7 -210 -7 -341 -58 -120 -47 -216
-112 -298 -200 l-59 -63 5 34 c3 19 19 98 36 175 17 77 40 194 52 260 12 66
26 126 30 133 4 8 56 52 116 98 l109 83 317 1 318 0 102 -86z m-2182 -137 l0
-53 -122 -70 c-67 -38 -127 -70 -134 -72 -16 -4 10 156 28 174 10 10 189 69
221 73 4 1 7 -23 7 -52z m628 6 l3 -33 -255 0 -256 0 0 35 0 35 253 -2 252 -3
3 -32z m2174 -10 c10 -40 1 -43 -133 -43 -128 0 -129 0 -129 23 0 13 3 27 7
30 3 4 61 7 129 7 107 0 122 -2 126 -17z m-2574 -158 c156 -69 416 -201 431
-219 7 -9 45 -80 83 -158 60 -123 69 -149 65 -182 -8 -59 -36 -81 -103 -81
-63 0 -57 -5 -153 135 -65 95 -53 88 -314 181 -125 45 -131 46 -124 19 5 -21
-14 -33 -388 -233 -88 -47 -169 -93 -180 -101 l-20 -15 20 -15 c52 -41 47 -42
456 105 166 60 290 99 313 99 44 0 40 4 258 -235 189 -208 188 -207 188 -250
0 -29 -7 -43 -35 -68 -24 -21 -40 -46 -47 -75 l-11 -44 -68 75 c-38 41 -99 97
-137 123 -37 26 -95 72 -130 101 l-63 53 -88 -45 c-49 -24 -133 -64 -188 -89
-182 -81 -433 -205 -459 -225 l-25 -19 23 -8 c13 -4 70 -7 128 -7 88 1 150 10
375 58 347 72 381 78 404 65 10 -5 36 -33 57 -62 20 -29 62 -79 92 -110 l54
-57 -7 -83 c-8 -104 -22 -158 -39 -158 -16 0 -44 21 -150 112 -43 37 -84 68
-91 68 -6 0 -100 -27 -209 -60 -109 -33 -205 -60 -213 -60 -8 0 -27 -30 -44
-67 -72 -160 -144 -304 -190 -380 -27 -45 -49 -87 -49 -93 0 -6 25 -10 63 -10
48 0 72 6 106 25 24 14 45 24 47 22 7 -7 -66 -105 -102 -136 -21 -19 -58 -43
-82 -54 l-45 -19 47 -29 c26 -17 72 -35 103 -42 l55 -13 -53 -40 c-79 -58
-127 -88 -207 -128 -40 -20 -72 -40 -72 -44 0 -9 201 -89 266 -106 l49 -12
-118 -60 c-64 -32 -117 -62 -117 -65 0 -3 26 -14 58 -25 31 -10 59 -19 61 -21
1 -1 -4 -23 -12 -50 -9 -26 -41 -131 -72 -233 -31 -102 -79 -255 -105 -340
-27 -85 -85 -279 -130 -430 -45 -151 -108 -363 -140 -470 -32 -107 -68 -226
-78 -265 -23 -81 -151 -524 -157 -542 -8 -25 -304 132 -625 332 -107 67 -222
138 -255 158 -33 20 -66 40 -73 45 -9 6 24 76 131 273 180 332 326 609 502
954 76 149 170 333 210 410 68 132 73 146 85 244 14 104 14 105 64 164 146
173 146 173 146 222 0 80 -70 1259 -91 1548 l-11 148 27 29 c15 16 85 67 154
114 174 116 810 496 831 496 10 0 63 -20 118 -45z m848 -27 c-3 -13 -18 -75
-33 -139 l-27 -117 -72 -6 c-91 -8 -121 -1 -139 35 -8 15 -15 30 -15 34 0 3
36 5 80 5 l80 0 0 70 0 70 -90 0 -90 0 0 -51 0 -50 -22 25 c-13 14 -66 49
-118 77 -52 28 -99 55 -104 60 -6 5 102 9 273 9 l283 0 -6 -22z m1852 -125 l3
-143 -216 0 c-214 0 -215 0 -220 23 -18 76 -45 223 -45 243 l0 24 238 -2 237
-3 3 -142z m-973 -53 c252 -78 446 -283 506 -535 17 -73 15 -257 -5 -338 -17
-72 -67 -181 -115 -251 -43 -61 -160 -169 -231 -210 -149 -88 -338 -114 -525
-74 -72 15 -200 77 -273 132 -121 92 -220 249 -263 413 -60 236 22 508 206
689 96 95 252 173 385 194 85 14 235 4 315 -20z m590 -375 c69 -142 94 -338
60 -470 -19 -72 -64 -171 -94 -205 l-22 -25 16 34 c25 50 63 210 71 293 11
122 -30 318 -92 440 -13 26 -24 51 -24 55 1 18 53 -57 85 -122z m369 110 c13
-9 38 -45 56 -81 22 -44 62 -97 124 -162 161 -171 156 -162 156 -245 0 -149
26 -384 61 -562 20 -103 52 -405 44 -413 -2 -3 20 -50 49 -106 74 -138 92
-197 111 -371 9 -82 20 -167 24 -187 5 -21 45 -97 89 -170 44 -73 189 -324
322 -558 133 -234 353 -609 488 -835 135 -225 247 -413 249 -417 2 -3 -44 -29
-102 -57 -211 -100 -408 -254 -570 -445 -49 -58 -93 -102 -97 -98 -4 4 -59
122 -124 262 -64 140 -164 356 -222 480 -57 124 -127 275 -154 335 -28 61 -88
188 -134 284 -46 96 -84 177 -84 182 0 4 28 0 63 -10 85 -25 137 -33 137 -24
0 5 -27 43 -61 85 -67 84 -62 82 -285 147 -38 11 -86 27 -105 35 l-35 15 8 78
c4 43 10 92 13 110 5 29 2 34 -27 49 -42 21 -373 212 -628 362 -107 63 -198
117 -201 118 -4 2 -26 -3 -49 -11 -54 -19 -113 -19 -149 -1 -26 14 -90 78
-121 122 -8 11 -148 88 -310 172 -469 240 -525 270 -532 284 -11 20 -158 425
-158 436 0 11 38 47 44 41 17 -17 252 -380 262 -404 17 -42 19 -43 169 -118
152 -76 255 -120 444 -187 266 -96 372 -114 571 -99 80 7 146 13 148 14 7 6
-50 115 -60 115 -56 2 -187 37 -308 83 -80 30 -167 61 -195 70 -27 9 -171 54
-320 101 -148 46 -280 87 -292 91 -17 4 -23 14 -23 33 -1 23 -2 25 -11 10 -5
-10 -14 -18 -18 -18 -10 0 -209 272 -343 469 l-58 85 6 100 c7 145 13 184 30
201 23 22 69 18 102 -10 35 -29 85 -129 107 -210 15 -58 21 -66 192 -237 l178
-178 70 0 c38 -1 104 -7 145 -15 349 -66 343 -66 570 -63 201 3 220 1 294 -20
43 -13 88 -21 100 -18 30 8 183 97 258 151 l64 46 22 132 c20 117 22 152 16
300 -5 124 -4 171 4 176 8 5 -6 25 -39 60 -28 29 -59 72 -70 95 -44 100 -53
333 -14 376 36 40 73 48 109 25z m-1974 -280 c-6 -22 -10 -79 -11 -127 -1 -49
-3 -88 -4 -88 -2 0 -10 3 -19 6 -28 11 -16 124 24 228 15 40 21 29 10 -19z
m1745 -884 c-3 -6 -39 -28 -80 -51 l-75 -41 -82 20 c-45 12 -99 21 -120 21
-45 0 -48 11 -10 39 25 19 41 20 200 21 106 0 171 -4 167 -9z m-2065 -231 c0
-6 -31 -142 -69 -303 -85 -357 -94 -410 -86 -512 17 -207 43 -255 261 -485
130 -138 286 -341 272 -355 -5 -6 -147 97 -231 167 -32 26 -62 48 -66 48 -9 0
-10 -4 -57 -440 -33 -313 -90 -719 -119 -865 -13 -65 -14 -48 -10 230 5 267
16 496 30 623 l5 42 -250 0 -249 0 -5 -32 c-3 -18 -23 -127 -44 -243 l-39
-210 -6 109 c-4 60 -7 169 -7 243 l0 133 -121 0 c-135 0 -128 -6 -93 78 l13
32 105 0 105 0 6 38 c12 75 68 295 95 375 l28 82 1 -60 c0 -33 -6 -141 -14
-240 -8 -99 -15 -183 -15 -187 0 -5 111 -8 248 -8 l247 0 22 196 21 197 -80
95 c-44 52 -91 119 -104 147 -28 60 -54 217 -54 323 0 43 -4 72 -10 72 -6 0
-90 -38 -185 -84 -96 -47 -175 -83 -175 -82 0 8 83 153 94 164 7 7 73 39 147
71 l134 58 77 294 c42 162 77 295 77 297 3 8 101 0 101 -8z m4011 -282 l51
-23 -6 -90 c-27 -355 -87 -916 -124 -1145 -16 -105 -16 -105 -23 -55 -16 114
-21 514 -10 690 23 348 49 645 57 645 2 0 27 -10 55 -22z m-3584 -171 l198
-113 92 -110 c50 -60 90 -110 88 -112 -2 -2 -52 10 -112 28 -152 44 -292 114
-388 192 -112 91 -108 84 -94 162 6 36 13 66 15 66 1 0 92 -51 201 -113z
m-2771 -196 c71 -53 237 -240 310 -351 l26 -39 -32 -45 -31 -46 -71 87 c-97
118 -190 223 -200 223 -16 0 -7 -47 51 -284 79 -322 84 -346 77 -353 -10 -10
-191 368 -225 472 -43 130 -50 192 -25 248 24 56 62 117 73 117 4 0 26 -13 47
-29z m7056 -77 c-120 -193 -199 -364 -259 -559 -66 -214 -139 -558 -184 -869
-16 -116 -31 -212 -33 -213 -1 -1 -15 50 -30 114 -30 121 -31 150 -10 341 l7
62 -261 0 -262 0 -25 41 c-48 74 -70 68 265 71 l303 3 17 86 c10 48 34 147 55
220 62 223 118 347 234 522 64 95 218 274 228 264 2 -3 -18 -40 -45 -83z m482
-524 c1 -74 -3 -92 -28 -143 -59 -121 -177 -220 -423 -356 -118 -65 -273 -135
-273 -124 0 4 117 124 259 268 240 241 324 331 411 444 33 43 34 43 43 20 6
-13 11 -62 11 -109z m-7972 -282 c93 -69 318 -220 391 -263 26 -15 46 -29 44
-31 -2 -2 -41 6 -88 17 -180 42 -280 85 -406 171 -99 68 -98 67 -67 122 14 25
29 46 34 46 5 0 46 -28 92 -62z m3083 -284 c33 -15 65 -64 65 -99 0 -25 -27
-72 -52 -89 -38 -27 -95 -20 -129 13 -63 64 -19 186 69 190 8 1 29 -6 47 -15z
m4844 -168 c-141 -107 -368 -236 -519 -294 -100 -38 -152 -53 -144 -41 18 31
233 176 329 224 93 46 339 143 369 144 5 1 -11 -14 -35 -33z m292 -407 c12
-31 11 -33 -22 -61 -18 -16 -72 -48 -119 -72 -87 -45 -261 -118 -267 -113 -2
3 68 56 307 230 41 30 78 53 81 51 4 -2 12 -18 20 -35z m-995 -472 c51 -65
118 -166 113 -170 -2 -2 -47 -11 -99 -21 -220 -41 -387 -110 -583 -241 -53
-36 -100 -65 -103 -65 -11 0 54 75 124 143 84 83 195 167 310 236 51 31 77 51
65 51 -43 0 -197 -52 -286 -96 -159 -80 -223 -127 -482 -352 -38 -34 -71 -59
-73 -57 -8 7 87 152 153 233 64 80 174 176 274 240 142 91 328 151 466 151
l80 0 41 -52z m-4202 5 c55 -50 57 -122 5 -166 -71 -60 -169 -10 -169 86 0 85
103 134 164 80z m-3029 -40 c97 -46 241 -139 346 -224 103 -82 287 -270 270
-276 -27 -9 -163 74 -525 321 -39 26 -106 61 -151 78 -44 17 -82 32 -83 34 -7
7 59 95 71 95 7 0 39 -13 72 -28z"/>
<path d="M5875 7208 c-328 -9 -308 -7 -396 -37 l-67 -22 -4 -77 c-3 -42 -4
-78 -2 -80 1 -2 102 6 225 17 494 46 479 45 587 18 l92 -24 0 22 c0 36 -49
122 -91 159 -21 20 -42 35 -47 34 -4 -1 -137 -5 -297 -10z"/>
<path d="M4586 6049 c-3 -34 -6 -84 -6 -110 l0 -49 491 0 492 0 -7 61 c-3 34
-6 84 -6 110 l0 49 -479 0 -478 0 -7 -61z"/>
<path d="M5877 5802 c-10 -10 -17 -34 -17 -54 0 -28 5 -37 25 -46 61 -28 105
-2 105 61 0 26 -6 39 -19 47 -30 16 -76 12 -94 -8z"/>
<path d="M6056 5804 c-22 -21 -20 -77 2 -97 25 -23 68 -21 92 3 41 41 13 110
-45 110 -18 0 -41 -7 -49 -16z"/>
<path d="M4945 5665 c-96 -21 -173 -54 -254 -109 -211 -144 -323 -430 -266
-675 21 -88 84 -215 138 -280 131 -155 296 -233 497 -234 210 0 381 81 509
240 233 292 187 710 -103 930 -157 119 -348 166 -521 128z m130 -122 c-47 -11
-155 -59 -218 -96 -169 -99 -252 -276 -214 -458 32 -158 108 -264 235 -326 74
-37 79 -38 187 -38 104 0 114 2 175 32 111 55 190 150 217 262 13 57 19 224 8
252 -4 11 6 25 30 43 20 16 38 26 39 25 2 -2 14 -31 27 -64 20 -51 23 -78 24
-185 0 -118 -2 -129 -29 -189 -95 -205 -270 -321 -486 -321 -158 0 -280 50
-391 160 -75 74 -122 161 -144 268 -19 86 -19 134 0 223 52 246 253 419 485
417 41 0 66 -2 55 -5z m120 -175 c31 -11 75 -38 98 -60 l42 -38 -53 35 c-173
113 -381 77 -487 -83 -32 -50 -54 -137 -48 -198 3 -40 2 -46 -7 -31 -8 12 -11
47 -8 91 6 128 85 240 203 286 71 27 186 27 260 -2z m-91 -111 c16 -25 -12
-69 -52 -83 -19 -6 -41 -24 -51 -41 -36 -59 -89 -85 -135 -67 -35 13 -7 112
46 161 55 51 168 69 192 30z m250 -351 c-22 -62 -84 -130 -152 -163 -48 -24
-69 -28 -137 -28 -92 0 -157 24 -213 78 -28 27 -62 76 -62 89 0 2 27 -22 59
-53 46 -46 72 -61 117 -75 143 -41 293 21 371 153 13 23 26 43 28 43 2 0 -3
-20 -11 -44z"/>
</g>
</svg>
