<svg xmlns="http://www.w3.org/2000/svg" version="1.1" xmlns:xlink="http://www.w3.org/1999/xlink" xmlns:svgjs="http://svgjs.com/svgjs" width="512" height="512" x="0" y="0" viewBox="0 0 512 512" style="enable-background:new 0 0 512 512" xml:space="preserve" class=""><g><g data-name="Web development research"><g fill="#2351fb"><path d="M234.8 240H63.53a5.92 5.92 0 0 1-5.92-5.91V19.4a5.93 5.93 0 0 1 5.92-5.92H234.8a5.93 5.93 0 0 1 5.92 5.92v214.67a5.92 5.92 0 0 1-5.92 5.93zM63.53 15.48a3.93 3.93 0 0 0-3.92 3.92v214.67a3.92 3.92 0 0 0 3.92 3.93H234.8a3.92 3.92 0 0 0 3.92-3.91V19.4a3.93 3.93 0 0 0-3.92-3.92z" fill="#1d1160" data-original="#2351fb" opacity="1" class=""></path><circle cx="73.23" cy="21.82" r="2.95" fill="#1d1160" data-original="#2351fb" opacity="1" class=""></circle><circle cx="85.47" cy="21.82" r="2.95" fill="#1d1160" data-original="#2351fb" opacity="1" class=""></circle><circle cx="97.7" cy="21.82" r="2.95" fill="#1d1160" data-original="#2351fb" opacity="1" class=""></circle><path d="M145.25 115.19h-11a.5.5 0 0 1-.5-.5.5.5 0 0 1 .5-.5h11a.5.5 0 0 1 .5.5.51.51 0 0 1-.5.5zm-22 0h-11a.5.5 0 0 1-.5-.5.5.5 0 0 1 .5-.5h11a.5.5 0 0 1 .5.5.51.51 0 0 1-.5.5zm-22 0h-11a.5.5 0 0 1-.5-.5.5.5 0 0 1 .5-.5h11a.5.5 0 0 1 .5.5.51.51 0 0 1-.5.5zm-22 0h-1.34a5.19 5.19 0 0 1-5.18-5.19v-2.31a.5.5 0 0 1 .5-.5.51.51 0 0 1 .5.5V110a4.19 4.19 0 0 0 4.18 4.19h1.34a.5.5 0 0 1 .5.5.51.51 0 0 1-.5.5zm67.54-1.3a4.17 4.17 0 0 0 2.64-3.89v-5.41a.5.5 0 0 1 1 0V110a5.15 5.15 0 0 1-3.27 4.82.5.5 0 0 1-.37-.93zm-73.56-16.7a.5.5 0 0 1-.5-.5v-11a.5.5 0 0 1 .5-.5.51.51 0 0 1 .5.5v11a.5.5 0 0 1-.5.5zm76.7-3.1a.5.5 0 0 1-.5-.5v-11a.5.5 0 0 1 1 0v11a.5.5 0 0 1-.5.5zm-76.7-18.9a.5.5 0 0 1-.5-.5v-11a.5.5 0 0 1 .5-.5.51.51 0 0 1 .5.5v11a.5.5 0 0 1-.5.5zm76.7-3.1a.5.5 0 0 1-.5-.5v-11a.5.5 0 0 1 1 0v11a.5.5 0 0 1-.5.5zm-76.7-18.9a.5.5 0 0 1-.5-.5c0-11.11 0-10.39.11-11.09a.5.5 0 0 1 .59-.39.51.51 0 0 1 .39.6c-.13.59-.09 0-.09 10.88a.5.5 0 0 1-.5.5zm76.7-3.1a.5.5 0 0 1-.5-.5v-6.92a4.15 4.15 0 0 0-1.49-3.2.5.5 0 0 1 .64-.77 5.17 5.17 0 0 1 1.85 4v6.92a.5.5 0 0 1-.5.47zm-12.4-11.61h-11a.5.5 0 0 1-.5-.5.5.5 0 0 1 .5-.5h11a.51.51 0 0 1 .5.5.5.5 0 0 1-.5.5zm-22 0h-11a.5.5 0 0 1-.5-.5.5.5 0 0 1 .5-.5h11a.51.51 0 0 1 .5.5.5.5 0 0 1-.5.5zm-22 0h-11A.5.5 0 0 1 82 38a.5.5 0 0 1 .5-.5h11a.51.51 0 0 1 .5.5.5.5 0 0 1-.47.48z" fill="#1d1160" data-original="#2351fb" opacity="1" class=""></path><rect width="76.7" height="76.7" x="144.91" y="146.98" rx="4.68" fill="#1d1160" data-original="#2351fb" opacity="1" class=""></rect></g><circle cx="191.44" cy="73.23" r="28.33" fill="#00788c" data-original="#fdc500" class="" opacity="1"></circle><path fill="#00788c" d="M180.53 95.03h21.83v12.5h-21.83z" data-original="#fdc500" class="" opacity="1"></path><rect width="25.25" height="12.92" x="178.82" y="102.69" fill="#68003c" rx="2.44" data-original="#68003c" class=""></rect><rect width="13.08" height="7.92" x="184.9" y="112.19" fill="#68003c" rx="3.08" data-original="#68003c" class=""></rect><path fill="#68003c" d="M193.56 108.19a.5.5 0 0 1-.49-.58c1.07-6.22 3.84-21.55 6.65-31.58a9.81 9.81 0 0 1-6-2.09 8.77 8.77 0 0 1-3.79 2.88c-2 .84-4.57.59-7.11-.31 2.77 8.82 5 21.5 6.25 30.62a.51.51 0 0 1-.43.56.5.5 0 0 1-.56-.43c-1.08-8.58-3.67-22.62-6.47-31.26a22.51 22.51 0 0 1-5.94-3.83c-1.21-1.11-3.15-3.22-2.62-4.91.19-.59.76-1.34 2.44-1.56 2.39-.3 4.69 2.84 6.93 9.55 2.58 1 5.19 1.42 7.12.62a7.77 7.77 0 0 0 3.4-2.61 9.71 9.71 0 0 1-3.23-6c-.05-1.34.58-2.2 1.68-2.31 2.86-.28 4.85 4.25 2.86 8A8.92 8.92 0 0 0 200 75c1.43-4.92 2.86-8.34 4.06-8.34 4 0 3.82 8.59-3.32 9.29-2.11 7.78-4.65 20-6.69 31.8a.51.51 0 0 1-.49.44zm10.51-40.5c-.72.12-1.79 2.86-3 7.25a5.34 5.34 0 0 0 4-2.5 4.16 4.16 0 0 0 .33-4 1.44 1.44 0 0 0-1.33-.75zm-28.27-1c-.56 0-1.6.26-1.8.88-.25.81.67 2.33 2.35 3.87a21.26 21.26 0 0 0 4.82 3.26c-2.34-6.63-4.17-7.99-5.37-7.99zm15.84-.69c-.74 0-1 .53-.93 1.29a8.36 8.36 0 0 0 2.75 5.08c1.44-2.99 0-6.37-1.82-6.37zM173.1 171a12.25 12.25 0 0 1-7.84-3.13.5.5 0 0 1 0-.71.51.51 0 0 1 .71 0c.27.26 6.62 6.34 14.25 0 7.82-6.53 9.11-41.53 9.12-41.88a.53.53 0 0 1 .52-.49.5.5 0 0 1 .48.52c-.05 1.46-1.32 35.8-9.48 42.62a12 12 0 0 1-7.76 3.07zM204 167.48c-11.29-1.08-8.71-25.87-6.53-36.84a.51.51 0 0 1 .59-.4.5.5 0 0 1 .39.59c-2 10-4.7 34.66 5.65 35.66a.5.5 0 0 1-.1.99zM187.4 180c2.68-6.35 3.54-21.18 3.54-21.33a.53.53 0 0 1 .53-.48.5.5 0 0 1 .47.53c0 .62-.87 15.16-3.62 21.67a.5.5 0 0 1-.92-.39z" data-original="#68003c" class=""></path><path fill="#1d1160" d="M246.62 437.51h206.77v61.66H246.62zM246.62 386.06h113.39v51.44H246.62z" data-original="#2351fb" opacity="1" class=""></path><path fill="#e67925" d="m399.309 78.192-13.247-1.6 3.042-25.173 13.247 1.6z" data-original="#e67925" class=""></path><path fill="#e67925" d="M398.59 27.7a15.31 15.31 0 0 0-18.16 16.06l.25 11.92a9.92 9.92 0 0 0 6.81 9.32 12.86 12.86 0 0 0 2.49.36c5.87.23 10.24-5.07 12.69-8 .41-.51.88-1.1 1.36-1.79a15.3 15.3 0 0 0-5.44-27.85z" data-original="#e67925" class=""></path><path fill="#262246" d="M390 56c-.1 0-.16 0-1.9-.33a1.14 1.14 0 0 1-.85-1.58l2-4.76a.5.5 0 0 1 .92.4l-2 4.75a.15.15 0 0 0 .11.21l1.81.32a.5.5 0 0 1-.09.99zM385.57 46.7a1.3 1.3 0 1 0 1 1.52 1.3 1.3 0 0 0-1-1.52zM395.27 48.57a1.3 1.3 0 1 0 1 1.52 1.29 1.29 0 0 0-1-1.52zM395.18 44.34c-.32 0-1.43.08-1.58.57a.71.71 0 0 0 .2.6c.58.65 1.68-.16 3.08.13 1.62.33 2.41 1.88 2.68 1.68s-.56-3.18-4.38-2.98zM387.13 42.73c-.35-.16-2.44-1.16-4.19-.08-.59.37-1.11 1-1 1.16s1.48-.84 3.11-.52c1.41.27 2.12 1.43 2.9 1.06 0 0 .38-.18.41-.48.06-.51-.94-.99-1.23-1.14z" data-original="#262246"></path><path fill="#68003c" d="M387.69 65.7a.5.5 0 0 1 .22-1 9 9 0 0 0 8.21-2.26.5.5 0 1 1 .69.73 10 10 0 0 1-9.12 2.53z" data-original="#68003c" class=""></path><path fill="#262246" d="M388.21 59.17a.5.5 0 1 1 .61-.78 2.15 2.15 0 0 0 3.45-1.31.51.51 0 0 1 .58-.41.5.5 0 0 1 .4.59 3.14 3.14 0 0 1-5.04 1.91z" data-original="#262246"></path><path fill="#e67925" d="m352.54 166-53.67 50.44a24.48 24.48 0 0 0-7.45 21.46q10.14 67.63 20.27 135.26H331A484.74 484.74 0 0 0 323 242a153.15 153.15 0 0 0 63.94-48q1.76-12.34 3.5-24.7l-32-26.77q-2.93 11.71-5.9 23.47z" data-original="#e67925" class=""></path><path fill="#e67925" d="m362.66 175.05 9.39 122.09a36.83 36.83 0 0 0 2.13 9.83q17.86 48.9 35.74 97.8l16.69-.39a255.85 255.85 0 0 0-26.53-106.76q6.07-51.26 12.16-102.5l-11.85-35.53-26.06 1.89z" data-original="#e67925" class=""></path><path fill="#68003c" d="m331.84 358.63 10.27 27.43-85.28-.16a10.5 10.5 0 0 1 6.94-12.32A150.42 150.42 0 0 0 309 354.86zM408.75 394.27q-3.47 13.28-6.94 26.54a51.52 51.52 0 0 0-14.22 16.7h55L426 391.76z" data-original="#68003c" class=""></path><path fill="#e67925" d="m396.92 71.45 18.69 4.83a22.31 22.31 0 0 1 16.71 20.35q2.55 44.58 5.08 89.15l-24.95-3.84-8.1-87.59q-3.72-11.44-7.43-22.9zM392.13 70.9l-22.83-3.32a22.87 22.87 0 0 0-19 6L295.61 125l-56.33-19.83.66 19.67 49.42 28.26a20.11 20.11 0 0 0 24.1-3.16C376.44 87.6 359.15 105 392.13 70.9z" data-original="#e67925" class=""></path><path fill="#1d1160" d="M199 99.83a35.25 35.25 0 1 1 29.29-54.77c15.42 23.25-1.11 54.77-29.29 54.77zm-.1-64.48a29.24 29.24 0 1 0 24.4 13 29.35 29.35 0 0 0-24.45-13z" data-original="#2351fb" opacity="1" class=""></path><path fill="#1d1160" d="M251 142.93a5.67 5.67 0 0 1-7.86-1.58L213.68 97a5.66 5.66 0 1 1 9.43-6.28l29.5 44.32a5.68 5.68 0 0 1-1.61 7.89z" data-original="#2351fb" opacity="1" class=""></path><path fill="#00788c" d="m357.22 73.79 39.21-2.89 26.18 16.58L399 181.39l-45.08-8.31z" data-original="#fdc500" class="" opacity="1"></path><path fill="#00788c" d="m396.43 70.9-24.59-4.23a28.78 28.78 0 0 0-25.26 8.07l-35 35.24 22.79 27.75L362.66 109z" data-original="#fdc500" class="" opacity="1"></path><path fill="#00788c" d="m394.82 70.35 23.1 4.83a22.82 22.82 0 0 1 18 19.87l6.46 59.23-35.11 2 1.11-54.79z" data-original="#fdc500" class="" opacity="1"></path><path fill="#68003c" d="m330.66 182.69-33.39 35.38 37.09 31.91 28.3-24.5v48.25l46.45 2.75 5.25-62.25-15-23z" data-original="#68003c" class=""></path><path fill="#00788c" d="M356.86 105.23a199.94 199.94 0 0 1-34.25 86.25c17.93 5.88 28.17 14.18 34.25 20.84 6.87 7.51 14.42 18.65 35.27 18.33 15.92-.24 25.15-3 25.15-3l1.33-51.65-55.95-38.25z" data-original="#fdc500" class="" opacity="1"></path><path fill="#e67925" d="M384.32 68.82a10.93 10.93 0 0 0 19.33 3.35l-11.52-2.94z" data-original="#e67925" class=""></path><path fill="#68003c" d="M331.91 155.52h54.32a2.18 2.18 0 0 0 2.18-2.32l-4.76-75.84a2.18 2.18 0 0 0-2.17-2H328a2.18 2.18 0 0 0-2.18 2.3l3.89 75.84a2.18 2.18 0 0 0 2.2 2.02z" data-original="#68003c" class=""></path><circle cx="357.11" cy="115.42" r="7.88" fill="#ffffff" data-original="#ffffff"></circle><path fill="#e67925" d="m390 112.93 46 67.83c3.72 8.45-.41 17.89-7.75 20.67-6 2.27-13.48-.17-17.58-6.25l-34.92-71z" data-original="#e67925" class=""></path><path fill="#68003c" d="M403.42 43.29a5.29 5.29 0 0 1-3.67-5.39c-.06-4.5-5.4-5-5.4-5-3.05 4.64-8.16 6.81-13.68 6.93-3.5-6.7-1.27-14.51 4.11-17.68 4-2.36 9.39-1.94 13.66 1a14.17 14.17 0 0 1 16.17 6.5c6 9.82-1.79 23.21-2.17 23.83a29.71 29.71 0 0 1-11.31 10.66c1.34-12.87.87-8.14 2.29-20.85z" data-original="#68003c" class=""></path><path fill="#e67925" d="M405.92 49.55a4.06 4.06 0 1 0 .18 5.28 3.77 3.77 0 0 0-.18-5.28z" data-original="#e67925" class=""></path><path fill="#262246" d="M402.19 55.16a.5.5 0 0 1-.06-1 1.07 1.07 0 0 0 .38-2 .5.5 0 0 1 .34-.92l2.53.48a.51.51 0 0 1 .4.59.52.52 0 0 1-.59.4l-1.19-.23a2.06 2.06 0 0 1-1.81 2.68z" data-original="#262246"></path><path fill="#68003c" d="M410.07 143a.5.5 0 0 1-.47-.52l2-39a.52.52 0 0 1 .53-.48.51.51 0 0 1 .47.53l-2 39a.49.49 0 0 1-.53.47z" data-original="#68003c" class=""></path><path fill="#00788c" d="m309 354.86-2.4-16 25.72 2.14 1.76 23.64s-7.85 3.36-12.22-1.39-8.19-7.39-12.86-8.39zM406.65 402.33l-7.86-28 24.63-3.85a256.17 256.17 0 0 1 4.94 28c-1 2.14-2.52 2.73-4.5 1.91-3.42-1.49-10.86-3.64-17.21 1.94z" data-original="#fdc500" class="" opacity="1"></path><path fill="#68003c" d="M383.42 52.92a4.94 4.94 0 1 1 4.94-4.92 5 5 0 0 1-4.94 4.92zm0-8.88a3.94 3.94 0 1 0 3.94 3.96 3.95 3.95 0 0 0-3.94-4zM394.82 55.2a4.94 4.94 0 1 1 4.94-4.93 4.94 4.94 0 0 1-4.94 4.93zm0-8.87a3.94 3.94 0 1 0 3.94 3.94 3.95 3.95 0 0 0-3.94-3.94z" data-original="#68003c" class=""></path><path fill="#68003c" d="M390 50.14c-.71-1-2.13-.41-2.14-.4a.51.51 0 0 1-.66-.26.5.5 0 0 1 .27-.66c2.16-.92 4.07.83 3.23 1.43a.51.51 0 0 1-.7-.11zM399.26 51.11a.5.5 0 0 1-.22-1l5.54-2.63a.5.5 0 1 1 .43.9c-5.93 2.87-5.59 2.73-5.75 2.73z" data-original="#68003c" class=""></path><path fill="#e67925" d="M241.8 106.67a26.34 26.34 0 0 1-5.52-8 6.32 6.32 0 0 0-1.73-2.6c-2.35-2-4.36-.82-11.75-3.63a3.56 3.56 0 0 0-3.82.88 3.62 3.62 0 0 0 .32 4.87l11.25 5.5 9.91 13.15z" data-original="#e67925" class=""></path><path fill="#e67925" d="m216 100.51 11.79 2.64c3.72 1 5.44 5.08 1.45 6.5-5.63-.62-2.73-.3 3 .29 3.09.17 4.7 3.55 1.84 5.34-6.49-.17-6.81-.29 1.25.37a3 3 0 0 1 3.25 2.42 2.91 2.91 0 0 1-1.67 2.91l-3.72-.08 4.93.83a3 3 0 0 1-.34 5.42l-9.58-.42a3.24 3.24 0 0 1-2.46-5.75 3.64 3.64 0 0 1-2.41-5.83 3.56 3.56 0 0 1-3.17-5.75c-4.79-.16-6.88-5.23-4.16-8.89z" data-original="#e67925" class=""></path><path fill="#68003c" d="m227.78 110-7.68-.09a.5.5 0 0 1 0-1l7.67.09a.5.5 0 1 1 0 1zM230 115.65h-6.71a.5.5 0 0 1 0-1H230a.5.5 0 0 1 0 1zM225.69 121.48a.5.5 0 1 1 0-1l7.75-.07a.5.5 0 0 1 0 1zM299.94 143a.49.49 0 0 1-.48-.38l-4.34-17.53a.5.5 0 0 1 .37-.6.49.49 0 0 1 .6.36l4.34 17.53a.5.5 0 0 1-.49.62z" data-original="#68003c" class=""></path><path fill="#e67925" d="M393.48 119.48c-2.7-18.31-1.87-12.75-3.7-24.91-.3-2.13-2.2-3.31-3.59-2.92a3 3 0 0 0-1.87 2.71v13.25q-3.15-8.19-6.29-16.38a2.47 2.47 0 1 0-4.67 1.63l3.87 12.56-7.37-12.94a2.5 2.5 0 0 0-4.25 2.63l5 11.62-6.13-8.25a2.55 2.55 0 0 0-2.45-.83 2.77 2.77 0 0 0-1.59 3.5l6.79 12.16-7.5-7.08a2.33 2.33 0 0 0-2.7-.08 2.41 2.41 0 0 0-.17 3.46l17 20.36a9.22 9.22 0 0 0 4.74 3l5.71 1.5z" data-original="#e67925" class=""></path><path fill="#68003c" d="M431.07 174a.5.5 0 0 1-.42-.22L419 156.56a.52.52 0 0 1 .13-.7.51.51 0 0 1 .7.14l11.66 17.19a.5.5 0 0 1-.42.81z" data-original="#68003c" class=""></path><rect width="23.52" height="8.03" x="378.29" y="127.07" fill="#1d1160" rx="1.49" transform="matrix(.82 -.58 .58 .82 -4.32 248.54)" data-original="#2351fb" opacity="1" class=""></rect><rect width="13.84" height="6.14" x="383.52" y="127.34" fill="#ffffff" rx="1.62" transform="rotate(-36.22 390.09 130.374)" data-original="#ffffff"></rect><path fill="#68003c" d="M400.08 298.12c-.15 0 .62.28-11.65-4.5a.5.5 0 0 1 .36-.94l11.47 4.47a.5.5 0 0 1-.18.97z" data-original="#68003c" class=""></path><path fill="#ffffff" d="M334.08 382.23h-68.72a.5.5 0 0 1-.5-.5.5.5 0 0 1 .5-.5h68.72a.5.5 0 0 1 .5.5.5.5 0 0 1-.5.5zM437.94 433.32h-42.16a.5.5 0 0 1-.5-.5.5.5 0 0 1 .5-.5h42.16a.5.5 0 0 1 .5.5.5.5 0 0 1-.5.5zM417.68 423.08a18.72 18.72 0 0 0-15.72-1.8.49.49 0 0 1-.63-.32.5.5 0 0 1 .32-.63 19.75 19.75 0 0 1 16.55 1.89.5.5 0 0 1-.52.86zM418.3 416.73c-.1 0 .5.11-11.05-2.06a.82.82 0 0 1 0-1.61l8.12-1.44-6.25-1.06A.82.82 0 0 1 409 409l7.26-2.56H408a.5.5 0 0 1-.5-.5.51.51 0 0 1 .5-.5h9.32a.82.82 0 0 1 .27 1.6l-7.6 2.67 6.59 1.12a.82.82 0 0 1 0 1.61l-8.17 1.45 10 1.87a.5.5 0 0 1-.11.97zM289.5 374.07l-3.73-6a.49.49 0 0 1 .16-.69.51.51 0 0 1 .69.16l3.57 5.74 1.35-7.21a.89.89 0 0 1 1.58-.37l4.49 5.93v-8.08a.89.89 0 0 1 1.57-.56l5.81 7.07-1.42-8.78a.88.88 0 0 1 1.51-.75l6.1 6.43a.5.5 0 1 1-.72.69l-5.85-6.16 1.43 8.83a.88.88 0 0 1-1.55.7l-5.88-7.15V372a.89.89 0 0 1-1.59.54l-4.54-6-1.36 7.25a.88.88 0 0 1-1.62.28z" data-original="#ffffff"></path></g></g></svg>