<?xml version="1.0" standalone="no"?>
<!DOCTYPE svg PUBLIC "-//W3C//DTD SVG 20010904//EN"
 "http://www.w3.org/TR/2001/REC-SVG-20010904/DTD/svg10.dtd">
<svg version="1.0" xmlns="http://www.w3.org/2000/svg"
 width="1024.000000pt" height="1024.000000pt" viewBox="0 0 1024.000000 1024.000000"
 preserveAspectRatio="xMidYMid meet">

<g transform="translate(0.000000,1024.000000) scale(0.100000,-0.100000)"
fill="#000000" stroke="none">
<path d="M2404 9900 c-253 -66 -433 -274 -538 -622 -39 -131 -44 -157 -55
-298 -16 -204 17 -393 86 -493 37 -53 138 -154 163 -162 10 -3 39 -34 63 -68
25 -34 72 -96 106 -137 34 -41 72 -87 84 -102 12 -15 80 -57 151 -95 117 -62
132 -73 169 -125 l41 -58 -53 -75 c-70 -101 -154 -279 -186 -395 -15 -52 -40
-138 -56 -190 -54 -178 -54 -175 -53 -645 0 -283 4 -468 12 -520 7 -44 19
-145 28 -225 8 -80 22 -179 31 -220 26 -129 26 -128 11 -106 -15 22 -62 81
-178 224 -112 138 -270 279 -425 377 -98 63 -146 110 -230 232 -89 129 -120
153 -198 153 -62 0 -106 -19 -141 -61 -24 -29 -28 -39 -24 -81 5 -45 2 -51
-33 -88 -31 -33 -39 -49 -39 -78 0 -21 7 -47 15 -59 14 -20 13 -23 -20 -43
-19 -12 -40 -30 -45 -40 -14 -26 -13 -93 2 -108 9 -9 6 -18 -16 -41 -48 -50
-55 -151 -13 -214 8 -12 62 -50 120 -85 127 -74 157 -99 244 -206 36 -44 86
-102 110 -127 l43 -45 -25 -49 c-74 -138 -199 -573 -330 -1145 -72 -313 -91
-387 -129 -502 -19 -57 -52 -165 -71 -238 -20 -74 -54 -172 -76 -218 -59 -123
-79 -179 -79 -215 0 -57 17 -68 116 -79 49 -5 123 -16 164 -23 124 -23 409
-82 500 -104 47 -10 106 -22 131 -25 l45 -7 12 -97 c15 -131 10 -147 -47 -176
-87 -44 -236 -104 -276 -111 -66 -12 -113 -42 -134 -84 -14 -27 -37 -49 -78
-72 -58 -33 -58 -33 -233 -40 -244 -9 -395 -44 -415 -97 -20 -52 164 -86 437
-80 l156 3 12 -38 c20 -69 28 -70 338 -72 165 -2 356 -9 472 -20 107 -9 240
-15 295 -13 87 3 108 7 160 33 107 53 132 124 95 270 -12 47 -20 88 -18 90 5
5 307 -13 421 -25 54 -5 120 -10 147 -10 l49 0 25 -52 c26 -54 75 -112 133
-159 31 -26 31 -28 43 -155 20 -228 32 -256 157 -374 144 -135 189 -160 322
-175 61 -7 67 -10 180 -101 131 -105 157 -115 236 -90 69 21 84 20 127 -9 47
-32 90 -32 151 0 45 24 48 25 78 9 43 -22 68 -12 115 49 105 134 144 236 144
375 l0 89 138 6 c95 4 160 12 212 26 47 14 130 25 220 31 80 5 181 16 225 24
44 9 130 16 190 16 181 2 617 28 655 39 33 10 36 9 59 -22 99 -129 199 -171
556 -232 135 -23 179 -26 280 -22 262 11 441 92 585 265 103 122 159 233 227
452 31 97 36 130 37 210 0 82 -4 108 -32 186 -20 56 -32 111 -32 142 0 27 -9
80 -21 117 -11 37 -18 69 -15 73 3 3 24 -14 47 -38 71 -75 192 -351 191 -436
-1 -38 -15 -71 -79 -187 -141 -259 -157 -296 -157 -357 0 -44 11 -80 51 -175
28 -66 60 -152 72 -192 18 -61 28 -77 69 -112 26 -23 71 -53 101 -67 47 -23
64 -26 122 -22 48 4 80 13 111 31 35 20 53 24 85 20 35 -5 45 -2 67 20 20 20
39 26 98 32 80 8 116 22 145 57 15 19 26 22 65 20 44 -3 48 -1 71 32 14 21 27
32 33 27 17 -17 64 1 79 30 31 59 11 109 -80 209 -35 37 -75 90 -91 116 -15
27 -64 96 -109 154 -45 58 -85 111 -89 118 -4 7 0 48 9 90 35 155 11 252 -99
402 -41 58 -43 63 -50 153 -22 312 -83 691 -168 1047 l-33 135 3 236 c3 252
-9 375 -47 500 -11 35 -33 118 -49 184 -16 66 -55 212 -87 325 -31 113 -61
237 -67 275 -5 39 -29 135 -54 215 -87 274 -148 363 -324 465 -36 20 -99 70
-141 110 -115 110 -147 120 -374 119 -165 0 -187 -2 -260 -26 -44 -14 -87 -28
-95 -32 -13 -5 -15 22 -15 211 0 248 -8 300 -80 518 -114 344 -283 699 -464
972 -127 191 -189 268 -380 473 -64 69 -155 172 -201 230 -281 350 -350 407
-585 483 -108 35 -318 74 -440 82 -109 7 -296 -8 -415 -32 -41 -8 -149 -18
-240 -23 -170 -9 -285 -30 -363 -69 l-38 -19 -56 62 c-181 195 -280 277 -332
275 l-26 -1 28 -8 c66 -20 209 -161 349 -345 111 -146 203 -398 326 -890 40
-161 142 -495 207 -675 37 -102 97 -273 135 -380 93 -267 186 -499 264 -660
65 -135 132 -298 188 -460 31 -89 47 -216 33 -266 -7 -25 -9 -19 -21 45 -13
78 -31 139 -69 236 -101 258 -164 415 -230 570 -43 99 -105 263 -140 365 -35
102 -98 277 -140 390 -109 289 -298 866 -346 1055 -54 213 -93 347 -122 420
-26 65 -67 137 -67 118 0 -6 25 -87 56 -180 30 -92 79 -265 109 -383 57 -227
163 -588 216 -730 17 -47 48 -133 70 -192 21 -59 58 -156 83 -215 24 -59 74
-193 111 -298 36 -104 83 -228 105 -275 21 -47 67 -152 101 -235 34 -82 79
-191 100 -241 68 -160 101 -279 106 -384 3 -52 2 -92 -1 -89 -4 3 -13 39 -21
80 -27 142 -111 399 -130 399 -2 0 7 -29 20 -64 32 -85 75 -305 74 -375 -1
-31 -3 -47 -6 -36 -28 122 -88 351 -103 390 -62 167 -157 381 -165 373 -3 -3
13 -50 35 -104 23 -54 52 -128 64 -164 13 -36 33 -88 44 -116 22 -54 57 -238
66 -339 3 -33 3 -51 0 -41 -5 15 -8 16 -15 5 -7 -11 -9 -11 -9 3 0 9 -4 18 -9
20 -5 2 -16 41 -24 88 -8 47 -24 114 -36 150 -38 124 -108 326 -120 348 -7 12
-21 55 -31 95 -18 65 -20 67 -15 24 3 -27 14 -70 26 -95 12 -26 29 -76 39
-112 10 -36 26 -90 35 -120 48 -165 79 -468 56 -550 -4 -15 -8 11 -8 65 -1
122 -72 459 -146 690 -20 61 -47 156 -61 213 -14 57 -47 151 -75 210 -114 246
-283 727 -391 1112 -50 178 -69 232 -70 202 -1 -39 142 -538 200 -701 99 -278
174 -469 230 -590 55 -118 87 -217 151 -461 41 -156 125 -607 116 -617 -10 -9
-38 86 -100 332 -36 143 -82 305 -102 360 -20 55 -68 190 -106 300 -37 110
-107 313 -154 450 -199 578 -309 969 -360 1275 -9 52 -25 129 -35 170 -11 41
-30 129 -44 195 -45 210 -150 505 -172 482 -2 -2 4 -19 13 -38 13 -24 18 -57
18 -109 -1 -66 -5 -85 -39 -157 -42 -91 -62 -103 -92 -58 -9 14 -19 24 -21 21
-12 -12 33 -57 67 -66 21 -6 45 -21 54 -35 24 -36 63 -162 71 -225 10 -86 -27
-356 -48 -343 -6 3 -7 1 -3 -5 15 -25 -45 -352 -64 -352 -11 0 -35 41 -32 53
1 4 -1 6 -5 5 -5 -1 -20 5 -34 15 -19 12 -33 15 -49 9 -15 -6 -19 -11 -12 -16
17 -10 15 -84 -4 -114 -24 -41 -117 -111 -174 -133 -86 -33 -196 -17 -239 35
-22 26 -6 29 38 7 62 -32 135 -28 195 9 26 17 52 28 57 25 5 -4 9 -1 9 4 0 6
5 11 11 11 6 0 9 -7 6 -14 -4 -10 -1 -13 9 -9 8 3 13 11 10 18 -2 7 2 21 10
32 9 10 13 12 9 6 -8 -17 6 -16 29 0 11 8 20 31 23 59 l5 47 -43 11 c-24 7
-74 10 -116 7 -51 -4 -71 -2 -67 5 4 6 2 8 -4 5 -5 -4 -17 -5 -24 -2 -14 6
-15 15 -18 125 l-2 45 -9 -44 c-5 -28 -5 -50 2 -63 7 -13 7 -24 1 -30 -7 -7
-13 6 -20 37 -8 37 -6 70 10 154 10 58 22 121 25 140 l6 33 -30 -16 c-17 -8
-40 -28 -50 -42 -17 -23 -29 -28 -79 -31 -42 -2 -53 0 -39 6 11 5 16 10 12 10
-4 1 1 11 13 23 11 12 23 18 27 15 3 -4 0 -7 -8 -7 -11 0 -11 -2 1 -10 8 -5
20 -10 25 -10 6 0 4 4 -4 9 -11 7 -9 10 8 16 11 3 21 11 21 17 0 6 -6 6 -15
-2 -9 -7 -19 -10 -22 -6 -4 4 -1 11 7 16 23 15 -3 12 -68 -6 -32 -9 -80 -31
-108 -50 -94 -61 -172 -77 -259 -50 -51 15 -75 50 -110 162 -29 96 -30 94 29
126 14 8 17 7 10 -3 -4 -7 -8 -29 -9 -48 -1 -20 -5 -46 -9 -58 -4 -14 -3 -23
3 -23 5 0 13 -15 17 -32 3 -18 13 -42 20 -54 8 -11 11 -24 7 -29 -5 -4 3 -2
17 5 l25 13 -19 -22 c-11 -11 -14 -21 -8 -21 6 0 14 5 17 10 3 6 14 9 23 9 15
-1 15 -2 0 -6 -21 -5 -24 -19 -5 -21 51 -7 114 -9 122 -3 6 3 25 11 44 16 26
8 34 16 37 37 1 15 -2 30 -7 34 -6 3 -15 18 -21 32 -7 18 -12 22 -15 13 -7
-18 -55 112 -69 189 -12 63 -15 70 -24 65 -4 -3 0 12 10 32 29 58 66 144 79
185 l12 36 47 -47 c28 -28 82 -65 131 -89 98 -49 166 -55 240 -22 56 26 70 25
101 -5 l27 -25 19 21 c16 18 19 39 21 133 4 166 4 171 -12 223 -9 30 -15 91
-15 165 0 131 7 148 64 148 41 0 70 -27 139 -129 45 -67 50 -80 50 -130 1 -61
-32 -154 -41 -116 -2 11 -12 29 -22 40 -10 11 -27 39 -39 62 -12 23 -35 58
-52 78 -39 44 -20 46 44 5 26 -16 50 -30 52 -30 3 0 5 10 5 23 0 68 -111 126
-153 79 -27 -30 -22 -134 9 -207 14 -33 31 -75 37 -92 13 -40 17 -40 55 -8 34
29 42 31 42 11 0 -16 30 -30 41 -19 18 19 49 137 49 185 0 65 -35 142 -109
243 -28 38 -51 73 -51 78 0 25 -109 222 -158 286 -57 74 -168 178 -220 205
-155 80 -537 121 -708 76z m2776 -865 c165 -22 289 -60 435 -133 88 -44 206
-161 370 -367 66 -82 165 -197 221 -255 155 -162 221 -242 335 -410 196 -287
252 -395 403 -778 135 -342 167 -461 187 -686 11 -135 8 -238 -11 -396 -4 -41
-16 -172 -24 -290 -9 -118 -19 -226 -22 -239 -3 -13 -9 -110 -14 -216 -6 -124
-17 -224 -29 -282 -11 -48 -25 -138 -31 -198 -11 -100 -10 -116 8 -180 24 -86
56 -173 88 -242 27 -58 31 -110 11 -138 -15 -19 0 -19 -227 1 -79 8 -123 -5
-223 -64 l-58 -34 -68 12 c-37 6 -81 18 -97 27 -93 51 -98 52 -299 83 -38 6
-79 13 -90 16 -16 4 -15 2 4 -9 l25 -15 -40 -6 c-175 -26 -344 -29 -344 -4 0
22 23 49 63 73 49 28 137 45 137 26 0 -6 -9 -11 -20 -11 -22 0 -133 -40 -128
-46 2 -2 28 6 58 17 33 13 79 21 117 21 49 0 63 4 63 15 0 11 7 14 23 10 87
-21 488 -55 742 -63 77 -3 165 -11 195 -19 87 -22 154 -29 146 -17 -4 6 -23
14 -44 17 -20 4 -64 13 -98 21 -33 8 -99 14 -147 14 -80 0 -266 13 -583 40
-66 6 -149 18 -185 28 -61 16 -64 19 -67 50 -4 39 -6 39 160 12 249 -40 918
-78 918 -53 0 11 -147 23 -285 23 -167 0 -785 65 -785 82 0 6 9 23 20 38 11
16 23 42 26 59 l7 31 126 -1 c173 -2 223 -16 61 -18 -69 -1 -130 -5 -137 -9
-6 -4 28 -5 75 -4 75 3 111 -2 254 -37 92 -22 198 -45 235 -50 71 -10 277 -22
271 -16 -2 2 -78 29 -168 59 -91 30 -217 73 -280 95 -175 61 -333 74 -428 35
-33 -13 -33 -13 -48 21 -23 55 -19 75 15 75 43 0 172 43 143 48 -12 2 -45 -1
-73 -7 -98 -21 -105 -19 -153 57 -66 103 -90 151 -81 159 4 5 10 2 13 -5 3
-10 8 -7 16 9 21 42 33 32 44 -38 9 -56 17 -73 42 -95 28 -26 37 -28 115 -28
53 0 140 11 232 29 158 31 276 46 439 57 149 9 178 -14 106 -86 -30 -31 -51
-41 -100 -51 -34 -7 -62 -17 -62 -22 0 -5 45 -7 100 -5 120 4 140 17 147 95 4
42 1 54 -18 76 -58 66 -305 63 -614 -8 -180 -42 -310 -48 -339 -16 -24 26 -30
79 -14 126 9 29 26 48 59 71 l45 30 -28 26 c-16 15 -28 36 -28 50 0 23 32 74
78 123 11 11 35 47 55 80 88 148 233 223 474 245 65 6 129 14 143 17 26 6
-181 44 -314 58 l-69 7 49 27 c27 15 67 38 89 52 22 14 106 58 186 97 183 90
282 174 351 297 25 44 22 66 -4 30 -12 -16 -56 -65 -97 -108 -64 -66 -89 -84
-180 -128 -229 -111 -260 -128 -372 -201 -82 -53 -131 -93 -167 -137 -70 -84
-123 -182 -142 -265 l-17 -70 -13 65 c-9 42 -14 145 -15 297 -1 165 -5 236
-13 244 -21 21 -13 38 16 38 31 1 94 30 99 46 3 8 -12 10 -44 7 -62 -6 -98 9
-123 49 -26 44 -10 67 61 89 115 34 131 50 195 193 31 71 52 102 105 156 62
62 181 148 162 117 -9 -16 -78 -77 -87 -77 -16 0 -112 -94 -127 -125 -6 -11
11 3 38 30 26 28 75 71 108 97 104 81 145 125 145 157 0 25 -119 8 -180 -25
-65 -35 -99 -78 -180 -222 -35 -62 -82 -132 -104 -155 l-40 -42 -4 29 c-4 34
29 137 69 215 24 46 39 111 26 111 -2 0 -35 -31 -73 -69 -107 -107 -178 -118
-218 -34 -36 76 -46 154 -52 428 -7 296 -11 259 70 688 39 200 49 309 49 502
0 124 -5 204 -16 258 -25 122 -33 118 -31 -15 5 -349 -25 -594 -115 -952 -97
-382 -90 -659 23 -884 24 -48 49 -114 55 -146 10 -52 8 -66 -13 -127 -26 -74
-71 -159 -85 -159 -5 0 11 38 35 85 48 93 53 131 33 227 -11 50 -107 255 -134
288 -29 33 -125 239 -139 298 -9 35 -16 96 -16 135 1 100 24 286 48 382 58
230 70 402 38 548 -9 44 -37 125 -60 180 -24 56 -46 109 -50 117 -17 43 11
-108 36 -190 69 -226 67 -291 -17 -685 -13 -60 -27 -139 -31 -175 l-7 -65 -10
40 c-5 22 -7 90 -4 150 5 106 -3 152 -24 140 -5 -4 -9 -11 -9 -16 0 -6 5 -7
10 -4 7 4 9 -2 6 -17 -3 -12 -13 -66 -22 -117 l-18 -95 -53 110 -53 109 0
-105 c0 -121 14 -160 94 -268 58 -78 60 -91 3 -20 -124 153 -188 287 -228 479
-44 211 -50 245 -59 344 -4 50 -13 104 -20 120 -16 37 -16 36 -31 110 -6 33
-12 108 -13 167 -1 100 -2 105 -16 80 -11 -20 -15 -59 -15 -157 1 -116 5 -150
42 -310 23 -99 51 -229 62 -290 12 -60 24 -120 26 -133 4 -18 -4 -13 -42 24
-27 25 -87 72 -134 103 l-86 57 87 -116 c48 -63 100 -126 114 -139 39 -36 32
-45 -15 -19 -66 37 -150 128 -234 254 -44 66 -99 138 -123 162 -35 33 -52 63
-79 134 -19 50 -32 97 -29 105 3 8 2 12 -2 9 -10 -6 -25 36 -42 114 -26 117
-61 209 -122 325 -78 147 -146 226 -221 253 -48 18 -157 38 -157 29 0 -3 26
-14 58 -25 95 -35 135 -77 202 -216 32 -66 85 -188 118 -271 56 -140 194 -473
275 -661 70 -165 179 -290 319 -364 131 -70 278 -201 322 -287 32 -63 21 -65
-129 -29 -101 25 -196 64 -380 155 -54 28 -101 49 -103 47 -16 -17 139 -114
373 -236 53 -27 47 -36 -10 -15 l-20 7 20 -14 c22 -17 247 -108 267 -108 7 0
31 -9 53 -20 l40 -20 -32 5 c-18 2 -33 0 -33 -5 0 -6 8 -11 18 -11 9 -1 4 -5
-13 -9 l-30 -8 30 -1 c22 -1 26 -4 15 -10 -27 -16 -288 -43 -375 -40 -47 2
-85 3 -85 2 0 -9 90 -46 151 -63 145 -40 275 -66 436 -84 140 -17 203 -39 88
-31 -38 2 -119 7 -180 10 -213 11 -389 47 -496 101 -25 12 -71 46 -102 74 -54
49 -75 81 -196 298 -97 174 -217 474 -281 702 -21 74 -56 196 -79 270 -22 74
-54 200 -71 280 -51 239 -104 377 -204 535 l-57 90 58 18 c123 37 194 49 353
58 91 5 201 15 245 23 109 19 423 19 555 1z m-2559 -598 c-6 -8 -7 -18 -3 -22
4 -5 1 -5 -6 -1 -10 6 -10 11 -1 22 6 8 14 14 16 14 3 0 0 -6 -6 -13z m-391
-204 c17 -37 43 -83 57 -103 l26 -35 -27 25 c-16 14 -55 60 -87 103 l-59 77
29 0 c26 0 32 -7 61 -67z m380 -29 c0 -8 -4 -12 -10 -9 -5 3 -10 10 -10 16 0
5 5 9 10 9 6 0 10 -7 10 -16z m115 -54 c-3 -5 -12 -10 -18 -10 -7 0 -6 4 3 10
19 12 23 12 15 0z m100 0 c-11 -5 -31 -8 -45 -8 -23 0 -22 1 5 8 42 11 65 11
40 0z m-355 -93 l25 -18 -50 6 c-57 7 -113 23 -119 33 -9 15 120 -4 144 -21z
m520 -78 c0 -20 17 -34 50 -42 29 -7 60 -53 60 -89 0 -16 -17 -37 -59 -70 -32
-27 -63 -48 -68 -48 -5 0 -8 13 -5 29 9 61 -71 151 -133 151 -34 0 -35 1 -35
43 l0 42 95 0 c82 1 95 -1 95 -16z m-304 -116 c55 -122 56 -123 116 -177 32
-27 56 -52 54 -54 -6 -5 -67 27 -89 46 -15 13 -157 293 -157 309 0 18 46 -57
76 -124z m2052 -38 c-3 -3 -9 2 -12 12 -6 14 -5 15 5 6 7 -7 10 -15 7 -18z
m58 -97 c27 -46 65 -101 84 -123 19 -22 28 -34 19 -28 -9 7 -20 9 -24 5 -5 -4
-5 -2 -1 5 4 7 -2 17 -14 23 -20 11 -21 10 -10 -10 19 -36 4 -34 -18 2 -25 42
-92 189 -92 204 0 14 14 -6 56 -78z m-1556 64 c0 -4 -21 -17 -47 -29 -27 -13
-72 -36 -100 -53 -66 -38 -69 -32 -5 12 26 18 56 40 67 50 10 10 24 17 31 14
6 -2 17 0 25 5 17 11 29 11 29 1z m100 -41 c-1 -7 -128 -87 -156 -97 -10 -4 6
18 37 49 31 30 65 57 75 59 21 5 44 -1 44 -11z m-611 -83 c43 -50 41 -41 51
-208 13 -188 37 -348 61 -390 11 -19 24 -48 28 -65 9 -28 9 -27 10 15 1 134
-19 365 -39 455 -18 79 -28 105 -49 122 -29 26 -16 30 32 10 23 -10 36 -25 46
-53 7 -21 34 -84 58 -139 25 -55 61 -145 80 -200 24 -70 32 -87 27 -55 -3 25
-28 112 -55 194 -27 82 -48 151 -46 153 9 8 89 -215 115 -322 27 -109 98 -305
183 -505 28 -67 32 -90 39 -215 5 -84 15 -158 24 -185 45 -122 123 -220 310
-385 44 -39 72 -71 65 -73 -32 -6 -268 110 -324 159 -48 42 -116 140 -149 213
-15 33 -42 116 -61 185 -39 146 -81 263 -125 352 -25 49 -31 72 -28 109 1 27
-1 46 -6 43 -22 -14 5 -179 50 -313 45 -135 104 -348 104 -377 0 -8 11 -37 24
-63 l24 -48 -81 46 c-45 25 -90 52 -100 60 -9 8 -20 13 -23 10 -3 -3 33 -32
80 -63 76 -51 128 -95 114 -95 -13 0 -153 82 -189 111 -22 17 -67 67 -100 110
-33 44 -64 79 -69 79 -18 0 -22 -48 -7 -76 8 -16 36 -57 61 -92 26 -35 44 -67
41 -73 -4 -5 -10 -7 -15 -4 -5 3 -11 1 -15 -5 -3 -6 -20 3 -38 20 -36 33 -43
36 -50 17 -3 -7 13 -30 34 -52 32 -31 41 -36 53 -26 8 7 12 19 9 28 -4 10 3 8
20 -7 15 -13 24 -26 21 -29 -4 -3 -9 0 -11 7 -7 20 -25 14 -18 -7 25 -78 -137
54 -222 182 -59 90 -90 166 -97 242 -8 100 -45 377 -57 428 -18 79 -29 62 -43
-68 -9 -77 12 -268 41 -390 15 -60 28 -112 28 -115 1 -3 7 -18 15 -35 13 -30
19 -45 59 -138 21 -48 23 -64 8 -59 -5 1 -6 -2 -2 -7 3 -6 11 -8 18 -5 7 2 22
-4 32 -16 10 -11 14 -20 9 -20 -5 0 -2 -5 6 -10 13 -9 13 -10 0 -10 -8 0 -46
25 -83 56 -38 30 -71 53 -74 50 -16 -16 15 -57 76 -101 39 -27 70 -53 70 -56
2 -20 -35 -17 -58 4 -58 52 -61 52 -48 10 11 -37 34 -78 89 -161 15 -23 53
-60 83 -83 56 -42 74 -62 32 -34 -20 13 -24 13 -24 1 0 -8 6 -12 13 -9 6 2 15
0 18 -6 4 -6 14 -7 23 -4 12 5 14 3 8 -7 -5 -9 -4 -11 3 -6 6 4 45 -12 85 -36
l74 -42 -86 -43 c-47 -24 -110 -50 -138 -59 -29 -8 -53 -18 -53 -21 0 -7 185
4 220 13 14 4 22 4 18 -1 -4 -4 -53 -15 -110 -25 -87 -16 -95 -18 -53 -19 55
-1 284 40 356 64 26 9 68 31 95 50 26 19 50 32 52 30 9 -8 -49 -84 -84 -110
-48 -37 -134 -75 -169 -75 -56 0 -10 -21 61 -27 61 -5 81 -1 164 27 52 18 103
40 113 48 16 14 17 12 17 -42 0 -41 9 -79 35 -143 19 -48 35 -88 35 -90 0 -1
-28 -11 -63 -22 -66 -20 -197 -87 -197 -101 0 -12 95 -21 150 -14 57 8 64 -1
18 -21 l-33 -14 48 -1 c50 0 109 20 139 47 10 9 20 14 22 12 2 -2 6 -34 8 -71
6 -66 5 -67 -21 -72 -123 -23 -173 -16 -341 55 -63 26 -134 53 -157 59 -24 6
-43 15 -43 19 0 5 24 12 53 16 41 6 47 9 28 14 -14 4 -26 13 -29 21 -3 13 -2
13 7 0 9 -12 11 -12 16 2 4 9 20 21 37 27 38 13 48 14 28 1 -13 -8 -12 -10 4
-10 12 0 16 -5 12 -15 -4 -12 0 -14 22 -9 40 10 46 27 14 41 -15 7 -21 12 -14
13 7 0 21 -4 30 -9 9 -5 35 -5 57 -1 l40 8 -40 2 c-35 2 -37 3 -15 10 24 7 23
7 -10 12 -19 3 1 6 45 6 128 0 125 -1 125 26 0 13 -7 43 -15 66 -8 23 -12 46
-9 51 3 5 1 9 -5 9 -5 0 -12 9 -16 19 -10 33 -40 34 -87 5 -23 -15 -88 -48
-143 -74 -55 -26 -122 -61 -149 -78 -55 -36 -106 -49 -131 -34 -14 7 -8 10 26
16 24 4 58 16 76 27 33 20 59 56 50 66 -3 2 -34 -3 -69 -12 -123 -33 -143 -37
-181 -32 -21 3 -45 11 -53 18 -42 35 -134 281 -199 533 -65 252 -85 289 -102
193 -12 -67 -22 290 -12 417 5 60 16 141 25 180 43 201 58 298 58 391 1 59 -3
101 -9 101 -5 1 -20 -37 -33 -85 -18 -66 -25 -128 -32 -266 l-8 -180 3 190 2
190 57 219 c49 186 66 237 118 340 55 112 127 236 137 236 2 0 20 -19 40 -42z
m2351 -255 c0 -2 -9 2 -20 9 -11 7 -20 16 -20 21 0 4 -6 5 -12 1 -7 -4 -10 -4
-7 0 4 4 -14 28 -40 53 -29 28 -19 22 27 -17 39 -35 72 -65 72 -67z m-2055 2
c19 -31 53 -105 74 -164 22 -58 63 -169 92 -246 65 -176 107 -262 225 -452 90
-145 205 -288 303 -376 23 -21 88 -69 144 -105 141 -93 167 -114 160 -125 -3
-6 -1 -7 5 -3 7 4 26 -6 44 -24 49 -46 197 -137 270 -166 34 -13 86 -36 115
-49 28 -14 57 -25 62 -25 6 0 11 -4 11 -10 0 -15 -10 -13 -112 21 -128 43
-199 78 -298 149 -47 33 -89 60 -95 59 -5 0 -4 -3 3 -6 6 -2 12 -12 12 -20 0
-13 -2 -14 -17 -2 -16 13 -17 12 -4 -3 7 -10 18 -15 23 -12 5 3 36 -19 68 -50
53 -51 186 -126 222 -126 6 0 9 -3 5 -6 -9 -9 -153 43 -242 88 -44 22 -137 78
-207 124 -134 88 -167 106 -100 52 23 -18 41 -37 42 -43 0 -9 107 -84 134 -94
6 -2 35 -22 64 -43 28 -21 52 -36 52 -32 0 4 8 0 18 -8 16 -14 88 -49 141 -69
13 -5 22 -12 19 -14 -6 -6 -71 17 -79 28 -3 4 -10 7 -15 6 -21 -4 -35 2 -28
12 4 6 -1 10 -12 8 -39 -5 -240 106 -338 185 l-48 40 20 -40 c52 -100 157
-169 446 -296 102 -44 141 -71 56 -38 -247 96 -407 176 -460 230 -43 43 -130
200 -145 263 -4 15 -11 27 -16 27 -5 0 -28 12 -52 28 -173 112 -217 175 -242
344 -12 80 -30 139 -80 265 -88 219 -152 399 -185 514 -15 53 -43 135 -63 183
-19 48 -33 85 -30 83 2 -3 19 -30 38 -62z m2152 -71 c-9 -9 -93 43 -89 54 2 8
20 1 49 -19 24 -17 42 -33 40 -35z m-2035 -29 c35 -64 93 -195 113 -255 123
-375 358 -658 815 -981 168 -119 250 -173 364 -236 84 -46 118 -75 105 -87
-13 -14 -368 161 -414 204 -11 10 -58 40 -105 66 -191 105 -377 260 -491 409
-60 78 -187 281 -231 370 -76 152 -218 533 -218 585 0 19 32 -19 62 -75z
m1602 -550 c25 -45 101 -117 154 -144 60 -31 171 -58 312 -76 211 -27 258 -36
277 -51 17 -15 17 -15 -7 -10 -14 4 -103 13 -199 21 -317 27 -451 76 -518 187
-36 60 -56 108 -45 108 4 0 16 -16 26 -35z m-1062 -15 c23 -9 23 -9 -3 -9 -15
-1 -39 -8 -55 -15 -15 -8 -32 -12 -38 -9 -6 4 -2 -3 8 -15 11 -12 24 -22 29
-22 6 0 2 7 -9 15 -10 8 -14 15 -8 15 6 0 17 -7 24 -15 7 -8 9 -15 4 -15 -4 0
5 -13 20 -29 17 -18 35 -27 45 -24 13 4 14 3 1 -5 -10 -8 -19 -7 -30 1 -31 24
-126 103 -150 126 l-25 23 82 -6 c45 -4 93 -11 105 -16z m13 -30 c3 -6 -1 -7
-9 -4 -18 7 -21 14 -7 14 6 0 13 -4 16 -10z m-40 -10 c3 -6 -1 -7 -9 -4 -18 7
-21 14 -7 14 6 0 13 -4 16 -10z m100 -18 c-3 -3 -11 0 -18 7 -9 10 -8 11 6 5
10 -3 15 -9 12 -12z m9 -28 c3 -8 2 -12 -4 -9 -6 3 -10 10 -10 16 0 14 7 11
14 -7z m24 -9 c-3 -3 -9 2 -12 12 -6 14 -5 15 5 6 7 -7 10 -15 7 -18z m32 -38
c0 -4 -16 -15 -35 -24 -30 -14 -38 -15 -60 -3 -30 16 -17 30 28 30 15 0 27 6
28 13 0 6 4 3 9 -8 8 -18 9 -18 9 5 1 20 3 22 11 10 5 -8 10 -18 10 -23z
m1142 -92 c45 -13 137 -33 203 -45 128 -22 240 -55 251 -72 4 -7 2 -8 -5 -4
-6 4 -73 14 -149 21 -161 17 -330 49 -388 74 -38 17 -84 66 -84 89 0 6 20 0
44 -14 24 -14 82 -35 128 -49z m13 -124 c81 -17 144 -27 300 -47 45 -6 47 -7
25 -16 -13 -5 -42 -6 -63 -3 -21 4 -61 8 -90 9 -40 2 -45 1 -22 -5 17 -4 66
-17 110 -28 44 -11 109 -23 145 -27 l65 -7 -72 -13 c-87 -14 -151 -45 -214
-102 -57 -51 -84 -112 -70 -157 9 -29 9 -29 10 12 1 32 8 48 32 73 32 31 97
71 85 51 -9 -15 -2 -14 42 5 20 9 69 24 107 35 67 19 68 19 20 14 -61 -6 -41
5 67 34 42 12 84 24 94 28 12 4 15 3 10 -5 -11 -17 11 -15 115 13 51 13 96 30
101 37 5 9 8 7 8 -8 0 -54 -131 -248 -244 -359 -34 -33 -102 -91 -151 -129
-50 -38 -96 -73 -102 -79 -7 -5 -13 -7 -13 -5 0 3 33 32 73 65 112 93 251 235
270 276 44 91 8 65 -222 -162 -129 -128 -237 -228 -241 -224 -4 4 -12 34 -19
65 -7 32 -24 86 -37 120 -14 35 -41 104 -59 153 -28 75 -156 372 -172 398 -6
11 12 9 112 -12z m-860 -91 c-3 -5 -2 -10 4 -10 5 0 11 5 13 12 3 9 6 9 11 1
4 -7 -5 -15 -23 -22 -31 -10 -39 -4 -18 17 15 15 21 16 13 2z m-2669 -46 c21
-20 31 -31 22 -24 -9 6 -23 8 -29 4 -7 -4 -36 -13 -65 -20 -45 -10 -54 -10
-58 3 -9 24 -7 31 16 53 33 30 69 25 114 -16z m76 -99 c5 -11 -2 -6 -16 10
-14 17 -25 35 -25 40 0 11 25 -20 41 -50z m-189 -49 c25 -31 27 -37 10 -28
-35 19 -73 72 -73 100 l1 27 16 -30 c9 -16 30 -48 46 -69z m3987 65 c-8 -5
-26 -11 -40 -15 -21 -5 -20 -3 5 9 32 15 60 20 35 6z m2440 -56 c43 -14 71
-33 135 -94 44 -43 105 -92 135 -111 127 -76 187 -148 250 -301 28 -66 80
-240 80 -264 0 -5 -19 22 -42 60 -41 68 -135 172 -146 161 -3 -3 2 -14 11 -23
8 -10 54 -75 100 -145 78 -117 117 -194 133 -265 5 -25 1 -23 -39 22 -25 28
-48 48 -50 45 -3 -3 21 -48 54 -100 39 -63 69 -127 89 -190 33 -105 34 -110
20 -110 -5 0 -10 5 -10 11 0 11 -67 101 -194 259 -91 114 -184 250 -261 382
-31 54 -65 103 -77 109 -11 6 -19 7 -17 2 3 -4 40 -78 83 -163 112 -221 146
-269 400 -561 114 -132 114 -133 165 -283 l39 -114 -42 26 c-22 15 -51 34 -63
43 -12 8 -66 89 -119 180 -92 155 -168 269 -180 269 -3 0 15 -28 40 -63 25
-35 54 -83 64 -108 11 -24 43 -92 71 -151 28 -59 51 -110 51 -114 0 -3 -24 -2
-52 1 -66 8 -140 -17 -221 -76 -50 -35 -126 -124 -115 -134 2 -2 28 20 57 50
67 68 140 116 193 125 80 15 311 -58 327 -104 5 -11 11 -74 15 -139 l6 -117
-47 24 c-60 30 -264 76 -337 76 -49 0 -59 -4 -88 -33 -39 -39 -116 -162 -140
-224 -20 -53 -8 -57 16 -5 25 52 120 193 146 217 22 19 22 19 41 -5 38 -50 26
-88 -76 -235 -34 -49 -88 -133 -120 -185 -32 -52 -77 -124 -100 -160 -45 -71
-75 -133 -95 -195 -7 -22 -15 -44 -18 -49 -8 -14 -81 146 -81 179 -1 17 9 47
22 67 45 75 98 148 118 162 11 8 25 31 30 53 41 159 74 383 67 454 -3 36 -3
36 -23 16 -11 -11 -14 -17 -7 -13 23 13 13 -48 -14 -88 -21 -30 -28 -35 -36
-25 -8 11 -9 10 -4 -4 3 -11 -5 -29 -24 -50 l-30 -32 10 28 c6 16 7 34 3 40
-4 7 0 8 12 3 15 -5 16 -4 5 9 -8 9 -10 27 -6 47 4 20 3 29 -3 23 -5 -6 -12
-21 -14 -35 -3 -15 -4 -10 -3 10 2 19 17 105 34 190 17 85 32 171 35 190 4 35
-18 232 -29 260 -10 23 -31 -67 -59 -250 -27 -176 -69 -376 -60 -285 3 28 8
68 11 90 4 28 2 36 -4 26 -8 -11 -11 -9 -14 10 -3 13 -5 -5 -6 -41 -1 -36 -6
-96 -11 -135 -6 -38 -11 -162 -12 -275 0 -179 -2 -201 -14 -175 -7 17 -19 73
-25 125 -16 119 -23 135 -40 85 l-13 -38 -14 34 c-8 19 -25 75 -38 126 -20 78
-23 101 -15 150 6 32 10 69 10 83 0 21 -4 18 -25 -20 -85 -152 -133 -295 -120
-364 11 -63 -14 11 -30 89 -13 63 -14 94 -5 173 12 116 50 311 86 442 32 120
90 319 100 344 12 31 -12 10 -46 -40 -17 -24 -37 -61 -45 -82 -9 -23 -14 -30
-14 -17 -1 18 -3 17 -14 -5 -7 -14 -21 -37 -30 -51 -20 -31 -31 -73 -16 -63 5
3 19 26 31 50 11 25 23 43 25 40 7 -6 -22 -59 -104 -189 -102 -160 -135 -257
-137 -394 0 -57 -4 -103 -8 -103 -7 0 -13 90 -11 168 0 17 -4 32 -9 32 -5 0
-6 10 -3 23 5 16 4 18 -4 8 -8 -12 -17 -10 -58 15 -45 28 -48 32 -49 74 0 55
5 80 18 80 6 0 8 -9 5 -21 -9 -35 24 -18 49 26 13 22 28 39 33 38 6 -2 11 4
11 13 0 8 -5 12 -10 9 -6 -3 -13 1 -17 10 -3 10 0 21 7 25 8 5 9 9 1 14 -6 4
-11 2 -11 -3 0 -6 -7 -11 -15 -11 -12 0 -9 16 14 78 43 113 42 112 54 105 6
-4 7 -1 2 7 -5 8 -1 18 10 27 11 7 16 13 12 13 -3 0 5 25 18 55 14 30 34 106
45 168 13 70 28 122 40 139 26 35 26 46 0 23 -29 -26 -116 -165 -139 -222 -27
-66 -26 -39 3 65 29 104 32 125 46 265 6 60 22 144 36 188 22 69 30 84 66 109
48 35 137 64 257 85 46 9 87 17 89 20 12 11 -158 4 -222 -10 -112 -24 -178
-73 -246 -184 -23 -37 -37 -82 -57 -178 -25 -125 -42 -182 -42 -138 0 11 4 39
9 62 5 23 17 88 25 145 9 58 26 126 41 157 13 30 22 56 20 58 -2 2 -10 -9 -17
-26 -7 -16 -17 -27 -21 -25 -4 3 -5 -3 -2 -13 6 -15 4 -15 -9 2 -21 25 -21 36
-2 29 8 -4 15 -2 15 4 0 6 3 19 6 29 5 17 5 17 -9 0 -8 -10 -18 -14 -21 -9
-13 22 -17 92 -7 145 11 62 7 87 -16 87 -11 0 -13 15 -11 72 l3 72 60 19 c106
33 137 36 310 33 127 -3 184 -8 225 -21z m-6449 -94 c18 -31 38 -63 45 -71 20
-24 20 -42 0 -45 -14 -3 -16 -1 -7 8 22 22 10 30 -13 8 -29 -27 -49 -20 -40
14 3 12 1 26 -4 29 -15 9 -43 -4 -36 -16 4 -6 10 -5 15 3 4 7 11 10 16 6 4 -5
1 -12 -7 -18 -11 -7 -22 -1 -42 23 -36 42 -45 90 -24 123 16 24 18 24 41 9 14
-9 39 -42 56 -73z m359 -46 c0 -3 -4 -5 -10 -5 -5 0 -10 7 -10 16 0 10 -6 14
-15 11 -8 -4 -17 -1 -21 5 -4 7 -3 8 4 4 7 -4 12 -2 12 3 0 6 -4 11 -8 11 -13
0 -73 56 -66 63 5 5 114 -97 114 -108z m1379 -12 c2 -2 0 -3 -6 -3 -5 0 -27
15 -49 34 -38 33 -40 33 -61 16 -22 -17 -22 -17 20 -30 23 -8 46 -17 52 -22 5
-4 17 -8 27 -8 10 0 18 -5 18 -11 0 -6 7 -9 15 -5 8 3 15 0 15 -6 0 -6 3 -9 6
-5 4 3 20 -1 36 -9 72 -37 -7 -16 -117 30 -16 8 -49 21 -72 31 l-41 17 26 23
26 22 -22 18 c-11 10 -19 23 -16 27 4 5 36 -19 72 -53 37 -35 69 -64 71 -66z
m-1659 60 c0 -8 5 -11 10 -8 6 3 10 -2 10 -12 -1 -14 -6 -12 -25 12 -28 33
-33 54 -10 35 8 -7 15 -19 15 -27z m167 15 c-3 -8 -6 -5 -6 6 -1 11 2 17 5 13
3 -3 4 -12 1 -19z m38 -18 c3 -5 2 -10 -4 -10 -5 0 -13 5 -16 10 -3 6 -2 10 4
10 5 0 13 -4 16 -10z m2530 -96 c87 -60 225 -132 324 -170 47 -18 79 -33 71
-34 -26 0 -165 56 -246 99 -74 40 -264 167 -264 176 0 6 35 -16 115 -71z
m-2590 -24 c11 4 56 11 100 15 44 4 86 12 93 17 9 8 11 7 7 -4 -4 -10 1 -14
17 -14 12 1 23 -3 23 -9 0 -5 4 -16 8 -22 5 -8 3 -13 -4 -13 -7 0 -10 -3 -7
-6 4 -3 16 -1 27 6 12 6 20 7 19 3 -2 -4 4 -18 13 -31 13 -19 18 -20 22 -8 4
9 -1 20 -11 25 -9 6 -13 11 -9 11 4 0 32 -18 62 -40 30 -22 59 -40 64 -40 5 0
18 -11 29 -25 11 -13 22 -21 26 -17 4 3 4 -2 0 -11 -3 -10 -3 -17 2 -16 22 4
33 -2 28 -16 -4 -10 -2 -13 8 -10 8 3 24 -5 37 -19 19 -20 21 -28 12 -45 -17
-31 -34 -26 -29 9 3 17 2 30 -2 30 -14 0 -28 -23 -23 -37 5 -12 1 -14 -18 -8
-34 10 -44 22 -31 37 7 9 8 19 1 28 -8 13 -9 12 -7 -2 2 -9 -1 -16 -7 -15 -5
1 -10 11 -11 22 0 11 -4 29 -9 39 -6 13 -5 21 3 24 7 2 9 8 6 13 -8 13 -34 -9
-34 -27 0 -18 -14 -18 -30 1 -8 9 -8 15 -2 15 6 0 12 -3 15 -7 2 -5 2 -2 0 5
-1 8 2 10 9 6 7 -5 8 -3 3 6 -6 9 -4 11 5 5 9 -5 11 -4 6 4 -6 9 -11 9 -22 0
-8 -6 -14 -8 -14 -3 0 5 -4 3 -9 -5 -8 -13 -12 -13 -28 -1 -10 8 -2 -3 16 -23
24 -25 41 -35 53 -31 10 3 18 0 18 -6 0 -6 -4 -8 -10 -5 -17 11 -11 -5 18 -43
32 -42 69 -81 74 -77 2 2 4 -17 6 -42 3 -54 -21 -96 -77 -134 -19 -13 -60 -47
-90 -75 -58 -53 -187 -119 -214 -108 -20 7 -61 99 -52 115 5 8 4 10 -3 5 -28
-17 -85 152 -86 254 l-1 75 -47 -48 c-58 -58 -63 -57 -171 52 -42 43 -79 75
-82 73 -3 -3 -5 0 -5 6 0 7 -6 12 -14 12 -8 0 -16 4 -18 8 -1 4 -18 18 -35 31
-18 12 -33 27 -33 33 0 6 12 32 27 57 l26 45 21 -29 c37 -52 120 -137 149
-151 32 -17 54 -10 36 12 -6 8 -9 18 -5 21 4 4 11 1 16 -7 8 -12 10 -12 10 4
0 14 3 16 13 8 9 -8 15 -4 24 14 6 13 7 22 2 18 -5 -3 -9 0 -9 5 0 6 6 11 13
12 7 0 6 3 -3 6 -19 7 -65 43 -56 43 4 0 24 -9 46 -20 66 -34 98 -21 58 24
-13 13 -34 39 -46 58 -15 20 -5 13 25 -19 38 -41 52 -50 68 -43z m1188 43 c-7
-2 -19 -2 -25 0 -7 3 -2 5 12 5 14 0 19 -2 13 -5z m-49 -14 c-4 -8 1 -9 17 -5
13 3 18 3 12 0 -7 -3 -13 -10 -13 -15 0 -6 5 -7 12 -3 7 4 8 3 4 -5 -4 -6 0
-14 8 -17 9 -3 16 -11 16 -17 0 -6 -16 4 -35 23 -36 35 -43 50 -24 50 5 0 7
-5 3 -11z m117 -16 c13 -16 12 -17 -3 -4 -17 13 -22 21 -14 21 2 0 10 -8 17
-17z m612 -29 c30 -14 35 -23 55 -102 12 -48 22 -90 22 -93 0 -4 -30 23 -67
60 -51 50 -84 73 -131 91 l-63 25 63 17 c81 21 81 21 121 2z m292 -141 c76
-41 163 -92 191 -113 29 -22 72 -50 95 -62 l42 -22 -84 -26 c-75 -24 -179 -77
-236 -120 -40 -31 -92 -111 -113 -177 -12 -37 -26 -72 -30 -77 -9 -9 -53 48
-97 121 -18 31 -26 62 -30 120 -3 43 -10 85 -14 94 -6 13 -2 21 17 34 37 24
74 109 74 170 0 45 -11 107 -27 159 -5 18 -3 18 33 -4 22 -13 102 -56 179 -97z
m-865 37 c0 -5 -2 -10 -4 -10 -3 0 -8 5 -11 10 -3 6 -1 10 4 10 6 0 11 -4 11
-10z m60 -47 c0 -7 -39 17 -46 28 -3 6 5 3 20 -6 14 -10 26 -19 26 -22z m186
-101 c-5 -5 -66 27 -66 34 0 4 8 3 17 0 9 -4 1 8 -18 27 -18 18 -38 31 -43 29
-5 -3 -6 1 -1 7 5 9 23 -3 61 -40 29 -29 52 -55 50 -57z m-1828 -43 c7 -11 10
-24 6 -31 -4 -7 -3 -8 4 -4 6 3 24 -8 40 -26 61 -68 119 -139 151 -185 l34
-48 -59 56 c-32 31 -83 74 -112 96 -29 23 -47 43 -41 45 17 6 20 36 4 42 -8 3
-13 0 -11 -7 1 -7 1 -9 -1 -4 -3 4 -8 5 -13 2 -4 -3 -7 3 -6 12 1 11 -20 25
-69 45 -38 15 -73 34 -77 41 -13 20 -9 61 8 85 15 22 15 22 72 -39 31 -34 63
-70 70 -80z m5929 94 c-3 -10 -5 -2 -5 17 0 19 2 27 5 18 2 -10 2 -26 0 -35z
m-2546 -171 c3 -97 4 -178 4 -180 -1 -1 -15 3 -32 8 l-30 11 14 52 c8 29 17
107 20 175 3 67 9 120 12 116 3 -3 8 -85 12 -182z m-2480 68 c16 -54 5 -100
-37 -143 -20 -20 -40 -37 -44 -37 -4 0 10 18 31 39 41 44 56 89 39 121 -6 11
-8 25 -5 30 3 6 -1 7 -9 4 -9 -3 -16 -10 -16 -15 0 -6 -6 -4 -13 3 -12 10 -12
15 0 26 7 7 13 18 13 24 0 22 30 -16 41 -52z m3824 -87 c-3 -21 -19 -81 -35
-133 -15 -52 -33 -120 -39 -151 -13 -60 -48 -123 -86 -151 -23 -17 -23 -17
-82 60 -33 42 -74 99 -93 126 -39 58 -47 46 100 133 124 72 220 136 220 145 0
5 5 8 11 8 8 0 9 -13 4 -37z m-3974 -136 c-13 -13 -26 -3 -16 12 3 6 11 8 17
5 6 -4 6 -10 -1 -17z m225 -62 c188 -23 415 -95 484 -153 l25 -21 -45 -1 c-44
-2 -45 -2 -15 -12 17 -6 46 -23 65 -38 19 -15 71 -50 115 -78 45 -28 91 -62
104 -76 13 -14 -39 16 -115 68 -120 79 -204 125 -204 111 0 -2 17 -12 38 -21
62 -29 144 -89 197 -143 63 -65 83 -76 192 -101 122 -29 215 -77 295 -152 69
-65 158 -180 158 -204 0 -7 4 -15 8 -18 4 -2 8 75 7 172 0 118 4 184 12 197
11 19 12 19 16 -5 3 -14 13 -61 22 -105 17 -77 34 -345 22 -345 -3 0 -34 6
-69 14 -115 26 -181 29 -249 11 -62 -15 -115 -45 -57 -31 68 16 155 18 240 6
66 -10 86 -16 72 -22 -13 -5 -8 -6 14 -2 17 3 32 1 32 -4 0 -5 24 -10 54 -10
35 0 76 -10 117 -27 121 -51 149 -57 202 -44 26 6 47 14 47 19 0 4 -7 24 -15
43 -29 71 -15 179 30 224 13 12 45 134 45 167 0 23 16 27 47 14 15 -7 30 -13
32 -14 2 -2 -6 -18 -17 -36 -27 -44 -98 -233 -106 -283 -4 -23 -2 -72 4 -109
6 -38 9 -71 6 -73 -2 -3 -38 -8 -78 -13 l-73 -7 83 -2 c76 -1 83 -3 91 -23 10
-27 1 -32 -82 -42 -36 -5 -55 -11 -51 -18 7 -10 61 -7 131 8 28 5 33 3 47 -24
9 -17 16 -41 16 -53 l0 -22 -163 7 c-176 7 -268 -1 -376 -35 -152 -48 -511
-260 -511 -302 0 -5 -25 -39 -55 -75 -38 -46 -61 -86 -73 -125 -10 -31 -22
-54 -26 -50 -4 4 -2 -5 3 -20 6 -16 11 -38 11 -50 0 -12 14 -63 30 -114 17
-50 32 -116 35 -145 3 -29 8 -69 11 -88 8 -49 1 -38 -41 64 -39 94 -62 136
-75 136 -16 0 -45 -57 -55 -110 l-12 -55 -22 75 c-53 175 -66 326 -36 441 19
72 13 86 -25 59 -51 -37 -49 -40 -79 130 -14 76 -21 100 -27 85 -9 -23 -12
-266 -3 -340 3 -27 4 -41 1 -31 -3 14 -6 16 -11 7 -15 -23 -52 79 -63 171 -9
74 -8 110 6 216 17 117 51 270 71 316 6 14 5 17 -4 12 -19 -12 -81 -154 -97
-226 -9 -35 -18 -116 -22 -179 l-7 -115 -30 59 c-16 32 -29 75 -30 96 0 20 -3
35 -6 33 -10 -6 -26 103 -35 219 -6 95 8 343 26 437 5 25 7 46 6 48 -2 1 -24
-57 -50 -130 -73 -212 -78 -288 -36 -543 9 -60 16 -111 15 -113 -9 -10 -89
160 -120 252 -43 128 -52 214 -35 328 15 95 89 315 126 371 13 20 20 37 15 37
-26 0 -112 -165 -156 -300 -34 -104 -41 -112 -48 -63 -30 204 -99 503 -117
503 -27 0 -22 -54 25 -295 32 -159 56 -325 48 -325 -11 0 -76 158 -98 240 -15
52 -33 118 -40 145 -16 57 -155 345 -167 345 -13 0 -9 -90 6 -145 7 -28 31
-93 53 -145 23 -52 55 -135 72 -185 34 -95 125 -282 171 -350 78 -116 36 -82
-133 107 -86 95 -113 135 -144 212 -25 61 -73 275 -73 326 0 14 -7 35 -15 46
-13 17 -14 14 -15 -44 0 -79 24 -231 51 -319 36 -115 75 -180 169 -279 49 -51
111 -124 139 -161 27 -37 59 -76 70 -85 31 -26 25 -42 -6 -20 -16 11 -93 87
-173 169 -170 174 -206 232 -250 406 -31 119 -39 117 -16 -5 32 -167 65 -219
323 -512 77 -87 148 -171 157 -187 16 -27 10 -25 -71 28 -114 73 -139 93 -121
93 8 0 19 -5 26 -12 6 -6 14 -9 17 -6 10 10 -94 70 -107 62 -7 -4 -10 -3 -5 1
10 11 -42 45 -70 45 -12 0 -25 5 -28 10 -4 6 -24 19 -46 30 -31 16 -39 17 -39
6 0 -31 201 -209 240 -212 8 -1 50 -22 93 -47 42 -26 93 -54 112 -63 19 -9 35
-20 35 -25 0 -5 -27 -9 -61 -9 l-61 0 31 -26 c52 -43 140 -240 99 -219 -7 4
-6 1 3 -7 24 -20 39 -75 39 -142 -1 -46 -3 -57 -11 -44 -9 16 -44 50 -154 153
-50 46 -95 75 -118 75 -13 0 2 -29 61 -117 129 -192 154 -235 148 -249 -6 -16
13 -64 25 -64 12 0 41 -86 36 -106 -3 -13 -5 -10 -6 9 -1 28 -21 39 -21 12 0
-8 -7 -15 -16 -15 -8 0 -12 -5 -9 -10 4 -6 10 -8 15 -5 5 3 11 1 14 -4 16 -25
-34 2 -101 55 -79 62 -213 207 -213 230 0 8 -5 14 -12 14 -6 0 -9 3 -5 6 3 3
-18 43 -48 89 -29 46 -74 126 -98 178 -78 164 -159 444 -172 590 l-6 72 51
-95 c59 -108 75 -128 145 -179 85 -63 83 -57 -8 35 -82 82 -94 100 -152 219
-88 182 -111 253 -125 381 -12 100 -11 117 5 180 20 77 121 304 167 376 25 41
43 54 131 97 145 72 223 82 433 56z m2162 -171 c5 -3 -89 -153 -102 -163 -7
-6 -28 -6 -56 0 -69 16 -216 16 -232 1 -11 -11 -10 -14 1 -21 18 -12 237 -25
252 -16 6 4 10 4 8 -1 -38 -85 -53 -114 -59 -114 -5 0 -46 16 -92 36 -46 19
-104 42 -130 50 -27 8 -48 19 -48 23 0 15 83 77 145 109 33 17 94 53 135 80
l75 49 50 -16 c28 -8 51 -16 53 -17z m-1303 6 c-3 -5 -14 -10 -23 -10 -15 0
-15 2 -2 10 20 13 33 13 25 0z m2245 -83 c0 -4 -54 -7 -120 -6 -66 0 -120 4
-119 7 0 4 37 26 82 48 l82 41 37 -41 c21 -22 38 -44 38 -49z m-2330 48 c-47
-25 -70 -31 -70 -17 0 8 82 39 105 41 6 0 -10 -11 -35 -24z m180 15 c0 -5 -7
-10 -15 -10 -8 0 -15 5 -15 10 0 6 7 10 15 10 8 0 15 -4 15 -10z m2243 -169
l46 -58 -47 -11 c-26 -5 -72 -17 -102 -26 -30 -9 -95 -25 -144 -36 -48 -10
-90 -20 -91 -22 -2 -2 49 -3 113 -3 64 0 172 -4 238 -9 l122 -9 26 -91 c15
-50 28 -104 29 -121 3 -36 -8 -39 -221 -56 -174 -15 -281 -5 -353 32 -55 28
-124 101 -195 205 l-57 85 22 23 c48 51 127 79 335 117 111 20 208 37 217 38
9 1 37 -25 62 -58z m-697 -237 c-5 -12 -85 -54 -103 -54 -3 0 9 16 27 36 17
20 36 48 41 63 l11 26 15 -28 c8 -16 12 -35 9 -43z m-872 -115 l-7 -92 29 7
c16 4 46 23 66 43 23 23 42 33 52 30 9 -4 16 -10 16 -15 0 -9 -60 -62 -152
-135 -26 -20 -48 -41 -48 -46 0 -12 56 -31 91 -31 31 0 36 -9 17 -28 -18 -18
-54 -15 -100 9 l-41 21 6 71 c3 40 13 114 23 165 15 77 21 92 37 92 17 0 18
-6 11 -91z m3329 60 c4 -16 3 -18 -9 -8 -16 13 -19 29 -5 29 5 0 11 -9 14 -21z
m-43 -39 c-16 -31 -23 -18 -8 15 7 15 14 23 16 17 2 -6 -2 -21 -8 -32z m15
-36 c-18 -35 -20 -23 -2 24 6 19 13 28 15 20 1 -8 -4 -27 -13 -44z m-2320 5
c6 -25 2 -36 -20 -58 -14 -16 -45 -34 -68 -40 -67 -20 -137 -55 -137 -68 0
-16 12 -16 29 0 9 8 12 8 7 0 -3 -6 1 -13 11 -16 10 -2 8 -3 -4 -2 -37 4 -26
-13 13 -21 34 -6 74 -3 142 11 28 7 32 5 32 -12 0 -11 -9 -28 -21 -39 -18 -16
-40 -20 -135 -22 -113 -4 -114 -4 -125 22 -9 20 -9 37 4 83 8 32 18 75 21 95
l7 36 89 21 c49 12 100 26 112 31 34 13 36 13 43 -21z m1532 -15 c-3 -3 -12
-4 -19 -1 -8 3 -5 6 6 6 11 1 17 -2 13 -5z m-1383 -48 c34 -29 34 -29 -42
-189 l-57 -118 -97 6 c-58 4 -136 2 -193 -6 -86 -10 -98 -10 -113 4 -9 9 -14
19 -11 21 3 3 81 12 173 21 93 9 181 22 196 30 48 25 71 78 85 198 7 63 16 68
59 33z m1593 5 c54 -11 120 -23 146 -26 26 -4 46 -9 43 -12 -7 -7 -227 27
-271 42 -56 19 -33 18 82 -4z m-5157 -157 c-17 -182 -8 -277 42 -459 22 -82
42 -152 45 -155 7 -7 -5 126 -22 245 -29 204 -35 289 -29 364 12 131 19 122
53 -70 76 -425 160 -685 288 -896 19 -32 58 -98 85 -148 28 -49 75 -124 105
-165 29 -41 83 -120 119 -175 37 -55 85 -120 108 -144 33 -36 36 -41 13 -27
-15 9 -51 31 -80 48 -29 16 -65 40 -82 53 -16 12 -46 30 -65 40 -64 32 -130
110 -115 135 3 6 1 10 -6 10 -7 0 -9 3 -6 7 4 3 3 11 -2 17 -5 6 -21 56 -36
111 -15 55 -31 104 -35 109 -16 17 -22 -42 -10 -101 21 -104 75 -194 200 -335
116 -131 206 -256 177 -245 -9 3 -35 11 -59 17 -86 23 -274 92 -317 117 -43
25 -177 136 -214 178 -28 31 -102 190 -131 283 -33 105 -56 281 -56 429 0 112
-25 283 -42 283 -5 0 -8 -83 -8 -185 l0 -186 45 -172 c51 -197 124 -413 153
-454 41 -56 139 -143 231 -202 51 -34 88 -61 81 -61 -30 0 -238 78 -360 135
-136 63 -190 82 -190 67 0 -8 107 -62 122 -62 3 0 58 -25 123 -56 65 -30 138
-63 163 -72 25 -9 44 -21 43 -27 -1 -6 -39 -10 -90 -10 -49 0 -92 -3 -95 -6
-16 -15 77 -54 199 -83 39 -10 97 -28 130 -41 81 -31 177 -45 380 -53 127 -5
169 -10 168 -19 -6 -27 18 -158 48 -263 16 -61 29 -118 28 -128 -1 -9 0 -30 1
-47 1 -26 3 -27 9 -10 5 13 8 -6 8 -50 -1 -38 3 -87 7 -108 9 -40 -4 -80 -34
-104 -20 -16 0 -16 21 0 8 7 21 21 27 32 11 20 11 20 12 -2 0 -27 -40 -60 -92
-73 -64 -18 -162 -10 -348 25 -219 42 -614 105 -658 105 -38 0 -80 -20 -104
-49 -20 -24 -56 -27 -82 -8 -13 10 -16 20 -10 42 8 29 8 29 14 6 7 -29 40 -53
47 -34 2 7 15 27 27 45 16 24 29 32 47 30 18 -1 20 0 10 7 -18 11 35 27 126
37 80 8 72 24 -13 24 -72 0 -165 -28 -199 -60 -29 -28 -35 -25 -35 14 0 34 2
35 117 90 64 31 127 59 140 62 40 11 40 28 0 21 -105 -19 -113 -19 -94 -4 10
8 46 20 79 26 39 7 85 25 127 50 36 22 92 52 124 67 45 23 61 37 77 69 11 23
20 56 20 75 0 18 3 31 6 27 3 -3 3 -43 -1 -88 -5 -52 -10 -77 -16 -68 -7 11
-9 11 -9 1 0 -7 -4 -10 -10 -7 -5 3 -7 0 -5 -7 8 -20 70 -51 91 -45 17 4 17 5
-2 6 -11 0 -21 7 -21 14 0 8 15 11 48 9 l48 -4 7 39 c9 47 50 160 70 191 13
19 23 22 83 22 l69 0 6 -31 c3 -17 6 -52 6 -78 0 -25 4 -62 9 -81 5 -19 12
-52 16 -73 l6 -38 -51 37 c-62 44 -75 66 -59 97 8 15 0 11 -27 -15 -49 -49
-53 -44 135 -157 60 -36 71 -32 71 26 0 44 -25 161 -53 244 l-23 69 20 0 c64
0 95 -13 110 -44 l16 -31 0 42 c0 33 -4 43 -19 48 -18 5 -418 7 -501 2 -33 -2
-35 0 -41 36 -3 20 -9 40 -13 44 -4 4 -51 15 -104 25 -53 10 -167 33 -252 52
l-155 35 95 -2 95 -2 3 36 c3 35 1 38 -69 83 -40 25 -75 46 -79 46 -3 0 -11
-12 -17 -27 -7 -16 -23 -48 -37 -73 -14 -24 -27 -48 -29 -53 -1 -5 -39 1 -84
12 -44 12 -127 26 -184 32 -57 6 -110 16 -118 22 -21 18 -7 84 43 195 24 55
51 125 60 156 l17 56 67 -48 c78 -56 162 -106 168 -99 2 2 -21 21 -52 41 -108
72 -179 129 -175 140 16 52 121 402 157 526 25 85 60 232 80 325 47 231 132
560 143 550 2 -2 -2 -66 -9 -141z m4470 36 c-25 -35 -56 -38 -135 -15 -85 26
-83 30 15 35 52 4 105 7 118 8 l23 2 -21 -30z m-215 -39 c39 -12 77 -24 85
-27 9 -3 -8 -14 -40 -28 -55 -22 -214 -109 -278 -152 l-34 -22 69 -7 c167 -16
469 -58 483 -67 11 -6 3 -8 -25 -4 -131 17 -357 28 -460 23 -128 -6 -437 -62
-516 -93 -48 -19 -144 -78 -154 -94 -3 -6 20 5 53 24 98 58 151 74 286 87 191
18 544 7 666 -21 52 -12 116 -24 143 -27 26 -3 47 -9 47 -14 0 -5 -4 -9 -8 -9
-15 0 -75 -102 -99 -168 -36 -97 -38 -100 -91 -107 -73 -11 -164 -35 -194 -53
-37 -21 -36 -35 0 -16 29 14 142 33 200 34 27 0 32 -4 32 -23 0 -17 -11 -30
-37 -44 -72 -41 -129 -108 -215 -254 -105 -177 -121 -210 -142 -279 -37 -122
-58 -300 -36 -300 6 0 10 13 10 29 0 46 46 213 84 307 69 169 275 480 302 454
13 -12 199 -80 219 -80 10 0 33 11 52 26 57 44 36 4 -35 -65 -37 -36 -116
-113 -176 -171 -177 -172 -282 -311 -330 -438 -66 -173 -116 -442 -116 -621 0
-156 40 -330 95 -413 14 -20 22 -44 19 -52 -3 -7 -1 -17 5 -21 7 -3 8 0 5 9
-3 9 -4 16 -1 16 8 0 50 -70 45 -75 -8 -8 -91 80 -123 130 -48 75 -60 115 -91
290 -24 138 -28 187 -29 357 0 108 -3 191 -7 183 -4 -7 -11 -89 -14 -181 -6
-142 -3 -196 15 -339 12 -93 28 -199 36 -235 8 -36 16 -89 18 -118 l4 -53 -23
38 c-40 64 -160 445 -184 583 -28 159 -23 258 26 470 42 182 56 225 95 304 17
32 28 60 26 62 -7 7 -55 -51 -79 -96 -55 -103 -116 -322 -126 -460 -9 -113 3
-286 27 -396 10 -49 24 -132 31 -184 31 -240 54 -340 79 -340 6 0 12 10 12 23
1 12 5 4 8 -18 4 -22 5 -43 4 -47 -5 -10 -105 54 -168 107 -27 23 -72 57 -100
75 -128 86 -357 265 -395 307 -114 130 -181 253 -239 439 -58 188 -99 302
-100 278 -1 -12 12 -84 28 -160 46 -216 70 -278 167 -427 68 -103 173 -215
414 -442 58 -54 89 -87 70 -73 -19 13 -51 35 -70 49 -38 26 -154 123 -209 175
-20 19 -40 30 -50 27 -12 -4 -13 -3 -3 5 10 7 1 21 -40 60 -29 28 -72 61 -95
74 -35 19 -45 20 -67 10 -23 -10 -25 -15 -16 -32 6 -12 31 -40 56 -63 41 -38
59 -68 32 -51 -7 4 -8 3 -4 -5 4 -6 11 -9 16 -6 12 8 57 -54 74 -103 17 -47 8
-98 -23 -126 -31 -28 -58 -11 -230 146 -118 109 -128 121 -189 243 -120 240
-117 231 -118 407 0 87 -3 160 -6 164 -4 3 -19 -32 -33 -78 -24 -74 -26 -93
-21 -172 10 -148 50 -292 104 -380 26 -41 62 -94 81 -116 27 -33 5 -19 -96 61
-139 111 -185 165 -204 241 -15 62 -9 206 10 217 7 5 11 13 7 19 -15 25 82
223 129 262 13 11 225 62 232 56 1 -1 -7 -35 -18 -76 -32 -125 -23 -217 36
-347 15 -34 38 -72 51 -84 23 -21 22 -18 -12 82 -48 138 -56 262 -25 392 12
48 21 110 21 138 0 53 30 154 75 251 24 53 45 81 45 61 0 -4 9 -78 20 -163 22
-170 37 -212 130 -366 26 -44 51 -93 53 -110 3 -16 4 12 2 63 -4 105 -25 183
-97 361 -54 136 -98 308 -98 390 0 34 9 74 25 113 42 98 150 270 215 339 34
36 75 89 92 119 18 30 54 78 81 105 27 28 65 76 84 106 84 131 148 171 344
215 98 22 323 14 414 -14z m2092 -133 c-3 -8 -6 -5 -6 6 -1 11 2 17 5 13 3 -3
4 -12 1 -19z m-2917 -68 c12 -6 19 -15 15 -18 -4 -4 -64 -10 -133 -13 -76 -4
-163 -16 -217 -29 -96 -23 -147 -45 -85 -36 82 12 283 19 277 9 -4 -6 -41 -25
-84 -43 -208 -88 -291 -127 -346 -163 -79 -51 -185 -158 -278 -282 -42 -55
-84 -107 -94 -115 -39 -32 -85 -122 -135 -265 -29 -83 -59 -163 -67 -180 -20
-40 -64 -98 -70 -92 -5 6 76 238 121 346 19 46 46 97 59 114 36 49 40 58 23
51 -27 -10 -79 -106 -131 -237 -27 -70 -52 -127 -56 -127 -4 0 -3 15 2 32 12
43 10 70 -3 38 -5 -14 -12 -45 -13 -70 -5 -53 -51 -206 -65 -215 -17 -11 -11
41 14 122 13 43 27 94 31 113 4 19 17 53 30 76 32 55 72 227 46 198 -4 -5 -14
-31 -21 -59 -22 -91 -31 -115 -43 -115 -7 0 -27 -53 -46 -118 -44 -149 -96
-281 -119 -298 -9 -7 -32 -14 -50 -14 -37 0 -37 -11 3 135 97 349 132 455 146
433 7 -10 9 -9 9 5 0 24 70 127 86 127 19 0 18 -2 -17 -73 -29 -56 -169 -463
-169 -490 0 -30 24 20 64 133 59 168 110 298 156 395 143 302 136 289 221 380
90 94 217 190 319 241 59 30 254 93 355 114 52 12 238 4 265 -10z m1341 -16
c24 -8 107 -19 184 -25 292 -20 342 -31 389 -90 15 -19 42 -69 61 -112 18 -43
51 -98 72 -123 43 -52 73 -93 129 -178 64 -97 128 -160 236 -232 110 -73 134
-91 106 -81 -38 13 -15 -3 65 -46 45 -24 98 -50 118 -57 l36 -13 -13 -36 c-7
-20 -13 -49 -14 -64 0 -25 -3 -27 -22 -21 -59 18 -179 74 -219 101 -24 16 -71
44 -105 62 -89 47 -133 96 -143 159 -4 28 -4 49 1 46 4 -3 8 -11 8 -19 0 -38
239 -244 270 -233 5 2 -18 25 -51 53 -110 91 -294 298 -360 406 -26 42 -49 62
-49 44 0 -3 32 -62 71 -130 73 -128 83 -161 101 -340 3 -27 8 -31 63 -47 33
-9 76 -17 95 -18 21 -2 27 -4 15 -7 -90 -20 -153 -50 -200 -94 -48 -46 -51
-47 -80 -34 -17 7 -39 20 -50 28 -20 15 -20 16 6 44 45 48 50 65 39 142 -5 38
-21 100 -35 136 -27 72 -121 246 -110 205 21 -84 34 -195 40 -341 l8 -166 -74
-2 c-41 -1 -94 -2 -118 -4 l-45 -2 -24 65 c-22 58 -38 78 -142 180 -93 91
-127 133 -165 200 -26 47 -75 127 -108 178 -49 72 -69 94 -95 103 -42 14 -49
6 -33 -34 31 -76 35 -106 24 -173 -13 -77 -36 -108 -73 -101 -26 5 -172 56
-179 63 -2 2 19 24 48 50 61 55 78 81 62 97 -35 35 6 132 96 227 68 73 87 108
98 185 7 48 12 65 19 65 2 0 23 -7 47 -16z m1656 -16 c-3 -7 -5 -2 -5 12 0 14
2 19 5 13 2 -7 2 -19 0 -25z m-814 -13 c76 -16 161 -52 220 -92 41 -29 44 -45
3 -18 -14 10 -26 14 -26 10 0 -12 34 -65 42 -65 4 0 23 -24 43 -52 38 -57 44
-54 20 8 -14 34 -14 37 -1 20 9 -10 25 -49 36 -85 12 -36 25 -74 31 -83 19
-35 -15 -18 -63 32 -26 27 -48 47 -48 43 0 -18 58 -77 106 -108 64 -41 114
-112 114 -163 0 -30 -4 -35 -46 -54 -37 -16 -51 -18 -68 -9 -11 7 -14 10 -5 7
9 -2 22 0 30 5 10 6 10 9 2 9 -7 0 -13 7 -13 15 0 8 -6 12 -14 9 -18 -7 -253
108 -273 133 -8 10 -11 12 -7 4 8 -15 7 -15 -60 19 -27 14 -68 43 -91 66 -42
42 -96 141 -99 181 0 11 -4 19 -7 17 -6 -4 -40 74 -54 124 -4 13 -1 30 6 39
15 18 103 13 222 -12z m1603 -385 c55 -241 147 -714 170 -875 18 -130 22 -261
14 -566 l-4 -197 -59 42 c-54 38 -64 41 -122 41 -61 0 -66 -2 -104 -39 l-39
-39 7 35 c5 21 3 54 -5 86 -22 86 -132 293 -201 380 -34 41 -85 77 -96 66 -11
-11 -35 43 -87 189 -53 151 -65 218 -15 85 52 -138 60 -155 78 -179 9 -13 23
-33 31 -44 13 -18 14 -16 6 20 -5 22 -18 85 -29 140 -11 55 -32 152 -46 215
-22 96 -26 134 -23 235 3 104 6 127 29 175 50 107 131 159 223 145 47 -8 142
-48 170 -73 19 -17 19 -14 12 146 -5 121 -4 167 5 178 7 8 10 32 7 59 -3 24
-3 47 1 50 9 9 26 -53 77 -275z m-1316 228 c0 -6 -6 -5 -15 2 -8 7 -15 14 -15
16 0 2 7 1 15 -2 8 -4 15 -11 15 -16z m-3407 -44 c27 -10 16 -25 -45 -61 -67
-39 -158 -137 -192 -205 -18 -36 -24 -61 -21 -93 3 -38 1 -44 -20 -49 -31 -8
-98 -114 -150 -239 -23 -56 -50 -119 -59 -140 -9 -21 -43 -67 -75 -101 l-58
-62 -13 -100 c-7 -54 -15 -130 -19 -169 -6 -60 -8 -65 -14 -35 -12 67 -28 187
-37 276 -11 104 4 370 25 454 8 30 13 56 10 58 -10 10 -47 -23 -65 -58 -24
-46 -26 -62 -5 -34 13 17 13 14 0 -25 -8 -24 -24 -97 -35 -163 -22 -127 -22
-285 0 -343 6 -15 9 -29 7 -32 -9 -8 -87 179 -107 257 -75 286 -77 430 -8 510
42 48 179 142 302 206 39 20 86 46 105 58 20 12 53 29 73 39 l38 17 -60 -75
c-80 -101 -126 -187 -172 -319 -55 -157 -46 -194 11 -47 73 188 195 370 292
435 48 32 53 33 132 30 45 -2 102 -6 127 -10 76 -10 33 10 -48 23 l-77 12 70
-4 c39 -2 78 -7 88 -11z m686 -17 c-2 -1 -29 -14 -59 -27 -128 -57 -362 -209
-322 -210 17 0 171 78 298 151 56 32 106 59 111 59 17 0 -124 -126 -172 -154
-27 -16 -79 -51 -115 -76 -36 -26 -112 -72 -170 -103 -58 -30 -127 -72 -154
-91 -28 -19 -52 -34 -54 -32 -11 12 153 250 207 299 76 68 223 141 361 177 55
15 85 18 69 7z m3252 -99 c-39 -79 -165 -237 -179 -224 -5 6 28 51 77 106 30
33 45 56 107 166 42 75 39 42 -5 -48z m-777 -144 c39 -25 145 -91 236 -148 91
-56 165 -109 165 -117 0 -8 -6 -19 -14 -25 -12 -9 -9 -17 20 -44 33 -31 33
-31 4 -12 -16 10 -76 43 -132 72 -105 55 -217 135 -209 148 3 5 -27 37 -65 72
-66 60 -99 100 -82 100 3 0 38 -21 77 -46z m-2640 -51 c-35 -53 -54 -97 -55
-128 -1 -49 -12 -64 -72 -99 -73 -41 -298 -261 -326 -319 -11 -23 -28 -73 -39
-112 -15 -59 -21 -69 -37 -67 -11 2 -24 8 -29 13 -15 13 11 86 59 169 50 85
101 155 91 125 -5 -18 -4 -17 14 4 11 12 17 28 13 34 -3 5 -1 7 4 4 11 -7 28
20 24 38 -2 6 0 7 4 3 8 -8 101 95 155 172 70 100 257 257 194 163z m3220
-186 c54 -109 77 -143 128 -195 35 -34 88 -77 118 -95 30 -18 65 -48 78 -67
12 -18 44 -101 71 -184 72 -224 67 -203 46 -186 -10 8 -35 43 -57 77 -22 34
-64 85 -94 112 -63 58 -192 131 -277 157 l-59 18 7 91 c4 49 10 109 15 132 9
50 -3 126 -31 189 -18 42 -25 84 -14 84 2 0 33 -60 69 -133z m-4996 -12 c-3
-3 -9 2 -12 12 -6 14 -5 15 5 6 7 -7 10 -15 7 -18z m1409 -72 c-36 -37 -76
-82 -91 -100 -31 -37 -136 -203 -136 -214 0 -30 -77 -159 -95 -159 -12 0 30
127 58 176 19 33 45 81 58 109 30 61 136 176 209 225 30 20 57 36 58 34 2 -1
-25 -33 -61 -71z m3453 32 c13 -14 20 -28 17 -32 -4 -3 -7 -1 -7 6 0 7 -4 10
-9 6 -5 -3 -13 0 -16 6 -4 5 -14 8 -22 4 -12 -4 -13 -3 -5 8 7 8 9 17 5 20 -3
4 -2 7 4 7 5 0 20 -11 33 -25z m-1492 -76 c-170 -148 -276 -276 -348 -418 -55
-108 -66 -143 -100 -301 -64 -305 -82 -533 -47 -614 10 -22 15 -48 11 -59 -4
-11 -2 -17 3 -14 10 6 37 -63 28 -71 -7 -7 -42 71 -64 142 -47 151 -37 363 28
631 73 296 150 428 383 649 100 96 154 135 186 136 7 0 -29 -36 -80 -81z m332
37 c0 -2 -45 -33 -99 -70 -126 -85 -235 -195 -316 -316 -129 -192 -150 -273
-150 -565 1 -191 2 -204 28 -281 42 -127 111 -219 232 -311 55 -42 93 -60 215
-105 120 -44 85 -41 -71 7 -123 37 -209 82 -312 164 -153 121 -188 201 -218
491 -6 63 -16 119 -20 125 -14 15 -10 -153 5 -240 35 -193 77 -278 187 -378
128 -117 281 -190 494 -237 106 -22 126 -30 79 -30 -96 1 -289 62 -448 143
-147 74 -230 151 -279 255 -36 78 -48 62 -18 -22 34 -98 84 -154 244 -275 113
-86 43 -51 -97 48 -122 87 -179 147 -205 214 -57 155 -54 395 10 702 34 161
76 246 197 396 123 153 210 217 357 265 59 18 185 33 185 20z m-2072 -43 c-1
-5 -24 -51 -51 -103 -33 -66 -53 -121 -64 -182 l-17 -88 -62 0 c-35 0 -74 -4
-89 -10 -26 -10 -26 -9 -19 28 10 61 49 137 96 188 78 86 222 201 206 167z
m72 -28 c0 -20 -28 -100 -57 -165 -14 -30 -34 -75 -45 -99 -13 -32 -22 -41
-30 -33 -19 19 42 220 63 206 5 -3 9 2 9 12 0 20 41 94 52 94 4 0 8 -7 8 -15z
m1915 -72 c-10 -15 -59 -68 -110 -118 -162 -161 -222 -257 -264 -426 -25 -101
-40 -297 -29 -393 11 -101 59 -196 147 -289 88 -92 175 -150 282 -187 44 -16
82 -30 83 -32 2 -1 6 -20 10 -41 l7 -38 -38 17 c-21 9 -84 35 -141 59 -123 52
-167 80 -247 160 -65 64 -111 148 -140 251 -22 79 -31 327 -16 434 31 208 143
402 316 546 48 40 146 96 154 88 2 -2 -4 -16 -14 -31z m-4024 -85 c17 -33 28
-62 26 -64 -2 -3 -10 9 -17 25 -6 16 -23 44 -36 62 -25 34 -31 55 -14 44 6 -4
24 -34 41 -67z m5766 30 c-3 -8 -6 -5 -6 6 -1 11 2 17 5 13 3 -3 4 -12 1 -19z
m-582 -60 c43 -11 94 -26 112 -33 18 -8 59 -21 93 -29 33 -9 79 -25 102 -37
66 -34 180 -121 235 -181 137 -147 162 -176 187 -215 14 -24 26 -44 26 -46 0
-2 -57 54 -127 125 -160 162 -324 274 -429 294 -36 7 -50 0 -146 -63 -37 -24
-89 -51 -115 -60 -54 -18 -108 -51 -168 -101 -22 -18 -74 -50 -115 -70 -68
-33 -84 -37 -175 -40 -140 -5 -189 13 -225 85 -14 28 -29 51 -34 50 -4 -2 -14
-19 -21 -39 -19 -56 -72 -133 -100 -146 -22 -10 -27 -9 -41 14 -27 41 -30 116
-6 182 12 31 24 77 28 102 15 98 62 154 139 164 166 21 167 21 237 -18 36 -20
72 -36 81 -36 11 0 17 -8 17 -25 0 -44 24 -34 136 60 122 103 136 106 309 63z
m-867 -22 c-6 -12 -19 -31 -30 -43 -11 -12 -30 -50 -43 -84 -22 -62 -23 -63
-71 -74 -95 -22 -176 -90 -248 -211 -56 -95 -86 -185 -92 -279 -2 -38 -1 -64
2 -57 3 6 11 9 16 6 7 -4 8 -2 4 4 -4 7 -4 18 1 25 4 6 13 35 19 62 9 40 12
44 13 20 2 -50 -19 -196 -36 -258 -27 -96 -51 -87 -98 36 -30 82 -31 101 -5
203 19 75 169 396 228 487 35 53 106 102 230 157 108 47 132 49 110 6z m-4060
-29 c17 -30 44 -67 61 -83 17 -16 115 -72 218 -125 187 -96 189 -98 270 -187
74 -81 83 -97 102 -163 12 -41 31 -94 42 -118 11 -24 18 -45 16 -47 -2 -2 -34
-11 -73 -19 -72 -17 -602 -39 -616 -26 -13 12 -58 277 -64 380 -6 93 3 441 11
441 2 0 17 -24 33 -53z m5549 11 c-3 -8 -6 -5 -6 6 -1 11 2 17 5 13 3 -3 4
-12 1 -19z m-5767 -18 c0 -5 -2 -10 -4 -10 -3 0 -8 5 -11 10 -3 6 -1 10 4 10
6 0 11 -4 11 -10z m17 -50 l11 -30 -26 14 c-15 7 -34 16 -42 20 -8 3 -2 4 13
2 21 -2 27 0 23 10 -3 8 -2 14 2 14 4 0 13 -13 19 -30z m1743 -148 c-77 -54
-149 -151 -202 -274 -30 -68 -32 -81 -32 -193 -1 -171 15 -205 182 -365 68
-66 123 -123 120 -125 -4 -4 -20 3 -135 58 -24 11 -75 52 -115 91 -40 39 -65
59 -55 44 23 -37 21 -49 -4 -18 -31 39 -91 160 -105 215 -20 72 -16 177 10
280 21 84 25 91 57 107 19 10 27 18 19 18 -30 0 -76 -38 -97 -81 -31 -63 -48
-203 -34 -283 22 -128 53 -204 136 -331 l20 -30 -27 18 c-78 49 -82 49 -35 2
26 -26 46 -50 44 -52 -7 -6 -57 19 -57 29 0 4 -5 8 -11 8 -28 0 -156 115 -179
160 -21 41 -45 154 -55 249 -8 85 -23 151 -41 179 -29 45 -51 13 -33 -50 5
-22 23 -115 39 -206 26 -150 33 -176 74 -254 40 -78 43 -88 25 -88 -48 0 -123
103 -180 250 -22 56 -24 33 -4 -61 27 -126 62 -185 158 -260 27 -22 46 -39 43
-39 -8 0 -196 107 -217 123 -27 21 -59 80 -59 110 0 15 9 60 20 99 13 46 20
104 20 158 0 186 76 363 182 427 89 54 214 84 344 84 62 0 125 4 140 9 16 4
38 8 49 9 18 0 18 -2 -5 -17z m2395 -27 c-17 -26 -25 -51 -25 -81 0 -55 36
-151 61 -165 36 -19 85 8 120 66 l19 30 0 -30 c0 -37 -30 -104 -58 -128 -33
-30 -90 -32 -142 -5 -64 33 -105 115 -105 210 0 60 3 71 27 94 21 22 115 58
126 49 2 -1 -8 -20 -23 -40z m2473 -450 c22 -44 46 -98 53 -120 14 -41 17
-203 5 -223 -4 -8 -26 11 -58 49 l-51 61 14 55 c11 48 10 69 -4 157 -10 55
-17 105 -17 111 0 18 18 -9 58 -90z m-2736 45 c-2 -7 5 -22 15 -33 10 -11 13
-17 6 -13 -7 3 -21 20 -33 35 -18 26 -18 29 -3 26 10 -1 17 -8 15 -15z m84
-87 c16 -9 41 -22 57 -30 34 -18 35 -26 2 -13 -42 16 -105 60 -105 73 0 9 2 9
9 -1 4 -7 21 -20 37 -29z m-1 19 c-3 -3 -11 0 -18 7 -9 10 -8 11 6 5 10 -3 15
-9 12 -12z m2478 -193 c33 -17 87 -56 119 -87 77 -73 231 -265 303 -377 32
-49 85 -119 118 -154 86 -92 104 -146 56 -171 -25 -14 -24 -15 -57 39 -46 74
-204 195 -202 154 1 -5 22 -23 49 -42 95 -68 150 -175 102 -201 -33 -17 -39
-12 -56 46 -26 90 -144 204 -180 174 -10 -8 -1 -23 39 -63 56 -56 102 -152 91
-188 -8 -24 -50 -53 -65 -44 -5 3 -10 23 -10 43 0 64 -18 105 -62 145 -38 33
-118 81 -125 74 -1 -2 21 -28 49 -58 87 -92 115 -187 62 -211 -30 -14 -44 0
-44 42 -1 56 -91 200 -125 200 -8 0 -20 9 -28 20 -19 28 -95 81 -101 71 -3 -4
33 -42 78 -84 99 -90 129 -143 129 -225 0 -62 -18 -85 -63 -80 -24 3 -25 7
-30 78 -4 57 -12 87 -33 124 -21 38 -25 51 -15 58 10 6 10 8 1 8 -7 0 -27 16
-44 35 -52 57 -199 144 -199 117 0 -5 29 -37 64 -70 l64 -62 -74 0 c-67 0 -77
-3 -106 -29 -32 -28 -32 -29 -14 -56 l18 -27 19 30 c23 39 72 65 126 66 52 1
94 -35 129 -109 41 -86 38 -91 -61 -87 -73 3 -88 1 -114 -17 -33 -24 -41 -26
-41 -9 0 6 -21 39 -46 72 -102 137 -167 251 -178 316 -5 33 -5 32 10 -8 22
-60 26 -48 7 20 -27 97 7 175 87 199 44 13 44 29 -1 29 -16 0 -29 5 -29 10 0
6 5 10 11 10 5 0 15 14 20 30 6 17 15 30 20 30 6 0 5 -8 -1 -19 -17 -34 -11
-37 11 -6 19 29 41 73 43 86 3 23 103 179 120 188 31 16 90 4 159 -30z m-4268
-40 c11 -17 -1 -21 -15 -4 -8 9 -8 15 -2 15 6 0 14 -5 17 -11z m261 -213 c40
-41 70 -77 66 -80 -3 -3 0 -6 5 -6 14 0 11 -26 -4 -41 -21 -21 -84 26 -88 65
-2 13 -15 35 -29 51 -14 15 -24 30 -21 33 3 3 12 -3 20 -14 8 -10 14 -14 14
-9 0 16 -25 45 -33 38 -4 -4 -4 1 0 11 5 14 4 17 -4 12 -7 -4 -12 -2 -12 3 0
21 14 10 86 -63z m-755 -55 c74 -25 146 -63 193 -100 50 -40 77 -46 114 -27
34 18 69 22 37 4 -69 -37 -85 -55 -117 -128 -52 -121 -151 -255 -162 -219 -2
8 -8 27 -13 42 -6 21 -26 38 -81 67 -39 22 -72 37 -72 34 0 -3 11 -22 25 -42
30 -44 31 -52 7 -52 -10 0 -44 -23 -77 -52 -32 -29 -56 -46 -53 -38 3 8 -5 22
-17 30 -59 40 -165 152 -165 174 0 4 21 29 46 56 91 98 226 116 407 57 53 -18
97 -30 97 -26 0 8 -11 13 -119 50 -146 50 -263 37 -378 -43 -58 -39 -93 -113
-102 -218 l-7 -75 -12 53 c-16 72 -15 187 2 220 15 29 65 78 106 105 13 10 19
17 13 17 -22 0 -106 -66 -137 -108 -28 -40 -31 -51 -31 -115 0 -40 3 -92 7
-117 l7 -45 -17 35 c-12 25 -16 61 -16 125 0 108 15 144 96 222 115 111 290
159 419 114z m405 -177 c31 -75 8 -178 -66 -293 -22 -34 -52 -85 -66 -113 -36
-71 -66 -98 -106 -97 -27 1 -29 2 -8 6 33 6 60 31 77 71 7 18 29 54 48 81 19
26 32 50 30 53 -3 3 1 11 10 18 8 7 15 22 15 34 0 16 2 18 9 7 7 -10 11 -8 16
10 4 13 13 27 19 31 14 9 4 18 -57 52 -46 25 -67 27 -67 4 0 -15 -83 -138 -93
-138 -5 0 -4 -7 3 -15 7 -9 10 -18 6 -22 -3 -3 -6 -1 -6 5 0 7 -4 12 -10 12
-5 0 -10 -10 -10 -22 0 -19 -2 -20 -10 -8 -8 12 -10 12 -10 -5 0 -10 -7 -39
-16 -62 -14 -35 -23 -45 -53 -53 -20 -5 -45 -10 -57 -10 -23 0 -155 88 -162
108 -5 16 65 81 96 89 28 7 94 -21 127 -55 14 -14 27 -23 28 -21 2 2 24 33 50
68 26 34 63 96 82 137 l35 74 41 -25 c22 -14 45 -23 51 -19 7 5 9 2 6 -8 -4
-8 -2 -21 4 -29 7 -11 8 -9 4 6 -5 16 -3 16 14 -5 14 -18 20 -21 20 -9 0 26
-45 70 -59 56 -8 -8 -11 -7 -11 4 0 8 -14 20 -30 28 -17 7 -29 18 -27 25 5 17
98 77 109 70 6 -4 16 -21 24 -40z m467 4 c24 -32 46 -195 49 -362 3 -146 -16
-213 -93 -332 -54 -83 -79 -97 -30 -17 43 70 60 114 69 182 l8 59 -73 4 c-41
3 -79 11 -86 17 -9 10 6 11 71 5 l82 -7 0 72 0 71 -52 -2 c-51 -1 -51 -2 -10
-5 23 -2 42 -8 42 -13 0 -19 -13 -40 -21 -34 -5 3 -9 0 -9 -6 0 -19 -120 -4
-136 17 -8 11 -9 22 -3 28 5 5 9 18 9 29 0 20 0 20 14 0 9 -12 6 11 -10 65
-13 46 -24 105 -24 131 0 42 4 52 31 74 17 14 34 26 38 26 5 0 11 -27 14 -60
7 -64 28 -123 54 -152 29 -33 34 -25 49 85 4 32 3 47 -5 47 -6 0 -11 -6 -11
-14 0 -21 -21 -31 -31 -15 -5 8 -16 37 -24 64 -15 48 -15 51 5 67 26 21 56 12
83 -24z m-269 -80 c2 -7 10 -81 19 -164 13 -129 18 -155 36 -173 43 -43 25
-116 -69 -276 -18 -30 -30 -64 -30 -86 0 -33 -23 -69 -35 -57 -12 12 38 139
80 203 51 79 58 98 53 146 -3 34 -3 34 -58 37 -103 4 -100 2 -100 87 l0 75 51
0 51 0 -7 53 c-9 67 -27 119 -41 124 -9 3 -8 -7 2 -34 7 -21 13 -57 14 -79 0
-43 -12 -53 -62 -54 -21 0 -38 55 -38 123 0 43 3 49 33 67 36 22 96 27 101 8z
m422 -118 c2 0 4 -6 4 -14 0 -14 -29 -26 -62 -26 -14 0 -18 8 -18 35 l0 35 36
-15 c20 -8 38 -15 40 -15z m-1409 -32 c-2 -13 -4 -5 -4 17 -1 22 1 32 4 23 2
-10 2 -28 0 -40z m1423 -17 c0 -12 -21 -28 -54 -40 -25 -10 -27 -9 -24 11 2
16 12 25 33 29 45 10 45 10 45 0z m-760 -86 c0 -5 -5 -3 -10 5 -5 8 -10 20
-10 25 0 6 5 3 10 -5 5 -8 10 -19 10 -25z m-117 -20 c-3 -9 -8 -14 -10 -11 -3
3 -2 9 2 15 9 16 15 13 8 -4z m-311 -110 c22 -46 24 -54 9 -35 -12 14 -30 49
-41 78 -21 56 -26 84 -7 42 6 -14 24 -52 39 -85z m658 -7 c0 -5 -9 -21 -20
-35 -11 -14 -17 -30 -13 -36 3 -5 1 -7 -4 -4 -14 9 -47 -29 -38 -43 3 -6 3 -9
-2 -8 -10 3 -59 -32 -109 -78 -23 -22 -34 -27 -34 -17 0 24 37 72 123 160 74
75 97 90 97 61z m110 -72 c0 -2 -8 -10 -17 -17 -16 -13 -17 -12 -4 4 13 16 21
21 21 13z m-130 -30 c0 -2 -6 -9 -14 -15 -11 -9 -16 -9 -22 0 -4 7 -3 9 4 5 6
-3 13 -2 17 4 6 10 15 14 15 6z"/>
<path d="M4174 8662 c4 -32 27 -126 51 -207 25 -82 45 -160 45 -173 0 -45 33
-167 67 -246 19 -44 47 -125 62 -180 39 -138 49 -159 122 -256 36 -47 72 -96
81 -110 8 -14 25 -36 37 -50 12 -14 39 -45 59 -69 56 -67 80 -91 92 -91 28 0
-7 54 -135 208 -168 201 -199 251 -215 349 -7 43 -28 123 -47 178 -19 55 -41
127 -50 160 -8 33 -28 101 -45 150 -25 78 -82 281 -102 368 -3 15 -11 27 -17
27 -8 0 -10 -18 -5 -58z"/>
<path d="M4400 8207 c0 -11 50 -149 65 -178 46 -93 140 -249 144 -238 2 6 -42
103 -98 215 -86 174 -111 219 -111 201z"/>
<path d="M5284 8088 c-23 -71 45 -528 78 -528 5 0 8 48 8 108 0 107 -14 220
-44 362 -9 41 -16 76 -16 78 0 1 -4 2 -9 2 -5 0 -13 -10 -17 -22z"/>
<path d="M5371 7984 c0 -11 3 -14 6 -6 3 7 2 16 -1 19 -3 4 -6 -2 -5 -13z"/>
<path d="M5440 7729 c0 -9 7 -22 15 -29 19 -16 19 0 0 26 -12 16 -14 16 -15 3z"/>
<path d="M5250 7559 c0 -35 36 -191 39 -168 2 14 -29 202 -34 207 -3 3 -5 -15
-5 -39z"/>
<path d="M6614 7349 c-86 -96 -410 -351 -512 -403 -54 -28 -30 -29 40 -3 88
33 131 57 219 116 187 128 266 207 284 284 9 32 -5 35 -31 6z"/>
<path d="M5611 7113 c0 -39 3 -74 8 -77 4 -3 11 -24 15 -47 4 -23 9 -39 13
-35 3 3 -1 43 -10 88 -9 46 -18 97 -20 113 -2 17 -5 -2 -6 -42z"/>
<path d="M5275 7095 c17 -28 62 -75 73 -75 6 0 -19 29 -62 75 l-29 30 18 -30z"/>
<path d="M6585 7044 c-263 -95 -553 -179 -650 -187 -58 -5 -58 -8 -12 -86 40
-67 65 -77 131 -56 77 25 248 108 237 114 -5 4 46 26 114 49 155 53 218 81
272 121 42 30 80 86 65 94 -4 3 -74 -19 -157 -49z m-615 -299 c7 -8 16 -13 20
-10 5 3 11 1 15 -4 9 -15 -37 -3 -54 14 -8 8 -10 15 -4 15 6 0 16 -7 23 -15z"/>
<path d="M5975 6900 c-28 -7 -28 -8 -5 -9 14 0 32 4 40 9 17 11 8 11 -35 0z"/>
<path d="M5662 6880 c0 -14 2 -19 5 -12 2 6 2 18 0 25 -3 6 -5 1 -5 -13z"/>
<path d="M6815 6872 c-11 -15 -37 -52 -57 -82 -95 -142 -140 -203 -223 -304
-50 -59 -125 -154 -168 -210 -102 -132 -205 -252 -256 -298 -72 -65 -43 -79
52 -25 112 63 319 277 475 492 118 164 226 391 206 435 -8 17 -10 17 -29 -8z"/>
<path d="M6855 6346 c-27 -14 -138 -84 -245 -156 -107 -72 -269 -180 -360
-240 -183 -122 -209 -151 -189 -208 6 -18 14 -32 18 -32 15 0 86 57 126 101
40 43 168 152 231 195 16 12 91 62 165 111 167 112 333 232 337 244 6 16 -32
9 -83 -15z"/>
<path d="M6200 6215 c-41 -31 -150 -75 -185 -75 -22 0 -18 -28 5 -35 24 -8
113 17 156 44 37 22 101 101 82 100 -7 0 -33 -16 -58 -34z"/>
<path d="M6989 5906 c-2 -2 -80 -9 -174 -16 -93 -7 -176 -16 -184 -20 -22 -12
125 -23 232 -18 96 5 167 24 175 46 3 11 -38 18 -49 8z"/>
<path d="M6834 5635 c-29 -8 -130 -48 -225 -90 -96 -43 -221 -93 -279 -112
-58 -19 -132 -48 -165 -64 -59 -28 -153 -104 -142 -115 2 -3 36 10 73 29 66
32 200 80 406 145 53 17 152 56 220 86 133 58 223 86 282 86 29 0 36 4 36 19
0 33 -111 42 -206 16z"/>
<path d="M6935 5416 c-49 -44 -106 -94 -125 -109 l-35 -28 62 30 c34 17 85 54
113 82 51 51 86 97 79 103 -2 2 -44 -33 -94 -78z"/>
<path d="M6935 5224 c-75 -28 -230 -62 -308 -69 -58 -6 -76 -10 -67 -19 15
-15 228 -13 302 3 68 15 122 48 126 79 4 25 1 26 -53 6z"/>
<path d="M6120 5093 c-69 -11 -130 -35 -141 -54 -6 -11 -8 -23 -5 -26 3 -3 54
1 113 10 60 9 162 19 228 22 66 4 149 10 185 14 59 7 61 8 20 10 -25 0 -94 8
-155 16 -106 14 -192 17 -245 8z"/>
<path d="M6541 4719 c-1 -43 48 -75 189 -119 47 -15 109 -37 138 -49 28 -11
52 -19 52 -16 0 6 -37 22 -192 85 -134 54 -166 72 -178 103 -8 21 -9 21 -9 -4z"/>
<path d="M2702 7545 c0 -16 2 -22 5 -12 2 9 2 23 0 30 -3 6 -5 -1 -5 -18z"/>
<path d="M2763 7295 c3 -44 13 -98 21 -120 l16 -40 -5 35 c-2 19 -10 71 -16
115 -14 105 -23 111 -16 10z"/>
<path d="M2702 7290 c0 -14 2 -19 5 -12 2 6 2 18 0 25 -3 6 -5 1 -5 -13z"/>
<path d="M2423 6400 c0 -25 2 -35 4 -22 2 12 2 32 0 45 -2 12 -4 2 -4 -23z"/>
<path d="M2412 6260 c0 -14 2 -19 5 -12 2 6 2 18 0 25 -3 6 -5 1 -5 -13z"/>
<path d="M2755 6160 c-4 -6 -1 -18 6 -26 10 -12 14 -12 20 -2 13 20 10 28 -8
21 -11 -4 -14 -3 -9 5 4 7 5 12 2 12 -3 0 -8 -5 -11 -10z"/>
<path d="M2650 6055 c7 -8 17 -15 22 -15 6 0 5 7 -2 15 -7 8 -17 15 -22 15 -6
0 -5 -7 2 -15z"/>
<path d="M2563 5925 c0 -8 4 -12 9 -9 5 3 6 10 3 15 -9 13 -12 11 -12 -6z"/>
<path d="M2646 5784 c-9 -24 -8 -27 14 -21 11 3 20 1 20 -4 0 -5 8 -9 17 -9
15 0 14 2 -3 19 -13 13 -23 16 -32 8 -9 -7 -11 -6 -6 7 3 9 4 16 1 16 -3 0 -8
-7 -11 -16z"/>
<path d="M2716 5728 c3 -5 10 -6 15 -3 13 9 11 12 -6 12 -8 0 -12 -4 -9 -9z"/>
<path d="M2602 5650 c0 -14 2 -19 5 -12 2 6 2 18 0 25 -3 6 -5 1 -5 -13z"/>
<path d="M3098 5103 c7 -3 16 -2 19 1 4 3 -2 6 -13 5 -11 0 -14 -3 -6 -6z"/>
<path d="M3680 6035 c7 -9 15 -13 17 -11 7 7 -7 26 -19 26 -6 0 -6 -6 2 -15z"/>
<path d="M4050 5806 c0 -2 7 -7 16 -10 8 -3 12 -2 9 4 -6 10 -25 14 -25 6z"/>
<path d="M4266 5766 c10 -8 21 -12 24 -10 5 6 -21 24 -34 24 -6 0 -1 -6 10
-14z"/>
<path d="M3733 6603 c9 -2 25 -2 35 0 9 3 1 5 -18 5 -19 0 -27 -2 -17 -5z"/>
<path d="M4970 6340 c-10 -6 -2 -7 25 -3 49 7 58 13 19 13 -16 0 -36 -5 -44
-10z"/>
<path d="M5058 6343 c6 -2 18 -2 25 0 6 3 1 5 -13 5 -14 0 -19 -2 -12 -5z"/>
<path d="M5484 6018 l-29 -33 33 29 c30 28 37 36 29 36 -2 0 -16 -15 -33 -32z"/>
<path d="M5368 5918 c-43 -34 -76 -64 -73 -66 4 -4 47 29 123 95 61 54 33 37
-50 -29z"/>
<path d="M5261 5841 c-8 -5 -21 -7 -30 -4 -13 4 -14 3 -2 -5 14 -10 51 0 51
13 0 7 -3 6 -19 -4z"/>
<path d="M5267 5815 c-15 -14 -24 -25 -19 -25 5 0 19 11 32 25 30 32 23 32
-13 0z"/>
<path d="M5155 5770 c3 -5 8 -10 11 -10 2 0 4 5 4 10 0 6 -5 10 -11 10 -5 0
-7 -4 -4 -10z"/>
<path d="M7322 5340 c0 -14 2 -19 5 -12 2 6 2 18 0 25 -3 6 -5 1 -5 -13z"/>
<path d="M7411 5064 c0 -11 3 -14 6 -6 3 7 2 16 -1 19 -3 4 -6 -2 -5 -13z"/>
<path d="M7320 5033 c0 -15 18 -35 23 -27 3 5 -1 15 -9 22 -8 7 -14 9 -14 5z"/>
<path d="M7311 4993 c-1 -12 -7 -24 -13 -26 -10 -4 -10 -6 0 -6 15 -1 26 23
19 41 -3 7 -6 3 -6 -9z"/>
<path d="M8180 5006 c0 -2 8 -10 18 -17 15 -13 16 -12 3 4 -13 16 -21 21 -21
13z"/>
<path d="M7381 4973 c-1 -6 -4 -20 -7 -30 -5 -17 -5 -17 6 0 6 10 9 23 6 30
-3 9 -5 9 -5 0z"/>
<path d="M7272 4868 c-14 -14 -16 -28 -3 -28 5 0 11 9 14 20 6 23 5 24 -11 8z"/>
<path d="M7326 4835 c-3 -9 -6 -22 -5 -28 0 -7 5 -1 10 12 5 13 8 26 5 28 -2
2 -6 -3 -10 -12z"/>
<path d="M7240 4830 c0 -5 5 -10 11 -10 5 0 7 5 4 10 -3 6 -8 10 -11 10 -2 0
-4 -4 -4 -10z"/>
<path d="M7255 4679 c-4 -6 -5 -12 -2 -15 2 -3 7 2 10 11 7 17 1 20 -8 4z"/>
<path d="M7511 4654 c0 -11 3 -14 6 -6 3 7 2 16 -1 19 -3 4 -6 -2 -5 -13z"/>
<path d="M7225 4620 c-4 -6 -11 -7 -17 -4 -7 4 -8 2 -4 -4 10 -16 23 -15 30 3
6 17 0 20 -9 5z"/>
<path d="M7501 4604 c0 -11 3 -14 6 -6 3 7 2 16 -1 19 -3 4 -6 -2 -5 -13z"/>
<path d="M7286 4593 c-6 -14 -5 -15 5 -6 7 7 10 15 7 18 -3 3 -9 -2 -12 -12z"/>
<path d="M7186 4583 c-4 -9 -4 -18 -1 -21 3 -3 5 0 5 8 0 10 3 10 15 0 22 -18
25 -8 4 12 -16 15 -18 15 -23 1z"/>
<path d="M7478 4575 c-4 -16 -5 -52 -3 -80 4 -42 3 -45 -5 -20 -9 29 -9 28 -5
-8 2 -20 0 -35 -5 -32 -4 3 -6 -4 -3 -15 3 -11 0 -27 -7 -35 -7 -9 -10 -18 -7
-21 23 -23 64 155 48 211 l-8 30 -5 -30z"/>
<path d="M7285 4559 c-4 -6 -5 -12 -2 -15 2 -3 7 2 10 11 7 17 1 20 -8 4z"/>
<path d="M7182 4471 c-11 -7 -11 -9 0 -14 9 -3 15 1 15 9 0 8 -1 14 -1 14 -1
0 -7 -4 -14 -9z"/>
<path d="M7246 4467 c3 -10 9 -15 12 -12 3 3 0 11 -7 18 -10 9 -11 8 -5 -6z"/>
<path d="M7230 4428 c0 -23 3 -29 9 -19 8 12 4 51 -5 51 -2 0 -4 -15 -4 -32z"/>
<path d="M7662 4410 c0 -19 2 -27 5 -17 2 9 2 25 0 35 -3 9 -5 1 -5 -18z"/>
<path d="M7652 4228 c-1 -81 1 -149 6 -151 4 -3 6 41 4 96 -4 184 -8 204 -10
55z"/>
<path d="M7882 4280 c0 -14 2 -19 5 -12 2 6 2 18 0 25 -3 6 -5 1 -5 -13z"/>
<path d="M7943 4249 c4 -13 1 -19 -6 -16 -7 3 -13 -6 -13 -19 l-2 -24 18 22
c15 19 17 58 3 58 -3 0 -3 -9 0 -21z"/>
<path d="M7886 3727 c-57 -99 -76 -137 -68 -137 8 0 96 160 90 165 -2 2 -12
-11 -22 -28z"/>
<path d="M1320 5960 c0 -5 5 -10 11 -10 5 0 7 5 4 10 -3 6 -8 10 -11 10 -2 0
-4 -4 -4 -10z"/>
<path d="M1300 5930 c0 -5 5 -10 10 -10 6 0 10 5 10 10 0 6 -4 10 -10 10 -5 0
-10 -4 -10 -10z"/>
<path d="M1750 5905 c-7 -9 -8 -15 -2 -15 5 0 12 7 16 15 3 8 4 15 2 15 -2 0
-9 -7 -16 -15z"/>
<path d="M1688 5863 c6 -2 18 -2 25 0 6 3 1 5 -13 5 -14 0 -19 -2 -12 -5z"/>
<path d="M1750 5850 c8 -5 20 -10 25 -10 6 0 3 5 -5 10 -8 5 -19 10 -25 10 -5
0 -3 -5 5 -10z"/>
<path d="M1799 5851 c7 -5 11 -14 7 -20 -5 -7 -1 -9 8 -5 20 8 20 20 0 28 -23
9 -31 7 -15 -3z"/>
<path d="M1830 5811 c0 -5 5 -13 10 -16 6 -3 10 -2 10 4 0 5 -4 13 -10 16 -5
3 -10 2 -10 -4z"/>
<path d="M1865 5810 c3 -5 11 -10 16 -10 6 0 7 5 4 10 -3 6 -11 10 -16 10 -6
0 -7 -4 -4 -10z"/>
<path d="M1543 5755 c-3 -9 -3 -18 -1 -21 3 -3 8 4 11 16 6 23 -1 27 -10 5z"/>
<path d="M1976 5761 c-4 -6 -2 -11 3 -11 6 0 11 -7 11 -15 0 -8 5 -15 10 -15
6 0 10 -6 10 -14 0 -8 7 -17 16 -20 25 -10 29 -7 9 7 -11 9 -15 19 -10 27 5 8
4 11 -3 6 -6 -4 -17 5 -25 20 -9 17 -17 23 -21 15z"/>
<path d="M2010 5665 c0 -9 5 -15 11 -13 6 2 11 8 11 13 0 5 -5 11 -11 13 -6 2
-11 -4 -11 -13z"/>
<path d="M1650 5285 c0 -5 5 -17 10 -25 5 -8 10 -10 10 -5 0 6 -5 17 -10 25
-5 8 -10 11 -10 5z"/>
<path d="M1291 5501 c-10 -6 -9 -10 3 -14 8 -3 18 -2 21 3 8 13 -9 20 -24 11z"/>
<path d="M2106 5613 c-6 -14 -5 -15 5 -6 7 7 10 15 7 18 -3 3 -9 -2 -12 -12z"/>
<path d="M3551 4150 c-48 -22 -146 -98 -201 -156 -19 -20 -70 -65 -113 -100
-44 -35 -75 -64 -70 -64 12 0 133 77 258 164 151 105 167 110 317 111 70 0
119 3 110 7 -9 4 -26 7 -37 8 -11 0 -42 12 -70 25 -62 31 -133 32 -194 5z"/>
<path d="M2521 4014 c0 -11 3 -14 6 -6 3 7 2 16 -1 19 -3 4 -6 -2 -5 -13z"/>
<path d="M2504 3955 c-3 -8 -4 -20 -2 -27 3 -7 7 -1 10 15 6 29 1 36 -8 12z"/>
<path d="M3041 3687 c-13 -21 -12 -21 5 -5 10 10 16 20 13 22 -3 3 -11 -5 -18
-17z"/>
<path d="M2600 3605 c-2 -39 -3 -39 -10 -10 -7 28 -8 28 -8 5 -2 -29 23 -68
30 -48 2 7 1 31 -3 53 l-6 40 -3 -40z"/>
<path d="M2969 3603 c-13 -16 -12 -17 4 -4 16 13 21 21 13 21 -2 0 -10 -8 -17
-17z"/>
<path d="M2825 3467 c-7 -52 -9 -56 -22 -40 -14 17 -14 17 -7 -2 4 -11 10 -40
14 -65 7 -43 7 -43 9 -9 0 19 6 61 12 93 5 31 8 63 6 69 -2 7 -8 -14 -12 -46z"/>
<path d="M2172 3495 c4 -4 3 -16 -2 -26 -7 -12 -7 -20 0 -24 6 -4 10 -3 9 2
-3 20 2 34 11 28 6 -4 8 -10 6 -14 -3 -3 4 -7 14 -7 15 0 16 3 8 14 -6 7 -21
18 -32 24 -12 6 -18 7 -14 3z"/>
<path d="M2222 3420 c-18 -29 -15 -38 4 -12 9 13 14 25 12 27 -2 2 -9 -5 -16
-15z"/>
<path d="M2235 3390 c3 -5 8 -10 11 -10 2 0 4 5 4 10 0 6 -5 10 -11 10 -5 0
-7 -4 -4 -10z"/>
<path d="M2784 3356 c-3 -8 -4 -25 -2 -38 3 -17 5 -13 9 15 5 38 2 47 -7 23z"/>
<path d="M2140 3251 c0 -6 4 -13 10 -16 6 -3 7 1 4 9 -7 18 -14 21 -14 7z"/>
<path d="M2089 3118 c30 -32 49 -44 60 -40 13 5 13 7 -4 10 -11 2 -38 20 -60
40 -39 36 -39 36 4 -10z"/>
<path d="M2175 3031 c13 -14 17 -13 33 4 9 11 10 14 3 7 -17 -14 -35 -16 -27
-4 3 5 -2 9 -10 9 -13 0 -13 -2 1 -16z"/>
<path d="M1331 3294 c-1 -153 9 -275 22 -267 11 6 1 279 -13 348 -6 29 -8 8
-9 -81z"/>
<path d="M1774 3010 c1 -16 4 -30 7 -30 4 0 14 -21 24 -47 10 -27 30 -73 45
-104 21 -44 24 -58 14 -67 -7 -6 -14 -8 -16 -3 -2 5 -14 12 -28 16 l-25 7 25
-18 c14 -10 28 -23 32 -28 5 -8 8 -7 8 0 0 7 6 14 14 17 10 4 12 -1 9 -16 -3
-16 -2 -18 5 -8 8 11 14 9 31 -8 24 -24 70 -45 80 -36 3 3 0 14 -6 23 -9 16
-6 17 33 17 l44 -1 -22 23 c-24 26 -38 32 -18 8 7 -9 9 -19 5 -23 -4 -4 -10
-1 -12 6 -3 6 -9 9 -15 6 -6 -4 -8 2 -3 17 l6 24 -19 -24 -19 -23 -42 68 c-24
38 -64 105 -89 148 -52 88 -70 103 -68 56z"/>
<path d="M1909 2993 c7 -13 17 -23 23 -23 6 0 8 -3 5 -7 -10 -9 50 -63 70 -63
15 0 14 2 -3 19 -10 10 -20 17 -22 16 -2 -2 -22 16 -44 39 -24 24 -36 32 -29
19z"/>
<path d="M1800 2869 c0 -15 7 -32 15 -39 19 -16 19 -11 0 31 -14 33 -14 33
-15 8z"/>
<path d="M1462 2862 c-20 -6 -17 -10 28 -30 70 -32 96 -25 42 11 -23 15 -43
27 -44 26 -2 -1 -13 -4 -26 -7z"/>
<path d="M1770 2845 c0 -14 4 -25 9 -25 4 0 6 11 3 25 -2 14 -6 25 -8 25 -2 0
-4 -11 -4 -25z"/>
<path d="M1732 2835 c0 -16 2 -22 5 -12 2 9 2 23 0 30 -3 6 -5 -1 -5 -18z"/>
<path d="M1745 2801 c-6 -11 13 -26 22 -17 4 3 1 6 -6 6 -7 0 -9 5 -6 10 3 6
4 10 1 10 -3 0 -7 -4 -11 -9z"/>
<path d="M1837 2796 c-4 -10 -3 -15 3 -11 6 3 10 1 10 -6 0 -7 3 -10 6 -6 3 3
2 13 -4 22 -8 16 -9 16 -15 1z"/>
<path d="M1960 2781 c0 -6 4 -13 10 -16 6 -3 7 1 4 9 -7 18 -14 21 -14 7z"/>
<path d="M1771 2767 c2 -1 13 -9 24 -17 19 -14 19 -14 6 3 -7 9 -18 17 -24 17
-6 0 -8 -1 -6 -3z"/>
<path d="M2137 2373 c-4 -3 -7 -11 -7 -17 0 -7 3 -7 8 0 4 7 18 14 32 17 l25
4 -26 2 c-14 0 -29 -2 -32 -6z"/>
<path d="M2436 2275 c4 -16 11 -37 15 -45 6 -10 7 -4 3 15 -4 17 -11 37 -15
45 -6 10 -7 4 -3 -15z"/>
<path d="M1453 1833 c9 -2 25 -2 35 0 9 3 1 5 -18 5 -19 0 -27 -2 -17 -5z"/>
<path d="M2532 1785 c0 -16 2 -22 5 -12 2 9 2 23 0 30 -3 6 -5 -1 -5 -18z"/>
<path d="M1975 1740 c11 -4 36 -6 55 -4 19 3 49 0 65 -5 29 -9 29 -9 5 -11
-23 -1 -23 -2 -5 -10 11 -5 34 -9 51 -9 16 -1 34 -5 40 -10 32 -31 307 -40
275 -8 -8 8 -14 8 -23 -1 -18 -18 -59 -16 -52 3 4 11 -1 15 -17 16 -14 1 -8 5
16 9 36 6 34 7 -25 9 -36 0 -92 5 -125 11 -84 13 -285 21 -260 10z m205 -20
c0 -5 -12 -10 -27 -9 -25 0 -26 1 -8 9 27 12 35 12 35 0z m57 -16 c-3 -3 -12
-4 -19 -1 -8 3 -5 6 6 6 11 1 17 -2 13 -5z m80 -10 c-3 -3 -12 -4 -19 -1 -8 3
-5 6 6 6 11 1 17 -2 13 -5z"/>
<path d="M2038 1723 c6 -2 18 -2 25 0 6 3 1 5 -13 5 -14 0 -19 -2 -12 -5z"/>
<path d="M2400 1690 c0 -5 5 -10 10 -10 6 0 10 5 10 10 0 6 -4 10 -10 10 -5 0
-10 -4 -10 -10z"/>
<path d="M5255 4199 c-127 -38 -262 -98 -359 -159 -26 -17 -46 -33 -44 -36 3
-2 83 34 179 80 96 46 218 98 272 116 53 17 97 34 97 36 0 7 -10 4 -145 -37z"/>
<path d="M6645 3980 c4 -8 14 -22 21 -30 13 -15 31 -120 21 -120 -3 0 -16 17
-28 38 -31 50 -81 113 -87 108 -6 -7 148 -226 159 -226 11 0 5 46 -18 132 -10
37 -25 66 -46 85 -16 15 -26 21 -22 13z"/>
<path d="M6371 3913 c-2 -29 59 -283 81 -336 12 -32 62 -111 111 -174 87 -116
107 -157 107 -223 0 -45 12 -63 35 -54 16 6 17 17 12 98 -11 177 -58 286 -176
409 -41 43 -71 91 -113 175 -31 65 -57 112 -57 105z"/>
<path d="M7170 3666 c0 -2 9 -6 20 -9 11 -3 18 -1 14 4 -5 9 -34 13 -34 5z"/>
<path d="M7460 3640 c0 -5 5 -10 11 -10 5 0 7 5 4 10 -3 6 -8 10 -11 10 -2 0
-4 -4 -4 -10z"/>
<path d="M7470 3550 c-9 -6 -10 -10 -3 -10 6 0 15 5 18 10 8 12 4 12 -15 0z"/>
<path d="M8562 3480 c0 -14 2 -19 5 -12 2 6 2 18 0 25 -3 6 -5 1 -5 -13z"/>
<path d="M8732 3010 c0 -14 2 -19 5 -12 2 6 2 18 0 25 -3 6 -5 1 -5 -13z"/>
<path d="M8716 2490 c-25 -117 -15 -199 30 -241 l26 -24 -6 25 c-3 14 -10 68
-16 121 -6 53 -15 109 -19 125 l-8 29 -7 -35z"/>
<path d="M3131 3244 c0 -11 3 -14 6 -6 3 7 2 16 -1 19 -3 4 -6 -2 -5 -13z"/>
<path d="M3106 3125 c-3 -9 -5 -33 -5 -53 1 -34 2 -33 10 13 8 51 6 68 -5 40z"/>
<path d="M7164 3521 c10 -11 31 -25 47 -31 16 -7 29 -16 29 -20 0 -4 44 -30
99 -58 83 -44 100 -50 110 -38 10 12 7 18 -13 31 -14 10 -37 18 -51 19 -14 0
-25 4 -25 9 0 4 -9 7 -21 7 -11 0 -18 4 -15 9 4 5 -3 7 -14 4 -12 -3 -22 1
-26 11 -3 9 -10 16 -15 16 -4 0 -31 14 -59 30 -59 35 -70 37 -46 11z m253
-117 c-3 -3 -12 -4 -19 -1 -8 3 -5 6 6 6 11 1 17 -2 13 -5z"/>
<path d="M4005 3156 c-23 -25 -26 -40 -4 -19 12 12 21 24 18 27 -2 2 -9 -1
-14 -8z"/>
<path d="M4058 2933 c7 -3 16 -2 19 1 4 3 -2 6 -13 5 -11 0 -14 -3 -6 -6z"/>
<path d="M7178 3000 c-45 -39 -110 -84 -143 -100 -47 -23 -54 -30 -34 -30 14
0 53 17 87 38 63 38 190 141 191 155 2 18 -22 3 -101 -63z"/>
<path d="M7225 2963 c-22 -9 -73 -42 -114 -72 -101 -76 -105 -80 -99 -86 9
-10 58 14 121 59 34 24 88 58 120 76 31 17 57 34 57 36 0 9 -48 2 -85 -13z"/>
<path d="M7148 2729 c-59 -30 -80 -48 -30 -26 43 19 108 57 97 56 -5 0 -36
-13 -67 -30z"/>
<path d="M6558 2733 c-19 -23 -31 -43 -24 -43 2 0 14 14 26 30 23 33 22 40 -2
13z"/>
<path d="M3345 1991 c-3 -5 -2 -12 3 -15 5 -3 9 1 9 9 0 17 -3 19 -12 6z"/>
<path d="M3937 1969 c7 -7 15 -10 18 -7 3 3 -2 9 -12 12 -14 6 -15 5 -6 -5z"/>
<path d="M8900 2205 c-8 -58 -9 -72 -5 -92 3 -12 18 -31 33 -42 l28 -19 1 21
c2 17 0 19 -7 7 -8 -12 -10 -11 -10 7 0 12 -8 29 -17 39 -13 13 -14 19 -5 22
6 2 12 8 12 13 0 6 -4 8 -9 4 -5 -3 -12 9 -14 27 -2 19 -5 25 -7 13z m30 -106
c0 -6 -4 -7 -10 -4 -5 3 -10 11 -10 16 0 6 5 7 10 4 6 -3 10 -11 10 -16z"/>
<path d="M9181 1537 c2 -1 13 -9 24 -17 19 -14 19 -14 6 3 -7 9 -18 17 -24 17
-6 0 -8 -1 -6 -3z"/>
<path d="M8758 1395 c-2 -3 7 -30 21 -59 22 -47 30 -55 54 -55 15 -1 27 3 27
8 0 19 -12 41 -23 41 -7 0 -7 -4 1 -12 7 -7 12 -16 12 -22 0 -5 -6 -1 -14 9
-8 11 -12 25 -9 32 7 17 -9 17 -26 1 -10 -11 -11 -10 -6 3 3 9 -1 23 -9 32 -8
8 -12 17 -9 21 4 3 2 6 -4 6 -5 0 -12 -2 -15 -5z"/>
<path d="M3183 8281 c-6 -10 -28 -21 -47 -25 -40 -8 -54 -21 -30 -30 8 -3 12
-2 9 4 -3 6 -3 10 2 11 4 0 18 2 30 3 12 1 20 -1 17 -6 -4 -5 -12 -7 -20 -4
-8 3 -14 1 -14 -4 0 -6 6 -10 13 -10 13 1 56 30 44 30 -4 0 -3 9 3 21 15 26 8
34 -7 10z"/>
<path d="M3542 8270 c0 -14 2 -19 5 -12 2 6 2 18 0 25 -3 6 -5 1 -5 -13z"/>
<path d="M3035 8160 c3 -5 8 -10 11 -10 2 0 4 5 4 10 0 6 -5 10 -11 10 -5 0
-7 -4 -4 -10z"/>
<path d="M3252 8045 c12 -24 23 -43 26 -41 4 5 -36 86 -43 86 -3 0 5 -20 17
-45z"/>
<path d="M3617 8069 c-4 -16 -3 -18 9 -8 7 6 11 15 8 20 -8 13 -11 11 -17 -12z"/>
<path d="M3401 8064 c0 -11 3 -14 6 -6 3 7 2 16 -1 19 -3 4 -6 -2 -5 -13z"/>
<path d="M3632 8005 c0 -25 -2 -49 -6 -52 -3 -4 -6 13 -6 36 0 26 -4 40 -10
36 -5 -3 -10 -1 -10 6 0 7 -3 9 -6 6 -4 -4 -2 -12 4 -19 5 -7 14 -40 18 -73
l8 -60 8 45 c14 74 17 120 7 120 -4 0 -8 -20 -7 -45z"/>
<path d="M3530 7957 c-25 -28 -38 -47 -30 -42 8 5 20 10 25 11 6 0 16 2 23 2
8 1 11 9 7 21 -3 11 -1 22 5 26 5 3 10 1 10 -5 0 -6 6 -17 13 -24 11 -11 13
-7 13 20 0 19 -3 29 -7 22 -5 -7 -8 -6 -10 4 -3 11 -18 0 -49 -35z"/>
<path d="M3290 7982 c0 -6 12 -24 26 -39 l26 -28 -23 35 c-29 46 -29 45 -29
32z"/>
<path d="M3161 7954 c0 -11 3 -14 6 -6 3 7 2 16 -1 19 -3 4 -6 -2 -5 -13z"/>
<path d="M3448 7886 c-9 -10 -20 -11 -37 -5 -13 5 -26 8 -28 5 -2 -2 9 -8 25
-14 23 -8 33 -6 53 9 13 10 19 19 12 19 -7 0 -18 -6 -25 -14z"/>
<path d="M3460 7860 c-13 -8 -13 -10 2 -10 9 0 20 5 23 10 8 13 -5 13 -25 0z"/>
<path d="M4536 6645 c9 -38 55 -157 60 -153 3 4 -55 170 -62 178 -3 3 -2 -9 2
-25z"/>
<path d="M27 103 c-25 -4 -27 -8 -27 -54 0 -48 1 -49 30 -49 30 0 30 1 30 55
0 30 -1 54 -2 54 -2 -1 -15 -4 -31 -6z"/>
</g>
</svg>
