<?xml version="1.0" standalone="no"?>
<!DOCTYPE svg PUBLIC "-//W3C//DTD SVG 20010904//EN"
 "http://www.w3.org/TR/2001/REC-SVG-20010904/DTD/svg10.dtd">
<svg version="1.0" xmlns="http://www.w3.org/2000/svg"
 width="1024.000000pt" height="1024.000000pt" viewBox="0 0 1024.000000 1024.000000"
 preserveAspectRatio="xMidYMid meet">

<g transform="translate(0.000000,1024.000000) scale(0.100000,-0.100000)"
fill="#000000" stroke="none">
<path d="M4557 9280 c-27 -5 -72 -20 -100 -33 -36 -18 -74 -26 -123 -29 -65
-3 -84 -10 -235 -85 -90 -44 -207 -102 -259 -127 -52 -25 -125 -67 -161 -93
-204 -148 -262 -204 -374 -365 -76 -109 -103 -164 -150 -303 -14 -44 -48 -116
-75 -160 -61 -102 -92 -172 -114 -260 -9 -38 -21 -83 -26 -100 -34 -118 -18
-299 40 -450 27 -73 35 -103 26 -111 -6 -5 -58 -32 -116 -58 -306 -142 -412
-199 -625 -341 -208 -139 -277 -189 -335 -243 -36 -34 -341 -250 -434 -308
-43 -27 -84 -48 -89 -46 -38 11 -181 32 -225 32 -62 0 -149 -29 -206 -67 -22
-16 -56 -53 -76 -84 -41 -63 -92 -210 -110 -314 -6 -38 -21 -115 -33 -170 -14
-69 -20 -133 -19 -205 1 -92 -1 -107 -18 -120 -10 -8 -21 -31 -24 -50 -8 -45
45 -146 89 -170 23 -13 31 -26 37 -59 14 -80 69 -141 130 -141 17 0 28 -12 44
-43 29 -59 107 -100 179 -92 70 8 105 9 110 3 6 -6 -62 -133 -79 -147 -18 -15
-136 -27 -136 -13 0 20 -30 40 -101 67 -60 23 -82 27 -143 23 -101 -7 -182
-45 -249 -118 -51 -55 -107 -150 -107 -183 0 -8 -16 -34 -35 -57 -19 -23 -42
-54 -51 -68 -10 -15 -42 -49 -73 -77 -94 -84 -181 -209 -231 -335 -19 -45 -23
-76 -24 -176 -1 -116 -2 -121 -29 -153 -36 -43 -34 -55 4 -35 71 36 79 53 79
161 0 192 36 265 253 513 99 113 127 152 169 238 94 195 235 278 387 227 49
-16 60 -35 21 -35 -34 0 -124 -46 -157 -80 -18 -19 -31 -35 -30 -37 2 -1 28 5
58 14 33 10 89 17 144 17 85 0 94 -1 163 -38 l73 -38 -3 -86 -3 -86 -110 -29
c-87 -22 -123 -27 -173 -23 -56 5 -62 3 -62 -14 0 -25 43 -57 100 -74 56 -17
94 -37 133 -69 l28 -24 -36 -31 c-21 -19 -60 -39 -95 -49 -33 -9 -60 -19 -60
-23 0 -4 9 -15 20 -25 35 -31 20 -93 -48 -197 -37 -57 -57 -108 -92 -238 -17
-62 -63 -102 -150 -130 -69 -22 -121 -52 -110 -64 4 -3 22 -7 42 -10 52 -6 78
-23 94 -61 35 -84 4 -145 -73 -145 -45 0 -85 25 -107 68 -8 15 -30 76 -50 135
-37 110 -44 173 -25 209 14 27 1 38 -17 14 -8 -11 -14 -41 -14 -67 0 -46 -1
-47 -35 -53 -44 -9 -67 -43 -85 -127 -7 -32 -18 -63 -24 -67 -18 -15 -104 -35
-115 -27 -24 14 -10 45 29 65 38 19 100 90 100 114 0 6 11 27 24 46 26 38 43
114 28 124 -9 5 -74 -89 -125 -184 -39 -72 -113 -102 -141 -57 -9 15 -4 24 36
58 27 23 56 60 68 85 11 25 34 63 51 85 27 34 53 119 36 119 -3 0 -22 -30 -42
-66 -21 -37 -46 -69 -56 -71 -22 -6 -22 -8 -9 -32 13 -24 -60 -101 -95 -101
-24 0 -25 -3 -25 -64 0 -61 1 -63 24 -59 21 4 24 0 29 -37 8 -64 31 -83 93
-78 47 4 52 2 67 -24 24 -42 59 -55 110 -39 23 7 51 15 63 17 12 4 39 -6 70
-25 89 -56 193 -42 246 31 18 27 23 46 23 101 1 66 2 69 42 107 46 46 75 100
93 180 22 98 141 294 214 353 22 18 57 43 76 54 34 20 242 93 266 93 6 0 18
-34 27 -75 24 -105 54 -160 133 -236 77 -73 133 -109 211 -134 49 -16 57 -16
165 4 232 42 371 53 723 57 187 2 376 6 420 9 103 7 255 25 279 32 17 5 18 1
12 -38 -4 -24 -23 -82 -42 -129 -46 -112 -76 -230 -78 -310 -1 -64 -2 -65 -51
-111 -65 -60 -78 -66 -166 -79 -41 -6 -87 -15 -104 -20 -17 -6 -52 -6 -83 -1
-63 10 -140 -2 -186 -30 -22 -13 -37 -16 -41 -9 -8 13 -200 12 -270 -1 -27 -5
-95 -14 -150 -20 -155 -18 -240 -43 -294 -89 -26 -21 -53 -49 -60 -63 -11 -20
-28 -28 -95 -42 -44 -10 -85 -21 -91 -25 -14 -10 -109 -28 -180 -35 -33 -3
-170 -10 -305 -15 -196 -9 -269 -16 -365 -36 -66 -14 -129 -26 -140 -26 -11
-1 -65 12 -120 27 -83 24 -120 29 -220 29 -99 1 -127 -2 -159 -18 -56 -28
-127 -103 -159 -170 -27 -55 -28 -64 -25 -175 3 -118 3 -118 40 -172 80 -115
108 -153 137 -186 l30 -34 -47 -62 c-61 -78 -92 -132 -92 -159 0 -47 40 -106
98 -144 31 -21 73 -50 92 -65 41 -32 106 -69 121 -69 6 0 25 -6 42 -14 18 -7
48 -19 67 -26 19 -7 49 -19 65 -26 35 -15 125 -45 205 -68 104 -29 244 -45
415 -45 94 -1 265 -4 381 -7 l212 -7 66 31 c56 26 69 37 87 75 48 99 -7 175
-176 243 -52 21 -69 33 -85 63 -12 20 -36 46 -55 59 -40 25 -46 45 -12 38 63
-14 360 -32 682 -42 61 -2 135 -6 165 -8 65 -6 1062 -17 1610 -19 316 -1 410
2 525 17 175 22 577 95 695 126 59 15 190 46 260 60 30 7 118 32 195 56 77 24
147 44 155 44 8 0 35 -24 60 -54 59 -69 107 -106 139 -106 38 0 188 87 242
140 45 45 46 45 61 25 21 -26 32 -15 17 18 -10 22 -8 30 10 53 33 41 26 64
-39 140 -33 38 -60 72 -60 75 0 11 104 28 205 34 126 7 197 16 210 25 6 4 34
7 63 5 28 -1 52 1 52 6 0 5 17 8 38 8 56 0 132 12 132 21 0 5 21 8 47 7 27 0
49 5 51 11 2 7 13 10 28 6 16 -4 24 -2 24 6 0 7 8 10 20 7 11 -3 20 -1 20 5 0
5 5 6 10 3 6 -4 17 -2 25 5 8 6 26 10 42 9 46 -3 63 0 63 14 0 8 18 12 55 12
30 0 55 3 55 7 0 5 11 6 25 2 15 -4 25 -2 25 5 0 6 10 10 23 8 13 -1 21 3 19
11 -3 15 3 15 28 2 13 -7 22 -6 32 3 12 12 110 20 228 17 25 0 62 -1 83 -1 20
0 37 -4 37 -10 0 -8 4 -8 13 -1 13 11 29 10 59 -2 9 -4 21 -5 27 -2 13 8 131
-25 131 -36 0 -5 9 -7 20 -3 11 3 30 -1 45 -11 14 -9 34 -14 44 -11 10 2 25 1
32 -4 10 -6 11 -9 2 -9 -7 0 -13 -3 -13 -7 0 -5 21 -8 47 -9 26 -1 49 -6 51
-13 2 -6 12 -11 23 -11 11 0 31 -7 44 -16 14 -9 34 -14 45 -11 11 3 20 2 20
-2 0 -4 15 -7 34 -8 19 -1 48 -11 66 -24 26 -20 32 -21 40 -9 8 13 12 13 32 1
12 -8 47 -16 78 -18 92 -6 105 -8 103 -18 -1 -11 73 -12 83 -2 4 3 15 2 26 -4
14 -8 24 -7 35 3 13 10 17 10 20 1 3 -7 9 -13 14 -13 6 0 7 5 4 11 -8 11 64 7
98 -6 10 -4 17 -3 17 4 0 15 47 14 54 -1 5 -10 7 -10 12 0 3 6 17 12 30 12 14
0 22 -4 19 -10 -3 -5 0 -7 9 -4 8 3 12 12 9 20 -3 9 2 14 15 14 48 0 3 80 -52
94 -15 4 -34 15 -43 26 -9 10 -20 17 -25 14 -4 -3 -18 4 -30 15 -12 12 -33 21
-47 22 -14 0 -20 3 -13 6 23 9 12 23 -18 23 -17 0 -38 4 -48 10 -32 17 -87 38
-157 60 -38 12 -78 26 -87 31 -10 5 -27 9 -37 9 -11 0 -22 4 -25 9 -3 4 -27
14 -53 20 -46 12 -98 30 -153 54 -14 6 -31 9 -37 8 -7 -1 -13 3 -13 9 0 5 -13
10 -30 10 -16 0 -30 5 -30 10 0 6 -8 10 -17 10 -10 0 -43 12 -73 26 -30 14
-82 34 -115 44 -51 16 -241 81 -435 151 -138 49 -560 149 -762 180 -51 8 -78
16 -78 25 0 7 3 14 8 16 4 1 22 20 40 42 l33 38 182 2 c209 3 216 1 321 -87
86 -71 156 -102 233 -102 79 0 117 24 121 79 5 57 -56 144 -92 130 -21 -8 -20
-16 2 -40 24 -25 52 -67 52 -76 0 -3 -7 -14 -16 -22 -27 -28 -94 -20 -173 20
-83 41 -103 69 -80 110 14 28 104 94 126 94 7 0 13 5 13 10 0 17 -23 11 -75
-19 -51 -30 -95 -66 -95 -79 0 -4 -4 -13 -9 -21 -7 -11 -14 -10 -37 6 -16 11
-64 35 -107 53 -50 22 -86 45 -99 62 l-19 28 88 105 c48 58 92 105 96 105 5 0
51 -40 102 -88 52 -49 115 -104 142 -123 26 -19 72 -59 103 -89 120 -121 229
-192 316 -206 35 -5 45 -2 69 20 20 18 34 24 49 20 11 -4 38 -7 60 -7 32 0 45
6 68 32 35 40 35 65 -1 120 -37 55 -311 325 -368 362 -47 31 -104 99 -175 209
-52 81 -57 103 -31 132 16 18 16 19 -11 9 -34 -13 -36 -13 -36 -1 0 5 19 23
42 40 91 66 166 31 423 -198 79 -70 156 -112 290 -157 138 -47 164 -60 301
-151 l111 -75 -5 -55 c-6 -74 17 -133 74 -183 50 -44 75 -50 189 -52 88 -1
124 6 265 49 92 29 98 29 213 20 157 -12 286 -46 432 -114 66 -30 126 -58 133
-61 9 -4 12 15 12 76 0 79 -1 81 -24 81 -37 0 -39 14 -6 39 39 28 40 61 3 61
-16 0 -45 -4 -66 -9 -35 -9 -41 -7 -65 21 -52 58 -95 73 -217 73 -104 0 -116
-2 -232 -43 -106 -37 -135 -43 -235 -49 -147 -8 -188 5 -286 88 -75 63 -83 78
-57 99 14 11 22 7 58 -27 57 -54 112 -93 131 -93 21 0 21 41 -2 153 l-18 88
28 20 c15 11 28 23 28 27 0 4 -15 17 -34 29 -27 17 -40 39 -65 104 -17 45 -30
83 -29 83 23 12 184 58 218 62 40 5 55 1 135 -42 163 -87 208 -106 380 -164
195 -67 275 -100 322 -136 l33 -25 0 44 0 44 -68 31 c-63 30 -110 47 -332 122
-207 70 -293 129 -385 265 l-21 30 50 85 c27 47 60 99 73 116 13 17 23 41 23
53 0 28 -41 69 -105 106 -72 40 -268 237 -400 400 -113 139 -433 467 -532 544
-57 45 -116 134 -110 166 14 70 52 190 78 246 39 88 47 173 24 259 -28 103
-28 115 -6 182 28 83 36 95 53 81 12 -10 45 -20 120 -37 22 -5 27 -13 33 -48
13 -76 53 -136 109 -165 41 -22 138 -19 216 5 125 38 142 38 207 -2 62 -38
112 -46 171 -25 25 8 43 6 103 -15 41 -14 113 -31 161 -37 139 -20 141 -19
355 198 l183 185 0 483 c0 364 -3 490 -12 512 -19 42 -93 127 -152 172 -191
146 -487 224 -738 192 l-58 -7 -47 48 c-26 26 -70 60 -99 75 -49 26 -52 30
-80 107 -16 43 -43 98 -60 120 -17 23 -39 68 -48 101 -39 135 -126 255 -336
465 -147 148 -283 264 -400 343 -145 98 -402 208 -610 262 -36 9 -117 33 -180
55 -271 90 -360 105 -582 97 -190 -7 -305 -19 -390 -42 -50 -13 -61 -12 -134
6 -52 14 -126 23 -220 26 -153 6 -233 -6 -366 -54 -61 -21 -70 -22 -90 -9 -30
19 -142 30 -210 21 -45 -6 -60 -14 -97 -51 -24 -24 -47 -44 -52 -44 -5 0 -66
16 -136 35 -97 26 -133 41 -150 60 -31 36 -91 64 -159 75 -69 12 -208 11 -277
0z m186 -147 c58 -88 117 -158 117 -139 0 20 -77 151 -113 192 l-42 47 54 -6
c29 -3 59 -12 67 -18 10 -8 14 -8 14 0 0 28 70 0 133 -55 27 -22 63 -39 120
-54 120 -32 142 -44 176 -91 33 -45 34 -64 2 -35 -20 18 -20 18 -1 -18 39 -77
127 -499 137 -654 7 -115 -5 -334 -18 -326 -5 3 -9 18 -9 34 0 16 -5 41 -10
56 -6 15 -15 75 -21 133 -11 102 -12 107 -45 136 -27 23 -40 51 -64 125 -17
52 -34 114 -37 138 -10 73 -23 57 -23 -30 0 -76 7 -145 44 -400 7 -49 10 -88
6 -88 -4 0 -17 26 -29 59 -12 32 -29 65 -37 72 -15 12 -16 9 -9 -30 4 -24 22
-89 41 -144 18 -55 39 -127 44 -161 6 -34 13 -72 16 -86 3 -14 -10 11 -29 55
-19 44 -50 112 -69 150 -20 39 -48 111 -63 160 -31 100 -17 84 -228 278 -75
70 -133 133 -162 178 -25 39 -81 112 -124 162 -42 51 -92 113 -110 139 -53 79
-136 129 -236 143 -63 9 -50 -7 19 -24 118 -29 186 -85 217 -179 12 -37 30
-86 40 -109 10 -24 16 -43 13 -43 -2 0 -28 13 -57 29 -69 39 -247 114 -319
135 -73 21 -240 21 -320 1 -72 -19 -152 -57 -193 -91 -26 -22 -23 -21 30 7
l60 32 151 -36 c228 -56 249 -64 539 -201 39 -19 72 -31 75 -29 9 9 -92 93
-154 127 -33 19 -124 57 -201 86 -193 70 -195 71 -99 66 92 -6 182 -35 318
-103 108 -54 178 -105 260 -187 33 -35 88 -84 122 -109 59 -46 104 -96 104
-117 0 -14 1 -14 -77 21 -37 17 -93 37 -123 44 -67 17 -210 29 -210 17 0 -4
35 -12 78 -18 63 -9 103 -23 205 -72 151 -74 174 -95 292 -268 156 -230 236
-414 235 -542 l-1 -37 -30 60 c-16 33 -27 51 -25 40 5 -21 27 -102 41 -145 6
-19 0 -16 -22 15 -39 53 -213 218 -289 276 -92 68 -246 157 -337 195 -45 18
-140 49 -212 70 -167 47 -319 56 -507 29 -92 -13 -155 -16 -251 -12 -148 7
-152 6 -320 -86 -107 -59 -129 -79 -65 -58 58 18 355 56 507 64 114 7 73 -12
-161 -72 -297 -77 -299 -77 -352 -121 -26 -22 -45 -40 -42 -40 3 0 38 16 77
36 73 38 237 76 534 124 72 12 165 32 208 46 93 29 227 32 341 9 138 -29 331
-99 424 -155 248 -151 335 -229 375 -339 58 -156 48 -274 -57 -644 -57 -202
-94 -257 -206 -311 l-55 -26 51 48 c65 60 122 170 138 267 6 36 3 34 -28 -30
-38 -79 -138 -199 -208 -248 -70 -50 -185 -100 -242 -105 -45 -4 -49 -2 -36
10 8 8 33 20 56 26 49 14 151 79 192 121 43 46 152 255 139 268 -13 12 -122
-76 -163 -131 -63 -85 -160 -182 -219 -221 -27 -17 -56 -39 -64 -48 -15 -19
-31 -22 -31 -7 0 6 38 49 85 96 79 78 91 95 154 227 38 78 72 158 75 177 6 31
5 33 -6 16 -16 -23 -188 -211 -258 -281 -30 -30 -64 -78 -84 -120 -34 -70 -76
-122 -76 -94 0 8 19 68 42 134 43 126 67 162 131 198 33 18 48 37 31 37 -4 0
-53 -22 -110 -50 -138 -66 -199 -126 -305 -295 -88 -141 -170 -254 -220 -300
-31 -30 -31 -29 16 65 26 52 78 145 115 205 37 61 82 137 101 169 19 33 61 88
93 123 32 35 57 66 54 69 -16 15 -199 -168 -396 -394 -48 -56 -207 -180 -217
-170 -3 2 21 26 51 53 72 62 254 298 240 312 -3 4 -21 -4 -39 -17 -28 -22
-170 -118 -197 -135 -5 -3 -10 -2 -10 4 0 8 48 48 219 185 20 15 60 39 88 53
83 39 87 64 6 40 -127 -39 -276 -123 -382 -215 -235 -206 -348 -362 -390 -541
-28 -119 -65 -103 -41 17 14 70 41 138 118 292 36 73 63 110 116 162 37 38 64
68 60 68 -18 0 -111 -59 -139 -88 -17 -17 -55 -76 -85 -132 -52 -97 -58 -104
-120 -140 -81 -47 -109 -78 -150 -158 -20 -41 -58 -91 -105 -139 -82 -83 -100
-121 -92 -192 3 -25 9 -71 13 -102 3 -31 3 -59 -2 -62 -5 -3 -36 26 -69 65
-79 92 -87 100 -92 94 -8 -8 28 -101 61 -156 42 -71 49 -90 32 -90 -18 0 -90
81 -124 140 -19 31 -28 40 -30 28 -3 -15 23 -165 45 -258 l6 -25 -30 28 c-16
15 -31 27 -34 27 -3 0 5 -30 17 -67 30 -88 30 -124 0 -52 -21 53 -92 148 -231
313 -155 183 -183 224 -282 416 -61 119 -189 308 -200 296 -7 -7 16 -47 61
-106 49 -65 114 -175 145 -245 31 -70 137 -227 218 -320 88 -101 218 -275 244
-327 36 -71 23 -126 -26 -112 -42 12 -127 79 -162 128 -20 28 -93 110 -163
181 -168 175 -209 232 -302 421 -88 181 -184 450 -167 471 6 7 56 40 112 74
111 68 142 90 262 190 44 37 111 88 148 113 37 25 89 61 115 79 69 48 243 152
293 175 24 11 118 55 209 97 91 43 185 84 210 91 52 17 246 34 400 35 101 1
104 2 81 18 -44 29 -145 70 -175 71 -15 0 -60 -16 -100 -35 -39 -19 -91 -37
-116 -41 -42 -6 -38 -2 60 49 125 65 220 100 313 116 38 7 92 21 121 32 68 25
112 29 211 17 54 -6 100 -19 140 -39 l60 -30 -35 36 c-19 20 -63 50 -98 67
-90 45 -154 43 -256 -5 -42 -20 -76 -33 -76 -29 0 14 126 171 198 247 40 43
105 102 143 132 39 30 68 57 65 60 -2 3 -60 -23 -128 -56 -117 -59 -267 -115
-278 -104 -8 7 50 54 119 95 65 39 80 63 34 52 -16 -4 -71 -27 -123 -51 -83
-39 -106 -56 -186 -137 -71 -72 -96 -104 -110 -144 -10 -29 -23 -52 -28 -52
-14 0 0 104 19 139 9 18 32 47 51 65 20 19 32 36 27 39 -5 3 -51 -14 -103 -37
-112 -51 -169 -70 -178 -62 -9 10 -4 201 9 324 8 72 8 107 0 115 -11 14 43
114 100 188 40 51 101 161 93 168 -3 3 -21 -12 -40 -33 -19 -22 -34 -34 -34
-27 0 25 85 176 144 256 113 152 329 335 476 402 41 19 153 74 248 121 164 83
175 87 235 86 64 -1 159 -33 215 -72 15 -11 45 -53 66 -94 22 -40 74 -125 116
-188 43 -63 95 -143 117 -177 40 -63 185 -245 191 -239 1 2 -41 71 -95 154
-171 262 -215 335 -266 435 -62 122 -141 207 -192 207 -8 0 -15 4 -15 8 0 10
123 39 172 41 36 1 38 -1 101 -96z m1563 27 c81 -17 97 -17 145 -5 137 34 553
46 705 20 49 -9 161 -40 249 -70 88 -29 211 -68 274 -85 124 -34 353 -136 464
-207 192 -122 532 -430 623 -563 46 -67 93 -164 125 -259 16 -47 38 -94 49
-106 28 -30 80 -168 80 -213 0 -57 -17 -106 -80 -237 l-58 -121 -219 -219
c-121 -121 -256 -265 -300 -320 -128 -160 -241 -258 -579 -503 -82 -60 -130
-104 -170 -155 -31 -39 -65 -77 -75 -85 -12 -8 -48 -13 -95 -14 -85 0 -118 15
-58 27 46 8 94 32 94 45 0 14 -15 12 -95 -11 -121 -34 -139 -35 -153 -5 -11
24 -9 26 31 45 135 61 167 78 217 111 30 20 87 57 125 83 113 74 218 149 271
193 27 23 91 72 142 111 127 96 254 215 391 367 300 331 450 524 502 641 43
100 60 193 40 224 -8 12 -11 8 -16 -15 -12 -58 -67 -190 -102 -249 -20 -33
-66 -92 -102 -130 -36 -39 -126 -136 -199 -218 -73 -81 -148 -158 -165 -171
-52 -39 -271 -145 -365 -177 -69 -23 -209 -54 -277 -60 -5 0 3 -5 18 -9 36
-11 179 4 291 30 102 23 117 25 91 7 -28 -19 -133 -55 -180 -62 -97 -14 -318
-22 -401 -15 -82 7 -267 52 -286 69 -4 4 47 0 115 -7 107 -12 135 -12 227 2
58 8 134 18 170 22 88 8 172 30 247 64 71 33 84 55 26 44 -38 -7 -151 -47
-186 -65 -10 -5 -92 -21 -183 -36 l-166 -27 -96 23 c-54 13 -114 26 -135 31
-79 16 -180 76 -250 149 -37 38 -67 74 -67 80 0 7 14 -4 31 -23 53 -61 212
-143 312 -161 30 -6 37 -4 37 8 0 10 -35 34 -91 63 -124 64 -199 135 -244 230
-19 40 -35 76 -35 80 0 3 20 -20 44 -52 42 -56 124 -123 266 -217 58 -39 133
-74 198 -92 43 -12 20 10 -40 39 -54 26 -134 84 -125 92 1 2 32 -8 67 -23 63
-25 68 -25 240 -20 96 3 186 9 200 13 l25 7 -27 -29 c-15 -17 -62 -47 -105
-69 -42 -21 -72 -40 -66 -42 6 -2 48 6 94 17 60 15 124 43 221 96 152 84 213
127 302 212 34 32 99 91 145 132 80 71 201 211 201 233 0 5 -19 -12 -42 -39
-76 -88 -114 -120 -224 -187 -84 -52 -137 -76 -234 -107 -69 -22 -136 -40
-148 -40 -12 0 -22 -5 -22 -11 0 -12 135 -7 195 7 l30 7 -20 -23 c-47 -53
-152 -82 -340 -95 -149 -10 -253 14 -423 98 -146 73 -200 108 -251 161 -44 45
-37 55 9 14 57 -50 71 -57 206 -99 101 -31 159 -43 270 -53 77 -8 150 -19 162
-25 26 -14 35 -14 27 -1 -3 5 -38 27 -76 49 l-70 38 83 5 c77 4 93 9 200 60
104 50 130 69 254 179 160 143 328 313 314 317 -5 2 -36 -18 -69 -45 -32 -26
-92 -69 -133 -95 -40 -26 -123 -87 -184 -136 -122 -97 -254 -171 -354 -197
-105 -28 -181 -42 -185 -35 -2 3 29 21 68 40 121 58 223 125 327 217 104 91
154 128 235 176 26 15 45 30 42 33 -6 7 -186 -83 -212 -106 -11 -10 -85 -57
-165 -106 -80 -48 -168 -101 -196 -119 -50 -30 -68 -37 -257 -95 -135 -42
-227 -40 -124 3 43 17 169 104 197 135 31 35 70 100 111 186 56 116 102 155
294 255 237 123 288 151 271 151 -70 0 -343 -135 -444 -220 -39 -33 -98 -79
-131 -104 -33 -24 -84 -64 -113 -89 -29 -24 -75 -59 -102 -75 -51 -33 -173
-78 -183 -68 -15 14 13 37 93 77 68 34 107 62 169 124 45 44 93 98 107 120 40
63 182 209 242 249 58 39 122 66 236 101 74 23 74 24 32 24 -52 1 -187 -32
-246 -60 -57 -26 -151 -104 -274 -226 -183 -181 -240 -227 -351 -282 -57 -29
-106 -49 -110 -45 -3 4 -1 8 4 10 55 20 79 47 211 231 83 116 134 291 149 513
7 109 -8 89 -36 -47 -47 -229 -89 -373 -108 -373 -5 0 -12 26 -16 58 -3 31 -7
63 -8 71 -4 31 -24 19 -37 -21 -52 -163 -156 -375 -167 -342 -2 6 8 68 22 140
52 262 45 329 -62 559 -82 177 -95 198 -157 263 -55 57 -79 69 -46 22 12 -16
39 -74 61 -127 22 -54 57 -127 79 -163 100 -167 120 -268 85 -427 -16 -73 -75
-249 -95 -282 -6 -10 -7 46 -3 149 9 235 -11 318 -110 464 -22 33 -52 71 -66
86 -64 64 -192 160 -215 160 -3 0 37 -42 88 -93 87 -87 97 -102 165 -238 100
-201 105 -232 63 -421 -17 -79 -34 -161 -38 -183 -12 -77 -44 -211 -76 -318
l-32 -107 43 -81 c40 -74 44 -89 49 -170 5 -91 -4 -143 -39 -226 -17 -41 -18
-41 -56 -33 -80 19 -174 55 -378 148 -123 56 -184 95 -400 257 -196 146 -325
216 -433 235 l-71 13 25 41 c46 74 63 121 93 253 16 72 43 175 59 229 17 55
36 124 43 154 6 30 50 168 96 305 47 138 93 277 102 310 24 78 51 130 95 182
43 49 87 66 232 88 55 8 131 22 168 30 99 23 357 36 479 25 56 -6 158 -24 227
-40 69 -16 175 -34 235 -40 61 -5 160 -14 221 -20 157 -13 272 -44 384 -103
201 -106 304 -157 314 -157 35 1 -208 172 -348 245 -50 26 -133 59 -185 73
-86 23 -117 26 -291 27 -174 2 -205 5 -292 28 -133 36 -287 51 -436 43 -159
-8 -545 -61 -623 -85 -113 -36 -163 -89 -200 -216 -38 -128 -72 -230 -79 -238
-3 -4 -16 75 -29 175 -12 101 -32 232 -43 292 l-21 109 21 17 c19 16 151 53
227 64 60 9 272 -5 361 -24z m-3223 -1252 c-61 -307 -58 -480 9 -612 19 -36
19 -39 3 -26 -24 19 -69 120 -85 189 -18 76 -7 243 23 356 24 88 52 165 60
165 3 0 -2 -33 -10 -72z m677 -266 c-19 -14 -59 -50 -89 -79 -30 -29 -55 -53
-57 -53 -2 0 2 13 7 29 13 37 52 73 113 105 62 33 71 32 26 -2z m5396 -25 l58
-54 -94 -31 c-51 -18 -95 -30 -97 -29 -1 2 8 32 22 67 14 35 25 72 25 82 0 30
24 20 86 -35z m-3574 -268 c77 -16 199 -79 308 -160 52 -39 135 -100 185 -137
116 -86 163 -117 255 -162 122 -61 332 -147 393 -160 31 -7 57 -14 57 -14 0
-13 -33 -152 -37 -156 -13 -13 -148 0 -238 24 -177 47 -447 208 -714 424 -56
45 -121 92 -143 103 -51 26 -138 49 -185 49 l-35 0 4 88 c2 48 7 93 12 100 9
15 68 16 138 1z m3548 -12 c0 -2 -11 -17 -26 -33 -14 -16 -50 -66 -80 -111
-30 -45 -69 -93 -87 -107 -18 -14 -94 -54 -168 -90 -150 -72 -205 -114 -257
-195 -19 -30 -51 -75 -70 -100 -19 -26 -48 -73 -64 -106 -35 -73 -32 -121 14
-206 l30 -57 -49 -44 c-26 -25 -71 -65 -98 -89 -28 -24 -71 -69 -96 -99 -25
-30 -71 -70 -102 -89 -53 -31 -172 -70 -183 -59 -12 12 12 39 69 79 86 60 146
114 205 185 45 54 82 113 82 129 0 3 -44 -37 -97 -89 -54 -52 -128 -119 -165
-148 -72 -57 -168 -115 -168 -101 0 5 35 38 77 73 181 151 329 313 389 424 15
28 70 114 123 191 53 77 104 151 113 165 33 50 181 203 299 310 52 47 112 102
134 122 l40 38 3 -30 c4 -39 18 -38 78 5 49 35 54 38 54 32z m318 -106 c111
-60 148 -126 123 -221 -14 -55 -55 -95 -106 -104 -57 -11 -221 47 -241 86 -16
31 -18 32 -45 18 -25 -14 -25 -74 0 -115 10 -17 53 -51 102 -79 97 -57 121
-75 207 -159 110 -106 124 -160 98 -365 -18 -144 -36 -185 -83 -190 -37 -4
-43 11 -43 114 0 76 -13 129 -34 137 -10 4 -15 -9 -19 -45 -10 -84 -63 -138
-109 -109 -12 8 -34 10 -57 6 -54 -9 -69 11 -53 71 18 67 15 90 -14 113 -58
46 -322 106 -422 97 l-63 -5 5 27 c2 15 8 45 11 67 8 49 36 103 67 132 12 12
61 47 108 77 47 31 81 56 77 56 -5 0 -29 -6 -55 -14 -26 -8 -63 -17 -83 -21
-23 -3 -55 -21 -85 -48 -26 -23 -45 -35 -42 -27 4 8 19 44 34 80 34 83 118
180 204 236 36 23 85 66 110 95 94 113 128 130 250 126 86 -2 101 -6 158 -36z
m-2117 -551 c57 -5 235 -12 394 -16 271 -6 288 -8 265 -22 -14 -9 -59 -49
-100 -88 -41 -39 -110 -95 -154 -125 -43 -30 -106 -74 -140 -98 -97 -68 -238
-132 -307 -138 -39 -4 -64 -2 -74 7 -23 19 -18 30 15 30 45 0 146 36 217 78
73 42 77 53 7 18 -68 -34 -197 -76 -233 -76 -41 0 -151 94 -132 113 7 7 50 17
271 58 69 12 130 27 135 32 6 6 -3 7 -25 2 -48 -10 -423 -22 -434 -13 -19 15
131 43 307 58 168 14 354 37 390 49 18 5 51 15 75 21 23 6 42 14 42 18 0 11
-198 32 -298 32 -84 0 -368 -42 -400 -59 -28 -15 -164 -61 -181 -61 -29 0 4
18 84 46 68 24 76 29 55 35 -14 4 -42 7 -63 8 -86 2 -4 29 148 47 l60 8 -110
12 c-60 7 -135 14 -165 15 -51 1 -52 2 -20 9 52 11 253 11 371 0z m-1069 -208
c76 -3 138 -5 138 -6 10 -112 34 -257 48 -289 12 -26 39 -60 67 -83 141 -114
145 -121 181 -290 28 -134 29 -169 8 -234 -14 -42 -14 -61 -4 -137 6 -48 15
-170 19 -271 4 -100 10 -185 13 -187 10 -10 20 332 13 447 -8 147 3 172 90
208 55 23 70 25 185 21 141 -4 136 -4 390 -1 280 3 470 -28 580 -95 30 -18 88
-43 129 -55 70 -21 191 -85 232 -123 10 -10 19 -28 19 -41 0 -31 84 -123 170
-185 98 -72 386 -362 477 -481 45 -58 140 -163 212 -235 72 -71 131 -132 131
-135 0 -3 -19 -11 -43 -17 -23 -7 -55 -21 -70 -33 -53 -42 -295 -432 -313
-502 -3 -16 -10 -28 -15 -28 -9 0 -29 65 -29 98 0 15 -6 22 -19 22 -29 0 -80
66 -124 158 -21 46 -41 82 -43 79 -3 -2 2 -67 9 -143 15 -152 30 -194 108
-303 22 -30 39 -59 39 -65 0 -24 -76 67 -132 157 -60 97 -78 120 -78 95 1 -24
58 -149 85 -184 31 -41 125 -114 147 -114 18 0 62 110 79 195 15 80 72 197
161 330 93 140 150 199 207 216 41 12 47 11 85 -11 22 -12 55 -30 73 -39 18
-9 32 -19 33 -22 0 -7 -33 -29 -145 -101 -113 -72 -205 -179 -277 -321 -17
-34 -56 -107 -88 -162 -32 -55 -64 -119 -71 -142 -7 -24 -14 -43 -17 -43 -3 0
-12 8 -21 18 -9 11 -45 43 -79 72 -35 29 -80 78 -101 109 -20 31 -56 82 -80
114 -53 73 -85 142 -110 238 -21 84 -50 267 -52 332 -1 30 -4 21 -10 -33 -5
-41 -16 -125 -25 -186 -19 -131 -14 -154 52 -286 24 -48 44 -91 44 -94 0 -22
-92 129 -152 249 -63 126 -75 161 -139 400 -64 241 -70 274 -80 417 -14 204
-29 286 -74 399 -44 110 -113 241 -127 241 -6 0 -7 -8 -3 -17 68 -169 131
-425 160 -653 9 -69 22 -161 30 -205 8 -44 24 -155 35 -247 24 -191 39 -257
76 -331 l26 -52 -37 35 c-49 47 -153 193 -181 255 -31 68 -29 50 7 -78 17 -60
28 -111 25 -114 -10 -11 -85 162 -106 243 -69 271 -141 666 -137 754 3 72 -4
140 -14 140 -11 0 -8 -219 6 -445 4 -69 1 -92 -22 -163 -16 -46 -32 -84 -37
-85 -16 -3 -47 59 -61 122 -8 32 -32 103 -54 158 -22 55 -43 117 -47 138 -5
29 -9 34 -16 22 -11 -20 7 -305 27 -437 30 -195 15 -185 -45 30 -57 201 -64
305 -29 442 45 176 27 360 -47 476 -44 68 -55 57 -19 -19 31 -68 32 -135 6
-326 -25 -172 -38 -516 -22 -557 10 -25 10 -27 -3 -17 -8 7 -22 35 -31 62 -14
42 -16 78 -12 217 5 154 5 158 -3 52 -5 -64 -13 -134 -18 -155 -9 -39 -9 -39
-19 -15 -6 14 -36 59 -68 100 -31 41 -68 97 -82 125 -14 27 -54 90 -89 139
-35 48 -85 132 -112 186 -26 54 -50 99 -54 99 -19 2 100 -349 147 -434 19 -33
62 -87 95 -120 34 -33 70 -77 81 -98 26 -49 79 -200 73 -206 -2 -3 -21 11 -42
31 -58 56 -116 93 -180 117 -33 13 -90 47 -128 77 -70 56 -226 143 -327 184
-89 35 -102 58 -123 225 -10 77 -18 210 -18 296 l-1 155 -48 -47 -48 -48 17
-33 c14 -25 19 -63 22 -150 l4 -118 -23 -1 -24 -1 25 -7 c22 -6 27 -16 41 -86
9 -44 22 -95 29 -113 18 -47 -1 -122 -31 -122 -17 0 -49 40 -49 62 0 12 12 35
27 50 15 15 21 28 15 28 -7 0 -23 -10 -35 -22 l-22 -23 -28 85 c-38 116 -59
265 -54 375 2 50 8 100 12 113 6 17 4 22 -11 22 -42 0 -44 -7 -44 -226 -1
-204 3 -261 22 -297 6 -13 2 -26 -18 -52 -14 -19 -31 -35 -36 -35 -30 0 -88
247 -89 380 -1 124 7 167 37 187 29 19 31 54 5 78 -19 17 -21 16 -39 -14 -11
-18 -29 -80 -41 -139 -31 -158 -37 -176 -84 -229 -73 -82 -85 -93 -112 -93
-32 0 -32 17 1 81 14 28 38 102 54 164 16 63 41 143 55 178 29 74 30 77 10 77
-8 0 -29 -32 -49 -76 -59 -126 -115 -179 -234 -218 -98 -33 -127 -33 -148 -1
-25 39 -12 55 44 55 130 0 262 130 306 302 17 66 20 296 4 315 -7 9 -46 11
-151 7 -160 -7 -201 1 -195 39 3 20 10 23 83 29 44 4 121 20 170 36 l90 28 1
199 c0 110 4 212 8 227 8 26 8 26 44 11 23 -10 85 -17 174 -21z m768 -109 c91
-143 168 -298 215 -432 20 -58 20 -160 -1 -189 -27 -38 -44 -28 -44 27 0 60
-25 210 -47 276 -26 80 -83 206 -115 253 -33 48 -81 152 -70 152 4 -1 32 -40
62 -87z m-1917 -83 c63 -109 116 -239 148 -363 11 -44 43 -130 72 -190 l51
-109 -23 -19 c-35 -28 -49 -24 -56 19 -24 152 -64 248 -153 369 -85 114 -161
154 -422 219 -68 17 -72 19 -37 22 45 4 193 -23 264 -48 61 -21 136 -70 181
-119 31 -34 32 -34 32 -10 0 13 -21 65 -46 114 -42 83 -84 187 -84 207 0 24
21 -2 73 -92z m-3438 -82 c20 -42 25 -67 25 -132 0 -45 7 -106 15 -136 12 -47
12 -57 0 -76 -20 -32 -43 -119 -54 -208 -8 -65 -14 -83 -34 -100 -30 -25 -41
-59 -61 -191 -21 -130 -49 -245 -80 -329 -14 -38 -26 -85 -26 -105 0 -56 -27
-134 -55 -161 -21 -20 -28 -22 -49 -12 -14 6 -33 23 -42 37 -35 54 -15 114 57
164 l34 24 -45 -6 c-58 -7 -99 -53 -125 -137 -17 -57 -48 -100 -61 -87 -10 10
48 168 78 213 58 88 43 133 -23 64 -44 -46 -60 -79 -79 -160 -16 -71 -35 -101
-58 -93 -57 20 -69 72 -23 99 17 10 42 40 57 68 15 28 43 73 62 100 43 59 52
129 16 134 -27 4 -99 -91 -132 -173 -13 -33 -35 -70 -48 -82 -32 -29 -80 -30
-111 -1 -33 31 -30 55 10 62 18 3 42 13 54 21 31 21 142 160 154 192 21 57
-21 75 -45 19 -8 -18 -30 -45 -49 -60 -19 -15 -42 -44 -50 -65 -23 -56 -37
-64 -89 -51 -54 14 -91 41 -83 60 3 8 26 27 50 42 34 20 52 42 76 90 17 35 40
75 50 90 25 35 24 58 -2 58 -41 0 -57 -18 -69 -77 -26 -126 -37 -140 -117
-157 -63 -14 -77 65 -17 93 32 14 40 37 20 56 -22 23 -21 129 3 230 10 44 24
112 30 150 32 194 95 360 157 415 36 31 109 57 185 67 48 6 159 -20 159 -37 0
-18 39 -21 77 -5 33 14 125 71 203 126 14 10 26 18 27 18 2 1 14 -22 28 -51z
m2845 8 c121 -18 143 -24 306 -97 194 -86 212 -99 321 -242 142 -187 158 -265
103 -517 -20 -95 -36 -207 -45 -330 -21 -270 -36 -321 -162 -534 -62 -104 -93
-166 -144 -286 -79 -186 -171 -308 -292 -387 -74 -48 -116 -56 -47 -8 77 53
124 119 208 285 44 89 74 156 66 149 -8 -7 -62 -83 -119 -169 -57 -87 -117
-171 -134 -188 -32 -31 -192 -132 -211 -132 -21 0 -9 21 21 38 92 50 189 160
189 214 0 7 18 39 40 72 22 32 40 62 40 66 0 3 -46 -38 -102 -92 -125 -120
-190 -172 -298 -237 -99 -61 -182 -93 -224 -88 -31 3 -30 3 19 26 156 73 279
163 315 231 12 22 11 22 -22 16 -19 -3 -104 -36 -189 -72 -187 -79 -326 -134
-478 -186 -208 -71 -373 -72 -761 -6 -278 48 -359 58 -455 57 -98 -1 -101 0
75 -39 229 -52 429 -90 480 -91 48 -1 37 -4 -90 -30 -141 -28 -149 -29 -295
-19 -82 5 -186 12 -230 14 -206 12 -436 38 -495 56 -36 10 -94 37 -130 59 -36
21 -67 38 -68 36 -19 -18 62 -107 128 -140 43 -22 188 -64 275 -81 79 -15 6
-15 -91 0 -159 24 -199 40 -267 104 -80 77 -134 181 -176 342 -13 47 -29 104
-37 128 -60 183 68 476 244 554 62 28 74 17 17 -17 -119 -69 -181 -159 -193
-282 -7 -72 0 -169 11 -143 3 8 11 49 17 90 12 84 34 137 81 193 34 41 129
120 136 114 2 -3 -18 -40 -45 -83 -48 -79 -87 -163 -79 -171 3 -2 20 18 39 45
20 27 65 75 102 107 37 33 91 92 121 132 53 70 90 101 103 88 3 -3 5 -24 3
-45 -3 -45 18 -152 29 -145 4 3 10 27 14 54 9 69 48 120 153 201 101 77 129
91 65 32 -47 -43 -57 -71 -19 -51 12 7 41 26 64 42 24 17 46 27 50 23 4 -3 -4
-14 -18 -23 -56 -37 -120 -119 -168 -212 -60 -116 -67 -151 -13 -63 57 94 130
176 212 239 41 32 100 82 132 112 47 44 197 144 205 137 2 -1 -36 -42 -83 -91
-89 -94 -137 -174 -169 -285 -20 -70 -6 -54 30 35 15 39 37 86 48 105 39 67
123 154 190 197 89 58 284 123 367 123 64 0 80 -14 30 -25 -17 -4 -47 -22 -67
-41 l-36 -34 6 -78 c5 -58 1 -94 -12 -147 -10 -39 -21 -99 -24 -135 -5 -60 -5
-62 4 -20 6 25 21 91 35 147 13 56 24 116 24 133 0 57 52 123 130 166 60 34
168 16 131 -21 -6 -6 -13 -41 -16 -80 l-6 -70 25 60 c27 64 65 105 96 105 12
0 35 -22 60 -55 47 -64 126 -130 190 -158 25 -11 62 -31 83 -44 21 -13 43 -23
48 -21 14 5 -107 134 -194 207 -108 90 -220 230 -139 173 87 -62 179 -100 277
-117 223 -38 350 -84 426 -152 61 -55 55 -34 -11 39 -118 131 -239 183 -454
198 -65 5 -122 12 -127 17 -6 6 29 15 91 22 55 8 103 17 106 22 3 5 -58 9
-140 9 -80 0 -146 4 -146 9 0 5 10 11 23 14 12 3 58 14 102 26 44 11 112 21
150 22 l70 1 -50 14 c-102 28 -204 11 -334 -56 -31 -16 -69 -34 -86 -40 -28
-11 -29 -11 -11 8 24 27 123 79 236 123 l95 38 -73 0 c-67 1 -182 -11 -366
-39 -38 -6 -70 -9 -72 -7 -8 8 292 150 377 178 206 67 373 46 522 -68 133
-101 217 -205 272 -336 15 -37 29 -66 31 -64 8 8 -30 137 -60 202 -42 90 -96
165 -169 232 -97 88 -195 123 -342 122 -98 0 -148 -12 -339 -78 -120 -41 -225
-63 -213 -44 4 6 21 13 39 16 44 7 184 74 230 110 57 44 245 135 292 142 51 8
209 -31 287 -70 162 -82 283 -215 393 -432 33 -66 52 -93 41 -60 -46 150 -63
188 -124 280 -144 218 -303 319 -502 319 -80 0 -96 -3 -215 -50 -152 -59 -359
-125 -376 -120 -15 5 390 178 512 218 107 35 211 46 308 32 73 -10 70 -1 -7
22 -60 17 -212 21 -273 7 -44 -10 -51 2 -10 17 47 19 279 62 329 62 119 0 270
-68 372 -167 35 -35 65 -63 67 -63 9 0 -19 65 -44 102 -69 99 -164 165 -305
212 -48 16 -87 33 -87 37 0 18 116 -13 245 -66 44 -18 105 -38 136 -44 31 -7
79 -27 108 -46 53 -35 55 -33 12 23 -33 45 -85 78 -211 137 -58 26 -132 64
-165 82 l-60 35 40 -5 c22 -3 87 -13 145 -21z m3975 -5 c3 -5 -8 -47 -25 -92
-35 -97 -37 -131 -10 -199 31 -79 28 -177 -9 -255 -17 -35 -36 -97 -44 -139
-8 -43 -17 -80 -20 -83 -4 -3 -25 11 -49 31 -47 41 -170 106 -199 106 -10 0
-21 5 -24 10 -3 6 3 10 14 10 41 0 175 -30 197 -45 32 -21 39 -19 42 9 2 29
-8 38 -78 64 -41 16 -48 21 -29 21 30 1 139 37 153 51 21 21 -8 22 -110 6 -88
-15 -134 -17 -263 -10 l-156 8 105 8 c222 16 352 42 416 85 28 18 32 43 7 43
-9 0 -64 -9 -123 -20 -72 -14 -136 -20 -201 -18 -108 3 -101 11 25 27 94 13
161 40 229 93 76 61 29 59 -93 -3 -106 -54 -158 -65 -235 -50 -34 6 -84 11
-111 11 -68 1 -36 16 51 24 45 5 100 20 155 43 47 19 111 43 142 54 111 36
168 75 168 116 0 27 -1 27 -94 -8 -48 -18 -77 -17 -46 1 8 5 49 31 90 59 72
48 112 62 125 42z m-3010 -40 c51 -23 101 -79 114 -128 14 -50 14 -191 -1
-328 -6 -60 -12 -111 -13 -113 -1 -1 -26 8 -56 20 -69 27 -100 56 -134 124
-24 47 -26 59 -17 93 9 36 7 42 -14 60 -31 27 -30 42 2 81 24 28 25 33 12 46
-13 13 -18 12 -40 -6 -32 -24 -38 -25 -38 -3 0 9 18 33 41 55 22 21 37 43 34
48 -9 14 -69 12 -83 -2 -8 -8 -15 -9 -22 -2 -19 19 1 44 44 54 22 6 46 13 51
15 26 9 84 3 120 -14z m-2470 -752 c45 -70 115 -202 115 -216 0 -5 -55 -21
-123 -37 -131 -31 -289 -89 -374 -137 -61 -34 -63 -34 -63 -13 0 8 24 41 53
72 65 69 104 121 141 185 32 56 186 228 198 221 4 -3 28 -36 53 -75z m-726
-232 c15 -44 84 -118 144 -156 l49 -30 -39 -7 c-21 -4 -49 -15 -63 -24 -14
-10 -49 -32 -79 -50 -30 -17 -63 -42 -73 -56 -13 -16 -30 -24 -49 -24 -16 0
-46 -7 -67 -16 -24 -10 -81 -18 -159 -21 l-122 -6 24 59 c14 32 25 66 25 75 0
21 146 163 212 208 50 34 151 80 175 81 6 0 16 -15 22 -33z m3387 -107 c48 -5
93 -15 108 -25 l27 -18 -43 -25 c-145 -85 -345 -267 -404 -368 -38 -65 -42
-38 -10 56 34 98 64 134 144 174 37 19 86 48 110 66 l44 31 -26 24 c-35 32
-98 48 -168 43 -32 -2 -58 -2 -58 1 1 11 155 58 175 54 11 -2 57 -8 101 -13z
m265 -70 c24 -19 24 -19 3 -20 -44 0 -305 -293 -361 -403 -14 -29 -42 -77 -63
-107 -49 -73 -66 -107 -74 -152 -5 -26 -19 -47 -47 -71 l-40 -35 20 -58 c10
-33 31 -124 46 -204 15 -80 35 -181 45 -225 22 -96 35 -182 26 -174 -10 9 -58
196 -94 364 -64 296 -75 540 -27 635 13 25 34 55 48 68 l24 23 -19 -57 c-11
-33 -18 -76 -16 -103 l3 -46 27 85 c15 47 46 115 69 150 24 36 54 82 68 103
61 94 255 244 317 246 12 1 32 -8 45 -19z m-386 -47 c-38 -8 -96 -28 -129 -44
-32 -17 -60 -28 -63 -26 -2 3 13 18 35 35 26 21 56 33 97 40 98 16 140 12 60
-5z m455 -10 c58 -54 191 -229 221 -292 17 -35 39 -91 49 -125 23 -76 25 -52
5 45 -9 44 -37 116 -70 182 -53 105 -66 145 -45 132 5 -3 28 -38 51 -78 23
-40 56 -88 74 -107 48 -51 189 -272 237 -370 94 -195 230 -355 353 -416 77
-39 200 -105 207 -113 7 -6 -219 -241 -232 -241 -9 0 -32 24 -170 174 -101
109 -130 136 -152 136 -41 0 -43 -17 -4 -37 36 -19 306 -278 306 -294 0 -5
-11 -9 -24 -9 -14 0 -47 -22 -87 -58 -139 -126 -151 -128 -266 -47 -43 30
-106 74 -141 96 l-62 41 61 69 c73 83 166 169 182 169 7 0 72 -60 146 -132 75
-73 126 -122 116 -108 -34 43 -249 260 -258 260 -23 0 -102 -69 -177 -154 -47
-53 -87 -96 -90 -96 -12 0 -61 95 -121 237 -35 84 -67 153 -71 153 -7 0 53
-206 83 -282 30 -77 59 -110 131 -148 34 -19 100 -62 145 -97 80 -60 158 -95
194 -86 8 3 38 22 65 43 27 21 79 58 116 82 38 24 127 100 199 171 72 70 136
127 142 127 7 0 39 28 72 61 77 78 225 152 270 135 14 -5 13 -9 -3 -33 -11
-16 -27 -41 -37 -57 l-17 -29 -20 32 c-27 43 -35 39 -9 -4 28 -48 19 -60 -82
-113 -95 -50 -118 -69 -170 -136 -97 -127 -384 -397 -455 -428 -26 -11 -99
-38 -162 -60 -118 -41 -216 -89 -269 -134 -16 -14 -39 -48 -51 -77 l-20 -52 5
70 c4 39 17 111 31 160 38 145 45 193 34 237 -11 39 -58 101 -91 118 -17 10
-17 8 -2 -27 11 -28 14 -60 11 -119 -4 -68 -10 -94 -40 -155 -63 -129 -99
-219 -111 -275 -6 -30 -15 -54 -19 -54 -15 0 -8 81 13 163 47 183 43 266 -25
471 -70 212 -151 368 -238 460 -20 22 -51 66 -67 96 -29 53 -73 92 -88 76 -12
-12 15 -140 46 -212 16 -38 32 -87 36 -109 9 -48 24 -80 25 -51 0 10 5 36 12
57 14 49 27 40 73 -50 47 -94 81 -194 99 -292 9 -47 30 -131 46 -185 44 -144
46 -184 20 -298 -21 -92 -22 -154 -3 -202 3 -8 1 -14 -4 -14 -5 0 -30 42 -55
94 l-47 95 30 59 c35 67 45 143 34 247 -4 36 -8 65 -10 63 -2 -2 -8 -39 -14
-83 -6 -44 -21 -110 -33 -147 l-22 -68 -23 78 c-13 42 -46 145 -73 227 -62
186 -132 479 -165 690 -14 88 -35 199 -45 247 -11 48 -20 89 -20 92 0 41 121
-118 155 -203 27 -71 56 -120 85 -146 25 -23 25 -16 0 32 -10 21 -31 81 -45
133 -15 52 -40 136 -56 185 -16 50 -29 103 -29 119 0 35 20 106 30 106 4 0 10
-19 14 -42 7 -43 46 -172 51 -166 1 2 -1 30 -5 63 -10 86 -4 124 31 201 32 73
87 153 105 154 7 0 8 -18 1 -59 -11 -71 8 -199 48 -327 31 -98 60 -146 44 -74
-6 25 -8 74 -4 110 4 41 0 96 -10 150 -19 108 -19 146 3 193 l17 38 1 -73 c0
-57 6 -83 25 -118 l24 -45 5 45 c6 54 19 57 42 10 10 -19 44 -89 76 -155 75
-155 182 -360 182 -349 0 5 -7 26 -14 49 -8 22 -32 94 -52 160 -20 66 -51 154
-69 195 -18 41 -42 107 -55 145 -13 39 -42 108 -65 156 -73 148 -76 178 -15
122z m402 -60 c22 -20 23 -42 2 -71 -20 -29 -48 -28 -62 3 -17 36 -15 56 6 71
23 18 32 17 54 -3z m368 -133 c134 -120 192 -179 255 -265 67 -91 74 -98 172
-165 75 -52 103 -82 103 -113 0 -30 -28 -75 -58 -92 l-27 -16 45 5 c62 7 100
49 100 109 0 53 -18 72 -115 121 -39 19 -84 49 -100 67 -17 18 -23 29 -15 26
8 -3 56 -22 105 -42 146 -59 182 -114 135 -206 -36 -70 -89 -114 -168 -138
-38 -11 -76 -22 -84 -23 -7 -1 38 -4 99 -8 138 -7 156 -19 82 -54 -30 -14 -84
-50 -121 -81 -36 -30 -69 -55 -73 -55 -7 0 -128 95 -208 165 -100 85 -272 302
-292 365 -14 46 -117 304 -136 341 -23 47 -41 121 -30 132 4 4 20 -8 34 -27
53 -68 97 -54 118 40 l12 53 41 -32 c23 -17 79 -65 126 -107z m-1311 -39 c-14
-22 -49 -45 -49 -32 0 9 47 51 56 51 2 0 -1 -8 -7 -19z m1839 -251 c85 -59
107 -78 100 -86 -8 -7 -122 71 -152 105 -29 32 -11 26 52 -19z m572 -85 c0
-63 -4 -105 -10 -105 -6 0 -10 42 -10 105 0 63 4 105 10 105 6 0 10 -42 10
-105z m-6390 -142 c0 -29 116 -376 143 -429 14 -27 55 -93 91 -148 37 -54 65
-101 62 -103 -12 -12 -119 59 -189 127 -86 81 -96 98 -157 251 -65 162 -64
197 3 282 33 41 47 46 47 20z m4019 -248 c6 -44 16 -120 22 -170 19 -152 51
-265 152 -550 20 -55 50 -148 66 -206 17 -58 53 -153 80 -210 27 -58 59 -129
70 -158 31 -82 95 -184 205 -326 171 -220 185 -239 180 -245 -11 -10 -180 197
-299 365 -53 75 -136 227 -165 298 -17 43 -39 95 -49 115 -26 52 -171 491
-215 650 -40 144 -62 286 -71 452 -6 120 7 112 24 -15z m-460 -100 c10 -99 98
-472 148 -628 34 -107 61 -217 54 -217 -3 1 -31 33 -62 73 -87 112 -142 230
-203 442 -47 162 -72 321 -56 360 9 24 9 25 49 -96 14 -43 31 -78 36 -78 6 -1
11 51 13 131 2 73 5 129 7 123 2 -5 8 -55 14 -110z m-192 -142 c18 -76 30
-139 28 -141 -12 -12 -75 202 -75 256 0 55 18 11 47 -115z m-422 -108 c15 -42
29 -74 32 -72 2 3 -5 28 -16 58 -11 29 -19 54 -18 56 2 1 41 -56 87 -128 46
-72 89 -136 96 -143 7 -7 26 -36 44 -64 37 -61 47 -67 24 -14 -34 76 -44 137
-44 257 1 92 3 116 12 101 22 -39 60 -144 88 -246 40 -147 80 -235 139 -305
27 -33 59 -71 71 -85 l21 -25 -18 30 c-10 17 -32 48 -49 71 -23 31 -39 75 -68
191 -41 165 -45 225 -8 129 57 -149 156 -284 349 -478 136 -138 171 -184 109
-143 -14 10 -26 13 -26 7 0 -5 10 -16 23 -24 12 -9 41 -34 65 -58 31 -32 42
-50 42 -74 0 -17 14 -55 30 -85 17 -30 30 -56 30 -58 0 -1 -26 -3 -59 -3 -57
0 -63 3 -172 76 -94 63 -130 81 -203 101 -48 13 -91 21 -94 18 -4 -4 17 -29
46 -57 29 -27 65 -66 80 -86 15 -20 33 -43 40 -50 17 -18 15 -32 -8 -70 -25
-41 -170 -113 -275 -137 -39 -9 -101 -26 -139 -37 -53 -16 -82 -19 -132 -14
-110 11 -71 -11 53 -29 139 -22 208 -14 323 34 103 43 166 93 207 166 l35 60
-6 -43 c-14 -99 -58 -146 -191 -208 -205 -95 -426 -120 -665 -75 -69 12 -128
25 -132 27 -5 3 -8 1 -8 -4 0 -10 34 -20 230 -68 146 -36 317 -42 505 -16 77
11 141 19 143 17 8 -7 -167 -60 -253 -76 -55 -11 -141 -28 -192 -39 -119 -26
-252 -26 -358 -1 -79 19 -244 74 -398 132 -107 41 -121 31 -22 -16 242 -113
602 -204 808 -205 44 0 77 -4 77 -10 0 -5 -11 -10 -25 -10 -13 0 -56 -5 -94
-12 -174 -30 -460 35 -736 167 -381 182 -640 317 -750 391 -49 33 -110 68
-135 77 -44 17 -179 47 -385 88 -55 11 -147 31 -205 44 -58 13 -125 28 -150
34 -39 9 -34 10 45 6 50 -2 104 -7 120 -11 30 -7 30 -7 12 14 -19 20 -18 21
28 27 81 13 211 -11 382 -70 87 -30 198 -64 246 -75 48 -12 94 -23 102 -27 33
-12 13 28 -27 55 -111 76 -233 118 -309 106 -24 -4 -39 -3 -39 4 0 14 49 30
119 38 53 6 65 3 117 -24 113 -57 190 -99 304 -165 63 -36 156 -80 205 -97 50
-17 167 -69 261 -116 94 -46 175 -84 179 -84 17 0 -24 35 -114 97 -54 37 -182
107 -291 160 -310 148 -470 236 -470 255 0 15 21 8 133 -46 136 -66 171 -76
265 -76 69 0 92 10 55 24 -49 19 -292 162 -289 171 6 20 79 7 149 -28 40 -19
118 -55 173 -80 56 -25 139 -70 185 -100 46 -30 102 -64 124 -76 51 -27 272
-130 305 -142 l25 -9 -25 18 c-14 9 -64 53 -111 97 -129 120 -186 161 -269
191 -41 14 -96 37 -121 49 -54 28 -165 101 -174 115 -11 17 15 11 58 -14 23
-14 89 -43 147 -65 l104 -41 -36 37 c-45 47 -70 97 -66 130 3 24 5 23 54 -26
29 -28 58 -51 65 -51 11 0 11 2 -1 10 -33 21 1 18 69 -5 79 -26 171 -71 243
-116 61 -39 418 -169 463 -169 6 0 -21 18 -60 39 -38 21 -101 57 -140 80 -38
22 -84 46 -102 52 -61 20 -34 29 86 29 95 0 138 -5 216 -25 54 -14 99 -24 101
-22 5 5 -273 114 -336 132 -30 8 -111 21 -178 29 -96 12 -252 48 -252 59 0 2
46 3 103 4 56 1 179 2 272 4 181 2 351 -13 399 -37 53 -26 52 -15 -2 22 -67
45 -116 62 -200 70 -37 4 -109 20 -161 35 -51 16 -104 29 -117 29 -12 0 -26 5
-29 10 -7 12 69 5 184 -16 41 -8 76 -12 78 -10 6 5 -55 39 -105 59 -80 32
-234 67 -293 67 -115 0 -222 -35 -381 -126 -53 -31 -102 -54 -108 -52 -14 4
147 122 211 154 139 70 335 84 508 35 56 -15 104 -24 107 -20 3 5 -27 43 -66
84 -55 58 -82 98 -117 171 -25 52 -43 97 -41 100 3 2 42 -38 87 -90 95 -110
150 -157 246 -214 243 -142 279 -176 355 -331 30 -61 65 -118 77 -126 36 -24
228 -61 238 -45 3 4 -12 17 -33 28 -155 81 -182 104 -229 196 -32 63 -232 264
-355 356 -126 95 -159 150 -177 297 -14 118 4 126 44 18z m3233 -239 c58 -55
108 -133 100 -157 -4 -12 -209 191 -228 227 -12 21 -11 26 5 38 17 12 21 10
40 -18 12 -17 49 -57 83 -90z m397 -45 c55 -35 100 -80 90 -90 -6 -5 -28 -14
-50 -21 -52 -16 -129 -55 -181 -91 l-41 -28 -42 43 -43 43 20 64 c16 54 24 67
53 81 48 25 154 24 194 -1z m-1096 -92 c34 -82 24 -149 -33 -224 -13 -16 -43
-66 -66 -110 -58 -108 -84 -142 -128 -164 -66 -33 -326 -114 -367 -114 -53 0
-229 19 -280 31 l-40 8 40 18 c22 10 85 26 140 36 55 11 140 33 189 50 49 17
128 36 175 41 118 13 125 17 139 79 19 82 16 88 -21 48 -19 -20 -46 -40 -61
-44 -26 -6 -112 12 -121 26 -2 3 40 28 93 55 145 71 166 91 187 172 18 75 26
88 70 120 46 34 60 29 84 -28z m1300 -94 c88 -93 103 -121 76 -141 -47 -35
-115 -6 -200 83 -36 37 -64 71 -62 75 2 9 87 55 103 57 6 0 44 -33 83 -74z
m-7883 4 c8 -16 14 -48 14 -72 0 -56 -32 -89 -87 -91 -32 -1 -38 2 -41 22 -2
12 6 42 17 65 11 23 23 56 27 72 14 63 38 64 70 4z m2963 -64 c-6 -48 -9 -110
-7 -136 3 -27 2 -49 -2 -49 -10 0 -20 52 -20 102 0 43 29 182 36 175 3 -3 0
-44 -7 -92z m4756 -2 c79 -80 90 -108 49 -124 -35 -13 -224 86 -224 117 0 10
83 82 97 84 1 0 36 -35 78 -77z m-6020 -449 c22 -2 76 -8 120 -14 44 -5 123
-14 175 -20 79 -9 116 -20 225 -67 72 -30 168 -68 215 -84 151 -51 201 -79
545 -304 44 -29 91 -58 104 -65 43 -22 164 -60 195 -61 29 -1 28 -2 -11 -12
-23 -7 -44 -14 -47 -17 -11 -12 144 -63 278 -91 78 -16 175 -41 216 -54 41
-14 100 -29 130 -34 46 -7 28 -9 -105 -10 -179 -2 -181 -12 -5 -30 213 -22
198 -29 -62 -30 -212 -1 -262 2 -355 20 -89 17 -128 20 -218 14 -92 -5 -136
-2 -265 19 -309 50 -457 52 -640 10 -41 -9 -111 -22 -155 -29 -70 -10 -76 -13
-45 -18 19 -4 132 -11 252 -17 177 -8 244 -7 370 6 150 15 157 15 358 -10 113
-14 311 -30 440 -36 288 -13 381 -20 376 -29 -8 -12 -384 -13 -566 -1 -96 6
-229 19 -296 30 -104 17 -167 19 -450 18 -295 -2 -436 5 -571 27 l-32 6 33 44
c72 94 88 229 43 365 -33 99 -109 280 -135 322 -23 37 -119 134 -126 127 -2
-2 22 -37 54 -77 66 -81 123 -195 175 -344 63 -179 44 -319 -54 -411 -59 -55
-76 -61 -165 -52 -94 8 -107 16 -79 47 50 55 93 180 93 273 0 77 -23 159 -104
368 -71 182 -71 187 -17 221 14 9 35 13 46 10 11 -3 38 -7 60 -10z m-233 -235
c37 -73 68 -190 68 -251 l0 -31 -88 6 c-99 6 -200 -4 -281 -28 -67 -20 -57
-32 34 -43 l70 -8 -55 -7 c-30 -3 -100 -11 -155 -16 -120 -13 -168 -27 -199
-58 -45 -45 -43 -57 39 -273 41 -109 70 -144 165 -200 36 -21 90 -59 120 -85
30 -25 73 -51 95 -59 22 -8 63 -22 90 -32 126 -44 168 -168 68 -198 -31 -10
-193 70 -193 95 0 10 5 21 12 25 12 8 -44 29 -117 44 -31 6 -44 5 -57 -7 -15
-13 -24 -13 -81 1 -90 23 -132 20 -193 -11 -53 -27 -55 -27 -126 -14 -131 24
-131 24 -124 13 10 -16 -4 -42 -23 -42 -49 0 -134 93 -164 180 -46 133 -87
232 -106 256 -28 36 -65 60 -185 120 -66 32 -128 74 -185 123 -47 41 -107 87
-134 103 -63 39 -77 69 -77 163 0 92 13 126 73 187 81 82 194 97 350 47 34
-11 102 -24 152 -29 79 -8 104 -6 210 16 78 16 180 28 290 34 480 26 627 39
644 56 13 12 29 -8 63 -77z"/>
<path d="M4953 9094 c-4 -10 19 -68 63 -155 38 -76 70 -135 72 -130 8 23 -97
283 -120 297 -4 3 -11 -2 -15 -12z"/>
<path d="M3517 8656 c-35 -13 -67 -43 -94 -90 -21 -36 -15 -35 51 8 43 30 90
50 147 65 46 12 89 24 94 26 6 2 -28 4 -75 4 -47 0 -102 -6 -123 -13z"/>
<path d="M3780 8539 c-153 -16 -249 -49 -323 -110 -46 -38 -41 -52 5 -17 91
70 149 87 367 113 68 8 126 17 129 20 7 7 -76 4 -178 -6z"/>
<path d="M3635 8390 c-48 -10 -246 -87 -260 -102 -7 -7 -4 -9 10 -5 11 3 67
11 125 17 58 6 159 25 225 41 66 16 161 35 210 43 l90 14 -180 0 c-99 0 -198
-4 -220 -8z"/>
<path d="M3840 8279 c-25 -5 -83 -14 -130 -19 -106 -13 -274 -54 -241 -58 49
-7 378 55 421 79 18 10 10 10 -50 -2z"/>
<path d="M3300 8037 c-78 -28 -114 -47 -106 -54 3 -3 31 1 63 10 76 22 215 37
333 37 152 0 94 20 -76 26 -139 5 -153 4 -214 -19z"/>
<path d="M4200 7780 c-113 -14 -171 -43 -251 -123 -39 -39 -67 -73 -61 -75 6
-2 37 4 70 12 123 32 243 11 362 -65 90 -58 98 -54 25 13 -109 100 -133 116
-191 129 -30 7 -51 15 -47 19 29 26 186 38 266 21 23 -5 69 -15 102 -21 121
-24 210 -54 250 -84 22 -17 80 -58 129 -91 49 -33 123 -91 165 -130 70 -65 74
-67 51 -30 -66 112 -168 221 -270 288 -150 99 -418 161 -600 137z"/>
<path d="M4670 7610 c8 -5 20 -10 25 -10 6 0 3 5 -5 10 -8 5 -19 10 -25 10 -5
0 -3 -5 5 -10z"/>
<path d="M3898 7533 c-42 -11 -12 -19 70 -19 74 0 99 -5 168 -32 45 -18 104
-49 133 -70 28 -20 79 -56 114 -80 l62 -43 -74 70 c-41 39 -102 85 -140 104
-105 55 -264 88 -333 70z"/>
<path d="M4750 7344 c0 -2 47 -26 104 -54 126 -59 171 -96 181 -148 13 -71 37
-142 46 -137 5 4 9 45 9 92 l0 87 -48 45 c-36 35 -67 52 -127 73 -82 28 -165
49 -165 42z"/>
<path d="M3595 7303 c-11 -2 -30 -6 -42 -9 -13 -2 -23 -8 -23 -13 0 -8 31 -17
200 -58 98 -24 182 -76 248 -152 28 -34 52 -59 52 -57 0 10 -67 104 -109 154
-89 103 -220 158 -326 135z"/>
<path d="M4890 7176 c0 -4 34 -50 75 -103 78 -99 99 -109 41 -20 -33 51 -116
139 -116 123z"/>
<path d="M2083 6519 c-133 -124 -207 -208 -95 -109 158 141 177 159 170 165
-3 4 -37 -22 -75 -56z"/>
<path d="M3009 6307 c-48 -45 -129 -131 -180 -191 -141 -162 -267 -265 -414
-335 -66 -32 -135 -64 -152 -72 -33 -14 -40 -32 -23 -59 8 -12 12 -11 32 7 13
12 57 33 99 46 90 30 183 75 259 127 68 47 185 166 235 240 21 30 59 80 85
110 51 59 158 211 148 210 -2 0 -42 -38 -89 -83z"/>
<path d="M2615 6225 c-78 -17 -149 -45 -260 -104 -108 -56 -239 -140 -232
-147 14 -15 145 34 261 98 72 39 171 87 220 107 49 20 91 42 94 49 4 15 -5 14
-83 -3z"/>
<path d="M2520 6088 c-80 -43 -180 -106 -180 -114 0 -4 236 120 261 137 13 9
22 19 19 22 -3 3 -48 -17 -100 -45z"/>
<path d="M5963 8453 c4 -65 14 -145 23 -177 19 -73 92 -220 148 -301 23 -33
61 -95 85 -138 24 -43 82 -126 130 -185 48 -59 107 -134 131 -167 60 -83 240
-255 240 -230 0 3 -28 36 -63 73 -35 37 -83 101 -107 142 -24 41 -67 104 -95
140 -70 88 -108 147 -103 161 2 7 17 1 38 -18 53 -45 90 -68 144 -88 60 -22
234 -112 259 -133 16 -14 17 -13 17 10 0 33 -12 42 -170 129 -269 148 -437
304 -537 495 -65 125 -108 250 -117 337 -4 37 -12 67 -18 67 -8 0 -9 -37 -5
-117z"/>
<path d="M6200 8535 c0 -48 107 -232 194 -333 25 -29 82 -102 125 -161 44 -59
99 -122 123 -141 24 -19 76 -63 116 -98 l72 -63 0 33 c0 62 -42 104 -174 178
l-81 46 -132 199 c-73 109 -147 216 -164 238 -17 21 -42 57 -55 80 -17 29 -24
36 -24 22z"/>
<path d="M7133 8518 c24 -65 44 -184 54 -323 l7 -110 7 90 c3 50 2 119 -3 155
-10 74 -44 186 -60 197 -7 4 -9 0 -5 -9z"/>
<path d="M6554 8263 c10 -39 44 -72 155 -151 53 -37 113 -82 133 -101 46 -40
51 -23 11 37 -33 49 -136 133 -205 168 -28 14 -62 37 -76 51 l-25 25 7 -29z"/>
<path d="M8030 7911 c-30 -15 -102 -58 -159 -97 -57 -38 -134 -89 -170 -113
-36 -24 -61 -46 -54 -48 19 -7 95 36 143 81 25 23 88 64 140 90 118 61 170 93
170 106 0 14 -9 12 -70 -19z"/>
<path d="M6360 7905 c13 -14 26 -25 28 -25 3 0 -5 11 -18 25 -13 14 -26 25
-28 25 -3 0 5 -11 18 -25z"/>
<path d="M5990 7893 c-1 -85 48 -215 133 -353 22 -36 62 -105 90 -155 48 -87
224 -331 266 -369 37 -34 31 -12 -20 67 -28 43 -74 121 -103 175 -121 221
-143 259 -182 312 -62 85 -123 195 -155 279 -23 62 -28 70 -29 44z"/>
<path d="M8894 7548 c-4 -7 -15 -24 -23 -38 -10 -15 -11 -21 -3 -16 13 7 46
66 38 66 -3 0 -8 -6 -12 -12z"/>
<path d="M8315 7482 c-68 -13 -325 -142 -284 -142 40 0 266 88 310 121 24 18
11 29 -26 21z"/>
<path d="M8800 7390 c-6 -11 -8 -20 -6 -20 3 0 10 9 16 20 6 11 8 20 6 20 -3
0 -10 -9 -16 -20z"/>
<path d="M8175 7108 c-33 -17 -85 -42 -115 -55 -52 -23 -53 -24 -17 -19 43 6
127 46 172 82 39 31 33 30 -40 -8z"/>
<path d="M9240 7190 c-74 -18 -94 -92 -30 -114 19 -7 57 -27 84 -44 60 -39 91
-40 136 -7 37 28 53 22 53 -19 0 -14 3 -26 7 -26 18 0 40 40 40 71 0 43 -56
114 -107 135 -35 15 -127 17 -183 4z"/>
<path d="M6915 5591 c-92 -33 -125 -50 -131 -65 -3 -8 -1 -72 4 -143 l9 -128
2 127 c1 147 -4 140 115 178 85 28 179 24 243 -9 55 -28 154 -125 180 -176 23
-44 45 -132 63 -243 7 -41 15 -70 19 -65 14 16 -5 266 -24 311 -17 42 -97 123
-173 176 -78 53 -216 70 -307 37z"/>
<path d="M8198 5403 c33 -47 88 -164 118 -252 19 -54 37 -89 52 -100 75 -52
89 -71 145 -203 72 -165 191 -388 181 -338 -11 59 -73 219 -141 360 -47 98
-76 146 -107 175 -30 28 -52 64 -76 120 -33 81 -86 167 -142 230 -36 42 -58
47 -30 8z"/>
<path d="M7098 5333 c22 -32 78 -137 127 -233 48 -96 91 -179 97 -185 7 -7 8
15 3 65 -15 163 -32 211 -97 285 -35 40 -146 125 -163 125 -3 0 12 -26 33 -57z"/>
<path d="M6890 5159 c0 -41 50 -229 76 -286 14 -28 42 -67 64 -87 31 -28 137
-90 213 -124 4 -2 7 1 7 7 0 5 -21 25 -47 42 -118 80 -140 105 -204 232 -34
67 -72 149 -85 182 -17 44 -23 53 -24 34z"/>
<path d="M6270 5160 c0 -5 4 -10 9 -10 6 0 13 5 16 10 3 6 -1 10 -9 10 -9 0
-16 -4 -16 -10z"/>
<path d="M8723 4670 c2 -8 12 -42 22 -75 9 -33 28 -85 40 -116 13 -31 33 -103
44 -160 37 -187 42 -209 52 -209 5 0 9 40 9 88 0 124 -26 213 -105 362 -37 69
-65 118 -62 110z"/>
<path d="M8774 4180 c3 -19 10 -66 16 -105 5 -38 14 -83 20 -100 l10 -30 -4
35 c-19 149 -30 216 -38 225 -6 6 -8 -3 -4 -25z"/>
<path d="M4898 6020 c35 -35 79 -91 99 -124 47 -76 103 -204 104 -236 0 -21 2
-22 8 -6 12 32 -7 145 -35 202 -32 66 -90 133 -149 173 -84 57 -90 54 -27 -9z"/>
<path d="M3730 5500 c-30 -4 -53 -8 -50 -9 3 -2 45 -5 94 -7 143 -6 320 -62
411 -128 72 -54 70 -30 -3 32 -123 103 -256 136 -452 112z"/>
<path d="M3311 5004 c0 -11 3 -14 6 -6 3 7 2 16 -1 19 -3 4 -6 -2 -5 -13z"/>
<path d="M2990 4959 c-100 -68 -165 -132 -189 -188 -19 -45 -38 -182 -42 -306
-4 -118 1 -124 25 -30 29 111 75 226 128 325 46 84 115 185 147 214 21 19 28
36 14 36 -5 0 -42 -23 -83 -51z"/>
<path d="M3321 4870 c-1 -107 1 -119 28 -175 44 -94 312 -427 329 -410 3 3 -8
20 -25 38 -38 38 -71 98 -206 367 -57 113 -108 226 -114 250 -10 41 -11 34
-12 -70z"/>
<path d="M3550 4902 c0 -25 82 -192 109 -219 73 -77 156 -115 374 -173 102
-27 221 -63 264 -80 69 -28 180 -60 208 -60 6 0 -24 19 -65 41 -41 23 -104 62
-140 87 -133 96 -136 98 -450 242 -74 34 -157 78 -185 99 -111 82 -115 85
-115 63z"/>
<path d="M1810 4200 c-76 -7 -73 -8 90 -51 69 -17 175 -47 235 -65 205 -61
386 -104 435 -104 19 0 -90 53 -220 107 -277 116 -352 131 -540 113z"/>
<path d="M4110 4003 c-8 -3 -64 -27 -125 -54 -170 -74 -225 -86 -540 -118 -55
-6 -145 -14 -200 -17 l-100 -7 75 -20 c57 -16 107 -20 210 -20 131 0 139 1
293 46 171 50 243 81 352 152 64 41 75 52 35 38z"/>
<path d="M5397 4323 c-4 -3 -7 -11 -7 -17 0 -6 5 -5 12 2 6 6 9 14 7 17 -3 3
-9 2 -12 -2z"/>
<path d="M6474 4295 c13 -54 108 -214 177 -296 38 -44 89 -112 115 -150 25
-39 48 -68 51 -66 12 12 -63 160 -107 213 -51 60 -97 122 -189 254 -41 58 -52
68 -47 45z"/>
<path d="M6415 4170 c4 -14 24 -65 45 -115 20 -49 43 -107 51 -127 7 -21 17
-38 22 -38 20 0 -5 85 -53 178 -57 112 -75 140 -65 102z"/>
<path d="M6535 3660 c16 -16 33 -30 38 -30 4 0 -1 14 -13 30 -12 17 -29 30
-38 30 -12 0 -9 -8 13 -30z"/>
<path d="M6440 3660 c0 -13 68 -80 82 -80 5 0 25 -16 44 -37 19 -20 37 -33 41
-29 4 3 -16 25 -43 49 -27 23 -63 57 -81 75 -33 34 -43 39 -43 22z"/>
<path d="M6587 3616 c-6 -16 2 -28 14 -20 12 7 11 34 0 34 -5 0 -11 -6 -14
-14z"/>
<path d="M6382 3608 c-19 -19 -14 -38 9 -38 11 0 18 4 15 9 -4 5 -1 11 6 13 6
2 8 10 4 16 -9 15 -19 15 -34 0z"/>
<path d="M6642 3588 c3 -7 13 -15 23 -17 17 -3 17 -2 3 13 -20 19 -31 21 -26
4z"/>
<path d="M6455 3538 c17 -12 47 -39 68 -59 45 -45 50 -38 5 8 -24 25 -28 33
-15 33 9 0 17 5 17 10 0 6 -11 8 -25 4 -18 -4 -27 -1 -31 10 -3 9 -16 16 -28
16 -19 -1 -18 -3 9 -22z"/>
<path d="M6703 3538 c4 -12 1 -18 -8 -18 -8 0 -15 -7 -15 -15 0 -21 13 -19 28
6 11 17 11 24 1 33 -9 8 -11 7 -6 -6z"/>
<path d="M6404 3522 c15 -26 140 -112 162 -112 27 0 40 16 19 24 -8 3 -15 1
-15 -4 0 -6 -5 -10 -11 -10 -12 0 -92 59 -97 72 -2 5 -9 8 -15 8 -6 0 -19 8
-30 18 -11 9 -17 11 -13 4z"/>
<path d="M6560 3500 c20 -13 33 -13 25 0 -3 6 -14 10 -23 10 -15 0 -15 -2 -2
-10z"/>
<path d="M6630 3470 c-8 -5 -11 -12 -7 -16 4 -4 13 -2 19 4 15 15 7 24 -12 12z"/>
<path d="M6391 3170 c-28 -38 -47 -70 -42 -70 16 0 101 103 101 122 0 10 -2
18 -4 18 -3 0 -27 -31 -55 -70z"/>
<path d="M6659 4763 c64 -108 209 -319 242 -352 8 -9 38 -45 66 -81 96 -122
151 -160 233 -160 29 0 40 4 40 15 0 8 -4 15 -8 15 -9 0 -45 28 -131 103 -54
47 -91 88 -186 208 -99 125 -294 318 -256 252z"/>
<path d="M6885 4190 c3 -5 12 -10 18 -10 7 0 46 -20 87 -45 87 -52 112 -59 50
-14 -74 54 -173 98 -155 69z"/>
<path d="M4350 3325 c40 -48 43 -51 32 -30 -6 11 -21 29 -34 40 -22 19 -22 19
2 -10z"/>
<path d="M3200 2607 c0 -2 23 -19 52 -36 28 -18 47 -26 40 -19 -11 14 -92 62
-92 55z"/>
<path d="M3415 2473 c23 -23 127 -103 147 -114 16 -8 11 1 -16 29 -21 22 -61
52 -90 67 -28 15 -46 23 -41 18z"/>
<path d="M2439 2412 c39 -76 95 -111 347 -216 61 -25 131 -57 155 -70 206
-116 290 -156 339 -163 32 -5 28 0 -53 60 -86 64 -243 146 -432 227 -52 22
-97 40 -100 40 -21 0 -203 98 -232 126 -20 19 -38 34 -40 34 -2 0 5 -17 16
-38z"/>
<path d="M8078 3683 c6 -2 18 -2 25 0 6 3 1 5 -13 5 -14 0 -19 -2 -12 -5z"/>
<path d="M8036 3661 c-44 -48 12 -101 152 -146 59 -19 99 -39 138 -71 30 -25
66 -50 80 -56 41 -19 22 -33 -56 -40 -40 -4 -76 -10 -79 -14 -14 -14 37 -34
87 -34 65 0 120 24 128 56 8 32 1 40 -66 74 -33 16 -87 48 -121 70 -39 25 -83
44 -121 51 -95 19 -155 69 -130 109 15 25 10 26 -12 1z"/>
<path d="M27 103 c-25 -4 -27 -8 -27 -54 0 -48 1 -49 30 -49 30 0 30 1 30 55
0 30 -1 54 -2 54 -2 -1 -15 -4 -31 -6z"/>
</g>
</svg>
