<?xml version="1.0" standalone="no"?>
<!DOCTYPE svg PUBLIC "-//W3C//DTD SVG 20010904//EN"
 "http://www.w3.org/TR/2001/REC-SVG-20010904/DTD/svg10.dtd">
<svg version="1.0" xmlns="http://www.w3.org/2000/svg"
 width="1024.000000pt" height="1024.000000pt" viewBox="0 0 1024.000000 1024.000000"
 preserveAspectRatio="xMidYMid meet">

<g transform="translate(0.000000,1024.000000) scale(0.100000,-0.100000)"
fill="#000000" stroke="none">
<path d="M4335 9464 c-100 -5 -348 -32 -500 -55 -197 -28 -698 -145 -689 -160
2 -4 -10 -6 -28 -4 -142 17 -228 25 -323 30 -60 2 -148 12 -195 21 -113 21
-397 29 -534 15 -80 -8 -132 -8 -201 1 -84 10 -96 9 -131 -8 -47 -23 -81 -84
-89 -159 -5 -45 -3 -42 15 25 32 121 85 151 214 121 24 -6 85 -5 162 1 102 9
152 8 296 -6 95 -10 204 -24 243 -33 50 -11 134 -17 290 -18 160 -2 234 -7
270 -18 28 -8 91 -27 140 -42 150 -44 186 -57 301 -106 111 -47 156 -57 397
-89 161 -21 279 -84 408 -218 73 -74 93 -90 126 -95 23 -4 49 -17 64 -33 33
-35 135 -101 247 -160 112 -58 261 -175 421 -328 74 -71 140 -125 179 -146 85
-45 135 -91 191 -174 27 -39 78 -98 113 -131 121 -114 188 -217 230 -353 11
-37 31 -85 44 -107 12 -22 30 -58 40 -80 l16 -40 -23 21 c-58 52 -176 84 -312
84 -45 0 -139 7 -209 16 -117 15 -134 15 -215 0 -48 -9 -122 -16 -163 -15
l-75 1 111 23 c136 28 189 51 232 99 39 45 43 65 4 27 -15 -15 -52 -37 -82
-48 -74 -28 -360 -102 -360 -93 0 3 14 19 31 36 17 16 39 45 49 64 10 19 51
67 90 105 39 39 90 93 113 120 l42 50 -45 -37 c-25 -21 -90 -69 -145 -107
-103 -72 -179 -142 -199 -182 -20 -42 -149 -93 -285 -114 l-44 -7 24 29 c13
17 49 47 80 67 31 20 81 63 110 94 187 200 248 271 281 326 44 71 51 99 11 42
-16 -21 -102 -106 -193 -188 -151 -137 -174 -154 -278 -204 -62 -31 -117 -54
-123 -52 -6 2 23 30 64 62 42 32 86 73 99 90 37 49 118 197 103 188 -7 -4 -47
-44 -89 -88 -59 -64 -94 -91 -156 -123 -84 -44 -96 -41 -56 12 14 18 31 50 39
72 8 22 18 49 22 59 8 19 8 19 -21 0 -34 -24 -358 -132 -419 -141 -51 -7 -114
8 -620 146 -60 16 -148 37 -195 46 -152 29 -184 37 -231 61 -48 24 -62 47 -87
137 l-11 38 44 -40 c73 -67 155 -103 455 -199 304 -98 524 -148 613 -138 51 5
387 111 442 139 43 22 158 145 190 202 38 69 58 127 53 152 -2 11 -26 -24 -63
-91 -53 -97 -119 -176 -147 -176 -4 0 5 21 21 48 23 40 75 182 68 189 -2 1
-38 -48 -82 -110 -48 -67 -100 -126 -130 -149 -67 -52 -185 -89 -300 -95 -86
-5 -93 -4 -152 26 -34 17 -97 40 -140 52 -87 24 -323 108 -336 119 -16 14 188
-28 288 -60 109 -34 223 -42 300 -21 38 10 137 66 181 101 36 29 88 90 82 96
-3 3 -39 -20 -79 -52 -84 -64 -169 -108 -243 -125 -45 -9 -66 -8 -170 16 -130
29 -317 88 -433 137 -78 33 -94 48 -24 23 23 -8 126 -35 229 -61 204 -51 314
-60 382 -32 l35 15 -80 17 c-146 32 -309 77 -425 118 -147 51 -151 54 -106 62
20 4 96 32 169 62 72 30 199 80 281 110 155 56 269 104 263 110 -2 2 -35 -7
-73 -20 -44 -15 -103 -26 -164 -30 l-95 -5 55 18 c97 33 387 177 377 187 -2 2
-61 -15 -132 -38 -197 -62 -512 -144 -685 -179 -85 -17 -163 -36 -173 -41 -10
-5 -21 -7 -24 -5 -24 24 132 139 252 186 126 49 359 118 583 172 95 22 171 43
169 45 -2 3 -24 0 -48 -5 -24 -6 -124 -19 -221 -30 -244 -29 -411 -66 -533
-121 -58 -26 -254 -121 -560 -270 -135 -66 -254 -110 -298 -110 -12 0 45 39
128 87 133 77 161 98 253 190 113 113 132 151 30 58 -83 -76 -163 -132 -276
-194 -52 -29 -125 -76 -164 -106 -68 -51 -113 -73 -127 -60 -3 4 24 33 60 65
78 70 209 218 351 397 58 73 143 174 189 224 110 120 138 158 194 259 25 47
54 94 64 105 10 11 21 27 25 35 13 24 -282 -281 -447 -465 -179 -198 -312
-361 -351 -427 -35 -60 -120 -146 -153 -154 -34 -9 -43 8 -43 77 0 72 -56 455
-77 534 -32 115 -122 306 -227 480 -60 99 -41 49 52 -141 108 -218 126 -270
158 -443 14 -75 31 -167 39 -206 7 -38 17 -122 21 -186 l7 -117 -34 -7 c-19
-3 -41 -9 -50 -11 -14 -4 -16 5 -13 68 3 64 2 68 -6 31 -12 -58 -36 -106 -66
-134 l-25 -24 -20 25 c-10 14 -26 49 -35 78 -22 74 -28 59 -10 -22 17 -73 41
-126 57 -126 5 0 35 10 67 21 47 18 83 22 202 25 275 5 387 19 509 65 29 11
55 18 56 17 2 -2 -2 -19 -9 -38 -15 -48 -46 -61 -230 -95 l-156 -29 -89 27
c-160 48 -223 35 -295 -63 -98 -132 -268 -506 -314 -690 -16 -63 -46 -155 -65
-203 -25 -61 -31 -85 -20 -75 15 11 16 11 9 -7 -40 -107 -48 -286 -17 -385 11
-36 21 -72 21 -81 0 -9 6 -22 14 -28 11 -10 16 -6 25 16 10 26 10 24 7 -17 -4
-58 19 -229 33 -243 8 -8 11 -3 12 18 0 29 1 29 11 7 7 -13 36 -34 69 -49 42
-19 63 -36 78 -63 25 -45 76 -96 102 -103 14 -4 11 2 -11 25 -17 16 -35 40
-41 51 -9 18 -7 17 13 -4 12 -15 38 -36 56 -48 l32 -23 29 31 c27 29 33 31 95
30 36 -1 66 -5 66 -10 0 -4 -79 -88 -177 -186 -97 -98 -209 -216 -250 -263
-41 -47 -81 -88 -89 -93 -8 -4 -14 -14 -14 -21 0 -6 -16 -30 -36 -52 -34 -36
-149 -197 -183 -255 -78 -131 -191 -358 -191 -382 0 -7 -4 -17 -10 -23 -12
-12 -75 -184 -112 -309 -62 -205 -102 -454 -129 -800 -13 -163 -6 -432 15
-590 62 -461 258 -865 586 -1208 36 -38 66 -71 67 -75 1 -4 -28 -20 -65 -37
-178 -78 -234 -108 -267 -140 -19 -20 -35 -40 -35 -45 0 -6 -38 -10 -87 -10
-81 0 -89 -2 -115 -27 -46 -44 -37 -133 13 -133 10 0 21 5 25 12 4 7 3 8 -5 4
-19 -12 -41 14 -41 49 0 56 30 71 161 79 87 6 122 12 158 30 25 13 80 36 121
50 41 15 143 63 225 106 83 43 197 99 255 125 271 119 292 130 341 174 35 33
57 64 74 106 13 33 28 60 32 60 62 0 291 -59 355 -91 61 -31 68 -56 40 -144
-12 -36 -31 -109 -44 -162 -12 -54 -26 -98 -30 -98 -12 0 -10 6 17 95 14 44
25 85 25 90 0 22 -21 -24 -41 -92 -12 -40 -25 -73 -29 -73 -4 0 -46 18 -94 41
-48 22 -90 39 -93 36 -7 -7 79 -64 139 -92 97 -45 123 -35 155 60 13 39 13 39
7 -25 -4 -36 -9 -108 -13 -160 -7 -106 -20 -138 -74 -170 -42 -26 -120 -26
-295 1 -188 29 -248 28 -357 -4 -71 -21 -110 -27 -190 -27 -59 0 -122 -6 -155
-16 -63 -17 -509 -39 -604 -29 -33 4 -85 17 -116 29 -84 34 -106 38 -120 21
-21 -25 3 -61 57 -88 109 -56 389 -127 648 -166 511 -78 978 -136 1315 -166
96 -8 222 -19 280 -25 255 -24 871 -62 1285 -79 481 -20 685 -18 1122 12 473
33 553 41 833 77 80 10 208 26 285 35 323 38 731 127 1000 218 232 79 329 122
505 225 404 236 805 692 999 1136 99 226 180 535 186 710 3 77 6 91 28 115 71
77 251 364 323 517 204 435 274 817 234 1274 -50 559 -315 1110 -858 1779
-311 384 -861 922 -1263 1235 -63 49 -134 105 -159 125 -225 182 -748 512
-1041 658 -113 56 -429 193 -544 236 -266 99 -757 222 -1025 257 -277 36 -694
56 -925 44z m-1471 -1546 c3 -13 8 -50 11 -83 21 -196 82 -350 248 -630 75
-127 125 -185 222 -260 43 -33 135 -106 206 -162 179 -143 295 -198 484 -228
101 -17 322 -19 490 -5 61 5 214 12 340 16 206 6 234 8 265 27 19 11 72 40
118 64 46 24 134 76 196 117 229 150 331 205 461 246 80 25 215 39 215 22 0
-5 -33 -16 -72 -22 -77 -13 -184 -46 -280 -86 -54 -22 -164 -87 -333 -196 -38
-25 -110 -67 -160 -93 -102 -54 -140 -79 -174 -112 -20 -19 -23 -30 -18 -63
10 -76 73 -127 141 -115 26 5 36 4 36 -5 0 -9 -16 -11 -57 -8 -51 4 -60 9 -90
43 -28 33 -33 35 -33 17 0 -11 4 -32 10 -46 5 -14 5 -28 1 -30 -10 -6 -21 41
-21 89 0 59 -11 97 -27 90 -26 -9 -351 -43 -539 -56 -368 -24 -668 24 -917
147 -48 24 -127 74 -175 111 -116 90 -308 288 -361 371 -68 106 -141 230 -189
320 -24 46 -46 81 -50 78 -7 -7 74 -170 122 -246 134 -212 156 -241 311 -399
101 -104 186 -180 230 -209 39 -25 89 -62 113 -83 91 -79 255 -134 484 -163
70 -9 143 -16 163 -16 20 0 35 -5 35 -12 0 -8 73 -9 293 -3 160 5 327 9 370 9
66 1 77 3 77 19 0 21 -49 22 -277 8 -81 -6 -215 -12 -298 -14 -148 -5 -149 -5
-75 8 41 7 147 16 235 19 179 7 402 25 425 34 8 3 -10 9 -40 12 l-55 7 47 1
c25 1 53 5 62 8 14 5 16 -5 16 -69 l0 -76 -32 -6 c-18 -4 -58 -5 -88 -2 l-55
3 62 2 c34 1 65 7 68 12 4 7 -101 8 -327 4 -283 -6 -344 -4 -408 9 -41 9 -109
19 -150 22 -96 8 -240 32 -309 52 -65 18 -171 74 -226 117 -22 18 -68 49 -102
70 -34 20 -114 84 -178 141 -112 102 -148 128 -109 83 84 -102 217 -217 368
-318 158 -106 336 -159 651 -196 108 -13 197 -15 385 -12 153 3 211 2 155 -3
-136 -12 -520 -11 -603 1 -173 25 -326 64 -440 114 -221 96 -429 257 -536 417
-28 42 -88 128 -134 192 -45 64 -103 153 -129 199 -25 46 -58 101 -73 123
-112 164 -126 196 -160 358 -12 59 -27 110 -32 113 -11 7 -8 -14 27 -159 26
-107 69 -199 172 -366 38 -60 103 -171 147 -246 104 -181 206 -315 317 -417
145 -132 222 -185 404 -274 180 -89 286 -123 450 -146 101 -14 653 -18 776 -5
l76 8 17 -40 c10 -22 34 -49 55 -63 35 -22 36 -26 53 -123 l18 -100 -31 -98
c-17 -53 -29 -103 -27 -109 5 -15 36 60 53 127 l13 50 1 -47 c1 -26 6 -59 12
-75 6 -15 20 -64 30 -108 22 -90 96 -328 142 -453 26 -73 29 -91 24 -154 -7
-80 -40 -158 -84 -200 -15 -14 -67 -47 -116 -73 -76 -41 -95 -47 -147 -47
-153 0 -244 46 -315 160 -14 24 -29 41 -32 38 -3 -3 5 -38 17 -77 25 -78 84
-158 162 -223 24 -19 54 -44 68 -56 l25 -21 -25 12 c-51 24 -149 100 -193 149
-104 116 -137 242 -118 454 6 68 14 132 18 142 14 37 -15 3 -38 -43 -19 -41
-22 -64 -23 -153 0 -111 7 -146 55 -276 35 -93 75 -143 205 -259 46 -41 82
-75 78 -75 -13 0 -96 65 -197 154 -59 53 -112 96 -117 96 -5 0 -19 18 -31 40
-12 22 -24 38 -27 36 -6 -7 27 -65 89 -158 33 -48 59 -90 59 -93 0 -19 -243
137 -309 199 -46 44 -52 47 -38 21 42 -81 112 -148 229 -219 65 -39 141 -93
170 -119 54 -50 52 -49 -68 24 -80 49 -218 119 -234 119 -8 0 7 -15 33 -33 49
-35 277 -247 277 -258 0 -4 -48 25 -106 63 -59 39 -123 77 -143 85 -47 20
-113 66 -152 106 l-31 32 16 -32 c21 -41 125 -131 248 -212 54 -36 96 -67 94
-69 -6 -5 -78 33 -176 92 -147 90 -149 78 -6 -26 145 -106 141 -101 140 -142
-1 -24 -9 -46 -22 -58 l-20 -21 -79 63 c-43 35 -111 95 -152 134 -72 69 -73
70 -50 28 13 -23 73 -90 132 -149 99 -97 138 -143 121 -143 -3 0 -23 19 -44
43 -21 23 -40 40 -43 37 -3 -3 0 -31 6 -63 8 -43 7 -61 -1 -69 -17 -17 -51 18
-111 116 -58 94 -94 135 -172 200 -67 55 -83 59 -40 11 78 -90 132 -195 162
-320 26 -112 24 -140 -15 -215 -55 -104 -76 -166 -106 -317 -29 -150 -37 -168
-125 -288 -24 -33 -44 -64 -44 -68 -1 -13 79 36 112 68 29 30 30 30 22 5 -4
-14 -17 -63 -29 -110 -32 -118 -112 -302 -154 -350 -19 -23 -60 -58 -91 -79
-88 -61 -206 -171 -182 -171 53 0 272 146 327 217 16 21 43 73 60 116 45 110
51 108 11 -4 -58 -160 -96 -245 -130 -285 -18 -22 -43 -54 -56 -72 -27 -39
-66 -60 -126 -69 -72 -9 -69 -27 4 -20 73 8 130 35 153 74 22 36 22 23 0 -57
-17 -60 -21 -65 -48 -68 -16 -1 -108 18 -204 43 -96 25 -242 63 -325 85 -154
40 -492 101 -548 99 l-32 -1 35 -9 c19 -4 103 -20 185 -35 271 -47 884 -209
917 -242 4 -4 -2 -37 -13 -72 -19 -59 -41 -293 -26 -280 3 3 19 70 36 150 16
80 37 165 45 190 l14 45 3 -70 c9 -179 -11 -357 -45 -408 -31 -46 -111 -76
-201 -77 -38 0 -137 9 -220 19 -82 11 -188 22 -233 26 -46 4 -96 11 -110 15
-41 13 335 12 423 -1 42 -6 79 -8 81 -6 2 2 -85 18 -193 36 -109 18 -216 37
-238 43 l-40 11 35 8 c19 4 90 18 158 30 111 19 133 20 215 10 63 -8 116 -23
172 -47 44 -20 86 -38 93 -41 6 -3 12 2 12 11 0 21 -69 71 -148 108 -35 16
-65 35 -68 42 -3 7 2 41 10 74 21 78 20 118 -4 170 -10 23 -21 42 -23 42 -3 0
2 -28 11 -62 13 -50 13 -74 4 -126 -6 -36 -15 -69 -21 -75 -7 -7 -35 -3 -90
14 l-79 24 3 70 4 70 -12 -65 c-14 -73 -15 -74 -107 -45 -87 27 -373 86 -486
100 -140 18 -306 44 -312 50 -3 2 3 19 11 38 9 18 27 74 40 124 13 50 31 102
40 116 22 34 81 179 101 247 9 30 25 105 36 165 26 140 39 181 111 338 33 71
77 179 98 240 21 62 57 155 79 207 22 52 56 147 76 210 51 171 64 205 118 325
124 273 236 467 350 607 25 31 51 72 57 91 10 29 21 38 76 62 36 15 123 61
193 102 70 42 150 89 177 105 28 16 68 45 90 65 60 54 128 102 250 179 82 52
136 96 215 175 58 59 132 126 165 150 33 23 85 63 115 89 75 64 131 100 143
93 18 -11 -2 101 -20 115 -22 16 -114 15 -188 -3 -140 -34 -352 -1 -605 92
-10 4 -12 2 -5 -5 14 -15 256 -120 317 -139 28 -8 95 -21 147 -28 l96 -13
-101 -1 c-109 -1 -287 20 -374 45 -30 9 -113 43 -183 76 -70 33 -130 58 -133
56 -6 -7 266 -150 345 -182 35 -14 83 -42 108 -62 53 -44 153 -80 248 -90 l70
-7 -45 -13 c-61 -19 -115 -17 -175 5 -130 48 -214 86 -281 127 -127 77 -131
70 -19 -41 57 -58 110 -105 116 -105 7 0 10 -3 6 -6 -3 -3 -43 6 -89 20 -109
33 -194 53 -355 81 -258 47 -360 90 -402 172 -25 49 -12 56 30 18 73 -66 110
-76 287 -79 113 -3 150 -1 132 7 -14 5 -40 16 -59 25 -19 8 -76 20 -127 26
-103 14 -155 40 -187 94 l-18 31 40 21 c52 26 105 25 150 -2 58 -35 219 -166
230 -187 10 -18 58 -37 69 -27 21 22 -204 238 -300 287 -32 16 -92 43 -135 60
-142 55 -303 146 -409 230 -70 56 -242 244 -309 339 -145 205 -350 609 -405
800 -12 41 -24 83 -27 93 -2 10 -18 33 -34 52 -16 18 -26 36 -20 39 5 3 40 12
77 20 38 8 92 22 119 30 69 22 85 20 86 -6 2 -22 2 -22 6 -2 3 19 33 41 55 43
4 1 10 -9 12 -21z m221 -77 c124 -53 447 -181 550 -219 184 -68 36 -47 -210
29 -106 33 -257 105 -362 171 -92 58 -86 64 22 19z m2820 -286 c132 -178 205
-329 205 -421 0 -48 -14 -42 -28 11 -19 70 -156 349 -206 418 -24 34 -76 93
-115 132 -39 38 -71 75 -71 81 0 21 150 -132 215 -221z m2422 58 c30 -37 29
-64 -4 -95 -37 -33 -55 -39 -95 -28 -30 9 -31 8 -14 -5 34 -26 84 -19 117 16
16 17 29 35 29 40 0 18 17 8 28 -16 16 -34 15 -86 -2 -108 -17 -22 -67 -37
-123 -37 -44 0 -52 -7 -31 -28 17 -17 113 -15 147 3 29 14 61 76 61 115 0 23
2 23 53 9 40 -11 87 -51 87 -74 0 -18 -105 -72 -157 -81 -85 -14 -130 -53
-104 -93 8 -12 15 -12 46 3 27 13 49 16 85 11 l49 -7 3 37 c3 33 8 40 51 62
56 30 85 26 110 -16 19 -32 23 -66 7 -56 -28 18 -3 -17 50 -68 59 -57 66 -73
60 -132 -3 -26 -1 -25 -57 -40 l-48 -13 75 2 75 1 47 -95 c49 -100 53 -129 22
-177 -11 -17 -24 -23 -53 -23 -41 0 -58 13 -85 67 -22 43 -20 62 6 90 19 20
20 25 8 33 -8 5 -25 10 -36 10 -31 0 -84 64 -84 99 0 22 11 38 48 69 26 22 44
43 41 46 -3 4 -27 -5 -52 -20 -32 -17 -54 -23 -69 -19 -32 10 -68 45 -68 67 0
15 6 17 45 11 30 -4 45 -2 45 5 0 15 -61 26 -102 19 -137 -24 -148 -29 -148
-73 0 -19 9 -23 64 -34 63 -12 126 -41 126 -59 0 -5 -17 -12 -37 -16 -40 -7
-103 -62 -103 -89 0 -20 26 -20 107 0 35 9 70 13 78 10 22 -8 18 -44 -6 -56
-27 -15 -79 -98 -79 -127 0 -20 3 -23 28 -17 15 4 46 20 69 36 l42 29 7 -28
c15 -68 36 -122 51 -127 12 -5 7 -13 -23 -37 -72 -58 -114 -71 -208 -63 -71 6
-91 3 -140 -15 -32 -12 -102 -28 -158 -36 -82 -13 -123 -26 -228 -74 -71 -32
-169 -85 -219 -117 -50 -33 -116 -75 -147 -94 -31 -19 -92 -74 -136 -122 -88
-97 -236 -220 -292 -243 -19 -8 -48 -15 -64 -15 -26 0 -32 7 -63 73 l-34 72
-5 225 c-4 176 -7 212 -13 165 -12 -86 -18 -91 -13 -10 6 81 28 163 54 195 9
12 42 30 72 41 l55 19 -64 -3 c-63 -3 -66 -5 -106 -50 -111 -122 -149 -313
-106 -525 17 -81 37 -135 96 -258 41 -86 75 -161 75 -165 0 -5 11 -19 24 -30
27 -24 65 -125 141 -376 6 -21 3 -23 -34 -23 -31 0 -44 6 -60 26 -29 37 -56
114 -81 234 -12 58 -31 129 -42 158 -56 148 -36 -107 22 -290 43 -136 80 -197
138 -231 40 -23 119 -24 162 -2 41 21 80 105 116 248 15 59 29 105 31 103 7
-6 -24 -178 -47 -265 -15 -55 -33 -95 -51 -115 -26 -29 -31 -31 -101 -31 -145
0 -222 78 -285 290 -12 39 -26 97 -33 130 -30 164 -94 373 -122 400 -12 11
-13 16 32 -130 21 -67 34 -138 41 -215 21 -250 83 -394 204 -474 179 -119 310
-95 369 67 8 23 33 92 55 152 55 155 71 307 45 433 -4 18 19 3 99 -66 56 -50
115 -107 129 -128 15 -22 52 -109 83 -194 31 -85 60 -159 66 -165 7 -7 8 -5 5
5 -3 8 -21 79 -40 157 -20 79 -46 164 -60 190 -34 68 -138 164 -223 207 -78
39 -73 31 -87 139 l-5 37 65 -62 c230 -221 262 -257 313 -356 106 -209 153
-476 102 -588 -32 -70 -317 -284 -379 -284 -31 0 -312 193 -312 215 0 5 90
-46 203 -115 l88 -54 52 26 c59 30 260 205 251 219 -3 5 -29 -10 -57 -35 -62
-52 -145 -104 -185 -116 -37 -10 -94 14 -164 69 -34 28 -66 43 -106 52 -83 17
-83 17 -10 18 36 1 89 6 116 12 62 15 87 9 146 -36 25 -20 51 -35 56 -33 5 2
-21 26 -57 53 l-66 50 -166 8 c-212 10 -207 10 -240 -8 -97 -50 -310 -71 -540
-55 -319 23 -570 132 -804 350 l-70 65 29 -53 c64 -117 153 -203 272 -262 24
-12 41 -24 39 -27 -6 -6 -145 69 -218 118 -63 42 -143 126 -193 202 -19 29
-68 120 -111 202 -68 135 -78 162 -100 270 -45 230 -41 305 17 391 23 34 140
134 248 210 171 120 531 426 518 439 -2 3 -30 -11 -62 -30 -31 -19 -92 -53
-134 -75 -72 -39 -75 -40 -42 -11 19 16 58 42 85 56 169 89 181 99 99 80 -33
-8 -71 -17 -87 -20 -15 -3 -44 -20 -65 -38 -67 -58 -78 -62 -27 -8 39 41 62
56 107 69 32 9 58 21 58 25 0 13 -91 -4 -130 -23 -47 -24 -65 -45 -106 -126
-18 -38 -31 -58 -28 -44 3 14 20 54 38 90 27 58 37 68 85 92 30 15 76 31 102
34 79 11 58 27 -29 23 -63 -3 -90 -10 -142 -36 -95 -48 -161 -102 -192 -158
-32 -58 -33 -57 -13 9 8 27 15 71 15 97 0 63 18 73 22 12 l3 -47 35 30 c61 53
138 93 215 114 83 22 97 24 75 10 -11 -7 -6 -10 20 -10 33 0 33 1 17 18 -12
11 -32 17 -62 16 -25 0 -45 0 -45 2 0 2 19 8 41 14 37 10 40 13 27 26 -12 13
-27 12 -115 -5 -110 -21 -144 -35 -215 -89 -54 -41 -66 -69 -69 -157 -3 -76
-15 -120 -45 -164 -30 -45 -30 -37 0 30 18 41 25 76 28 141 3 82 2 86 -14 71
-10 -9 -20 -32 -23 -52 -28 -177 -100 -321 -193 -385 -59 -40 -62 -28 -4 16
73 56 147 196 167 316 9 56 -5 54 -38 -5 -57 -104 -171 -227 -245 -264 -26
-13 -49 -25 -51 -26 -12 -7 90 -108 130 -129 56 -28 63 -36 19 -24 -44 12 -85
45 -126 98 -20 26 -45 52 -57 59 -21 12 -21 12 6 13 78 1 159 73 275 246 82
122 207 231 335 289 56 26 193 59 208 50 5 -4 6 1 2 10 -4 13 -16 16 -45 13
l-40 -4 28 23 c31 24 54 30 54 13 0 -17 141 -202 196 -257 l52 -52 -62 -29
c-48 -23 -102 -67 -244 -201 -101 -94 -204 -185 -230 -202 -56 -36 -27 -31 63
10 59 28 203 139 317 247 32 29 75 65 95 78 79 52 243 75 362 52 64 -12 81
-12 125 0 196 54 274 56 406 9 66 -23 80 -25 115 -15 39 12 273 131 349 178
21 13 92 50 156 83 76 37 125 68 137 86 11 15 52 95 93 177 l73 149 12 140
c11 135 13 141 40 165 37 32 90 25 122 -15z m-5189 -38 c166 -38 337 -83 457
-122 119 -38 442 -171 570 -236 103 -51 187 -80 304 -102 78 -15 101 -16 135
-6 226 65 373 91 528 91 48 0 121 7 163 17 82 18 62 20 360 -35 163 -31 264
-61 285 -87 11 -13 6 -15 -32 -15 -25 0 -82 9 -128 21 -45 11 -86 19 -91 17
-6 -2 20 -16 56 -32 l65 -28 -23 -18 c-12 -9 -60 -36 -106 -60 l-84 -42 -181
32 c-100 17 -242 45 -316 62 -173 40 -282 45 -425 22 -175 -28 -211 -28 -375
0 -84 15 -155 25 -157 22 -7 -7 102 -44 174 -59 l68 -14 -42 -7 c-24 -4 -56
-17 -72 -29 -17 -12 -50 -36 -74 -54 -102 -74 -212 -79 -395 -18 -250 83 -502
244 -601 383 -25 36 -65 89 -89 119 l-43 54 48 -25 c120 -60 221 -78 293 -51
40 14 38 15 -65 39 -112 25 -359 161 -373 204 -3 10 3 10 27 -3 17 -8 80 -27
139 -40z m629 -1 c-3 -3 -12 -4 -19 -1 -8 3 -5 6 6 6 11 1 17 -2 13 -5z
m-1178 -93 c8 -5 -26 -10 -90 -13 -128 -6 -244 -43 -429 -135 -68 -34 -126
-61 -127 -59 -2 1 31 22 73 46 90 52 280 134 355 154 60 16 196 21 218 7z
m895 -558 c145 -122 200 -186 80 -92 -74 59 -294 257 -294 265 0 7 34 -21 214
-173z m1528 98 c46 -11 121 -31 168 -45 243 -71 323 -96 328 -101 14 -14 -83
-2 -192 24 -259 62 -424 96 -415 87 10 -11 311 -91 438 -117 l114 -24 -39 -17
c-22 -10 -61 -18 -89 -18 -67 0 -306 51 -490 104 -82 24 -154 42 -158 39 -33
-20 146 -91 426 -169 32 -9 57 -17 55 -19 -2 -1 -39 3 -83 11 -49 8 -165 13
-299 13 -120 0 -221 2 -223 5 -14 14 71 40 142 44 l80 5 -71 23 c-102 32 -139
22 -304 -79 -41 -25 -77 -44 -79 -41 -3 2 6 12 18 21 13 9 58 47 100 85 136
123 173 148 253 168 99 24 218 25 320 1z m-2337 -82 c30 -8 61 -32 121 -92 44
-45 99 -97 122 -115 23 -18 42 -38 42 -44 0 -6 -12 1 -26 16 -31 30 -59 33
-106 10 -27 -13 -38 -13 -63 -3 l-30 12 33 9 c38 10 41 27 10 55 -37 34 -65
44 -129 47 -38 2 -65 8 -71 17 -6 10 -7 3 -3 -21 l6 -35 -25 28 c-34 37 -34
79 0 106 30 23 60 26 119 10z m2305 -224 c47 -8 110 -15 140 -16 30 -1 66 -4
80 -8 l25 -7 -25 -15 c-27 -15 -106 -17 -516 -11 -116 2 -224 0 -240 -3 l-29
-6 25 14 c22 13 166 50 230 60 63 10 233 6 310 -8z m-2420 -50 c16 -8 58 -41
92 -71 35 -31 87 -70 115 -86 29 -17 56 -34 59 -39 3 -5 9 -9 14 -9 5 0 3 19
-5 41 -21 58 -19 105 5 129 32 32 59 25 115 -32 29 -29 72 -69 97 -88 24 -19
56 -50 69 -67 43 -57 50 -35 23 69 -8 33 -14 64 -12 69 3 9 136 -186 162 -238
9 -17 20 -64 26 -102 11 -81 25 -147 38 -182 5 -13 12 -41 16 -61 l7 -37 -38
6 c-30 4 -166 46 -229 70 -8 3 -10 -17 -6 -66 6 -94 -3 -105 -81 -98 -32 3
-61 7 -63 10 -3 2 0 26 7 51 13 54 4 71 -20 38 -50 -70 -46 -68 -87 -56 -22 6
-61 17 -89 24 -109 27 -112 30 -26 25 82 -4 83 -4 77 18 -3 12 -11 49 -17 82
-26 134 -56 193 -92 179 -23 -8 -26 -23 -16 -87 11 -66 7 -77 -25 -77 -20 0
-26 9 -40 58 -9 35 -16 96 -16 152 l0 93 -26 -24 c-43 -41 -91 -155 -99 -236
-4 -40 -9 -73 -12 -73 -19 0 -107 59 -127 84 -50 66 -46 82 59 226 102 141
108 154 102 213 -3 29 -9 64 -13 80 -8 32 10 36 56 12z m1107 -136 c75 -33
189 -67 297 -89 111 -23 351 -43 424 -35 40 4 43 3 22 -6 -43 -19 -317 -3
-450 25 -148 32 -236 58 -285 84 -83 44 -88 56 -8 21z m2174 -76 c-5 -10 -31
-38 -57 -63 -50 -46 -36 -23 25 43 39 41 47 46 32 20z m-993 -20 c-10 -2 -28
-2 -40 0 -13 2 -5 4 17 4 22 1 32 -1 23 -4z m-115 -10 c-23 -2 -64 -2 -90 0
-26 2 -7 3 42 3 50 0 71 -1 48 -3z m-205 -10 c-10 -2 -26 -2 -35 0 -10 3 -2 5
17 5 19 0 27 -2 18 -5z m779 -80 c32 -69 139 -152 196 -153 9 0 17 -4 17 -10
0 -17 -53 -11 -95 11 -22 11 -53 35 -69 52 l-28 32 7 -30 c3 -16 12 -36 18
-44 17 -21 88 -51 120 -51 33 0 36 -17 3 -26 -34 -8 -99 12 -123 38 -12 13
-30 57 -41 98 -11 41 -23 85 -27 98 -12 35 2 26 22 -15z m2512 -116 c-67 -62
-119 -119 -194 -212 -22 -28 -78 -88 -125 -134 -73 -71 -101 -91 -197 -138
-107 -52 -178 -71 -178 -47 0 6 49 37 110 69 185 96 223 126 337 261 42 49
102 112 133 138 56 48 165 126 175 126 3 -1 -25 -29 -61 -63z m-2368 -460 c42
-168 89 -286 152 -380 30 -45 66 -105 81 -133 31 -64 135 -194 187 -236 46
-37 45 -45 -2 -21 -59 29 -162 144 -254 282 -142 216 -172 286 -205 488 -11
71 -32 163 -45 205 -13 42 -27 100 -30 130 -4 45 2 33 40 -82 25 -74 59 -188
76 -253z m-3464 311 c-3 -7 -5 -2 -5 12 0 14 2 19 5 13 2 -7 2 -19 0 -25z
m3259 -43 c77 -42 107 -65 87 -65 -5 0 -49 25 -98 55 -109 67 -103 72 11 10z
m-26 -113 c10 -31 17 -58 15 -60 -3 -3 -65 155 -65 166 1 14 33 -53 50 -106z
m-1625 33 c36 -19 98 -44 138 -55 39 -12 115 -38 167 -57 52 -20 145 -48 205
-64 61 -15 106 -28 102 -28 -27 -3 -221 24 -321 45 -226 46 -327 89 -360 153
-28 53 -20 54 69 6z m-85 -150 c8 -10 33 -31 54 -47 44 -32 37 -34 -60 -18
-59 11 -191 55 -208 71 -6 5 30 9 82 9 51 0 92 1 92 3 0 1 -7 20 -15 42 -23
66 -15 74 13 14 15 -31 34 -65 42 -74z m58 61 c69 -35 297 -116 329 -117 l28
-1 -30 -9 c-16 -5 -73 -12 -125 -15 -83 -6 -102 -4 -142 13 -48 22 -88 67
-106 121 -6 17 -9 32 -6 32 2 0 26 -11 52 -24z m-243 -141 c155 -10 220 -23
350 -67 107 -36 311 -79 509 -109 38 -6 131 -9 207 -7 l138 3 -107 -52 c-106
-52 -108 -53 -202 -53 -54 0 -120 7 -150 15 -30 8 -104 26 -165 39 -252 56
-533 126 -570 141 -46 20 -155 94 -155 106 0 5 10 5 23 0 12 -5 67 -12 122
-16z m-220 -25 c32 -35 110 -80 186 -105 152 -52 476 -126 660 -150 62 -8 116
-18 120 -22 7 -8 32 -153 27 -159 -2 -1 -28 4 -58 11 -308 77 -396 100 -460
120 -156 47 -235 59 -135 21 33 -13 130 -54 215 -90 163 -70 316 -126 344
-126 29 0 17 -17 -21 -28 -68 -20 -253 -52 -299 -52 l-44 0 0 -75 c0 -72 -12
-99 -24 -52 -6 24 -85 151 -91 145 -2 -2 10 -59 27 -128 l31 -125 -28 -42 -28
-42 -26 78 c-30 90 -61 139 -107 170 -36 25 -68 75 -103 161 -12 30 -35 73
-51 95 -16 22 -43 63 -60 90 -40 67 -38 44 6 -55 19 -45 34 -84 31 -86 -5 -5
-101 111 -141 170 -17 25 -26 52 -26 77 0 23 -5 39 -11 39 -9 0 -10 -32 -7
-112 l6 -112 -96 -188 c-53 -103 -100 -188 -105 -188 -11 0 -4 23 50 159 49
126 74 213 97 349 14 80 27 124 75 245 13 32 22 34 46 7z m2276 -237 c29 -38
82 -98 118 -135 82 -85 64 -89 -25 -6 -77 72 -133 149 -198 269 -61 113 -59
126 3 22 27 -45 73 -113 102 -150z m17 67 c25 -36 74 -102 109 -147 35 -46 58
-80 50 -77 -18 7 -105 115 -155 192 -21 33 -54 79 -72 103 -31 40 -31 42 -6
19 16 -14 49 -54 74 -90z m-79 -99 c7 -16 20 -32 30 -37 24 -12 158 -160 175
-192 7 -15 16 -47 19 -72 4 -36 3 -40 -5 -20 -38 96 -75 149 -185 265 -34 36
-74 103 -54 91 5 -3 14 -19 20 -35z m-2064 -262 c51 -65 103 -123 114 -131 46
-32 60 -63 66 -142 4 -52 2 -75 -5 -71 -5 3 -10 12 -10 18 0 10 -188 197 -198
197 -8 0 61 -84 130 -159 77 -83 78 -84 78 -138 0 -39 -9 -75 -31 -126 -17
-40 -35 -76 -39 -80 -4 -5 -13 26 -19 69 -20 136 -91 228 -219 286 -61 28 -73
30 -139 24 -65 -5 -71 -4 -66 12 5 21 68 92 81 92 14 0 93 -56 136 -95 21 -20
41 -34 43 -31 7 7 -167 182 -187 188 -12 4 -11 17 8 86 12 45 34 111 49 147
l28 65 43 -48 c24 -26 85 -99 137 -163z m2147 66 c41 -94 68 -204 67 -272 l-1
-48 -8 40 c-5 22 -22 69 -39 104 -20 42 -30 79 -30 110 0 27 -10 72 -25 108
-49 119 -19 84 36 -42z m-2697 -99 c9 -25 6 -31 -19 -51 l-29 -23 46 -20 c29
-13 51 -31 61 -51 16 -30 22 -81 9 -81 -13 0 -93 51 -93 60 0 4 -21 16 -47 25
-27 9 -60 23 -75 31 l-27 15 13 -39 c8 -21 26 -62 40 -90 44 -86 39 -102 -59
-197 -47 -46 -85 -90 -85 -98 0 -9 5 -28 10 -42 l10 -26 43 34 c23 19 56 42
73 50 18 9 43 30 58 47 41 50 35 148 -18 272 -15 35 -15 37 1 31 10 -4 47 -33
82 -65 35 -32 68 -58 72 -58 14 0 39 -100 40 -159 1 -31 4 -67 8 -81 9 -35 94
-88 150 -95 82 -11 301 -73 301 -86 0 -4 -26 -13 -57 -19 -32 -7 -66 -16 -75
-21 -17 -9 -17 -11 -1 -37 9 -15 37 -48 62 -74 37 -40 42 -48 25 -48 -35 0
-104 61 -230 202 l-42 47 -63 -7 c-177 -19 -602 0 -666 29 -16 8 -46 42 -70
79 -82 129 -126 163 -222 173 -48 5 -71 25 -71 63 0 56 36 81 133 92 l61 7 11
50 c20 86 59 143 90 131 8 -3 22 -21 31 -40 16 -32 16 -36 -5 -79 -32 -65 -59
-97 -84 -97 -12 0 -29 -5 -37 -10 -13 -9 -13 -11 0 -20 26 -17 66 -11 87 13
12 12 40 60 62 107 34 71 49 90 88 117 64 44 132 54 162 24 18 -18 20 -29 15
-74 -12 -99 -30 -137 -139 -291 -25 -34 -35 -59 -35 -85 0 -64 12 -64 70 5 88
103 107 144 120 259 12 115 26 141 103 199 61 45 97 46 112 2z m3001 -214
c-29 -56 -64 -85 -163 -136 -101 -51 -213 -86 -270 -85 l-48 0 81 24 c224 66
360 140 400 216 8 16 17 29 19 29 3 0 -6 -22 -19 -48z m-2652 -46 c18 -8 45
-26 59 -42 31 -34 82 -124 69 -124 -5 0 -30 16 -56 36 -73 56 -65 34 16 -41
66 -61 69 -66 33 -47 -22 11 -74 44 -115 73 -41 30 -92 65 -113 79 -20 14 -37
28 -37 32 0 9 35 28 69 39 37 11 38 10 75 -5z m-93 -108 c119 -82 308 -229
309 -240 0 -4 -12 -3 -26 2 -15 6 -86 14 -159 18 -152 9 -171 17 -203 86 -35
73 -57 206 -34 206 4 0 55 -33 113 -72z m3675 -24 c53 -35 71 -114 58 -252
l-8 -87 -7 55 c-9 67 -48 175 -59 163 -8 -9 -22 -71 -47 -211 -9 -51 -18 -91
-20 -89 -5 6 15 187 32 287 8 47 15 100 15 118 0 37 2 38 36 16z m673 -84
c132 -34 146 -39 140 -45 -11 -10 -212 26 -274 49 -73 28 -145 66 -145 76 0 4
37 -6 81 -22 45 -15 134 -42 198 -58z m-267 -40 c68 -17 200 -46 293 -64 111
-23 155 -35 127 -35 -56 -1 -264 41 -422 86 -114 32 -145 43 -127 43 4 0 62
-14 129 -30z m-1497 -25 c61 -13 160 -28 220 -35 139 -15 231 -36 420 -98 83
-27 187 -60 233 -72 84 -23 88 -25 73 -49 -11 -17 -75 -9 -181 24 -41 13 -104
29 -140 35 -36 6 -117 24 -180 40 -63 16 -162 36 -220 45 -58 9 -172 38 -255
65 -82 26 -171 52 -197 55 -27 4 -45 12 -42 17 9 13 137 1 269 -27z m2858 -86
c14 -6 44 -47 73 -96 85 -148 174 -220 319 -258 89 -23 282 -36 360 -24 62 10
68 9 113 -17 26 -15 79 -45 119 -68 138 -78 126 -142 -42 -235 -91 -50 -102
-54 -164 -53 -36 0 -99 8 -139 16 -43 9 -122 16 -190 16 -98 0 -136 5 -231 30
-63 17 -116 31 -117 33 -2 2 4 23 12 47 9 25 16 77 17 115 1 82 -18 133 -82
212 -64 82 -76 87 -205 87 -104 1 -115 3 -176 33 l-65 31 55 1 c30 0 74 -4 97
-8 23 -5 40 -5 38 -1 -4 6 -91 44 -159 69 -18 7 159 40 220 42 16 0 49 9 74
19 25 10 46 19 47 19 1 1 13 -4 26 -10z m-2846 -60 c87 -22 210 -56 273 -74
122 -35 234 -55 473 -85 82 -10 151 -21 155 -24 3 -4 1 -11 -6 -18 -14 -14
-121 -16 -272 -4 -138 10 -137 1 5 -59 116 -50 171 -52 216 -9 29 27 31 27 16
4 -15 -25 -17 -30 -37 -108 -8 -32 -14 -41 -23 -34 -7 5 -88 44 -182 87 -236
106 -307 125 -530 135 -99 5 -239 12 -310 16 -136 7 -257 -8 -329 -42 l-31
-14 30 5 c145 22 241 26 378 16 80 -6 190 -11 245 -11 132 0 214 -22 389 -106
78 -37 141 -69 139 -71 -13 -13 -313 52 -421 91 -19 7 -19 7 -2 -7 11 -9 93
-43 183 -76 134 -50 181 -63 261 -71 160 -16 173 -19 173 -42 0 -20 -4 -20
-157 -16 -151 5 -162 7 -258 42 -55 20 -163 67 -240 105 -164 81 -211 96 -344
111 -123 15 -351 -1 -447 -31 -64 -20 -208 -109 -218 -135 -3 -8 14 -1 39 16
138 95 265 125 525 125 175 0 189 -2 260 -27 94 -33 153 -58 149 -62 -2 -2
-46 5 -98 15 -52 11 -96 17 -99 14 -5 -5 51 -31 243 -112 72 -30 148 -64 170
-76 22 -11 69 -31 105 -43 l65 -23 -48 0 c-28 -1 -91 13 -155 34 -59 19 -129
39 -157 45 -27 6 -103 34 -168 61 -167 70 -239 83 -412 75 -137 -7 -222 -21
-318 -52 -54 -18 -59 -29 -6 -14 79 22 176 27 376 21 l211 -7 75 -37 c41 -20
119 -69 173 -108 138 -98 164 -110 255 -116 119 -9 242 22 302 75 9 8 20 13
22 10 3 -3 -20 -29 -52 -58 -102 -94 -211 -126 -334 -100 -49 11 -79 26 -144
75 -81 60 -84 61 -215 89 -73 15 -146 34 -161 41 -43 23 -48 18 -11 -11 17
-14 32 -30 32 -36 0 -14 -21 -8 -177 46 -74 26 -149 46 -170 45 -44 -1 -42 -1
57 -24 71 -16 120 -37 235 -97 34 -18 84 -31 157 -42 119 -17 161 -34 242
-101 30 -24 77 -56 105 -71 44 -23 61 -26 120 -22 57 3 75 8 107 33 l39 30
-25 -31 c-42 -52 -101 -84 -155 -84 -40 0 -64 9 -143 56 -165 96 -386 167
-522 167 -44 -1 -88 -9 -135 -26 -90 -32 -148 -57 -144 -62 2 -2 45 5 94 15
134 28 190 26 311 -15 98 -32 228 -93 174 -80 -194 44 -260 44 -400 -1 -78
-26 -98 -28 -230 -27 -112 0 -163 5 -225 21 -44 11 -81 19 -83 17 -7 -6 128
-54 186 -65 89 -18 254 -7 380 24 112 28 185 31 274 13 57 -12 86 -27 54 -27
-10 0 -69 -20 -131 -45 -140 -56 -225 -73 -413 -82 l-147 -7 100 -9 c124 -10
300 11 407 49 123 44 201 64 243 64 51 0 143 -24 194 -49 71 -37 441 -424 441
-462 0 -4 -17 -10 -37 -14 -122 -23 -368 -211 -503 -385 -32 -41 -115 -131
-185 -200 -137 -136 -165 -176 -165 -242 0 -57 39 -139 82 -171 139 -106 480
-95 653 22 63 43 73 45 32 8 -51 -47 -152 -95 -239 -113 -139 -30 -322 -9
-436 50 -42 22 -99 98 -116 157 -35 116 32 220 345 538 14 14 52 55 85 90 111
120 3 38 -168 -128 -211 -205 -290 -321 -305 -450 -7 -62 -13 -54 -33 41 -11
55 -87 196 -133 246 -24 26 -24 26 50 7 65 -17 159 -20 168 -5 4 6 -8 10 -29
10 -45 0 -199 36 -234 54 -15 8 -54 38 -87 68 -113 100 -230 195 -285 231
-146 93 -269 295 -295 485 -11 81 46 305 111 434 61 121 251 337 379 433 39
29 110 84 160 123 90 72 253 171 323 197 61 23 123 17 289 -26z m-2564 -41
c25 -35 60 -78 77 -96 18 -18 30 -35 27 -38 -7 -7 -155 42 -230 76 -42 19 -82
30 -109 29 l-43 0 47 -19 c75 -31 120 -65 156 -120 19 -29 32 -54 29 -56 -3
-3 -29 -8 -58 -10 l-54 -5 -84 70 c-47 39 -89 71 -94 71 -15 0 32 -58 78 -96
25 -20 45 -40 45 -44 0 -12 -98 0 -220 27 -122 27 -273 34 -293 14 -8 -8 -2
-11 23 -11 49 0 155 -31 138 -41 -7 -4 -80 -11 -162 -15 -157 -7 -172 -17 -41
-27 44 -4 116 -16 160 -27 101 -27 310 -36 456 -21 58 5 114 13 125 16 44 12
-139 -70 -236 -107 -185 -70 -474 -218 -457 -234 5 -6 54 13 297 115 102 43
235 97 295 120 61 24 122 51 138 62 15 11 27 17 27 13 0 -13 -103 -253 -148
-344 -38 -78 -61 -109 -128 -177 -96 -94 -139 -115 -279 -132 -112 -14 -155
-14 -155 -1 0 6 16 10 36 10 77 0 249 74 299 130 16 17 16 20 2 20 -9 0 -18
-4 -22 -9 -3 -5 -54 -29 -113 -52 -107 -42 -107 -43 -264 -47 -178 -5 -265 6
-342 44 l-51 25 55 -52 c71 -65 111 -86 223 -111 76 -18 125 -21 282 -21 l190
0 -90 -18 c-111 -22 -183 -23 -300 -4 -185 30 -287 76 -382 170 -84 84 -123
166 -130 273 -7 98 13 175 75 302 62 125 137 203 248 255 156 74 216 85 352
66 48 -7 51 -6 37 8 -8 8 -34 23 -58 33 l-42 18 65 -6 c261 -23 350 -20 450
15 93 32 102 29 153 -41z m4167 -38 c85 -6 160 -13 165 -16 24 -10 -276 8
-335 21 -36 8 -47 12 -25 10 22 -3 110 -9 195 -15z m1218 -120 c20 -19 22 -30
22 -128 -1 -89 -3 -103 -13 -86 -18 30 -120 155 -150 184 -33 31 -33 37 -4 43
63 12 124 7 145 -13z m-415 -228 c45 -43 109 -95 141 -117 61 -41 136 -125
136 -152 0 -13 -10 -15 -57 -11 -32 3 -67 9 -78 13 -19 8 -19 8 -2 -12 28 -32
133 -75 196 -80 31 -2 110 0 176 5 66 6 122 9 124 7 1 -2 -43 -19 -100 -37
-137 -43 -212 -44 -294 -3 -91 44 -131 93 -207 246 -49 102 -81 152 -125 199
-74 82 -28 51 90 -58z m-2093 -562 c13 -9 13 -10 0 -9 -8 1 -26 5 -40 9 l-25
8 25 1 c14 0 32 -4 40 -9z m313 -528 l26 -27 -77 3 c-62 2 -85 -2 -117 -18
-26 -13 -31 -18 -15 -15 14 3 53 8 86 12 84 8 134 -11 228 -85 104 -83 316
-222 412 -270 114 -57 163 -69 397 -91 114 -12 216 -25 226 -31 11 -5 31 -23
45 -41 37 -44 34 -90 -20 -276 -56 -196 -61 -263 -23 -343 15 -30 37 -66 49
-78 20 -22 28 -23 82 -17 53 6 62 5 84 -16 50 -47 40 -148 -19 -193 -18 -13
-54 -29 -82 -35 -27 -6 -75 -18 -105 -26 -40 -12 -77 -14 -135 -10 -77 7 -80
6 -90 -16 -23 -55 -88 -61 -141 -15 l-28 23 -24 -28 c-27 -33 -47 -35 -120
-14 -95 28 -123 111 -59 173 28 27 44 33 128 45 96 14 209 56 209 76 0 14 2
15 -74 -14 -37 -14 -95 -29 -129 -34 -34 -5 -70 -12 -79 -16 -16 -6 -18 -1
-18 47 0 66 -22 132 -85 258 -67 134 -76 144 -152 175 -175 72 -214 89 -293
130 -200 102 -205 115 -15 40 165 -65 221 -77 321 -69 100 8 101 27 1 38 -80
9 -172 40 -322 109 -162 74 -235 102 -330 127 -97 26 -204 56 -267 76 l-48 15
53 67 c29 37 66 87 82 112 46 68 153 178 202 207 46 27 167 72 194 73 8 0 27
-12 42 -28z m-3719 -1617 c60 -8 111 -17 115 -21 3 -4 -16 -4 -43 0 -27 3
-135 7 -240 8 l-191 1 120 12 c66 7 122 13 125 13 3 1 54 -5 114 -13z"/>
<path d="M2780 7801 c0 -85 32 -176 117 -338 41 -79 76 -143 78 -143 3 0 -24
70 -100 255 -61 149 -75 195 -75 248 0 20 -4 37 -10 37 -6 0 -10 -26 -10 -59z"/>
<path d="M2712 7768 c3 -7 13 -39 23 -71 10 -31 20 -55 22 -53 6 6 -36 136
-44 136 -3 0 -3 -6 -1 -12z"/>
<path d="M5085 5881 c-64 -37 -117 -109 -166 -227 -47 -111 -51 -150 -7 -74
95 168 170 265 214 276 25 6 30 20 16 41 -6 9 -21 5 -57 -16z"/>
<path d="M5181 5598 c-2 -58 25 -171 74 -315 82 -237 65 -317 -95 -465 -49
-45 -88 -84 -85 -86 2 -2 31 9 65 24 150 67 213 229 166 429 -16 69 -79 302
-106 390 -17 57 -18 58 -19 23z"/>
<path d="M4535 5414 c-139 -71 -197 -107 -257 -162 -64 -58 -43 -55 51 7 50
32 139 87 198 120 201 115 206 135 8 35z"/>
<path d="M4922 5365 c-56 -63 -65 -90 -59 -174 3 -53 13 -95 33 -139 15 -34
29 -60 31 -58 2 2 -4 45 -13 97 -22 128 -16 205 20 259 35 53 28 62 -12 15z"/>
<path d="M3918 4981 c-70 -35 -112 -64 -156 -105 -43 -40 -106 -125 -99 -133
6 -6 29 12 174 142 43 39 94 82 113 97 45 35 38 34 -32 -1z"/>
<path d="M3467 4370 c-4 -8 -15 -56 -26 -107 -24 -110 -34 -131 -100 -206 -28
-32 -58 -72 -67 -89 -22 -42 -102 -278 -94 -278 3 0 26 35 49 78 24 42 78 129
119 192 96 145 124 212 130 310 5 82 0 126 -11 100z"/>
<path d="M4046 4260 c-8 -75 1 -150 44 -353 l31 -145 -16 -92 c-9 -51 -14 -94
-12 -96 10 -11 50 151 54 222 5 72 1 96 -27 195 -18 63 -40 164 -50 224 l-17
110 -7 -65z"/>
<path d="M4150 4167 c0 -14 12 -63 26 -107 58 -185 67 -282 31 -327 -89 -110
-102 -148 -86 -248 12 -76 13 -78 21 -45 25 99 40 140 62 165 35 40 86 149 86
183 0 44 -68 271 -102 337 -37 73 -38 75 -38 42z"/>
<path d="M3518 3682 c-18 -16 -76 -57 -128 -92 -153 -102 -218 -175 -289 -320
l-22 -45 36 40 c20 22 66 73 102 113 36 40 113 113 172 162 92 78 183 170 167
170 -3 0 -20 -13 -38 -28z"/>
<path d="M3593 3431 c-89 -75 -189 -184 -293 -320 -52 -68 -126 -161 -165
-206 -69 -81 -128 -170 -140 -210 -6 -19 -5 -19 7 -1 35 51 107 138 163 196
71 75 167 191 280 338 43 57 109 137 148 178 38 41 67 74 64 74 -4 0 -32 -22
-64 -49z"/>
<path d="M2946 3148 c-76 -130 -114 -260 -122 -413 -5 -105 -3 -103 31 30 15
55 35 124 46 154 27 74 80 263 75 268 -2 3 -16 -15 -30 -39z"/>
<path d="M4011 2920 c-19 -30 -48 -73 -66 -95 -35 -43 -59 -84 -53 -90 2 -2
28 19 57 48 57 56 104 136 99 170 -2 18 -9 12 -37 -33z"/>
<path d="M2685 2337 c-4 -25 -5 -52 -3 -59 3 -7 8 11 13 40 4 29 5 56 2 59 -3
2 -9 -16 -12 -40z"/>
<path d="M3770 2186 c0 -2 7 -33 16 -67 9 -36 14 -80 11 -103 -5 -37 -4 -39 9
-22 20 28 17 103 -6 154 -16 36 -30 53 -30 38z"/>
<path d="M3718 1743 c7 -3 16 -2 19 1 4 3 -2 6 -13 5 -11 0 -14 -3 -6 -6z"/>
<path d="M8575 7260 l-20 -9 20 1 c11 0 34 4 50 8 l30 8 -30 0 c-16 0 -39 -3
-50 -8z"/>
<path d="M8150 6928 c0 -3 7 -23 16 -44 18 -45 67 -99 107 -121 41 -21 45 -9
5 14 -18 11 -51 46 -73 79 -44 67 -55 81 -55 72z"/>
<path d="M8135 6870 c9 -84 44 -149 109 -204 49 -43 64 -50 109 -53 l52 -4
-30 17 c-88 49 -200 173 -229 254 l-17 45 6 -55z"/>
<path d="M7930 6701 c0 -5 22 -29 48 -54 53 -48 123 -73 192 -65 l35 4 -30 8
c-70 18 -147 50 -194 81 -28 19 -51 30 -51 26z"/>
<path d="M6575 6599 c-52 -15 -332 -156 -392 -197 -131 -90 -173 -162 -180
-313 -5 -82 -2 -106 17 -163 12 -36 23 -66 24 -66 1 0 2 62 2 138 -1 117 2
145 21 195 47 125 112 182 343 301 146 76 218 117 200 115 -3 -1 -18 -5 -35
-10z"/>
<path d="M7838 6570 c-64 -27 -142 -74 -93 -55 108 41 163 63 180 73 l20 11
-20 0 c-11 0 -50 -13 -87 -29z"/>
<path d="M8240 6554 c-52 -7 -106 -13 -119 -13 -19 -1 -22 -4 -13 -13 15 -15
194 4 244 26 30 13 31 14 8 14 -14 0 -68 -6 -120 -14z"/>
<path d="M7915 6493 c-87 -36 -223 -98 -445 -205 -107 -52 -211 -101 -230
-110 -74 -35 4 -16 150 37 237 86 547 238 589 289 17 21 8 19 -64 -11z"/>
<path d="M6422 6318 c-11 -29 -26 -71 -32 -93 -16 -55 -24 -311 -12 -360 8
-34 9 -28 5 35 -4 61 2 109 32 255 20 99 38 188 41 198 3 9 1 17 -3 17 -5 0
-19 -24 -31 -52z"/>
<path d="M7057 6143 c-18 -153 -13 -206 24 -234 24 -18 48 -15 110 15 43 20
181 127 187 143 2 7 -37 -8 -86 -33 -95 -50 -186 -69 -202 -44 -4 7 -6 75 -3
151 8 182 -9 183 -30 2z"/>
<path d="M6724 6058 c3 -12 7 -57 11 -99 6 -76 14 -111 74 -302 17 -54 37
-154 46 -225 9 -70 21 -142 27 -160 5 -18 8 -36 5 -39 -3 -3 -59 -21 -124 -41
-114 -34 -123 -35 -273 -35 l-155 1 110 -25 c142 -32 225 -28 345 17 116 43
121 43 139 -4 14 -37 14 -39 -10 -57 -48 -38 -131 -62 -209 -63 -112 -1 -349
15 -395 26 -22 5 -95 35 -163 65 -68 30 -126 53 -128 50 -3 -2 32 -29 78 -58
83 -53 179 -98 210 -99 9 0 52 -15 95 -34 44 -18 94 -37 112 -41 66 -14 22
-14 -69 1 -123 19 -152 15 -80 -13 102 -39 256 -66 350 -60 95 5 229 44 270
78 20 17 21 19 5 14 -102 -37 -186 -55 -254 -54 -78 1 -163 15 -111 18 14 1
31 5 39 10 9 6 -19 16 -85 31 -55 12 -104 25 -111 29 -6 3 59 6 145 6 170 0
213 9 296 64 l39 26 21 -30 c43 -59 98 -114 132 -130 20 -9 38 -15 40 -12 3 2
-20 31 -51 63 -59 64 -133 194 -159 284 -9 30 -24 109 -32 175 -12 90 -29 160
-69 280 -55 163 -95 305 -95 336 0 10 -5 21 -10 24 -7 4 -9 -2 -6 -17z"/>
<path d="M5625 5991 c-26 -52 -36 -124 -24 -188 17 -91 30 -98 23 -13 -4 51
-1 99 10 149 9 41 14 76 12 79 -3 2 -12 -10 -21 -27z"/>
<path d="M7090 5563 c0 -10 50 -224 66 -280 12 -42 21 -23 13 26 -13 84 -77
291 -79 254z"/>
<path d="M6825 5415 c-4 -11 -13 -34 -20 -51 -28 -69 -99 -126 -199 -160 l-41
-13 63 2 c87 4 135 39 180 130 19 37 32 76 29 89 -3 22 -4 22 -12 3z"/>
<path d="M7630 5304 c0 -13 148 -201 200 -254 71 -71 160 -145 160 -132 0 6
-22 30 -50 53 -49 41 -167 173 -250 282 -40 51 -60 68 -60 51z"/>
<path d="M7560 5065 c0 -13 72 -76 121 -107 64 -40 137 -73 145 -66 9 10 -236
178 -259 178 -4 0 -7 -2 -7 -5z"/>
<path d="M2615 6901 c33 -4 76 -11 95 -15 30 -6 32 -5 15 5 -10 7 -53 13 -95
15 l-75 3 60 -8z"/>
<path d="M3004 6495 c13 -52 76 -171 107 -200 l29 -29 0 40 c0 65 -55 161
-114 199 l-29 19 7 -29z"/>
<path d="M3270 6305 c0 -45 50 -259 64 -273 13 -14 13 -9 0 47 -8 35 -21 98
-30 140 -17 80 -33 123 -34 86z"/>
<path d="M2260 4960 c-54 -54 -80 -109 -80 -167 0 -76 13 -81 40 -16 12 32 40
90 61 129 57 105 50 125 -21 54z"/>
<path d="M2692 4762 c0 -32 -8 -91 -17 -131 -9 -40 -14 -75 -12 -78 11 -10 57
50 67 86 15 53 12 91 -10 139 -10 23 -21 42 -23 42 -2 0 -5 -26 -5 -58z"/>
<path d="M3080 4593 c62 -24 120 -41 115 -34 -6 11 -93 41 -114 40 -14 0 -14
-1 -1 -6z"/>
<path d="M9297 4030 c6 -7 33 -14 60 -16 42 -3 44 -2 13 5 -19 4 -46 11 -60
15 -20 7 -22 6 -13 -4z"/>
<path d="M9070 4020 c0 -11 50 -50 64 -50 6 0 28 -14 49 -31 35 -29 39 -30 56
-15 12 11 36 16 73 16 69 0 88 -7 88 -31 0 -17 -8 -19 -67 -19 -48 0 -79 -6
-111 -21 -54 -27 -139 -22 -186 11 l-31 22 31 -30 c36 -34 99 -47 154 -32 119
32 130 33 156 21 23 -10 30 -9 50 10 29 27 30 41 5 63 -30 27 -81 35 -136 20
-51 -12 -69 -8 -115 27 -16 12 -18 12 38 -5 35 -11 26 12 -10 27 -43 18 -108
28 -108 17z"/>
<path d="M8670 3961 c0 -11 10 -31 23 -46 25 -29 127 -55 212 -54 l50 1 -40
13 c-22 7 -72 23 -112 34 -39 12 -85 33 -102 47 -29 24 -31 25 -31 5z"/>
<path d="M5156 4359 c-27 -10 -53 -22 -58 -27 -4 -4 43 -6 107 -4 123 5 334
-10 503 -34 56 -9 108 -14 115 -11 18 6 -143 65 -224 82 -106 23 -378 19 -443
-6z"/>
<path d="M4331 3346 c-2 -119 124 -416 201 -479 68 -54 127 -83 208 -102 67
-16 186 -59 276 -100 34 -16 258 -80 312 -89 18 -3 32 -1 32 4 0 6 -7 10 -15
10 -18 0 -197 68 -360 137 -167 71 -362 170 -421 215 -90 68 -166 205 -213
388 l-20 75 0 -59z"/>
<path d="M5340 3348 c-161 -49 -169 -50 -325 -55 -203 -7 -304 7 -393 53 -35
19 -59 27 -52 19 24 -28 111 -77 167 -93 83 -23 289 -21 414 6 116 24 369 102
369 114 0 10 10 13 -180 -44z"/>
<path d="M5735 3309 c30 -29 60 -60 65 -69 9 -17 7 -17 -38 -3 -32 10 -96 16
-202 17 -134 1 -183 -4 -367 -34 -117 -19 -213 -37 -213 -40 0 -7 151 -2 395
12 333 20 390 14 518 -61 l68 -40 -37 52 c-75 103 -107 138 -166 177 -82 55
-91 50 -23 -11z"/>
<path d="M4660 3136 c125 -81 291 -119 625 -141 126 -8 277 -20 335 -25 58 -6
128 -9 155 -9 45 1 42 3 -35 15 -47 7 -175 23 -285 34 -392 41 -650 84 -760
128 -88 35 -91 34 -35 -2z"/>
<path d="M4530 3086 c0 -8 206 -173 256 -204 28 -17 75 -40 105 -51 140 -48
405 -58 599 -23 105 19 105 20 45 21 -131 3 -424 22 -497 31 -167 23 -288 72
-430 174 -43 31 -78 54 -78 52z"/>
<path d="M4810 2690 c0 -10 2 -12 132 -88 97 -58 143 -76 240 -92 72 -13 120
-10 83 5 -11 4 -87 37 -170 72 -135 58 -271 113 -281 113 -2 0 -4 -4 -4 -10z"/>
<path d="M2295 4326 c-90 -15 -200 -44 -192 -52 3 -3 43 2 89 12 85 18 269 24
342 10 59 -11 34 9 -26 22 -93 19 -131 21 -213 8z"/>
<path d="M2040 4019 c55 -24 182 -38 335 -39 153 0 315 13 341 28 7 4 -114 7
-269 8 -155 0 -316 3 -357 7 -58 5 -69 4 -50 -4z"/>
<path d="M1895 3679 c9 -22 75 -65 129 -83 60 -20 159 -23 210 -6 52 17 39 23
-22 10 -83 -18 -244 23 -305 77 -13 13 -16 13 -12 2z"/>
<path d="M6070 2551 c0 -23 72 -100 129 -138 87 -60 110 -54 25 6 -38 26 -88
69 -111 94 -24 26 -43 43 -43 38z"/>
<path d="M6451 2486 c2 -2 40 -18 84 -36 44 -17 104 -45 133 -61 28 -16 52
-27 52 -24 0 11 -140 94 -184 109 -43 15 -95 22 -85 12z"/>
<path d="M6970 2355 c0 -2 46 -19 103 -36 145 -45 201 -74 247 -128 44 -51 52
-46 17 11 -42 70 -90 95 -252 133 -113 27 -115 27 -115 20z"/>
<path d="M6619 2233 c15 -28 141 -149 141 -135 0 14 -128 152 -142 152 -5 0
-5 -7 1 -17z"/>
<path d="M6885 2045 c5 -79 18 -132 40 -160 12 -17 12 -13 -1 28 -9 26 -22 82
-30 125 l-14 77 5 -70z"/>
<path d="M7207 1873 c-8 -45 1 -151 13 -158 3 -2 5 35 3 83 -5 115 -8 125 -16
75z"/>
<path d="M6925 1710 c3 -30 5 -67 5 -82 0 -16 5 -28 11 -28 12 0 5 86 -12 136
-7 23 -8 17 -4 -26z"/>
<path d="M7168 1550 c-34 -10 -56 -31 -50 -48 5 -15 0 -16 -130 -38 -114 -18
-123 -27 -57 -54 27 -11 32 -10 54 10 26 24 96 33 103 12 7 -22 23 -12 39 26
21 52 42 72 74 72 39 0 56 -32 35 -66 -16 -23 -16 -24 9 -12 14 6 29 25 35 44
7 19 16 34 22 34 5 0 37 -16 69 -35 33 -19 69 -35 80 -35 19 0 48 44 37 56 -3
3 -29 7 -58 9 -28 3 -75 12 -103 20 -55 16 -116 18 -159 5z"/>
<path d="M1729 9173 c-6 -15 -16 -66 -23 -114 -7 -47 -21 -103 -32 -125 -17
-36 -24 -40 -79 -52 -113 -25 -584 -11 -769 23 -45 9 -140 15 -225 15 -130 0
-154 3 -216 25 -91 32 -117 31 -182 -5 -40 -23 -71 -32 -128 -37 -41 -3 -75
-10 -75 -16 0 -9 66 -5 145 9 l30 5 -25 -20 c-14 -11 -47 -25 -75 -32 -27 -6
-57 -15 -65 -20 -31 -17 16 -9 99 17 63 20 91 35 121 65 45 46 59 47 157 14
59 -21 99 -27 206 -31 72 -3 204 -14 292 -24 88 -11 212 -23 275 -28 l115 -7
-67 -17 c-60 -15 -124 -45 -115 -54 8 -9 552 108 609 131 80 32 117 30 137 -7
14 -24 14 -30 -2 -63 -22 -46 -81 -74 -192 -90 l-80 -12 68 -7 c80 -9 137 -1
191 26 l39 20 18 -23 c42 -57 78 -260 48 -271 -23 -9 -261 48 -319 76 -29 14
-55 24 -57 22 -2 -2 15 -20 38 -41 36 -32 92 -62 189 -102 19 -8 9 -10 -45 -6
-106 6 -263 23 -333 35 -57 11 -63 14 -70 42 -5 17 -7 63 -5 101 l4 70 -23
-66 c-30 -83 -49 -113 -96 -143 -39 -26 -179 -61 -357 -91 -55 -9 -125 -26
-155 -37 -30 -11 -85 -28 -121 -38 -37 -9 -72 -21 -78 -24 -6 -4 -23 6 -37 23
-15 18 -35 31 -48 31 -33 0 -144 -58 -157 -82 -15 -28 -4 -33 19 -10 11 11 45
28 76 38 45 14 58 15 70 4 33 -26 12 -71 -57 -121 -31 -23 -51 -29 -89 -29
-89 0 -145 48 -111 94 17 23 115 96 128 96 13 0 272 122 322 152 58 35 93 88
93 139 l0 34 -23 -36 c-32 -53 -60 -74 -267 -197 -242 -145 -253 -153 -273
-193 -15 -32 -15 -36 1 -64 41 -70 137 -87 219 -39 26 15 73 53 104 84 l56 57
109 21 c60 11 132 24 159 27 28 4 100 16 160 27 160 31 279 28 525 -11 303
-47 398 -74 487 -133 29 -20 46 -41 58 -73 10 -25 20 -45 24 -45 15 0 44 92
48 155 8 105 -46 358 -132 620 -51 154 -121 311 -154 344 -31 31 -69 28 -82
-6z m-64 -785 c33 -6 64 -15 70 -20 13 -12 -118 -1 -275 22 l-125 19 135 -5
c74 -2 162 -9 195 -16z"/>
<path d="M2310 9166 c5 -13 27 -60 50 -105 22 -45 47 -105 55 -134 13 -49 14
-50 14 -16 1 58 -28 139 -76 212 -47 71 -58 82 -43 43z"/>
<path d="M2114 9121 c62 -108 112 -162 66 -69 -25 48 -81 127 -92 128 -4 0 8
-26 26 -59z"/>
<path d="M2709 9095 c58 -117 72 -154 81 -210 8 -46 9 -44 6 25 -3 87 -34 162
-91 226 l-36 39 40 -80z"/>
<path d="M2490 9155 c0 -17 63 -215 68 -211 7 8 -29 148 -49 186 -10 19 -18
31 -19 25z"/>
<path d="M1633 9010 c0 -47 2 -66 4 -42 2 23 2 61 0 85 -2 23 -4 4 -4 -43z"/>
<path d="M3670 8965 c0 -3 39 -25 88 -49 94 -47 249 -100 402 -136 142 -34
191 -59 240 -121 49 -62 65 -92 97 -179 22 -58 24 -60 20 -25 -13 112 -99 252
-183 297 -27 14 -130 49 -230 77 -100 28 -238 72 -308 96 -69 25 -126 43 -126
40z"/>
<path d="M3360 8884 c-65 -96 -126 -150 -251 -226 -61 -38 -103 -68 -92 -68
66 0 200 69 270 139 29 30 129 208 121 216 -2 2 -24 -25 -48 -61z"/>
<path d="M235 8851 c-33 -21 -99 -59 -147 -85 -49 -26 -88 -51 -88 -57 0 -13
3 -12 72 19 148 65 263 128 263 142 0 28 -40 20 -100 -19z"/>
<path d="M2506 8783 c-30 -69 -46 -147 -46 -235 0 -52 -10 -137 -25 -212 -28
-140 -29 -146 -17 -146 9 0 25 66 72 294 27 127 50 336 38 336 -3 0 -13 -17
-22 -37z"/>
<path d="M325 8765 c-33 -13 -98 -35 -145 -50 -95 -28 -180 -77 -180 -101 0
-13 6 -12 38 7 81 50 128 70 157 67 26 -3 30 -7 33 -36 3 -28 7 -33 25 -30 29
4 33 39 7 63 -25 23 -26 35 0 35 29 0 126 38 140 55 18 22 -3 19 -75 -10z"/>
<path d="M439 8695 c-15 -8 -29 -21 -32 -29 -10 -27 -108 -95 -150 -106 -47
-12 -256 -111 -256 -122 -1 -10 70 16 127 46 26 13 77 34 113 46 68 21 165 80
240 143 l43 37 -30 0 c-16 -1 -41 -7 -55 -15z"/>
<path d="M1131 8606 c-52 -93 -119 -127 -305 -160 -99 -17 -181 -50 -170 -67
8 -13 145 -7 235 11 106 22 212 64 246 98 31 31 33 37 33 102 0 39 -2 70 -4
70 -2 0 -18 -24 -35 -54z"/>
<path d="M447 8565 c-64 -25 -130 -51 -147 -60 -16 -8 -41 -15 -55 -15 -28 0
-44 -25 -27 -42 8 -8 37 2 104 36 105 52 128 57 128 24 0 -20 4 -18 43 18 23
23 55 50 71 62 42 32 15 27 -117 -23z"/>
<path d="M30 8550 c18 -12 60 -13 60 -2 0 4 -17 9 -37 10 -28 2 -34 0 -23 -8z"/>
<path d="M2347 8463 c-8 -32 -18 -73 -22 -91 -8 -38 15 -232 27 -232 4 0 8 33
8 74 0 41 5 119 10 175 13 124 1 162 -23 74z"/>
<path d="M380 8442 c0 -13 -302 -152 -344 -159 -20 -3 -36 -10 -36 -14 0 -13
7 -12 116 17 67 17 123 40 174 70 106 63 141 94 105 94 -8 0 -15 -4 -15 -8z"/>
<path d="M4506 8165 c-14 -80 -45 -175 -83 -248 -53 -101 -133 -171 -330 -287
-40 -23 -73 -47 -73 -52 0 -18 95 4 167 38 137 66 241 188 288 336 28 88 49
205 43 240 -3 15 -7 5 -12 -27z"/>
<path d="M4301 8144 c-47 -80 -143 -178 -199 -204 -48 -23 -132 -29 -227 -15
-38 6 -39 5 -20 -10 43 -35 102 -58 163 -63 60 -5 65 -3 119 34 71 49 125 121
169 225 19 45 33 83 31 85 -1 2 -18 -22 -36 -52z"/>
<path d="M4835 7953 c-26 -48 -62 -115 -80 -148 -17 -33 -57 -94 -88 -135 -31
-41 -51 -77 -45 -79 18 -6 121 113 166 192 39 67 107 245 98 254 -2 3 -25 -35
-51 -84z"/>
<path d="M2209 5980 c-18 -15 -20 -19 -8 -20 9 0 24 9 34 20 23 26 4 26 -26 0z"/>
<path d="M1441 1382 c81 -9 140 -12 165 -6 35 7 29 9 -56 15 -52 4 -126 7
-165 7 -62 -1 -56 -2 56 -16z"/>
<path d="M27 103 c-25 -4 -27 -8 -27 -54 0 -48 1 -49 30 -49 30 0 30 1 30 55
0 30 -1 54 -2 54 -2 -1 -15 -4 -31 -6z"/>
</g>
</svg>
