<svg id="Report_Database_dashboard_" viewBox="0 0 512 512" xmlns="http://www.w3.org/2000/svg" data-name="Report Database (dashboard)"><path d="m433.8 481.68h-310.25a10.47 10.47 0 0 1 -10.45-10.46v-400.22a10.46 10.46 0 0 1 10.45-10.45h310.25a10.46 10.46 0 0 1 10.45 10.45v400.22a10.47 10.47 0 0 1 -10.45 10.46zm-310.25-419.16a8.46 8.46 0 0 0 -8.45 8.48v400.22a8.46 8.46 0 0 0 8.45 8.46h310.25a8.46 8.46 0 0 0 8.45-8.46v-400.22a8.46 8.46 0 0 0 -8.45-8.45z" fill="#2351fb"/><rect fill="#2351fb" height="419.16" rx="9.45" width="329.15" x="83.42" y="29.69"/><g fill="#fff"><path d="m111 57a6.1 6.1 0 1 1 6.11-6.1 6.11 6.11 0 0 1 -6.11 6.1z"/><path d="m142.93 57a6.1 6.1 0 1 1 6.1-6.1 6.11 6.11 0 0 1 -6.1 6.1z"/><path d="m304.13 56.61a5.74 5.74 0 1 1 0-11.48h74.68a5.74 5.74 0 1 1 0 11.48z"/><path d="m186.37 158.74h24.38v55.43h-24.38z"/><path d="m218.87 130.17h24.38v84h-24.38z"/><path d="m251.38 102.45h24.38v111.71h-24.38z"/><path d="m283.89 93.5h24.38v120.67h-24.38z"/></g><rect fill="#68003c" height="61.07" rx="5.19" width="132.48" x="328" y="102.45"/><path d="m366.24 199.73h-38.24a1 1 0 0 1 0-2h37.24v-29.73a1 1 0 1 1 2 0v30.7a1 1 0 0 1 -1 1.03z" fill="#68003c"/><rect fill="#fff" height="2.69" rx="1.25" width="106.9" x="341.47" y="118.99"/><rect fill="#fff" height="2.69" rx="1.25" width="106.9" x="341.47" y="131.64"/><rect fill="#fff" height="2.69" rx="1.25" width="106.9" x="341.47" y="144.3"/><rect fill="#e67925" height="61.07" rx="5.19" width="132.48" x="232.14" y="242"/><path d="m270.38 339.27h-38.24a1 1 0 0 1 0-2h37.24v-29.69a1 1 0 0 1 2 0v30.69a1 1 0 0 1 -1 1z" fill="#68003c"/><rect fill="#fff" height="2.69" rx="1.25" width="106.9" x="245.61" y="258.53"/><rect fill="#fff" height="2.69" rx="1.25" width="106.9" x="245.61" y="271.19"/><rect fill="#fff" height="2.69" rx="1.25" width="106.9" x="245.61" y="283.84"/><rect fill="#fdc500" height="151.11" rx="3.75" width="183.23" x="27.52" y="228.85"/><circle cx="42.78" cy="242" fill="#fff" r="4.32"/><circle cx="60.92" cy="242" fill="#fff" r="4.32"/><circle cx="79.06" cy="242" fill="#fff" r="4.32"/><path d="m115.21 327.51c-21.78 0-12.78-44.45-29.61-44-8.41.24-18.52 7.54-29.24 21.1a165.53 165.53 0 0 0 -14 21.1 2 2 0 1 1 -3.52-1.89c8.65-16.09 28.7-44.32 47.1-44.32 21.17 0 11.39 45.33 30.27 43.94 19.77-1.5 32-54.71 54.63-62a12.37 12.37 0 0 1 11.61 1.6c12.63 9.21 12.77 43.54 12.77 45a2 2 0 0 1 -4 0c0-9.36-2-35.12-11.13-41.77a8.41 8.41 0 0 0 -8-1c-21.57 6.97-32.83 62.24-56.88 62.24z" fill="#68003c"/><path d="m43.69 349.36a2 2 0 0 1 -1.67-3.1c10.39-15.77 35.56-47.34 54.46-46.81 23.1.56 30 22.81 49.07 25.92 9 1.47 16.87-13 24.49-27.07 7.79-14.37 15.16-27.94 25.24-29.18a2 2 0 1 1 .49 4c-17.69 2.2-29.09 59.77-50.86 56.24-20.65-3.36-27.23-25.36-48.53-25.92-8.43-.17-19.9 7.43-33.11 22.07a219.73 219.73 0 0 0 -17.91 22.95 2 2 0 0 1 -1.67.9z" fill="#fff"/><rect fill="#fdc500" height="108.25" rx="9.88" width="156.48" x="328" y="316.3"/><path d="m388.18 394.12a2.43 2.43 0 0 1 -1.58-.58l-23-19.9a2.42 2.42 0 0 1 -.31-3.33l17.37-21.93a2.42 2.42 0 1 1 3.79 3l-15.95 20.12 21.26 18.38a2.42 2.42 0 0 1 -1.58 4.24z" fill="#fff"/><path d="m424.3 394.12a2.42 2.42 0 0 1 -1.58-4.24l21.28-18.38-15.94-20.11a2.42 2.42 0 0 1 3.79-3l17.37 21.93a2.41 2.41 0 0 1 -.31 3.33l-23 19.9a2.43 2.43 0 0 1 -1.61.57z" fill="#fff"/><path d="m401.3 395.36a2.42 2.42 0 0 1 -2.34-3.05l12.12-45a2.42 2.42 0 0 1 4.67 1.26l-12.12 45a2.42 2.42 0 0 1 -2.33 1.79z" fill="#fff"/></svg>