<svg xmlns="http://www.w3.org/2000/svg" version="1.1" xmlns:xlink="http://www.w3.org/1999/xlink"
    xmlns:svgjs="http://svgjs.com/svgjs" width="512" height="512" x="0" y="0" viewBox="0 0 512 512"
    style="enable-background:new 0 0 512 512" xml:space="preserve" class="">
    <g>
        <g data-name="Full stack web development">
            <path fill="#1d1160"
                d="M219.48 210.77H63.73a7 7 0 0 1-7-7V99.38a7 7 0 0 1 7-7h155.75a7 7 0 0 1 7 7v104.43a7 7 0 0 1-7 6.96zM63.73 94.42a5 5 0 0 0-5 5v104.39a5 5 0 0 0 5 5h155.75a5 5 0 0 0 5-5V99.38a5 5 0 0 0-5-5z"
                data-original="#2351fb" class="" opacity="1"></path>
            <circle cx="69.57" cy="103.93" r="3.86" fill="#1d1160" data-original="#2351fb" class="" opacity="1">
            </circle>
            <circle cx="85.54" cy="103.93" r="3.86" fill="#1d1160" data-original="#2351fb" class="" opacity="1">
            </circle>
            <circle cx="101.52" cy="103.93" r="3.86" fill="#1d1160" data-original="#2351fb" class="" opacity="1">
            </circle>
            <rect width="161.68" height="153.55" x="319.06" y="91.54" fill="#1d1160" rx="5.96" data-original="#2351fb"
                class="" opacity="1"></rect>
            <circle cx="332.36" cy="100.52" r="3.3" fill="#ffffff" data-original="#ffffff"></circle>
            <circle cx="346.01" cy="100.52" r="3.3" fill="#ffffff" data-original="#ffffff"></circle>
            <circle cx="359.65" cy="100.52" r="3.3" fill="#ffffff" data-original="#ffffff"></circle>
            <g fill="#2351fb">
                <rect width="51.66" height="2.72" x="67.17" y="117.6" rx="1.36" fill="#1d1160" data-original="#2351fb"
                    class="" opacity="1"></rect>
                <rect width="22.71" height="2.72" x="81.68" y="132.71" rx="1.36" fill="#1d1160" data-original="#2351fb"
                    class="" opacity="1"></rect>
                <rect width="59.93" height="2.72" x="81.68" y="147.82" rx="1.36" fill="#1d1160" data-original="#2351fb"
                    class="" opacity="1"></rect>
                <rect width="106.58" height="2.72" x="81.68" y="178.05" rx="1.36" fill="#1d1160" data-original="#2351fb"
                    class="" opacity="1"></rect>
                <rect width="39.8" height="2.72" x="81.68" y="193.16" rx="1.36" fill="#1d1160" data-original="#2351fb"
                    class="" opacity="1"></rect>
                <rect width="30.77" height="2.72" x="123.54" y="117.6" rx="1.36" fill="#1d1160" data-original="#2351fb"
                    class="" opacity="1"></rect>
                <rect width="104.05" height="2.72" x="112.1" y="132.71" rx="1.36" fill="#1d1160" data-original="#2351fb"
                    class="" opacity="1"></rect>
                <rect width="19.9" height="2.72" x="148.91" y="147.82" rx="1.36" fill="#1d1160" data-original="#2351fb"
                    class="" opacity="1"></rect>
                <rect width="17.09" height="2.72" x="129.01" y="193.16" rx="1.36" fill="#1d1160" data-original="#2351fb"
                    class="" opacity="1"></rect>
                <rect width="18.74" height="2.72" x="161.84" y="117.6" rx="1.36" fill="#1d1160" data-original="#2351fb"
                    class="" opacity="1"></rect>
                <rect width="51.66" height="2.72" x="67.17" y="163.46" rx="1.36" fill="#1d1160" data-original="#2351fb"
                    class="" opacity="1"></rect>
                <rect width="30.77" height="2.72" x="123.54" y="163.46" rx="1.36" fill="#1d1160" data-original="#2351fb"
                    class="" opacity="1"></rect>
                <rect width="18.74" height="2.72" x="161.84" y="163.46" rx="1.36" fill="#1d1160" data-original="#2351fb"
                    class="" opacity="1"></rect>
                <rect width="39.8" height="2.72" x="176.35" y="147.82" rx="1.36" fill="#1d1160" data-original="#2351fb"
                    class="" opacity="1"></rect>
                <rect width="21.31" height="2.72" x="194.84" y="178.05" rx="1.36" fill="#1d1160" data-original="#2351fb"
                    class="" opacity="1"></rect>
                <rect width="61.84" height="2.72" x="154.31" y="193.16" rx="1.36" fill="#1d1160" data-original="#2351fb"
                    class="" opacity="1"></rect>
            </g>
            <rect width="74.93" height="58.01" x="188.27" y="60.95" fill="#00788c" rx="5.71" data-original="#fdc500"
                class="" opacity="1"></rect>
            <path fill="#68003c"
                d="M217 112.81a7.56 7.56 0 0 1-7.56-7.55v-9.42a2.51 2.51 0 0 0-1.5-2.29L204.33 92a1.5 1.5 0 0 1 0-2.77l3.25-1.27a2 2 0 0 0 1.3-1.9V75.93a8.12 8.12 0 0 1 8.12-8.11 1.5 1.5 0 1 1 0 3 5.11 5.11 0 0 0-5.11 5.11V86a5 5 0 0 1-3.07 4.64l.31.14a5.49 5.49 0 0 1 3.31 5v9.42a4.56 4.56 0 0 0 4.56 4.55 1.5 1.5 0 1 1 0 3zM233.69 112.81a1.5 1.5 0 0 1 0-3 4.56 4.56 0 0 0 4.56-4.55v-9.42a5.49 5.49 0 0 1 3.31-5l.31-.14a5 5 0 0 1-3.07-4.7V75.93a5.11 5.11 0 0 0-5.11-5.11 1.5 1.5 0 0 1 0-3 8.12 8.12 0 0 1 8.11 8.11V86a2 2 0 0 0 1.3 1.9l3.25 1.27a1.5 1.5 0 0 1 .05 2.83l-3.65 1.59a2.51 2.51 0 0 0-1.5 2.29v9.42a7.56 7.56 0 0 1-7.56 7.51z"
                data-original="#68003c" class=""></path>
            <path fill="#ffffff"
                d="M383.47 196.15a2.49 2.49 0 0 1-1.64-.61L358 175a2.5 2.5 0 0 1-.33-3.45l18-22.68a2.49 2.49 0 1 1 3.91 3.1l-16.48 20.77 22 19a2.5 2.5 0 0 1-1.63 4.41zM420.84 196.15a2.5 2.5 0 0 1-1.64-4.39l22-19-16.48-20.81a2.5 2.5 0 1 1 3.92-3.1l18 22.68a2.51 2.51 0 0 1-.32 3.45l-23.82 20.58a2.47 2.47 0 0 1-1.66.59zM397 197.43a2.5 2.5 0 0 1-2.41-3.15l12.54-46.59A2.5 2.5 0 0 1 412 149l-12.54 46.59a2.51 2.51 0 0 1-2.46 1.84z"
                data-original="#ffffff"></path>
            <path fill="#e67925"
                d="m311.36 226.55-52.1 15.85a36.18 36.18 0 0 0-25.35 30l-13 102.77-40.67 61.33 30.91 5.83 51.09-45.16q12.94-64.34 25.87-128.67z"
                data-original="#e67925"></path>
            <path fill="#e67925" d="m327.032 236.209-24.527 1.82-3.458-46.6 24.526-1.82z" data-original="#e67925">
            </path>
            <path fill="#e67925"
                d="M307.42 145.47A28.23 28.23 0 0 0 280.3 181l4.7 21.47c1.72 7.85 8.37 13.87 15.64 14.44a24.74 24.74 0 0 0 4.65-.23C316 215 322 203.85 325.38 197.62c.57-1.06 1.19-2.31 1.82-3.72a28.2 28.2 0 0 0-19.78-48.43z"
                data-original="#e67925"></path>
            <path fill="#262246"
                d="M298.44 199.29a1.69 1.69 0 0 1-1.66-2l2-9.33a.51.51 0 0 1 .59-.39.5.5 0 0 1 .39.59l-2 9.34a.68.68 0 0 0 .69.83l3.4-.06a.5.5 0 0 1 .5.49.49.49 0 0 1-.49.51zM290.66 184.48a2.4 2.4 0 1 0 2.41 2.39 2.41 2.41 0 0 0-2.41-2.39zM308.87 184.39a2.4 2.4 0 1 0 2.41 2.39 2.41 2.41 0 0 0-2.41-2.39zM314.79 178.14c-2.76-2.59-6.9-1.54-7.59-1.37s-2.57.66-2.66 1.61c0 .54.55 1 .57 1 1.28 1 3-.89 5.62-.87 3.06 0 5 2.54 5.45 2.08.27-.3-.45-1.59-1.39-2.45zM292.06 176.75c-.69-.18-4.83-1.24-7.6 1.35-.94.88-1.66 2.14-1.39 2.45s2.39-2.05 5.45-2.06c2.63 0 4.34 1.84 5.62.89a1.38 1.38 0 0 0 .57-1c-.08-.96-2.07-1.48-2.65-1.63z"
                data-original="#262246"></path>
            <path fill="#68003c"
                d="M301.29 217.67a.5.5 0 1 1 0-1 17 17 0 0 0 14.4-7.19.5.5 0 0 1 .7-.12.51.51 0 0 1 .11.7 18 18 0 0 1-15.21 7.61z"
                data-original="#68003c" class=""></path>
            <path fill="#e67925"
                d="m322.17 227.72 54.82 7.7a50.06 50.06 0 0 1 37.69 26.93q31.49 62 63 124.1l-45.52 15.15C340.41 254 363.67 290.66 322.17 227.72z"
                data-original="#e67925"></path>
            <path fill="#00788c" d="m250.86 250.55 60.5-24 79.5 15.33-8 202.67H252.19q-.66-97.01-1.33-194z"
                data-original="#fdc500" class="" opacity="1"></path>
            <path fill="#e67925"
                d="m298.19 393.22 168-27.34c3.28 4.66 22.36 32.33 12.34 48-7.1 11.1-25.37 10.82-36.67 10.67-39.88-.54-83.63-.75-135-1z"
                data-original="#e67925"></path>
            <path fill="#00788c"
                d="m311.36 225.3 68.18 8.81A53.35 53.35 0 0 1 419.3 261l48.89 87.54-68.28 21.33-37.05-92z"
                data-original="#fdc500" class="" opacity="1"></path>
            <path fill="#00788c"
                d="m230.46 274.06-25.1 89 71 10.5L297 252.37l15.69-27.07-46.34 12.93a51.81 51.81 0 0 0-35.89 35.83z"
                data-original="#fdc500" class="" opacity="1"></path>
            <path fill="#e67925"
                d="M301.66 228.39s.35 8.83 10.68 9.58 13.9-10.75 13.9-10.75l-4.73-6.92-12.33 1.33-6.18 3.25z"
                data-original="#e67925"></path>
            <path fill="#68003c"
                d="M319.8 172.79s-8.49-.58-9.41-10.58c0 0-10.37-5.5-13.14 1s-8.39 7-8.39 7-4.64 15.29-16.39 10.39-21.5-27.89-7-41.89 33.47-4 33.47-4 8.57-10.17 17.3-3.46c0 0 23-2.79 27.23 19.46s-18.65 57-18.65 57c-2.93-21.02-1.77-13.01-5.02-34.92z"
                data-original="#68003c" class=""></path>
            <path fill="#e67925"
                d="M328.48 182.36c-3.11-1.6-7.14 0-9 3.67s-.89 7.88 2.21 9.48 7.14 0 9-3.67.89-7.84-2.21-9.48z"
                data-original="#e67925"></path>
            <path fill="#262246"
                d="M323.41 192.48a2.39 2.39 0 0 0 0-4.55.5.5 0 0 1 .16-1h4.75a.5.5 0 0 1 0 1h-3.12a3.36 3.36 0 0 1-1.44 5.47.5.5 0 0 1-.35-.92z"
                data-original="#262246"></path>
            <path fill="#68003c"
                d="M387 340.55a.5.5 0 0 1-.5-.5v-66.17a.51.51 0 0 1 .5-.5.5.5 0 0 1 .5.5v66.17a.5.5 0 0 1-.5.5z"
                data-original="#68003c" class=""></path>
            <path fill="#e67925"
                d="m309.93 391.55-51.25 2.33q-7.91 12.84-15.8 25.67a5.44 5.44 0 0 0 9.18 5.83l10.49-17.66-5.62 20.33c.42 4.86 5.7 5.24 8.52 1.69l6.6-18.55-1.12 17.19a4.65 4.65 0 0 0 9 .86l1.6-15.69 1 15.75a4.17 4.17 0 0 0 8.12.06q.64-5.57 1.3-11.14l7.12 5.92a10.3 10.3 0 0 0 10.4 1.64l8.48-3.4q-4.03-15.38-8.02-30.83z"
                data-original="#e67925"></path>
            <path fill="#68003c"
                d="M415.12 374.69a.5.5 0 0 1-.08-1l37.4-6.08a.5.5 0 0 1 .16 1c-38.96 6.33-37.38 6.08-37.48 6.08z"
                data-original="#68003c" class=""></path>
            <path fill="#262246" d="m299.22 203.13 10.29-2.37a5.29 5.29 0 0 1-10.29 2.37z" data-original="#262246">
            </path>
            <path fill="#1d1160" d="M199.76 437.55h-48l6.5-64h35z" data-original="#2351fb" class="" opacity="1"></path>
            <path fill="#68003c"
                d="M235.8 430.88h7.75v5.17h-7.75zM245.3 430.88h7.75v5.17h-7.75zM254.8 430.88h7.75v5.17h-7.75zM264.3 430.88h7.75v5.17h-7.75zM273.8 430.88h7.75v5.17h-7.75zM283.3 430.88h7.75v5.17h-7.75zM292.8 430.88h7.75v5.17h-7.75zM302.3 430.88h7.75v5.17h-7.75zM311.8 430.88h7.75v5.17h-7.75zM321.3 430.88h7.75v5.17h-7.75zM330.8 430.88h7.75v5.17h-7.75z"
                data-original="#68003c" class=""></path>
            <path fill="#1d1160" d="M293.74 411.55H81.26l-12-143h214.35zM240.47 439.49H103.39l6.83-10.32h123.41z"
                data-original="#2351fb" class="" opacity="1"></path>
            <path fill="#1d1160" d="M165.76 433.33h178v9.06h-178z" data-original="#2351fb" class="" opacity="1"></path>
            <path fill="#68003c"
                d="M30.59 439.55h450.82v11.5H30.59zM154.4 412.05a.5.5 0 0 1-.5-.55l3.86-38a.51.51 0 0 1 .5-.45h35a.51.51 0 0 1 .5.45l4 35.66a.5.5 0 0 1-1 .11l-3.95-35.22h-34.1l-3.81 37.55a.51.51 0 0 1-.5.45z"
                data-original="#68003c" class=""></path>
        </g>
    </g>
</svg>