<?xml version="1.0" standalone="no"?>
<!DOCTYPE svg PUBLIC "-//W3C//DTD SVG 20010904//EN"
 "http://www.w3.org/TR/2001/REC-SVG-20010904/DTD/svg10.dtd">
<svg version="1.0" xmlns="http://www.w3.org/2000/svg"
 width="1024.000000pt" height="1024.000000pt" viewBox="0 0 1024.000000 1024.000000"
 preserveAspectRatio="xMidYMid meet">

<g transform="translate(0.000000,1024.000000) scale(0.100000,-0.100000)"
fill="#000000" stroke="none">
<path d="M6450 9470 c-41 -10 -116 -34 -167 -54 -117 -45 -181 -56 -317 -56
-181 0 -314 -46 -451 -155 -238 -189 -288 -213 -477 -234 -116 -13 -188 -38
-271 -95 -105 -71 -177 -201 -177 -320 l0 -51 34 51 c74 109 199 191 337 220
39 8 126 17 193 19 l121 4 -95 -32 c-254 -87 -423 -219 -514 -401 -54 -108
-69 -181 -64 -311 6 -123 25 -187 88 -291 36 -60 37 -63 22 -93 -27 -56 -66
-81 -128 -81 -57 0 -102 17 -141 53 -22 20 -23 20 -23 1 1 -33 35 -97 81 -148
103 -116 275 -145 433 -73 98 45 156 117 192 238 27 91 71 125 228 174 116 37
193 90 269 184 88 110 178 193 248 231 l62 33 -41 -54 c-22 -30 -70 -117 -107
-194 -58 -121 -76 -148 -134 -205 -102 -102 -205 -145 -378 -157 -108 -7 -100
9 -78 -158 32 -242 18 -362 -69 -574 -37 -88 -44 -115 -36 -131 9 -16 112 -72
184 -100 24 -9 41 -50 156 -379 39 -113 80 -222 91 -243 29 -58 76 -106 116
-119 45 -15 152 -7 218 16 55 19 271 124 407 198 100 55 93 57 157 -51 89
-151 211 -515 231 -689 5 -48 9 -87 7 -88 -1 0 -15 -5 -32 -11 -16 -5 -30 -14
-30 -19 0 -15 52 -23 170 -23 203 -2 380 47 645 179 85 43 156 77 157 76 1 -2
-52 -61 -119 -132 -363 -391 -684 -821 -983 -1320 -113 -188 -127 -208 -240
-321 -66 -67 -169 -158 -230 -203 -118 -87 -325 -199 -417 -226 l-56 -16 28
-62 c15 -34 32 -87 38 -117 42 -217 11 -543 -72 -764 -52 -137 -161 -268 -270
-323 l-50 -25 48 53 c66 73 118 173 165 314 68 205 93 389 85 615 -4 105 -7
121 -37 180 -44 88 -147 194 -205 210 -88 23 -137 -15 -205 -160 -161 -344
-183 -381 -299 -498 -85 -86 -165 -129 -255 -138 -46 -4 -66 -1 -94 14 l-37
19 -11 -37 c-26 -88 -6 -179 58 -258 17 -20 86 -107 155 -192 164 -205 336
-393 433 -470 82 -67 204 -131 294 -156 30 -8 107 -18 172 -21 101 -5 117 -8
112 -22 -2 -9 -14 -74 -25 -146 -12 -71 -36 -209 -55 -305 -19 -96 -42 -218
-50 -270 -9 -52 -19 -113 -23 -135 l-7 -40 -288 -3 c-272 -2 -288 -1 -283 15
5 17 44 205 81 388 9 44 36 177 61 295 l44 215 -42 35 c-24 19 -91 81 -149
138 l-106 103 -12 -59 c-6 -32 -70 -285 -142 -563 -165 -637 -179 -691 -179
-706 0 -10 528 -13 2606 -13 2384 0 2609 1 2640 16 19 9 44 31 57 48 21 30 22
42 25 264 l3 232 -700 0 c-386 0 -701 2 -701 4 0 2 7 23 16 47 59 167 270 907
358 1254 114 454 235 1043 286 1395 44 313 54 433 54 705 1 270 -8 340 -61
490 -98 275 -262 460 -632 714 -69 47 -97 71 -83 71 19 0 21 4 15 33 -12 67
-134 425 -149 437 -11 10 -44 11 -132 7 -124 -7 -134 -9 -279 -36 l-92 -18
-40 97 c-71 170 -172 452 -192 535 -27 114 -25 218 6 311 47 139 184 410 441
866 91 162 99 174 104 145 5 -30 6 -27 25 33 26 86 27 284 1 380 -41 151 -149
321 -258 406 -124 95 -225 134 -361 137 l-90 3 -13 37 c-30 85 -91 184 -154
248 -79 80 -148 120 -264 153 -111 33 -269 35 -386 6z m626 -1635 c82 -48 144
-176 144 -297 0 -198 -146 -437 -317 -519 -57 -27 -79 -32 -147 -33 l-80 -1
-18 60 c-65 212 -63 480 6 630 30 65 97 140 150 167 82 42 183 39 262 -7z
m253 -3042 c-72 -78 -430 -452 -567 -593 l-93 -95 56 98 c117 209 232 355 359
456 49 40 290 198 305 200 2 1 -25 -29 -60 -66z m96 -1374 c-343 -345 -571
-500 -930 -634 -90 -34 -76 -22 125 109 270 175 611 416 820 579 74 58 137
106 140 106 3 1 -67 -71 -155 -160z m898 -637 c-283 -234 -572 -384 -898 -467
-236 -60 -241 -58 -70 36 192 104 444 226 660 318 94 39 211 91 260 116 50 24
94 44 98 44 5 1 -18 -21 -50 -47z m-882 -919 c0 -5 2 -15 4 -23 1 -8 6 -105 9
-215 4 -110 11 -283 17 -385 5 -102 8 -212 8 -245 -1 -55 -3 -48 -25 75 -14
74 -49 261 -79 415 -72 373 -71 344 -10 366 56 20 75 22 76 12z"/>
<path d="M3919 7333 c-32 -4 -50 -19 -143 -119 l-106 -114 0 -65 c0 -62 1 -65
24 -65 29 0 39 -12 30 -34 -6 -14 -60 -16 -526 -16 -491 0 -520 -1 -513 -17
81 -205 76 -723 -8 -893 -21 -42 -25 -45 -66 -48 -39 -3 -43 -1 -36 15 25 57
56 188 71 290 27 196 12 408 -43 588 l-19 60 -93 3 c-93 3 -93 3 -88 -20 58
-260 68 -475 31 -716 -8 -56 -26 -133 -39 -172 l-23 -69 92 -89 c51 -48 151
-135 222 -191 124 -100 129 -106 142 -155 44 -179 33 -171 352 -278 319 -107
429 -151 506 -199 76 -48 164 -140 197 -205 14 -28 62 -165 106 -305 96 -307
246 -742 334 -974 123 -325 275 -698 294 -724 1 -2 23 13 47 33 59 48 113 133
224 348 50 98 97 186 103 196 10 16 1 36 -59 135 -194 316 -487 971 -678 1513
-82 233 -93 259 -141 319 -26 34 -48 78 -66 135 -15 48 -45 114 -69 150 -23
36 -133 157 -243 270 -220 225 -252 261 -409 463 -59 76 -119 145 -132 154
-22 14 -26 14 -49 -1 -14 -10 -30 -28 -35 -42 -12 -31 4 -65 144 -298 90 -151
101 -175 101 -217 0 -132 -151 -178 -357 -109 -168 57 -167 59 35 60 177 0
217 6 217 35 0 19 -68 147 -142 268 -129 210 -140 309 -42 383 32 25 47 29 99
29 83 0 103 -16 275 -229 147 -183 280 -330 439 -484 l96 -94 3 609 c2 557 3
609 19 621 12 9 82 12 265 12 l248 0 0 63 c0 36 -5 68 -12 75 -7 7 -42 12 -85
12 l-73 0 0 49 c0 35 -4 51 -16 55 -16 6 -343 5 -405 -1z"/>
<path d="M1756 7030 c-64 -77 -91 -253 -90 -590 1 -264 14 -396 50 -507 30
-94 27 -93 284 -93 l223 -1 28 27 c36 34 62 103 91 236 19 90 22 134 22 348 0
218 -2 256 -22 348 -30 138 -57 206 -93 237 l-31 25 -218 0 -218 0 -26 -30z
m99 -212 c46 -205 41 -583 -12 -771 -19 -70 -25 -64 -49 53 -22 112 -28 483
-9 620 16 116 33 182 45 175 5 -3 16 -37 25 -77z"/>
<path d="M4290 6970 c-31 -14 -40 -28 -40 -67 0 -40 39 -73 85 -73 26 0 37 -7
54 -32 l20 -33 -167 -5 -167 -5 0 -457 0 -458 217 0 217 0 5 -52 c3 -29 13
-129 21 -223 22 -227 80 -641 111 -790 50 -236 145 -483 241 -625 69 -102 145
-192 187 -221 20 -13 36 -28 36 -32 0 -5 -34 -54 -75 -108 -41 -55 -75 -104
-75 -110 0 -6 18 -37 41 -70 29 -43 45 -58 57 -55 66 20 116 27 144 22 54 -10
129 -50 187 -98 l54 -46 56 20 c31 10 80 31 110 46 l54 27 92 270 c50 149 106
305 123 348 207 507 425 930 624 1209 l50 71 -11 54 c-7 29 -16 55 -21 58 -5
3 -35 -19 -67 -48 -114 -104 -256 -218 -411 -329 -86 -62 -184 -140 -218 -173
-72 -72 -169 -216 -334 -500 -67 -115 -158 -265 -202 -332 -92 -140 -83 -138
-172 -43 -111 121 -200 286 -272 510 -50 152 -78 298 -123 635 -55 413 -61
491 -53 705 4 102 7 244 6 315 -1 72 -2 210 -3 308 l-1 177 -54 0 c-50 0 -57
3 -77 31 -18 26 -19 33 -8 40 8 5 17 9 20 9 10 0 29 49 29 74 0 43 -26 54
-150 60 -71 4 -124 2 -140 -4z"/>
<path d="M3536 4912 c1 -37 5 -290 8 -562 10 -716 26 -1328 36 -1355 11 -28
90 -68 180 -91 107 -27 261 -13 442 40 l56 17 -24 87 c-48 170 -168 635 -294
1140 -82 329 -138 534 -156 570 -45 93 -135 177 -225 210 l-25 10 2 -66z"/>
<path d="M1442 3736 c-30 -7 -92 -33 -140 -56 -266 -132 -392 -430 -292 -692
24 -63 23 -58 7 -58 -25 0 -132 -59 -160 -88 l-27 -28 -1 -229 c0 -127 0 -318
0 -427 l1 -196 45 -55 c61 -75 175 -150 278 -182 93 -30 250 -44 308 -27 34 9
38 8 48 -14 6 -14 31 -46 56 -73 l45 -48 0 -213 0 -212 -42 6 c-121 18 -364
37 -546 43 l-204 6 6 -318 c6 -353 7 -356 76 -402 l33 -23 1667 0 1668 0 30
113 c52 188 122 463 122 475 0 9 -261 12 -1090 12 -729 0 -1105 4 -1138 11
-28 5 -114 20 -193 32 l-144 22 -3 145 -3 144 98 98 98 98 113 0 c130 0 223
25 324 86 188 115 262 345 188 589 -59 191 -225 372 -401 436 -52 19 -60 25
-55 43 41 147 44 336 7 479 -60 229 -227 416 -437 487 -86 28 -260 37 -342 16z
m318 -2466 l0 -140 -30 0 -30 0 0 140 0 140 30 0 30 0 0 -140z"/>
<path d="M3432 3215 c-42 -35 -87 -110 -106 -174 -23 -77 -21 -219 4 -317 34
-133 91 -238 179 -324 l77 -75 28 -105 c53 -200 160 -381 269 -453 87 -58 144
-72 287 -72 129 0 125 0 412 77 34 9 38 14 48 61 12 57 14 52 -71 149 -103
115 -276 345 -305 404 -50 103 -44 258 16 400 11 26 19 48 17 50 -2 2 -55 -10
-118 -25 -220 -56 -341 -61 -474 -20 -102 31 -264 153 -249 187 6 14 23 262
17 262 -1 0 -15 -11 -31 -25z"/>
</g>
</svg>
