<?xml version="1.0" standalone="no"?>
<!DOCTYPE svg PUBLIC "-//W3C//DTD SVG 20010904//EN"
 "http://www.w3.org/TR/2001/REC-SVG-20010904/DTD/svg10.dtd">
<svg version="1.0" xmlns="http://www.w3.org/2000/svg"
 width="1024.000000pt" height="1024.000000pt" viewBox="0 0 1024.000000 1024.000000"
 preserveAspectRatio="xMidYMid meet">

<g transform="translate(0.000000,1024.000000) scale(0.100000,-0.100000)"
fill="#000000" stroke="none">
<path d="M3600 8373 l0 -648 323 321 c177 177 357 354 400 394 l77 73 0 254 0
253 -400 0 -400 0 0 -647z"/>
<path d="M5175 9008 c-16 -6 -46 -22 -65 -36 -62 -46 -1569 -1555 -1563 -1565
3 -6 2 -7 -4 -4 -12 8 -166 -147 -156 -157 4 -4 3 -6 -4 -4 -18 4 -729 -709
-750 -752 -22 -47 -28 -120 -13 -166 18 -53 95 -134 128 -134 23 0 19 -7 -45
-70 l-71 -69 105 -103 c57 -57 107 -102 109 -101 13 4 130 116 394 377 328
324 1648 1626 1978 1951 l222 218 0 236 c0 213 -2 240 -20 279 -13 28 -24 41
-31 36 -7 -4 -9 -3 -6 3 16 25 -79 73 -140 72 -21 0 -51 -5 -68 -11z"/>
<path d="M7556 8954 c-9 -8 -16 -25 -16 -36 0 -13 186 -207 548 -571 301 -304
624 -630 717 -725 94 -96 178 -178 188 -183 27 -15 57 6 57 42 0 26 -59 88
-452 485 -249 251 -575 579 -723 730 -149 151 -278 274 -287 274 -9 0 -24 -7
-32 -16z"/>
<path d="M5640 8312 l0 -408 -502 -494 c-277 -272 -829 -816 -1228 -1210 -399
-393 -766 -755 -816 -803 l-91 -88 -6 -97 c-8 -127 -26 -195 -87 -317 -89
-180 -227 -318 -405 -405 -106 -52 -239 -90 -317 -90 l-48 0 0 -730 0 -730
-90 0 -90 0 0 203 0 202 -30 52 c-170 296 -594 331 -837 70 -125 -136 -158
-264 -146 -578 l6 -179 3706 5 c2038 2 3885 4 4104 5 l397 0 0 158 c0 169 -13
248 -52 324 -35 70 -104 153 -158 193 l-50 37 0 1194 c0 657 -3 1194 -8 1194
-4 0 -130 -123 -280 -273 l-272 -273 0 -953 0 -953 -48 -52 c-83 -92 -142
-229 -142 -333 0 -24 -4 -43 -10 -43 -7 0 -10 419 -10 1238 l0 1237 -125 125
-125 125 0 120 0 120 -108 108 c-59 59 -112 104 -117 100 -4 -4 -5 -3 -2 3 8
13 -156 177 -167 167 -4 -4 -6 -1 -4 7 2 8 -3 14 -10 12 -8 -1 -11 1 -8 6 3 5
-9 22 -26 38 l-32 29 17 -27 c15 -24 15 -27 2 -21 -9 3 -19 18 -22 34 -5 28
-43 72 -43 51 0 -7 5 -12 11 -12 5 0 8 -4 4 -10 -3 -5 -14 -1 -25 10 -22 22
-27 35 -9 24 7 -4 10 -1 7 7 -3 8 -13 13 -22 11 -21 -4 -50 24 -42 43 5 14
-115 130 -135 130 -5 0 -8 3 -6 6 4 10 -24 38 -36 35 -7 -1 -9 -1 -4 1 14 8 7
25 -8 19 -8 -3 -14 0 -12 7 1 7 -4 11 -11 9 -6 -1 -11 4 -10 10 2 7 -3 12 -10
10 -8 -1 -11 1 -8 6 3 5 -6 20 -20 33 -22 21 -24 21 -18 4 4 -11 4 -17 0 -13
-4 3 -9 13 -10 22 -3 22 -47 67 -59 59 -6 -3 -7 -2 -4 4 8 13 -37 56 -48 46
-4 -5 -5 -3 -2 3 7 12 -25 47 -36 39 -4 -3 -5 -2 -2 2 8 10 -16 33 -28 26 -5
-3 -7 -2 -4 4 7 11 -96 116 -106 108 -4 -3 -5 -2 -2 2 9 12 -16 32 -33 26 -12
-3 -13 -2 -5 4 9 6 -11 32 -70 91 -45 45 -85 82 -89 82 -5 0 -8 3 -9 8 -1 13
-31 42 -39 37 -4 -3 -14 3 -21 13 -13 16 -12 16 6 3 11 -8 -9 15 -45 52 -46
48 -67 63 -73 54 -6 -8 -7 -7 -4 4 6 19 -55 83 -68 72 -4 -5 -5 -3 -2 3 8 14
-17 37 -27 26 -4 -4 -6 0 -4 8 2 8 -3 14 -10 12 -8 -1 -11 1 -8 6 7 12 -148
164 -159 155 -4 -4 -5 -3 -2 3 8 14 -36 57 -48 47 -4 -5 -5 -3 -2 3 8 14 -17
37 -28 26 -5 -4 -5 -2 -2 4 7 11 -29 51 -42 47 -3 -2 -6 0 -6 5 0 15 -17 32
-26 26 -5 -3 -8 0 -7 8 2 7 -4 12 -12 10 -8 -2 -12 0 -8 4 4 4 -19 36 -52 71
-49 52 -60 70 -60 98 0 37 36 75 72 75 26 0 68 -23 97 -54 13 -14 28 -23 34
-19 6 3 7 2 4 -4 -8 -13 667 -686 678 -676 4 4 5 3 2 -3 -6 -10 641 -664 658
-664 4 0 0 10 -11 23 -17 20 -16 20 9 -2 28 -25 37 -47 15 -36 -7 4 6 -12 30
-35 24 -23 47 -38 54 -34 6 4 8 3 5 -3 -9 -14 62 -85 76 -76 6 3 7 1 3 -5 -9
-15 62 -84 77 -76 7 4 9 3 4 -1 -11 -13 23 -44 41 -38 12 3 13 2 5 -4 -9 -7 0
-22 36 -57 27 -26 51 -44 53 -39 3 4 4 3 2 -3 -1 -7 9 -22 24 -35 20 -19 23
-19 12 -4 -14 18 -14 19 2 6 10 -7 16 -16 13 -20 -2 -4 45 -56 106 -117 l109
-109 0 -101 0 -101 129 -126 c104 -101 137 -128 172 -137 69 -19 151 2 206 53
32 29 57 110 49 163 -7 55 -33 107 -48 98 -6 -4 -8 -3 -5 3 7 11 -488 509
-503 506 -6 -2 -9 1 -7 6 3 14 -114 132 -124 125 -5 -3 -8 0 -7 8 2 7 -3 12
-10 10 -6 -1 -11 4 -10 10 2 7 -3 12 -10 10 -8 -1 -11 1 -8 6 7 12 -68 84 -79
75 -4 -5 -5 -3 -2 3 8 14 -96 117 -108 107 -4 -5 -5 -3 -2 3 9 15 -140 157
-155 148 -7 -5 -8 -3 -3 5 9 15 -154 183 -169 174 -5 -3 -6 -2 -3 4 7 11 -499
509 -514 505 -6 -1 -8 2 -5 7 8 12 -343 363 -355 355 -5 -3 -8 -2 -7 3 2 4 -4
18 -13 31 -11 15 -22 20 -35 16 -16 -5 -16 -4 -4 5 14 10 7 16 -13 12 -5 -1
-6 3 -3 8 4 5 -14 29 -40 53 -25 23 -66 64 -91 90 -25 26 -50 45 -56 41 -6 -3
-7 -2 -4 4 9 15 -338 357 -353 348 -9 -6 -11 -4 -5 4 5 9 -13 34 -51 72 -32
32 -62 59 -66 59 -4 0 -8 -184 -8 -408z m17 -304 c-3 -7 -5 -2 -5 12 0 14 2
19 5 13 2 -7 2 -19 0 -25z m0 -80 c-2 -13 -4 -3 -4 22 0 25 2 35 4 23 2 -13 2
-33 0 -45z m48 -88 c27 -27 47 -50 44 -50 -3 0 -27 23 -54 50 -27 28 -47 50
-44 50 3 0 27 -22 54 -50z m380 -160 c3 -6 -1 -7 -9 -4 -18 7 -21 14 -7 14 6
0 13 -4 16 -10z m-200 -18 c-3 -3 -11 0 -18 7 -9 10 -8 11 6 5 10 -3 15 -9 12
-12z m60 -62 c10 -11 16 -20 13 -20 -3 0 -13 9 -23 20 -10 11 -16 20 -13 20 3
0 13 -9 23 -20z m681 -1047 c487 -483 893 -891 901 -908 20 -37 19 -94 -2
-114 -13 -14 -15 -11 -15 24 -1 22 -6 50 -13 61 -7 12 -192 199 -412 414 -691
679 -1366 1354 -1381 1382 -19 36 -18 57 3 81 17 19 18 18 26 -21 7 -36 88
-119 893 -919z m-859 941 c-3 -3 -12 -4 -19 -1 -8 3 -5 6 6 6 11 1 17 -2 13
-5z m644 -141 c13 -16 12 -17 -3 -4 -10 7 -18 15 -18 17 0 8 8 3 21 -13z m164
-163 c11 -17 -5 -11 -28 11 l-22 21 22 -11 c12 -6 25 -16 28 -21z m-835 -30
c16 -10 194 -185 1103 -1089 459 -456 538 -538 535 -559 -4 -31 -38 -43 -100
-35 -41 5 -64 27 -528 487 -1222 1211 -1123 1111 -1116 1143 12 51 66 78 106
53z m879 -24 c-3 -3 -11 5 -18 17 -13 21 -12 21 5 5 10 -10 16 -20 13 -22z
m172 -163 c13 -17 13 -17 -6 -3 -11 8 -22 16 -24 17 -2 2 0 3 6 3 6 0 17 -8
24 -17z m123 -121 c2 -4 -4 -8 -14 -8 -10 0 -16 4 -14 8 3 4 9 8 14 8 5 0 11
-4 14 -8z m271 -272 c3 -5 1 -10 -4 -10 -6 0 -11 5 -11 10 0 6 2 10 4 10 3 0
8 -4 11 -10z m85 -82 c0 -6 -6 -5 -15 2 -8 7 -15 14 -15 16 0 2 7 1 15 -2 8
-4 15 -11 15 -16z m-1419 -240 c190 -70 321 -207 374 -393 24 -80 16 -243 -15
-333 l-22 -62 -531 2 -532 3 -19 55 c-24 71 -33 234 -16 309 44 207 225 389
433 436 92 22 244 13 328 -17z m1729 -293 c13 -14 21 -25 18 -25 -2 0 -15 11
-28 25 -13 14 -21 25 -18 25 2 0 15 -11 28 -25z m-160 -85 c6 -11 9 -20 8 -20
-2 0 -11 9 -21 20 -9 11 -13 20 -7 20 5 0 14 -9 20 -20z m295 -50 l40 -45 -42
40 c-24 21 -43 43 -43 49 0 5 1 7 3 5 1 -2 20 -24 42 -49z m-235 -5 c7 -8 9
-15 6 -15 -4 0 -14 7 -22 15 -9 8 -11 15 -6 15 5 0 15 -7 22 -15z m346 -97
l29 -33 -32 29 c-31 28 -38 36 -30 36 2 0 16 -15 33 -32z m-346 -920 l0 -423
-210 3 -210 3 0 414 0 415 203 3 c111 1 205 3 210 5 4 1 7 -188 7 -420z
m-3238 -3 l-2 -415 -210 0 c-115 0 -211 3 -213 8 -2 4 -2 190 1 415 l5 407
211 0 211 0 -3 -415z m604 399 c-3 -9 -6 -195 -6 -415 l0 -399 -210 0 -210 0
0 415 0 415 216 0 c193 0 215 -2 210 -16z m2034 -301 c0 -175 -3 -362 -7 -415
l-6 -98 -209 0 -208 0 0 415 0 415 215 0 215 0 0 -317z m-826 -200 c-1 -7 -2
-407 -2 -888 l-2 -875 -200 0 -200 0 -2 333 c-2 182 -1 529 1 770 l4 437 -202
0 -201 0 0 120 0 120 403 -2 c314 -2 402 -6 401 -15z m-3237 -173 c58 -35 81
-118 49 -178 -8 -15 -55 -66 -103 -113 l-88 -87 -192 -4 c-177 -3 -194 -5
-208 -23 -16 -20 -16 -19 -6 1 6 12 104 112 218 223 l208 201 45 0 c27 0 58
-8 77 -20z m1424 -698 c1 -244 -1 -445 -3 -447 -1 -2 -96 -6 -210 -10 l-208
-8 0 457 0 456 210 -2 211 -3 0 -443z m604 1 c-3 -348 -7 -448 -17 -455 -7 -4
-101 -7 -208 -5 l-195 2 -3 453 -2 452 215 0 215 0 -5 -447z m2030 289 c0 -86
-2 -290 -3 -452 l-2 -295 -208 0 -207 0 -3 453 -2 452 212 0 213 0 0 -158z
m605 -292 l0 -450 -73 0 c-41 0 -135 -3 -210 -7 l-137 -6 0 456 0 457 210 0
210 0 0 -450z m-2058 268 c3 -7 3 -57 0 -111 l-4 -98 -82 3 -81 3 -3 94 c-1
52 -1 100 2 108 7 18 162 19 168 1z m2475 -480 c-2 -13 -4 -3 -4 22 0 25 2 35
4 23 2 -13 2 -33 0 -45z m33 -618 c36 0 42 -26 8 -33 -13 -2 6 -6 42 -7 l65
-3 -80 -7 c-44 -4 -80 -7 -80 -6 0 1 2 111 5 246 l5 245 3 -217 2 -218 30 0z
m-4928 -67 c-40 -2 -103 -2 -140 0 -37 2 -4 3 73 3 77 0 107 -2 67 -3z m253
-11 c-3 -3 -11 0 -18 7 -9 10 -8 11 6 5 10 -3 15 -9 12 -12z m81 5 c4 -4 -5
-7 -19 -7 -15 0 -27 4 -27 8 0 10 36 9 46 -1z m34 9 c0 -3 -4 -8 -10 -11 -5
-3 -10 -1 -10 4 0 6 5 11 10 11 6 0 10 -2 10 -4z m1338 -3 c-54 -2 -142 -2
-195 0 -54 1 -10 3 97 3 107 0 151 -2 98 -3z m2885 0 c-29 -2 -77 -2 -105 0
-29 2 -6 3 52 3 58 0 81 -1 53 -3z"/>
<path d="M2195 8619 c-113 -12 -206 -35 -303 -75 -376 -156 -629 -456 -714
-846 -29 -137 -32 -418 -4 -546 38 -177 112 -347 211 -487 56 -78 176 -199
243 -243 l53 -35 -65 -66 -66 -66 31 -32 31 -31 57 28 c73 36 167 65 264 80
109 18 320 8 416 -20 40 -11 75 -19 76 -18 1 2 -2 34 -8 72 -8 50 -7 83 1 124
26 123 33 132 554 647 360 355 488 487 488 504 0 100 -85 367 -152 476 -46 74
-139 185 -210 250 -81 73 -194 148 -209 139 -7 -4 -9 -3 -6 3 8 12 -100 63
-207 97 -131 43 -323 61 -481 45z m885 -733 c0 -2 -8 -10 -17 -17 -16 -13 -17
-12 -4 4 13 16 21 21 21 13z m-410 -409 c0 -2 -10 -12 -22 -23 l-23 -19 19 23
c18 21 26 27 26 19z"/>
<path d="M6780 8432 c-93 -46 -88 -189 8 -229 50 -21 107 -2 139 46 42 62 19
147 -48 183 -42 22 -55 22 -99 0z"/>
<path d="M7457 8336 c-137 -51 -215 -172 -205 -317 10 -138 90 -237 226 -279
147 -46 303 25 370 168 35 75 37 183 5 254 -29 63 -91 129 -150 158 -60 30
-187 38 -246 16z"/>
<path d="M7975 7566 c-122 -39 -214 -119 -268 -234 -43 -92 -50 -209 -17 -306
27 -82 92 -172 155 -214 78 -52 137 -67 255 -67 98 0 109 2 173 33 87 43 161
117 201 201 29 62 31 73 31 181 0 106 -2 120 -28 172 -56 115 -161 202 -281
234 -63 17 -168 17 -221 0z"/>
<path d="M1975 6050 c-162 -29 -299 -101 -415 -219 -95 -96 -138 -166 -169
-281 -109 -389 112 -795 489 -899 41 -12 76 -21 77 -21 2 0 3 157 3 349 l0
349 26 31 c33 39 80 42 121 7 l28 -24 3 -356 c3 -408 -10 -369 114 -337 231
59 419 236 482 453 31 108 42 241 27 338 -15 96 -42 181 -54 173 -6 -3 -7 -1
-3 5 9 14 -25 83 -37 75 -6 -3 -7 -1 -3 6 12 18 -102 161 -122 154 -4 -2 -7 2
-7 9 0 16 -85 80 -155 117 -112 60 -292 91 -405 71z m782 -752 c-2 -13 -4 -5
-4 17 -1 22 1 32 4 23 2 -10 2 -28 0 -40z m-63 -273 c-7 -17 -20 -20 -29 -6
-3 5 3 12 12 14 10 3 19 5 20 6 1 0 0 -6 -3 -14z"/>
<path d="M1349 4417 c-21 -14 -39 -38 -48 -63 -29 -83 11 -121 394 -377 154
-104 214 -137 245 -137 19 0 20 6 20 103 l-1 102 -221 170 c-326 250 -321 248
-389 202z"/>
<path d="M950 2373 l0 -128 2133 0 c1987 0 2134 1 2163 17 63 34 83 101 50
165 -33 65 132 60 -2213 67 l-2133 6 0 -127z"/>
<path d="M6747 2491 c-53 -11 -90 -41 -106 -88 -13 -36 -12 -43 5 -78 10 -21
32 -48 47 -59 27 -20 44 -21 313 -24 278 -3 286 -2 324 19 90 51 89 166 -3
216 -28 16 -64 18 -287 20 -140 1 -272 -2 -293 -6z"/>
<path d="M8435 2491 c-160 -8 -195 -30 -195 -124 0 -30 7 -53 22 -72 42 -54
53 -55 493 -55 l405 0 0 130 0 130 -302 -2 c-167 -1 -357 -4 -423 -7z"/>
<path d="M940 1985 l0 -135 3355 0 c2927 0 3360 2 3384 15 107 55 107 185 0
240 -24 13 -457 15 -3384 15 l-3355 0 0 -135z"/>
<path d="M8003 2101 c-92 -58 -81 -196 18 -235 77 -31 159 8 179 85 9 33 8 47
-9 83 -23 53 -56 77 -114 83 -30 3 -51 -1 -74 -16z"/>
<path d="M8940 2111 c-47 -15 -70 -36 -87 -79 -20 -52 -8 -105 33 -143 24 -22
34 -24 150 -27 l124 -4 0 131 0 131 -97 -1 c-54 0 -109 -4 -123 -8z"/>
<path d="M944 1698 c18 -89 40 -168 54 -196 l17 -33 2468 0 c2319 1 2469 2
2493 18 74 48 68 166 -9 213 -32 20 -70 20 -2530 20 l-2497 0 4 -22z"/>
<path d="M6295 1706 c-39 -17 -69 -52 -70 -80 -1 -12 -4 -26 -7 -32 -4 -5 1
-28 11 -50 36 -79 -70 -74 1484 -74 l1378 0 15 35 c15 36 37 121 48 183 l6 32
-1418 0 c-1153 -1 -1423 -3 -1447 -14z"/>
<path d="M1115 1293 c75 -101 143 -152 265 -199 l75 -29 3590 0 c3444 0 3593
1 3654 18 36 10 87 30 115 44 56 28 170 133 192 176 l15 27 -3967 0 -3966 0
27 -37z"/>
</g>
</svg>
