<?xml version="1.0" standalone="no"?>
<!DOCTYPE svg PUBLIC "-//W3C//DTD SVG 20010904//EN"
 "http://www.w3.org/TR/2001/REC-SVG-20010904/DTD/svg10.dtd">
<svg version="1.0" xmlns="http://www.w3.org/2000/svg"
 width="1024.000000pt" height="1024.000000pt" viewBox="0 0 1024.000000 1024.000000"
 preserveAspectRatio="xMidYMid meet">

<g transform="translate(0.000000,1024.000000) scale(0.100000,-0.100000)"
fill="#000000" stroke="none">
<path d="M4810 9060 c-25 -4 -69 -15 -99 -24 -30 -9 -73 -16 -96 -16 -67 0
-126 -36 -157 -98 l-27 -53 -93 -2 c-190 -5 -288 -91 -287 -252 0 -71 2 -71
30 4 15 39 61 96 92 112 16 9 13 2 -12 -33 -63 -87 -71 -128 -81 -384 -10
-252 -23 -384 -45 -482 -8 -35 -15 -65 -15 -66 0 -2 13 -9 30 -16 l29 -12 -61
-81 c-34 -44 -95 -120 -135 -169 l-73 -88 -98 0 c-232 0 -526 -82 -712 -198
-196 -122 -377 -353 -489 -626 -156 -380 -226 -855 -247 -1692 l-7 -261 -226
-37 c-124 -21 -244 -40 -266 -42 -44 -5 -78 -26 -109 -68 -18 -24 -21 -45 -24
-169 -2 -78 -8 -146 -13 -152 -15 -16 -11 -95 6 -101 13 -5 15 -52 15 -333 0
-319 1 -328 23 -371 50 -99 96 -105 417 -56 129 20 245 39 258 41 18 4 22 1
22 -17 0 -40 37 -167 65 -223 35 -72 104 -147 176 -191 32 -20 59 -38 59 -40
0 -1 -33 -8 -72 -14 -103 -17 -139 -43 -180 -130 -36 -75 -29 -183 21 -360 34
-117 48 -198 76 -418 20 -154 44 -297 54 -327 32 -90 94 -156 184 -194 34 -15
81 -20 257 -25 201 -6 216 -8 233 -27 9 -12 17 -30 17 -41 0 -18 -8 -19 -242
-16 l-243 3 -55 28 c-110 57 -182 133 -219 233 -13 33 -32 145 -51 296 -36
292 -53 388 -85 491 -54 174 -58 286 -13 376 29 59 10 57 -31 -3 -62 -89 -74
-179 -42 -296 65 -233 87 -354 127 -725 16 -156 60 -251 157 -341 l69 -64
-779 0 -780 0 1 423 1 422 72 5 71 5 57 80 c31 44 63 87 72 95 12 13 13 12 5
-10 -6 -14 -22 -51 -36 -84 -42 -96 -60 -89 224 -85 l251 4 6 23 c17 69 -39
122 -130 122 -57 0 -59 13 -6 47 124 80 145 109 136 196 -6 72 -28 89 -120 95
l-75 5 -1 102 c0 56 -5 113 -10 127 -13 34 -71 78 -103 78 -13 0 -27 3 -31 6
-3 3 14 31 39 63 24 31 46 70 50 88 14 69 -40 145 -111 159 -19 3 -35 8 -35
10 0 3 11 27 25 54 29 58 32 112 7 159 -23 46 -57 69 -115 80 -26 5 -50 11
-54 14 -3 3 9 41 27 83 46 111 42 181 -14 233 -30 29 -39 58 -60 199 -9 64
-23 116 -35 136 -40 64 -153 90 -222 50 -48 -27 -75 -89 -99 -228 -20 -112
-23 -122 -59 -161 -59 -64 -61 -99 -12 -215 l39 -95 -59 -11 c-121 -22 -172
-126 -119 -243 11 -24 20 -47 20 -52 0 -4 -18 -13 -39 -19 -75 -20 -116 -104
-87 -175 9 -20 31 -55 51 -79 l35 -44 -43 -10 c-24 -7 -55 -24 -72 -42 -29
-31 -30 -34 -33 -151 l-4 -119 -44 0 c-93 0 -144 -42 -144 -120 0 -62 31 -105
118 -160 l71 -45 -71 -12 c-86 -14 -118 -39 -118 -93 0 -20 5 -41 12 -48 9 -9
78 -12 251 -12 l238 0 -7 23 c-3 12 -19 51 -35 86 -16 35 -27 66 -25 68 2 3
37 -36 78 -86 l73 -91 68 0 67 0 0 -425 0 -425 -365 0 -365 0 0 -51 0 -51 308
2 c169 2 416 2 550 1 234 -1 242 -2 242 -21 0 -18 -8 -20 -138 -22 l-137 -3
-3 -37 -3 -37 873 -3 c480 -2 951 -2 1046 0 l173 3 -3 37 -3 37 -172 -3 -173
-3 0 26 0 25 295 0 c286 0 295 -1 295 -20 0 -17 -8 -19 -87 -22 l-88 -3 -3
-37 -3 -38 1105 0 1106 0 0 35 0 35 -85 0 c-84 0 -85 0 -85 25 l0 25 1260 0
c1222 0 1260 -1 1260 -19 0 -28 -53 -31 -567 -31 l-463 0 0 -35 0 -35 1348 2
1347 3 0 35 0 35 -248 0 -247 0 0 23 0 22 348 0 c192 0 397 3 455 7 l107 6 0
44 0 43 -600 0 -600 0 0 630 c0 470 3 630 12 630 37 0 153 -118 198 -202 30
-55 50 -80 50 -60 0 5 16 17 35 26 78 37 197 -15 265 -116 34 -52 96 -107 122
-108 3 0 12 17 19 37 18 55 90 126 162 159 52 24 75 29 143 29 l81 0 -4 55
c-10 133 -65 213 -193 281 -39 21 -59 24 -148 24 -90 0 -102 2 -102 17 0 34
-43 130 -73 164 -16 20 -52 46 -79 60 -26 13 -48 28 -48 33 0 5 19 26 43 48
106 100 146 148 138 162 -9 13 -91 -52 -383 -307 -27 -23 -54 -39 -60 -36 -6
4 -8 3 -5 -3 8 -13 -27 -46 -38 -36 -4 5 -5 3 -2 -3 4 -6 -24 -40 -61 -75
l-67 -64 -3 130 c-4 163 6 202 51 208 20 3 16 3 -9 2 l-41 -2 -1 153 -1 154
65 0 c35 0 64 -3 64 -7 0 -4 -17 -27 -38 -52 -21 -25 -47 -59 -57 -76 l-19
-30 28 25 c15 14 44 48 64 75 20 28 43 57 51 66 18 19 83 102 223 285 51 67
103 134 116 150 20 25 -90 -198 -180 -364 -15 -29 -28 -57 -28 -62 0 -12 416
-14 640 -3 141 6 146 7 172 34 59 58 20 160 -70 187 -22 7 -87 12 -146 12 -59
0 -106 4 -106 9 0 16 57 52 189 121 69 36 133 77 144 91 47 64 37 177 -20 231
-53 49 -84 58 -203 58 -60 0 -110 3 -110 6 0 3 23 35 50 69 86 108 98 171 50
264 -36 72 -136 131 -222 131 l-27 0 39 75 c23 43 40 90 40 108 0 97 -57 172
-151 202 l-57 18 29 61 c35 73 38 141 9 204 -37 82 -101 121 -212 131 l-68 6
36 80 c74 164 87 201 92 253 7 79 -17 131 -91 197 l-62 54 -6 148 c-9 199 -36
261 -141 319 -46 24 -63 28 -128 28 -131 -1 -221 -68 -254 -188 -8 -28 -17
-104 -21 -170 -4 -65 -9 -125 -12 -133 -3 -9 -27 -28 -52 -44 -58 -37 -97 -96
-106 -157 -8 -60 15 -132 86 -273 27 -54 49 -103 49 -109 0 -5 -24 -10 -55
-10 -64 0 -141 -24 -173 -54 -79 -71 -97 -176 -49 -280 15 -33 26 -60 25 -61
-2 -1 -27 -10 -55 -20 -141 -50 -184 -188 -100 -322 l36 -58 -56 -7 c-114 -15
-190 -75 -218 -172 -24 -81 -7 -131 76 -227 27 -31 49 -59 49 -62 0 -3 -55 -7
-122 -9 -139 -4 -169 -15 -214 -74 -20 -25 -29 -51 -32 -89 -9 -107 18 -143
155 -209 53 -26 124 -66 157 -89 l61 -42 -135 -5 c-97 -4 -144 -10 -165 -22
-86 -46 -106 -143 -40 -191 22 -16 62 -18 425 -23 310 -4 400 -2 400 7 0 12
-67 143 -140 274 -44 78 -30 66 146 -130 l139 -155 78 0 77 0 0 -407 0 -406
-22 19 c-13 11 -72 65 -133 120 -503 456 -635 568 -649 554 -8 -8 15 -36 89
-108 162 -157 319 -305 523 -492 l191 -175 0 -547 1 -548 -1366 0 -1365 0 3
43 3 42 878 3 877 2 -14 28 c-40 77 -124 119 -334 167 -84 19 -161 39 -171 45
-16 8 -30 5 -70 -17 -27 -15 -53 -24 -57 -20 -5 4 12 26 36 49 l45 41 -29 10
c-24 8 -39 4 -100 -27 -39 -20 -77 -36 -83 -36 -26 0 -12 21 33 53 26 17 56
39 68 49 l21 16 -28 13 c-26 12 -35 9 -117 -33 -56 -28 -94 -42 -102 -37 -18
11 2 30 83 79 57 34 66 37 89 25 14 -7 83 -15 156 -18 l132 -6 25 38 c73 111
244 189 393 179 l53 -3 6 37 c4 20 22 69 41 109 62 129 197 239 331 270 40 10
50 15 45 28 -16 43 -128 99 -215 109 l-61 7 -12 68 c-36 195 -199 315 -393
287 -123 -17 -221 -84 -271 -185 -22 -44 -25 -63 -25 -162 l0 -111 -35 -6
c-57 -9 -141 -66 -177 -119 -44 -65 -57 -118 -49 -199 6 -66 5 -68 -16 -68
-32 -1 -99 -33 -122 -58 l-19 -22 -29 25 c-74 62 -205 0 -223 -104 -15 -89
-82 -145 -175 -146 -43 0 -74 8 -135 36 -44 20 -93 41 -108 48 l-28 11 87 98
c49 53 100 100 114 105 14 4 78 16 144 27 167 28 221 60 228 135 l3 30 -60 -3
c-119 -6 -258 -22 -358 -43 -97 -19 -344 -94 -359 -108 -10 -9 25 -82 50 -105
12 -10 36 -21 54 -25 30 -6 33 -10 36 -49 3 -39 1 -42 -22 -42 -59 0 -96 -139
-103 -393 l-6 -167 -134 0 -135 0 63 68 c110 116 169 254 169 397 0 95 -17
160 -70 265 -113 223 -325 478 -814 977 -99 101 -177 185 -175 187 2 2 56 46
120 97 192 156 318 260 403 334 45 39 137 118 206 175 68 58 156 133 195 167
38 35 73 63 76 63 3 0 -3 -51 -13 -112 -28 -177 -40 -398 -28 -548 16 -211
105 -799 124 -818 2 -2 -9 -28 -25 -59 -16 -30 -29 -63 -29 -74 0 -22 29 -110
39 -122 5 -4 32 2 62 13 29 12 125 39 214 60 143 35 218 47 407 66 l57 5 0
109 c1 177 45 1003 76 1440 50 695 48 790 -19 935 -32 70 -123 165 -194 203
-126 67 -248 77 -427 33 -44 -11 -82 -17 -84 -15 -17 17 12 377 44 544 20 107
82 379 93 415 6 17 25 94 43 172 l33 143 34 6 c19 4 63 4 98 0 55 -6 69 -4 92
12 15 11 40 23 56 29 30 9 35 15 55 66 l11 29 103 -5 102 -5 130 52 c72 29
162 68 200 87 62 30 67 34 42 37 -16 2 -34 -1 -40 -6 -7 -6 -25 -12 -41 -14
-29 -3 -29 -2 -52 85 -13 49 -40 120 -59 158 -19 39 -35 79 -35 89 0 18 43 60
61 60 23 0 74 -64 112 -140 l42 -85 155 0 155 0 3 -30 c1 -16 5 -45 8 -62 l5
-33 254 0 c303 0 303 0 173 97 -46 34 -96 76 -113 94 -37 40 -23 32 90 -51
114 -84 115 -85 115 -66 0 9 -52 57 -115 108 -109 87 -132 116 -104 134 28 17
69 100 69 138 0 39 -45 135 -70 151 -5 3 -10 10 -10 14 0 5 52 53 115 107 105
90 133 124 105 124 -6 0 -58 -38 -116 -85 -59 -47 -110 -85 -116 -85 -5 0 37
41 94 91 57 50 104 95 106 100 2 4 -105 10 -237 11 l-240 3 -3 -40 -3 -40 -86
-3 -86 -3 -11 -52 c-7 -29 -14 -83 -18 -122 -6 -74 -9 -85 -26 -85 -8 0 -9 39
-5 130 l6 131 -77 -3 -76 -3 -12 -60 c-6 -33 -15 -90 -19 -127 l-6 -66 -150
-1 c-97 -1 -149 2 -149 9 0 6 28 9 73 8 122 -3 197 2 197 12 0 6 -51 10 -134
10 -182 0 -190 19 -10 22 99 2 139 6 142 16 3 9 -28 12 -132 12 -84 0 -136 4
-136 10 0 6 51 10 134 10 79 0 137 4 141 10 4 6 -43 10 -134 10 -119 0 -141 2
-141 15 0 13 22 15 140 15 87 0 140 4 140 10 0 6 -52 10 -135 10 -83 0 -135 4
-135 10 0 6 52 10 135 10 83 0 135 4 135 10 0 6 -52 10 -135 10 -83 0 -135 4
-135 10 0 6 54 10 142 10 78 0 139 2 137 4 -2 3 -104 8 -226 11 l-221 7 -11
-38 c-6 -22 -14 -81 -18 -131 -5 -84 -8 -93 -26 -93 -18 0 -19 5 -12 83 3 45
10 101 14 124 5 23 6 45 3 48 -3 3 -24 5 -47 5 -40 0 -42 -2 -53 -37 -6 -21
-16 -80 -23 -130 -9 -71 -15 -93 -27 -93 -15 0 -14 60 4 208 l7 52 -96 0 -96
0 -12 -42 c-6 -24 -17 -78 -23 -120 -9 -62 -14 -75 -25 -69 -14 9 -12 85 5
193 5 30 3 37 -12 41 -16 4 -15 5 4 6 12 0 22 5 22 10 0 5 9 13 20 16 23 7 26
37 5 55 -8 7 -17 27 -21 46 -3 19 -9 36 -13 38 -4 3 -45 12 -91 21 -116 23
-150 34 -150 51 0 11 -19 14 -90 14 -57 0 -90 4 -90 11 0 29 -28 -23 -41 -78
l-16 -63 79 0 c71 0 78 -2 78 -20 0 -19 -7 -20 -91 -20 -88 0 -90 1 -87 23 3
19 -1 22 -32 22 -35 0 -35 0 -48 -62 -12 -54 -18 -65 -48 -82 -19 -11 -44 -37
-56 -57 l-21 -36 -69 4 -69 3 -63 -61 c-34 -34 -102 -107 -150 -163 -48 -55
-91 -101 -95 -101 -17 0 -222 129 -324 204 -59 42 -111 75 -115 72 -11 -7 10
-170 43 -334 l25 -127 -42 -37 c-61 -54 -80 -61 -132 -54 -121 18 -302 174
-411 353 -70 115 -82 96 132 213 104 57 231 127 284 157 54 29 101 53 105 53
5 0 22 11 38 23 34 28 28 47 -14 47 -91 0 -195 103 -215 213 -24 125 50 257
143 257 118 0 196 -121 173 -268 l-8 -52 52 -30 c63 -36 65 -36 65 -7 0 36 57
142 94 175 25 22 47 31 90 36 32 3 70 13 85 21 58 30 121 125 121 182 l0 25
29 -25 c64 -53 235 -107 344 -107 32 0 37 -3 37 -24 0 -21 7 -26 53 -37 28 -8
86 -13 127 -13 60 1 85 6 127 27 127 65 199 190 209 367 4 72 3 82 -8 66 -7
-11 -27 -36 -45 -55 l-31 -36 10 47 c9 39 8 59 -7 113 -19 73 -28 83 -51 60
-16 -15 -134 -79 -134 -72 0 2 8 19 17 38 18 35 30 156 19 184 -5 13 -12 9
-36 -18 -29 -33 -96 -74 -106 -64 -3 2 0 17 7 33 14 37 15 142 2 155 -8 8 -13
5 -17 -9 -11 -33 -83 -92 -114 -93 -61 -3 -83 5 -217 72 -125 62 -149 71 -220
78 -77 7 -79 8 -50 20 30 13 100 10 140 -5 34 -13 -2 23 -53 53 -76 45 -165
60 -262 43z m505 -395 c55 -9 152 -19 215 -23 110 -8 113 -8 75 -20 -77 -23
-227 -10 -382 34 -63 17 -87 38 -35 30 15 -3 72 -12 127 -21z m572 -1122 c47
-22 69 -68 56 -119 -11 -47 -29 -53 -65 -20 -24 23 -27 24 -40 9 -11 -14 -11
-16 2 -8 9 5 12 5 7 -1 -5 -5 -12 -9 -17 -9 -17 0 -191 -128 -187 -138 2 -6
12 -16 23 -23 17 -11 35 -5 142 49 l122 62 38 -20 c35 -19 37 -23 40 -74 4
-74 -2 -89 -28 -66 -22 20 -13 24 -148 -50 -51 -27 -92 -55 -92 -61 0 -21 27
-23 82 -8 142 41 129 39 150 15 18 -23 24 -87 10 -106 -4 -5 -16 -11 -28 -12
-38 -4 -156 -62 -152 -75 6 -17 107 -28 132 -15 11 5 60 12 109 15 l90 5 -33
-47 c-20 -30 -57 -121 -100 -249 -37 -111 -80 -232 -94 -269 -40 -105 -138
-318 -146 -318 -4 0 -33 39 -65 88 -32 48 -72 104 -88 126 -25 31 -28 40 -16
46 54 31 55 28 -49 138 -53 56 -104 102 -112 102 -9 0 -29 -24 -47 -52 -43
-73 -353 -655 -353 -664 0 -16 360 -411 524 -574 64 -63 116 -118 116 -122 0
-5 -7 -8 -17 -8 -22 0 -436 -140 -564 -190 -408 -163 -802 -351 -967 -462 -44
-31 -62 -30 -62 3 0 10 -3 19 -7 19 -21 0 -133 -46 -133 -54 0 -6 15 -46 34
-91 56 -133 69 -112 -121 -187 -93 -36 -177 -69 -189 -72 -18 -6 -24 5 -59 99
-31 84 -42 104 -54 99 -9 -3 -135 -48 -281 -99 -356 -126 -595 -214 -774 -286
-82 -33 -150 -58 -151 -57 -1 2 -9 48 -18 103 l-17 100 92 89 c195 187 345
332 681 661 192 187 352 341 356 343 4 1 41 -37 83 -85 112 -128 279 -288 350
-333 93 -61 161 -74 221 -44 90 46 270 204 359 316 l31 40 -59 -37 c-32 -21
-79 -50 -104 -66 -25 -16 -53 -36 -62 -45 -9 -9 -22 -13 -29 -8 -7 4 -10 3 -6
-4 4 -6 -16 -24 -45 -43 -29 -17 -62 -38 -74 -45 -18 -12 -27 -10 -80 23 -197
122 -545 459 -741 720 l-55 72 36 31 c52 46 143 118 214 170 34 24 62 48 62
51 0 12 144 68 217 85 64 15 243 22 263 9 4 -3 11 -19 15 -35 8 -36 22 -39 31
-6 11 46 -33 187 -101 321 -69 138 -123 230 -131 222 -6 -6 45 -166 61 -191
15 -24 79 -169 90 -203 6 -23 5 -23 -82 -23 -247 0 -525 -90 -735 -236 l-78
-54 -43 67 c-61 96 -114 187 -121 210 -5 17 5 21 104 42 61 12 195 35 298 51
103 16 221 36 262 45 108 22 119 24 182 31 32 4 58 11 58 15 0 5 -6 9 -12 9
-7 0 -57 5 -110 10 -122 12 -359 21 -296 11 26 -4 49 -9 52 -12 3 -2 -69 -19
-160 -37 -140 -28 -246 -60 -385 -116 -12 -5 -22 7 -43 56 -78 179 -112 317
-115 465 -4 201 55 348 191 481 173 168 421 265 754 296 l60 5 28 -57 c105
-214 290 -410 461 -488 47 -22 74 -27 144 -28 103 -1 157 21 226 95 l44 47 6
-37 c9 -52 -11 -222 -35 -309 -43 -155 -145 -356 -267 -526 -104 -144 -130
-173 -179 -196 -75 -37 -157 -120 -197 -202 -39 -78 -60 -159 -55 -205 3 -24
9 -15 45 59 23 48 60 114 82 146 45 67 190 199 308 282 67 48 276 245 354 335
142 166 297 375 390 528 l53 89 -24 19 c-127 99 -262 167 -385 191 -64 13 -70
17 -73 41 -2 15 1 27 6 27 5 0 70 -29 145 -65 75 -36 150 -65 166 -65 50 0 93
47 131 145 18 47 38 89 44 94 6 5 27 42 46 80 24 51 39 71 53 71 14 0 17 -4
12 -17 -28 -68 -60 -177 -86 -293 -16 -74 -31 -143 -33 -153 -2 -9 -1 -15 4
-12 8 5 58 123 140 329 74 187 80 190 54 29 -5 -32 -3 -43 6 -43 17 0 158 97
319 217 132 99 148 105 208 76z m766 -405 c77 -108 151 -249 171 -328 l15 -55
-35 -32 c-30 -30 -40 -33 -94 -33 l-60 0 0 98 0 97 -51 90 -50 90 23 19 c21
18 18 18 -22 2 -35 -14 -68 102 -38 132 7 7 26 12 44 12 28 0 38 -9 97 -92z
m-124 -114 c45 -80 80 -151 78 -158 -3 -6 -18 -11 -33 -10 -16 1 -36 3 -45 3
-9 1 -24 19 -34 41 -10 22 -22 37 -28 33 -6 -4 -7 -1 -3 6 11 17 -10 64 -35
79 -16 10 -20 10 -18 0 1 -7 0 -24 -1 -38 l-2 -25 -7 25 c-5 14 -15 40 -24 57
-35 67 -17 133 36 133 32 0 36 -5 116 -146z m-43 -142 c-7 -7 -46 9 -46 18 0
5 11 4 25 -2 14 -6 23 -13 21 -16z m2169 -1601 c0 -236 3 -433 8 -437 4 -4 15
2 23 15 33 46 197 231 206 231 5 0 6 5 3 10 -3 6 1 10 9 10 8 0 18 5 22 12 5
7 3 8 -7 3 -12 -7 -12 -6 -1 7 12 14 42 15 42 1 0 -2 -33 -43 -72 -90 -40 -47
-104 -123 -141 -167 -38 -45 -74 -93 -82 -107 -10 -19 -14 -88 -13 -305 0
-155 4 -287 9 -295 7 -11 13 -9 30 11 11 14 17 19 13 11 -5 -9 -3 -12 4 -7 7
4 17 4 22 1 6 -4 -8 -29 -33 -58 l-44 -52 2 -377 c2 -364 2 -378 -16 -378 -18
0 -19 9 -19 123 l-1 122 -319 327 c-176 181 -320 334 -320 342 0 8 4 17 9 20
7 5 494 -487 581 -586 17 -21 36 -38 41 -38 5 0 9 137 9 318 l0 317 -45 51
c-24 28 -41 55 -37 59 4 5 2 5 -4 2 -13 -7 -138 116 -128 126 4 4 2 7 -5 7 -7
0 -10 4 -7 9 3 5 -2 8 -12 7 -9 0 -16 5 -15 12 2 6 -2 12 -7 12 -6 0 -15 12
-20 26 -6 14 -14 23 -18 20 -14 -8 -59 46 -64 77 -6 29 6 36 19 13 4 -8 61
-69 126 -136 69 -70 115 -125 111 -132 -4 -7 -3 -8 4 -4 6 4 27 -11 48 -34 20
-22 40 -40 45 -40 5 0 9 295 9 685 0 646 1 685 18 685 16 0 17 -27 17 -429z
m434 -680 c-23 -25 -46 -45 -51 -43 -5 1 -7 -2 -3 -8 3 -5 -14 -31 -37 -57
-24 -27 -63 -72 -87 -101 -24 -28 -47 -50 -51 -47 -5 3 -10 0 -12 -7 -3 -8 -6
-7 -10 3 -7 17 66 106 83 101 6 -1 7 2 4 9 -9 13 44 71 58 62 6 -4 7 -1 2 6
-8 14 33 63 47 55 5 -3 7 0 6 8 -2 7 3 12 10 10 8 -1 11 2 7 9 -4 6 5 24 21
40 21 22 31 26 41 18 10 -9 4 -21 -28 -58z m-254 -281 c8 -13 -85 -132 -99
-127 -21 7 -15 24 27 70 24 26 42 47 40 47 -2 0 -1 5 2 10 8 13 22 13 30 0z
m285 -244 c0 -2 -8 -10 -17 -17 -16 -13 -17 -12 -4 4 13 16 21 21 21 13z m-47
-59 c-3 -5 -10 -4 -15 1 -6 6 -7 16 -3 22 6 9 9 9 16 -1 4 -7 5 -17 2 -22z
m-37 -39 c-9 -12 -16 -17 -16 -10 0 7 -6 10 -12 7 -7 -4 -2 3 11 14 29 26 39
20 17 -11z m-46 -48 c0 -5 -5 -10 -11 -10 -5 0 -7 5 -4 10 3 6 8 10 11 10 2 0
4 -4 4 -10z m-7950 -474 c0 -113 4 -207 8 -210 5 -3 43 35 86 84 69 81 96 104
96 83 0 -10 -189 -237 -201 -241 -5 -2 -9 102 -9 242 0 157 4 246 10 246 6 0
10 -75 10 -204z m214 -473 c-120 -136 -157 -173 -171 -173 -8 0 -12 -4 -9 -8
2 -4 0 -14 -5 -22 -7 -12 -8 -11 -6 5 2 18 47 74 47 59 0 -3 10 6 23 19 48 53
67 77 59 77 -4 0 2 7 12 15 11 8 16 15 11 15 -5 0 11 20 35 45 74 75 77 50 4
-32z m7766 -116 c0 -2 -15 -16 -32 -33 l-33 -29 29 33 c28 30 36 37 36 29z
m-7970 -113 c0 -8 -19 -13 -24 -6 -3 5 1 9 9 9 8 0 15 -2 15 -3z m7810 -37 c0
-2 -15 -16 -32 -33 l-33 -29 29 33 c28 30 36 37 36 29z m-7536 -83 c-20 -24
-43 -44 -51 -44 -9 0 2 19 28 50 23 27 46 47 50 44 5 -3 -7 -25 -27 -50z
m-377 -159 c91 -87 105 -105 82 -105 -13 0 -274 264 -291 294 -11 20 41 -27
209 -189z m1916 121 c37 -24 101 -58 143 -76 70 -31 75 -35 70 -59 -26 -122
-37 -213 -31 -264 6 -58 6 -59 -17 -52 -82 25 -194 130 -235 222 -14 32 -28
83 -30 114 -6 56 12 159 27 159 4 0 37 -20 73 -44z m5897 20 c0 -2 -7 -7 -16
-10 -8 -3 -12 -2 -9 4 6 10 25 14 25 6z m-5538 -716 c42 -18 153 -38 183 -33
33 5 277 -82 1075 -381 l465 -175 -807 -1 -808 0 -6 28 c-22 102 -65 157 -156
203 -70 35 -73 44 -65 188 6 113 25 191 53 222 17 19 18 19 30 -11 7 -16 23
-34 36 -40z m3585 -40 c2 -19 -185 -116 -199 -102 -11 11 11 30 92 81 66 41
103 48 107 21z"/>
<path d="M3244 7162 c3 -6 30 -22 60 -35 65 -30 169 -99 225 -150 96 -87 166
-210 228 -402 l38 -120 3 73 c8 206 -135 454 -329 570 -67 41 -241 90 -225 64z"/>
<path d="M3147 6346 c-59 -7 -110 -15 -113 -18 -11 -12 312 -37 500 -39 83 -1
177 -5 209 -8 61 -8 73 -1 32 17 -104 47 -428 72 -628 48z"/>
<path d="M3800 4611 c-36 -21 -202 -116 -370 -211 -168 -95 -314 -180 -325
-187 -18 -14 -17 -14 15 -8 19 4 96 29 170 56 74 26 216 75 315 109 191 66
352 138 423 189 100 73 22 47 -252 -83 -76 -37 -140 -65 -142 -63 -5 5 9 20
66 71 97 87 171 158 168 161 -2 2 -32 -14 -68 -34z"/>
<path d="M3134 4432 c-207 -143 -390 -278 -452 -336 -107 -100 -55 -84 167 53
102 62 149 100 265 213 78 75 136 137 130 138 -5 0 -55 -31 -110 -68z"/>
<path d="M3725 4325 c-68 -28 -109 -49 -107 -57 3 -13 43 -120 47 -126 2 -3
25 6 90 34 17 7 57 22 90 35 33 12 61 23 63 24 7 6 -51 135 -62 134 -6 0 -60
-20 -121 -44z"/>
<path d="M6662 6785 c0 -11 4 -31 8 -45 l8 -25 0 25 c0 14 -3 34 -8 45 l-9 20
1 -20z"/>
<path d="M6688 6703 c6 -2 18 -2 25 0 6 3 1 5 -13 5 -14 0 -19 -2 -12 -5z"/>
<path d="M8423 4495 c0 -7 6 -11 14 -8 7 3 13 6 13 8 0 2 -6 5 -13 8 -8 3 -14
-1 -14 -8z"/>
<path d="M8876 4385 c-10 -7 -16 -19 -14 -26 2 -7 11 0 21 15 20 30 19 31 -7
11z"/>
<path d="M8814 4311 c4 -6 1 -14 -8 -17 -8 -3 -17 -12 -20 -20 -8 -22 7 -16
27 11 12 17 14 26 5 31 -7 4 -8 3 -4 -5z"/>
<path d="M8750 4235 c-6 -8 -10 -19 -8 -24 1 -5 11 2 21 15 19 26 8 34 -13 9z"/>
<path d="M1230 2985 c-11 -13 -10 -14 4 -9 9 3 16 10 16 15 0 13 -6 11 -20 -6z"/>
<path d="M4280 8092 c-51 -28 -47 -39 14 -46 56 -7 106 -36 106 -62 0 -8 -4
-14 -10 -14 -18 0 -50 -39 -50 -61 0 -42 31 -87 73 -108 37 -19 43 -19 57 -5
16 16 14 20 -37 50 -17 10 -16 14 10 65 31 62 33 88 11 134 -28 60 -109 82
-174 47z"/>
<path d="M5500 1125 l0 -35 109 0 c115 0 121 2 121 51 0 18 -8 19 -115 19
l-115 0 0 -35z"/>
</g>
</svg>
