<?xml version="1.0" standalone="no"?>
<!DOCTYPE svg PUBLIC "-//W3C//DTD SVG 20010904//EN"
 "http://www.w3.org/TR/2001/REC-SVG-20010904/DTD/svg10.dtd">
<svg version="1.0" xmlns="http://www.w3.org/2000/svg"
 width="1024.000000pt" height="1024.000000pt" viewBox="0 0 1024.000000 1024.000000"
 preserveAspectRatio="xMidYMid meet">

<g transform="translate(0.000000,1024.000000) scale(0.100000,-0.100000)"
fill="#000000" stroke="none">
<path d="M3747 9379 c-21 -5 -50 -15 -66 -24 -33 -17 -81 -70 -81 -90 0 -7
-14 -16 -30 -20 -43 -9 -86 -49 -102 -93 -16 -47 -14 -206 5 -292 14 -61 13
-66 -6 -91 -15 -22 -19 -38 -15 -76 7 -73 33 -119 77 -137 35 -13 39 -19 45
-62 3 -26 6 -104 6 -174 0 -152 -4 -144 137 -252 162 -124 141 -118 219 -63
37 27 86 67 111 90 l43 42 -6 86 c-7 86 -7 86 24 121 17 19 39 61 48 93 10 32
26 67 36 78 32 38 49 105 47 190 -2 44 1 108 6 143 8 60 9 62 27 46 10 -10 21
-14 24 -11 4 3 9 38 12 76 3 54 1 76 -11 95 -16 24 -16 24 21 31 l37 7 -80 74
c-74 68 -78 73 -52 74 15 0 27 5 27 10 0 6 -5 10 -11 10 -6 0 -41 14 -77 31
-172 80 -316 110 -415 88z"/>
<path d="M5665 8779 c-28 -3 -69 -16 -92 -28 -40 -20 -93 -76 -93 -98 0 -6
-11 -14 -24 -17 -38 -9 -85 -54 -111 -105 -32 -65 -45 -144 -45 -282 0 -73 -6
-140 -15 -176 -18 -68 -18 -118 -2 -156 11 -27 12 -26 13 26 1 29 8 65 15 80
13 23 14 16 14 -81 0 -143 19 -182 120 -258 40 -29 75 -59 78 -66 4 -8 6 -7 6
4 1 10 -26 47 -59 84 -68 75 -80 107 -80 214 l0 75 24 -57 c48 -117 111 -198
174 -225 30 -13 32 -16 32 -66 0 -77 -17 -124 -61 -172 -50 -54 -133 -91 -246
-111 -102 -18 -136 -31 -181 -69 -74 -62 -85 -115 -107 -520 -17 -308 -27
-396 -37 -355 -14 52 -78 515 -108 770 -36 317 -64 490 -85 530 -17 33 -73 65
-221 126 -197 81 -291 132 -357 194 -36 33 -69 60 -74 60 -5 0 -7 -49 -5 -118
4 -122 -8 -314 -34 -512 -17 -131 -82 -461 -93 -472 -4 -5 -12 90 -19 210 -14
249 -37 468 -57 524 -12 36 -11 42 15 90 35 63 28 81 -36 110 -52 22 -86 18
-128 -16 l-29 -23 37 -63 c33 -56 36 -66 26 -94 -18 -50 -28 -278 -24 -523 3
-151 1 -221 -5 -208 -42 87 -260 972 -273 1109 -4 43 -22 42 -70 -2 -87 -80
-155 -110 -423 -192 -93 -29 -182 -61 -197 -71 -22 -16 -31 -38 -56 -147 -75
-314 -272 -1383 -272 -1475 0 -24 29 -170 65 -323 106 -454 160 -650 194 -704
8 -14 16 -26 17 -28 1 -1 13 2 27 9 24 11 25 15 20 64 -7 67 0 95 33 134 31
37 53 39 82 8 25 -27 28 -47 8 -47 -23 0 -58 -58 -63 -103 -4 -37 2 -52 46
-120 27 -43 54 -100 60 -125 7 -29 15 -332 21 -804 l10 -758 -27 -71 -26 -71
28 -57 c23 -47 29 -76 36 -176 5 -66 21 -183 35 -260 96 -520 131 -745 150
-957 7 -86 20 -106 76 -117 31 -7 33 -9 31 -49 -3 -63 -121 -265 -255 -434
-137 -174 -165 -245 -112 -287 54 -42 260 -19 383 43 88 45 118 79 142 159 22
77 33 95 43 78 15 -23 49 -9 101 40 73 69 86 99 74 169 -6 30 -26 94 -45 142
-21 52 -37 114 -41 153 -5 59 -4 68 16 86 19 18 22 28 17 68 -3 25 -10 120
-16 211 -44 713 -70 1032 -91 1107 -23 83 -22 84 48 174 48 62 56 106 27 161
-13 25 -15 46 -9 102 20 207 178 999 205 1029 9 10 15 -53 36 -353 25 -356 26
-1386 1 -1640 -9 -102 -31 -342 -47 -535 -17 -192 -33 -381 -36 -420 -6 -63
-4 -72 15 -89 28 -25 27 -44 -8 -162 -46 -158 -69 -305 -56 -364 8 -35 74 -90
109 -90 14 0 28 -13 41 -38 42 -79 216 -137 391 -130 83 3 106 7 123 22 48 43
21 105 -124 281 -90 109 -182 245 -191 281 -11 42 -1 69 26 72 50 5 68 12 74
27 3 9 15 93 26 188 11 95 56 426 100 737 44 311 91 655 105 765 30 235 42
321 89 635 137 914 130 885 255 1106 44 77 90 171 102 207 20 60 25 67 48 67
48 0 90 18 149 65 40 31 64 43 76 39 26 -10 67 16 64 40 -3 18 -38 43 -83 60
-19 6 2 17 51 25 27 5 63 15 80 22 26 10 37 10 64 -1 42 -18 53 -48 35 -105
-22 -75 -39 -93 -87 -97 l-43 -3 -3 -52 -3 -51 -77 5 c-66 4 -82 1 -109 -16
-40 -25 -42 -38 -5 -45 54 -12 101 -9 128 9 28 18 28 17 -5 -24 -27 -33 -38
-41 -55 -36 -51 15 -86 16 -119 6 -37 -13 -127 -76 -127 -90 0 -5 17 -11 39
-15 50 -8 130 16 172 52 l33 27 -38 -55 c-24 -35 -54 -64 -83 -80 -59 -33 -98
-101 -106 -182 -5 -52 -4 -58 13 -58 24 0 110 69 147 116 24 32 28 47 29 101
0 47 5 70 20 90 32 43 44 39 26 -10 -15 -41 -14 -49 2 -110 10 -36 24 -72 32
-78 17 -14 16 -15 37 39 23 58 22 138 -3 187 l-20 39 25 38 c32 48 45 48 45 0
0 -81 36 -150 70 -132 21 11 50 90 50 136 0 24 5 34 20 39 11 4 32 17 48 29
l27 24 1 -47 c1 -64 12 -101 30 -101 9 0 14 -7 12 -16 -2 -11 -25 -24 -58 -35
-41 -13 -66 -30 -97 -64 -55 -60 -56 -78 -5 -69 57 9 115 40 135 71 l18 28 -5
-40 c-3 -22 -6 -50 -6 -63 0 -20 -3 -21 -20 -12 -39 21 -122 -47 -159 -130
-17 -37 -18 -46 -6 -48 27 -6 110 44 143 87 l32 43 0 -45 c0 -52 -8 -79 -21
-71 -19 11 -51 -9 -89 -58 -40 -49 -52 -88 -27 -88 28 2 83 37 105 70 21 30
24 31 18 10 -3 -14 -6 -37 -6 -52 0 -25 -4 -28 -33 -28 -24 0 -41 -8 -61 -29
-31 -32 -71 -134 -55 -139 24 -9 102 57 133 113 16 27 17 28 12 5 -3 -14 -13
-119 -23 -234 l-18 -208 29 -23 c35 -28 75 -50 80 -44 2 2 5 167 7 366 2 200
6 363 8 363 2 0 19 -14 39 -31 61 -54 57 14 -5 82 l-36 40 7 122 c4 67 11 124
17 125 28 10 74 62 94 104 l22 48 6 -47 c4 -27 11 -133 17 -238 21 -371 40
-671 46 -718 l6 -49 47 7 c25 4 49 10 53 13 4 4 1 50 -7 102 -8 52 -26 203
-39 335 -14 132 -35 323 -46 425 -26 244 -28 224 18 215 20 -4 38 -8 39 -9 1
-1 -5 -21 -13 -45 -8 -24 -13 -50 -10 -56 2 -7 28 -21 56 -30 56 -19 116 -70
286 -245 l93 -95 27 27 c26 26 27 27 10 52 -17 27 -6 35 24 16 9 -5 19 -5 27
2 10 8 8 17 -12 40 -34 40 -31 54 6 27 22 -16 34 -18 42 -10 8 8 4 17 -13 36
l-24 25 32 -6 c25 -5 32 -3 32 9 0 9 -10 23 -22 32 -13 9 -65 45 -116 82 l-93
66 53 35 c139 91 527 530 602 682 34 68 37 111 16 239 -11 64 -49 323 -85 576
-67 468 -76 517 -102 570 -20 39 -71 93 -105 111 -15 8 -81 25 -147 38 -188
37 -297 110 -335 223 -24 70 -22 83 12 74 36 -10 121 10 160 38 82 58 100 138
57 244 -6 13 -3 16 9 11 13 -5 16 1 16 32 0 45 -27 95 -64 119 -24 16 -25 20
-25 130 0 307 -124 474 -371 503 -36 4 -88 5 -115 1z m-1295 -1085 l16 -30 31
34 c39 42 76 42 81 0 2 -20 -4 -35 -24 -53 l-27 -25 23 -25 c20 -21 22 -28 12
-47 -6 -13 -13 -39 -14 -58 -5 -58 -77 -79 -121 -35 -13 12 -19 4 -51 -66 -21
-45 -39 -79 -42 -77 -2 3 5 40 16 83 25 100 26 98 -10 132 -34 32 -36 44 -14
78 10 15 12 25 5 25 -17 0 -13 17 15 61 22 35 29 40 57 37 24 -2 36 -11 47
-34z m197 -470 c11 -29 -20 -41 -127 -52 -114 -11 -138 -5 -120 29 14 26 61
37 158 38 67 1 84 -2 89 -15z m1629 -173 c54 -25 100 -82 123 -156 21 -63 161
-628 187 -747 7 -38 14 -81 14 -95 0 -30 -107 -229 -196 -366 -120 -183 -201
-248 -316 -249 -47 -1 -63 3 -80 19 l-20 20 48 8 c57 8 94 21 94 33 0 5 -36
26 -80 46 -44 21 -78 42 -74 47 3 5 24 21 47 37 34 23 55 29 112 31 38 1 83 8
100 15 36 15 97 75 89 88 -6 10 -84 1 -123 -14 -13 -5 -40 -24 -60 -43 -44
-43 -62 -46 -27 -5 14 17 30 50 36 73 6 23 15 54 20 70 10 33 8 33 -36 3 -48
-32 -62 -55 -74 -117 -10 -51 -22 -69 -47 -69 -7 0 -10 14 -7 43 12 107 7 100
102 153 95 54 125 80 152 137 18 36 18 37 -2 37 -57 0 -128 -64 -128 -116 0
-12 -7 -24 -15 -28 -12 -4 -15 5 -15 55 0 55 -1 59 -19 50 -27 -15 -51 -72
-51 -123 0 -38 -4 -47 -25 -56 l-25 -12 -1 68 c0 37 -4 76 -8 86 -7 17 -11 16
-44 -18 -47 -46 -69 -90 -71 -136 0 -30 -8 -42 -41 -68 -22 -17 -41 -29 -43
-27 -3 2 5 24 17 48 23 48 27 116 10 167 l-12 33 -17 -23 c-17 -23 -17 -22
-24 43 -4 37 -11 69 -15 72 -13 8 -72 -61 -86 -101 l-13 -38 -25 50 c-34 66
-52 82 -61 52 -3 -13 -6 -44 -6 -70 0 -57 -15 -63 -29 -13 -13 49 -53 114 -90
149 -17 17 -31 26 -31 22 0 -4 -5 -38 -11 -76 -9 -62 -8 -74 10 -115 l20 -46
31 16 c38 20 89 7 119 -31 18 -23 20 -24 48 -8 22 12 34 14 55 5 53 -20 88
-112 54 -140 -12 -11 -12 -16 0 -39 8 -15 19 -40 24 -55 l10 -28 29 20 c16 12
37 21 47 21 21 0 64 -38 64 -57 0 -8 12 -13 29 -13 16 0 37 -7 45 -16 18 -18
21 -75 5 -91 -8 -8 -8 -17 1 -33 30 -55 -19 -129 -78 -117 -22 4 -30 1 -37
-16 -20 -45 -106 -48 -126 -4 -8 19 -17 22 -48 19 -32 -3 -42 1 -60 23 -25 33
-27 72 -4 97 14 16 14 22 3 43 l-13 24 -29 -24 c-38 -32 -73 -32 -102 0 -13
14 -33 25 -45 25 -61 0 -109 59 -82 102 7 12 8 18 1 18 -24 0 -60 50 -60 81 0
39 34 79 66 79 21 0 23 4 18 30 -4 18 -1 36 6 45 10 12 3 19 -45 42 -67 33
-65 4 -11 268 54 266 54 259 13 341 -74 148 -85 266 -37 419 32 101 52 125
102 125 63 0 105 -27 226 -144 l112 -109 73 69 c176 170 346 238 463 185z
m-3102 -492 c16 -98 26 -207 26 -268 0 -100 -1 -107 -46 -212 -51 -121 -74
-197 -74 -249 -1 -68 -19 -6 -39 139 -12 78 -26 161 -31 184 -10 38 -4 67 50
277 63 244 80 304 85 298 2 -2 15 -78 29 -169z m1535 -447 c6 -68 11 -131 11
-140 -1 -20 -85 201 -101 264 -12 45 -5 119 24 249 l10 50 23 -150 c12 -82 27
-205 33 -273z m904 -196 c26 -1 21 -26 -6 -26 -23 0 -47 17 -47 33 0 5 8 6 18
2 9 -5 25 -8 35 -9z m-409 -71 c20 -30 20 -49 1 -65 -21 -17 -64 -4 -76 24
-25 55 42 92 75 41z m-1115 -99 c17 -44 28 -82 25 -85 -3 -4 -55 -8 -115 -9
l-109 -4 9 29 c5 15 17 52 26 82 l17 54 25 -32 c13 -17 29 -31 34 -31 5 0 18
18 29 41 12 23 23 39 25 37 1 -1 17 -39 34 -82z m949 -8 c18 -38 1 -68 -38
-68 -20 0 -35 8 -46 25 -15 23 -15 27 0 51 23 34 66 30 84 -8z m158 -73 c34
-52 -27 -103 -70 -59 -19 18 -21 70 -3 77 30 13 57 6 73 -18z m-105 -46 c8
-16 8 -28 0 -46 -9 -19 -17 -24 -43 -21 -40 4 -56 28 -40 62 15 34 66 37 83 5z
m215 -7 c6 -4 14 -24 17 -45 5 -34 3 -39 -19 -47 -51 -20 -90 30 -60 75 16 25
41 32 62 17z m-114 -44 c51 -42 -4 -109 -59 -72 -20 12 -23 21 -18 42 10 42
45 55 77 30z m-403 -53 c19 -40 28 -45 82 -45 47 0 91 -21 71 -34 -17 -10
-170 13 -204 30 -21 11 -28 22 -28 43 0 50 56 54 79 6z m-121 -7 c7 -7 12 -21
12 -33 0 -12 -5 -26 -12 -33 -7 -7 -21 -12 -33 -12 -12 0 -26 5 -33 12 -13 13
-16 60 -5 71 11 11 58 8 71 -5z m62 -78 c11 -11 20 -23 20 -28 0 -18 -33 -52
-50 -52 -17 0 -50 34 -50 52 0 11 38 48 50 48 6 0 19 -9 30 -20z m443 -32 c29
-39 14 -46 -39 -18 -70 38 -77 52 -24 48 33 -2 48 -9 63 -30z m-323 7 c19 -22
4 -64 -25 -71 -31 -8 -55 10 -55 42 0 38 55 59 80 29z m217 -27 c29 -18 53
-35 53 -39 0 -3 -23 -9 -51 -11 -30 -3 -62 -14 -81 -28 -27 -20 -29 -20 -24
-4 3 11 8 31 12 47 3 15 10 27 16 27 5 0 6 5 3 10 -7 11 2 30 13 30 3 0 30
-14 59 -32z"/>
<path d="M5400 5700 c0 -5 5 -10 10 -10 6 0 10 5 10 10 0 6 -4 10 -10 10 -5 0
-10 -4 -10 -10z"/>
<path d="M5958 5633 c-21 -9 -38 -19 -38 -22 0 -11 92 -41 124 -41 33 0 108
39 103 54 -9 27 -131 33 -189 9z"/>
<path d="M5705 5440 c3 -5 8 -10 11 -10 2 0 4 5 4 10 0 6 -5 10 -11 10 -5 0
-7 -4 -4 -10z"/>
<path d="M5135 5329 c-11 -4 -32 -10 -47 -13 -15 -4 -39 -23 -58 -48 l-31 -43
37 -3 c38 -4 108 19 137 45 36 33 7 80 -38 62z"/>
</g>
</svg>
