<svg xmlns="http://www.w3.org/2000/svg" version="1.1" xmlns:xlink="http://www.w3.org/1999/xlink"
    xmlns:svgjs="http://svgjs.com/svgjs" width="512" height="512" x="0" y="0" viewBox="0 0 512 512"
    style="enable-background:new 0 0 512 512" xml:space="preserve" class="">
    <g>
        <g data-name="Web development online courses">
            <path fill="#1d1160"
                d="m100.43 262.8-18.5 42-6.15 53.94 135.15-.44q-10.25-33.09-20.5-66.17-13.32-16-26.66-32z"
                data-original="#2351fb" class="" opacity="1"></path>
            <path fill="#e67925" d="m326.43 389.46-32.33 30.75 45.28 9.37a28.43 28.43 0 0 0 24.72-10.12l17-22.66z"
                data-original="#e67925" class=""></path>
            <path fill="#68003c" d="m161.18 68.05-16-1.5s-4.25 39 7.74 31.5 8.26-30 8.26-30z" data-original="#68003c"
                class="" opacity="1"></path>
            <rect width="145.87" height="121.35" x="288.43" y="104.13" fill="#1d1160" rx="5.33" data-original="#2351fb"
                class="" opacity="1"></rect>
            <path fill="#ffffff"
                d="M297.88 191.64s31.95-27.59 46.2-34.9 24.25 25.41 32.33 27.33 16.17-24.84 29.26-28.39 20.4 36 20.4 36v16.3H297.88z"
                data-original="#ffffff" class=""></path>
            <circle cx="383.67" cy="139.69" r="11.86" fill="#ffffff" data-original="#ffffff" class=""></circle>
            <path fill="#1d1160"
                d="M437.88 93.92H74.16a.5.5 0 0 1-.5-.5V57.9a.5.5 0 0 1 .5-.5h363.72a.5.5 0 0 1 .5.5v35.52a.5.5 0 0 1-.5.5zm-363.22-1h362.72V58.4H74.66zM437.88 339.3h-11a.51.51 0 0 1-.5-.5.5.5 0 0 1 .5-.5h10.5v-.55a.51.51 0 0 1 .5-.5.5.5 0 0 1 .5.5v1.05a.5.5 0 0 1-.5.5zm-22 0h-11a.51.51 0 0 1-.5-.5.5.5 0 0 1 .5-.5h11a.5.5 0 0 1 .5.5.5.5 0 0 1-.5.5zm-22 0h-11a.51.51 0 0 1-.5-.5.5.5 0 0 1 .5-.5h11a.5.5 0 0 1 .5.5.5.5 0 0 1-.5.5zm-22 0h-11a.51.51 0 0 1-.5-.5.5.5 0 0 1 .5-.5h11a.5.5 0 0 1 .5.5.5.5 0 0 1-.5.5zm-22 0h-11a.51.51 0 0 1-.5-.5.5.5 0 0 1 .5-.5h11a.5.5 0 0 1 .5.5.5.5 0 0 1-.5.5zm-22 0h-11a.51.51 0 0 1-.5-.5.5.5 0 0 1 .5-.5h11a.5.5 0 0 1 .5.5.5.5 0 0 1-.5.5zm-22 0h-11a.51.51 0 0 1-.5-.5.5.5 0 0 1 .5-.5h11a.5.5 0 0 1 .5.5.5.5 0 0 1-.5.5zm-22 0h-11a.51.51 0 0 1-.5-.5.5.5 0 0 1 .5-.5h11a.5.5 0 0 1 .5.5.5.5 0 0 1-.5.5zm-22 0h-11a.51.51 0 0 1-.5-.5.5.5 0 0 1 .5-.5h11a.5.5 0 0 1 .5.5.5.5 0 0 1-.5.5zm-22 0h-11a.51.51 0 0 1-.5-.5.5.5 0 0 1 .5-.5h11a.5.5 0 0 1 .5.5.5.5 0 0 1-.5.5zm-22 0h-11a.51.51 0 0 1-.5-.5.5.5 0 0 1 .5-.5h11a.5.5 0 0 1 .5.5.5.5 0 0 1-.5.5zm-22 0h-11a.51.51 0 0 1-.5-.5.5.5 0 0 1 .5-.5h11a.5.5 0 0 1 .5.5.5.5 0 0 1-.5.5zm-22 0h-11a.51.51 0 0 1-.5-.5.5.5 0 0 1 .5-.5h11a.5.5 0 0 1 .5.5.5.5 0 0 1-.5.5zm-22 0h-11a.51.51 0 0 1-.5-.5.5.5 0 0 1 .5-.5h11a.5.5 0 0 1 .5.5.5.5 0 0 1-.5.5zm-22 0h-11a.51.51 0 0 1-.5-.5.5.5 0 0 1 .5-.5h11a.5.5 0 0 1 .5.5.5.5 0 0 1-.5.5zm-22 0h-11a.51.51 0 0 1-.5-.5.5.5 0 0 1 .5-.5h11a.5.5 0 0 1 .5.5.5.5 0 0 1-.5.5zm-22 0h-11a.51.51 0 0 1-.5-.5.5.5 0 0 1 .5-.5h11a.5.5 0 0 1 .5.5.5.5 0 0 1-.5.5zM74.16 329a.5.5 0 0 1-.5-.5v-11a.5.5 0 0 1 1 0v11a.5.5 0 0 1-.5.5zm363.72-1.77a.5.5 0 0 1-.5-.5v-11a.51.51 0 0 1 .5-.5.5.5 0 0 1 .5.5v11a.5.5 0 0 1-.5.52zM74.16 307a.5.5 0 0 1-.5-.5v-11a.5.5 0 0 1 1 0v11a.5.5 0 0 1-.5.5zm363.72-1.77a.5.5 0 0 1-.5-.5v-11a.51.51 0 0 1 .5-.5.5.5 0 0 1 .5.5v11a.5.5 0 0 1-.5.52zM74.16 285a.5.5 0 0 1-.5-.5v-.5a.5.5 0 0 1 .5-.5h10.48a.5.5 0 0 1 .5.5.5.5 0 0 1-.5.5h-10a.5.5 0 0 1-.48.5zm362.48-.52h-11a.5.5 0 0 1-.5-.5.5.5 0 0 1 .5-.5h11a.5.5 0 0 1 .5.5.5.5 0 0 1-.5.52zm-22 0h-11a.5.5 0 0 1-.5-.5.5.5 0 0 1 .5-.5h11a.5.5 0 0 1 .5.5.5.5 0 0 1-.5.52zm-22 0h-11a.5.5 0 0 1-.5-.5.5.5 0 0 1 .5-.5h11a.5.5 0 0 1 .5.5.5.5 0 0 1-.5.52zm-22 0h-11a.5.5 0 0 1-.5-.5.5.5 0 0 1 .5-.5h11a.5.5 0 0 1 .5.5.5.5 0 0 1-.5.52zm-22 0h-11a.5.5 0 0 1-.5-.5.5.5 0 0 1 .5-.5h11a.5.5 0 0 1 .5.5.5.5 0 0 1-.5.52zm-22 0h-11a.5.5 0 0 1-.5-.5.5.5 0 0 1 .5-.5h11a.5.5 0 0 1 .5.5.5.5 0 0 1-.5.52zm-22 0h-11a.5.5 0 0 1-.5-.5.5.5 0 0 1 .5-.5h11a.5.5 0 0 1 .5.5.5.5 0 0 1-.5.52zm-22 0h-11a.5.5 0 0 1-.5-.5.5.5 0 0 1 .5-.5h11a.5.5 0 0 1 .5.5.5.5 0 0 1-.5.52zm-22 0h-11a.5.5 0 0 1-.5-.5.5.5 0 0 1 .5-.5h11a.5.5 0 0 1 .5.5.5.5 0 0 1-.5.52zm-22 0h-11a.5.5 0 0 1-.5-.5.5.5 0 0 1 .5-.5h11a.5.5 0 0 1 .5.5.5.5 0 0 1-.5.52zm-22 0h-11a.5.5 0 0 1-.5-.5.5.5 0 0 1 .5-.5h11a.5.5 0 0 1 .5.5.5.5 0 0 1-.5.52zm-22 0h-11a.5.5 0 0 1-.5-.5.5.5 0 0 1 .5-.5h11a.5.5 0 0 1 .5.5.5.5 0 0 1-.5.52zm-22 0h-11a.5.5 0 0 1-.5-.5.5.5 0 0 1 .5-.5h11a.5.5 0 0 1 .5.5.5.5 0 0 1-.5.52zm-22 0h-11a.5.5 0 0 1-.5-.5.5.5 0 0 1 .5-.5h11a.5.5 0 0 1 .5.5.5.5 0 0 1-.5.52zm-22 0h-11a.5.5 0 0 1-.5-.5.5.5 0 0 1 .5-.5h11a.5.5 0 0 1 .5.5.5.5 0 0 1-.5.52zm-22 0h-11a.5.5 0 0 1-.5-.5.5.5 0 0 1 .5-.5h11a.5.5 0 0 1 .5.5.5.5 0 0 1-.5.52zM74.16 238.07h363.72v35.52H74.16zM272.65 227.55h-190a6.78 6.78 0 0 1-6.77-6.77V109.34a6.77 6.77 0 0 1 6.77-6.76h190a6.77 6.77 0 0 1 6.77 6.76v111.44a6.78 6.78 0 0 1-6.77 6.77zm-190-124a5.77 5.77 0 0 0-5.77 5.76v111.47a5.78 5.78 0 0 0 5.77 5.77h190a5.78 5.78 0 0 0 5.77-5.77V109.34a5.77 5.77 0 0 0-5.77-5.76z"
                data-original="#2351fb" class="" opacity="1"></path>
            <path fill="#1d1160"
                d="M276.11 225.2c-.21 0 9 5.52-197.37-119.17a.5.5 0 0 1 .52-.85l197.11 119.09a.5.5 0 0 1-.26.93z"
                data-original="#2351fb" class="" opacity="1"></path>
            <path fill="#1d1160"
                d="M85.13 219.26a.5.5 0 0 1-.25-.93L275.86 105a.5.5 0 0 1 .68.17.49.49 0 0 1-.17.69C76.41 224.52 85.35 219.26 85.13 219.26z"
                data-original="#2351fb" class="" opacity="1"></path>
            <path fill="#1d1160"
                d="M441.44 359.74h-376a11 11 0 0 1-11-11V31.89a11 11 0 0 1 11-11h376a11 11 0 0 1 11 11v316.88a11 11 0 0 1-11 10.97zM65.43 22.93a9 9 0 0 0-9 9v316.84a9 9 0 0 0 9 9h376a9 9 0 0 0 9-9V31.89a9 9 0 0 0-9-9z"
                data-original="#2351fb" class="" opacity="1"></path>
            <path fill="#68003c"
                d="M472.77 273.8c-7.34-19.67-11-17.05-4-33.86s-2.87-36.41-2.87-36.41l-62.64 1.29s-19.16 32.31-11.16 46-28.33 7.33-20 39.33 59.9 25 76.45 19.33 31.55-16.02 24.22-35.68z"
                data-original="#68003c" class="" opacity="1"></path>
            <circle cx="382.44" cy="34.19" r="5.4" fill="#1d1160" data-original="#2351fb" class="" opacity="1"></circle>
            <circle cx="405.57" cy="34.19" r="5.4" fill="#1d1160" data-original="#2351fb" class="" opacity="1"></circle>
            <circle cx="428.7" cy="34.19" r="5.4" fill="#1d1160" data-original="#2351fb" class="" opacity="1"></circle>
            <path fill="#e67925" d="m439.797 278.985-23.366-2.088 3.968-44.401 23.366 2.088z" data-original="#e67925"
                class=""></path>
            <path fill="#e67925"
                d="M435.4 190.67a26.92 26.92 0 0 0-31 29.24l1.11 20.94c.4 7.65 5.73 14.35 12.48 16a23.39 23.39 0 0 0 4.41.51c10.33.06 17.71-9.5 21.84-14.84.71-.91 1.49-2 2.3-3.22a26.89 26.89 0 0 0-11.13-48.64z"
                data-original="#e67925" class=""></path>
            <path fill="#262246"
                d="m421.92 240.44-3.28-.47a1.63 1.63 0 0 1-1.28-2.22l3.31-8.47a.5.5 0 1 1 .94.36l-3.32 8.48a.63.63 0 0 0 .5.86l3.2.47a.5.5 0 0 1-.07.99zM413.59 224.79a2.29 2.29 0 1 0 1.9 2.62 2.29 2.29 0 0 0-1.9-2.62zM430.74 227.53a2.29 2.29 0 1 0 1.9 2.62 2.29 2.29 0 0 0-1.9-2.62zM437.29 222.57c-2.2-2.87-6.26-2.53-6.94-2.47s-2.52.22-2.74 1.1a1.29 1.29 0 0 0 .37 1c1.06 1.1 2.95-.37 5.43 0 2.87.5 4.34 3.17 4.8 2.8s-.21-1.46-.92-2.43zM416.11 217.74c-.63-.28-4.36-1.92-7.36.09-1 .68-1.9 1.76-1.69 2.09.31.5 2.57-1.56 5.45-1.1 2.48.4 3.79 2.41 5.15 1.71 0 0 .65-.35.69-.86.07-.91-1.72-1.67-2.24-1.93z"
                data-original="#262246" class=""></path>
            <path fill="#68003c"
                d="M418.46 257.7a.5.5 0 1 1 .18-1 16.28 16.28 0 0 0 14.65-4.53.5.5 0 1 1 .71.7 17.26 17.26 0 0 1-15.54 4.83z"
                data-original="#68003c" class="" opacity="1"></path>
            <path fill="#e67925" d="m119.962 91.16 21.706 1.197-2.272 41.238-21.707-1.197z" data-original="#e67925"
                class=""></path>
            <path fill="#e67925"
                d="M133.44 52A25 25 0 0 1 158 83l-3.82 19c-1.39 7-7.17 12.39-13.59 13a20.48 20.48 0 0 1-4.11-.13c-9.48-1.31-15-11.07-18.06-16.52-.52-.92-1.09-2-1.67-3.26A24.93 24.93 0 0 1 133.44 52z"
                data-original="#e67925" class=""></path>
            <path fill="#262246"
                d="M139.24 99.5a.5.5 0 0 1-.5-.5.5.5 0 0 1 .5-.5c3.11 0 3.2.09 3.43-.21s.27.25-1.81-8.69a.5.5 0 0 1 1-.22l1.91 8.22a1.55 1.55 0 0 1-1.51 1.9zM148.9 86.22a2.12 2.12 0 1 1-2.09 2.15 2.12 2.12 0 0 1 2.09-2.15zM132.8 86.44a2.12 2.12 0 1 1-2.09 2.15 2.13 2.13 0 0 1 2.09-2.15zM127.46 81c2.4-2.34 6.07-1.48 6.69-1.34s2.28.54 2.37 1.38c0 .48-.46.88-.48.9-1.12.87-2.66-.74-5-.68-2.7.07-4.4 2.33-4.78 1.93s.39-1.38 1.2-2.19zM147.53 79.41c6-1.66 8.4 2.75 8 3.21s-2.15-1.77-4.85-1.73c-2.33 0-3.8 1.7-5 .87 0 0-.55-.4-.51-.88.1-.88 1.83-1.33 2.36-1.47z"
                data-original="#262246" class=""></path>
            <path fill="#68003c"
                d="M126.4 109.29a.51.51 0 0 1 .1-.7.5.5 0 0 1 .7.11 15.06 15.06 0 0 0 12.8 6.09.5.5 0 0 1 .52.48.49.49 0 0 1-.47.52 16 16 0 0 1-13.65-6.5z"
                data-original="#68003c" class="" opacity="1"></path>
            <path fill="#00788c" d="m378.93 276.13 48-8L474.1 289l-31.17 142.5-75.34-8z" data-original="#fdc500"
                class="" opacity="1"></path>
            <path fill="#00788c" d="M443.26 420.8a97.18 97.18 0 0 1 21.67 72h-130.5q14-39.35 28-78.67z"
                data-original="#fdc500" class="" opacity="1"></path>
            <path fill="#e67925"
                d="m426.93 268.13-40.81 2.2a26.59 26.59 0 0 0-21.9 13.82L300 402.13l36 15.33 62-109.33zM430 269.27l35 10.65a29.91 29.91 0 0 1 21.16 27.47l4.53 119.41h-38.98l-3.16-117.34z"
                data-original="#e67925" class=""></path>
            <path fill="#00788c"
                d="m129.68 122-44.79 5.53a24.94 24.94 0 0 0-20.67 17.07L23.1 272.3l36.33 10q20.76-60.51 41.5-121zM134.37 122l39 8.68a25.05 25.05 0 0 1 18.28 16.4l37.45 110.43-37.33 11.76-38-115.14z"
                data-original="#fdc500" class="" opacity="1"></path>
            <path fill="#e67925"
                d="m231.77 160.69-40 108.58c1 12 10.72 20.86 21.33 20.86 8.61 0 16.71-5.86 20-14.67q10.17-54.33 20.33-108.66z"
                data-original="#e67925" class=""></path>
            <path fill="#ffffff"
                d="m129.68 122-54.09 11.4 3.84 165.9c33.41 26.24 76.57 31.62 114.5 17q-6.41-90.09-12.83-180.17z"
                data-original="#ffffff" class=""></path>
            <path fill="#e67925" d="M114.71 123.83s4.39 13 15 12.8 14.52-12.46 14.52-12.46l-15.1-3.54z"
                data-original="#e67925" class=""></path>
            <path fill="#00788c"
                d="m115.43 123.67-.72 129.63-3.78 93.5a90.17 90.17 0 0 1-47-6q6.25-55.26 12.5-110.5l-3.33-97.84zM144.2 124.17l11.73 127.63 25.8 91 23.63-2.48-14.26-88.86q-4.38-57.83-8.75-115.66z"
                data-original="#fdc500" class="" opacity="1"></path>
            <path fill="#00788c"
                d="M118.81 112.15c-2-.19-4.78-.1-6.63 1.65-2.12 2-1.4 5-6.77 11.18l9.85 30.07c3.88-37.82 3.2-28.47 3.55-42.9zM140.27 115.46c-.1 2.57-.19 5.15-.29 7.72l8.48 47.32v-45.38c-2.89-3.64-3-6-4.24-7.49a7 7 0 0 0-3.95-2.17z"
                data-original="#fdc500" class="" opacity="1"></path>
            <path fill="#e67925"
                d="M231.68 165.3c-1-13.1-1.26-13.86-.6-16.28q1.93-7.07 3.85-14.14a3.32 3.32 0 0 1 4.34-1.92 3.26 3.26 0 0 1 1.66 3.67l-1.5 9 9-6.67 6.34-12.5a2.57 2.57 0 1 1 4.66 2.17l-5 12.17 10.42-11.34a2.75 2.75 0 0 1 4.25 3.5l-8.33 11.5 10.83-7.83a2.37 2.37 0 0 1 3 3.67l-10.83 10 11.83-3.5a2.51 2.51 0 0 1 3.17 1.41 2.53 2.53 0 0 1-2.28 3.36l-12.35 5.49-13.37 15.07z"
                data-original="#e67925" class=""></path>
            <path fill="#262246"
                d="M138.25 105.17a4.61 4.61 0 0 1-2.13-4.62c9.62 2.26 8.4 2 8.5 2-1.27 2.73-4.35 3.71-6.37 2.62z"
                data-original="#262246" class=""></path>
            <path fill="#68003c"
                d="M100.18 166.3a.5.5 0 0 1-.49-.57l5.22-40.81a.52.52 0 0 1 .56-.44.51.51 0 0 1 .44.56l-5.12 40 11.75-4.79a.5.5 0 0 1 .38.93c-13.41 5.43-12.58 5.12-12.74 5.12zM157.43 164.05c-.1 0 .35.08-8.6-1.76a.5.5 0 0 1-.39-.6.49.49 0 0 1 .59-.38l7.74 1.59-8.77-37.67a.5.5 0 0 1 1-.22c9.58 41 9.14 38.58 8.84 38.88a.48.48 0 0 1-.41.16zM76.07 220.21a.51.51 0 0 1-.5-.49l-1.91-56.16a.5.5 0 0 1 1 0l1.91 56.16a.5.5 0 0 1-.5.49zM193.29 265.62a.49.49 0 0 1-.49-.41l-8.19-49-3.37-55.49a.5.5 0 0 1 1-.07l3.37 55.45 8.18 48.9a.51.51 0 0 1-.5.62zM141.77 357a.5.5 0 0 1-.5-.5v-8.79c0-.14-.35.86 5.36-14.71a.51.51 0 0 1 .64-.3.49.49 0 0 1 .3.64l-5.3 14.46v8.7a.5.5 0 0 1-.5.5z"
                data-original="#68003c" class="" opacity="1"></path>
            <path fill="#e67925"
                d="m88.43 210.5-.12-17.58 9.62-7 22.75-2.62a4.29 4.29 0 0 1 0 8.33l-14 2.54c-10 6.68-9.35 19.44-.58 27l12.67 8.5c3 1.27 3.94 4.51 2.83 6.33a4.44 4.44 0 0 1-4.67 1.59l-14.75-4.07-10.25 4.07z"
                data-original="#e67925" class=""></path>
            <path fill="#e67925"
                d="M90.93 202.63 23.1 272.3c-4.51 10.08-.76 21.73 8 26.83 7.5 4.37 17.46 3.23 24.36-3l45.81-70.83Q96.1 214 90.93 202.63z"
                data-original="#e67925" class=""></path>
            <path fill="#e67925"
                d="m68.18 227.8 4.8-28-2.85-16.8a4.86 4.86 0 0 1 1.87-5.41 5 5 0 0 1 6.78 2.15L82 192.27l-1.5-22.89a4.67 4.67 0 0 1 4.6-4.32 4.55 4.55 0 0 1 3.91 3q1.27 10.09 2.56 20.18l1.68-20.8a4.5 4.5 0 0 1 8.84.49q-1.09 12.22-2.17 24.46l-10.43 28.25z"
                data-original="#e67925" class=""></path>
            <path fill="#68003c"
                d="M87.69 226.05a.51.51 0 0 1-.5-.58c1-6.58 6.85-11.22 12.89-7.82-.07-13.29-10.63-17.77-18.23-12.32a.5.5 0 0 1-.58-.82 11.85 11.85 0 0 1 14.08-.25c5.93 4.22 5.8 12.66 5.71 14.31a.51.51 0 0 1-.79.39c-5.43-3.77-11.13.29-12.09 6.66a.5.5 0 0 1-.49.43z"
                data-original="#68003c" class="" opacity="1"></path>
            <rect width="82.45" height="43.75" x="103.52" y="187.3" fill="#68003c" rx="2.93" data-original="#68003c"
                class="" opacity="1"></rect>
            <path fill="#ffffff"
                d="M112.33 225.7a1 1 0 0 1-1-1v-27.55a1 1 0 0 1 2 0v27.55a1 1 0 0 1-1 1zM124.07 225.7a1 1 0 0 1-1-1v-27.55a1 1 0 0 1 2 0v27.55a1 1 0 0 1-1 1z"
                data-original="#ffffff" class=""></path>
            <path fill="#ffffff"
                d="M124.07 211.93h-11a1 1 0 1 1 0-2h11a1 1 0 0 1 0 2zM141.69 198.15h-13.76a1 1 0 0 1 0-2h13.76a1 1 0 0 1 0 2z"
                data-original="#ffffff" class=""></path>
            <path fill="#ffffff"
                d="M134.27 225.7a1 1 0 0 1-1-1v-27.55a1 1 0 0 1 2 0v27.55a1 1 0 0 1-1 1zM161.27 225.7a1 1 0 0 1-1-1v-24.39l-4.71 8.88a1 1 0 0 1-1.73.06l-5.94-9.48v24.93a1 1 0 0 1-2 0v-28.41a1 1 0 0 1 1.85-.53l6.86 11 5.78-10.9a1 1 0 0 1 1.89.47v28.37a1 1 0 0 1-1 1zM178.46 225.7h-10.82a1 1 0 0 1-1-1v-28.41a1 1 0 1 1 2 0v27.41h9.82a1 1 0 0 1 0 2z"
                data-original="#ffffff" class=""></path>
            <path fill="#00788c" d="m387.11 270.28-22 69.18 5.83 76.38 57.44-147.18c-15.03 0-5.28-.32-41.27 1.62z"
                data-original="#fdc500" class="" opacity="1"></path>
            <path fill="#68003c"
                d="M268.31 418.53h112.94a2.13 2.13 0 0 0 2.11-2.36l-10.28-92.58a2.12 2.12 0 0 0-2.08-1.89H257.27a2.12 2.12 0 0 0-2.11 2.37l11 92.59a2.12 2.12 0 0 0 2.15 1.87z"
                data-original="#68003c" class="" opacity="1"></path>
            <path fill="#68003c" d="M427.56 420.21H267.93a1.5 1.5 0 0 1-1.5-1.5v-7.23h161.13v8.73z"
                data-original="#68003c" class="" opacity="1"></path>
            <circle cx="315.92" cy="370.86" r="12.05" fill="#ffffff" data-original="#ffffff" class=""></circle>
            <path fill="#00788c" d="m427.1 268.21 36 11.14q-6.66 56.72-13.31 113.45l-37.09-69q7.2-27.8 14.4-55.59z"
                data-original="#fdc500" class="" opacity="1"></path>
            <path fill="#68003c"
                d="m443.69 234.66-.43-15.9s-13.87-6.46-12.1-18.8c0 0-10.67.5-8 15.17l-21.7-1.5s3.88-41.58 37.44-25.33c0 0 26.56-1.24 28.23 21.3s-25.3 46.22-25.3 46.22z"
                data-original="#68003c" class="" opacity="1"></path>
            <path fill="#e67925"
                d="M449.51 228.66c-2.67-2-6.72-1.07-9.05 2.05s-2.06 7.28.61 9.27 6.73 1.07 9.06-2.06 2.05-7.27-.62-9.26z"
                data-original="#e67925" class=""></path>
            <path fill="#262246"
                d="M443.17 237.37a2.26 2.26 0 0 0 .68-4.25.5.5 0 0 1 .31-.93l4.47.71a.5.5 0 0 1-.16 1l-2.88-.46a3.24 3.24 0 0 1-2.25 4.92.5.5 0 0 1-.17-.99z"
                data-original="#262246" class=""></path>
            <path fill="#e67925"
                d="m432.67 321.8 58 105a22.64 22.64 0 0 1-14.17 24c-10.43 3.88-22.7-.95-27.93-11.5l-37.07-105zM265.28 409.05l-10.49-1.2c-.31.06-3.86.84-5.06 3.85s.43 7.06 4.22 8.92l8.92 2.05 2.65 5.3a6.72 6.72 0 0 0 12.6.61 6.06 6.06 0 0 0 6.68 4.09 5.94 5.94 0 0 0 4.58-4.58 5.69 5.69 0 0 0 5.73 4.58 5.52 5.52 0 0 0 4.52-3.37 6.56 6.56 0 0 0 5.66 3.37c3.18-.12 6.15-3.24 6.15-7.35l3.62-14.82a4.8 4.8 0 0 0-2.54-4.82c-2.19-1-5.3.24-6.38 3.13q-2.14 5.19-4.22 10.37l2.17-11.82a4.82 4.82 0 0 0-4.58-4.94 4.77 4.77 0 0 0-4.46 3.62q-1.86 6.66-3.71 13.32l2.82-15.13c0-2.31-1.18-4.33-2.85-4.94-2.31-.85-5.75.94-6.51 4.58q-2.64 7.41-5.3 14.82l2.65-14.22a4.76 4.76 0 1 0-9.4-1.44q-1.92 7.41-3.85 14.82-1.81-4.39-3.62-8.8z"
                data-original="#e67925" class=""></path>
            <path fill="#68003c"
                d="m120 91.26 2-8.59s5-3.21 6.5-11.87 9.18 12.87 20-4.63c0 0 4.22-.12 5.47 3.63s-2.25 6.87-2.25 6.87A10.45 10.45 0 0 0 164.62 66a20.87 20.87 0 0 0-1.56-7.15c-3.63-8.25-12-5-12-5s-1.32-13-20.34-9.75-36.24 23.7-24.26 29.7c0 0-3.79 25.51 12.59 34z"
                data-original="#68003c" class="" opacity="1"></path>
            <path fill="#e67925"
                d="M115.43 85c2.72-1.47 6.32-.08 8 3.1s.91 6.94-1.81 8.41-6.31.09-8-3.09-.9-6.98 1.81-8.42z"
                data-original="#e67925" class=""></path>
            <path fill="#262246"
                d="M119.79 94.72a3 3 0 0 1-1.47-4.81h-2.63a.5.5 0 0 1 0-1l4.19-.06a.5.5 0 0 1 .17 1 2.05 2.05 0 0 0 .06 3.91.5.5 0 0 1-.32.96z"
                data-original="#262246" class=""></path>
            <path fill="#68003c"
                d="M241.18 162.42a.5.5 0 0 1-.39-.81 10.9 10.9 0 0 0 0-13.63.5.5 0 0 1 .25-.79c.29-.09 7.27-2.13 12.6 2.61a13.34 13.34 0 0 1 4.29 9.35.5.5 0 0 1-.48.52.5.5 0 0 1-.52-.48c-.23-7.41-6.61-12.95-14.9-11.21a11.89 11.89 0 0 1-.45 14.25.5.5 0 0 1-.4.19z"
                data-original="#68003c" class="" opacity="1"></path>
            <path fill="#1d1160" d="m61.201 229.274 27.003 19.1-8.428 11.914-27.002-19.099z" data-original="#2351fb"
                class="" opacity="1"></path>
            <ellipse cx="423.97" cy="246.14" fill="#262246" rx="2.66" ry="3.34" data-original="#262246" class="">
            </ellipse>
            <path fill="#e67925"
                d="M435.43 330.5 433 310.87a15.8 15.8 0 0 0-1.89-5.78l-5-9a3.28 3.28 0 1 0-6.49 1l3.15 12.21-10.09-6.3-6.25-13.5a2.59 2.59 0 1 0-5 1.34q1.76 6.75 3.5 13.5l-6.83-10.84a3.25 3.25 0 0 0-3.29-2.16c-1.48.29-2.75 2.43-1.88 4.66q2.54 6.09 5.05 12.17l-6.55-9.17a3 3 0 0 0-3-.79c-1.34.54-2.13 2.57-1.16 4.46l6.16 11.69-7.33-5.69a2.68 2.68 0 0 0-2.42 0 2.74 2.74 0 0 0-.31 3.79c10.34 12.37 10.2 12.48 12.32 13.89l19.41 12.95z"
                data-original="#e67925" class=""></path>
            <g fill="#68003c">
                <path
                    d="M410 310.63c-.32 0 .06.33-5.46-6a.5.5 0 0 1 .75-.65l5.08 5.83a.5.5 0 0 1-.37.82zM403.68 314.82c-.31 0 .12.36-6.07-6.35a.5.5 0 0 1 .74-.68l5.7 6.2a.49.49 0 0 1-.37.83zM398.52 319.21c-.27 0 .07.23-5.41-4.51a.5.5 0 1 1 .65-.75l5.08 4.38a.5.5 0 0 1-.32.88zM479.93 410.09a.51.51 0 0 1-.44-.27L453.2 360a.51.51 0 0 1 .21-.68.5.5 0 0 1 .67.21l26.3 49.82a.5.5 0 0 1-.45.74zM277.83 429.65a.51.51 0 0 1-.5-.58l1.91-11.69a.5.5 0 0 1 .57-.41.49.49 0 0 1 .41.57l-1.9 11.69a.5.5 0 0 1-.49.42zM289.38 428.59a.49.49 0 0 1-.48-.61l2.19-9.56a.5.5 0 0 1 1 .22l-2.19 9.57a.49.49 0 0 1-.52.38zM299.63 429.8a.5.5 0 0 1-.49-.61l2.29-10.12a.5.5 0 1 1 1 .22l-2.29 10.12a.51.51 0 0 1-.51.39zM311.87 424.05a.5.5 0 0 1-.48-.62l.81-3.34a.5.5 0 1 1 1 .24l-.81 3.34a.51.51 0 0 1-.52.38zM263.18 422.55a.5.5 0 0 1-.48-.63 20.39 20.39 0 0 1 4.26-8.19.5.5 0 0 1 .76.65 19.4 19.4 0 0 0-4.05 7.79.5.5 0 0 1-.49.38z"
                    fill="#68003c" data-original="#68003c" class="" opacity="1"></path>
            </g>
            <path fill="#ffffff"
                d="M409.1 269.09s-2.91 13.54 2.38 17.21 14.62-2.3 14.62-2.3 2.67 6.8 9.33 5.8 13-15 13-15c-11.91-3.64-6.31-2.2-25.16-6.35z"
                data-original="#ffffff" class=""></path>
            <path fill="#e67925" d="M417.1 268.66c0 .34-.22 7 5.08 10.51 5.63 3.7 15.07 1.33 18.15-6.86l-4.81-9.6h-13z"
                data-original="#e67925" class=""></path>
            <rect width="5.12" height="14.66" x="442.24" y="207.37" fill="#ffffff" rx="1.77"
                transform="rotate(56.01 444.878 214.68)" data-original="#ffffff" class=""></rect>
        </g>
    </g>
</svg>