<?xml version="1.0" standalone="no"?>
<!DOCTYPE svg PUBLIC "-//W3C//DTD SVG 20010904//EN"
 "http://www.w3.org/TR/2001/REC-SVG-20010904/DTD/svg10.dtd">
<svg version="1.0" xmlns="http://www.w3.org/2000/svg"
 width="1024.000000pt" height="1024.000000pt" viewBox="0 0 1024.000000 1024.000000"
 preserveAspectRatio="xMidYMid meet">

<g transform="translate(0.000000,1024.000000) scale(0.100000,-0.100000)"
fill="#00788C" stroke="none">
<path d="M5072 8450 c-115 -17 -239 -107 -293 -212 -51 -100 -61 -243 -25
-346 34 -95 126 -197 227 -252 62 -34 68 -35 174 -35 100 0 116 3 170 28 94
44 134 76 185 149 153 218 76 513 -163 627 -103 49 -160 58 -275 41z"/>
<path d="M2730 7544 c-143 -32 -257 -162 -279 -319 -30 -210 105 -394 319
-433 146 -27 321 54 394 181 32 56 66 169 66 221 -1 136 -121 292 -260 339
-70 23 -166 27 -240 11z"/>
<path d="M7419 7537 c-111 -31 -206 -125 -245 -240 -27 -76 -24 -205 5 -280
58 -148 255 -255 415 -226 146 26 248 115 296 260 61 180 -19 378 -185 460
-54 26 -78 32 -152 35 -53 2 -106 -1 -134 -9z"/>
<path d="M5132 7488 c-24 -38 -70 -139 -100 -218 -185 -477 -279 -680 -455
-977 -169 -286 -203 -345 -255 -448 -106 -210 -199 -490 -227 -685 -20 -131
-19 -130 -35 -100 -7 14 -32 50 -55 80 -23 30 -160 231 -304 445 -144 215
-292 433 -328 485 -127 183 -300 446 -344 522 -24 43 -46 78 -49 78 -3 0 -23
-28 -46 -63 -22 -34 -102 -153 -177 -265 -125 -185 -276 -430 -304 -492 -6
-14 -22 -50 -36 -81 -67 -148 -99 -298 -99 -459 0 -229 69 -387 266 -615 120
-138 248 -337 295 -459 45 -115 69 -206 72 -278 2 -27 4 -48 5 -48 1 0 60 12
131 26 70 14 158 26 195 27 37 1 68 3 68 5 0 1 -41 69 -92 150 -228 366 -347
771 -348 1187 0 170 12 267 57 449 32 125 39 144 45 120 46 -161 106 -316 180
-467 87 -177 125 -240 303 -512 155 -235 441 -592 525 -654 28 -20 32 -20 97
-7 103 22 219 36 309 37 l81 1 6 137 c18 435 153 981 330 1336 27 55 99 184
159 287 60 104 121 214 137 247 l27 59 24 -50 c13 -28 66 -118 118 -202 182
-290 287 -513 371 -783 83 -271 124 -505 143 -818 6 -110 12 -201 13 -203 1
-1 51 -7 111 -12 60 -6 157 -19 216 -31 l108 -21 31 29 c61 57 289 332 396
478 196 269 268 383 372 592 53 106 197 450 243 583 7 19 8 18 48 -125 113
-402 85 -839 -83 -1265 -52 -132 -105 -229 -219 -398 -50 -73 -89 -134 -87
-136 2 -2 45 -8 95 -15 50 -6 139 -22 197 -35 59 -12 109 -21 112 -18 3 3 5
19 5 36 0 58 49 231 89 318 72 155 156 281 344 514 151 187 217 358 217 563 0
58 -5 135 -11 171 -23 145 -107 348 -216 525 -92 148 -395 610 -416 632 l-20
22 -21 -32 c-12 -18 -39 -61 -60 -97 -22 -36 -175 -270 -341 -520 -386 -581
-629 -950 -642 -975 -10 -17 -12 -15 -18 20 -60 363 -174 653 -422 1071 -171
288 -373 661 -373 689 0 4 -28 66 -61 138 -34 73 -85 191 -114 262 -82 199
-123 275 -151 275 -7 0 -21 -15 -32 -32z"/>
<path d="M4655 3849 c-468 -13 -1187 -87 -1525 -155 -99 -20 -191 -65 -229
-111 -94 -114 -76 -301 41 -429 79 -87 151 -100 373 -69 980 138 2265 153
3285 39 124 -14 270 -32 325 -41 145 -22 282 -27 327 -11 117 41 219 190 220
319 1 147 -88 247 -258 289 -82 20 -493 81 -669 99 -55 6 -145 15 -199 21
-499 52 -1045 68 -1691 49z"/>
<path d="M4295 2779 c-296 -7 -811 -32 -1035 -50 -69 -5 -192 -14 -275 -20
-82 -7 -166 -17 -185 -23 -51 -16 -80 -65 -80 -137 0 -52 3 -60 31 -83 17 -14
36 -26 42 -26 7 0 95 4 197 10 1285 67 2836 67 4205 0 304 -15 357 -15 382 0
29 19 43 52 43 105 0 52 -33 98 -84 115 -85 28 -1006 90 -1623 110 -356 11
-1168 11 -1618 -1z"/>
<path d="M27 103 c-25 -4 -27 -8 -27 -54 0 -48 1 -49 30 -49 30 0 30 1 30 55
0 30 -1 54 -2 54 -2 -1 -15 -4 -31 -6z"/>
</g>
</svg>
