<svg width="81" height="81" viewBox="0 0 81 81" fill="none" xmlns="http://www.w3.org/2000/svg">
<path d="M50.6666 27.8221C48.0144 25.1699 44.4173 23.6799 40.6666 23.6799C36.9159 23.6799 33.3188 25.1699 30.6666 27.8221C28.0144 30.4742 26.5245 34.0713 26.5245 37.8221C26.5245 41.5728 28.0144 45.1699 30.6666 47.8221L39.4499 56.6221C39.6049 56.7783 39.7892 56.9023 39.9923 56.9869C40.1954 57.0715 40.4133 57.1151 40.6333 57.1151C40.8533 57.1151 41.0711 57.0715 41.2742 56.9869C41.4773 56.9023 41.6617 56.7783 41.8166 56.6221L50.6666 47.7387C53.3077 45.0976 54.7914 41.5155 54.7914 37.7804C54.7914 34.0453 53.3077 30.4632 50.6666 27.8221V27.8221ZM48.2833 45.3554L40.6666 53.0054L33.0499 45.3554C31.5452 43.8493 30.5207 41.9308 30.1061 39.8426C29.6915 37.7543 29.9053 35.59 30.7205 33.6232C31.5356 31.6564 32.9156 29.9755 34.686 28.7929C36.4563 27.6102 38.5376 26.979 40.6666 26.979C42.7956 26.979 44.8769 27.6102 46.6472 28.7929C48.4176 29.9755 49.7976 31.6564 50.6128 33.6232C51.428 35.59 51.6418 37.7543 51.2271 39.8426C50.8125 41.9308 49.788 43.8493 48.2833 45.3554V45.3554ZM35.6666 32.7054C34.3211 34.055 33.5656 35.883 33.5656 37.7887C33.5656 39.6945 34.3211 41.5224 35.6666 42.8721C36.6662 43.8734 37.9393 44.5572 39.326 44.8377C40.7128 45.1183 42.1515 44.983 43.4617 44.449C44.7719 43.9149 45.8952 43.0059 46.6907 41.8358C47.4862 40.6658 47.9185 39.2869 47.9333 37.8721C47.9408 36.9274 47.7588 35.9908 47.3981 35.1177C47.0374 34.2446 46.5053 33.4527 45.8333 32.7887C45.1727 32.113 44.3851 31.5746 43.5156 31.2045C42.6462 30.8344 41.7122 30.6399 40.7673 30.6321C39.8224 30.6244 38.8853 30.8036 38.0099 31.1594C37.1345 31.5152 36.3381 32.0406 35.6666 32.7054V32.7054ZM43.4833 40.5054C42.8517 41.1466 42.017 41.5486 41.1218 41.6425C40.2267 41.7364 39.3267 41.5165 38.5758 41.0203C37.8249 40.5241 37.2696 39.7825 37.005 38.9222C36.7403 38.0619 36.7827 37.1365 37.1249 36.304C37.4671 35.4715 38.0878 34.7838 38.8809 34.3583C39.6741 33.9328 40.5904 33.7961 41.4732 33.9714C42.356 34.1468 43.1505 34.6233 43.7208 35.3196C44.2911 36.0159 44.6019 36.8887 44.5999 37.7887C44.5757 38.8175 44.1441 39.7946 43.3999 40.5054H43.4833Z" fill="#84A9C0"/>
<rect x="1.16663" y="0.855469" width="79" height="79" rx="39.5" stroke="#84A9C0"/>
</svg>
