<?xml version="1.0" encoding="UTF-8"?>
<svg id="Layer_2" data-name="Layer 2" xmlns="http://www.w3.org/2000/svg" viewBox="0 0 1239.08 346.1">
  <defs>
    <style>
      .cls-1 {
        fill: #7baed3;
      }

      .cls-2 {
        fill: #7db0d4;
      }

      .cls-3 {
        fill: #7cafd4;
      }

      .cls-4 {
        fill: #7cafd3;
      }

      .cls-5 {
        fill: #7bafd3;
      }

      .cls-6 {
        fill: #91bcd9;
      }
    </style>
  </defs>
  <g id="Layer_1-2" data-name="Layer 1">
    <path class="cls-6" d="M1101.85,333.83c-.75,.18-1.51,.37-2.26,.55-4.01,1.17-8.02,2.34-12.03,3.51-2.5,.42-5,.84-7.5,1.26-3.26,.76-6.53,1.52-9.79,2.29-.78,.13-1.56,.26-2.34,.39-1.73,.27-3.47,.55-5.2,.82-2.26,.34-4.52,.69-6.78,1.03-3.51,.42-7.01,.85-10.52,1.27-.27,0-.54,0-.81,0-2,.17-4,.35-6,.52-1-.01-2.01-.02-3.01-.03-2.51,.22-5.02,.45-7.53,.67-7.53,0-15.07,0-22.6,0-2.01-.23-4.02-.46-6.02-.68-3.52-.15-7.03-.31-10.55-.46-3.24-.47-6.47-.93-9.71-1.4-1.28-.11-2.57-.22-3.85-.32-2.51-.42-5.02-.85-7.53-1.27-1.01-.17-2.01-.34-3.02-.5-4.27-.98-8.53-1.95-12.8-2.93-.47-.05-.94-.1-1.42-.15-9.59-2.94-19.21-5.84-28.77-8.84-4.29-1.35-8.47-2.9-12.7-4.37-.75-.38-1.5-.75-2.25-1.13-3.03-1.49-6.06-2.99-9.09-4.48-2.13-.84-4.25-1.67-6.38-2.51-1.64-1.09-3.28-2.19-4.92-3.28-.77-.37-1.53-.74-2.3-1.11-2-1.16-3.99-2.31-5.99-3.47-.49-.23-.97-.47-1.46-.7-3.77-2.5-7.54-5-11.31-7.5-2.25-1.71-4.5-3.43-6.75-5.14-1.27-.96-2.54-1.92-3.81-2.88-1.99-1.54-3.97-3.07-5.96-4.61-5.74-5.66-11.48-11.31-17.23-16.97-.49-.5-.99-1.01-1.48-1.51-4.32-5.76-9.12-11.34-12.85-17.32-5.18-8.3-9.57-16.88-14.29-25.35-.32-.75-.65-1.5-.97-2.25-.75-1.92-1.5-3.84-2.24-5.76-.24-.58-.49-1.15-.73-1.73-.84-2.85-1.85-5.69-2.5-8.57-1.26-5.59-2.33-11.2-3.47-16.8-.26-2.69-.52-5.38-.77-8.07-.29-1.54-.59-3.07-.88-4.61,0-5.19,0-10.38,0-15.57,.3-1.34,.6-2.69,.9-4.03-.05-.96-.1-1.92-.14-2.88,.43-2.51,.78-5.03,1.32-7.53,1.04-4.8,2.19-9.58,3.29-14.37,.26-.38,.53-.77,.79-1.15,.56-2.1,1.11-4.19,1.67-6.29,.17-.6,.34-1.19,.52-1.79,.23-.77,.47-1.53,.7-2.3,.31-.76,.62-1.52,.93-2.28,.72-1.35,1.43-2.71,2.15-4.06,.3-.95,.6-1.89,.9-2.84,1.46-2.7,2.91-5.41,4.37-8.11,.15-.5,.3-1.01,.45-1.52,.47-.41,1.13-.77,1.4-1.25,7.29-13.3,17.27-25.38,28.38-36.95,.51-.56,1.02-1.12,1.52-1.68,3.26-2.89,6.53-5.79,9.79-8.68,.24-.2,.48-.4,.72-.6,3.53-2.71,7.05-5.41,10.58-8.12,1.24-.94,2.49-1.89,3.73-2.84,3.79-2.51,7.58-5.02,11.37-7.53,.47-.19,.95-.38,1.42-.57,1.82-1.15,3.64-2.29,5.46-3.44,1.19-.58,2.38-1.16,3.58-1.75,4.06-.86,8.09-1.83,12.19-2.53,1.27-.22,2.74,.26,4.11,.42-.68,.88-1.1,1.99-2.07,2.6-11.87,7.42-24.75,13.89-34.89,22.93-6.35,5.66-13.72,10.64-20.3,16.15-13.24,11.09-24.77,23.13-32.88,36.91-4.5,7.64-7.79,15.56-8.29,24.02,0,.12,.21,.24,.33,.37,.48-.35,.95-.69,1.41-1.03,.3,1.9-.02,3.56-.5,5.19-2.4,8.14-3.73,16.22,1.09,24.2,1.46,2.42,2.32,5.04,3.68,7.5,3.39,6.17,6.91,12.3,10.38,18.45,.27,.37,.54,.74,.81,1.11,1.29,1.75,2.59,3.51,3.88,5.26,.53-.06,1.06-.13,1.59-.19,.22-1.47,.72-2.97,.46-4.38-.07-.38-2.47-.52-3.82-.74-.61-.09-1.24-.09-1.86-.12-.23-.4-.45-.81-.67-1.21,.01-.57-.04-1.15,.04-1.72,.71-4.97,1.16-9.76-2.98-14.31-1.28-1.41-.64-4.22,.05-6.2,.82-2.36,3.02-4.44,3.85-6.8,.48-1.37-.54-3.06-.88-4.6-1.67,.43-3.35,.81-4.98,1.3-.55,.17-.88,.71-1.42,.92-2.13,.85-3.6,.76-3.65-1.51-.17-6.88,2.22-13.25,6.36-19.28,1.27-1.86,3.05-2.89,6.03-2.5,2.71,.36,5.46,.54,8.21,.67,4.82,.22,7.85,2.73,7.21,6.45-.31,1.77-1.37,3.47-2.06,5.21-.55,1.4-1.06,2.81-1.59,4.21,.33,.15,.66,.29,1,.44,.68-.53,1.64-.97,1.99-1.61,.88-1.58,1.88-3.21,2.13-4.88,.74-4.97,4.25-8.45,9.31-11.28,2.52-1.42,4.86-3.03,7.31-4.52,8.33-5.07,16.6-10.19,25.05-15.13,1.84-1.07,4.35-1.47,7.08-2.34,.11,3.96,2.47,4.34,5.78,3.29,2.29-.73,4.65-1.4,6.73-2.39,.61-.3,.85-2.21,.46-2.4-3.62-1.7-3.25-3.66-1.23-6.01,.46-.53,.21-1.44,.2-2.18-.04-1.97,2.31-2.71,3.34-1.76,2.87,2.62,5.33,.93,8.05,.27,.97-.23,2.02-.25,3.04-.37,.24,.3,.49,.6,.73,.91-1.3,.96-2.9,1.78-3.83,2.92-.91,1.11-2.05,2.92-1.46,3.75,.86,1.21,3.09,2.33,4.9,2.49,1.33,.12,3.25-1.15,4.26-2.17,.91-.92,1.04-2.33,1.34-3.55,1.49-6.17,2.9-12.36,4.38-18.53,.89-3.71,1.85-7.4,2.9-11.57-2.72,.54-4.6,.92-6.81,1.36,.31-4.33,3.62-7.94,2.15-12.16-5.7,1.12-9.4,3.65-12.17,7.12-1.62,2.02-2.83,4.39-5.01,5.96-4.37,3.13-9.26,5.84-13.98,8.68-1.57,.94-3.27,1.76-4.91,2.64-.35-.24-.7-.48-1.05-.72,1.19-1.47,2.13-3.1,3.61-4.38,4.42-3.81,6.46-8.11,5.58-13.21-.51-2.93,1.58-5.16,4.49-6.55,5.7-2.73,11.67-5.12,17.61-7.53,2.11-.86,4.47-1.35,6.71-2.01,.46,.45,.92,.91,1.38,1.36-2.04,.75-4.07,1.51-6.11,2.26,.4,.44,.79,.89,1.19,1.33,1.99-.21,4.89,.09,5.72-.77,1-1.04,.24-3.07,.24-4.8,6.42-2.8,13.33-5.81,20.23-8.82,.37,.21,.73,.42,1.09,.63-.89,1.68-1.23,3.8-2.79,4.94-3.19,2.33-7.13,4.06-10.57,6.21-1.23,.77-2.5,1.97-2.75,3.1-.48,2.15-.34,4.4-.24,6.6,.03,.66,.79,1.85,1.22,1.85,.96,0,2.27-.39,2.81-.97,1.38-1.47,2.47-3.1,3.59-4.7,1.32-1.89,2.63-3.68,6.85-1.75,4-6.75,8.4-13.12,11.42-19.85,1.09-2.44-1.14-5.75-1.93-8.99-.33,.14,.23-.05,.71-.31,.48-.26,.9-.61,1.84-1.26-2.23,.43-3.7,.71-5.17,.99,3.14-2.78,3.39-7.3,8.98-8.16,.17,.94,.32,1.8,.48,2.66,1.28-.16,2.72-.11,3.81-.55,1.61-.64,2.97-1.64,4.44-2.49-.13-.32-.26-.64-.39-.96-2.23,.27-4.46,.55-6.81,.84,.21-.52,.4-.98,.76-1.86-3.81,1.04-7.27,1.84-10.56,2.93-2.49,.83-4.92,1.89-7.1,3.13-1.91,1.08-3.34,2.63-5.15,3.82-2.08,1.36-4.35,2.54-6.59,3.83,.27,.75,.76,1.4,.68,2-.42,3.15,1.56,2.45,3.69,1.38,2.88-1.45,5.7-2.97,8.97-4.68,.11,1.21,.62,2.49,.18,2.72-3.87,2.04-7.71,4.27-11.99,5.63-1.62,.52-5.46-.62-6.33-1.83-.81-1.13,.34-3.76,1.73-5.01,3.14-2.84,6.96-5.24,10.48-7.84,.79-.58,1.49-1.24,2.19-1.89,1.18-1.09,2.07-2.52,3.55-3.24,2.73-1.32,5.76-2.3,8.73-3.31,3.54-1.2,7.15-2.27,10.73-3.4l-.36-1.03c-2.7,.4-5.41,.76-8.1,1.19-7.89,1.26-16.06,1.91-23.58,3.96-13.07,3.55-25.73,7.96-38.57,12-1.03,.32-2.08,.59-3.12,.89-.18-.29-.36-.58-.54-.87,5.4-2.41,10.66-5.04,16.23-7.19,8.32-3.21,16.87-6.09,25.32-9.12,.27-.12,.55-.25,.82-.38,6.23-1.47,12.46-2.93,18.69-4.4,1.02-.34,2.04-.68,3.06-1.02,2.5-.42,4.99-.83,7.49-1.24,1.51-.2,3.01-.39,4.52-.59,1.78-.32,3.55-.65,5.33-.97,1.25-.22,2.5-.45,3.75-.67,3.5-.25,7.01-.49,10.51-.74,3.51-.35,7.03-.7,10.54-1.05,1.76-.03,3.51-.06,5.27-.09,7.53,0,15.06-.01,22.6-.02,2.26,.04,4.52,.07,6.78,.11,3.26,.35,6.53,.69,9.79,1.04,3.26,.23,6.53,.46,9.79,.69,5,.81,10.01,1.62,15.01,2.43,3.28,.69,6.56,1.38,9.84,2.07,1.01,.2,2.01,.41,3.02,.61,1.77,.44,3.55,.85,5.3,1.34,4.2,1.18,8.41,2.35,12.57,3.62,2.13,.65,2.09,.81,.22,1.96-.76-.16-1.52-.31-2.28-.47-7.75-1.81-15.51-3.62-23.26-5.43-1.03-.1-2.06-.21-3.1-.31-6.01-1.36-12.02-2.43-18.85-.41,4.75,.36,8.79,.56,12.76,1.06,1.05,.13,2.79,1.31,2.7,1.86-.49,2.87,2.29,3.43,4.64,4.3,2,.74,4.08,1.36,6.12,2.03-.1,.23-.2,.46-.3,.69-1.08,.05-2.16,.09-3.24,.14-.36-.11-.71-.21-1.07-.32,.27,.19,.54,.38,.81,.57,1.06,1.1,2.13,2.2,3.19,3.3,.74,.9,1.47,1.8,2.21,2.7-4.28-1.42-8.55-2.88-12.86-4.24-1.95-.62-4-1.04-6-1.55-.14,.23-.29,.46-.43,.69,8.43,5.61,16.86,11.21,25.29,16.82,.01,.33,.02,.65,.03,.98-3.16-.11-6.32-.23-10.2-.37,1.01,.99,1.54,1.48,2.04,1.99,3.51,3.54,7.01,7.08,10.52,10.62-.76,.18-1.53,.37-2.29,.55-4.54,.09-4.28,3.04-5.3,5.22-.25,.96-.49,1.92-.73,2.88-1.23,2.94-1.93,6.11-3.82,8.78-2.51,3.55-5.51,3.62-7.94,.97-.62-.68-1.62-1.15-2.44-1.71-.26-.56-.53-1.11-.79-1.67,2.73-.32,5.46-.64,8.2-.96,.2-.29,.39-.58,.59-.87-2.7-1.5-5.39-2.99-8.09-4.49-1.73-.63-3.47-1.25-5.2-1.88-1.22-.43-2.39-.99-3.66-1.27-4.73-1.07-9.88-2.02-13.5,1.21-2.37,2.11-4,5.11-4.61,7.89-.99,4.46-2.5,8.33-7.22,11.45-1.76,1.16-2.01,3.67-2.94,5.57,0,1.01,0,2.01,0,3.02,.08,.95-.25,2.11,.34,2.82,1.19,1.45,2.63,3,4.48,3.81,.76,.33,2.92-1.12,4.35-1.85,.81-.41,1.46-1.02,2.55-1.81,1.42,2.91,2.38,5.38,3.84,7.66,.67,1.04,2.31,1.72,3.5,2.56,1.02-1.11,2.44-2.13,2.98-3.36,1.2-2.74,2-5.59,2.86-8.41,.14-.45-.3-1-.47-1.5-1.04-.76-2.08-1.51-3.11-2.27-.48-1.12-1.53-2.3-1.33-3.35,.56-2.92,1.63-5.78,2.51-8.66,1.12-.64,2.24-1.29,3.35-1.93,2.8,1.38,1.07,3.08,.34,4.54-2.4,4.77-1.28,7.94,4.54,11.2,.9-.96,1.8-1.92,2.7-2.88,1.24-.06,2.47-.12,3.71-.17,1.26,.22,2.53,.44,3.79,.67-.04,.16-.06,.33-.06,.5-5.16,.82-7.75,3.21-8.49,7.24-.51,2.79-1.73,5.57-3.1,8.2-1.7,3.26-5.86,4.18-9.8,4.45-3.44,.24-4.41-2.36-5.69-4.33-1.13-1.74-2.41-3.42-3.99-5.65-3.21,4,.29,6.84,.65,9.86-1.14,.55-2.29,1.1-3.44,1.64-.77,.36-1.53,.72-2.3,1.07-4.83,2.91-7.37,7.69-13.49,9.58-1.81,.56-3.36,1.61-5.02,2.45-1.77,.91-2.21,1.86-.56,3.25,1.58,1.33,2.91,2.85,4.2,4.36,2.44,2.85,1.97,4.44-1.69,6.32-4.26,.05-8.52,.1-12.78,.15-.98,.37-2.62,.59-2.83,1.13-.78,2.04-1.09,4.18-1.57,6.28,0,1.54,0,3.08,0,4.61-.03,2.83,1.05,5.1,5.05,5.91,.53,.15,1.07,.3,1.6,.46,6.69,1.71,13.56,.1,16.03-4.63,1.98-3.79,5.2-6.35,9.14-8.7,.48-.28,.83-.69,1.24-1.04,1.77-.94,3.53-1.87,5.3-2.81,5.08-3.19,5.42-3.2,10.24,.11,1.2,.82,2.18,1.83,3.26,2.74,3.17,2.69,6.37,5.36,9.51,8.07,1.4,1.2,3.3,1.35,3.78-.09,.52-1.56,.2-3.57-.72-5.02-.84-1.32-3.04-2.1-4.53-3.21-3.37-2.51-8.5-3.78-9.54-7.93,0-.38,0-.77,0-1.15,.75-.57,1.51-1.15,2.26-1.72,.47,.24,.93,.48,1.4,.72,1.34,.84,2.54,1.89,4.04,2.48,6.83,2.68,11.49,6.71,14.45,12.16,1.54,2.83,4.07,5.34,6.15,7.98,4.96-2.22,5.36-3.42,2.63-8.14-1.03-1.78-.68-2.81,1.57-3.68,6.27-2.44,6.24-2.47,5.15-7.48-.25-1.54-.49-3.07-.74-4.61,.83-3.7,3.28-5.39,5.84-4.89,1.21,1.93,1.79,4.41,3.1,4.66,4.18,.81,3.89-3.17,7.09-4.03-2.3-.87-3.9-1.48-5.5-2.08,.28-.33,.55-.66,.83-.99,1.23-.08,2.46-.17,3.69-.25,.73,.04,1.47,.08,2.2,.11-.48,3.41,1.85,5.5,5.54,6.97,2.08,.83,4.18,1.62,6.22,2.51,2.51,1.09,2.37,2.08-.39,3.26-3.52,0-7.03,0-10.55,0-2.43-.25-4.69-.24-5.4,2.1,0,0-.02,0-.02,0-2.22,.79-4.49,1.51-6.66,2.37-6.65,2.63-7.77,7.27-3.19,11.87,1.28,1.29,2.41,1.23,3.98,.78,1.01-.16,2.01-.31,3.02-.47,3.01-.43,6.03-.86,9.04-1.29,1.98-.12,3.96-.25,5.93-.37,.07,2.65,.14,5.31,.21,7.96,0,1.54,0,3.07,0,4.61,0,.47-.1,.97,.05,1.41,1.88,5.66,8.15,8.84,12.61,13.05,.5,.39,1,.78,1.5,1.16,5.49,5.63,11.13,11.18,16.41,16.92,1.97,2.14,3.25,4.69,4.59,7.14,1.33,2.45,3.48,2.75,6.3,1.79,4.22-1.43,5.99-4.38,7.61-7.4,.21-.2,.43-.4,.64-.6,1.25-1.35,2.49-2.7,3.74-4.05,.98-.23,1.96-.46,2.94-.68,.63-.56,1.37-1.07,1.87-1.69,3.24-4.12,6.66-8.2,7.06-13.21,0-.38,0-.77,0-1.15,.51-3.09-1.85-4.7-5.12-5.85-.71-.38-1.42-.76-2.13-1.14-.51-.57-1.02-1.15-1.53-1.73,.79-.35,1.52-.84,2.37-1.02,2.97-.65,6.05-1.05,8.97-1.81,3.6-.94,7-.89,9.78,1.11,3.32,2.39,6.3,5.06,9.42,7.6,.47,.66,.94,1.33,1.42,1.99,3.39,5.85,6.78,11.71,10.17,17.56,.39,.6,.79,1.2,1.18,1.8,1.11,1.67-.02,4.31,3.81,5.07,.29-2.22,.56-4.26,.82-6.29,0-1.92-.01-3.84-.02-5.77-.49-3.27-.99-6.53-1.48-9.8,0-3.27,0-6.54,0-9.8,1.41-3.21,2.71-6.46,4.27-9.63,.69-1.41,2.36-2.05,3.67-.54,4.51,5.21,9.57,10.11,10.39,16.83,.75,6.1,2.74,12.12,4.19,18.17,.05,1.7,.11,3.4,.16,5.1-1.07-.86-2.14-1.71-3.92-3.14,.93,4.56,1.74,8.49,2.55,12.42-.03,2.56-.23,5.12-.03,7.66,.09,1.12,1,2.2,1.53,3.3-.53,1.07-1.19,2.11-1.57,3.21-1.55,4.5-2.68,9.1-4.59,13.5-2.79,6.4-6.12,12.66-9.21,18.98-.49,.77-.99,1.55-1.48,2.32-5.76,7.69-11.53,15.37-17.3,23.06-.51,.57-1.01,1.14-1.51,1.7-7.5,6.92-14.99,13.83-22.49,20.75-1.75,1.35-3.5,2.7-5.25,4.05-3.13,2.13-6.3,4.24-9.39,6.41-1.5,1.05-2.85,2.22-4.27,3.34,0,0-.02,.01-.02,.01-4.97,2.74-9.94,5.48-14.91,8.22-1.77,.93-3.54,1.85-5.31,2.78-5.79,2.67-11.58,5.33-17.37,8-.99,.4-1.98,.8-2.97,1.21-4.27,1.54-8.54,3.08-12.81,4.62-1.76,.57-3.51,1.15-5.27,1.72-.51,.19-1.02,.38-1.52,.57ZM972.36,22.58c-4.39,.91-8.01,2.68-9.76,5.98-.4,.76,.39,2.12,1.13,2.92,.38,.41,2.54,.5,2.76,.22,.72-.92,1.62-2.3,1.18-3.1-1.24-2.28,.63-2.6,2.68-3.27,1.65,3.08,3.71,2.48,6.25,.71,1.15-.8,2.86-1.13,5.2-2-2.94,3.27-5.22,5.81-7.5,8.36,.53,.08,1.05,.17,1.58,.25,.24,1.41,1.01,2.91,.62,4.21-1.93,6.51-6.26,12.2-12.26,16.88-7.59,5.93-9.47,13.65-13.11,20.86,6.06,2.04,12.4,.78,14.68-2.98,1.28-2.12,2.88-2.94,5.93-3.09,4.69-.23,8.77-1.28,9.33-5.86,.13-1.04,2.36-2.46,3.94-2.77,3.06-.59,5.72-1.12,7.01-3.64,.3-.58,1.46-1.06,2.35-1.27,3.94-.96,9.54-6.38,10.45-9.34,1.16-3.76,3.07-7.38,4.92-11.67-2.64-2.97,4.99-3.35,4.62-6.72-2.97-.13-5.92-.25-9.55-.41,.96-.78,1.23-1.08,1.6-1.28,.94-.51,1.92-.97,2.89-1.45-1.03-.74-1.91-1.71-3.13-2.15-1.16-.41-3.02-.7-3.94-.26-3.02,1.44-5.37,.56-7.79-.74,1.71-2.9,.37-4.66-3.94-4.63-2.54,.02-5.06,.68-7.59,1.06,.17-.89,.33-1.79,.49-2.66-3.83,.02-8.21-.67-12.24,2.43,3.23-.27,5.69-.48,8.16-.69l.06,.6c-1.04,.63-2.07,1.26-3.11,1.89,.18,.18,.35,.36,.53,.55,1.4-.32,2.8-.65,4.19-.97-.57,4.25-5.44,4.21-9.46,5.73,.41-.84,.62-1.27,.83-1.7,.09-.03,.19-.05,.25-.1,.04-.03,.02-.1,.03-.15-.09,.09-.18,.18-.27,.27Zm3.21,179.11c-.29,3.35,1.47,5.92,4.4,8.1,6.82,5.07,13.77,10.04,20.52,15.16,2.26,1.71,4.56,1.91,7.49,1.37,8.62-1.59,17.27-3.09,25.96-4.43,1.31-.2,3.64,.28,4.21,1.03,2.27,3,5.03,3.43,9.16,2.38,1.57-.4,4.45,.28,5.54,1.25,1.09,.97,.99,2.94,.83,4.43-.11,1.08-1.07,2.14-1.81,3.14-2.23,3.02-1.54,5.73,1.44,8.16,2.06,1.68,4.68,3.03,6.32,4.9,1.73,1.97,3.71,4.42,3.59,6.6-.2,3.62-2.02,7.19-3.08,10.79-.92,3.14-2.7,6.36-2.41,9.45,.88,9.48,5.32,18.26,10.5,26.82,1.07,1.77,2.59,2.09,4.84,1.69,3.04-.54,6.16-.83,9.16-1.47,11.39-2.43,21.24-6.34,25.23-15.78,.35-.84,1.58-1.76,2.67-2.06,3.85-1.06,6.74-2.74,8.29-5.75,.82-1.6,1.88-3.16,3.13-4.59,2-2.27,3.71-5.02,6.51-6.48,8.51-4.46,10.73-8.39,8.77-16.11-.71-2.8-.73-6.01,.35-8.69,1.45-3.59,3.88-7.06,6.59-10.23,5.19-6.09,11.49-11.67,16.13-17.98,3.68-5.01,5.64-10.76,8.15-16.24,.38-.82-.42-1.96-.68-2.95-1.48,.34-3.23,.4-4.38,1.07-1.76,1.03-3.1,2.48-4.63,3.75-1.19,.98-2.25,2.1-3.63,2.88-2.35,1.32-5.66,.66-6.69-.95-1.52-2.38-2.95-4.87-5.02-6.97-8.43-8.57-17.07-17.02-25.67-25.5-2.43-2.39-3.92-4.92-4.46-8.05-.35-2.02-2.42-5.21-4.32-5.49-7.79-1.16-15.79-1.65-23.75-1.88-3.39-.09-7.06,.96-8.76,3.67-1.94,3.11-5.16,4.12-9.23,3.63-2.94-.36-5.88-.97-8.64-1.83-6.23-1.93-6.19-2.02-5.4-7.17,.7-4.56-.93-6.12-6.86-6.02-15.89,.26-30.02,4.62-43.04,11.28-1.88,.96-3.99,2.65-4.29,4.2-.75,3.82-4.78,5.35-7.57,7.8-5.06,4.45-9.86,9.08-14.61,13.73-1.27,1.24-1.44,2.65,.18,4.17,2.3,2.16,2.21,4.75,1.29,7.39-.9,2.57-1.56,5.19-2.33,7.79Zm-43.51,126.54c-2.38-1.37-4.81-2.69-7.13-4.11-6.84-4.23-14.95-7.35-19.25-13.77-2.24-3.34-2.13-6.65,1.35-8.23-1.5-1.21-2.99-2.4-4.47-3.6,4.65,.52,6.23-1.35,6.45-4.1,.21-2.73,.42-5.54-.16-8.21-1.03-4.74-.76-5.43,5.22-6.88,1.07-.26,2.2-.34,3.28-.59,3.14-.71,4.87-2.21,4.61-4.86-.1-1.05,.09-2.12,0-3.17-.58-6.69-.7-13.29,5.7-18.74,.24-.2,.34-.51,.48-.78,2.05-3.82,.44-9.29-3.3-10.55-4.81-1.62-9.74-3.02-14.58-4.58-5.61-1.82-11.27-3.57-16.73-5.64-3.93-1.49-7.08-3.91-7.58-7.41-.74-5.19-3.45-9.54-7.63-12.87-1.74-.16-3.38,.06-4.11-.46-3.13-2.23-6.9-3.99-7.62-7.83-.5-2.64-2.15-5.21-6.96-4.69-.98,.11-2.2-.37-3.13-.8-6.05-2.8-12.05-5.66-18.07-8.51-1.16,.97-2.29,2.32-3.89,3.14-3.15,1.62-4.14,3.84-4.52,6.57-.64,4.56-1.14,9.19-2.59,13.61-2.24,6.84-1.32,13.18,3.12,19.3,.42,.58,.68,1.23,1.02,1.85,5.18,9.3,10.88,18.31,21.37,25.01,2.28,1.46,4.01,3.73,5.11,5.9,6.5,12.83,14.45,25.08,24.64,36.42,2.51,2.79,5.77,5.21,8.95,7.6,2.75,2.06,5.94,3.76,8.81,5.73,3.26,2.23,6.14,4.83,9.61,6.83,6.57,3.79,13.45,7.26,22.02,8.41Zm201.63-51.97c1.07,1.18,1.73,2.55,2.41,2.55,1.57,.01,3.58-.29,4.65-1.07,8.47-6.17,14.14-13.86,19.1-21.83,.7-1.12-.46-2.92-.76-4.41-1.51,.69-3.63,1.11-4.4,2.13-2.64,3.48-5.91,6.2-10.73,8.01-2.22,.83-3.93,2.48-3.71,4.91,.11,1.2-.84,2.56-1.66,3.69-1.48,2.04-3.22,3.97-4.9,6.01Zm-123.31-164.38c5.94,.24,10.62-.83,14.89-2.88,.68-.32,1.08-1.76,.73-2.42-1.33-2.55-3.11-4.97-4.54-7.49-.9-1.59-1.63-3.26-2.17-4.94-.53-1.66-.48-3.44-1.13-5.07-.98-2.45-3.03-2.34-5.34-.92-.1,.06-.44-.16-.67-.16-2.37-.01-3.78,1.87-2.62,3.47,1.42,1.96,2.98,3.87,4.21,5.89,1.76,2.88,2.26,5.78-.04,8.76-1.28,1.66-2.07,3.55-3.32,5.77Zm-18.18-35.06c5.89-.6,10.06-3.02,11.26-6.84,.66-2.1-.52-2.96-3.24-2.78-2.67,.17-5.41-.24-8.05,.01-1.76,.17-4.19,.7-4.91,1.68-.95,1.29-1.34,3.51-.49,4.73,.97,1.41,3.55,2.17,5.43,3.21Zm72.95-48.87c-3.4,8.56,5.01,19.08,12.43,17.99-3.96-5.73-8.04-11.65-12.43-17.99Zm-52.84,73.55c0-.58,.07-1.16-.01-1.73-.2-1.48-.54-3.27-3.13-2.72-2.42,.5-5.42,.87-5.98,3.48-.26,1.23-.38,2.51-.98,3.64-1.06,1.97-.35,2.93,2.34,3.15,5.04,.42,7.77-1.61,7.77-5.82Zm26.04-66.24c-.33-1-.51-2.26-1.19-3.34-.56-.89-1.67-2.19-2.59-2.21-1.62-.04-3.98,.38-4.8,1.27-2.64,2.88,1.27,7.83,5.87,8.06,.85-1.19,1.67-2.33,2.7-3.77Zm-195.32,130.9c-2.65-4.41-6.1-8.24-11.46-10.93-.59-.3-1.43-.46-2.13-.43-.51,.02-1.22,.4-1.41,.75-.16,.31,.15,.9,.48,1.21,2.9,2.73,5.84,5.42,8.78,8.12,1.39,1.28,2.82,2.54,5.73,1.27Zm9.21,8.75c.32-.31,.63-.63,.95-.94-1.7-1.59-3.07-4.05-5.19-4.51-1.84-.4-4.52,1.46-7.02,2.39,3.26,4.34,7.86,1.78,11.25,3.06ZM1046.17,25.97h9c-2.21-2.03-3.89-3.58-5.66-5.21-1.18,1.83-2.03,3.17-3.34,5.21Zm-4.23,111.21c1.79,1.55,2.96,2.57,4.14,3.59,.98-.88,2.93-1.92,2.74-2.61-.33-1.17-1.89-2.22-3.22-3.05-.24-.15-1.89,1.05-3.65,2.07Zm52.51,9.48c-3.07-.24-5.8-.51-8.54-.63-.58-.02-1.36,.42-1.73,.83-.21,.23,.04,.94,.39,1.2,1.91,1.42,7.53,.77,9.88-1.4Zm127.27,38.25c-2.99,2.29-2.81,5.32,0,7.48v-7.48Zm-110.69-38.76c-.19-.56-.39-1.13-.58-1.69-1.45,.18-2.89,.37-4.34,.55,.18,.78,.35,1.55,.53,2.33,1.46-.39,2.93-.79,4.39-1.18Z"/>
    <path class="cls-4" d="M729.07,129.21c2.01,.36,4.02,.73,6.03,1.09,6.01,2.54,12.02,5.09,18.04,7.63,1.51,1.15,3.01,2.31,4.52,3.46,5.96,5.73,9.5,12.18,9.95,19.55,0,2.31,0,4.61,0,6.92-.25,1.35-.5,2.69-.75,4.04-1.32,3.23-2.64,6.46-3.96,9.69-1.74,1.94-3.48,3.87-5.22,5.81-1.51,1.15-3.02,2.31-4.52,3.46-3.03,1.7-6.07,3.41-9.1,5.11-.5,.18-.99,.37-1.49,.55-5.24,1.24-10.49,2.48-15.73,3.72-4.27,0-8.54,0-12.82,0-9.57-1.51-18.71-3.75-26.28-8.77-1-.77-2.01-1.53-3.01-2.3-1.29-1.39-2.55-2.78-3.87-4.15-5.38-5.62-7.09-12.2-8.39-18.88,0-1.35,0-2.69,0-4.04,1.54-4.61,3.08-9.22,4.62-13.84,.29-.54,.57-1.07,.86-1.61,2.01-2.15,4.01-4.29,6.02-6.44,.99-.76,1.98-1.51,2.96-2.27,5.91-3.64,12.45-6.39,19.74-8.06,1.7-.22,3.39-.45,5.09-.67,1-.02,2.01-.05,3.01-.07,3.77,0,7.53,0,11.3,0,1,.03,2.01,.05,3.01,.08Zm15.95,34.99c0-.67,.04-1.35,0-2.02-.46-7.49-4.34-13.58-13.68-16.49-9.18-2.86-18.49-2.72-26.63,2.34-8.28,5.15-9.96,12.29-8.65,19.82,1.73,9.91,10.4,16.35,23.4,16.61,16,.33,26.15-8.6,25.57-20.26Z"/>
    <path class="cls-5" d="M96.36,164.4c-.03,10.07-.15,20.14-.04,30.21,.03,2.35-.84,3.24-4.03,3.14-5.46-.17-10.94-.05-16.97-.05,0-23.45,0-46.25,0-69.05,.07-.36,.14-.72,.2-1.07,.19-.02,.38-.05,.57-.1,1.65,1,3.33,1.97,4.96,2.99,4.3,2.7,8.58,5.41,12.88,8.12,0,0,.04,.05,.04,.05,1.99,1.33,3.99,2.66,5.98,3.99,0,0,.04,.05,.05,.05,3.59,2.55,7.09,5.17,10.78,7.62,4.08,2.71,8.34,5.27,12.52,7.9,0,0,.04,.05,.05,.05,1.99,1.33,3.99,2.66,5.98,3.99,0,0,.04,.05,.05,.05,1.81,1.3,3.61,2.61,5.41,3.91,.47-.21,.95-.42,1.42-.63,0-.77,0-1.54,0-2.31v-32.72h20.53c0,1.19,0,2.31,0,3.42,0,20.73,0,41.45,0,62.18,0,1.15,.11,2.3,.17,3.44-1.83,1.71-2.68-.33-3.98-.61,0,0,.02,.01,.02,.01-1.95-1.19-3.9-2.38-5.85-3.57,0,0-.04-.03-.05-.03-1.99-1.33-3.99-2.67-5.98-4,0,0-.04-.03-.05-.03-1.99-1.33-3.99-2.67-5.98-4,0,0-.04-.03-.05-.03-1.81-1.3-3.61-2.6-5.41-3.91,0,0,.02,.01,.02,.01-2.01-1.35-4.03-2.7-6.04-4.05,0,0,.02,.01,.02,.01-1.95-1.19-3.9-2.38-5.85-3.57,0,0-.04-.03-.05-.03-1.99-1.33-3.99-2.67-5.98-4,0,0-.04-.03-.05-.03-1.99-1.33-3.99-2.67-5.98-4,0,0-.04-.03-.05-.03-1.81-1.3-3.61-2.6-5.41-3.91,0,0,.02,.01,.02,.01-1.11-.92-2.23-1.84-3.86-3.19v3.8Z"/>
    <path class="cls-5" d="M487.18,163.24v-32.72h20.53v3.42c0,20.73,0,41.45,0,62.18,0,1.15,.11,2.3,.17,3.44-1.83,1.71-2.68-.33-3.98-.61,0,0,.02,.01,.02,.01-1.95-1.19-3.9-2.38-5.85-3.57,0,0-.04-.03-.05-.03-1.99-1.33-3.99-2.67-5.98-4,0,0-.04-.04-.05-.03-1.99-1.33-3.99-2.67-5.98-4,0,0-.04-.03-.05-.03-1.81-1.3-3.61-2.6-5.41-3.91,0,0,.02,.01,.02,.01-2.01-1.35-4.03-2.7-6.04-4.05,0,0,.02,.01,.02,.01-1.95-1.19-3.9-2.38-5.85-3.57,0,0-.04-.03-.05-.03-1.99-1.33-3.99-2.67-5.98-4,0,0-.04-.03-.05-.03-1.99-1.33-3.99-2.67-5.98-4,0,0-.04-.03-.05-.03-1.81-1.3-3.61-2.6-5.41-3.91,0,0,.02,.01,.02,.01-1.11-.92-2.23-1.84-3.86-3.19v3.8c-.03,9.78-.07,19.57-.1,29.35-.01,3.93,0,3.83-5.06,3.7-5.1-.13-10.2-.03-15.88-.03,0-23.17,0-45.97,0-68.77,.07-.36,.14-.72,.2-1.07,.19-.02,.38-.05,.57-.1,1.65,1,3.33,1.97,4.96,2.99,4.3,2.7,8.58,5.41,12.88,8.12,0,0,.04,.05,.04,.05,1.99,1.33,3.99,2.66,5.98,3.99,0,0,.04,.05,.05,.05,3.59,2.55,7.09,5.17,10.78,7.62,4.08,2.71,8.34,5.27,12.52,7.9,0,0,.04,.05,.05,.05,1.99,1.33,3.99,2.66,5.98,3.99,0,0,.04,.05,.05,.05,1.81,1.3,3.61,2.61,5.41,3.91,.47-.21,.95-.42,1.42-.64v-2.31Z"/>
    <path class="cls-5" d="M656.73,166.65c-.5,.38-1,.77-1.5,1.15-3.02,1.6-6.04,3.21-9.34,4.97,7.38,8.23,14.73,16.44,22.48,25.08-8.44,0-16.17,.05-23.88-.07-.91-.01-2.07-.89-2.65-1.59-5.41-6.49-10.68-13.05-16.09-19.55-.65-.78-1.9-1.26-2.87-1.88h-4.56c0,7.22,0,14.29,0,21.36-.84,.58-1.66,1.64-2.52,1.66-5.58,.15-11.17,.15-16.75,0-.86-.02-1.68-1.08-2.52-1.66,.04-20.61,.07-41.21,.11-61.82,0-1.14,0-2.28,0-3.37,.56-.22,.88-.46,1.2-.46,11.77-.02,23.54-.02,35.3,0,.85,0,1.7,.26,2.55,.39,15.4,.71,26.16,8.26,27.23,19.12,0,1.54,0,3.08,0,4.61-.25,1.34-.5,2.69-.75,4.03-.25,.58-.5,1.15-.75,1.73-1.56,2.09-3.12,4.19-4.68,6.28Zm-38.29-4.27c4.99-.34,9.49-.41,13.87-1,5.32-.72,8.63-4.09,8.67-8.19,.04-4.4-2.73-7.52-8.32-8.31-4.58-.64-9.34-.57-14.22-.83v18.33Z"/>
    <path class="cls-5" d="M303.53,200.82c-3.77,0-7.54,0-11.3,0-4.26-.82-8.52-1.64-12.77-2.46-.5-.19-1-.38-1.5-.57-9.66-4.19-14.82-10.56-15.68-19.01v-48.21h21.72c0,14.73,0,29.47,0,44.21-.25,6.87,4.46,10.93,12.75,10.98,.75,0,1.51,0,2.26,0,3.84,.07,6.91-1.06,9.17-3.45,3.32-2.24,3.68-5.33,3.71-8.36,.11-13.35,.05-26.69,.05-40.04,0-1.04,0-2.08,0-3.31h21.54c0,15.97,0,31.78,0,47.6-.34,1.31-.69,2.63-1.04,3.94-.07,.16-.16,.31-.21,.47-.02,.08,.03,.17,.05,.25-.6,1.53-1.2,3.06-1.8,4.59-.24,.08-.34,.22-.3,.42-3.67,2.89-6.83,6.4-11.17,8.48-4.57,2.2-10.27,3.03-15.47,4.45Z"/>
    <path class="cls-3" d="M246.14,175.58c-.07,5.11-.13,10.23-.2,15.34-1.12,1.13-1.96,2.57-3.41,3.33-2.59,1.37-5.55,2.34-8.35,3.48-.49,.06-.97,.12-1.46,.18-3.26,.58-6.53,1.17-9.79,1.75-6.25-.35-12.49-.7-18.74-1.05-3.3-.85-6.59-1.71-9.89-2.56-.4-.11-.81-.22-1.21-.32-5.86-3.3-11.99-6.43-15.83-11.3-2.42-3.07-4.18-6.43-6.23-9.67-.05-.18-.1-.37-.14-.55-.52-2.69-1.05-5.38-1.57-8.07,0-1.35,0-2.69,0-4.04,.76-3.27,1.53-6.53,2.29-9.8,.45-1.07,.91-2.15,1.36-3.22,2.36-2.76,4.73-5.53,7.1-8.29,1.49-1.14,2.98-2.28,4.47-3.42,4.77-2.11,9.54-4.23,14.31-6.34,.77-.2,1.53-.4,2.3-.6,3.99-.43,7.99-.85,11.98-1.28,3.26,0,6.53,0,9.79,0,7.36,.26,14.04,2.16,20.19,5.13,1.27,.61,1.9,2.01,2.82,3.04v15.98c-1.93-.98-2.91-1.47-3.88-1.96-2.36-1.24-4.72-2.47-7.08-3.71-.4-.11-.81-.21-1.21-.32-3.61-.8-7.23-1.6-10.84-2.41-3.77,.17-7.53,.33-11.3,.5-2.76,.97-5.52,1.95-8.28,2.92-.77,.53-1.54,1.05-2.31,1.58-1.53,1.52-3.07,3.04-4.6,4.55-.79,1.57-1.57,3.15-2.36,4.72-.17,1.17-.35,2.33-.52,3.5,0,.96,0,1.92,0,2.88,.26,1.34,.51,2.69,.77,4.03,.41,.99,.82,1.97,1.23,2.95,2.09,4.34,6.25,7.15,11.56,9.1,1.26,.38,2.51,.76,3.77,1.14,1.72,.28,3.45,.57,5.17,.85,2.54-.06,5.09-.12,7.63-.17,3.79-.96,7.58-1.93,11.37-2.89,.73-.22,1.46-.44,2.19-.67,1.82-1.07,3.59-2.21,5.49-3.19,1.01-.52,2.27-.77,3.41-1.14Z"/>
    <path class="cls-5" d="M350.98,196.11c.04-20.65,.07-41.3,.11-61.95,0-1.13,0-2.26,0-3.57h58.38v13.18c-4.42,0-8.65,0-12.88,0-7.15,0-14.31,.05-21.46-.02-2.82-.03-4.11,.64-3.89,3,.26,2.85,.06,5.73,.06,8.91h35.78v13.2h-34.88v15.44c12.28,0,24.52,0,36.76,0,.29,.28,.58,.57,.88,.85,0,3.65,0,7.3,0,10.96-.84,.58-1.67,1.66-2.51,1.66-17.93,.1-35.86,.1-53.79,0-.86,0-1.71-1.08-2.56-1.66Z"/>
    <path class="cls-5" d="M0,196.11c.04-20.65,.07-41.3,.11-61.95,0-1.13,0-2.26,0-3.57H58.49v13.18c-4.67,0-9.15,0-13.63,0-7.03,0-14.05,.03-21.08-.01-2.48-.01-3.64,.63-3.5,2.7,.2,2.96,.05,5.93,.05,9.2H56.11v13.2H21.23v15.44c12.28,0,24.52,0,36.76,0,.29,.28,.58,.57,.88,.85,0,3.65,0,7.3,0,10.96-.84,.58-1.67,1.66-2.51,1.66-17.93,.1-35.86,.1-53.79,0-.86,0-1.71-1.08-2.56-1.66Z"/>
    <path class="cls-1" d="M541.23,196.11c.07-12.77,.14-25.55,.2-38.32,.02-4.12,0-8.25,0-12.8h-23.89v-14.36h68.97v14.27h-23.08c-.38,.48-.62,.63-.62,.79,0,16.81,0,33.61,.01,50.42-.85,.58-1.67,1.64-2.55,1.66-5.48,.15-10.98,.16-16.46,0-.89-.03-1.73-1.08-2.59-1.66Z"/>
    <path class="cls-1" d="M502.43,250.42v16.42h-12.03v-39.96h11.97v14.63c7.42,0,14.41,.06,21.38-.1,.63-.01,1.69-1.47,1.73-2.28,.18-4.01,.08-8.03,.08-12.25h12.02v39.92h-12.35v-16.37h-22.8Z"/>
    <path class="cls-5" d="M428.68,240.51c-.02,.58-.03,1.15-.05,1.73-1.55,2.28-3.1,4.56-4.64,6.85-.74,.43-1.47,.86-2.21,1.29-1.08,.53-2.17,1.06-3.6,1.76,2.58,2.68,4.89,5.07,7.2,7.47,.5,.57,1.01,1.14,1.51,1.71,1.53,1.72,3.05,3.45,4.57,5.17-5.47,.63-10.97,1.56-16.24-.66-1.82-2.3-3.64-4.61-5.46-6.91-.2-.19-.4-.38-.6-.58-1.05-1.35-2.1-2.7-3.15-4.05-1.29-.47-2.58-.94-4.48-1.64v14.14h-11.98v-40.17c11.86,.75,24.25-2.14,34.97,4.17,2.47,2.97,4.46,6.06,4.15,9.73Zm-26.95,5.02c4.7-.08,9.41,.96,12.64-2.42,1.81-1.89,1.79-4.03-.09-5.87-3.3-3.23-7.94-2.34-12.55-2.25v10.53Z"/>
    <path class="cls-1" d="M277.22,266.84v-39.98h12.02v14.49h22.94v-14.44h12.19v39.93h-12.06v-16.36h-22.98v16.37h-12.12Z"/>
    <path class="cls-5" d="M365.27,253.19c.09-8.64,.19-17.28,.29-25.92,0-.08,.14-.15,.4-.41h12.2v3.09c0,7.59,.05,15.18-.03,22.76-.02,1.89-.44,3.78-.67,5.67-.56,1.13-1.12,2.26-1.68,3.39-.5,.57-1,1.15-1.5,1.72-3.02,1.53-6.04,3.05-9.07,4.57-5.74,.02-11.49,.03-17.23,.05-2.7-1.18-5.39-2.35-8.09-3.53,0,0-.04-.04-.04-.04-1.05-1.31-2.1-2.61-3.15-3.92-.42-11.16-.85-22.32-1.28-33.73h13.2c0,3.42,0,6.74,0,10.07,0,5.46-.09,10.92,.08,16.38,.04,1.34,.94,2.66,1.45,3.99,1.5,.79,3.01,1.58,4.51,2.37,1.53-.05,3.07-.11,4.6-.16,4.47-1.1,5.89-2.61,6.01-6.36Z"/>
    <path class="cls-2" d="M478.39,253.93c.42,.26,1.14,.48,1.2,.78,.18,.84,.09,1.71,.09,2.56q0,7.44-9.03,10.16c-1.73,.28-3.46,.56-5.19,.84-1.76,0-3.52,0-5.28,0-3-.44-6.01-.87-9.01-1.31-1.99-.76-3.97-1.52-5.96-2.28-5.51-3.49-9.51-7.7-10.72-13.23,0-3.08,0-6.15,0-9.23,1.4-6.56,6.69-10.96,13.7-14.38,.23-.02,.46-.06,.69-.1,3.77-.58,7.53-1.17,11.3-1.75,1.76,0,3.51,0,5.27,0,1.76,.19,3.51,.39,5.27,.58,8.57,1.71,11.77,6.47,8.67,12.94-.08,.16-.67,.17-1.02,.25-2.8-1.27-5.6-2.53-8.41-3.8-2.51-.18-5.02-.37-7.53-.55-5.13-.47-8.6,1.53-11.45,4.47-4.14,3.76-4.14,10.17,0,13.93,2.63,3.26,6.88,4.37,11.45,5.05,2.51-.38,5.02-.75,7.53-1.13,2.8-1.27,5.61-2.53,8.41-3.8Z"/>
    <path class="cls-2" d="M221.35,251.46c0-3.08,0-6.15,0-9.23,1.4-6.56,6.69-10.95,13.7-14.38,.23-.02,.46-.06,.69-.1,3.77-.58,7.53-1.17,11.3-1.75,1.76,0,3.51,0,5.27,0,1.76,.19,3.52,.39,5.27,.58,8.56,1.71,11.77,6.48,8.67,12.94-.08,.16-.67,.17-1.02,.25-2.8-1.27-5.6-2.53-8.41-3.8-2.51-.18-5.02-.37-7.53-.55-5.13-.47-8.6,1.53-11.45,4.47-4.14,3.76-4.14,10.17,0,13.93,2.63,3.26,6.88,4.37,11.45,5.05,2.51-.38,5.02-.75,7.53-1.13,2.8-1.27,5.61-2.53,8.41-3.8,.42,.26,1.14,.48,1.2,.78,.18,.84,.09,1.7,.09,2.56q0,7.44-9.03,10.16c-1.73,.28-3.46,.56-5.19,.84-1.76,0-3.52,0-5.28,0-3-.44-6.01-.87-9.01-1.31-1.99-.76-3.97-1.52-5.96-2.28-5.51-3.49-9.51-7.7-10.72-13.23Z"/>
  </g>
</svg>