<?xml version="1.0" standalone="no"?>
<!DOCTYPE svg PUBLIC "-//W3C//DTD SVG 20010904//EN"
 "http://www.w3.org/TR/2001/REC-SVG-20010904/DTD/svg10.dtd">
<svg version="1.0" xmlns="http://www.w3.org/2000/svg"
 width="300.000000pt" height="300.000000pt" viewBox="0 0 300.000000 300.000000"
 preserveAspectRatio="xMidYMid meet">

<g transform="translate(0.000000,300.000000) scale(0.100000,-0.100000)"
fill="#000000" stroke="none">
<path d="M289 2955 c-92 -34 -174 -109 -214 -196 l-25 -56 2 -1209 3 -1209 27
-51 c35 -67 124 -147 196 -176 l57 -23 1180 0 1180 0 58 24 c72 29 165 116
196 185 12 26 27 73 32 104 12 75 12 2239 0 2314 -20 120 -93 220 -198 274
l-58 29 -1200 2 c-981 1 -1207 -1 -1236 -12z m2434 -65 c73 -27 130 -79 164
-148 l28 -57 0 -1180 0 -1180 -28 -57 c-32 -64 -80 -111 -146 -142 -46 -21
-47 -21 -1231 -21 l-1185 0 -49 25 c-27 14 -68 46 -91 72 -80 89 -75 0 -75
1303 0 1298 -5 1213 72 1300 38 44 93 79 148 96 14 4 546 8 1182 8 1135 1
1158 1 1211 -19z"/>
<path d="M1340 2786 c0 -2 16 -49 35 -105 19 -55 35 -105 35 -111 0 -6 -37
-10 -100 -10 l-100 0 0 -155 0 -155 100 0 c55 0 100 -4 100 -8 0 -5 -15 -53
-34 -108 -28 -80 -38 -100 -57 -106 -13 -4 -64 -19 -114 -34 -159 -47 -237
-97 -255 -164 -13 -47 -12 -50 114 -344 91 -213 106 -256 106 -303 0 -42 -4
-55 -17 -59 -87 -25 -137 -84 -130 -152 4 -38 2 -45 -24 -63 -104 -74 -63
-227 66 -251 18 -3 21 -16 32 -118 6 -63 15 -163 18 -222 l7 -108 392 0 392 0
12 188 c17 246 18 251 65 267 64 22 107 75 107 130 0 41 -30 96 -63 114 -25
14 -28 20 -24 52 9 73 -56 159 -120 159 -21 0 -23 4 -23 63 0 57 10 84 110
320 119 280 126 310 88 368 -28 41 -139 98 -254 130 -126 34 -116 26 -157 143
l-36 106 104 0 105 0 0 155 0 155 -98 0 c-54 0 -101 3 -105 6 -3 3 10 48 29
100 19 52 34 102 34 109 0 13 -28 15 -170 15 -93 0 -170 -2 -170 -4z"/>
<path d="M1807 2741 c-9 -27 -17 -51 -17 -55 0 -3 36 -6 80 -6 l80 0 0 -275 0
-275 -62 0 -63 -1 76 -28 c184 -69 262 -128 296 -226 23 -69 13 -134 -40 -258
-26 -60 -47 -113 -47 -118 0 -5 147 -9 345 -9 l345 0 0 580 c0 468 -3 587 -14
613 -17 42 -66 83 -114 97 -23 6 -194 10 -442 10 l-405 0 -18 -49z"/>
<path d="M220 928 c0 -350 4 -567 10 -590 14 -48 55 -97 97 -114 25 -11 104
-14 348 -14 l315 0 0 69 c0 128 -19 275 -37 286 -147 90 -186 260 -89 388 14
18 30 55 36 82 16 73 70 144 138 181 1 1 -23 60 -54 133 l-56 131 -354 0 -354
0 0 -552z"/>
</g>
</svg>
