<?xml version="1.0" encoding="UTF-8"?>
<svg version="1.1" xmlns="http://www.w3.org/2000/svg" width="840" height="859">
<path d="M0 0 C6.66159237 5.60151981 9.71454005 12.75103855 11.75 21.0625 C12.34398699 28.04184718 11.98526232 34.78144405 10.875 41.6875 C10.74955811 42.48260986 10.62411621 43.27771973 10.49487305 44.09692383 C8.77380058 54.25174174 5.89165563 64.12684103 3 74 C17.40691482 63.61655942 24.36667646 49.09158935 32.28125 33.59375 C32.84626221 32.49168213 33.41127441 31.38961426 33.9934082 30.25415039 C35.09535523 28.09678617 36.18815734 25.93471802 37.27026367 23.76733398 C42.86044069 12.78634682 50.67864552 0.10711816 63 -4 C71.06476291 -4.70581139 78.57085858 -3.95561722 86.4375 -2.25 C87.18201416 -2.09313721 87.92652832 -1.93627441 88.69360352 -1.7746582 C93.72409305 -0.59867764 97.69213718 1.12439054 102 4 C103.0625 6.625 103.0625 6.625 103 9 C100.48434881 11.51565119 98.83885203 11.56599884 95.375 12.25 C89.33938458 13.70488582 85.47218077 15.7367109 81 20 C80.40316406 20.56847656 79.80632812 21.13695312 79.19140625 21.72265625 C72.96927887 28.22937158 68.19497937 35.89222197 63.17578125 43.328125 C51.66379798 60.34792305 39.2207994 76.57851573 20 85 C21.9429838 86.48098543 23.88055477 87.92238478 25.9296875 89.25390625 C37.71879676 97.18433115 40.26254764 110.29363051 43.625 123.26171875 C43.922854 124.39738281 44.22070801 125.53304687 44.52758789 126.703125 C45.12152443 128.97751788 45.70455705 131.25479416 46.27514648 133.53515625 C49.73414339 147.10974459 49.73414339 147.10974459 59 157 C62.7807054 158.8903527 67.00035381 157.93325078 71 157 C73.80882468 155.59558766 76.36425809 154.02878214 78.96875 152.27734375 C81 151 81 151 83 151 C83.10957031 150.28199219 83.21914063 149.56398438 83.33203125 148.82421875 C83.49058594 147.78910156 83.64914062 146.75398437 83.8125 145.6875 C84.07933594 143.91246094 84.07933594 143.91246094 84.3515625 142.1015625 C84.79926811 139.19076086 85.30434966 136.29504877 85.8359375 133.3984375 C87.42992912 124.45644461 88.32379466 116.8308965 86.8359375 107.78515625 C87 105 87 105 89.23828125 102.72265625 C98.50535729 96.94220288 111.45669615 95.37447225 122.25 96.125 C126 97 126 97 128.5625 98.375 C130.91654616 102.67369299 130.29752146 107.20659873 130 112 C130.40089844 111.48050781 130.80179687 110.96101563 131.21484375 110.42578125 C135.55055487 105.10691568 139.82189809 101.9317673 146 99 C146.66 98.67 147.32 98.34 148 98 C149.93359586 97.85148156 151.87342097 97.77869167 153.8125 97.75 C154.85019531 97.72421875 155.88789063 97.6984375 156.95703125 97.671875 C161.14308275 98.12325924 163.70593811 99.7983711 166.75 102.625 C169.63688364 108.11007891 169.47495047 114.2527312 167.72265625 120.08984375 C165.38508969 126.26860078 162.35418808 130.12675756 157 134 C152.27137323 135.57620892 146.6973124 136.32393541 142.08203125 134.05859375 C138.8683069 131.52728988 137.11523187 128.90331155 136 125 C121.49959385 138.26900251 117.12260519 162.00724712 115.02416992 180.69238281 C114.32357278 186.51972366 114.32357278 186.51972366 112.85766602 188.69555664 C110.14574752 190.59985162 107.82634251 190.57323523 104.5390625 190.80078125 C103.26289063 190.89037109 101.98671875 190.97996094 100.671875 191.07226562 C100.00736328 191.11134033 99.34285156 191.15041504 98.65820312 191.19067383 C96.63753031 191.3117492 94.62015884 191.45985951 92.6015625 191.61132812 C81.41897724 192.33842162 81.41897724 192.33842162 77 190 C74.52441188 185.04882376 76.20114524 178.24327689 77 173 C76.39414062 173.65226563 75.78828125 174.30453125 75.1640625 174.9765625 C66.43744074 184.07910028 57.41184804 190.79210472 44.5546875 191.9609375 C34.90348679 192.10850938 26.32781877 189.73583891 19.06640625 183.28125 C4.58534646 168.08392274 5.4999304 145.3377809 4.91601562 125.74438477 C4.82993015 122.9970625 4.72792157 120.25064143 4.625 117.50390625 C4.59672119 116.27082481 4.59672119 116.27082481 4.56787109 115.01283264 C4.35325112 109.39623791 3.4893549 104.09693382 1 99 C-1.49417159 96.89643143 -1.49417159 96.89643143 -4 96 C-4.10666992 96.58628174 -4.21333984 97.17256348 -4.32324219 97.77661133 C-5.40266763 103.45806144 -6.78001874 108.98556504 -8.36035156 114.546875 C-14.5402176 136.36295533 -19.02790615 158.54995981 -20.97558594 181.15625 C-21.11722168 182.66638672 -21.11722168 182.66638672 -21.26171875 184.20703125 C-21.33350342 185.0885083 -21.40528809 185.96998535 -21.47924805 186.87817383 C-22 189 -22 189 -25 191 C-27.69975387 191.3334438 -30.31695419 191.56143864 -33.02734375 191.703125 C-34.20533287 191.77258331 -34.20533287 191.77258331 -35.40711975 191.84344482 C-37.06697467 191.93860867 -38.72710366 192.02909109 -40.38745117 192.11523438 C-42.92541534 192.24936135 -45.46144103 192.40496213 -47.99804688 192.5625 C-49.61190712 192.65234527 -51.2258382 192.74092895 -52.83984375 192.828125 C-53.5972435 192.87592102 -54.35464325 192.92371704 -55.13499451 192.97296143 C-61.86633003 193.29247251 -61.86633003 193.29247251 -65 191 C-68.02545684 184.94908631 -65.56448153 176.48582702 -64.15234375 170.21484375 C-63.93674301 169.24256332 -63.72114227 168.2702829 -63.49900818 167.26853943 C-60.06183966 152.34188741 -55.58307433 137.67128459 -51.27160645 122.97961426 C-49.17236068 115.82396518 -47.08353456 108.66528057 -45.00390625 101.50390625 C-44.78172739 100.73889927 -44.55954853 99.97389229 -44.33063698 99.18570328 C-33.15834088 61.8516699 -33.15834088 61.8516699 -28.75 23.3125 C-28.72421875 22.05050781 -28.6984375 20.78851563 -28.671875 19.48828125 C-29.02515046 15.73262668 -29.65868391 13.92664511 -32 11 C-36.30637669 8.07591706 -40.99859025 8.44428781 -46 9 C-58.81920802 11.99852747 -68.79233096 22.4876827 -76 33 C-82.2493126 43.66273765 -87.64167451 55.35466932 -86 68 C-84.50552649 72.10980216 -83.00205779 75.05305297 -79 77 C-73.54869968 77.36342002 -68.39693658 76.77099094 -63 76 C-61.48981093 80.40975207 -62.72960042 83.12934705 -64.51953125 87.27734375 C-69.77481346 96.9420712 -78.76595499 104.2495558 -89 108.140625 C-99.08482155 111.02950617 -108.00334905 110.40572149 -117.1875 105.375 C-125.40290569 100.11918145 -128.77145667 93.28200073 -131.5546875 84.1875 C-134.98270974 67.3480925 -129.03721537 49.27342453 -119.88183594 35.29248047 C-103.54757244 11.54036336 -77.77416193 -2.3005346 -50 -8 C-33.02463603 -10.93193855 -14.70277985 -9.63436243 0 0 Z " fill="#F4750F" transform="translate(205,238)"/>
<path d="M0 0 C2.0978414 9.28781282 -1.51786731 19.41423533 -3.9375 28.375 C-4.50122974 30.51431931 -5.0608244 32.65466967 -5.61854553 34.79556274 C-6.12274708 36.72280805 -6.63710947 38.64738683 -7.15209961 40.57177734 C-8.44076028 45.78207771 -9.1676568 50.75896835 -9.25 56.125 C-9.28867187 57.64480469 -9.28867187 57.64480469 -9.328125 59.1953125 C-8.9503158 62.42468161 -8.33650306 63.75779527 -6 66 C-2.08087798 67.21193733 1.66761048 66.57977541 5.37890625 64.96484375 C14.76857477 59.26113648 19.08720491 50.29280957 22 40 C24.4255015 29.98102504 24.99427225 19.38427444 23.40625 9.1875 C23 6 23 6 24.3125 3.8125 C34.47382323 -3.04048544 48.9749002 -5.42107332 61.06640625 -3.5859375 C63 -3 63 -3 65.6875 -1.0625 C68.91462037 6.46744754 65.16264334 16.39734759 63.44772339 24.05639648 C60.28339201 38.23474065 57.58657846 52.48042658 55.01754761 66.7774353 C43.58405697 130.29836498 43.58405697 130.29836498 29 152 C28.54367187 152.71929687 28.08734375 153.43859375 27.6171875 154.1796875 C20.34334176 164.86184953 8.73549295 172.63273779 -3.78491211 175.60083008 C-16.1521407 177.82946655 -30.31063806 176.94445175 -41.3203125 170.6796875 C-48.97482239 165.35354564 -55.33786062 158.20725982 -57.46484375 148.984375 C-59.09132019 138.82346603 -56.68974615 129.44735318 -51 121 C-50.4225 120.113125 -49.845 119.22625 -49.25 118.3125 C-43.19234814 112.08658004 -37.67645289 109.27544295 -29 109 C-27.80311189 113.18910837 -28.40097087 115.04945744 -30 119 C-30.47264917 124.19914091 -30.12270346 127.74176801 -27 132 C-21.94884152 135.25653531 -17.0188563 136.76603626 -11 136 C-3.85848258 134.09468153 0.87686908 131.01407405 4.9375 124.75 C13.08956436 110.3271169 19 91.61088568 19 75 C18.13375 75.845625 17.2675 76.69125 16.375 77.5625 C4.26318353 87.8881294 -12.8837319 92.88597406 -28.66015625 91.8203125 C-35.83727953 90.73320573 -42.02994618 87.68598565 -46.63671875 81.96875 C-53.43706015 71.52467266 -51.15915809 60.51598642 -48.78344727 48.91699219 C-47.3079523 42.02321248 -45.55426255 35.20988875 -43.57543945 28.44335938 C-41.70939047 21.81958094 -41.64367356 15.85061148 -42.5 9 C-42.5928125 8.236875 -42.685625 7.47375 -42.78125 6.6875 C-42.8534375 6.130625 -42.925625 5.57375 -43 5 C-33.66576084 -2.84924657 -10.20672213 -9.56929183 0 0 Z " fill="#F4750F" transform="translate(694,338)"/>
<path d="M0 0 C2.19656386 3.66093977 2.32022371 7.29323471 2.5 11.5 C3.02207031 11.05269531 3.54414062 10.60539062 4.08203125 10.14453125 C14.91160766 1.24948512 26.42409057 -3.05448858 40.62109375 -2.34375 C49.21409277 -1.10426054 55.78240473 2.69287053 61.18359375 9.4921875 C67.82678935 19.62453925 68.18702391 30.20292005 66.2890625 41.84375 C62.31256629 60.26949483 52.82784579 75.11758435 37.23828125 85.8125 C26.20904929 92.60940186 12.97036273 94.96252725 0.23828125 92.34375 C-4.26192905 90.95709461 -9.11463891 88.88536109 -12.5 85.5 C-19.38719972 113.7799231 -19.38719972 113.7799231 -22 142.6875 C-22.02767456 143.91654053 -22.02767456 143.91654053 -22.0559082 145.17041016 C-22.01477384 149.02400798 -21.74189342 151.08672021 -19.7578125 154.4765625 C-17.32851645 156.65368249 -16.05959809 157.23483974 -12.875 157.6875 C-8.67808219 158.32191781 -8.67808219 158.32191781 -6.5 160.5 C-6.69204937 163.45275904 -7.15279744 165.07396828 -9.03125 167.37890625 C-19.13960831 176.0231571 -29.88830973 179.01813561 -43.0859375 178.8203125 C-49.77957687 178.19230514 -55.79507986 175.33934642 -60.5 170.5 C-68.22870052 158.7628548 -65.39098895 143.65216191 -62.95703125 130.58496094 C-61.34006148 122.84255952 -59.41852006 115.17212156 -57.5 107.5 C-55.9917691 101.46035824 -54.49003642 95.41915827 -53 89.375 C-52.80751678 88.59540924 -52.61503357 87.81581848 -52.41671753 87.01260376 C-49.61725297 75.62756559 -47.13307257 64.21616884 -45 52.6875 C-44.87616943 52.01950378 -44.75233887 51.35150757 -44.62475586 50.66326904 C-42.85174607 41.0264993 -41.3220499 31.68841803 -41.375 21.875 C-41.37113281 21.15054687 -41.36726562 20.42609375 -41.36328125 19.6796875 C-41.36930426 16.35498344 -41.51471759 13.42519284 -42.16015625 10.14453125 C-42.27230469 9.27183594 -42.38445313 8.39914062 -42.5 7.5 C-36.58298573 0.97611247 -28.55805795 -0.86631501 -20.0625 -1.75 C-18.94935425 -1.87012451 -18.94935425 -1.87012451 -17.8137207 -1.99267578 C-5.35541416 -3.2132485 -5.35541416 -3.2132485 0 0 Z M3.8125 25.9375 C-3.04265969 38.10136921 -9.05994761 58.51874766 -6.5 72.5 C-4.72632043 75.85801159 -4.72632043 75.85801159 -1.5 77.5 C3.66169258 78.24927796 7.34051181 77.89140247 11.84375 74.93359375 C23.52917603 64.81908584 26.18488127 46.08895956 27.5 31.5 C27.7190058 26.12791659 27.42351039 22.85810352 24.375 18.375 C16.07475554 12.96179709 8.7340599 18.88686403 3.8125 25.9375 Z " fill="#F4750F" transform="translate(568.5,336.5)"/>
<path d="M0 0 C4.13066193 3.5295261 6.14470101 6.49671434 6.74609375 12.0234375 C6.94271139 16.84950696 6.83444683 20.31727042 4.8125 24.75 C1.57341667 28.07432237 -1.01422016 30.03892538 -5.7734375 30.31640625 C-9.83033123 30.09401839 -12.18274008 29.43550648 -15.625 27.1875 C-19.28389981 21.52210675 -17.67621181 15.55156747 -16.5625 9.1875 C-17.71995487 7.81752255 -17.71995487 7.81752255 -20.875 7.875 C-24.50117141 7.91400808 -24.50117141 7.91400808 -27 9.625 C-29.34001703 13.46262793 -29.28945475 16.8104672 -28.5625 21.1875 C-25.38009314 28.10577579 -18.58952514 32.06974814 -12.51953125 36.31640625 C-5.02517165 41.66952025 0.7595439 46.52439818 3.4375 55.5625 C3.4375 65.99365414 0.76393535 73.06628241 -6.0546875 80.90234375 C-15.1251631 89.769749 -28.40717042 91.45117057 -40.4765625 91.43408203 C-52.66947432 91.25520692 -63.82297596 88.67270237 -72.83984375 79.99609375 C-73.69255859 79.10083984 -73.69255859 79.10083984 -74.5625 78.1875 C-75.0471875 78.57421875 -75.531875 78.9609375 -76.03125 79.359375 C-87.13095292 87.98299034 -98.85049585 92.27106452 -113 90.625 C-120.76696643 89.26237431 -127.46013613 86.17030049 -132.5625 80 C-138.2644059 70.66591916 -136.81114008 59.38969962 -134.5625 49.1875 C-133.1130717 43.76937767 -131.52442772 38.38976331 -129.95581055 33.00512695 C-127.78781011 25.16151091 -126.92286872 18.08613266 -127.64599609 9.97338867 C-127.91231156 6.36010234 -127.9822997 4.67644318 -125.5703125 1.8671875 C-118.53264827 -2.06293668 -111.99943156 -3.42269445 -104 -4.125 C-103.09314453 -4.22361328 -102.18628906 -4.32222656 -101.25195312 -4.42382812 C-95.83242196 -4.93080385 -91.6291368 -4.90972811 -86.5625 -2.8125 C-83.31013122 2.06605316 -84.11007557 6.91174034 -85.21044922 12.44677734 C-86.08847928 16.10498317 -87.02911604 19.74036003 -88 23.375 C-88.64651955 25.84713712 -89.29112027 28.31977703 -89.93359375 30.79296875 C-90.22161865 31.87731201 -90.50964355 32.96165527 -90.80639648 34.07885742 C-92.24590994 39.99727034 -92.82098874 45.68611837 -92.9375 51.75 C-92.97488281 52.49185547 -93.01226562 53.23371094 -93.05078125 53.99804688 C-93.11787117 58.18371268 -92.90151386 59.74337452 -90.26953125 63.19140625 C-86.80861466 65.74339525 -84.7709286 65.66392588 -80.5625 65.1875 C-78.38165934 64.38703459 -78.38165934 64.38703459 -77.88671875 62.26171875 C-77.67660156 61.47410156 -77.46648437 60.68648438 -77.25 59.875 C-75.9201178 55.60716374 -74.45961968 53.58572749 -70.5625 51.1875 C-66.87563877 49.34406938 -62.59552333 49.8318318 -58.5625 50.1875 C-54.60715683 51.83555965 -53.19288247 53.31787855 -51.5625 57.1875 C-51.1526204 59.00918709 -50.80122241 60.84472758 -50.5 62.6875 C-49.96328483 65.91666236 -49.35817821 69.00478717 -48.5625 72.1875 C-45.5925 72.1875 -42.6225 72.1875 -39.5625 72.1875 C-37.11251876 67.28753751 -36.99880764 64.38828896 -38.5625 59.1875 C-42.19295784 53.0844712 -48.38747654 48.62455757 -53.85449219 44.21923828 C-61.08553939 38.33122423 -65.90298735 32.23303267 -66.9375 22.75 C-66.04883045 14.30763924 -63.25605134 7.64107957 -56.5625 2.1875 C-40.85797459 -7.04684284 -15.95275811 -11.01087109 0 0 Z " fill="#F4750F" transform="translate(508.5625,338.8125)"/>
<path d="M0 0 C6.66159237 5.60151981 9.71454005 12.75103855 11.75 21.0625 C12.34398699 28.04184718 11.98526232 34.78144405 10.875 41.6875 C10.74955811 42.48260986 10.62411621 43.27771973 10.49487305 44.09692383 C8.77380058 54.25174174 5.89165563 64.12684103 3 74 C17.40691482 63.61655942 24.36667646 49.09158935 32.28125 33.59375 C32.84626221 32.49168213 33.41127441 31.38961426 33.9934082 30.25415039 C35.09535523 28.09678617 36.18815734 25.93471802 37.27026367 23.76733398 C42.86044069 12.78634682 50.67864552 0.10711816 63 -4 C71.06476291 -4.70581139 78.57085858 -3.95561722 86.4375 -2.25 C87.18201416 -2.09313721 87.92652832 -1.93627441 88.69360352 -1.7746582 C93.72409305 -0.59867764 97.69213718 1.12439054 102 4 C103.0625 6.625 103.0625 6.625 103 9 C100.48434881 11.51565119 98.83885203 11.56599884 95.375 12.25 C89.33938458 13.70488582 85.47218077 15.7367109 81 20 C80.40316406 20.56847656 79.80632812 21.13695312 79.19140625 21.72265625 C72.96927887 28.22937158 68.19497937 35.89222197 63.17578125 43.328125 C51.66379798 60.34792305 39.2207994 76.57851573 20 85 C21.9429838 86.48098543 23.88055477 87.92238478 25.9296875 89.25390625 C37.71879676 97.18433115 40.26254764 110.29363051 43.625 123.26171875 C43.922854 124.39738281 44.22070801 125.53304687 44.52758789 126.703125 C45.12152443 128.97751788 45.70455705 131.25479416 46.27514648 133.53515625 C49.73414339 147.10974459 49.73414339 147.10974459 59 157 C62.7807054 158.8903527 67.00035381 157.93325078 71 157 C73.80882468 155.59558766 76.36425809 154.02878214 78.96875 152.27734375 C81 151 81 151 83 151 C83.10957031 150.28199219 83.21914063 149.56398438 83.33203125 148.82421875 C83.49058594 147.78910156 83.64914062 146.75398437 83.8125 145.6875 C84.07933594 143.91246094 84.07933594 143.91246094 84.3515625 142.1015625 C84.79926811 139.19076086 85.30434966 136.29504877 85.8359375 133.3984375 C87.42992912 124.45644461 88.32379466 116.8308965 86.8359375 107.78515625 C87 105 87 105 89.23828125 102.72265625 C98.50535729 96.94220288 111.45669615 95.37447225 122.25 96.125 C126 97 126 97 128.5625 98.375 C130.91654616 102.67369299 130.29752146 107.20659873 130 112 C130.40089844 111.48050781 130.80179687 110.96101563 131.21484375 110.42578125 C135.55055487 105.10691568 139.82189809 101.9317673 146 99 C146.66 98.67 147.32 98.34 148 98 C149.93359586 97.85148156 151.87342097 97.77869167 153.8125 97.75 C154.85019531 97.72421875 155.88789063 97.6984375 156.95703125 97.671875 C161.14308275 98.12325924 163.70593811 99.7983711 166.75 102.625 C169.63688364 108.11007891 169.47495047 114.2527312 167.72265625 120.08984375 C165.38508969 126.26860078 162.35418808 130.12675756 157 134 C152.27137323 135.57620892 146.6973124 136.32393541 142.08203125 134.05859375 C138.8683069 131.52728988 137.11523187 128.90331155 136 125 C121.49959385 138.26900251 117.12260519 162.00724712 115.02416992 180.69238281 C114.32357278 186.51972366 114.32357278 186.51972366 112.85766602 188.69555664 C110.14574752 190.59985162 107.82634251 190.57323523 104.5390625 190.80078125 C103.26289063 190.89037109 101.98671875 190.97996094 100.671875 191.07226562 C100.00736328 191.11134033 99.34285156 191.15041504 98.65820312 191.19067383 C96.63753031 191.3117492 94.62015884 191.45985951 92.6015625 191.61132812 C81.41897724 192.33842162 81.41897724 192.33842162 77 190 C74.52441188 185.04882376 76.20114524 178.24327689 77 173 C76.39414062 173.65226563 75.78828125 174.30453125 75.1640625 174.9765625 C66.43744074 184.07910028 57.41184804 190.79210472 44.5546875 191.9609375 C34.90348679 192.10850938 26.32781877 189.73583891 19.06640625 183.28125 C4.58534646 168.08392274 5.4999304 145.3377809 4.91601562 125.74438477 C4.82993015 122.9970625 4.72792157 120.25064143 4.625 117.50390625 C4.59672119 116.27082481 4.59672119 116.27082481 4.56787109 115.01283264 C4.35325112 109.39623791 3.4893549 104.09693382 1 99 C-1.49417159 96.89643143 -1.49417159 96.89643143 -4 96 C-4.10666992 96.58628174 -4.21333984 97.17256348 -4.32324219 97.77661133 C-5.40266763 103.45806144 -6.78001874 108.98556504 -8.36035156 114.546875 C-14.5402176 136.36295533 -19.02790615 158.54995981 -20.97558594 181.15625 C-21.11722168 182.66638672 -21.11722168 182.66638672 -21.26171875 184.20703125 C-21.33350342 185.0885083 -21.40528809 185.96998535 -21.47924805 186.87817383 C-22 189 -22 189 -25 191 C-27.69975387 191.3334438 -30.31695419 191.56143864 -33.02734375 191.703125 C-34.20533287 191.77258331 -34.20533287 191.77258331 -35.40711975 191.84344482 C-37.06697467 191.93860867 -38.72710366 192.02909109 -40.38745117 192.11523438 C-42.92541534 192.24936135 -45.46144103 192.40496213 -47.99804688 192.5625 C-49.61190712 192.65234527 -51.2258382 192.74092895 -52.83984375 192.828125 C-53.5972435 192.87592102 -54.35464325 192.92371704 -55.13499451 192.97296143 C-61.86633003 193.29247251 -61.86633003 193.29247251 -65 191 C-68.02545684 184.94908631 -65.56448153 176.48582702 -64.15234375 170.21484375 C-63.93674301 169.24256332 -63.72114227 168.2702829 -63.49900818 167.26853943 C-60.06183966 152.34188741 -55.58307433 137.67128459 -51.27160645 122.97961426 C-49.17236068 115.82396518 -47.08353456 108.66528057 -45.00390625 101.50390625 C-44.78172739 100.73889927 -44.55954853 99.97389229 -44.33063698 99.18570328 C-33.15834088 61.8516699 -33.15834088 61.8516699 -28.75 23.3125 C-28.72421875 22.05050781 -28.6984375 20.78851563 -28.671875 19.48828125 C-29.02515046 15.73262668 -29.65868391 13.92664511 -32 11 C-36.30637669 8.07591706 -40.99859025 8.44428781 -46 9 C-58.81920802 11.99852747 -68.79233096 22.4876827 -76 33 C-82.2493126 43.66273765 -87.64167451 55.35466932 -86 68 C-84.50552649 72.10980216 -83.00205779 75.05305297 -79 77 C-73.54869968 77.36342002 -68.39693658 76.77099094 -63 76 C-61.48981093 80.40975207 -62.72960042 83.12934705 -64.51953125 87.27734375 C-69.77481346 96.9420712 -78.76595499 104.2495558 -89 108.140625 C-99.08482155 111.02950617 -108.00334905 110.40572149 -117.1875 105.375 C-125.40290569 100.11918145 -128.77145667 93.28200073 -131.5546875 84.1875 C-134.98270974 67.3480925 -129.03721537 49.27342453 -119.88183594 35.29248047 C-103.54757244 11.54036336 -77.77416193 -2.3005346 -50 -8 C-33.02463603 -10.93193855 -14.70277985 -9.63436243 0 0 Z M-102 19 C-102.73992187 19.5878125 -103.47984375 20.175625 -104.2421875 20.78125 C-118.70694025 32.59329722 -126.98805513 49.8017025 -130 68 C-131.08838532 79.02897121 -129.39167791 88.85563911 -122.8515625 97.95703125 C-117.48080921 103.88298899 -110.5498457 106.81106184 -102.72265625 107.87890625 C-92.32771523 108.34123505 -83.1136863 103.83264191 -75.25 97.3125 C-70.45791821 92.81832738 -65.21848928 87.01684146 -64.84765625 80.19921875 C-64.89792969 79.47347656 -64.94820313 78.74773437 -65 78 C-65.61875 78.165 -66.2375 78.33 -66.875 78.5 C-77.5491793 80.20786869 -77.5491793 80.20786869 -81.91015625 78.05859375 C-85.97441365 74.87309471 -87.69032673 71.41617164 -88.3359375 66.37890625 C-88.57937354 48.82716758 -81.03952146 33.61733235 -69.21533203 21.06616211 C-61.08232502 12.8250706 -52.58985228 7.02416906 -40.875 6.5625 C-35.59284683 6.70255709 -32.83947199 7.36260549 -29 11 C-22.16186141 21.25720789 -28.19828808 41.55124313 -30.33834839 52.70333862 C-31.34406194 57.71427939 -32.49282816 62.68439458 -33.69140625 67.65234375 C-34.07814766 69.25764198 -34.07814766 69.25764198 -34.47270203 70.89537048 C-37.16484563 81.91048113 -40.22060482 92.81482936 -43.35046387 103.71234131 C-44.33932473 107.15591344 -45.32133148 110.60138088 -46.30175781 114.04736328 C-48.69864736 122.467223 -51.10646229 130.8839406 -53.51904297 139.29931641 C-54.5818881 143.0070283 -55.63991329 146.71608018 -56.69418335 150.42623901 C-57.22412639 152.28428397 -57.76093627 154.14036633 -58.2980957 155.99633789 C-64.10303186 173.10268537 -64.10303186 173.10268537 -63 190 C-58.48546244 191.11552548 -54.31921916 190.99945536 -49.703125 190.6953125 C-49.02828064 190.65187714 -48.35343628 190.60844177 -47.65814209 190.56369019 C-46.24274004 190.4710641 -44.82755424 190.37507774 -43.41259766 190.27587891 C-41.24299575 190.12451133 -39.07285497 189.9853032 -36.90234375 189.84765625 C-30.2466821 189.75391479 -30.2466821 189.75391479 -24 188 C-23.46871431 185.28925669 -23.46871431 185.28925669 -23.2109375 181.94921875 C-23.07840576 180.64847412 -22.94587402 179.34772949 -22.80932617 178.00756836 C-22.73958588 177.30534149 -22.66984558 176.60311462 -22.59799194 175.87960815 C-19.79372795 148.31246881 -13.34079232 121.39671205 -5 95 C-2.63671875 94.87109375 -2.63671875 94.87109375 0 95 C5.43715198 100.12645758 6.18278953 106.69006277 6.45457458 113.78623962 C6.49059532 115.03480492 6.49059532 115.03480492 6.52734375 116.30859375 C6.59817004 118.12695848 6.66913829 119.94531768 6.74023438 121.76367188 C6.84033559 124.58672112 6.93659433 127.40984447 7.02905273 130.2331543 C7.69862355 157.39879489 7.69862355 157.39879489 19.80078125 181.09765625 C27.68044457 188.20857193 35.88305497 189.4830843 46.171875 189.2734375 C58.12222783 188.41984087 66.7162167 180.83121112 74.4921875 172.28515625 C76 171 76 171 79 171 C78.91621094 172.13179687 78.83242188 173.26359375 78.74609375 174.4296875 C78.64293392 175.91143781 78.54008547 177.39320982 78.4375 178.875 C78.38142578 179.62136719 78.32535156 180.36773437 78.26757812 181.13671875 C77.86611075 185.19061542 77.86611075 185.19061542 79 189 C94.54797884 189.34662325 94.54797884 189.34662325 110 188 C113.02005526 184.97994474 112.75652578 181.2658628 113.25 177.1875 C115.7365589 159.12429691 120.30373104 137.90421357 133 124 C135.75 123.1875 135.75 123.1875 138 123 C138.4125 124.093125 138.825 125.18625 139.25 126.3125 C140.66861978 129.54198466 141.67935713 131.47429922 145 133 C151.42276617 133.73703874 154.75088752 132.73494542 160 129 C165.17665162 123.54352937 167.08929042 117.44937221 167 110 C166.20903933 106.29459867 164.72907026 103.68488419 161.9375 101.0625 C156.92644162 99.24998952 151.88387853 99.05396577 146.78515625 100.7265625 C141.01761402 103.4498166 136.35395226 106.94972944 132.8125 112.3125 C132.214375 113.199375 131.61625 114.08625 131 115 C130.01 115 129.02 115 128 115 C128.05220703 113.64455078 128.05220703 113.64455078 128.10546875 112.26171875 C128.13253906 111.08222656 128.15960938 109.90273438 128.1875 108.6875 C128.23970703 106.92986328 128.23970703 106.92986328 128.29296875 105.13671875 C128.22984487 102.0986184 128.22984487 102.0986184 126.92578125 100.14453125 C119.8306129 95.92772734 109.71373013 98.4606959 102 100 C94.89667895 101.8949424 94.89667895 101.8949424 89 106 C89.10136221 108.72315646 89.10136221 108.72315646 89.5625 111.9375 C90.31037018 120.50721246 89.02953009 128.36923546 87.39990234 136.77587891 C87.03779727 138.78978441 86.78759163 140.82301793 86.55078125 142.85546875 C85.82072786 147.9307999 85.27881292 150.91227407 81.28125 154.3125 C74.46422996 158.41594896 68.07347073 161.06394576 60 160 C53.3974959 156.96284811 49.45112347 150.82410228 46.92431641 144.1652832 C45.99467459 141.08436458 45.16533017 137.99449923 44.375 134.875 C44.07996582 133.77349609 43.78493164 132.67199219 43.48095703 131.53710938 C42.22270096 126.81986096 41.01732613 122.09051395 39.84375 117.3515625 C38.05151278 110.22597421 36.10493375 104.13057099 32 98 C31.195625 96.6696875 31.195625 96.6696875 30.375 95.3125 C26.52951093 91.56820801 21.76819728 89.39231967 17 87 C17 86.01 17 85.02 17 84 C17.87140625 83.62230469 18.7428125 83.24460937 19.640625 82.85546875 C36.22543321 75.19127708 47.67247142 62.27230517 57.875 47.3125 C59.09346316 45.55318673 60.31221474 43.79407317 61.53125 42.03515625 C63.18242298 39.64014249 64.83211884 37.24412535 66.48046875 34.84716797 C81.64988397 12.85912233 81.64988397 12.85912233 95.9375 9.875 C96.68902344 9.74867188 97.44054687 9.62234375 98.21484375 9.4921875 C98.80394531 9.32976562 99.39304687 9.16734375 100 9 C100.33 8.34 100.66 7.68 101 7 C94.70100973 -0.27284731 81.99327382 -1.49802529 72.921875 -2.2578125 C64.7757254 -2.56482819 59.62508318 -1.0945832 53.4375 4.1875 C46.43460045 12.26776871 41.31917681 20.63832617 36.5625 30.1875 C17.40318502 68.32099163 17.40318502 68.32099163 6 75 C4.68 75 3.36 75 2 75 C2.57691901 68.53721059 3.75257856 62.56824499 5.4375 56.3125 C9.48419999 40.58905154 13.22549531 24.06676488 5 9 C0.25924701 1.09349501 -7.81605888 -2.39845721 -16.36328125 -5.0390625 C-45.85087506 -12.18554616 -79.76641803 -1.01842805 -102 19 Z " fill="#F0630E" transform="translate(205,238)"/>
<path d="M0 0 C8.75398308 5.14940181 14.69654103 11.43475943 17.375 21.4375 C18.75794327 31.73218958 18.01762672 40.96668866 11.8671875 49.5390625 C7.15454545 55.39150635 0.26898501 61.7880146 -7.51928711 62.64624023 C-19.55931378 63.20986286 -29.27397473 62.95683993 -38.765625 54.5390625 C-45.49445511 47.38614646 -48.35583655 40.33997057 -48.1875 30.5625 C-48.17871826 29.68134521 -48.16993652 28.80019043 -48.16088867 27.89233398 C-47.89816305 19.51688929 -45.69029694 14.08271798 -40.3125 7.6875 C-28.53951325 -2.16895403 -14.78978589 -7.00273953 0 0 Z M-17.625 26.4375 C-18.90822547 27.4970877 -18.90822547 27.4970877 -18.75 29.9375 C-18.90822547 32.3779123 -18.90822547 32.3779123 -17.625 33.4375 C-15.95882885 33.47813832 -14.29111905 33.480221 -12.625 33.4375 C-11.94541397 31.04030568 -11.94541397 31.04030568 -11.625 28.4375 C-12.285 27.7775 -12.945 27.1175 -13.625 26.4375 C-14.945 26.4375 -16.265 26.4375 -17.625 26.4375 Z " fill="#151515" transform="translate(432.625,257.5625)"/>
<path d="M0 0 C2.0978414 9.28781282 -1.51786731 19.41423533 -3.9375 28.375 C-4.50122974 30.51431931 -5.0608244 32.65466967 -5.61854553 34.79556274 C-6.12274708 36.72280805 -6.63710947 38.64738683 -7.15209961 40.57177734 C-8.44076028 45.78207771 -9.1676568 50.75896835 -9.25 56.125 C-9.28867187 57.64480469 -9.28867187 57.64480469 -9.328125 59.1953125 C-8.9503158 62.42468161 -8.33650306 63.75779527 -6 66 C-2.08087798 67.21193733 1.66761048 66.57977541 5.37890625 64.96484375 C14.76857477 59.26113648 19.08720491 50.29280957 22 40 C24.4255015 29.98102504 24.99427225 19.38427444 23.40625 9.1875 C23 6 23 6 24.3125 3.8125 C34.47382323 -3.04048544 48.9749002 -5.42107332 61.06640625 -3.5859375 C63 -3 63 -3 65.6875 -1.0625 C68.91462037 6.46744754 65.16264334 16.39734759 63.44772339 24.05639648 C60.28339201 38.23474065 57.58657846 52.48042658 55.01754761 66.7774353 C43.58405697 130.29836498 43.58405697 130.29836498 29 152 C28.54367187 152.71929687 28.08734375 153.43859375 27.6171875 154.1796875 C20.34334176 164.86184953 8.73549295 172.63273779 -3.78491211 175.60083008 C-16.1521407 177.82946655 -30.31063806 176.94445175 -41.3203125 170.6796875 C-48.97482239 165.35354564 -55.33786062 158.20725982 -57.46484375 148.984375 C-59.09132019 138.82346603 -56.68974615 129.44735318 -51 121 C-50.4225 120.113125 -49.845 119.22625 -49.25 118.3125 C-43.19234814 112.08658004 -37.67645289 109.27544295 -29 109 C-27.80311189 113.18910837 -28.40097087 115.04945744 -30 119 C-30.47264917 124.19914091 -30.12270346 127.74176801 -27 132 C-21.94884152 135.25653531 -17.0188563 136.76603626 -11 136 C-3.85848258 134.09468153 0.87686908 131.01407405 4.9375 124.75 C13.08956436 110.3271169 19 91.61088568 19 75 C18.13375 75.845625 17.2675 76.69125 16.375 77.5625 C4.26318353 87.8881294 -12.8837319 92.88597406 -28.66015625 91.8203125 C-35.83727953 90.73320573 -42.02994618 87.68598565 -46.63671875 81.96875 C-53.43706015 71.52467266 -51.15915809 60.51598642 -48.78344727 48.91699219 C-47.3079523 42.02321248 -45.55426255 35.20988875 -43.57543945 28.44335938 C-41.70939047 21.81958094 -41.64367356 15.85061148 -42.5 9 C-42.5928125 8.236875 -42.685625 7.47375 -42.78125 6.6875 C-42.8534375 6.130625 -42.925625 5.57375 -43 5 C-33.66576084 -2.84924657 -10.20672213 -9.56929183 0 0 Z M-41 6 C-40.835 6.94875 -40.67 7.8975 -40.5 8.875 C-39.06824573 19.59925004 -41.17791435 28.87980843 -43.9375 39.1875 C-44.50147139 41.32991383 -45.06190375 43.47317811 -45.61854553 45.61750793 C-46.12308675 47.55558485 -46.63729817 49.49113685 -47.15209961 51.42651367 C-49.59908795 61.73937526 -50.72944136 71.59988591 -45 81 C-39.62229487 86.44506678 -33.81605172 89.22286848 -26.1262207 89.32983398 C-9.16259838 89.19548739 5.27275938 84.59593035 18 73 C18.99 73 19.98 73 21 73 C20.62298992 91.47349385 15.90083054 118.52845794 2.05078125 131.87890625 C-3.72134487 136.44163452 -9.24142629 138.52062205 -16.625 138.30859375 C-21.50363575 137.67469207 -25.98799552 136.08772508 -29.453125 132.4921875 C-32.46589289 127.93060232 -32.65406428 123.3166082 -32 118 C-31.47580826 115.57894492 -30.80048507 113.35142491 -30 111 C-36.58129863 111.28005526 -41.04619547 113.68685143 -46 118 C-48.39755635 120.81881896 -50.24931399 123.74551959 -52 127 C-52.3403125 127.60328125 -52.680625 128.2065625 -53.03125 128.828125 C-56.41461568 136.0334408 -56.36131539 145.43808089 -54.12109375 152.9453125 C-49.71692823 162.45133312 -42.70007216 168.28419044 -33 172 C-27.26182321 173.70417296 -22.09776319 174.35727813 -16.125 174.3125 C-14.93765259 174.30404053 -14.93765259 174.30404053 -13.72631836 174.29541016 C-7.72081287 174.17089901 -2.52641727 173.47931734 3 171 C3.8765625 170.62101563 4.753125 170.24203125 5.65625 169.8515625 C24.37146663 160.75680835 33.43418095 142.36081311 40.09472656 123.65380859 C46.79458499 104.01317723 49.8665928 83.33771315 53.54974365 62.97354126 C55.0627306 54.61761254 56.63762707 46.27477482 58.25 37.9375 C58.48984619 36.6911377 58.72969238 35.44477539 58.97680664 34.16064453 C60.46923957 26.48631775 62.05891044 18.83958285 63.97167969 11.25756836 C64.870083 7.52007764 65.22983109 4.68284552 64 1 C61.10710521 -1.89289479 57.9129457 -1.80131606 54 -2 C44.4417099 -1.5154346 34.14861359 -0.4370081 26.17578125 5.31640625 C24.7427328 6.96353784 24.7427328 6.96353784 25.296875 9.1953125 C25.52890625 10.12085938 25.7609375 11.04640625 26 12 C26.94722565 29.15935691 25.34383418 47.34868119 13.90625 61.015625 C9.18407177 65.93133512 5.14804332 68.26725573 -1.75 68.625 C-5.45017295 68.67785961 -6.56583493 68.41049678 -9.29296875 65.83203125 C-14.93314297 56.47476281 -9.78787055 42.28708793 -7.37890625 32.4296875 C-6.53614809 29.07396703 -5.66778174 25.72616898 -4.77734375 22.3828125 C-2.86246924 15.14865678 -1.34882404 8.5247 -2 1 C-12.69725727 -3.84404103 -31.76550076 -2.43149931 -41 6 Z " fill="#F0630E" transform="translate(694,338)"/>
<path d="M0 0 C8.75398308 5.14940181 14.69654103 11.43475943 17.375 21.4375 C18.75794327 31.73218958 18.01762672 40.96668866 11.8671875 49.5390625 C7.15454545 55.39150635 0.26898501 61.7880146 -7.51928711 62.64624023 C-19.55931378 63.20986286 -29.27397473 62.95683993 -38.765625 54.5390625 C-45.49445511 47.38614646 -48.35583655 40.33997057 -48.1875 30.5625 C-48.17871826 29.68134521 -48.16993652 28.80019043 -48.16088867 27.89233398 C-47.89816305 19.51688929 -45.69029694 14.08271798 -40.3125 7.6875 C-28.53951325 -2.16895403 -14.78978589 -7.00273953 0 0 Z M-37.5 17.5625 C-39.83327233 21.45128722 -39.73595345 25.22978221 -39.6875 29.6875 C-39.67847656 30.76515625 -39.66945313 31.8428125 -39.66015625 32.953125 C-39.64855469 33.77296875 -39.63695312 34.5928125 -39.625 35.4375 C-38.965 35.1075 -38.305 34.7775 -37.625 34.4375 C-37.8725 35.159375 -38.12 35.88125 -38.375 36.625 C-38.92929848 39.59739528 -38.92929848 39.59739528 -36.8125 42.25 C-36.090625 42.971875 -35.36875 43.69375 -34.625 44.4375 C-33.965 44.4375 -33.305 44.4375 -32.625 44.4375 C-31.00390625 45.71484375 -31.00390625 45.71484375 -29.1875 47.375 C-26.86905041 49.49315157 -25.67005898 50.42248034 -22.625 51.4375 C-22.955 52.0975 -23.285 52.7575 -23.625 53.4375 C-21.10024538 54.69987731 -19.31299534 54.53606404 -16.5 54.5 C-15.58992188 54.49097656 -14.67984375 54.48195313 -13.7421875 54.47265625 C-13.04351562 54.46105469 -12.34484375 54.44945312 -11.625 54.4375 C-11.625 53.7775 -11.625 53.1175 -11.625 52.4375 C-10.944375 52.664375 -10.26375 52.89125 -9.5625 53.125 C-5.59304021 53.54728296 -2.8107496 52.7461159 0.375 50.4375 C2.70963709 47.61781274 4.58895 44.62805992 6.375 41.4375 C6.75140625 40.83292969 7.1278125 40.22835937 7.515625 39.60546875 C9.75490538 33.95637507 9.46606075 25.61813693 7.5 19.88671875 C3.84831976 13.70048413 -1.75600555 8.63037141 -8.625 6.4375 C-21.24343281 5.20760212 -29.13963777 8.0874228 -37.5 17.5625 Z " fill="#27282A" transform="translate(432.625,257.5625)"/>
<path d="M0 0 C6.6825 -0.12375 6.6825 -0.12375 13.5 -0.25 C15.58344727 -0.30462402 15.58344727 -0.30462402 17.70898438 -0.36035156 C24.97124117 -0.42530539 29.88879401 -0.04472117 36 4 C41.32979134 9.73977529 41.34007132 13.89789214 41.28515625 21.5703125 C40.75183458 27.98478408 37.42005786 30.59851381 33 35 C33.721875 35.99902344 34.44375 36.99804688 35.1875 38.02734375 C36.12512346 39.33064036 37.06261676 40.63403061 38 41.9375 C38.47695313 42.59685547 38.95390625 43.25621094 39.4453125 43.93554688 C43 48.88671875 43 48.88671875 43 50 C32.01239937 51.32011221 32.01239937 51.32011221 27 50 C23.28464437 46.85305761 21.14268863 43.33747912 19 39 C18.67 38.34 18.34 37.68 18 37 C16.35 36.67 14.7 36.34 13 36 C13 40.62 13 45.24 13 50 C8.71 50 4.42 50 0 50 C0 33.5 0 17 0 0 Z M13 13 C13 16.63 13 20.26 13 24 C14.753125 24.061875 16.50625 24.12375 18.3125 24.1875 C19.29863281 24.22230469 20.28476562 24.25710938 21.30078125 24.29296875 C24.00732083 24.22352978 24.00732083 24.22352978 25.8359375 22.6796875 C27.61641972 20.1105353 27.32276119 18.0339552 27 15 C25.1371051 12.69939466 25.1371051 12.69939466 22.1796875 12.8046875 C21.08914063 12.82789063 19.99859375 12.85109375 18.875 12.875 C17.23144531 12.90207031 17.23144531 12.90207031 15.5546875 12.9296875 C14.71164062 12.95289063 13.86859375 12.97609375 13 13 Z " fill="#F5760F" transform="translate(353,455)"/>
<path d="M0 0 C4.13066193 3.5295261 6.14470101 6.49671434 6.74609375 12.0234375 C6.94271139 16.84950696 6.83444683 20.31727042 4.8125 24.75 C1.57341667 28.07432237 -1.01422016 30.03892538 -5.7734375 30.31640625 C-9.83033123 30.09401839 -12.18274008 29.43550648 -15.625 27.1875 C-19.28389981 21.52210675 -17.67621181 15.55156747 -16.5625 9.1875 C-17.71995487 7.81752255 -17.71995487 7.81752255 -20.875 7.875 C-24.50117141 7.91400808 -24.50117141 7.91400808 -27 9.625 C-29.34001703 13.46262793 -29.28945475 16.8104672 -28.5625 21.1875 C-25.38009314 28.10577579 -18.58952514 32.06974814 -12.51953125 36.31640625 C-5.02517165 41.66952025 0.7595439 46.52439818 3.4375 55.5625 C3.4375 65.99365414 0.76393535 73.06628241 -6.0546875 80.90234375 C-15.1251631 89.769749 -28.40717042 91.45117057 -40.4765625 91.43408203 C-52.66947432 91.25520692 -63.82297596 88.67270237 -72.83984375 79.99609375 C-73.69255859 79.10083984 -73.69255859 79.10083984 -74.5625 78.1875 C-75.0471875 78.57421875 -75.531875 78.9609375 -76.03125 79.359375 C-87.13095292 87.98299034 -98.85049585 92.27106452 -113 90.625 C-120.76696643 89.26237431 -127.46013613 86.17030049 -132.5625 80 C-138.2644059 70.66591916 -136.81114008 59.38969962 -134.5625 49.1875 C-133.1130717 43.76937767 -131.52442772 38.38976331 -129.95581055 33.00512695 C-127.78781011 25.16151091 -126.92286872 18.08613266 -127.64599609 9.97338867 C-127.91231156 6.36010234 -127.9822997 4.67644318 -125.5703125 1.8671875 C-118.53264827 -2.06293668 -111.99943156 -3.42269445 -104 -4.125 C-103.09314453 -4.22361328 -102.18628906 -4.32222656 -101.25195312 -4.42382812 C-95.83242196 -4.93080385 -91.6291368 -4.90972811 -86.5625 -2.8125 C-83.31013122 2.06605316 -84.11007557 6.91174034 -85.21044922 12.44677734 C-86.08847928 16.10498317 -87.02911604 19.74036003 -88 23.375 C-88.64651955 25.84713712 -89.29112027 28.31977703 -89.93359375 30.79296875 C-90.22161865 31.87731201 -90.50964355 32.96165527 -90.80639648 34.07885742 C-92.24590994 39.99727034 -92.82098874 45.68611837 -92.9375 51.75 C-92.97488281 52.49185547 -93.01226562 53.23371094 -93.05078125 53.99804688 C-93.11787117 58.18371268 -92.90151386 59.74337452 -90.26953125 63.19140625 C-86.80861466 65.74339525 -84.7709286 65.66392588 -80.5625 65.1875 C-78.38165934 64.38703459 -78.38165934 64.38703459 -77.88671875 62.26171875 C-77.67660156 61.47410156 -77.46648437 60.68648438 -77.25 59.875 C-75.9201178 55.60716374 -74.45961968 53.58572749 -70.5625 51.1875 C-66.87563877 49.34406938 -62.59552333 49.8318318 -58.5625 50.1875 C-54.60715683 51.83555965 -53.19288247 53.31787855 -51.5625 57.1875 C-51.1526204 59.00918709 -50.80122241 60.84472758 -50.5 62.6875 C-49.96328483 65.91666236 -49.35817821 69.00478717 -48.5625 72.1875 C-45.5925 72.1875 -42.6225 72.1875 -39.5625 72.1875 C-37.11251876 67.28753751 -36.99880764 64.38828896 -38.5625 59.1875 C-42.19295784 53.0844712 -48.38747654 48.62455757 -53.85449219 44.21923828 C-61.08553939 38.33122423 -65.90298735 32.23303267 -66.9375 22.75 C-66.04883045 14.30763924 -63.25605134 7.64107957 -56.5625 2.1875 C-40.85797459 -7.04684284 -15.95275811 -11.01087109 0 0 Z M-58.5078125 7.109375 C-62.77973551 12.43380077 -64.87766958 17.73253011 -64.5 24.625 C-62.99845219 34.48516396 -55.82592986 40.05172592 -48.5625 46.1875 C-37.38415605 55.72253185 -37.38415605 55.72253185 -35.5625 61.1875 C-35.29649914 65.3105134 -35.27102903 68.25479291 -36.5 72.1875 C-39.36476096 74.96545002 -41.53898514 74.70781353 -45.40625 74.65625 C-48.02748704 74.08641586 -48.91974323 73.27464994 -50.5625 71.1875 C-52.26545104 66.9802092 -53.11070067 62.68839136 -53.90234375 58.23828125 C-54.67809361 55.82840741 -55.62970914 54.79089292 -57.5625 53.1875 C-60.79074782 51.57337609 -64.06296855 51.75005857 -67.5625 52.1875 C-71.213613 53.73220165 -73.01287815 55.050289 -74.75 58.64453125 C-75.44395745 60.42789985 -76.09718477 62.22780568 -76.703125 64.04296875 C-77.5625 66.1875 -77.5625 66.1875 -79.5625 67.1875 C-84.19463493 67.74262815 -87.54422127 67.8239242 -91.5625 65.3125 C-96.11121461 60.47949073 -94.9337411 53.75942818 -94.84765625 47.48046875 C-94.55694728 39.46771137 -92.61522919 31.90245535 -90.5625 24.1875 C-89.98729604 21.98705532 -89.4154509 19.78588593 -88.85058594 17.58276367 C-88.34634947 15.63102078 -87.82231318 13.68442344 -87.296875 11.73828125 C-85.95029428 5.36788147 -85.95029428 5.36788147 -87.625 -0.6875 C-92.81376982 -3.70033409 -99.15653366 -2.83390613 -104.875 -2.125 C-105.98887085 -1.99061523 -105.98887085 -1.99061523 -107.12524414 -1.85351562 C-113.72261978 -0.96265798 -120.70972039 0.33472039 -125.5625 5.1875 C-125.53485127 7.05910655 -125.49351761 8.93152915 -125.38256836 10.80004883 C-124.66605302 23.70392277 -128.04244151 35.17749716 -131.80639648 47.42114258 C-134.10195086 55.8198919 -135.61386605 67.02319876 -132.375 75.3125 C-128.60274788 81.29607232 -123.56891281 85.49629567 -116.81640625 87.77734375 C-105.36216131 89.86173841 -93.27484361 88.65103813 -83.484375 82.140625 C-81.57431669 80.73058196 -79.68948888 79.28528254 -77.83984375 77.796875 C-75.5625 76.1875 -75.5625 76.1875 -72.5625 76.1875 C-70.89583333 77.85416667 -69.22916667 79.52083333 -67.5625 81.1875 C-57.18914504 89.63895071 -43.36019678 90.14864389 -30.5625 89.1875 C-20.30898343 87.52581201 -10.51426613 83.56730168 -3.96875 75.27734375 C0.61098574 68.47134758 1.6646235 61.30373789 0.4375 53.1875 C-2.60744858 44.34264937 -11.52569071 39.53520997 -18.81689453 34.43603516 C-28.51494375 27.49955632 -28.51494375 27.49955632 -30.5625 22.1875 C-31.30850061 16.91837988 -31.42461385 12.60581633 -28.625 8 C-24.6127219 5.62538643 -21.13735482 5.33364694 -16.5625 6.1875 C-14.5625 8.1875 -14.5625 8.1875 -14.375 11.1875 C-14.5625 14.1875 -14.5625 14.1875 -15.5625 16.1875 C-16.02626568 21.15598641 -16.02626568 21.15598641 -14 25.5625 C-10.74188356 27.73457763 -8.47134408 28.12010614 -4.5625 28.1875 C-1.10830603 26.99181747 0.85928121 25.82354067 3.3125 23.125 C5.19077573 18.22061337 5.4295329 13.1467846 3.74609375 8.125 C1.02551059 2.84319839 -2.59616038 0.25116429 -8.08984375 -1.71875 C-24.23701705 -6.40034655 -45.88418076 -5.36216479 -58.5078125 7.109375 Z " fill="#F0630E" transform="translate(508.5625,338.8125)"/>
<path d="M0 0 C5.94 0 11.88 0 18 0 C21.64035525 11.28510128 25.09722515 22.60401536 28.375 34 C28.73271484 35.23459961 29.09042969 36.46919922 29.45898438 37.74121094 C29.95495117 39.47806152 29.95495117 39.47806152 30.4609375 41.25 C30.75790527 42.28640625 31.05487305 43.3228125 31.36083984 44.390625 C32 47 32 47 32 50 C27.38 50 22.76 50 18 50 C17.67 48.68 17.34 47.36 17 46 C11.72 46 6.44 46 1 46 C0.67 47.32 0.34 48.64 0 50 C-4.62 50 -9.24 50 -14 50 C-11.24558269 38.5615711 -8.11125424 27.27380214 -4.75 16 C-4.28614828 14.4349877 -3.82260527 12.86988386 -3.359375 11.3046875 C-2.2436765 7.53522041 -1.12174489 3.76769276 0 0 Z M9 18 C6.94637945 23.08940744 5.56820748 27.54520815 5 33 C7.64 33 10.28 33 13 33 C12.35812082 27.86496656 11.31727753 23.0056546 10 18 C9.67 18 9.34 18 9 18 Z " fill="#F5760F" transform="translate(175,455)"/>
<path d="M0 0 C11.88 0 23.76 0 36 0 C36 4.29 36 8.58 36 13 C28.41 13 20.82 13 13 13 C13 14.98 13 16.96 13 19 C18.61 19 24.22 19 30 19 C30 22.96 30 26.92 30 31 C24.39 31 18.78 31 13 31 C13 32.98 13 34.96 13 37 C20.59 37 28.18 37 36 37 C36 41.29 36 45.58 36 50 C24.12 50 12.24 50 0 50 C0 33.5 0 17 0 0 Z " fill="#F5760F" transform="translate(404,455)"/>
<path d="M0 0 C4.29 0 8.58 0 13 0 C13.01981934 0.91289795 13.03963867 1.8257959 13.06005859 2.76635742 C13.13836264 6.16782472 13.22506225 9.56886604 13.31738281 12.9699707 C13.35555952 14.43928862 13.39043182 15.90869639 13.421875 17.37817383 C13.46777289 19.49593114 13.52572372 21.6130759 13.5859375 23.73046875 C13.6173584 25.00301514 13.6487793 26.27556152 13.68115234 27.58666992 C13.98590521 30.84911239 14.42443207 33.13626739 16 36 C18.91004903 37.08223366 18.91004903 37.08223366 22 37 C25.02796058 35.39143076 25.02796058 35.39143076 25.66772461 33.32324219 C26.12105632 30.15358416 26.22457877 27.02896849 26.31640625 23.828125 C26.33718735 23.1457074 26.35796844 22.46328979 26.37937927 21.76019287 C26.44452052 19.59022644 26.50359404 17.42014376 26.5625 15.25 C26.60571897 13.77472779 26.64933432 12.29946713 26.69335938 10.82421875 C26.80016518 7.21626834 26.90153153 3.60818867 27 0 C31.29 0 35.58 0 40 0 C40.09943082 5.26524445 40.17173199 10.52993343 40.21972656 15.79589844 C40.23974959 17.58440684 40.26697654 19.37285054 40.30175781 21.16113281 C40.35068955 23.74300162 40.37306165 26.3239995 40.390625 28.90625 C40.41127014 29.69616333 40.43191528 30.48607666 40.45318604 31.29992676 C40.45542505 36.93359201 39.24559424 41.3334873 36 46 C28.81294242 51.72031113 21.89851743 51.69966195 13 51 C8.19077114 49.71509153 5.65565553 47.82377234 2.5625 43.9375 C-0.0683312 38.99153734 -0.1323007 34.86994273 -0.09765625 29.39453125 C-0.0962413 28.55532639 -0.09482635 27.71612152 -0.09336853 26.85148621 C-0.08777215 24.17178784 -0.07522035 21.4921731 -0.0625 18.8125 C-0.05748453 16.99544392 -0.05292171 15.17838652 -0.04882812 13.36132812 C-0.03780391 8.90751987 -0.02054178 4.45377411 0 0 Z " fill="#F5760F" transform="translate(303,455)"/>
<path d="M0 0 C25 0 25 0 33 3 C39.14213305 9.27281673 39.34149255 14.12537044 39.2890625 22.6015625 C38.90808149 27.08066354 38.04710861 28.7787709 35 32 C34.54625 32.5775 34.0925 33.155 33.625 33.75 C29.43904965 36.96996181 24.22761285 37.31259513 19.125 37.625 C17.97257812 37.69976562 16.82015625 37.77453125 15.6328125 37.8515625 C14.76398438 37.90054688 13.89515625 37.94953125 13 38 C13 41.96 13 45.92 13 50 C8.71 50 4.42 50 0 50 C0 33.5 0 17 0 0 Z M13 13 C13 16.96 13 20.92 13 25 C16.69628969 25.21742881 19.45781172 25.20764658 22.9375 23.875 C25.29869936 22.11726801 25.29869936 22.11726801 25.5 19 C24.95008141 15.70048847 24.60470181 14.95785791 22 13 C19.71669899 12.63853543 19.71669899 12.63853543 17.3125 12.8125 C15.889375 12.874375 14.46625 12.93625 13 13 Z " fill="#F5760F" transform="translate(214,455)"/>
<path d="M0 0 C1.37222335 0.80325269 2.73472399 1.62522993 4.0625 2.5 C2.75188409 6.73429756 1.11893741 10.57407404 -0.9375 14.5 C-1.88625 14.025625 -2.835 13.55125 -3.8125 13.0625 C-8.3840467 11.07242218 -13.00638627 10.78773098 -17.9375 10.5 C-17.1941497 13.87077173 -17.1941497 13.87077173 -13.48046875 15.3671875 C-11.30555863 16.38761451 -9.1186917 17.37783733 -6.92773438 18.36328125 C-1.39159361 20.96673629 1.72637224 23.63686909 4.375 29.3125 C5.46163558 34.35053767 4.84755031 38.46810507 3 43.25 C-0.86923804 47.7433087 -4.6960788 49.25289454 -10.4453125 49.88671875 C-18.46556067 50.12165531 -24.81727974 49.23249441 -31.9375 45.5 C-32.5975 45.17 -33.2575 44.84 -33.9375 44.5 C-32.62688409 40.26570244 -30.99393741 36.42592596 -28.9375 32.5 C-27.761875 32.933125 -27.761875 32.933125 -26.5625 33.375 C-23.62421099 34.2868828 -20.74747156 35.07414258 -17.75 35.75 C-16.49123047 36.03617187 -16.49123047 36.03617187 -15.20703125 36.328125 C-12.65391923 36.75579808 -12.65391923 36.75579808 -9.9375 34.5 C-9.9375 33.84 -9.9375 33.18 -9.9375 32.5 C-10.700625 32.29375 -11.46375 32.0875 -12.25 31.875 C-20.29325343 28.87582075 -27.95246322 25.47007356 -31.9375 17.5 C-32.53385648 12.9480638 -32.96009119 8.44223696 -30.7734375 4.2890625 C-23.33651718 -4.74965604 -10.05647775 -5.07133807 0 0 Z " fill="#F5760F" transform="translate(478.9375,456.5)"/>
<path d="M0 0 C2.19656386 3.66093977 2.32022371 7.29323471 2.5 11.5 C3.02207031 11.05269531 3.54414062 10.60539062 4.08203125 10.14453125 C14.91160766 1.24948512 26.42409057 -3.05448858 40.62109375 -2.34375 C49.21409277 -1.10426054 55.78240473 2.69287053 61.18359375 9.4921875 C67.82678935 19.62453925 68.18702391 30.20292005 66.2890625 41.84375 C62.31256629 60.26949483 52.82784579 75.11758435 37.23828125 85.8125 C26.20904929 92.60940186 12.97036273 94.96252725 0.23828125 92.34375 C-4.26192905 90.95709461 -9.11463891 88.88536109 -12.5 85.5 C-19.38719972 113.7799231 -19.38719972 113.7799231 -22 142.6875 C-22.02767456 143.91654053 -22.02767456 143.91654053 -22.0559082 145.17041016 C-22.01477384 149.02400798 -21.74189342 151.08672021 -19.7578125 154.4765625 C-17.32851645 156.65368249 -16.05959809 157.23483974 -12.875 157.6875 C-8.67808219 158.32191781 -8.67808219 158.32191781 -6.5 160.5 C-6.69204937 163.45275904 -7.15279744 165.07396828 -9.03125 167.37890625 C-19.13960831 176.0231571 -29.88830973 179.01813561 -43.0859375 178.8203125 C-49.77957687 178.19230514 -55.79507986 175.33934642 -60.5 170.5 C-68.22870052 158.7628548 -65.39098895 143.65216191 -62.95703125 130.58496094 C-61.34006148 122.84255952 -59.41852006 115.17212156 -57.5 107.5 C-55.9917691 101.46035824 -54.49003642 95.41915827 -53 89.375 C-52.80751678 88.59540924 -52.61503357 87.81581848 -52.41671753 87.01260376 C-49.61725297 75.62756559 -47.13307257 64.21616884 -45 52.6875 C-44.87616943 52.01950378 -44.75233887 51.35150757 -44.62475586 50.66326904 C-42.85174607 41.0264993 -41.3220499 31.68841803 -41.375 21.875 C-41.37113281 21.15054687 -41.36726562 20.42609375 -41.36328125 19.6796875 C-41.36930426 16.35498344 -41.51471759 13.42519284 -42.16015625 10.14453125 C-42.27230469 9.27183594 -42.38445313 8.39914062 -42.5 7.5 C-36.58298573 0.97611247 -28.55805795 -0.86631501 -20.0625 -1.75 C-18.94935425 -1.87012451 -18.94935425 -1.87012451 -17.8137207 -1.99267578 C-5.35541416 -3.2132485 -5.35541416 -3.2132485 0 0 Z M-18.8125 0.1875 C-19.55580566 0.27854004 -20.29911133 0.36958008 -21.06494141 0.46337891 C-27.61352942 1.3569512 -34.63182456 2.4348683 -39.3203125 7.4453125 C-39.70960938 8.12335938 -40.09890625 8.80140625 -40.5 9.5 C-40.17 10.49 -39.84 11.48 -39.5 12.5 C-37.103762 42.24758318 -46.67084484 73.40492539 -53.87890625 102 C-54.18201218 103.20376785 -54.18201218 103.20376785 -54.49124146 104.43185425 C-55.47600113 108.33534897 -56.46950721 112.23625506 -57.47949219 116.13330078 C-60.51527396 127.93850327 -62.85548392 139.56616005 -62.875 151.8125 C-62.89949219 152.64072266 -62.92398437 153.46894531 -62.94921875 154.32226562 C-62.97674482 160.14402894 -61.89039758 164.69022081 -58.5 169.5 C-52.10790422 175.44354369 -45.38527929 176.9831445 -36.7890625 176.8125 C-25.88174007 175.77617483 -16.08670411 171.440122 -8.5 163.5 C-8.83 162.51 -9.16 161.52 -9.5 160.5 C-11.68523835 159.89951095 -13.828833 159.67837336 -16.078125 159.41796875 C-19.68485361 158.05090226 -21.74008499 155.84236324 -23.5 152.5 C-24.23013674 149.29137952 -24.2096374 146.21690118 -24.125 142.9375 C-24.11243164 141.99293945 -24.09986328 141.04837891 -24.08691406 140.07519531 C-23.49211386 121.035457 -18.92689431 101.9742461 -14.5 83.5 C-10.40082151 84.3198357 -7.28677444 86.24203697 -3.71875 88.34375 C4.51730391 92.6357781 16.64969623 91.36807084 25.3125 88.9375 C40.83622208 83.46192971 51.03331606 72.90687094 58.5 58.5 C63.97770443 45.84833303 67.87431108 30.37738929 62.9375 16.875 C59.07518925 9.06963332 54.28763737 3.99957656 45.96484375 1.18359375 C33.80265382 -2.18943832 23.56599125 0.86529765 12.6484375 6.61328125 C8.82889063 8.90216604 5.78185076 11.50986931 2.5 14.5 C1.51 14.5 0.52 14.5 -0.5 14.5 C-0.46519531 13.74074219 -0.43039062 12.98148437 -0.39453125 12.19921875 C-0.35392578 10.70841797 -0.35392578 10.70841797 -0.3125 9.1875 C-0.27769531 8.20136719 -0.24289062 7.21523438 -0.20703125 6.19921875 C-0.30502262 3.5418523 -0.30502262 3.5418523 -1.57421875 1.70703125 C-6.69466641 -1.50233656 -13.08328531 -0.52395417 -18.8125 0.1875 Z " fill="#F0630E" transform="translate(568.5,336.5)"/>
<path d="M0 0 C0.86625 0.495 1.7325 0.99 2.625 1.5 C1.06798069 6.17105792 -1.45947373 9.58705685 -4.375 13.5 C-4.96667969 13.39300781 -5.55835938 13.28601563 -6.16796875 13.17578125 C-11.29279341 12.39551238 -11.29279341 12.39551238 -16.25 13.625 C-20.07763782 17.00232748 -21.27894336 19.28968634 -21.6875 24.4375 C-21.51400886 28.10857247 -21.10393466 31.19930657 -19.375 34.5 C-14.53394806 37.15105225 -10.60013479 36.35657947 -5.375 35.5 C-4.385 35.5 -3.395 35.5 -2.375 35.5 C-0.76953125 37.6875 -0.76953125 37.6875 0.8125 40.5 C1.34230469 41.428125 1.87210938 42.35625 2.41796875 43.3125 C2.81628906 44.034375 3.21460938 44.75625 3.625 45.5 C0.43202711 49.1971265 -2.7981211 50.33621789 -7.609375 50.8359375 C-16.17617407 50.93112416 -22.86813546 50.57351218 -29.40625 44.6640625 C-36.10730505 37.49613067 -36.83309934 30.83271503 -36.69140625 21.20703125 C-36.14342255 14.78682717 -34.11399514 10.55933635 -30 5.6875 C-21.48961203 -1.40448997 -10.76765679 -4.69700255 0 0 Z " fill="#F5760F" transform="translate(154.375,455.5)"/>
<path d="M0 0 C11.55 0 23.1 0 35 0 C35 4.29 35 8.58 35 13 C31.37 13 27.74 13 24 13 C24 25.21 24 37.42 24 50 C19.71 50 15.42 50 11 50 C11 37.79 11 25.58 11 13 C7.37 13 3.74 13 0 13 C0 8.71 0 4.42 0 0 Z " fill="#F5760F" transform="translate(259,455)"/>
<path d="M0 0 C8.75398308 5.14940181 14.69654103 11.43475943 17.375 21.4375 C18.75794327 31.73218958 18.01762672 40.96668866 11.8671875 49.5390625 C7.15454545 55.39150635 0.26898501 61.7880146 -7.51928711 62.64624023 C-19.55931378 63.20986286 -29.27397473 62.95683993 -38.765625 54.5390625 C-45.49445511 47.38614646 -48.35583655 40.33997057 -48.1875 30.5625 C-48.17871826 29.68134521 -48.16993652 28.80019043 -48.16088867 27.89233398 C-47.89816305 19.51688929 -45.69029694 14.08271798 -40.3125 7.6875 C-28.53951325 -2.16895403 -14.78978589 -7.00273953 0 0 Z M-38.625 11.4375 C-44.59026317 19.48986518 -45.98204246 27.53994035 -44.625 37.4375 C-42.22988318 44.98211799 -38.40187568 51.21767226 -31.625 55.4375 C-30.96886719 55.84742188 -30.31273437 56.25734375 -29.63671875 56.6796875 C-21.92194389 60.76978752 -12.94392545 60.70758939 -4.6875 58.1875 C3.27792385 55.01877299 7.0030677 50.58797964 11.375 43.4375 C12.035 42.4475 12.695 41.4575 13.375 40.4375 C15.58888535 31.13918153 14.64715313 22.99444576 10.375 14.4375 C5.98703458 7.74187401 -0.22105691 2.78416952 -8.0703125 0.828125 C-20.67437488 -1.09910166 -29.93895904 2.05127709 -38.625 11.4375 Z " fill="#2D2D2F" transform="translate(432.625,257.5625)"/>
<path d="M0 0 C1.98 0 3.96 0 6 0 C6.33 0.66 6.66 1.32 7 2 C9.97 2 12.94 2 16 2 C15.01 2.99 14.02 3.98 13 5 C14.06541016 5.09087891 14.06541016 5.09087891 15.15234375 5.18359375 C16.07144531 5.26738281 16.99054688 5.35117187 17.9375 5.4375 C19.31228516 5.55931641 19.31228516 5.55931641 20.71484375 5.68359375 C23 6 23 6 24 7 C24.04063832 8.66617115 24.042721 10.33388095 24 12 C22.68 12 21.36 12 20 12 C20.495 12.33 20.99 12.66 21.5 13 C23.88179561 16.17572747 23.19168226 19.10246066 23 23 C22.54109375 22.60167969 22.0821875 22.20335937 21.609375 21.79296875 C18.47728415 19.08857938 15.36122541 16.42008229 12 14 C12.78375 14.78375 13.5675 15.5675 14.375 16.375 C19 21 19 21 19.375 23.9375 C19 27 19 27 17 28.875 C16.01 29.431875 16.01 29.431875 15 30 C14.67 27.69 14.34 25.38 14 23 C13.9175 23.928125 13.835 24.85625 13.75 25.8125 C13 29 13 29 11.1875 30.875 C9 32 9 32 5 32 C5 31.01 5 30.02 5 29 C4.0925 29.20625 3.185 29.4125 2.25 29.625 C-1.11027897 30.0127245 -2.24075815 29.80411967 -5 28 C-5 27.34 -5 26.68 -5 26 C-4.01 26 -3.02 26 -2 26 C-2 25.34 -2 24.68 -2 24 C-3.11375 23.9175 -4.2275 23.835 -5.375 23.75 C-9 23 -9 23 -10.4375 21.25 C-11.06272383 18.74910469 -11.14268336 16.56830044 -11 14 C-10.01 14.33 -9.02 14.66 -8 15 C-8 12.36 -8 9.72 -8 7 C-6.68 6.34 -5.36 5.68 -4 5 C-3.67 5.99 -3.34 6.98 -3 8 C-2.690625 7.05125 -2.38125 6.1025 -2.0625 5.125 C-1 2 -1 2 0 0 Z M5 13 C3.71677453 14.0595877 3.71677453 14.0595877 3.875 16.5 C3.71677453 18.9404123 3.71677453 18.9404123 5 20 C6.66617115 20.04063832 8.33388095 20.042721 10 20 C10.67958603 17.60280568 10.67958603 17.60280568 11 15 C10.34 14.34 9.68 13.68 9 13 C7.68 13 6.36 13 5 13 Z " fill="#353535" transform="translate(410,271)"/>
<path d="M0 0 C3.35774567 1.85747633 4.63156599 3.13905454 6.13671875 6.65625 C7.13056977 10.50573629 7.1516618 13.9514738 6.875 17.875 C6.82641846 18.61242432 6.77783691 19.34984863 6.7277832 20.10961914 C5.52649852 35.01221416 1.57392114 50.98453051 -9 62 C-13.34365744 65.18534879 -17.40009219 65.51368336 -22.65625 65.36328125 C-25.99670442 64.84551082 -27.75236916 63.4651435 -30 61 C-35.54167486 49.91665027 -28.27129927 30.35186863 -24.6875 19.375 C-20.50324906 8.38813251 -13.04229762 -2.35820141 0 0 Z M-18.6875 11.4375 C-25.54265969 23.60136921 -31.55994761 44.01874766 -29 58 C-27.22632043 61.35801159 -27.22632043 61.35801159 -24 63 C-18.83830742 63.74927796 -15.15948819 63.39140247 -10.65625 60.43359375 C1.02917603 50.31908584 3.68488127 31.58895956 5 17 C5.2190058 11.62791659 4.92351039 8.35810352 1.875 3.875 C-6.42524446 -1.53820291 -13.7659401 4.38686403 -18.6875 11.4375 Z " fill="#F0630E" transform="translate(591,351)"/>
<path d="M0 0 C7.54200311 4.32556061 12.21590696 10.45867226 15.375 18.5 C17.08565035 28.07964195 15.77766942 35.96596582 10.34375 44.1484375 C5.75573865 50.47029035 -0.31602303 54.49140269 -8 56 C-17.70108397 57.06442449 -24.89568866 55.50849432 -33 50 C-35.49239075 47.8937543 -37.27332096 45.76154297 -39 43 C-39.40992188 42.36707031 -39.81984375 41.73414063 -40.2421875 41.08203125 C-44.002491 34.17085274 -43.93236147 26.66335697 -43 19 C-40.69216476 11.31061976 -35.76242934 4.8767529 -28.87890625 0.71875 C-19.48406668 -4.10795657 -9.65133575 -4.68373647 0 0 Z M-34.9375 7.9375 C-40.61094383 15.02596747 -42.98380985 21.99540705 -42 31 C-40.36560762 37.4931567 -38.41081139 42.87069657 -33 47 C-32.34 47 -31.68 47 -31 47 C-30.67 47.99 -30.34 48.98 -30 50 C-23.10474539 55.23269322 -14.19791299 54.8554344 -6 54 C1.24443801 52.33461195 5.92945251 48.09527577 10 42 C14.02948873 34.91859081 14.92550444 28.05531645 14 20 C11.48069245 11.60230818 6.34672566 5.28261158 -1.16796875 0.91015625 C-12.68807769 -4.81305352 -26.55268782 -1.14459386 -34.9375 7.9375 Z " fill="#0F1010" transform="translate(431,261)"/>
<path d="M0 0 C6.21011945 3.641482 11.82822643 9.73569319 13.9921875 16.73046875 C16.02494428 26.80509667 13.99969568 35.42184217 8.5 43.9375 C6.25630077 46.11320834 4.40835303 47.02973935 1.4375 47.9375 C2.85784173 43.80559679 4.96522967 40.35588985 7.31640625 36.70703125 C10.84141192 31.14317212 10.01548957 24.29538525 9.4375 17.9375 C7.04058572 11.07736602 1.59335056 6.55628401 -4.73046875 3.3125 C-8.84521947 1.60055113 -12.59983235 1.59299493 -17 1.75 C-18.09731445 1.77030273 -18.09731445 1.77030273 -19.21679688 1.79101562 C-20.99902422 1.82596126 -22.78086573 1.87975195 -24.5625 1.9375 C-24.2325 0.9475 -23.9025 -0.0425 -23.5625 -1.0625 C-16.30204452 -3.48265183 -6.95022975 -3.23143304 0 0 Z " fill="#606165" transform="translate(430.5625,262.0625)"/>
<path d="M0 0 C1.98 0 3.96 0 6 0 C6.33 0.66 6.66 1.32 7 2 C9.97 2 12.94 2 16 2 C15.34 2.66 14.68 3.32 14 4 C10.875 3.625 10.875 3.625 8 3 C7.566875 3.928125 7.566875 3.928125 7.125 4.875 C6 7 6 7 4 9 C4 7.35 4 5.7 4 4 C3.01 4 2.02 4 1 4 C0.77422598 9.4185766 1.53329887 13.77487721 3 19 C-0.55293493 20.14947895 -1.79976669 20.0868937 -5.3125 18.5625 C-6.199375 18.046875 -7.08625 17.53125 -8 17 C-8 18.32 -8 19.64 -8 21 C-4.7 21.66 -1.4 22.32 2 23 C2 23.33 2 23.66 2 24 C-1.60590139 24.12019671 -4.90406442 24.2248073 -8.4375 23.5 C-11.13532728 20.91008581 -10.76624816 17.62315351 -11 14 C-10.01 14.33 -9.02 14.66 -8 15 C-8 12.36 -8 9.72 -8 7 C-6.68 6.34 -5.36 5.68 -4 5 C-3.67 5.99 -3.34 6.98 -3 8 C-2.690625 7.05125 -2.38125 6.1025 -2.0625 5.125 C-1 2 -1 2 0 0 Z " fill="#313131" transform="translate(410,271)"/>
<path d="M0 0 C8.01073932 -1.09237354 14.81400283 2.94596939 21.15234375 7.5703125 C27.26387427 13.10679748 30.87892459 20.13733054 31.375 28.3828125 C31.67085821 39.99371269 31.67085821 39.99371269 29 44 C28.93530518 43.44650879 28.87061035 42.89301758 28.80395508 42.32275391 C27.06922052 24.87278268 27.06922052 24.87278268 17.6875 10.625 C14.06655748 7.8175732 10.15825476 5.89674778 6 4 C6 3.34 6 2.68 6 2 C3.03 1.505 3.03 1.505 0 1 C0 0.67 0 0.34 0 0 Z " fill="#5F6165" transform="translate(419,255)"/>
<path d="M0 0 C1.17433594 0.01417969 2.34867187 0.02835937 3.55859375 0.04296875 C5.32396484 0.05263672 5.32396484 0.05263672 7.125 0.0625 C9.99609375 0.23046875 9.99609375 0.23046875 10.99609375 1.23046875 C11.03673207 2.8966399 11.03881475 4.5643497 10.99609375 6.23046875 C9.67609375 6.23046875 8.35609375 6.23046875 6.99609375 6.23046875 C7.49109375 6.56046875 7.98609375 6.89046875 8.49609375 7.23046875 C10.87788936 10.40619622 10.18777601 13.33292941 9.99609375 17.23046875 C8.87021361 16.27316959 7.74542225 15.3145898 6.62109375 14.35546875 C5.99460937 13.82179688 5.368125 13.288125 4.72265625 12.73828125 C3.43772724 11.61614868 2.202374 10.436749 0.99609375 9.23046875 C-1.66633446 8.76756654 -1.66633446 8.76756654 -4.62890625 8.60546875 C-5.63179688 8.53070313 -6.6346875 8.4559375 -7.66796875 8.37890625 C-8.43882812 8.32992188 -9.2096875 8.2809375 -10.00390625 8.23046875 C-9.625 6.30078125 -9.625 6.30078125 -9.00390625 4.23046875 C-7.06640625 3.10546875 -7.06640625 3.10546875 -5.00390625 2.23046875 C-3.00390625 0.23046875 -3.00390625 0.23046875 0 0 Z " fill="#2A2A2A" transform="translate(423.00390625,276.76953125)"/>
<path d="M0 0 C0 0.66 0 1.32 0 2 C-0.90621094 1.95359375 -1.81242187 1.9071875 -2.74609375 1.859375 C-13.87500736 1.52962941 -20.95126513 3.34276139 -29.203125 10.91796875 C-32.30442981 14.51143715 -34.1787636 18.64829572 -36 23 C-36.99 22.67 -37.98 22.34 -39 22 C-39.33 22.99 -39.66 23.98 -40 25 C-39.70735206 18.26909735 -37.20205443 13.24030523 -33 8 C-23.35809089 -0.59760739 -12.55937292 -5.28815702 0 0 Z " fill="#363739" transform="translate(425,257)"/>
<path d="M0 0 C4.31320068 1.75722991 7.9031084 4.8062168 10 9 C9.14236006 13.61200255 8.08445068 17.16774716 4.3125 20.0625 C3.1678125 20.5265625 3.1678125 20.5265625 2 21 C1.67 20.34 1.34 19.68 1 19 C-0.051875 19.7425 -0.051875 19.7425 -1.125 20.5 C-4.37119719 22.1936681 -6.39340156 22.25162315 -10 22 C-10.33 21.01 -10.66 20.02 -11 19 C-11.99 19 -12.98 19 -14 19 C-14 18.01 -14 17.02 -14 16 C-15.65 15.67 -17.3 15.34 -19 15 C-19.33 14.01 -19.66 13.02 -20 12 C-19.01 12 -18.02 12 -17 12 C-16.67 12.66 -16.34 13.32 -16 14 C-11.23040203 15.08942909 -11.23040203 15.08942909 -6.5625 14.0625 C-6.046875 13.711875 -5.53125 13.36125 -5 13 C-5.66 14.65 -6.32 16.3 -7 18 C-5.8553125 17.5359375 -5.8553125 17.5359375 -4.6875 17.0625 C-2.81210323 16.32106407 -0.91315348 15.63771783 1 15 C1 12.36 1 9.72 1 7 C3.5654594 9.5654594 3.54046087 11.47686668 4 15 C6.280721 13.12575284 6.280721 13.12575284 6.375 10.125 C5.92491816 6.37431801 4.87398748 5.33511483 2 3 C1.34 3.66 0.68 4.32 0 5 C0 3.35 0 1.7 0 0 Z " fill="#272727" transform="translate(422,285)"/>
<path d="M0 0 C1.32 0 2.64 0 4 0 C4.66 0.99 5.32 1.98 6 3 C8.05925139 3.72382467 8.05925139 3.72382467 10 4 C10 4.99 10 5.98 10 7 C10.99 7 11.98 7 13 7 C13.33 7.66 13.66 8.32 14 9 C18.87664009 9.34833144 21.77050005 8.41685712 26 6 C26.99 7.485 26.99 7.485 28 9 C29.11375 7.824375 29.11375 7.824375 30.25 6.625 C32.54433318 4.43495469 34.12158858 3.17268614 37 2 C36.68793825 4.91257629 36.03930601 5.96069399 33.9375 8.0625 C30.38525884 10.40546757 27.02577304 11.63533117 23 13 C23 13.66 23 14.32 23 15 C21.37536158 15.05395478 19.75021459 15.09277195 18.125 15.125 C16.76761719 15.15980469 16.76761719 15.15980469 15.3828125 15.1953125 C13 15 13 15 11 13 C11.33 12.67 11.66 12.34 12 12 C10.948125 11.443125 9.89625 10.88625 8.8125 10.3125 C5.32271883 8.31225957 2.61758375 6.09350807 0 3 C0 2.01 0 1.02 0 0 Z " fill="#121212" transform="translate(398,297)"/>
<path d="M0 0 C10.16686151 -0.51309395 18.06149195 0.69729293 26.14453125 7.19921875 C32.51133594 13.37837025 35.979793 20.61319208 36.25 29.5 C36.02746557 37.23634405 33.24862652 42.73599937 29 49 C28.34 49.99 27.68 50.98 27 52 C25.68 51.67 24.36 51.34 23 51 C24.11375 49.9790625 24.11375 49.9790625 25.25 48.9375 C30.91460796 43.27289204 33.12818067 37.09560465 33.25 29.1875 C33.1472979 20.71457642 29.9493409 13.99965246 24 8 C17.85227751 3.56180462 11.95300622 2.42152979 4.46875 2.23828125 C2 2 2 2 0 0 Z " fill="#1E1F21" transform="translate(411,258)"/>
<path d="M0 0 C0.33 0.66 0.66 1.32 1 2 C1.53109375 1.83628906 2.0621875 1.67257812 2.609375 1.50390625 C5.53876764 0.88643623 8.25822936 0.90498075 11.25 0.9375 C12.32765625 0.94652344 13.4053125 0.95554687 14.515625 0.96484375 C15.33546875 0.97644531 16.1553125 0.98804688 17 1 C17 1.33 17 1.66 17 2 C16.01 2.07476562 15.02 2.14953125 14 2.2265625 C5.97805727 2.97097116 -0.19192751 3.98181636 -6 10 C-7.175625 11.175625 -7.175625 11.175625 -8.375 12.375 C-10.52889608 15.85437058 -11.18558059 18.99577125 -12 23 C-12.99 23 -13.98 23 -15 23 C-14.87232669 14.95658167 -12.49601907 10.79812583 -7 5 C-4.68611492 2.94321326 -2.74673181 1.3733659 0 0 Z " fill="#36373B" transform="translate(405,262)"/>
<path d="M0 0 C0.33 0.66 0.66 1.32 1 2 C1.99 2 2.98 2 4 2 C4.66 1.34 5.32 0.68 6 0 C6.16808419 2.10405391 6.33441948 4.20824758 6.5 6.3125 C6.5928125 7.48425781 6.685625 8.65601563 6.78125 9.86328125 C6.92364989 11.905194 7 13.9531279 7 16 C7.65391779 19.1108154 7.65391779 19.1108154 10 20.0625 C10.66 20.371875 11.32 20.68125 12 21 C12.33 21.66 12.66 22.32 13 23 C9.75 22.875 9.75 22.875 6 22 C0.29790734 15.52735428 -0.33649841 8.24421095 0 0 Z " fill="#232426" transform="translate(389,283)"/>
<path d="M0 0 C2 2 2 2 2.5 5.625 C2.31656226 11.96506686 -1.74500883 15.76228845 -6.0390625 20.0234375 C-11.73662892 25.25154152 -11.73662892 25.25154152 -16 26 C-16 25.01 -16 24.02 -16 23 C-14.58124128 22.08794082 -13.15955694 21.18007637 -11.72265625 20.296875 C-8.43438339 17.82134985 -6.28735174 14.3768891 -4 11 C-3.401875 10.13375 -2.80375 9.2675 -2.1875 8.375 C-0.79663952 5.59327903 -0.35760105 3.07536903 0 0 Z " fill="#3E3F41" transform="translate(446,292)"/>
<path d="M0 0 C0 0.66 0 1.32 0 2 C1.258125 1.938125 2.51625 1.87625 3.8125 1.8125 C7.71722035 1.80558899 7.71722035 1.80558899 10 3.375 C11 5 11 5 11 7 C11.66 7.66 12.32 8.32 13 9 C10.03 9 7.06 9 4 9 C4.99 8.01 5.98 7.02 7 6 C4.03 6 1.06 6 -2 6 C-2 5.01 -2 4.02 -2 3 C-3.98 3 -5.96 3 -8 3 C-8.66 6.3 -9.32 9.6 -10 13 C-10.66 12.34 -11.32 11.68 -12 11 C-11.66785714 4.91071429 -11.66785714 4.91071429 -9.625 2.125 C-6.47950819 -0.05264818 -3.69462905 -0.09985484 0 0 Z " fill="#272727" transform="translate(418,268)"/>
<path d="M0 0 C0.99 0 1.98 0 3 0 C3 0.99 3 1.98 3 3 C3.99 3 4.98 3 6 3 C7.28195532 6.84586595 7.18415545 10.49322597 7.1875 14.5 C7.19974609 15.27214844 7.21199219 16.04429687 7.22460938 16.83984375 C7.23476991 20.7482648 7.21572048 22.67641928 5 26 C4.91959473 25.42556152 4.83918945 24.85112305 4.75634766 24.25927734 C4.38502141 21.6303299 4.00508384 19.002695 3.625 16.375 C3.49867188 15.47136719 3.37234375 14.56773437 3.2421875 13.63671875 C2.54989229 8.89449656 1.72038021 4.50290819 0 0 Z " fill="#5D5E62" transform="translate(443,273)"/>
<path d="M0 0 C0.66 0.33 1.32 0.66 2 1 C1.57847656 1.51949219 1.15695312 2.03898437 0.72265625 2.57421875 C-3.43428979 7.70146308 -3.43428979 7.70146308 -5 14 C-5.66 14 -6.32 14 -7 14 C-7 17.63 -7 21.26 -7 25 C-7.66 24.34 -8.32 23.68 -9 23 C-9.66 23.33 -10.32 23.66 -11 24 C-11 20.04 -11 16.08 -11 12 C-10.01 11.67 -9.02 11.34 -8 11 C-6.9923145 9.27718285 -5.98945358 7.5504322 -5.05078125 5.7890625 C-3.69528909 3.48119852 -1.98809101 1.77508126 0 0 Z " fill="#101010" transform="translate(404,269)"/>
<path d="M0 0 C0.928125 0.0825 1.85625 0.165 2.8125 0.25 C1.14583333 1.91666667 -0.52083333 3.58333333 -2.1875 5.25 C-2.744375 5.848125 -3.30125 6.44625 -3.875 7.0625 C-5.1875 8.25 -5.1875 8.25 -7.1875 8.25 C-7.1875 10.23 -7.1875 12.21 -7.1875 14.25 C-7.8475 14.25 -8.5075 14.25 -9.1875 14.25 C-11.16137813 9.48947038 -11.1945238 6.28511899 -10.1875 1.25 C-9.1975 1.25 -8.2075 1.25 -7.1875 1.25 C-6.8575 2.24 -6.5275 3.23 -6.1875 4.25 C-5.81625 3.59 -5.445 2.93 -5.0625 2.25 C-3.1875 0.25 -3.1875 0.25 0 0 Z " fill="#4C4C4C" transform="translate(421.1875,273.75)"/>
<path d="M0 0 C0.33 0 0.66 0 1 0 C3.20614747 17.46867676 3.20614747 17.46867676 -2.1640625 24.43359375 C-4.30458185 26.25986664 -6.34949633 27.09991428 -9 28 C-7.57965827 23.86809679 -5.47227033 20.41838985 -3.12109375 16.76953125 C-0.88954746 13.2472648 -0.72331697 10.5397616 -0.4375 6.375 C-0.35371094 5.18648438 -0.26992188 3.99796875 -0.18359375 2.7734375 C-0.12300781 1.85820312 -0.06242187 0.94296875 0 0 Z " fill="#45464A" transform="translate(441,282)"/>
<path d="M0 0 C3.63134037 -0.21360826 6.47736198 -0.17791933 9.9375 1 C12 3 12 3 12.3046875 4.98046875 C12.31179924 6.9895353 12.16412818 8.99763616 12 11 C7.81576108 7.49102731 3.80411834 3.91939465 0 0 Z " fill="#434343" transform="translate(421,283)"/>
<path d="M0 0 C3.24741748 1.85566713 5.82230633 4.02320095 8.625 6.5 C7.635 6.995 7.635 6.995 6.625 7.5 C6.295 8.49 5.965 9.48 5.625 10.5 C5.17769531 10.09007812 4.73039062 9.68015625 4.26953125 9.2578125 C0.88755515 6.24359926 -1.954668 3.83949455 -6.375 2.5 C-3.10091362 -0.65282392 -3.10091362 -0.65282392 0 0 Z " fill="#54555A" transform="translate(430.375,262.5)"/>
<path d="M0 0 C1.34173403 0.92543709 2.67320159 1.86577405 4 2.8125 C5.11375 3.59560547 5.11375 3.59560547 6.25 4.39453125 C6.8275 4.92433594 7.405 5.45414062 8 6 C8 8 8 10 8 12 C6.35 11.67 4.7 11.34 3 11 C2.67 10.01 2.34 9.02 2 8 C1.34 8 0.68 8 0 8 C-0.66 6.68 -1.32 5.36 -2 4 C-0.68 4 0.64 4 2 4 C1.34 2.68 0.68 1.36 0 0 Z " fill="#343535" transform="translate(398,300)"/>
<path d="M0 0 C2.97 0.495 2.97 0.495 6 1 C6.59222907 4.01264352 7.05823431 6.92416977 7 10 C5.0625 12.5625 5.0625 12.5625 3 14 C1.64984141 9.94952424 2.37915002 7.2079832 3 3 C2.01 2.67 1.02 2.34 0 2 C0 1.34 0 0.68 0 0 Z " fill="#212121" transform="translate(430,283)"/>
<path d="M0 0 C0 0.66 0 1.32 0 2 C-7.26 1.67 -14.52 1.34 -22 1 C-15.33424254 -3.44383831 -7.259575 -3.05666316 0 0 Z " fill="#4E4E51" transform="translate(425,257)"/>
<path d="M0 0 C0.99 0 1.98 0 3 0 C3.33 0.66 3.66 1.32 4 2 C8.76959797 3.08942909 8.76959797 3.08942909 13.4375 2.0625 C13.953125 1.711875 14.46875 1.36125 15 1 C14.34 2.65 13.68 4.3 13 6 C16.54518884 4.60240095 16.54518884 4.60240095 20 3 C18.125 6.875 18.125 6.875 17 8 C14.66702567 8.04092937 12.33294775 8.04241723 10 8 C10.33 7.34 10.66 6.68 11 6 C10.37351562 5.90203125 9.74703125 5.8040625 9.1015625 5.703125 C7.87566406 5.47882813 7.87566406 5.47882813 6.625 5.25 C5.40683594 5.04117187 5.40683594 5.04117187 4.1640625 4.828125 C2 4 2 4 0.7109375 1.921875 C0.47632813 1.28765625 0.24171875 0.6534375 0 0 Z " fill="#292929" transform="translate(402,297)"/>
<path d="M0 0 C-0.78175515 4.84688192 -2.39844278 9.3766367 -4 14 C-4.99 14 -5.98 14 -7 14 C-6.38997821 0 -6.38997821 0 0 0 Z " fill="#454649" transform="translate(397,271)"/>
<path d="M0 0 C2.93814003 1.46907001 3.3286226 3.59447806 4.625 6.5625 C5.07101562 7.57441406 5.51703125 8.58632813 5.9765625 9.62890625 C6.31429688 10.41136719 6.65203125 11.19382812 7 12 C2.2265625 11.2109375 2.2265625 11.2109375 0.1875 9.3125 C-1.32124409 6.37441941 -1.28974495 4.25963068 -1 1 C-0.67 0.67 -0.34 0.34 0 0 Z " fill="#474747" transform="translate(405,278)"/>
<path d="M0 0 C0.33 1.32 0.66 2.64 1 4 C-3.29 4 -7.58 4 -12 4 C-8.7771058 -0.8343413 -5.44718932 -0.10277716 0 0 Z " fill="#484848" transform="translate(430,278)"/>
<path d="M0 0 C5.64220877 2.49136491 9.10689355 6.76723388 11.375 12.4375 C11.58125 13.283125 11.7875 14.12875 12 15 C11.34 15 10.68 15 10 15 C10 14.01 10 13.02 10 12 C8.68 11.67 7.36 11.34 6 11 C5.938125 10.46375 5.87625 9.9275 5.8125 9.375 C4.62504405 5.90397493 2.39759133 3.76645153 0 1 C0 0.67 0 0.34 0 0 Z " fill="#74767A" transform="translate(436,261)"/>
<path d="M0 0 C1.43931117 0.45261358 2.87638999 0.91232979 4.3125 1.375 C5.11300781 1.63023437 5.91351563 1.88546875 6.73828125 2.1484375 C9 3 9 3 12 5 C10.12356239 6.87643761 7.50194299 6.17984987 5.0078125 6.23046875 C3 6 3 6 0 4 C0 2.68 0 1.36 0 0 Z " fill="#494A49" transform="translate(402,288)"/>
<path d="M0 0 C0.33 0 0.66 0 1 0 C1.05441656 1.89551022 1.09298035 3.7914792 1.125 5.6875 C1.14820313 6.74324219 1.17140625 7.79898437 1.1953125 8.88671875 C0.99858729 12.02251859 0.33057654 14.17645373 -1 17 C-1.33 17 -1.66 17 -2 17 C-2 12.38 -2 7.76 -2 3 C-1.34 3 -0.68 3 0 3 C0 2.01 0 1.02 0 0 Z " fill="#5E5F63" transform="translate(444,281)"/>
<path d="M0 0 C0.66 0 1.32 0 2 0 C2.05398987 2.27057377 2.09278742 4.54151288 2.125 6.8125 C2.14820313 8.07707031 2.17140625 9.34164063 2.1953125 10.64453125 C2 14 2 14 0 17 C-1.42868053 11.46386294 -1.81596196 5.44788588 0 0 Z " fill="#242425" transform="translate(386,279)"/>
<path d="M0 0 C0.75 1.6875 0.75 1.6875 1 4 C-1.79084342 8.76769085 -4.93153053 10.34122817 -10 12 C-10.99 11.67 -11.98 11.34 -13 11 C-12.34 11 -11.68 11 -11 11 C-11 10.34 -11 9.68 -11 9 C-9.35546875 7.8515625 -9.35546875 7.8515625 -7.1875 6.625 C-4.06566908 4.76295218 -1.8912255 3.19144303 0 0 Z " fill="#1B1C1C" transform="translate(436,299)"/>
<path d="M0 0 C0.33 0 0.66 0 1 0 C1.36474164 7.41641337 1.36474164 7.41641337 -0.25 10 C-2 11 -2 11 -6 11 C-4.18690997 7.22272911 -2.0926741 3.62730178 0 0 Z " fill="#4A4A4A" transform="translate(421,292)"/>
<path d="M0 0 C0 0.66 0 1.32 0 2 C0.66 2.33 1.32 2.66 2 3 C1.01 3.33 0.02 3.66 -1 4 C-1 3.01 -1 2.02 -1 1 C-3.31 1.66 -5.62 2.32 -8 3 C-8.66 6.3 -9.32 9.6 -10 13 C-10.66 12.34 -11.32 11.68 -12 11 C-11.66785714 4.91071429 -11.66785714 4.91071429 -9.625 2.125 C-6.47950819 -0.05264818 -3.69462905 -0.09985484 0 0 Z " fill="#1F1F1F" transform="translate(418,268)"/>
<path d="M0 0 C2.01822917 0.06510417 4.03645833 0.13020833 6.0546875 0.1953125 C6.0546875 0.5253125 6.0546875 0.8553125 6.0546875 1.1953125 C5.41660156 1.38867188 4.77851563 1.58203125 4.12109375 1.78125 C2.88166016 2.17183594 2.88166016 2.17183594 1.6171875 2.5703125 C0.38162109 2.95316406 0.38162109 2.95316406 -0.87890625 3.34375 C-3.12329266 4.00413477 -3.12329266 4.00413477 -3.9453125 6.1953125 C-3.2853125 6.1953125 -2.6253125 6.1953125 -1.9453125 6.1953125 C-2.2753125 6.8553125 -2.6053125 7.5153125 -2.9453125 8.1953125 C-4.9253125 8.1953125 -6.9053125 8.1953125 -8.9453125 8.1953125 C-8.6953125 6.3203125 -8.6953125 6.3203125 -7.9453125 4.1953125 C-6.0078125 3.0703125 -6.0078125 3.0703125 -3.9453125 2.1953125 C-1.9453125 0.1953125 -1.9453125 0.1953125 0 0 Z " fill="#323232" transform="translate(421.9453125,276.8046875)"/>
<path d="M0 0 C-1 3 -1 3 -4 5 C-6.33199388 5.07905064 -8.66832622 5.08798769 -11 5 C-11 4.34 -11 3.68 -11 3 C-9.73160474 2.49384702 -8.46016898 1.99530901 -7.1875 1.5 C-6.12595703 1.08234375 -6.12595703 1.08234375 -5.04296875 0.65625 C-3 0 -3 0 0 0 Z " fill="#4C4C4C" transform="translate(418,294)"/>
<path d="M0 0 C1.37562854 1.28965176 2.70766393 2.62689293 4 4 C4 4.66 4 5.32 4 6 C3.34 6 2.68 6 2 6 C2 6.66 2 7.32 2 8 C2.66 8 3.32 8 4 8 C4.33 10.31 4.66 12.62 5 15 C2.24671902 12.62216643 1.03055089 10.48801839 0 7 C-0.07646165 4.6679198 -0.09143299 2.33154122 0 0 Z " fill="#3E3F40" transform="translate(385,291)"/>
<path d="M0 0 C0.99 0.33 1.98 0.66 3 1 C3.05422947 2.4370809 3.09289723 3.87475462 3.125 5.3125 C3.14820313 6.11300781 3.17140625 6.91351563 3.1953125 7.73828125 C3 10 3 10 1 13 C-0.10228696 8.59085217 -0.07654536 4.51617599 0 0 Z " fill="#545558" transform="translate(447,286)"/>
<path d="M0 0 C0.33 0.66 0.66 1.32 1 2 C1.66 2.33 2.32 2.66 3 3 C-1.625 7.875 -1.625 7.875 -5 9 C-3.7508258 5.54074837 -2.32472205 2.85306797 0 0 Z " fill="#4F5054" transform="translate(437,301)"/>
<path d="M0 0 C-3.28463659 2.18975773 -6.20696275 2.99806563 -10 4 C-10.33 3.01 -10.66 2.02 -11 1 C-3.57142857 -1.42857143 -3.57142857 -1.42857143 0 0 Z " fill="#3E3F42" transform="translate(411,258)"/>
<path d="M0 0 C2 0 2 0 3.67578125 1.640625 C5.42856218 4.76357391 4.96715219 6.30311663 4.1875 9.75 C3.97480469 10.73484375 3.76210938 11.7196875 3.54296875 12.734375 C3.36378906 13.48203125 3.18460937 14.2296875 3 15 C2.67 15 2.34 15 2 15 C1.77213542 12.98177083 1.54427083 10.96354167 1.31640625 8.9453125 C1.08707039 6.92595684 1.08707039 6.92595684 0 5 C-0.0396713 3.33380554 -0.04384447 1.66608987 0 0 Z " fill="#3D3D3D" transform="translate(420,285)"/>
<path d="M0 0 C3 1 3 1 4.16796875 2.84765625 C4.50441406 3.57855469 4.84085937 4.30945313 5.1875 5.0625 C5.53167969 5.79597656 5.87585938 6.52945312 6.23046875 7.28515625 C6.48441406 7.85105469 6.73835938 8.41695313 7 9 C5.68 9.33 4.36 9.66 3 10 C2.67 7.36 2.34 4.72 2 2 C1.34 2 0.68 2 0 2 C0 1.34 0 0.68 0 0 Z " fill="#262728" transform="translate(387,297)"/>
<path d="M0 0 C0.33 0.66 0.66 1.32 1 2 C-0.65 4.31 -2.3 6.62 -4 9 C-5.32 8.67 -6.64 8.34 -8 8 C-5.33333333 5.33333333 -2.66666667 2.66666667 0 0 Z " fill="#151717" transform="translate(442,301)"/>
<path d="M0 0 C0.33 0 0.66 0 1 0 C1.33 3.63 1.66 7.26 2 11 C1.34 11 0.68 11 0 11 C-1.62651522 7.74696956 -1.11453156 4.60774398 -1 1 C-0.67 0.67 -0.34 0.34 0 0 Z " fill="#545454" transform="translate(412,277)"/>
<path d="M0 0 C1.98 0 3.96 0 6 0 C6 0.99 6 1.98 6 3 C7.32 3.66 8.64 4.32 10 5 C8.02 5 6.04 5 4 5 C3.67 4.01 3.34 3.02 3 2 C2.01 2 1.02 2 0 2 C0 1.34 0 0.68 0 0 Z " fill="#1D1D1D" transform="translate(408,302)"/>
<path d="M0 0 C0 0.99 0 1.98 0 3 C-2 5 -2 5 -5.625 5.125 C-6.73875 5.08375 -7.8525 5.0425 -9 5 C-6.58496158 2.07653244 -4.68577153 1.58196393 -1 1 C-0.67 0.67 -0.34 0.34 0 0 Z " fill="#303030" transform="translate(421,300)"/>
<path d="M0 0 C1.65 0 3.3 0 5 0 C5.33 1.32 5.66 2.64 6 4 C4.35 3.67 2.7 3.34 1 3 C0.67 2.01 0.34 1.02 0 0 Z " fill="#3D3E40" transform="translate(400,308)"/>
<path d="M0 0 C3 3 3 3 3.1875 6.1875 C3.0946875 7.5796875 3.0946875 7.5796875 3 9 C2.34 9 1.68 9 1 9 C0.67 6.03 0.34 3.06 0 0 Z " fill="#535353" transform="translate(424,289)"/>
<path d="M0 0 C3.465 1.485 3.465 1.485 7 3 C4.21176345 4.0326802 3.1322726 4.04509293 0.25 3.0625 C-0.4925 2.711875 -1.235 2.36125 -2 2 C-1.34 1.34 -0.68 0.68 0 0 Z " fill="#212122" transform="translate(406,315)"/>
<path d="M0 0 C0.66 0.66 1.32 1.32 2 2 C1.68134222 5.29279709 0.45484649 6.86535088 -2 9 C-2 5.61976483 -1.12544378 3.16531063 0 0 Z " fill="#222325" transform="translate(444,293)"/>
<path d="M0 0 C2.88437779 1.29299694 4.87219421 2.65941363 7 5 C6.01 5 5.02 5 4 5 C3.34 4.34 2.68 3.68 2 3 C1.34 3.66 0.68 4.32 0 5 C0 3.35 0 1.7 0 0 Z " fill="#2C2C2C" transform="translate(422,285)"/>
<path d="M0 0 C0.66 0 1.32 0 2 0 C1.34 2.97 0.68 5.94 0 9 C-2 6 -2 6 -1.6875 3.375 C-1 1 -1 1 0 0 Z " fill="#313131" transform="translate(404,276)"/>
</svg>
