<svg width="80" height="81" viewBox="0 0 80 81" fill="none" xmlns="http://www.w3.org/2000/svg">
<path d="M52.4 42.0221C52.0333 42.0221 51.65 41.9054 51.2833 41.8221C50.5408 41.6585 49.8111 41.4412 49.1 41.1721C48.3268 40.8908 47.4769 40.9054 46.7138 41.2131C45.9508 41.5208 45.3285 42.0998 44.9667 42.8387L44.6 43.5887C42.9767 42.6857 41.485 41.5641 40.1667 40.2554C38.8579 38.9371 37.7364 37.4454 36.8333 35.8221L37.5333 35.3554C38.2723 34.9936 38.8513 34.3713 39.159 33.6082C39.4667 32.8452 39.4813 31.9953 39.2 31.2221C38.9354 30.5094 38.7182 29.7801 38.55 29.0387C38.4667 28.6721 38.4 28.2887 38.35 27.9054C38.1476 26.7314 37.5327 25.6683 36.616 24.9075C35.6993 24.1466 34.5411 23.7381 33.35 23.7554H28.35C27.6317 23.7487 26.9204 23.8968 26.2645 24.1896C25.6086 24.4825 25.0235 24.9132 24.549 25.4525C24.0746 25.9919 23.7219 26.6271 23.515 27.3149C23.3081 28.0028 23.2518 28.7272 23.35 29.4387C24.2379 36.421 27.4267 42.9085 32.4127 47.8765C37.3988 52.8444 43.8978 56.0096 50.8833 56.8721H51.5167C52.7457 56.8739 53.9323 56.423 54.85 55.6054C55.3773 55.1338 55.7985 54.5557 56.0858 53.9093C56.3731 53.2628 56.5199 52.5628 56.5167 51.8554V46.8554C56.4962 45.6977 56.0747 44.583 55.3239 43.7015C54.5731 42.82 53.5397 42.2265 52.4 42.0221ZM53.2333 52.0221C53.233 52.2587 53.1823 52.4926 53.0846 52.7081C52.9869 52.9236 52.8444 53.1159 52.6667 53.2721C52.481 53.4338 52.2633 53.5544 52.0278 53.6262C51.7923 53.698 51.5443 53.7193 51.3 53.6887C45.0582 52.8884 39.2604 50.0329 34.8212 45.5726C30.382 41.1122 27.554 35.301 26.7833 29.0554C26.7568 28.8113 26.78 28.5643 26.8517 28.3294C26.9233 28.0945 27.0418 27.8766 27.2 27.6887C27.3562 27.511 27.5484 27.3685 27.7639 27.2708C27.9795 27.1731 28.2133 27.1224 28.45 27.1221H33.45C33.8376 27.1135 34.216 27.2402 34.5202 27.4805C34.8244 27.7208 35.0353 28.0597 35.1167 28.4387C35.1833 28.8943 35.2667 29.3443 35.3667 29.7887C35.5592 30.6673 35.8154 31.5307 36.1333 32.3721L33.8 33.4554C33.6005 33.5469 33.421 33.677 33.2719 33.8381C33.1228 33.9992 33.007 34.1881 32.9311 34.3941C32.8552 34.6 32.8208 34.819 32.8297 35.0383C32.8387 35.2576 32.8909 35.473 32.9833 35.6721C35.382 40.81 39.5121 44.9401 44.65 47.3387C45.0558 47.5054 45.5109 47.5054 45.9167 47.3387C46.1245 47.2644 46.3155 47.1495 46.4786 47.0007C46.6417 46.8519 46.7736 46.6723 46.8667 46.4721L47.9 44.1387C48.7616 44.4469 49.641 44.7029 50.5333 44.9054C50.9778 45.0054 51.4278 45.0887 51.8833 45.1554C52.2624 45.2367 52.6012 45.4476 52.8415 45.7518C53.0819 46.056 53.2086 46.4345 53.2 46.8221L53.2333 52.0221Z" fill="#84A9C0"/>
<rect x="0.5" y="0.855469" width="79" height="79" rx="39.5" stroke="#84A9C0"/>
</svg>
