<svg viewBox="0 0 512 512" xmlns="http://www.w3.org/2000/svg"><g id="Search_engine_optimizer" data-name="Search engine optimizer"><path d="m328.75 266.83h-297.88a5.92 5.92 0 0 1 -5.87-5.92v-200.91a5.92 5.92 0 0 1 5.91-5.92h297.84a5.93 5.93 0 0 1 5.92 5.92v200.9a5.93 5.93 0 0 1 -5.92 5.93zm-297.88-210.74a3.92 3.92 0 0 0 -3.87 3.91v200.9a3.92 3.92 0 0 0 3.91 3.92h297.84a3.93 3.93 0 0 0 3.92-3.92v-200.9a3.93 3.93 0 0 0 -3.92-3.92z" fill="#2351fb"/><circle cx="43.34" cy="73.26" fill="#2351fb" r="3.77"/><circle cx="58.95" cy="73.26" fill="#2351fb" r="3.77"/><circle cx="74.56" cy="73.26" fill="#2351fb" r="3.77"/><path d="m89.68 239.8c-21.3 0-38.62-13.05-38.62-29.1v-1.78c0-5.19 4.7-9.39 10.5-9.39s10.5 4.2 10.5 9.39v1.78c0 5.51 8.23 10.33 17.62 10.33s17.62-4.82 17.62-10.33v-11.35c0-5.51-8.23-10.33-17.62-10.33-21.3 0-38.62-13.06-38.62-29.11v-17.27c0-16 17.32-29.11 38.62-29.11s38.62 13.06 38.62 29.11v4.11c0 5.18-4.7 9.39-10.5 9.39s-10.5-4.21-10.5-9.39v-4.11c0-5.51-8.23-10.34-17.62-10.34s-17.62 4.83-17.62 10.34v17.27c0 5.51 8.23 10.34 17.62 10.34 21.3 0 38.62 13.05 38.62 29.1v11.35c0 16.05-17.3 29.1-38.62 29.1z" fill="#2351fb"/><path d="m194.66 182.24a9.39 9.39 0 1 0 0-18.77h-34.76v-29.76h34.76a9.39 9.39 0 1 0 0-18.77h-44.17a9.4 9.4 0 0 0 -9.42 9.38v104.68a9.4 9.4 0 0 0 9.42 9.39h44.17a9.39 9.39 0 1 0 0-18.77h-34.76v-37.38z" fill="#2351fb"/><path d="m395.53 156.8h23.83v45.29h-23.83z" fill="#e67925" transform="matrix(-.983 -.185 .185 -.983 774.61 431.25)"/><path d="m419.32 114.11a27.35 27.35 0 0 0 -34.25 26.49l-.95 21.29c-.34 7.77 4.38 15.07 11.05 17.41a22.41 22.41 0 0 0 4.41.95c10.43 1.09 18.84-7.85 23.54-12.84.8-.85 1.7-1.86 2.64-3a27.32 27.32 0 0 0 -6.44-50.27z" fill="#e67925"/><path d="m400.82 163.09c-.1 0 .13 0-3.31-.81a1.65 1.65 0 0 1 -1.08-2.35l4.19-8.25a.5.5 0 0 1 .67-.21.49.49 0 0 1 .22.67l-4.19 8.24a.65.65 0 0 0 .43.93l3.19.79a.5.5 0 0 1 -.12.99z" fill="#262246"/><path d="m393.9 146.45a2.33 2.33 0 1 0 1.66 2.84 2.33 2.33 0 0 0 -1.66-2.84z" fill="#262246"/><path d="m411 150.91a2.33 2.33 0 1 0 1.66 2.84 2.33 2.33 0 0 0 -1.66-2.84z" fill="#262246"/><path d="m418.07 146.54c-1.94-3.12-6.07-3.17-6.76-3.18s-2.58 0-2.89.85a1.34 1.34 0 0 0 .27 1.08c1 1.22 3-.09 5.49.59 2.85.78 4.08 3.63 4.58 3.3.33-.18-.03-1.58-.69-2.64z" fill="#262246"/><path d="m397.13 139.56c-.6-.34-4.21-2.36-7.44-.63-1.1.59-2.1 1.59-1.92 1.95.27.53 2.75-1.32 5.62-.57 2.47.64 3.6 2.8 5 2.23 0 0 .69-.28.78-.8.2-.91-1.52-1.89-2.04-2.18z" fill="#262246"/><path d="m395.56 180.19a.5.5 0 0 1 .29-1 16.49 16.49 0 0 0 15.26-3.13.51.51 0 0 1 .71.06.52.52 0 0 1 -.07.71 17.54 17.54 0 0 1 -16.19 3.36z" fill="#68003c"/><path d="m397.4 168.7a.5.5 0 0 1 .66-.75 4.22 4.22 0 0 0 6.94-2.13.5.5 0 0 1 1 .25 5.21 5.21 0 0 1 -8.6 2.63z" fill="#262246"/><path d="m407.65 190.54-60.81 6.18q1.55 78.57 3.08 157.14l81.66 8.87q14.32-78.66 28.66-157.33z" fill="#e67925"/><path d="m353 335.25-32.68 121.66h142.59c-5.42-42.21-6-59.56-7.94-68.43-2.57-11.71-8.86-27.81-25.72-45.62z" fill="#2351fb"/><path d="m407.65 190.54-41.35-1.71a30.59 30.59 0 0 0 -30.09 20.34l-43.47 122.73q20.13 11.37 40.25 22.75l36.75-117.25z" fill="#e67925"/><path d="m284.67 239.8 49 106.1a20.54 20.54 0 0 1 -39.93 9.5q-16.25-54-32.5-108z" fill="#e67925"/><path d="m413.63 192.77 25.08 1.34a30 30 0 0 1 28.06 25.22q10.74 66.53 21.47 133.07l-41.5 4q-11.69-67.75-23.39-135.5z" fill="#e67925"/><path d="m377.25 189.28-29.67 50.45q-1.58 54.27-3.17 108.5-6.33 33.33-12.67 66.67l114.31-44.75q-5.12-86.94-9.25-175.75a378.06 378.06 0 0 0 -59.55-5.12z" fill="#2351fb"/><rect fill="#2351fb" height="12.17" rx="1.28" transform="matrix(.998 .058 -.058 .998 11.71 -23.13)" width="29.17" x="390.54" y="184.46"/><path d="m486.48 345.23-45.11-95.67-22.67 18.34q13 45.33 26 90.66c4.15 15 20.16 21.78 31.33 16.67 9.71-4.44 15.26-17.65 10.45-30z" fill="#e67925"/><path d="m421.12 160.65 3-15s-8.8-11.49-5.24-21c0 0-22.95-10.15-33.17 10 0 0 2.16-31.18 35.66-24.18 0 0 .12-18.87 14.25-6.12 0 0 6-14.13 17.25-10.75s6.5 12.62 6.5 12.62 11.75-4.5 15 1.25-6.63 13.5-6.63 13.5 8.5 1.75 6.38 9.5-13.63 7.72-13.63 7.72 9.25 9.06 3.25 14.92-15.12-.67-15.12-.67-10 4.16-7.63-8.47c0 0-1 27.77-21.14 33.95z" fill="#68003c"/><path d="m429.83 153.9c-2.5-2.27-6.69-1.74-9.36 1.19s-2.79 7.15-.29 9.43 6.69 1.74 9.36-1.19 2.79-7.15.29-9.43z" fill="#e67925"/><path d="m422.6 163.09a.5.5 0 0 1 0-1 2.3 2.3 0 0 0 1.11-4.24.5.5 0 0 1 .4-.9l4.45 1.17a.5.5 0 0 1 -.26 1l-2.88-.75a3.29 3.29 0 0 1 -2.82 4.72z" fill="#262246"/><path d="m426.24 111.9a22.14 22.14 0 0 1 13.13 9.1c5.61 8.53 2.76 17.7 2.37 18.88a37.77 37.77 0 0 0 -15.5-27.98z" fill="#2351fb"/><path d="m290.46 259.4.84-18.17-2-22.5-9.17 3v11.17c-3.71-11.89-14-20-26.71-19.63l-12.22 4.56-4.2 3.67q3.53 9.6 7.06 19.21a14.49 14.49 0 0 0 6.79 7.78l18.66 9.91z" fill="#e67925"/><g fill="#fdc500"><path d="m266.48 237.66a46.63 46.63 0 1 1 46.62-46.66 46.67 46.67 0 0 1 -46.62 46.66zm0-78a31.42 31.42 0 1 0 31.41 31.34 31.45 31.45 0 0 0 -31.41-31.38z"/><path d="m253.17 129.77h22.05v22.25h-22.05z"/><path d="m253.17 225.59h22.05v22.25h-22.05z"/><path d="m301.08 177.68h22.05v22.25h-22.05z" transform="matrix(0 1 -1 0 500.92 -123.31)"/><path d="m205.26 177.68h22.05v22.25h-22.05z" transform="matrix(0 1 -1 0 405.09 -27.48)"/><path d="m287.05 211.56h22.05v22.25h-22.05z" transform="matrix(-.707 .707 -.707 -.707 666.31 169.37)"/><path d="m219.29 143.8h22.05v22.25h-22.05z" transform="matrix(-.707 .707 -.707 -.707 502.73 101.61)"/><path d="m287.05 143.8h22.05v22.25h-22.05z" transform="matrix(.707 .707 -.707 .707 196.85 -165.4)"/><path d="m219.29 211.56h22.05v22.25h-22.05z" transform="matrix(.707 .707 -.707 .707 224.92 -97.64)"/></g><path d="m280.21 239.06 2.59-15.75a4.7 4.7 0 0 1 9.16 1l-.66 16.92-6.75 4.17z" fill="#e67925"/><path d="m241 209q.48 6.27 1 12.53a4.93 4.93 0 0 0 5 4.59 4.77 4.77 0 0 0 4-3.34l-.71-6.62c.63 2.48 1.25 5 1.88 7.46.69 2.91 3.32 4.61 5.58 4.16a4.75 4.75 0 0 0 3.42-3.33c-.44-2.08-.89-4.17-1.33-6.25q1.38 3.06 2.78 6.12c2.33 3.55 8.56 3.81 9-.69-.42-1.3-.83-2.59-1.25-3.88l2.63 4.37c2.86 2.69 8.27 2.09 8.5-1.82q-2.82-6.65-5.63-13.3c-2.64-2.85-8-2.81-8.58 1.06a5.25 5.25 0 0 0 -5.94-2.65 3.71 3.71 0 0 0 -2.6 2.85c-.46-2-2.71-3.36-5-3.21a4.6 4.6 0 0 0 -4.2 2.91c.65-2.09-1.2-4.1-3.63-4.33s-4.77 1.37-4.92 3.37z" fill="#e67925"/><path d="m271.08 222.61a.49.49 0 0 1 -.47-.35l-3.84-12a.51.51 0 0 1 .33-.63.5.5 0 0 1 .62.33l3.84 12a.5.5 0 0 1 -.48.65z" fill="#68003c"/><path d="m261.25 222.51a.49.49 0 0 1 -.49-.39l-2.54-11.73a.5.5 0 0 1 1-.21l2.54 11.72a.5.5 0 0 1 -.51.61z" fill="#68003c"/><path d="m250.76 218.72a.49.49 0 0 1 -.49-.43l-1.13-8.66a.5.5 0 0 1 1-.13l1.13 8.66a.5.5 0 0 1 -.51.56z" fill="#68003c"/><path d="m328.75 335.75a.5.5 0 0 1 -.46-.29l-21.05-45.58a.51.51 0 0 1 .25-.66.49.49 0 0 1 .66.25l21.05 45.53a.5.5 0 0 1 -.45.75z" fill="#68003c"/><rect fill="#fdc500" height="83.54" rx="6.28" transform="matrix(.884 .468 -.468 .884 162.01 -170.57)" width="14.85" x="416.86" y="198.99"/><path d="m463.61 184.86-7.43 14a8.58 8.58 0 0 1 -15.17-8l7.42-14a19 19 0 1 0 15.18 8z" fill="#fdc500"/><path d="m444.72 256.68v-16.68l-5.21-12.13-4 7.55-8.84-15 3.66-6.92a10.22 10.22 0 0 0 -11.63 2.42c-3.69 4.15-2 9.65-1.9 9.87a6.15 6.15 0 0 0 -7.88 9.31 6.24 6.24 0 0 0 -6.37 9.94 7.44 7.44 0 0 0 -3.88 13.25l13.7 19.66a20 20 0 0 0 12.72 8.24l6.46 1.23z" fill="#e67925"/><path d="m479.86 332.36-32.24-72.76c-.05-.11.09 1.08-1.86-18.57-.26-2.55-.47-2.74-5.27-15.71a.49.49 0 0 1 .29-.64.51.51 0 0 1 .65.3c4.53 12.25 5 13.08 5.32 16l1.82 18.34 32.2 72.68a.5.5 0 0 1 -.91.36z" fill="#68003c"/><path d="m409.13 255.56a.5.5 0 0 1 -.42-.22l-6.58-10a.51.51 0 0 1 .14-.7.5.5 0 0 1 .69.15l6.59 10a.5.5 0 0 1 -.42.77z" fill="#68003c"/><path d="m415 245.3-6.54-9.94a.5.5 0 0 1 .84-.55l6.54 9.94a.5.5 0 0 1 -.84.55z" fill="#68003c"/><path d="m422 236.31-5.64-10.31a.5.5 0 0 1 .19-.68.51.51 0 0 1 .68.2l5.67 10.29a.5.5 0 0 1 -.9.5z" fill="#68003c"/></g></svg>