<svg width="81" height="81" viewBox="0 0 81 81" fill="none" xmlns="http://www.w3.org/2000/svg">
<path d="M38.6667 23.6887C35.3703 23.6887 32.148 24.6662 29.4072 26.4976C26.6664 28.3289 24.5301 30.9319 23.2687 33.9773C22.0072 37.0228 21.6772 40.3739 22.3203 43.6069C22.9633 46.8399 24.5507 49.8096 26.8816 52.1405C29.2124 54.4714 32.1822 56.0587 35.4152 56.7018C38.6482 57.3449 41.9993 57.0148 45.0447 55.7534C48.0902 54.4919 50.6931 52.3557 52.5245 49.6149C54.3559 46.8741 55.3333 43.6517 55.3333 40.3554C55.3333 38.1667 54.9022 35.9994 54.0647 33.9773C53.2271 31.9552 51.9994 30.1179 50.4518 28.5703C48.9041 27.0226 47.0668 25.795 45.0447 24.9574C43.0226 24.1198 40.8554 23.6887 38.6667 23.6887V23.6887ZM38.6667 53.6887C36.0296 53.6887 33.4517 52.9067 31.2591 51.4416C29.0664 49.9766 27.3574 47.8942 26.3483 45.4578C25.3391 43.0215 25.0751 40.3406 25.5895 37.7542C26.104 35.1678 27.3739 32.792 29.2386 30.9273C31.1033 29.0626 33.4791 27.7927 36.0655 27.2783C38.6519 26.7638 41.3328 27.0278 43.7691 28.037C46.2055 29.0462 48.2878 30.7551 49.7529 32.9478C51.218 35.1404 52 37.7183 52 40.3554C52 43.8916 50.5952 47.283 48.0948 49.7835C45.5943 52.284 42.2029 53.6887 38.6667 53.6887V53.6887ZM40.3333 40.2387V32.0221C40.3333 31.58 40.1577 31.1561 39.8452 30.8435C39.5326 30.531 39.1087 30.3554 38.6667 30.3554C38.2246 30.3554 37.8007 30.531 37.4882 30.8435C37.1756 31.1561 37 31.58 37 32.0221V40.3554C37 40.3554 37 40.4721 37 40.5387C36.959 40.8775 37.023 41.2208 37.1833 41.5221L39.6833 45.8554C39.9044 46.24 40.2691 46.521 40.6973 46.6366C41.1255 46.7523 41.5821 46.6931 41.9667 46.4721C42.3512 46.251 42.6323 45.8863 42.7479 45.4581C42.8635 45.0299 42.8044 44.5733 42.5833 44.1887L40.3333 40.2387Z" fill="#84A9C0"/>
<rect x="0.833252" y="0.855469" width="79" height="79" rx="39.5" stroke="#84A9C0"/>
</svg>
