<?xml version="1.0" standalone="no"?>
<!DOCTYPE svg PUBLIC "-//W3C//DTD SVG 20010904//EN"
 "http://www.w3.org/TR/2001/REC-SVG-20010904/DTD/svg10.dtd">
<svg version="1.0" xmlns="http://www.w3.org/2000/svg"
 width="1024.000000pt" height="1024.000000pt" viewBox="0 0 1024.000000 1024.000000"
 preserveAspectRatio="xMidYMid meet">

<g transform="translate(0.000000,1024.000000) scale(0.100000,-0.100000)"
fill="#000000" stroke="none">
<path d="M5127 8912 c-14 -6 2 -26 87 -111 57 -57 108 -102 112 -100 14 6 198
199 193 203 -8 7 -375 15 -392 8z"/>
<path d="M4930 8902 c0 -4 67 -74 150 -157 l149 -149 26 24 c14 13 24 30 23
36 -2 7 -54 67 -117 133 l-113 121 -59 0 c-33 0 -59 -3 -59 -8z"/>
<path d="M4770 8890 c0 -5 83 -94 184 -197 l184 -188 26 24 c14 14 26 29 26
34 0 5 -73 83 -162 173 l-162 164 -48 0 c-26 0 -48 -4 -48 -10z"/>
<path d="M4643 8883 c-24 -2 -43 -7 -43 -11 0 -4 101 -108 224 -231 238 -238
235 -236 276 -186 11 14 -3 32 -111 143 -68 70 -159 164 -203 210 -43 45 -83
81 -90 80 -6 -1 -30 -3 -53 -5z"/>
<path d="M4443 8851 c-51 -8 -93 -17 -93 -20 0 -11 545 -551 556 -551 5 0 33
24 62 53 l52 52 -238 237 c-130 131 -239 239 -242 241 -3 2 -47 -4 -97 -12z"/>
<path d="M5326 8541 c-298 -298 -344 -351 -304 -351 13 0 652 648 656 666 2 8
-3 14 -10 14 -7 0 -161 -148 -342 -329z"/>
<path d="M5785 8719 c-95 -95 -125 -119 -142 -116 -19 3 -22 1 -17 -17 4 -18
-38 -66 -236 -265 -180 -181 -238 -246 -231 -255 8 -10 71 47 253 230 223 225
243 242 259 228 22 -20 34 -2 17 26 -12 18 -2 30 115 148 70 70 127 131 127
135 0 24 -39 -7 -145 -114z"/>
<path d="M4161 8784 c-74 -19 -136 -36 -138 -38 -5 -4 667 -666 676 -666 3 0
43 37 89 83 l82 82 -288 287 -287 287 -134 -35z"/>
<path d="M5703 8374 c-224 -228 -409 -422 -411 -430 -2 -8 3 -14 11 -14 14 0
828 828 835 849 15 45 -78 -42 -435 -405z"/>
<path d="M3847 8686 c-64 -24 -121 -46 -124 -50 -8 -7 250 -270 440 -448 l118
-112 86 88 86 88 -239 239 c-131 132 -241 239 -244 239 -3 -1 -58 -20 -123
-44z"/>
<path d="M6140 8542 c-96 -97 -247 -251 -335 -342 -88 -91 -209 -216 -269
-277 -79 -81 -107 -116 -100 -123 8 -8 70 49 220 202 115 117 318 324 451 459
134 135 243 248 243 252 0 31 -61 -18 -210 -171z"/>
<path d="M6047 8171 c-262 -263 -477 -484 -477 -490 0 -6 6 -11 13 -11 17 0
956 945 965 971 15 42 -87 -53 -501 -470z"/>
<path d="M3547 8558 c-59 -29 -106 -56 -105 -60 2 -5 143 -148 313 -318 l310
-310 88 88 88 87 -284 283 c-156 155 -288 282 -293 282 -6 0 -58 -23 -117 -52z"/>
<path d="M6617 8574 c-3 -3 1 -17 10 -31 11 -17 19 -21 27 -13 7 7 4 16 -10
30 -11 11 -23 18 -27 14z"/>
<path d="M6720 8563 c1 -5 41 -50 89 -101 56 -58 92 -89 96 -81 5 6 -28 47
-81 100 -83 83 -105 100 -104 82z"/>
<path d="M6550 8502 c0 -14 238 -244 249 -241 11 4 -226 249 -241 249 -4 0 -8
-3 -8 -8z"/>
<path d="M3300 8427 c-131 -76 -150 -89 -150 -101 0 -7 17 -27 38 -45 20 -18
74 -69 119 -113 l81 -81 59 60 c32 33 75 78 96 100 l39 41 -92 88 c-51 49 -97
90 -103 92 -7 1 -46 -17 -87 -41z"/>
<path d="M6450 8402 c0 -17 248 -254 255 -243 4 7 -42 59 -117 131 -116 113
-138 131 -138 112z"/>
<path d="M6896 8251 c-134 -134 -161 -171 -125 -171 6 0 27 18 46 40 20 22 41
40 47 40 6 0 148 -137 316 -304 323 -323 360 -357 360 -333 0 8 -88 102 -196
208 -267 265 -448 448 -452 457 -1 4 18 25 43 45 25 21 45 45 45 52 0 8 5 15
12 15 6 0 91 -78 187 -172 96 -95 245 -242 330 -325 137 -136 181 -171 181
-145 0 4 -152 156 -337 338 l-338 331 29 25 c26 22 30 48 8 48 -4 0 -74 -67
-156 -149z"/>
<path d="M6039 7987 c-191 -188 -352 -352 -358 -364 -29 -57 -20 -72 141 -229
84 -82 231 -226 327 -321 96 -95 178 -170 183 -167 4 3 8 41 8 85 0 61 -9 114
-36 217 -32 120 -37 152 -37 252 0 99 4 126 27 195 42 123 87 188 219 318
l120 118 -119 120 c-65 65 -121 119 -124 118 -3 0 -161 -154 -351 -342z"/>
<path d="M3067 8272 c-7 -10 218 -252 234 -252 26 0 -2 36 -110 144 -65 65
-121 114 -124 108z"/>
<path d="M3447 8073 c-89 -92 -348 -354 -574 -582 -227 -228 -413 -417 -413
-421 0 -3 41 -46 90 -95 l90 -90 545 545 c300 300 562 565 582 588 l36 44 -89
89 c-49 49 -92 89 -97 89 -4 0 -81 -75 -170 -167z"/>
<path d="M4396 8130 c-42 -44 -76 -83 -76 -87 0 -5 38 -47 85 -93 l86 -85 86
88 87 88 -84 84 c-47 47 -90 85 -96 85 -6 0 -46 -36 -88 -80z"/>
<path d="M2950 8178 c0 -18 247 -264 256 -255 7 6 -22 40 -161 185 -66 70 -95
91 -95 70z"/>
<path d="M4835 8090 l-70 -71 120 -117 c66 -64 170 -164 230 -222 149 -142
386 -372 582 -562 89 -87 165 -158 170 -158 4 0 37 32 72 71 l64 71 -334 331
c-184 181 -424 419 -535 529 -111 109 -207 198 -215 198 -8 0 -46 -32 -84 -70z"/>
<path d="M2832 8091 c2 -4 62 -70 135 -145 82 -85 134 -132 138 -125 5 7 -45
64 -126 145 -120 120 -158 152 -147 125z"/>
<path d="M5510 8015 c0 -8 5 -15 10 -15 6 0 10 7 10 15 0 8 -4 15 -10 15 -5 0
-10 -7 -10 -15z"/>
<path d="M6653 8009 c-64 -32 -168 -123 -216 -191 -58 -82 -82 -131 -100 -204
-35 -138 -31 -221 22 -406 41 -145 44 -175 30 -279 l-13 -92 99 -94 c166 -155
211 -164 316 -65 l61 57 -146 148 c-132 134 -157 167 -124 167 6 0 73 -62 150
-137 76 -76 142 -139 147 -141 4 -1 54 45 111 103 l104 106 -182 182 c-170
171 -200 207 -169 207 6 0 94 -80 195 -178 l184 -178 146 149 c81 81 148 152
150 156 3 9 -676 684 -704 699 -16 9 -29 7 -61 -9z"/>
<path d="M3260 7445 c-316 -316 -576 -581 -578 -589 -3 -15 154 -186 171 -186
6 0 273 262 594 582 l583 583 -92 92 c-51 51 -95 93 -98 93 -3 0 -264 -259
-580 -575z"/>
<path d="M4186 7929 c-47 -45 -86 -84 -86 -88 0 -3 39 -46 86 -95 l85 -90 92
92 92 92 -85 85 c-46 47 -88 85 -92 85 -3 0 -45 -36 -92 -81z"/>
<path d="M2720 7992 c0 -14 279 -286 287 -279 7 8 -19 38 -167 190 -84 86
-120 113 -120 89z"/>
<path d="M4650 7908 c-38 -40 -70 -75 -70 -79 0 -3 55 -59 123 -125 228 -223
782 -761 877 -852 l95 -91 80 80 80 80 -56 52 c-31 28 -137 131 -235 227 -175
172 -601 582 -739 713 -38 37 -73 67 -78 67 -4 0 -39 -33 -77 -72z"/>
<path d="M2620 7888 c0 -6 57 -69 127 -140 86 -87 130 -125 137 -118 7 7 -31
52 -119 140 -72 71 -133 130 -137 130 -5 0 -8 -5 -8 -12z"/>
<path d="M2338 7639 c-117 -121 -214 -224 -216 -228 -3 -8 296 -306 302 -300
62 58 446 445 445 448 0 4 -30 20 -68 38 -85 41 -153 108 -197 195 -19 37 -38
68 -43 68 -5 0 -105 -99 -223 -221z"/>
<path d="M3473 7217 c-315 -315 -573 -579 -573 -588 0 -13 147 -158 169 -167
9 -3 1161 1151 1161 1164 0 15 -154 164 -170 164 -8 0 -273 -258 -587 -573z"/>
<path d="M4444 7713 c-35 -36 -64 -69 -64 -72 0 -3 68 -73 150 -155 168 -167
164 -165 200 -70 36 98 23 158 -52 240 -54 60 -135 124 -155 124 -9 0 -44 -30
-79 -67z"/>
<path d="M7616 7571 c-128 -128 -177 -184 -173 -195 4 -9 10 -16 15 -16 15 0
373 371 367 380 -4 6 -12 10 -18 10 -7 0 -93 -81 -191 -179z"/>
<path d="M7232 7656 c1 -10 8 -17 13 -17 15 1 12 24 -3 29 -9 3 -13 -2 -10
-12z"/>
<path d="M7835 7640 c-8 -13 4 -32 16 -25 12 8 12 35 0 35 -6 0 -13 -4 -16
-10z"/>
<path d="M3737 7008 c-633 -638 -634 -640 -625 -738 8 -76 49 -148 133 -231
42 -41 79 -75 84 -77 4 -1 306 297 670 664 l662 667 -80 79 c-67 67 -83 78
-98 69 -11 -5 -274 -267 -586 -581 -311 -315 -572 -570 -579 -568 -6 2 -13 9
-15 15 -2 6 257 274 577 596 l580 585 -56 51 c-30 28 -63 51 -72 51 -9 0 -277
-262 -595 -582z"/>
<path d="M7454 7043 c-291 -296 -614 -626 -719 -733 -241 -248 -458 -458 -503
-489 -82 -56 -194 -76 -273 -50 -57 20 -105 60 -348 297 -215 209 -261 248
-261 225 0 -5 116 -124 259 -266 301 -299 321 -313 446 -305 51 3 85 12 112
27 37 22 37 21 -18 -36 -30 -32 -192 -198 -360 -368 -560 -571 -889 -916 -889
-931 0 -36 45 0 200 161 568 589 2162 2222 2710 2778 107 108 195 203 195 209
0 6 -5 13 -11 15 -6 2 -249 -238 -540 -534z"/>
<path d="M4800 7502 c0 -48 -22 -114 -55 -164 l-24 -37 377 -370 377 -370 78
77 c42 42 77 82 77 89 0 6 -93 103 -207 215 -439 430 -549 537 -585 568 l-38
32 0 -40z"/>
<path d="M7973 7297 c-196 -199 -219 -225 -199 -233 10 -4 25 5 43 28 15 18
90 97 167 176 78 78 142 146 144 151 2 5 -1 12 -6 15 -5 3 -72 -59 -149 -137z"/>
<path d="M2038 7288 c-99 -118 -203 -277 -306 -469 l-51 -95 88 -88 c49 -49
93 -87 97 -85 5 2 120 117 256 254 l248 251 -78 77 c-43 42 -81 77 -86 77 -5
0 -51 -41 -103 -90 -52 -50 -98 -88 -104 -85 -19 13 -7 34 46 79 30 26 71 68
92 92 l36 45 -45 45 -45 46 -45 -54z"/>
<path d="M8165 7218 c-32 -35 -160 -166 -284 -293 -274 -279 -1098 -1121
-1380 -1410 -113 -115 -321 -327 -461 -470 -466 -473 -870 -897 -864 -907 3
-5 12 -8 19 -6 7 2 134 129 282 283 317 332 845 874 1547 1590 1300 1326 1233
1255 1219 1269 -12 12 -20 6 -78 -56z"/>
<path d="M4560 7133 c-69 -71 -320 -325 -558 -565 l-433 -437 366 -363 c202
-200 370 -364 374 -366 3 -1 42 34 86 78 l80 80 -93 93 c-50 51 -92 98 -92
105 0 31 42 5 125 -78 l90 -90 469 469 469 469 -279 274 c-397 388 -470 458
-475 458 -3 0 -61 -57 -129 -127z"/>
<path d="M7937 7133 c-15 -20 -25 -39 -22 -41 8 -8 65 50 65 65 0 22 -14 14
-43 -24z"/>
<path d="M7330 7116 c-13 -17 -6 -36 15 -36 19 0 26 27 11 39 -10 8 -17 7 -26
-3z"/>
<path d="M8320 7101 c-17 -22 -161 -168 -1189 -1214 -411 -417 -746 -765 -746
-774 0 -33 23 -21 85 44 36 38 168 174 295 303 127 129 419 429 650 665 231
237 522 534 646 660 251 255 299 307 299 324 0 17 -23 13 -40 -8z"/>
<path d="M7816 7001 c-22 -22 -35 -44 -31 -51 9 -15 14 -12 64 43 35 38 40 47
24 47 -10 0 -36 -18 -57 -39z"/>
<path d="M2149 6769 c-134 -138 -244 -255 -244 -259 0 -5 39 -49 87 -99 l88
-90 247 250 c137 138 248 257 248 265 0 18 -153 184 -170 184 -7 0 -123 -113
-256 -251z"/>
<path d="M6040 7013 c0 -10 533 -543 542 -543 5 0 8 6 8 13 0 14 -527 537
-541 537 -5 0 -9 -3 -9 -7z"/>
<path d="M7630 6952 c-152 -157 -164 -172 -154 -182 6 -6 48 32 123 111 69 73
110 124 104 130 -5 5 -34 -17 -73 -59z"/>
<path d="M8364 6867 c-44 -45 -265 -271 -490 -502 -225 -231 -611 -627 -859
-880 -247 -253 -540 -552 -650 -665 -110 -113 -340 -347 -511 -520 -397 -402
-411 -417 -395 -433 9 -9 25 2 74 53 111 117 1279 1309 1757 1795 608 616
1182 1209 1188 1226 2 5 -5 9 -15 9 -10 0 -54 -37 -99 -83z"/>
<path d="M5895 6870 c-5 -8 83 -102 261 -276 148 -145 272 -264 277 -264 4 0
7 3 7 8 0 4 -121 128 -269 276 -180 180 -271 264 -276 256z"/>
<path d="M2362 6547 l-253 -253 92 -98 92 -97 254 253 c139 139 253 257 253
263 0 10 -170 185 -180 185 -3 0 -119 -114 -258 -253z"/>
<path d="M8039 6258 c-282 -288 -623 -634 -757 -769 -167 -169 -240 -249 -231
-254 8 -6 102 83 288 272 908 921 1231 1253 1231 1262 0 6 -4 11 -9 11 -5 0
-239 -235 -522 -522z"/>
<path d="M5800 6752 c0 -13 524 -532 538 -532 6 0 12 4 12 8 0 13 -526 532
-539 532 -6 0 -11 -3 -11 -8z"/>
<path d="M7316 6626 c-49 -57 -54 -66 -33 -66 16 0 107 91 107 108 0 26 -31 9
-74 -42z"/>
<path d="M5700 6648 c0 -15 525 -538 539 -538 6 0 11 3 11 8 0 9 -533 542
-543 542 -4 0 -7 -5 -7 -12z"/>
<path d="M6894 6635 c-7 -18 3 -35 21 -35 18 0 26 25 12 39 -15 15 -27 14 -33
-4z"/>
<path d="M6785 6580 c-4 -6 -3 -16 3 -22 6 -6 12 -6 17 2 4 6 3 16 -3 22 -6 6
-12 6 -17 -2z"/>
<path d="M2580 6325 l-255 -255 85 -85 c46 -47 89 -85 95 -85 6 0 124 114 263
253 l253 253 -89 87 c-49 48 -91 87 -93 87 -2 0 -119 -115 -259 -255z"/>
<path d="M7804 5737 c-1465 -1485 -1557 -1578 -1544 -1591 8 -8 53 32 168 149
86 88 386 394 667 680 280 286 708 720 950 965 498 503 615 623 615 633 0 4
-6 7 -12 7 -7 0 -387 -379 -844 -843z"/>
<path d="M7336 6498 c-50 -56 -68 -88 -50 -88 9 0 134 133 134 143 0 22 -35
-1 -84 -55z"/>
<path d="M1617 6525 c-8 -18 11 -31 25 -17 11 11 3 32 -12 32 -4 0 -10 -7 -13
-15z"/>
<path d="M5560 6512 c0 -12 530 -532 542 -532 4 0 8 4 8 9 0 13 -518 525 -535
529 -8 2 -15 -1 -15 -6z"/>
<path d="M6934 6237 c-148 -149 -337 -342 -420 -427 -83 -85 -391 -402 -685
-705 -294 -302 -575 -593 -624 -645 -49 -52 -107 -114 -129 -137 -27 -29 -37
-46 -30 -53 7 -7 45 25 115 97 530 544 1966 2020 2009 2066 34 37 50 61 44 67
-6 6 -107 -89 -280 -263z"/>
<path d="M1624 6344 c-148 -156 -163 -174 -142 -174 12 0 150 136 283 278 34
36 36 42 18 42 -13 0 -68 -50 -159 -146z"/>
<path d="M1640 6245 l-195 -194 -28 -123 c-49 -218 -87 -541 -87 -748 l0 -45
121 120 c66 66 269 272 452 458 l331 338 -195 195 c-106 107 -196 194 -199
194 -3 0 -93 -88 -200 -195z"/>
<path d="M5460 6407 c0 -13 510 -527 523 -527 4 0 7 6 7 13 0 13 -510 527
-523 527 -4 0 -7 -6 -7 -13z"/>
<path d="M8601 6273 c-58 -60 -310 -315 -561 -568 -384 -388 -1498 -1517
-2033 -2062 -82 -83 -147 -155 -143 -161 5 -9 457 440 967 963 145 149 549
558 899 910 819 825 1000 1009 1000 1018 0 23 -36 -5 -129 -100z"/>
<path d="M6544 6326 c-7 -19 3 -36 22 -36 10 0 14 8 12 22 -4 26 -26 36 -34
14z"/>
<path d="M7834 5353 c-499 -505 -1137 -1148 -1417 -1430 l-509 -512 20 -28
c37 -52 69 -76 94 -70 22 6 245 228 1378 1372 304 308 747 754 982 991 235
236 428 437 428 446 0 34 -41 148 -54 148 -7 0 -422 -413 -922 -917z"/>
<path d="M5280 6216 c0 -17 27 -29 35 -16 4 6 3 15 0 20 -9 15 -35 12 -35 -4z"/>
<path d="M2954 6185 c-9 -23 10 -40 25 -22 9 11 8 17 -4 27 -12 10 -16 9 -21
-5z"/>
<path d="M2719 5993 c-82 -81 -149 -151 -149 -157 0 -6 117 -128 261 -271
l260 -260 145 149 c96 99 144 155 142 167 -3 20 -484 519 -500 519 -6 0 -77
-66 -159 -147z"/>
<path d="M6385 6131 c-3 -5 -1 -12 5 -16 12 -7 30 2 30 16 0 12 -27 12 -35 0z"/>
<path d="M3015 6120 c-10 -17 12 -37 25 -24 8 8 6 15 -4 23 -10 9 -16 9 -21 1z"/>
<path d="M5134 6099 c-41 -32 -964 -960 -964 -969 0 -3 26 -32 58 -63 l59 -58
480 486 c265 267 493 495 507 506 l26 20 40 -32 c22 -18 39 -36 38 -41 -3 -8
-76 -83 -661 -677 -249 -253 -336 -346 -327 -355 8 -8 50 29 158 139 80 83
306 311 501 507 l354 357 26 -18 c37 -27 64 -58 60 -70 -2 -6 -74 -81 -160
-168 -770 -781 -857 -873 -821 -873 4 0 234 230 511 511 l504 511 45 -45 45
-45 -365 -368 c-431 -435 -620 -630 -631 -650 -6 -10 -3 -14 10 -13 10 1 241
228 513 506 544 555 500 520 537 434 33 -77 43 -64 -474 -583 -275 -275 -473
-481 -469 -487 4 -6 13 -11 19 -11 18 0 929 914 950 952 25 47 22 124 -6 170
-31 52 -372 395 -426 430 -57 36 -89 35 -137 -3z"/>
<path d="M8266 6064 c-65 -79 -45 -91 26 -15 32 34 58 64 58 67 0 2 -8 4 -19
4 -10 0 -39 -24 -65 -56z"/>
<path d="M3454 6018 l-87 -85 21 -30 c32 -45 702 -703 716 -703 6 0 47 39 90
86 l79 86 -366 366 -366 366 -87 -86z"/>
<path d="M8210 5443 c-606 -609 -1396 -1405 -1888 -1904 -144 -146 -262 -271
-262 -277 0 -20 86 -102 106 -102 11 0 74 55 154 136 157 158 291 269 413 343
90 54 348 181 542 266 143 63 234 122 320 210 133 134 153 179 165 377 7 108
14 150 33 198 54 132 120 214 305 379 102 90 142 143 222 291 121 223 195 314
393 487 62 53 118 102 125 108 11 10 11 20 1 54 -7 22 -15 41 -18 41 -4 0
-279 -273 -611 -607z m-684 -1117 c-4 -71 -10 -86 -32 -86 -12 0 -14 7 -9 33
4 17 11 37 16 43 5 6 4 15 -1 20 -13 13 -1 54 16 54 11 0 13 -14 10 -64z"/>
<path d="M1795 5543 l-467 -468 6 -164 c3 -90 8 -166 11 -169 6 -6 1095 1078
1095 1089 0 10 -161 179 -170 179 -5 0 -218 -210 -475 -467z"/>
<path d="M5580 5922 c0 -10 41 -35 47 -28 9 8 -17 36 -33 36 -8 0 -14 -3 -14
-8z"/>
<path d="M3242 5878 c5 -34 38 -37 38 -4 0 20 -5 26 -21 26 -15 0 -20 -5 -17
-22z"/>
<path d="M8753 5814 c-220 -196 -262 -247 -368 -444 -94 -174 -139 -234 -262
-347 -171 -156 -211 -201 -254 -288 -32 -65 -42 -97 -50 -172 -5 -50 -9 -121
-7 -158 l3 -66 553 554 c541 543 552 555 552 593 0 49 -26 243 -33 250 -3 3
-40 -31 -82 -75 -73 -77 -105 -97 -105 -68 0 7 41 53 90 102 l91 90 -7 50 c-3
28 -10 54 -14 59 -5 4 -52 -31 -107 -80z"/>
<path d="M2334 5606 c-90 -92 -164 -171 -164 -176 0 -4 243 -253 539 -552
l540 -543 165 165 c91 91 166 171 166 178 0 8 -222 237 -494 510 -271 274
-506 511 -522 527 -65 69 -48 77 -230 -109z"/>
<path d="M5894 5639 c-10 -17 13 -36 27 -22 12 12 4 33 -11 33 -5 0 -12 -5
-16 -11z"/>
<path d="M3410 5555 l-84 -84 260 -261 c142 -143 264 -260 270 -260 15 0 174
165 174 181 0 18 -501 508 -520 509 -9 0 -53 -38 -100 -85z"/>
<path d="M7352 5436 c-40 -38 -72 -73 -72 -78 0 -22 31 -2 89 56 89 90 74 110
-17 22z"/>
<path d="M3210 5355 l-85 -85 101 -103 c56 -56 171 -173 256 -259 85 -87 159
-158 164 -158 13 0 174 150 174 162 0 8 -515 528 -523 528 -1 0 -41 -38 -87
-85z"/>
<path d="M2091 5349 c-20 -22 -20 -22 0 -48 11 -14 228 -234 481 -488 365
-367 456 -464 442 -470 -13 -5 -121 99 -493 476 -262 265 -481 481 -487 481
-6 0 -30 -23 -54 -51 l-43 -51 99 -101 c234 -241 980 -987 986 -987 14 0 178
163 178 177 0 18 -1058 1083 -1076 1083 -7 0 -22 -10 -33 -21z"/>
<path d="M8793 5228 c-68 -67 -123 -124 -123 -128 0 -11 98 -102 107 -99 4 2
43 40 86 85 l77 80 0 76 c0 75 -6 108 -19 108 -3 0 -61 -55 -128 -122z"/>
<path d="M1845 5110 l-49 -50 99 -103 c154 -157 831 -840 913 -920 l72 -71 45
44 c25 24 45 50 45 56 0 17 -1053 1094 -1070 1094 -3 0 -28 -23 -55 -50z"/>
<path d="M6455 4649 c-851 -872 -878 -900 -866 -912 8 -8 26 3 65 43 29 30
142 147 252 260 109 113 346 356 525 540 534 549 535 550 512 557 -5 2 -224
-218 -488 -488z"/>
<path d="M5465 5119 c-4 -6 -4 -13 -1 -16 8 -8 36 5 36 17 0 13 -27 13 -35 -1z"/>
<path d="M8866 5038 l-67 -73 66 -63 c37 -35 69 -62 71 -60 5 6 7 259 1 264
-2 3 -35 -28 -71 -68z"/>
<path d="M3890 4865 l-195 -195 285 -285 c157 -157 289 -285 293 -285 12 0
397 381 397 392 0 16 -555 568 -570 568 -9 0 -103 -88 -210 -195z"/>
<path d="M8624 5029 c-5 -9 37 -56 141 -156 138 -133 165 -155 165 -135 0 4
-67 74 -149 156 -107 106 -151 145 -157 135z"/>
<path d="M1725 4990 l-28 -30 63 -67 c110 -117 293 -306 659 -681 l354 -363
41 40 41 41 -386 387 c-212 214 -455 459 -539 546 -84 86 -159 157 -165 157
-6 0 -24 -13 -40 -30z"/>
<path d="M6224 4958 c-32 -35 -250 -260 -484 -501 -234 -241 -425 -444 -425
-450 0 -7 5 -12 11 -12 10 0 416 412 856 869 103 106 138 156 110 156 -5 0
-35 -28 -68 -62z"/>
<path d="M8482 4886 c2 -8 95 -107 207 -221 136 -138 207 -203 213 -197 7 7
-59 80 -197 221 -115 116 -212 211 -217 211 -5 0 -8 -6 -6 -14z"/>
<path d="M1501 4748 c-92 -94 -136 -146 -130 -153 11 -11 289 262 289 283 0
27 -26 6 -159 -130z"/>
<path d="M8414 4809 c-10 -17 13 -36 27 -22 12 12 4 33 -11 33 -5 0 -12 -5
-16 -11z"/>
<path d="M1562 4610 c-114 -117 -170 -180 -162 -185 14 -9 372 343 364 357 -3
4 -11 7 -17 7 -7 -1 -90 -82 -185 -179z"/>
<path d="M8330 4732 c0 -4 119 -126 264 -271 176 -176 266 -259 271 -251 5 8
-81 101 -251 271 -231 231 -284 278 -284 251z"/>
<path d="M1641 4475 c-177 -182 -221 -235 -193 -235 9 0 413 416 413 427 1 27
-40 -8 -220 -192z"/>
<path d="M1841 4506 c-57 -57 -102 -108 -100 -114 2 -5 180 -188 395 -405
l391 -395 108 108 108 108 -22 29 c-32 40 -761 773 -769 773 -4 0 -54 -47
-111 -104z"/>
<path d="M8169 4594 c-11 -14 26 -54 301 -324 173 -170 319 -309 323 -309 4
-1 10 6 14 15 4 12 -80 102 -303 325 -170 170 -312 309 -315 309 -4 0 -13 -7
-20 -16z"/>
<path d="M3547 4522 c-42 -42 -77 -82 -77 -87 0 -6 128 -138 285 -295 l285
-285 80 80 c44 44 80 86 80 95 0 19 -544 570 -562 570 -7 0 -48 -35 -91 -78z"/>
<path d="M8047 4464 c-6 -6 655 -665 674 -672 37 -14 -33 62 -321 349 -182
181 -334 329 -338 329 -5 0 -11 -3 -15 -6z"/>
<path d="M4692 4397 c-18 -18 -32 -37 -32 -42 0 -5 70 -80 156 -166 137 -139
168 -179 134 -179 -5 0 -77 70 -161 155 -84 85 -157 155 -164 155 -6 0 -50
-40 -98 -89 -123 -125 -150 -196 -108 -286 12 -25 98 -119 229 -249 l211 -210
20 25 c11 13 20 26 21 29 0 3 -101 106 -225 230 -124 124 -225 230 -225 237 0
7 6 13 13 13 7 0 116 -103 242 -230 l230 -229 168 167 c92 92 167 171 167 175
0 17 -513 527 -530 527 -9 0 -30 -15 -48 -33z"/>
<path d="M3367 4335 c-57 -62 -58 -65 -43 -87 25 -36 539 -548 551 -548 10 0
125 117 125 128 0 8 -563 572 -570 571 -3 0 -31 -29 -63 -64z"/>
<path d="M7951 4357 c-8 -10 49 -72 257 -278 408 -405 451 -444 463 -432 8 8
-85 108 -341 367 -194 196 -356 356 -360 356 -4 0 -12 -6 -19 -13z"/>
<path d="M1590 4246 l-114 -115 74 -78 c41 -43 218 -224 393 -403 l318 -325
116 118 116 117 -39 43 c-21 24 -199 204 -394 400 l-355 357 -115 -114z"/>
<path d="M7795 4220 c-10 -16 776 -803 790 -789 6 6 -130 149 -386 405 -258
258 -399 392 -404 384z"/>
<path d="M3173 4142 l-81 -77 49 -55 c74 -81 102 -148 107 -247 3 -56 -1 -99
-13 -139 l-17 -57 319 -319 318 -319 32 38 c83 98 118 207 111 348 -6 104 -32
176 -95 254 -41 51 -634 651 -642 651 -4 -1 -43 -35 -88 -78z"/>
<path d="M7706 4122 c-3 -6 65 -82 152 -169 l157 -159 84 -165 84 -164 131
-132 c71 -73 134 -133 138 -133 5 0 11 7 15 16 4 11 -35 57 -128 152 -130 133
-136 141 -206 277 -78 151 -89 164 -310 378 -61 60 -114 104 -117 99z"/>
<path d="M5940 3845 c-159 -161 -220 -229 -212 -237 12 -12 -9 -31 255 238
179 183 214 224 189 224 -5 0 -109 -101 -232 -225z"/>
<path d="M1486 4025 c11 -70 120 -385 183 -525 63 -143 194 -390 240 -452 l28
-38 147 147 146 147 -349 350 c-192 193 -361 365 -375 381 l-27 30 7 -40z"/>
<path d="M4275 4050 c-4 -7 0 -19 9 -28 15 -15 18 -15 26 -2 5 8 8 20 7 25 -5
15 -34 18 -42 5z"/>
<path d="M7614 4019 c-10 -17 13 -36 27 -22 12 12 4 33 -11 33 -5 0 -12 -5
-16 -11z"/>
<path d="M3055 3970 c-6 -10 25 -50 40 -50 12 0 4 28 -14 44 -13 12 -21 14
-26 6z"/>
<path d="M7455 3909 c-4 -6 -5 -11 -4 -13 2 -1 28 -17 57 -35 107 -68 171
-164 241 -366 23 -66 58 -163 77 -215 l35 -95 181 -182 c99 -101 185 -180 190
-177 11 7 -6 26 -203 229 -99 102 -137 149 -142 172 -6 29 -71 206 -133 363
-15 36 -29 72 -32 80 -3 8 137 -131 312 -308 175 -177 322 -322 327 -322 35 0
-39 83 -389 437 -305 309 -407 407 -442 423 -52 22 -66 24 -75 9z"/>
<path d="M2947 3903 c-13 -12 -7 -21 27 -41 19 -11 42 -32 52 -47 42 -64 37
-188 -11 -259 -20 -29 -21 -37 -10 -46 11 -9 18 -7 32 9 53 63 71 216 34 290
-32 62 -103 116 -124 94z"/>
<path d="M4310 3876 c0 -15 24 -28 34 -19 13 14 5 33 -14 33 -11 0 -20 -6 -20
-14z"/>
<path d="M5112 3650 l-211 -213 69 -76 c37 -42 98 -105 134 -141 l66 -65 210
210 c116 115 210 214 210 218 0 5 -22 32 -50 60 l-49 52 -135 -135 c-106 -104
-138 -132 -148 -122 -9 9 18 41 121 146 l133 134 -69 73 -70 73 -211 -214z"/>
<path d="M7210 3815 c-30 -13 -98 -42 -150 -65 -123 -54 -325 -165 -420 -231
-70 -48 -430 -397 -430 -416 0 -17 86 -92 124 -108 43 -18 79 -14 141 18 25
12 188 169 432 416 216 218 393 399 393 404 0 13 -35 7 -90 -18z"/>
<path d="M7805 3790 c-8 -13 3 -30 21 -30 18 0 18 14 0 29 -10 8 -16 9 -21 1z"/>
<path d="M7360 3782 c0 -16 238 -244 244 -233 8 12 -210 241 -230 241 -8 0
-14 -3 -14 -8z"/>
<path d="M3154 3769 c-10 -17 13 -36 27 -22 12 12 4 33 -11 33 -5 0 -12 -5
-16 -11z"/>
<path d="M4345 3724 c-44 -30 -99 -75 -122 -100 -46 -49 -103 -154 -103 -190
0 -13 -4 -26 -10 -29 -5 -3 -10 1 -10 10 0 21 -41 101 -95 186 -32 48 -49 67
-60 63 -22 -9 -20 -16 31 -94 97 -150 134 -266 134 -420 0 -151 -47 -287 -140
-405 -17 -22 -216 -226 -443 -453 -370 -371 -409 -414 -396 -428 14 -14 52 21
382 353 201 202 393 397 427 432 121 124 190 263 210 423 5 45 10 88 10 95 0
7 12 13 26 13 l26 0 -7 -77 c-8 -83 -35 -184 -66 -245 -23 -45 -24 -58 -4 -58
16 0 619 590 637 624 9 16 -14 42 -159 187 -93 93 -173 169 -179 169 -5 -1
-45 -26 -89 -56z"/>
<path d="M2896 3755 c-3 -9 1 -18 10 -22 19 -7 28 2 21 22 -8 19 -23 19 -31 0z"/>
<path d="M4220 3731 c-46 -22 -69 -26 -142 -26 -55 0 -92 -5 -100 -13 -21 -21
1 -27 100 -27 87 0 103 3 155 29 52 27 70 48 50 59 -5 2 -33 -8 -63 -22z"/>
<path d="M2627 3592 l-148 -149 131 -129 c72 -71 135 -130 139 -132 15 -5 122
119 143 165 32 72 30 180 -4 255 -29 63 -85 138 -102 138 -6 0 -78 -67 -159
-148z"/>
<path d="M7334 3699 c-10 -17 13 -36 27 -22 12 12 4 33 -11 33 -5 0 -12 -5
-16 -11z"/>
<path d="M7875 3690 c-4 -6 -3 -16 3 -22 6 -6 12 -6 17 2 4 6 3 16 -3 22 -6 6
-12 6 -17 -2z"/>
<path d="M7970 3624 c-9 -10 -10 -18 -2 -26 12 -12 32 -2 32 17 0 21 -16 26
-30 9z"/>
<path d="M7200 3610 c0 -12 350 -380 656 -690 192 -194 245 -242 255 -233 10
10 -23 49 -156 185 -382 390 -739 748 -747 748 -4 0 -8 -4 -8 -10z"/>
<path d="M7420 3600 c-12 -7 -12 -12 -2 -22 9 -9 15 -9 24 0 16 16 -2 34 -22
22z"/>
<path d="M7130 3545 c0 -8 7 -15 15 -15 8 0 15 7 15 15 0 8 -7 15 -15 15 -8 0
-15 -7 -15 -15z"/>
<path d="M5426 3330 l-207 -210 19 -28 c11 -15 32 -38 46 -51 l26 -24 182 179
c101 98 187 184 191 191 10 17 37 17 37 1 0 -7 -86 -99 -191 -204 l-192 -192
19 -24 c11 -12 52 -54 92 -92 l72 -69 62 58 c107 99 358 359 358 371 0 14
-282 304 -296 304 -6 0 -104 -95 -218 -210z"/>
<path d="M3107 3437 l-78 -81 249 -251 c137 -137 277 -280 312 -318 l64 -68
83 83 c46 45 83 85 83 88 0 12 -613 630 -624 629 -6 0 -46 -37 -89 -82z"/>
<path d="M8370 3451 c0 -12 5 -21 10 -21 6 0 10 6 10 14 0 8 -4 18 -10 21 -5
3 -10 -3 -10 -14z"/>
<path d="M7655 3390 c-7 -12 2 -30 16 -30 12 0 12 27 0 35 -5 3 -12 1 -16 -5z"/>
<path d="M4508 3073 c-169 -169 -308 -314 -308 -323 0 -8 63 -78 140 -155
l140 -140 315 315 c173 173 315 319 315 325 0 13 -272 285 -285 285 -5 0 -148
-138 -317 -307z"/>
<path d="M6946 3362 c-5 -8 904 -933 917 -932 5 0 7 6 5 14 -3 15 -870 896
-899 914 -10 6 -20 8 -23 4z"/>
<path d="M2891 3219 l-94 -101 314 -314 314 -314 100 100 100 100 -85 87
c-239 248 -536 543 -545 543 -5 0 -52 -46 -104 -101z"/>
<path d="M6885 3290 c-7 -12 2 -30 16 -30 12 0 12 27 0 35 -5 3 -12 1 -16 -5z"/>
<path d="M2310 3269 c0 -16 262 -279 272 -273 13 8 0 25 -129 158 -116 119
-143 141 -143 115z"/>
<path d="M7266 3242 c-6 -10 685 -702 702 -702 7 0 12 4 12 8 0 9 -685 695
-699 700 -5 2 -12 -1 -15 -6z"/>
<path d="M2490 3231 c0 -5 6 -14 14 -20 16 -13 32 2 21 19 -8 12 -35 13 -35 1z"/>
<path d="M8042 3206 c1 -10 8 -17 13 -17 15 1 12 24 -3 29 -9 3 -13 -2 -10
-12z"/>
<path d="M5770 2975 l-215 -215 145 -145 145 -145 208 207 c115 114 212 214
217 223 6 12 -10 34 -71 95 l-79 80 -170 -170 c-135 -135 -172 -167 -182 -157
-10 10 22 47 157 182 l169 170 -44 45 c-24 25 -49 45 -55 45 -5 0 -107 -97
-225 -215z"/>
<path d="M6916 3183 c-4 -5 -100 -57 -213 -118 -114 -60 -204 -114 -202 -120
2 -5 16 -9 30 -9 22 1 68 -39 265 -237 159 -160 241 -236 248 -229 7 7 -66 86
-219 240 -127 127 -231 235 -233 240 -2 5 37 30 87 54 72 37 92 43 98 32 4 -8
73 -81 153 -163 80 -82 169 -174 198 -206 29 -31 57 -57 63 -57 31 0 -13 53
-202 245 l-211 214 87 42 87 42 191 -191 c106 -106 196 -192 200 -192 25 0
-17 48 -192 225 -180 180 -215 208 -235 188z"/>
<path d="M2178 3145 c-3 -3 55 -67 130 -141 91 -90 139 -131 146 -124 6 6 -33
53 -119 140 -120 121 -143 139 -157 125z"/>
<path d="M2686 3014 l-58 -64 307 -315 c169 -173 310 -315 314 -315 4 0 37 30
73 68 l67 67 -305 313 c-168 171 -313 312 -322 312 -10 -1 -43 -30 -76 -66z"/>
<path d="M8140 3055 c0 -8 7 -15 15 -15 8 0 15 7 15 15 0 8 -7 15 -15 15 -8 0
-15 -7 -15 -15z"/>
<path d="M2022 3005 l-52 -50 89 -110 c49 -60 109 -131 133 -157 l43 -48 57
63 57 64 -138 144 -138 144 -51 -50z"/>
<path d="M4401 2305 c-405 -404 -732 -737 -729 -740 12 -12 222 -86 343 -121
l120 -34 664 665 665 665 -149 150 c-82 82 -156 150 -164 150 -9 0 -346 -331
-750 -735z"/>
<path d="M2432 2757 c-83 -84 -152 -158 -152 -165 0 -42 600 -592 645 -592 6
0 74 64 152 143 l143 142 -306 313 c-168 171 -311 312 -317 312 -7 0 -81 -69
-165 -153z"/>
<path d="M6113 2658 c-123 -123 -223 -228 -223 -233 0 -15 253 -265 268 -265
16 0 432 420 432 437 0 7 -29 43 -64 80 l-65 68 -150 -150 c-120 -119 -153
-147 -163 -137 -10 10 19 43 140 160 l153 147 -53 58 -53 58 -222 -223z"/>
<path d="M7314 2650 c-49 -50 -89 -95 -89 -100 0 -12 367 -381 376 -378 3 2
49 44 102 93 l96 90 -191 193 c-104 105 -193 192 -197 192 -4 0 -48 -41 -97
-90z"/>
<path d="M4841 2046 l-654 -655 44 -11 c61 -17 322 -67 392 -75 l58 -7 547
552 c301 304 548 556 550 559 3 8 -266 291 -277 291 -3 0 -301 -294 -660 -654z
m749 457 c0 -24 -472 -495 -484 -483 -11 11 30 57 273 306 102 106 192 192
199 193 6 1 12 -7 12 -16z"/>
<path d="M4052 2521 c-81 -87 -118 -132 -110 -137 8 -5 56 39 135 121 108 113
131 145 105 145 -4 0 -63 -58 -130 -129z"/>
<path d="M6762 2596 c1 -10 8 -17 13 -17 15 1 12 24 -3 29 -9 3 -13 -2 -10
-12z"/>
<path d="M6420 2338 c-118 -121 -216 -224 -218 -227 -1 -4 21 -33 50 -65 l53
-58 220 221 c121 122 221 225 223 229 1 4 -24 33 -55 64 l-58 56 -215 -220z"/>
<path d="M3873 2464 c-80 -82 -96 -104 -72 -104 11 0 170 163 177 181 2 5 -2
9 -10 8 -7 0 -50 -38 -95 -85z"/>
<path d="M4149 2370 c-150 -157 -185 -200 -162 -200 4 0 67 60 138 133 200
204 210 216 199 227 -7 7 -62 -42 -175 -160z"/>
<path d="M7130 2466 c-29 -30 -52 -57 -52 -61 0 -4 80 -87 177 -186 l176 -179
57 43 c31 23 61 45 66 49 9 6 -349 388 -364 388 -5 0 -31 -24 -60 -54z"/>
<path d="M6552 2188 l-223 -222 53 -53 53 -53 229 225 229 225 -50 50 c-28 27
-54 50 -59 50 -5 0 -109 -100 -232 -222z"/>
<path d="M6982 2317 l-62 -62 168 -175 168 -174 67 53 c37 30 67 57 65 61 -2
4 -80 87 -173 184 l-171 176 -62 -63z"/>
<path d="M5284 1834 c-285 -290 -520 -530 -522 -534 -6 -16 53 -22 278 -27
l235 -5 405 406 c223 223 407 411 409 417 5 15 -250 269 -270 269 -8 0 -249
-237 -535 -526z"/>
<path d="M3651 2106 c-137 -137 -199 -206 -191 -211 8 -5 82 62 216 196 112
112 204 207 204 211 0 26 -47 -14 -229 -196z"/>
<path d="M4037 2166 c-43 -46 -77 -87 -77 -90 0 -3 6 -6 13 -6 13 0 167 161
167 174 0 23 -38 -6 -103 -78z"/>
<path d="M6823 2168 l-62 -61 152 -158 151 -158 57 31 c32 18 68 40 80 49 l23
17 -164 169 c-90 92 -166 169 -169 170 -3 1 -34 -25 -68 -59z"/>
<path d="M3273 2208 c2 -7 10 -13 17 -13 7 0 15 6 18 13 2 7 -5 12 -18 12 -13
0 -20 -5 -17 -12z"/>
<path d="M6665 2010 l-59 -60 129 -132 c71 -73 130 -134 131 -136 4 -7 154 80
154 88 0 10 -279 300 -289 300 -4 0 -33 -27 -66 -60z"/>
<path d="M5916 1836 l-217 -216 122 -120 c68 -66 125 -119 128 -118 3 0 100
97 216 215 l210 213 -121 121 -121 121 -217 -216z"/>
<path d="M3675 1850 c-122 -122 -176 -183 -169 -190 12 -12 82 53 255 233 72
75 109 121 103 127 -6 6 -74 -55 -189 -170z"/>
<path d="M3352 1946 c1 -10 8 -17 13 -17 15 1 12 24 -3 29 -9 3 -13 -2 -10
-12z"/>
<path d="M6521 1859 l-54 -61 106 -106 107 -107 75 38 76 37 -122 130 c-67 72
-125 130 -128 130 -4 0 -31 -27 -60 -61z"/>
<path d="M3340 1805 c-37 -38 -41 -45 -26 -51 12 -5 29 5 57 36 35 37 43 60
20 60 -4 0 -27 -20 -51 -45z"/>
<path d="M6217 1579 c-103 -106 -187 -195 -187 -199 0 -24 550 145 595 182 12
10 -183 208 -206 208 -9 0 -100 -86 -202 -191z"/>
<path d="M5516 1434 l-148 -154 50 0 c98 0 458 54 476 71 8 7 -210 240 -224
238 -3 0 -72 -70 -154 -155z"/>
</g>
</svg>
