<svg xmlns="http://www.w3.org/2000/svg" version="1.1" xmlns:xlink="http://www.w3.org/1999/xlink" xmlns:svgjs="http://svgjs.com/svgjs" width="512" height="512" x="0" y="0" viewBox="0 0 512 512" style="enable-background:new 0 0 512 512" xml:space="preserve" class=""><g><g data-name="Firewall Web protection"><rect width="362.05" height="285.94" x="92.1" y="100.39" fill="#1d1160" rx="7.66" transform="rotate(180 273.12 243.355)" data-original="#2351fb" opacity="1" class=""></rect><circle cx="113.57" cy="114.9" r="4.41" fill="#ffffff" data-original="#ffffff"></circle><circle cx="133" cy="114.9" r="4.41" fill="#ffffff" data-original="#ffffff"></circle><circle cx="152.44" cy="114.9" r="4.41" fill="#ffffff" data-original="#ffffff"></circle><path fill="#ffffff" d="M453.13 132.34H92.1a.5.5 0 0 1 0-1h361a.5.5 0 0 1 0 1z" data-original="#ffffff"></path><rect width="100.02" height="83.21" x="105.29" y="262.06" fill="#ffffff" rx="3.54" data-original="#ffffff"></rect><path fill="#1d1160" d="M111.77 322.06s21.9-18.91 31.67-23.93 16.63 17.42 22.17 18.74 11.09-17 20.06-19.47 14 24.66 14 24.66v11.18h-87.9z" data-original="#2351fb" opacity="1" class=""></path><circle cx="170.01" cy="285.46" r="8.27" fill="#1d1160" data-original="#2351fb" opacity="1" class=""></circle><g fill="#fff"><rect width="75.2" height="4.88" x="220.37" y="154.22" rx="1.07" fill="#ffffff" data-original="#ffffff"></rect><rect width="40.94" height="4.88" x="220.69" y="181.32" rx="1.07" fill="#ffffff" data-original="#ffffff"></rect><rect width="216.53" height="4.88" x="220.69" y="208.42" rx="1.07" fill="#ffffff" data-original="#ffffff"></rect><rect width="150.53" height="4.88" x="220.69" y="262.62" rx="1.07" fill="#ffffff" data-original="#ffffff"></rect><rect width="55.78" height="4.88" x="381.13" y="262.62" rx="1.65" fill="#ffffff" data-original="#ffffff"></rect><rect width="134.8" height="4.88" x="302.42" y="154.22" rx="1.07" fill="#ffffff" data-original="#ffffff"></rect><rect width="151.45" height="4.88" x="285.77" y="181.32" rx="1.07" fill="#ffffff" data-original="#ffffff"></rect><rect width="128.56" height="4.88" x="220.37" y="236.47" rx="1.07" fill="#ffffff" data-original="#ffffff"></rect><rect width="76.58" height="4.88" x="360.64" y="236.47" rx="1.07" fill="#ffffff" data-original="#ffffff"></rect><rect width="216.53" height="4.88" x="220.69" y="286.18" rx="1.07" fill="#ffffff" data-original="#ffffff"></rect><rect width="150.53" height="4.88" x="220.69" y="340.38" rx="1.07" fill="#ffffff" data-original="#ffffff"></rect><rect width="55.78" height="4.88" x="381.13" y="340.38" rx="1.65" fill="#ffffff" data-original="#ffffff"></rect><rect width="128.56" height="4.88" x="220.37" y="314.23" rx="1.07" fill="#ffffff" data-original="#ffffff"></rect><rect width="76.58" height="4.88" x="360.64" y="314.23" rx="1.07" fill="#ffffff" data-original="#ffffff"></rect><path d="M137 193.21a2.23 2.23 0 0 1-1.49-.56l-21.75-18.8a2.27 2.27 0 0 1-.3-3.14L129.84 150a2.28 2.28 0 1 1 3.57 2.84l-15 19 20.09 17.37a2.28 2.28 0 0 1-1.5 4zM171.08 193.21a2.29 2.29 0 0 1-1.49-4l20.1-17.37-15.06-19a2.28 2.28 0 1 1 3.58-2.84l16.41 20.72a2.28 2.28 0 0 1-.29 3.14l-21.75 18.8a2.26 2.26 0 0 1-1.5.55zM149.35 194.37a2.28 2.28 0 0 1-2.21-2.87L158.6 149a2.28 2.28 0 1 1 4.4 1.19l-11.45 42.54a2.27 2.27 0 0 1-2.2 1.64z" fill="#ffffff" data-original="#ffffff"></path></g><path fill="#00788c" d="M55.37 420.16h95.42v36.86H55.37z" data-original="#e67925" class="" opacity="1"></path><path fill="#a1a1a4" d="M149.43 420.16h95.42v36.86h-95.42z" data-original="#fdc500" class="" opacity="1"></path><path fill="#00788c" d="M243.88 420.16h95.42v36.86h-95.42z" data-original="#e67925" class="" opacity="1"></path><path fill="#a1a1a4" d="M30.51 383.3h95.42v36.86H30.51z" data-original="#fdc500" class="" opacity="1"></path><path fill="#00788c" d="M124.57 383.3h95.42v36.86h-95.42z" data-original="#e67925" class="" opacity="1"></path><path fill="#a1a1a4" d="M219.02 383.3h95.42v36.86h-95.42z" data-original="#fdc500" class="" opacity="1"></path><path fill="#00788c" d="M55.17 346.66h95.42v36.86H55.17z" data-original="#e67925" class="" opacity="1"></path><path fill="#a1a1a4" d="M149.23 346.66h95.42v36.86h-95.42z" data-original="#fdc500" class="" opacity="1"></path><path fill="#00788c" d="M243.68 346.66h95.42v36.86h-95.42z" data-original="#e67925" class="" opacity="1"></path><path fill="#a1a1a4" d="M55.17 309.8h95.42v36.86H55.17z" data-original="#fdc500" class="" opacity="1"></path><path fill="#00788c" d="M149.23 309.8h95.42v36.86h-95.42z" data-original="#e67925" class="" opacity="1"></path><path fill="#68003c" d="M54.9 457h78.62a29.67 29.67 0 0 0 23-10.91c8.48-10.41 17.36-26.63 7-41.28-16.92-24-3-36.67-3-36.67s-23.77.71-25.92 24.68c0 0 5.61-30.32-8.5-42.31s-21.65-31.18-21.65-31.18-23.32 16.37-16 41.76c0 0-23.19-2.82-24.86-25.39 0 0-11 21.16 0 40.2s-7.32 32.44-7.32 32.44-26-11.04-18.27-43.24c0 0-22.26 17.17-22.06 43.26.16 21.53 9.28 23.86 18.82 37.87A24.36 24.36 0 0 0 54.9 457z" data-original="#68003c"></path><path fill="#a1a1a4" d="m351.49 85.49 6.22 48.66c4.07 31.81 19.84 59.85 43.07 76.59l26.14 18.84 25-20c20.09-16.08 33.58-41.35 37.2-69.71l6.9-54C471.21 82 448.5 71 429.3 55a284.57 284.57 0 0 1-77.81 30.49z" data-original="#fdc500" class="" opacity="1"></path><path fill="#00788c" d="M404.64 205.41c-21.82-15.73-36.54-42-40.39-72.09l-5.47-42.81a291.36 291.36 0 0 0 69.87-27.62 143.33 143.33 0 0 0 60.1 28.31l-6.12 47.8c-3.4 26.59-16.07 50.44-34.78 65.41l-21.12 16.91z" data-original="#e67925" class="" opacity="1"></path><path fill="#a1a1a4" d="m399.33 138.88 18.36 29.78q15.26-28 30.5-56.07L416.75 148z" data-original="#fdc500" class="" opacity="1"></path></g></g></svg>