<svg xmlns="http://www.w3.org/2000/svg" version="1.1" xmlns:xlink="http://www.w3.org/1999/xlink" xmlns:svgjs="http://svgjs.com/svgjs" width="512" height="512" x="0" y="0" viewBox="0 0 512 512" style="enable-background:new 0 0 512 512" xml:space="preserve" class=""><g><g data-name="Responsive design (computer, tablet, mobile)"><path fill="#1d1160" d="M295.03 378.84h-47.8l19.74-70.65h45.2z" data-original="#68003c" class="" opacity="1"></path><path fill="#a1a1a4" d="M429.17 349H175.09a5.93 5.93 0 0 1-5.76-5.72l-10-160.39a6 6 0 0 1 5.76-6.53H414a5.91 5.91 0 0 1 5.74 5.51l15.21 160.39a6 6 0 0 1-5.78 6.74z" data-original="#2351fb" class="" opacity="1"></path><path fill="#1d1160" d="m178.44 311.31-9.53-125.61h241.82l14.49 125.61z" data-original="#68003c" class="" opacity="1"></path><circle cx="306.17" cy="329" r="12.31" fill="#ffffff" data-original="#ffffff" class=""></circle><rect width="71.47" height="145.7" x="417.56" y="266.69" fill="#e67925" rx="8.82" data-original="#e67925" class=""></rect><rect width="61.84" height="136.08" x="422.38" y="271.5" fill="#00788c" rx="3.68" data-original="#fdc500" class="" opacity="1"></rect><path fill="#ffffff" d="M249.65 216H191.5a1.49 1.49 0 0 1-1.4-1.14l-.06-.28a.91.91 0 0 1 .93-1.14h58.08a1.55 1.55 0 0 1 1.44 1.14l.06.28a.89.89 0 0 1-.9 1.14zM236 230.33h-24.41a1.53 1.53 0 0 1-1.43-1.15l-.06-.28a.91.91 0 0 1 .93-1.15h24.36a1.53 1.53 0 0 1 1.43 1.15l.07.28a.9.9 0 0 1-.89 1.15zM283.28 244.78h-68.56a1.54 1.54 0 0 1-1.44-1.16l-.06-.29a.92.92 0 0 1 .93-1.16h68.49a1.59 1.59 0 0 1 1.47 1.16l.07.29a.89.89 0 0 1-.9 1.16zM346.23 274.16H221.08a1.55 1.55 0 0 1-1.45-1.19l-.07-.29a.93.93 0 0 1 .94-1.19h125a1.64 1.64 0 0 1 1.5 1.19l.08.29a.88.88 0 0 1-.85 1.19zM269.8 289.09h-45.49a1.56 1.56 0 0 1-1.46-1.2l-.06-.3a.94.94 0 0 1 .94-1.2h45.44a1.61 1.61 0 0 1 1.48 1.2l.07.3a.92.92 0 0 1-.92 1.2zM291.18 216h-33.69a1.54 1.54 0 0 1-1.43-1.14l-.07-.28a.89.89 0 0 1 .9-1.14h33.66a1.58 1.58 0 0 1 1.45 1.14l.07.28a.88.88 0 0 1-.89 1.14zM367.52 230.33H247.39a1.55 1.55 0 0 1-1.44-1.15l-.06-.28a.89.89 0 0 1 .91-1.15h120a1.64 1.64 0 0 1 1.49 1.15l.08.28a.86.86 0 0 1-.85 1.15zM299.43 289.09h-18.16a1.61 1.61 0 0 1-1.49-1.2l-.07-.3a.92.92 0 0 1 .92-1.2h18.14a1.63 1.63 0 0 1 1.49 1.2l.07.3a.9.9 0 0 1-.9 1.2zM259.83 259.91h-59.11a1.53 1.53 0 0 1-1.43-1.18l-.06-.29a.93.93 0 0 1 .94-1.18h59.05a1.58 1.58 0 0 1 1.46 1.18l.07.29a.91.91 0 0 1-.92 1.18zM302.06 259.91h-34.25a1.58 1.58 0 0 1-1.46-1.18l-.07-.29a.9.9 0 0 1 .91-1.18h34.21a1.61 1.61 0 0 1 1.48 1.18l.08.29a.9.9 0 0 1-.9 1.18z" data-original="#ffffff" class=""></path><path fill="#1d1160" d="M479.12 305.69h-51.73a.5.5 0 0 1-.5-.5v-20a.5.5 0 0 1 .5-.5h51.73a.5.5 0 0 1 .5.5v20a.51.51 0 0 1-.5.5zm-51.23-1h50.73v-19h-50.73zM451 337.45h-22.65a.5.5 0 0 1-.5-.5v-25.64a.5.5 0 0 1 .5-.5H451a.5.5 0 0 1 .5.5V337a.5.5 0 0 1-.5.45zm-22.12-1h21.62v-24.64h-21.65zM479.12 337.45H456.5a.5.5 0 0 1-.5-.5v-25.64a.5.5 0 0 1 .5-.5h22.62a.5.5 0 0 1 .5.5V337a.5.5 0 0 1-.5.45zm-22.12-1h21.62v-24.64H457zM479.12 400h-50.77a.5.5 0 0 1-.5-.5v-56a.5.5 0 0 1 .5-.5h50.77a.5.5 0 0 1 .5.5v56a.5.5 0 0 1-.5.5zm-50.27-1h49.77v-55h-49.77zM478.62 277.16h-11.25a1.15 1.15 0 1 1 0-2.29h11.25a1.15 1.15 0 0 1 0 2.29z" data-original="#68003c" class="" opacity="1"></path><rect width="21.33" height="5.53" x="442.78" y="269.34" fill="#e67925" rx="1.63" data-original="#e67925" class=""></rect><path fill="#00788c" d="M429.58 143.3a23.05 23.05 0 0 0-32.08-24.63 37.06 37.06 0 0 0-68.28 24.66 26.1 26.1 0 0 0-23.29 25.94 26.1 26.1 0 0 0 26.1 26.1h95a26.1 26.1 0 0 0 26.1-26.1 26.09 26.09 0 0 0-23.55-25.97z" data-original="#fdc500" class="" opacity="1"></path><path fill="#e67925" d="M352.12 154.54h20.45v42.33h-20.45z" data-original="#e67925" class=""></path><path fill="#e67925" d="m381.16 193.73-18.82 23.13-18.81-23.13zM410.46 216.86h-20.45v-42.33h20.45z" data-original="#e67925" class=""></path><path fill="#e67925" d="m381.41 177.66 18.82-23.12L419 177.66z" data-original="#e67925" class=""></path><path fill="#1d1160" d="M78.69 412.39H30.33a7.22 7.22 0 0 1-6.8-9.63l21.28-60a7.21 7.21 0 0 1 6.8-4.8h45.56a7.23 7.23 0 0 1 6.9 9.34l-18.48 60a7.21 7.21 0 0 1-6.9 5.09zM402.24 412.39H164.89l12.99-36.88h224.36z" data-original="#68003c" class="" opacity="1"></path><path fill="#1d1160" d="M384.51 401.48h61.95v10.91h-61.95z" data-original="#68003c" class="" opacity="1"></path><path fill="#a1a1a4" d="M446.46 401.48H215.89l-38.01-25.97h223.91z" data-original="#2351fb" class="" opacity="1"></path><g fill="#68003c"><path d="M228.27 386.88h-16.25l-12.19-6.84h16.28zM248.93 386.88h-16.25l-12.14-6.84h16.28zM269.59 386.88h-16.25l-12.09-6.84h16.28zM290.26 386.88h-16.25l-12.05-6.84h16.29zM310.92 386.88h-16.25l-12-6.84h16.28zM331.58 386.88h-16.25l-11.95-6.84h16.29zM352.25 386.88H336l-11.91-6.84h16.29zM372.91 386.88h-16.25l-11.86-6.84h16.29zM393.57 386.88h-16.25l-11.81-6.84h16.29zM414.24 386.88h-16.25l-11.77-6.84h16.29zM246.17 396.95h-16.2l-12.11-6.79h16.23zM266.76 396.95h-16.2l-12.06-6.79h16.23zM287.35 396.95h-16.19l-12.02-6.79h16.24zM307.95 396.95h-16.2l-11.97-6.79h16.23zM369.73 396.95h-57.39l-11.92-6.79h57.52zM390.32 396.95h-16.2l-11.78-6.79h16.24zM410.91 396.95h-16.19l-11.73-6.79h16.23zM431.5 396.95h-16.19l-11.68-6.79h16.23z" fill="#1d1160" data-original="#68003c" class="" opacity="1"></path></g><path fill="#e67925" d="M234.36 412.39H58a4.14 4.14 0 0 1-4.11-3.61L37.8 283.6a4.14 4.14 0 0 1 4.1-4.67h173.68a4.13 4.13 0 0 1 4.09 3.53l18.79 125.18a4.15 4.15 0 0 1-4.1 4.75z" data-original="#e67925" class=""></path><path fill="#00788c" d="M62 399.16 48.4 293.33a4.53 4.53 0 0 1 4.5-5.12h154.35a4.54 4.54 0 0 1 4.49 3.86l15.88 105.84a4.54 4.54 0 0 1-4.49 5.21H66.5a4.54 4.54 0 0 1-4.5-3.96z" data-original="#fdc500" class="" opacity="1"></path><path fill="#1d1160" d="M158.29 368.74a2 2 0 0 0 1.48-.61l18.86-19.86a2.28 2.28 0 0 0-.34-3.14l-19.44-19.55a2.33 2.33 0 0 0-3.08-.33 2 2 0 0 0 .09 2.9l17.74 18.09-17.49 18.09c-1.47 1.52-.02 4.41 2.18 4.41zM122.41 368.74c2.2 0 3.07-2.89 1.3-4.41l-21.15-18.09 14.08-18.09a2 2 0 0 0-.49-2.9 2.22 2.22 0 0 0-3 .33l-15.51 19.55a2.29 2.29 0 0 0 .3 3.14l22.87 19.86a2.47 2.47 0 0 0 1.6.61zM145.41 370a2.23 2.23 0 0 0 2-3.19l-15.77-42.2a2.38 2.38 0 0 0-2.76-1.43 1.88 1.88 0 0 0-1.32 2.5l15.38 42.44a2.79 2.79 0 0 0 2.47 1.88z" data-original="#68003c" class="" opacity="1"></path><circle cx="57.92" cy="296.05" r="3.85" fill="#1d1160" data-original="#68003c" class="" opacity="1"></circle><circle cx="71.88" cy="296.05" r="3.85" fill="#1d1160" data-original="#68003c" class="" opacity="1"></circle><circle cx="85.83" cy="296.05" r="3.85" fill="#1d1160" data-original="#68003c" class="" opacity="1"></circle></g></g></svg>