<?xml version="1.0" standalone="no"?>
<!DOCTYPE svg PUBLIC "-//W3C//DTD SVG 20010904//EN"
 "http://www.w3.org/TR/2001/REC-SVG-20010904/DTD/svg10.dtd">
<svg version="1.0" xmlns="http://www.w3.org/2000/svg"
 width="1024.000000pt" height="1024.000000pt" viewBox="0 0 1024.000000 1024.000000"
 preserveAspectRatio="xMidYMid meet">

<g transform="translate(0.000000,1024.000000) scale(0.100000,-0.100000)"
fill="#000000" stroke="none">
<path d="M8090 8964 c-78 -15 -179 -48 -238 -78 -182 -92 -357 -272 -401 -413
-12 -37 -38 -102 -59 -143 l-37 -75 -85 3 c-94 4 -132 -6 -166 -43 -34 -37
-23 -38 -569 45 -468 71 -858 45 -1510 -101 -492 -110 -595 -143 -990 -322
-159 -72 -339 -173 -535 -302 -52 -34 -133 -86 -180 -115 -126 -79 -399 -260
-446 -296 -23 -17 -63 -36 -89 -43 -58 -14 -90 -46 -105 -101 -19 -72 -5 -115
83 -252 l36 -56 -157 -51 c-86 -28 -186 -57 -222 -66 -98 -24 -410 -125 -451
-146 -60 -30 -178 -236 -199 -347 -11 -61 4 -113 39 -131 11 -6 28 -24 37 -40
21 -35 52 -51 100 -51 56 0 90 27 130 103 74 141 143 187 279 187 141 -1 193
-23 232 -100 28 -54 28 -82 4 -182 -27 -109 -15 -148 46 -148 18 0 45 7 59 17
31 20 89 104 137 198 73 143 147 221 245 260 147 59 249 126 272 181 15 33 25
42 51 48 42 8 59 23 59 51 0 16 9 26 31 35 17 7 70 41 118 74 158 112 272 187
302 200 24 10 42 10 90 0 74 -15 115 -10 195 26 72 32 131 83 191 164 l44 60
53 -3 c100 -5 299 58 552 175 113 52 213 91 265 103 46 11 85 18 87 16 2 -2
-12 -39 -31 -82 -65 -143 -82 -216 -82 -338 1 -159 14 -178 155 -229 94 -34
132 -63 177 -135 19 -31 52 -81 73 -111 20 -30 59 -95 85 -145 27 -49 68 -118
91 -153 l43 -62 -48 -25 c-27 -13 -51 -30 -53 -37 -3 -8 -20 1 -49 25 -52 46
-249 146 -335 172 l-61 18 -7 111 c-8 140 -57 336 -84 336 -4 0 -6 -53 -4
-117 2 -115 1 -119 -28 -173 -17 -30 -53 -101 -80 -157 -27 -56 -76 -141 -108
-190 -62 -91 -81 -133 -63 -133 36 0 -5 -29 -114 -82 -129 -62 -166 -92 -201
-167 -9 -18 -32 -54 -51 -79 -30 -39 -34 -51 -29 -83 5 -32 2 -39 -19 -53 -20
-13 -25 -25 -25 -56 0 -28 -5 -40 -17 -44 -33 -11 -81 -65 -98 -111 l-18 -45
-38 79 c-44 89 -96 151 -128 151 -11 0 -34 -12 -51 -27 -32 -30 -51 -92 -85
-268 -17 -91 -51 -185 -66 -185 -19 0 -21 112 -4 208 10 53 18 133 18 178 1
67 -3 85 -21 111 -28 40 -77 61 -104 44 -24 -15 -38 -6 -38 25 0 80 -93 139
-130 82 -9 -15 -17 -61 -20 -123 l-6 -100 -12 45 c-32 118 -35 125 -69 128
-44 4 -73 -29 -73 -83 0 -23 -3 -69 -6 -103 -6 -55 -8 -60 -25 -49 -26 16 -33
3 -33 -56 1 -58 30 -125 102 -236 34 -52 42 -73 42 -111 0 -53 19 -124 62
-227 l29 -71 -43 -40 c-35 -34 -52 -41 -98 -47 -79 -9 -147 -44 -211 -108 -47
-46 -64 -56 -102 -62 -26 -4 -54 -4 -64 -1 -21 8 -118 -11 -158 -31 -50 -26
-109 -79 -127 -114 -15 -33 -52 -148 -79 -254 -11 -41 -31 -69 -118 -165 -364
-400 -428 -480 -471 -590 -17 -45 -37 -69 -106 -130 -133 -117 -168 -151 -210
-204 -29 -36 -56 -57 -104 -78 -36 -16 -78 -41 -93 -56 -31 -29 -87 -132 -106
-197 -7 -22 -14 -45 -16 -52 -3 -9 -15 -9 -52 2 -62 19 -167 19 -238 0 -68
-17 -83 -13 -169 55 -35 28 -97 65 -137 84 -65 30 -85 46 -162 132 -105 116
-128 134 -183 134 -51 0 -80 -26 -95 -85 -6 -25 -16 -45 -21 -45 -7 0 -8 -14
-5 -36 5 -27 1 -40 -14 -55 -15 -15 -19 -27 -14 -42 4 -12 6 -31 6 -42 -6 -91
9 -133 71 -207 57 -68 103 -95 205 -119 52 -12 107 -32 134 -50 54 -34 164
-148 264 -273 83 -103 158 -157 259 -187 46 -14 83 -33 104 -53 18 -17 81 -69
140 -116 122 -98 173 -159 197 -239 77 -258 115 -304 319 -386 110 -45 143
-61 136 -68 -3 -2 -113 -10 -245 -16 -289 -14 -618 -38 -700 -50 -139 -21
-145 -23 -145 -41 0 -12 10 -20 33 -23 53 -10 256 -26 567 -44 271 -17 549
-18 3455 -18 2906 0 3187 1 3490 18 182 10 368 22 415 27 47 6 93 10 102 10
19 0 50 28 44 39 -5 7 -119 23 -261 36 -33 3 -249 12 -480 20 -231 8 -464 17
-517 21 l-98 7 0 39 c0 67 -21 93 -113 137 -45 22 -125 56 -177 76 -52 20
-107 40 -121 46 -57 22 -153 88 -228 158 -45 41 -81 80 -81 85 1 6 39 37 85
70 103 71 327 276 420 382 80 92 161 213 177 266 9 32 16 38 38 38 46 0 105
52 139 123 17 36 31 78 31 93 -1 40 -30 100 -79 162 -41 52 -42 54 -26 78 21
32 43 40 67 25 12 -7 24 -9 31 -3 7 4 38 8 70 7 31 0 57 3 57 8 0 5 13 7 30 4
16 -4 32 -2 36 4 3 6 17 8 31 4 14 -3 31 -1 38 5 8 6 19 10 27 9 20 -3 78 12
84 22 3 5 20 9 38 9 17 0 37 5 44 12 6 6 25 13 42 15 17 1 38 10 46 18 9 8 22
15 29 15 7 0 20 6 27 13 7 6 34 23 61 36 26 13 47 28 47 33 0 4 7 8 15 8 9 0
20 11 25 24 5 13 15 28 22 33 7 4 19 20 25 36 7 15 17 27 23 27 5 0 10 8 10
18 0 9 6 28 13 42 29 54 42 155 41 305 -1 128 -5 166 -29 260 -15 60 -33 119
-41 130 -8 11 -14 29 -14 41 0 11 -9 29 -20 39 -11 10 -20 28 -20 41 0 13 -9
28 -20 34 -11 6 -20 18 -20 26 0 8 -13 29 -30 47 -16 18 -30 39 -30 48 0 10
-11 20 -25 23 -14 4 -25 10 -25 15 0 13 -36 51 -49 51 -6 0 -11 4 -11 10 0 12
-61 45 -78 41 -8 -1 -12 5 -10 16 2 10 -1 18 -7 19 -33 3 -65 18 -65 30 0 8
-9 14 -20 14 -11 0 -34 9 -52 19 -17 11 -35 18 -39 15 -4 -2 -10 0 -14 6 -3 5
-17 10 -31 10 -14 0 -27 7 -31 16 -4 12 -8 13 -14 3 -5 -9 -11 -10 -21 -2 -7
6 -25 12 -40 12 -16 1 -40 1 -55 2 -16 0 -34 5 -40 11 -9 7 -13 7 -13 -1 0 -8
-17 -11 -51 -8 -27 2 -53 -1 -56 -5 -2 -5 -18 -6 -34 -3 -16 4 -29 2 -29 -3 0
-5 -18 -14 -40 -21 -33 -10 -40 -16 -35 -30 7 -22 -10 -37 -50 -44 -16 -3
-100 -30 -185 -59 -85 -30 -191 -63 -235 -74 -44 -10 -98 -31 -120 -46 -51
-35 -55 -35 -55 2 0 25 4 30 24 30 28 0 260 70 361 108 61 24 82 39 164 122
75 77 100 110 128 170 50 110 108 195 193 286 47 50 91 110 115 155 21 41 46
85 55 99 9 14 27 51 40 83 12 31 35 74 51 94 35 43 35 55 5 214 -73 377 -98
609 -101 944 -3 325 -3 329 -82 542 -35 97 -64 153 -118 235 l-72 107 28 11
c15 6 37 23 50 36 20 21 28 23 70 18 74 -10 96 0 110 46 9 29 26 51 65 81 78
60 189 181 225 244 28 49 33 54 51 44 12 -6 42 -9 67 -6 64 7 119 68 152 169
21 65 24 89 23 228 -3 316 -86 536 -270 717 -132 129 -259 183 -444 188 -63 2
-126 1 -140 -1z m-510 -563 c42 -22 80 -90 80 -143 0 -50 -16 -49 -24 3 -9 55
-44 89 -93 89 -54 0 -77 -20 -114 -98 -29 -60 -33 -78 -37 -174 l-4 -108 -32
-19 c-17 -11 -49 -42 -72 -68 -36 -42 -134 -122 -134 -109 0 2 9 26 21 53 18
41 20 60 15 128 -5 66 -3 84 12 106 18 27 105 109 116 109 3 0 6 -23 6 -52 0
-28 3 -49 6 -45 3 3 19 43 35 88 31 89 91 213 116 242 21 22 59 22 103 -2z
m-1335 -156 c77 -7 201 -23 275 -35 259 -41 328 -49 419 -51 50 -1 91 -4 91
-8 0 -3 -29 -25 -65 -49 -76 -52 -161 -129 -152 -139 4 -3 17 3 30 14 24 23
221 153 231 153 3 0 -6 -21 -21 -47 -93 -168 -176 -346 -211 -454 -148 -453
-205 -754 -219 -1171 -5 -158 -9 -198 -20 -198 -24 0 -35 51 -40 191 -17 413
108 1010 297 1417 38 82 39 107 2 55 -51 -72 -186 -432 -236 -631 -73 -289
-126 -689 -126 -952 0 -86 -1 -93 -16 -79 -34 35 -42 357 -14 564 11 77 80
374 141 609 40 152 46 186 30 186 -9 0 -53 -135 -66 -200 -4 -19 -23 -93 -42
-165 -110 -404 -134 -510 -140 -620 -3 -60 -9 -118 -12 -128 -5 -14 -23 -1
-96 68 -81 77 -168 147 -456 367 -95 73 -122 104 -163 185 -31 61 -32 72 -8
51 9 -8 60 -36 113 -62 114 -55 285 -156 424 -250 89 -61 100 -66 103 -48 7
46 -38 85 -299 255 -86 56 -170 110 -188 119 -52 29 -41 50 38 69 44 10 78 -4
182 -76 44 -30 82 -55 85 -55 2 0 4 8 4 18 0 10 -27 48 -60 85 -33 38 -60 72
-60 77 0 29 56 65 180 115 118 48 144 55 204 55 38 0 66 3 62 7 -17 17 -109
32 -201 33 -164 0 -308 -32 -492 -110 -51 -22 -98 -40 -103 -40 -22 0 1 19 68
56 171 96 460 328 552 444 37 46 37 71 0 42 -32 -24 -137 -71 -265 -118 -55
-20 -156 -61 -225 -91 -69 -31 -186 -81 -261 -112 -74 -32 -161 -76 -194 -99
-32 -23 -60 -40 -63 -38 -9 10 63 97 160 192 105 104 310 264 407 318 86 49
76 56 -51 34 -219 -38 -384 -107 -471 -197 -81 -83 -118 -144 -186 -308 -88
-210 -80 -192 -80 -163 -1 75 142 389 231 508 39 52 29 73 -24 52 -78 -31
-235 -114 -260 -138 l-28 -26 0 42 c0 49 -17 62 -82 61 -62 -1 -70 -6 -159
-94 -95 -95 -171 -204 -196 -281 -15 -49 -18 -53 -26 -32 -5 13 -11 82 -14
155 l-6 132 36 60 c20 34 32 61 27 61 -11 0 -127 -134 -144 -168 -36 -71 -60
-178 -61 -274 l0 -97 -27 52 c-24 47 -37 86 -68 215 -17 67 -34 52 -65 -55
-26 -92 -27 -107 -22 -231 6 -156 11 -155 -93 -17 -39 51 -86 100 -104 110
-51 27 -149 16 -232 -26 -36 -18 -67 -36 -70 -41 -3 -4 6 -43 19 -85 27 -84
54 -249 44 -260 -4 -3 -25 7 -48 23 -22 16 -78 53 -123 82 l-81 53 -6 -83
c-13 -177 -43 -398 -55 -398 -13 0 -55 40 -91 86 -13 18 -40 71 -59 120 -48
118 -86 192 -91 176 -8 -21 45 -193 82 -267 19 -38 64 -112 100 -164 36 -51
64 -96 61 -98 -2 -3 -19 -6 -37 -6 -27 -2 -35 3 -48 28 -44 86 -106 178 -158
235 -33 36 -105 127 -161 202 l-101 137 67 47 c139 98 160 112 292 196 74 46
217 137 318 201 525 333 1094 538 1851 667 396 68 574 80 816 55z m1032 -29
c3 -2 -6 -16 -20 -30 -87 -87 -162 -251 -246 -535 -151 -513 -214 -838 -226
-1171 -4 -126 -4 -126 -62 -87 -59 40 -67 71 -54 221 19 215 50 432 77 545 49
202 125 465 164 569 53 141 242 487 270 496 18 6 89 0 97 -8z m262 -21 c11
-14 22 -39 26 -55 19 -86 -79 -207 -115 -141 -16 31 -12 41 15 41 55 0 87 86
50 136 -32 43 -10 61 24 19z m607 -1148 c34 -62 71 -137 82 -167 24 -61 52
-195 52 -250 0 -54 -42 -300 -52 -300 -4 0 -8 1 -8 3 0 1 9 62 20 136 18 121
18 141 6 200 -17 80 -32 121 -45 121 -9 0 -37 -82 -97 -285 -24 -82 -30 -40
-9 62 20 92 33 323 18 323 -5 0 -20 -26 -33 -57 l-23 -57 -19 107 c-9 59 -25
132 -34 163 -9 30 -13 58 -10 62 8 7 79 50 86 51 3 0 32 -50 66 -112z m-2584
15 c20 -42 58 -107 85 -144 26 -37 98 -140 158 -229 85 -124 131 -182 201
-248 52 -49 114 -120 145 -166 29 -44 68 -98 86 -120 32 -38 40 -75 17 -82 -6
-2 -48 49 -94 113 -96 133 -123 161 -201 209 -61 37 -146 137 -227 263 -26 41
-69 99 -96 130 -61 72 -91 136 -111 237 -27 141 -17 151 37 37z m2322 18 c26
-45 33 -165 12 -226 -22 -67 -118 -206 -177 -257 -50 -44 -220 -132 -814 -423
-289 -141 -447 -215 -547 -255 -79 -31 -496 -138 -542 -139 -26 0 -126 48
-126 61 0 3 57 20 128 37 199 50 391 102 461 123 62 19 254 100 316 133 17 8
86 40 155 70 143 62 513 239 675 322 223 115 317 190 366 290 30 61 32 71 33
179 1 109 2 115 21 115 12 0 28 -12 39 -30z m-5003 -50 c26 -19 91 -98 247
-298 125 -161 153 -216 154 -302 1 -60 -12 -94 -42 -110 -18 -10 -20 -7 -20
18 0 57 -66 158 -270 410 -63 79 -132 165 -152 190 -49 61 -48 77 5 95 23 9
44 16 45 16 2 1 17 -8 33 -19z m2499 -120 c0 -18 83 -101 160 -160 97 -74 154
-132 243 -248 39 -52 97 -123 127 -157 39 -44 66 -88 93 -152 48 -115 55 -154
32 -189 l-17 -26 -23 50 c-13 28 -48 88 -78 134 -30 46 -75 119 -99 163 -58
105 -200 282 -298 370 -43 39 -90 85 -105 103 -29 34 -61 122 -45 122 6 0 10
-5 10 -10z m2441 -279 c-39 -60 -142 -152 -240 -216 -41 -26 -149 -84 -240
-127 -91 -44 -233 -113 -316 -153 -276 -135 -449 -213 -459 -207 -6 3 -4 9 5
14 78 47 250 139 414 223 388 196 621 319 687 363 69 44 141 117 162 161 9 20
12 22 14 8 2 -10 -10 -40 -27 -66z m-4994 -82 c75 -36 95 -109 44 -160 -39
-38 -66 -37 -198 7 -174 59 -348 59 -515 -1 -106 -38 -141 -60 -195 -119 -54
-59 -86 -117 -104 -193 -17 -68 -33 -80 -26 -19 10 97 118 266 196 305 46 23
224 84 321 110 41 11 127 36 190 55 63 19 124 37 135 39 34 9 107 -2 152 -24z
m4903 -113 c0 -17 -165 -115 -362 -215 -219 -111 -284 -147 -451 -250 -38 -23
-71 -40 -73 -38 -6 6 76 74 155 128 35 24 213 119 395 210 182 92 332 167 334
168 1 0 2 -1 2 -3z m-1350 -36 c0 -17 -7 -20 -40 -20 -44 0 -53 15 -17 30 38
15 57 12 57 -10z m-3838 -35 c92 -19 108 -24 108 -34 0 -4 -28 -1 -62 7 -35 7
-108 14 -163 14 -157 1 -289 -50 -369 -144 -43 -49 -60 -85 -81 -172 -18 -72
-45 -136 -57 -136 -12 0 -11 5 37 144 24 71 56 147 70 168 45 67 128 115 270
153 67 18 158 18 247 0z m5784 -363 c41 -283 64 -432 94 -592 36 -190 36 -190
9 -190 -28 0 -231 59 -243 71 -6 5 -7 9 -4 9 4 0 40 7 80 15 74 16 157 60 142
75 -16 16 -128 39 -244 51 -63 7 -119 16 -123 20 -5 4 50 52 121 108 72 55
140 116 152 136 21 33 21 40 11 118 -12 91 -26 110 -72 100 -37 -7 -37 7 -5
86 13 32 29 81 37 109 7 29 15 49 18 47 2 -3 15 -76 27 -163z m-781 -299 c14
-166 15 -220 5 -295 -12 -97 -57 -289 -90 -389 -11 -32 -20 -69 -20 -82 0 -19
-8 -26 -39 -36 -55 -16 -99 -69 -107 -130 l-6 -48 -57 -6 c-72 -8 -180 -44
-208 -70 -15 -13 -25 -37 -29 -69 -4 -27 -10 -46 -14 -41 -14 14 -146 447
-157 515 -4 23 -1 28 23 34 15 4 69 1 119 -6 102 -13 120 -9 148 39 43 73 47
252 8 328 -25 50 -53 66 -139 83 -34 7 -62 16 -62 20 0 16 43 41 175 103 139
64 268 138 375 215 30 22 56 39 57 38 1 0 9 -92 18 -203z m-1390 97 c-29 -12
-323 -99 -364 -106 -28 -6 -33 -4 -29 11 2 15 36 27 173 61 157 39 272 56 220
34z m-1058 -34 c135 -36 294 -150 529 -378 166 -162 172 -165 244 -128 39 20
55 15 44 -13 -6 -17 -131 -77 -161 -77 -11 0 -27 10 -36 23 -8 12 -18 19 -22
15 -8 -7 31 -63 104 -151 64 -77 107 -155 92 -170 -8 -8 -11 -7 -11 6 0 27
-101 121 -180 166 -41 24 -96 61 -122 82 -26 22 -49 35 -52 30 -4 -5 0 -15 7
-23 58 -58 186 -253 174 -264 -2 -3 -35 20 -73 51 -193 157 -206 163 -142 68
39 -58 80 -149 76 -170 -3 -18 -55 44 -171 205 -67 94 -93 119 -258 252 -160
129 -221 170 -347 238 -46 24 -86 50 -88 57 -11 27 24 85 61 102 35 17 40 17
122 -5 57 -14 101 -33 134 -57 49 -35 50 -35 33 -8 -30 48 -77 94 -118 115
-38 19 -39 21 -21 34 24 18 115 18 182 0z m-331 -261 c53 -25 135 -71 182
-102 93 -62 295 -253 275 -260 -6 -2 -42 10 -80 27 -37 18 -115 52 -172 77
-124 53 -297 145 -328 175 -14 13 -23 33 -23 50 0 28 27 77 43 78 4 0 51 -20
103 -45z m-927 7 c9 -18 19 -79 45 -302 17 -135 44 -229 82 -285 13 -20 24
-38 24 -40 0 -20 -106 20 -115 43 -56 137 -62 173 -69 390 -6 186 -5 212 8
212 8 0 20 -8 25 -18z m-164 -133 c14 -46 40 -124 59 -174 18 -49 48 -136 66
-193 31 -100 32 -104 14 -117 -18 -13 -17 -14 9 -15 16 0 48 -5 73 -11 47 -12
92 -4 154 28 14 7 44 13 68 13 40 0 49 5 113 69 51 50 87 76 134 97 l65 27 20
67 c21 72 45 101 103 125 34 14 40 14 70 -1 159 -82 620 -433 746 -568 14 -14
31 -26 38 -26 18 0 -16 -67 -75 -145 -50 -67 -81 -129 -82 -162 0 -20 -2 -21
-25 -11 -14 6 -25 15 -25 21 0 17 78 172 103 206 l26 34 -26 31 c-79 94 -288
269 -448 375 -145 97 -178 107 -248 77 -110 -46 -219 -284 -204 -450 9 -97 52
-170 161 -270 101 -93 143 -155 125 -188 -6 -11 -31 -33 -57 -49 -42 -27 -53
-29 -139 -29 -85 0 -94 -2 -107 -22 -21 -34 -43 -120 -60 -240 -16 -110 -35
-176 -67 -240 -22 -43 -108 -151 -150 -189 l-30 -26 -287 2 -287 1 -145 51
c-80 28 -179 63 -220 78 -49 17 -103 28 -160 32 -76 5 -91 3 -143 -20 -71 -32
-207 -120 -268 -175 -59 -53 -120 -132 -158 -208 -31 -59 -31 -61 -16 -104 27
-76 83 -121 195 -158 91 -30 362 -72 505 -79 105 -4 136 -2 245 21 69 15 167
33 218 41 114 19 144 31 205 83 65 56 120 93 197 132 76 38 166 71 174 63 3
-3 -39 -32 -93 -63 -55 -32 -128 -77 -163 -101 -142 -100 -180 -118 -314 -148
-71 -16 -163 -39 -204 -50 -41 -12 -140 -28 -219 -36 -80 -8 -149 -19 -155
-25 -5 -5 -19 -10 -31 -11 -21 -1 0 -9 83 -29 23 -6 42 -16 42 -22 0 -19 -242
-3 -340 22 -185 47 -359 170 -416 295 -51 110 -34 144 194 408 334 384 355
411 389 493 18 42 34 83 36 93 3 11 7 8 16 -14 15 -36 97 -139 181 -225 35
-36 95 -107 133 -158 106 -143 141 -154 504 -150 l253 3 0 25 c0 35 -34 87
-72 110 -74 46 -186 71 -348 80 -85 5 -183 16 -218 25 -125 30 -230 98 -315
204 -75 92 -95 128 -103 178 -5 37 -2 48 21 79 15 19 51 51 81 71 50 33 63 37
154 44 113 9 124 13 203 85 72 64 112 84 185 91 45 4 68 14 107 42 28 20 63
45 79 55 16 10 68 49 115 86 47 37 113 83 146 101 49 28 56 35 37 37 -34 5
-138 -48 -211 -107 -35 -28 -65 -50 -67 -48 -2 2 -15 33 -29 70 -14 37 -38 93
-55 124 -16 30 -30 68 -30 84 0 15 -11 63 -25 106 -13 43 -31 121 -40 173 -21
131 -20 308 2 287 2 -2 14 -42 28 -88z m321 0 c16 -18 19 -36 18 -118 -1 -53
-7 -115 -13 -138 -6 -23 -12 -65 -12 -93 -1 -28 -5 -48 -9 -43 -22 23 -51 157
-57 261 -5 99 -4 114 12 132 23 25 37 25 61 -1z m677 -31 c178 -91 412 -241
542 -349 104 -86 235 -213 235 -228 0 -7 -5 -9 -12 -5 -32 18 -124 87 -243
182 -154 124 -370 267 -512 342 -95 49 -114 66 -96 83 11 11 21 8 86 -25z
m-410 -14 c4 -4 -5 -20 -18 -36 -29 -35 -50 -100 -72 -228 -18 -107 -28 -140
-43 -140 -16 0 -12 35 19 182 29 136 46 182 76 212 18 17 28 20 38 10z m65
-101 c32 -42 52 -76 52 -92 0 -15 -154 -123 -159 -110 -13 41 44 239 70 239 4
0 21 -17 37 -37z m3648 -32 c-3 -4 -29 -11 -57 -15 -72 -10 -190 -55 -286
-109 -45 -26 -85 -47 -88 -47 -3 0 -5 7 -5 15 0 30 211 134 315 155 55 11 127
12 121 1z m377 -7 c40 -8 78 -17 85 -20 9 -2 1 -18 -24 -49 l-38 -44 -52 57
c-49 53 -62 72 -48 72 3 0 37 -7 77 -16z m-127 -106 c58 -34 108 -67 111 -74
5 -13 -26 -74 -37 -74 -4 0 -16 18 -29 40 -12 22 -56 67 -97 100 -40 34 -74
63 -74 66 0 12 30 -2 126 -58z m-2253 -24 c53 -59 74 -101 45 -92 -22 8 -130
137 -123 147 10 17 17 13 78 -55z m2105 27 c57 -29 110 -77 144 -130 34 -55
35 -64 2 -136 -26 -57 -27 -57 -40 -34 -7 13 -25 59 -40 101 -45 127 -97 162
-266 177 l-83 7 65 22 c79 27 157 24 218 -7z m-3320 -45 l72 -53 -42 -12 c-56
-17 -98 -39 -98 -51 0 -6 32 -10 73 -10 82 0 104 -12 124 -65 14 -37 30 -113
39 -180 3 -27 13 -81 21 -118 8 -38 13 -70 10 -73 -2 -2 -37 29 -78 70 -71 69
-159 129 -159 106 0 -6 7 -27 15 -47 22 -53 55 -186 55 -224 0 -34 -30 -139
-39 -139 -3 0 -17 20 -30 45 -14 26 -63 81 -112 126 -90 82 -144 160 -169 246
-23 78 18 220 93 321 42 55 111 112 136 112 9 0 49 -24 89 -54z m3205 -42 c72
-24 124 -90 183 -231 13 -31 13 -33 -12 -49 -14 -10 -37 -40 -51 -67 l-25 -51
-14 25 c-7 13 -20 47 -29 74 -9 32 -40 82 -85 139 -66 84 -120 166 -120 182 0
10 99 -3 153 -22z m-222 -70 c159 -84 259 -214 259 -336 0 -39 -4 -58 -14 -61
-19 -8 -30 8 -50 69 -9 28 -23 60 -31 70 -13 17 -14 9 -8 -68 3 -49 4 -88 1
-88 -3 0 -23 27 -44 60 -22 33 -42 60 -46 60 -4 0 5 -25 19 -56 15 -33 28 -82
31 -120 5 -63 5 -64 -21 -64 -32 0 -56 31 -126 161 -54 102 -120 174 -186 206
-64 30 -19 63 88 63 80 0 96 -7 161 -69 42 -40 47 -43 41 -21 -20 74 -115 160
-201 181 -47 12 -54 22 -26 38 33 20 83 11 153 -25z m-2007 -179 c148 -31 292
-77 405 -131 86 -41 153 -64 258 -89 78 -19 166 -47 195 -62 73 -38 76 -39 54
-14 -32 35 -116 78 -191 97 l-70 18 45 9 c63 13 148 -13 240 -73 91 -60 141
-82 245 -111 95 -25 207 -73 252 -106 38 -28 109 -166 117 -228 3 -22 8 -80
11 -130 7 -102 18 -121 81 -135 42 -10 53 -6 39 14 -50 68 -49 64 -30 106 27
61 55 74 151 71 78 -1 83 0 150 39 37 22 104 52 149 66 44 15 86 29 93 32 6 2
12 -3 12 -11 0 -8 9 -34 20 -58 24 -53 26 -116 5 -146 -20 -28 -102 -53 -174
-53 -96 0 -124 -13 -166 -76 -36 -56 -37 -56 -49 -33 -9 20 -21 25 -60 27 -30
2 -56 -2 -70 -12 -28 -18 -61 -97 -80 -186 -9 -47 -18 -66 -30 -68 -27 -6 -46
17 -46 54 0 32 -2 34 -33 34 -18 0 -38 5 -45 12 -19 19 -14 97 9 134 19 32 20
34 2 34 -10 0 -38 -16 -63 -35 -97 -75 -129 -95 -135 -85 -12 20 27 71 90 115
72 51 86 82 34 71 -46 -9 -156 -63 -222 -109 -56 -39 -60 -40 -85 -26 -17 9
-28 25 -30 41 -4 34 33 61 150 112 154 67 158 92 6 35 -146 -54 -185 -62 -233
-49 -23 6 -55 22 -71 35 l-29 24 47 1 c49 0 220 50 251 73 17 11 9 18 -77 65
-52 29 -99 52 -104 52 -5 0 -19 -12 -33 -26 -27 -30 -51 -41 -127 -59 -59 -14
-74 -6 -39 22 13 10 55 56 95 103 39 47 87 102 107 123 19 20 35 42 35 48 0
18 -47 2 -106 -36 -154 -99 -246 -127 -402 -123 -99 3 -107 4 -107 23 0 16 13
22 72 36 39 9 103 20 142 24 83 8 114 28 142 89 28 61 25 74 -18 85 -215 54
-377 -12 -574 -234 -107 -120 -150 -165 -158 -165 -7 0 -150 168 -218 256 -43
54 -107 176 -128 243 -39 119 15 212 145 252 39 12 75 10 154 -6z m1684 -92
c18 -26 15 -57 -11 -85 -18 -20 -37 -26 -88 -32 -35 -3 -117 -18 -181 -33 -65
-14 -120 -24 -122 -22 -8 8 14 113 27 126 18 18 119 52 186 63 80 12 173 4
189 -17z m-199 -237 l43 -23 -45 -26 c-25 -15 -50 -27 -55 -27 -21 0 -142 62
-137 71 9 13 64 27 110 28 23 0 59 -10 84 -23z m-1922 -135 c142 -71 187 -111
234 -207 28 -56 31 -71 27 -128 -5 -76 -32 -116 -79 -116 -45 0 -57 9 -104 75
-60 84 -122 139 -196 175 -34 16 -71 37 -81 46 -15 15 -18 15 -18 2 0 -8 27
-47 60 -87 128 -151 195 -275 215 -396 l7 -40 -29 45 c-37 56 -82 91 -176 135
-40 19 -92 48 -115 65 -44 32 -55 23 -25 -20 9 -14 47 -59 83 -101 37 -41 119
-143 184 -227 64 -83 122 -153 129 -156 8 -3 6 -9 -8 -17 -42 -26 -145 -168
-145 -200 0 -10 -8 -8 -132 23 -101 25 -181 57 -259 103 -179 106 -230 134
-297 160 -40 16 -75 32 -78 37 -8 13 93 9 186 -7 79 -14 481 -45 579 -45 43 0
43 0 29 22 -24 35 -124 85 -233 114 -135 37 -338 39 -489 6 -108 -24 -152 -27
-161 -12 -3 5 17 45 44 87 68 107 78 156 51 246 -14 44 -18 73 -12 79 19 19
179 58 264 64 94 7 195 -7 235 -33 31 -21 39 -11 23 28 -23 54 -61 69 -175 69
-55 0 -124 -7 -155 -15 -55 -15 -79 -11 -47 6 9 6 61 48 115 95 103 90 207
164 257 182 17 7 61 10 99 8 61 -3 83 -11 193 -65z m1006 -580 l87 -52 -43
-57 c-25 -31 -59 -83 -76 -114 -28 -50 -36 -58 -62 -58 -39 0 -86 -21 -129
-58 -39 -33 -36 -53 4 -27 14 9 58 27 98 40 77 24 72 19 166 149 18 25 43 53
56 61 22 15 27 14 62 -4 29 -16 57 -21 109 -21 145 0 294 -19 387 -50 50 -17
102 -30 115 -30 53 0 83 -42 83 -116 0 -108 -95 -176 -149 -108 -41 52 -19
119 51 155 21 11 38 24 38 29 0 15 -11 12 -55 -13 -57 -32 -87 -88 -82 -154
l4 -53 -201 0 c-363 0 -503 -24 -681 -114 -49 -25 -98 -46 -108 -46 -30 0 -37
42 -27 147 5 54 10 146 10 204 0 94 22 372 35 456 l6 32 107 -73 c59 -40 146
-96 195 -125z m-512 -1 c73 -103 139 -230 139 -268 0 -40 -32 -164 -39 -155
-10 10 -63 149 -86 221 -9 29 -41 89 -71 135 -66 99 -72 118 -49 165 15 34 18
35 28 17 5 -11 41 -63 78 -115z m1352 -127 c4 -20 5 -38 4 -39 -2 -2 -25 0
-52 4 -63 9 -73 35 -23 57 53 23 65 19 71 -22z m-4239 -178 c-1 -183 -48 -223
-286 -251 -32 -3 -58 -8 -58 -11 0 -2 18 -25 39 -51 54 -64 65 -95 42 -116
-37 -34 -112 -12 -175 51 -29 29 -36 44 -36 76 0 59 26 104 109 188 84 85 163
139 261 181 102 42 105 40 104 -67z m2671 -104 c30 -36 54 -68 53 -73 -2 -4
-24 -22 -49 -40 -83 -59 -141 -142 -190 -273 l-20 -55 -57 1 c-83 1 -142 19
-166 52 l-20 27 55 58 c52 54 154 197 179 252 10 23 136 120 152 116 4 0 32
-30 63 -65z m138 -169 c85 -89 93 -150 42 -287 -12 -33 -34 -107 -49 -165 -32
-124 -45 -160 -58 -160 -5 0 -51 39 -101 86 -51 47 -111 95 -135 106 -23 10
-40 24 -36 29 3 5 16 50 30 99 25 94 69 192 112 249 29 37 109 101 127 101 7
0 37 -26 68 -58z m1257 43 c0 -29 -46 -45 -159 -55 -141 -13 -324 -43 -421
-70 -122 -34 -132 -34 -173 -10 -21 13 -35 26 -30 30 9 8 147 49 253 75 97 24
270 42 408 44 101 1 122 -1 122 -14z m-1028 -144 c110 -55 191 -116 283 -212
97 -102 167 -194 207 -272 16 -33 32 -57 35 -54 10 11 -27 114 -64 175 -22 35
-60 88 -87 118 -26 30 -46 54 -44 54 8 0 300 -100 313 -107 7 -5 27 -26 43
-48 42 -58 285 -317 327 -350 63 -47 50 -19 -32 67 -96 103 -182 202 -212 246
-30 42 -21 42 128 -8 65 -22 125 -40 131 -40 69 0 597 -260 648 -319 34 -39
81 -124 88 -160 6 -29 5 -31 -23 -31 -22 0 -43 15 -94 68 -36 37 -83 90 -105
117 -21 28 -50 61 -63 74 -41 39 -182 101 -298 131 -59 15 -123 32 -140 38
-38 12 -43 1 -10 -20 32 -22 146 -65 199 -77 76 -17 156 -51 190 -79 17 -15
74 -81 126 -147 53 -66 113 -139 134 -162 78 -87 28 -100 -62 -17 l-26 24 -19
-56 c-22 -64 -81 -137 -134 -163 -75 -38 -133 -44 -350 -37 -204 7 -312 14
-320 22 -2 2 18 13 45 24 45 20 104 65 104 80 0 4 -38 4 -83 2 -139 -7 -247
35 -305 120 -43 64 -64 140 -71 257 -4 71 -10 106 -19 109 -20 6 -50 -76 -63
-176 -13 -107 -2 -205 36 -309 12 -35 21 -63 19 -63 -1 0 -31 41 -65 90 -59
87 -124 154 -181 188 -26 15 -27 16 -21 98 6 86 -1 139 -17 129 -32 -20 -110
-242 -110 -313 0 -60 -12 -44 -35 46 -14 58 -16 91 -11 155 14 153 19 137 -50
157 -68 18 -156 59 -194 90 -23 19 -24 21 -7 31 25 15 53 75 78 166 12 43 32
116 45 162 15 52 24 109 24 152 0 84 3 85 112 30z m200 -15 c57 -19 180 -57
273 -85 94 -28 240 -71 325 -97 189 -56 347 -113 590 -211 212 -86 325 -142
427 -210 80 -54 247 -193 239 -200 -5 -5 -20 4 -176 106 -96 63 -315 169 -326
158 -2 -1 47 -31 109 -65 119 -65 217 -141 183 -142 -10 0 -62 24 -115 53 -54
29 -117 61 -142 71 -24 10 -107 49 -184 87 -131 65 -215 97 -795 299 -261 91
-348 129 -418 183 -33 25 -69 50 -81 56 -18 10 -29 31 -16 31 2 0 51 -15 107
-34z m-3932 -36 c0 -6 -9 -29 -20 -51 -11 -21 -38 -115 -60 -207 -48 -201
-112 -417 -146 -492 -44 -96 -98 -138 -194 -151 -67 -9 -97 -40 -124 -124 -21
-66 -60 -97 -116 -93 -45 4 -50 28 -10 50 16 9 30 21 30 25 0 5 -33 7 -72 5
-40 -1 -79 1 -87 7 -14 9 -10 42 7 69 11 16 72 31 127 32 22 0 47 4 55 10 26
16 -15 23 -116 18 -52 -3 -94 -2 -94 2 0 20 73 69 118 80 97 23 83 59 -18 45
-46 -6 -48 -6 -43 15 7 28 56 63 118 85 71 26 91 49 129 151 60 160 84 203
133 234 24 15 64 34 90 42 34 10 52 23 73 54 31 44 196 204 211 204 5 0 9 -5
9 -10z m1764 -70 c75 -102 207 -305 213 -328 3 -13 2 -27 -3 -32 -5 -4 -49
-22 -99 -40 -76 -26 -104 -31 -176 -31 -96 1 -162 -15 -220 -54 -42 -27 -47
-27 -204 5 -57 12 -431 -2 -530 -20 -33 -6 -105 -27 -161 -46 -96 -32 -108
-34 -237 -34 -83 0 -138 4 -142 10 -7 11 73 89 179 176 l56 47 78 -36 c104
-48 137 -52 224 -33 50 11 110 15 189 14 l115 -3 55 36 c30 20 110 86 179 147
77 69 164 134 226 172 56 33 121 75 145 94 51 39 51 39 113 -44z m-3191 -163
c89 -92 180 -168 227 -192 25 -13 89 -52 143 -89 112 -74 150 -86 199 -61 19
9 56 16 89 16 56 0 147 -17 162 -31 4 -4 -21 -22 -58 -40 -76 -38 -110 -74
-126 -133 -11 -43 -34 -77 -52 -77 -5 0 -42 30 -81 68 -82 78 -113 90 -254
102 -85 8 -96 11 -135 42 -64 51 -87 64 -151 82 -61 18 -116 61 -116 91 0 15
7 16 56 10 51 -6 55 -5 52 12 -2 13 -17 20 -56 27 -49 9 -53 12 -50 35 3 23 7
26 40 23 50 -4 54 11 13 42 -37 29 -39 33 -27 54 7 10 16 9 45 -3 32 -13 37
-13 37 -1 0 8 -11 23 -25 34 -30 24 -32 42 -5 42 11 0 44 -24 73 -53z m3732
34 c-2 -4 -30 -13 -62 -20 -114 -26 -173 -77 -188 -163 -4 -21 -11 -38 -15
-38 -18 0 -20 38 -4 76 36 87 97 137 187 153 45 7 89 3 82 -8z m345 -186 c11
-13 8 -15 -14 -15 -36 0 -74 -21 -112 -62 -43 -44 -63 -87 -80 -166 -41 -197
11 -459 140 -699 66 -123 109 -183 211 -291 85 -90 87 -109 4 -34 -110 97
-186 201 -268 362 -99 194 -141 348 -141 515 0 178 51 295 164 376 43 32 77
37 96 14z m-644 -108 c-3 -13 -8 -50 -12 -82 -6 -50 -14 -67 -45 -103 -20 -23
-56 -79 -80 -124 -23 -45 -71 -125 -107 -177 -36 -53 -91 -150 -123 -217 -58
-122 -94 -167 -145 -180 -14 -4 -27 -5 -29 -3 -2 2 19 40 45 84 27 44 50 85
50 90 0 6 16 34 35 62 19 28 46 76 59 105 14 29 33 65 42 80 20 29 12 52 -9
26 -6 -9 -55 -67 -107 -130 -53 -62 -108 -131 -122 -154 -42 -65 -125 -236
-137 -281 -13 -46 -20 -49 -171 -58 -47 -3 -111 -8 -142 -10 -58 -5 -58 -5
-58 23 0 32 34 211 50 262 6 19 11 88 10 152 l0 118 44 32 c25 18 73 69 109
113 98 122 202 214 288 257 115 57 189 78 271 78 51 0 103 9 173 30 122 35
118 35 111 7z m-710 -98 c100 -17 99 -16 46 -56 -26 -20 -68 -55 -93 -79 -59
-54 -146 -109 -334 -211 -201 -109 -254 -126 -372 -121 l-91 4 4 -51 c11 -144
12 -190 0 -170 -6 11 -26 35 -44 53 -29 31 -36 33 -68 27 -47 -8 -70 -23 -83
-53 -13 -27 -16 -167 -6 -236 4 -25 4 -46 0 -46 -4 0 -28 18 -52 41 -45 42
-68 46 -86 17 -8 -12 -6 -32 7 -73 10 -31 15 -59 13 -62 -3 -2 -24 24 -48 59
-39 58 -98 131 -159 197 -42 46 -141 125 -222 180 -43 28 -78 54 -78 57 0 3
12 21 27 40 33 44 110 99 283 203 94 57 151 98 188 139 l54 57 166 -3 167 -3
110 36 c61 21 139 43 175 50 80 16 413 19 496 4z m766 -414 c27 -82 52 -157
54 -166 5 -14 -5 -19 -46 -28 -107 -23 -143 -64 -161 -182 -12 -82 -18 -92
-71 -125 -35 -22 -38 -28 -38 -72 0 -55 -21 -93 -73 -127 -65 -45 -112 -58
-187 -53 -141 10 -198 92 -154 221 29 84 129 147 235 147 l47 0 4 55 c7 82 62
185 153 283 42 45 81 82 87 82 15 0 -29 -71 -84 -136 -60 -69 -103 -155 -118
-233 -22 -112 -11 -101 -96 -101 -86 0 -131 -16 -169 -62 -30 -35 -34 -102 -9
-153 39 -82 192 -85 274 -6 25 24 46 60 65 111 15 41 42 104 60 140 18 36 40
89 50 119 20 61 95 146 139 157 32 8 32 10 1 105 -32 101 -49 203 -39 237 7
26 8 25 17 -18 5 -25 31 -112 59 -195z m284 -52 c9 -27 30 -79 46 -117 15 -37
28 -75 28 -85 -1 -24 -70 115 -91 184 -22 71 -21 65 -10 65 5 0 17 -21 27 -47z
m-121 -119 c82 -243 183 -432 288 -541 40 -42 46 -65 10 -43 -22 15 -97 104
-140 168 -81 121 -213 440 -213 514 0 40 20 5 55 -98z m-207 -352 c-6 -101
-33 -156 -123 -247 -72 -73 -154 -138 -125 -100 8 11 43 50 77 87 80 87 117
152 144 255 12 46 24 83 27 83 2 0 3 -35 0 -78z m112 -133 c0 -22 11 -66 25
-99 26 -63 31 -95 15 -105 -11 -7 -32 32 -55 106 -13 40 -16 70 -11 103 9 55
26 52 26 -5z m3145 -151 c107 -68 223 -124 303 -148 70 -20 129 -48 163 -77
20 -17 14 -49 -14 -81 -26 -28 -88 -30 -125 -4 -42 29 -52 34 -52 25 0 -5 14
-17 30 -26 41 -25 38 -37 -12 -37 -76 0 -168 21 -197 45 -37 32 -53 84 -35
118 8 14 11 28 7 30 -5 2 -59 15 -121 27 -98 20 -116 27 -137 52 -45 53 -58
157 -30 224 l15 36 67 -70 c38 -38 100 -89 138 -114z m-1818 101 c109 -28 268
-69 353 -91 265 -69 274 -70 400 -64 77 4 146 14 210 31 52 14 102 27 110 28
13 2 220 -217 220 -233 0 -3 -66 -2 -147 2 -82 4 -314 14 -518 23 -378 16
-516 24 -805 50 -91 8 -225 19 -299 24 -132 10 -172 22 -141 41 8 5 22 10 31
10 9 0 46 9 82 20 61 19 72 27 154 115 75 81 93 94 120 95 18 0 122 -23 230
-51z m-1277 -368 c-8 -5 -35 -11 -60 -15 -25 -4 -106 -20 -180 -36 -204 -44
-361 -63 -461 -56 -98 6 -206 37 -241 67 l-23 21 25 -7 c14 -3 52 -14 85 -23
46 -12 102 -16 240 -16 160 1 202 5 380 37 208 36 262 43 235 28z"/>
<path d="M5668 4636 c-68 -19 -128 -61 -128 -90 l0 -24 73 28 c101 40 164 45
277 25 52 -9 113 -19 135 -22 l40 -5 -35 26 c-73 56 -266 89 -362 62z"/>
<path d="M3717 2340 c-134 -57 -252 -175 -307 -307 -16 -39 -45 -131 -64 -205
-19 -73 -38 -142 -42 -152 -20 -53 91 43 214 184 186 214 311 364 306 369 -7
7 -167 -153 -316 -317 -72 -79 -132 -141 -135 -139 -5 6 51 201 75 261 47 120
128 204 261 271 50 25 91 50 91 55 0 14 -8 13 -83 -20z"/>
<path d="M7840 951 c0 -15 28 -33 40 -26 8 5 8 11 -1 21 -13 15 -39 19 -39 5z"/>
<path d="M27 103 c-25 -4 -27 -8 -27 -54 0 -48 1 -49 30 -49 30 0 30 1 30 55
0 30 -1 54 -2 54 -2 -1 -15 -4 -31 -6z"/>
</g>
</svg>
