<?xml version="1.0" standalone="no"?>
<!DOCTYPE svg PUBLIC "-//W3C//DTD SVG 20010904//EN"
 "http://www.w3.org/TR/2001/REC-SVG-20010904/DTD/svg10.dtd">
<svg version="1.0" xmlns="http://www.w3.org/2000/svg"
 width="1024.000000pt" height="1024.000000pt" viewBox="0 0 1024.000000 1024.000000"
 preserveAspectRatio="xMidYMid meet">

<g transform="translate(0.000000,1024.000000) scale(0.100000,-0.100000)"
fill="#000000" stroke="none">
<path d="M7798 8943 l-3 -68 -67 -3 -68 -3 0 -59 0 -60 70 0 70 0 0 -60 0 -60
60 0 60 0 0 60 0 60 65 0 65 0 0 38 c0 20 3 47 6 60 6 21 4 22 -65 22 l-71 0
0 70 0 70 -60 0 -59 0 -3 -67z"/>
<path d="M8693 8765 c-96 -29 -183 -102 -218 -182 -15 -34 -21 -39 -45 -35
-24 3 -46 -12 -147 -99 -65 -56 -121 -107 -125 -112 -3 -6 -17 -1 -33 12 -29
22 -70 27 -95 11 -10 -6 -21 -4 -35 9 -106 94 -410 228 -648 286 -267 64 -589
81 -871 45 -318 -41 -537 -108 -772 -236 l-83 -45 117 -143 c64 -79 263 -318
442 -531 179 -213 380 -453 447 -534 67 -80 129 -150 137 -155 10 -7 27 2 62
30 80 66 648 490 1071 801 17 12 35 23 40 23 4 -1 21 -20 37 -42 l29 -42 -34
-29 c-41 -34 -463 -354 -719 -543 -102 -76 -228 -170 -281 -209 -53 -40 -105
-78 -118 -84 -21 -12 -20 -13 33 -74 51 -59 497 -592 616 -737 30 -37 102
-125 160 -195 58 -70 172 -209 254 -309 82 -99 154 -182 160 -183 15 -4 114
125 191 246 158 249 261 505 324 806 39 189 46 254 46 490 0 250 -11 372 -47
525 -20 85 -21 98 -15 241 3 75 3 75 46 115 24 21 78 65 120 97 l76 59 5
-1520 c5 -1477 6 -1521 24 -1541 27 -30 70 -27 95 5 l21 27 0 1532 0 1532 39
26 c55 37 98 84 128 142 34 66 43 185 19 267 -56 189 -272 310 -453 253z m155
-140 c29 -9 69 -30 89 -48 45 -39 83 -119 83 -172 0 -50 -39 -135 -74 -163
-34 -26 -92 -46 -113 -38 -13 5 -7 14 26 42 52 45 71 81 71 136 -1 135 -155
213 -273 138 -54 -34 -62 -22 -26 36 23 37 43 51 104 70 52 17 53 17 113 -1z
m-1788 -59 c14 -2 49 -7 77 -10 200 -24 582 -164 692 -254 23 -17 23 -18 5
-55 -21 -44 -12 -45 -152 17 -163 72 -405 143 -552 161 -30 4 -64 9 -75 12
-11 2 -101 6 -200 9 -148 5 -208 2 -340 -15 -88 -11 -185 -27 -215 -35 -200
-53 -252 -68 -312 -90 l-66 -24 -20 21 c-25 28 -56 77 -51 81 18 13 129 60
191 80 127 41 345 89 478 106 71 8 487 6 540 -4z m1411 -188 c10 -13 18 -27
18 -33 0 -17 -219 -187 -234 -181 -7 2 -18 14 -24 25 -10 17 2 30 102 115 61
52 114 95 115 96 2 0 12 -10 23 -22z m-390 -208 c62 -117 184 -275 272 -354
42 -38 77 -73 77 -78 0 -19 -79 -6 -139 22 -170 80 -324 346 -269 465 6 14 12
25 14 25 1 0 22 -36 45 -80z m546 0 l42 -58 -57 -49 c-78 -67 -168 -136 -176
-135 -4 1 -25 24 -47 52 l-41 52 43 36 c24 20 75 65 114 99 38 34 72 62 75 62
3 0 24 -26 47 -59z m-1527 -220 c18 -23 31 -42 29 -44 -66 -54 -472 -352 -516
-379 -7 -5 -23 9 -42 37 -17 25 -31 47 -31 50 0 6 201 158 290 219 30 21 93
64 140 97 47 33 88 60 92 60 3 0 21 -18 38 -40z m1342 -435 c47 -157 64 -610
32 -837 -34 -248 -96 -452 -206 -674 -54 -110 -185 -324 -198 -324 -4 0 -24
25 -44 56 l-37 55 46 72 c25 40 75 131 110 202 193 394 254 761 210 1265 -9
107 -17 197 -17 200 -1 18 7 21 49 18 42 -3 48 -6 55 -33z"/>
<path d="M1844 8737 c-94 -45 -172 -133 -196 -221 l-12 -46 -93 0 c-105 0
-133 -15 -133 -68 0 -49 25 -61 130 -64 l94 -3 6 -30 c8 -39 51 -106 99 -154
38 -38 135 -91 165 -91 14 0 16 -224 16 -2325 l0 -2325 -244 0 c-209 0 -247
-2 -260 -16 -18 -17 -21 -61 -6 -84 11 -18 132 -27 363 -29 l147 -1 0 -55 0
-55 -255 0 -255 0 0 -740 0 -740 -250 0 -250 0 0 -65 0 -65 4315 0 4315 0 0
65 0 65 -73 0 -72 0 -125 101 c-69 55 -167 135 -217 176 l-93 76 0 809 0 808
93 0 c102 1 123 10 133 56 4 21 0 37 -15 55 l-20 26 -1528 -4 c-1519 -5 -1528
-5 -1545 -25 -24 -27 -23 -59 2 -86 l21 -22 1359 0 1360 0 2 -807 3 -808 -75
-74 c-152 -149 -248 -241 -254 -241 -3 0 -6 36 -6 80 l0 79 62 3 63 3 3 63 3
62 -821 0 -820 0 0 -165 0 -165 -53 0 c-64 0 -59 -5 -157 160 -40 69 -91 153
-112 188 -21 35 -38 65 -38 67 0 3 -15 28 -34 57 -18 29 -58 96 -88 148 -31
52 -100 169 -153 260 -54 91 -132 224 -173 295 -42 72 -112 193 -157 270 -45
77 -152 260 -238 407 -207 354 -297 514 -297 527 0 6 11 11 25 11 l25 0 0 120
0 120 130 0 130 0 0 70 0 70 -525 0 -525 0 0 -70 0 -70 125 0 124 0 3 -117 3
-118 30 -1 c20 0 29 -5 27 -15 -4 -20 -312 -560 -374 -657 -10 -15 -21 -34
-24 -42 -4 -8 -71 -123 -149 -255 -79 -132 -152 -257 -164 -277 -11 -21 -30
-54 -41 -73 -10 -19 -30 -51 -43 -72 -14 -21 -62 -101 -107 -178 -164 -279
-314 -531 -335 -565 -66 -102 -95 -151 -95 -156 0 -3 -15 -27 -32 -55 -32 -48
-33 -49 -85 -49 l-53 0 0 740 0 741 -67 -3 -68 -3 -1 -735 -1 -735 -54 0 -54
0 4 738 4 737 -297 0 -296 0 0 55 0 55 399 0 c343 0 402 2 415 15 23 24 28 52
14 82 l-13 28 -408 3 -407 2 0 1325 0 1325 255 0 255 0 0 -258 c0 -187 3 -261
12 -270 7 -7 31 -12 55 -12 32 0 45 5 53 19 7 13 10 307 11 885 l0 865 25 20
c33 26 65 15 76 -27 16 -62 77 -80 122 -36 67 68 -7 192 -131 219 -71 15 -167
-35 -203 -105 -18 -35 -20 -59 -20 -250 l0 -211 -42 23 c-59 31 -147 122 -180
184 -130 243 -28 560 217 675 115 54 270 54 389 0 70 -31 159 -108 206 -176
44 -64 80 -177 80 -250 0 -144 -39 -236 -144 -341 -73 -73 -136 -106 -231
-123 l-40 -6 -3 -73 c-3 -71 -2 -73 20 -68 13 3 43 7 68 11 25 3 88 26 140 52
208 101 331 299 330 534 -1 222 -97 401 -280 525 -188 127 -454 130 -659 8
-186 -111 -295 -312 -294 -544 0 -125 20 -194 84 -303 71 -121 211 -239 322
-271 16 -5 17 -27 17 -281 l0 -275 -322 -2 -323 -3 0 -55 c0 -30 -1 -657 -3
-1393 l-2 -1337 -262 2 -263 3 -3 2318 -2 2317 27 11 c154 61 210 118 257 262
5 16 85 17 1484 17 1458 0 1479 0 1497 20 22 25 22 65 0 90 -18 20 -39 20
-1500 20 l-1482 0 -6 29 c-18 89 -100 193 -184 233 -38 18 -69 23 -148 26 -89
2 -106 0 -151 -21z m76 -171 c0 -34 -6 -52 -25 -72 -53 -57 -51 -139 4 -188
24 -22 31 -96 9 -96 -26 0 -78 41 -105 81 -24 37 -28 53 -28 113 0 57 5 78 24
109 22 36 93 97 113 97 4 0 8 -20 8 -44z m198 11 c18 -12 44 -44 57 -71 39
-78 31 -162 -22 -234 -20 -27 -69 -62 -88 -62 -3 0 -5 19 -5 43 0 33 6 49 24
67 48 44 45 117 -5 171 -23 25 -29 40 -29 76 0 51 6 51 68 10z m3270 -4340 l3
-78 -123 3 -123 3 -3 78 -3 78 123 -3 123 -3 3 -78z m-188 -735 l0 -507 -135
-175 c-74 -96 -286 -373 -470 -615 -185 -242 -349 -457 -366 -477 l-30 -38
-185 0 c-182 0 -185 0 -179 20 4 12 44 81 89 154 46 73 85 137 87 142 4 9 262
443 419 704 31 52 76 129 100 170 51 89 276 471 365 620 92 155 171 292 248
432 23 43 45 78 50 78 4 0 7 -228 7 -508z m241 327 c112 -189 495 -843 519
-884 27 -48 280 -479 355 -605 84 -143 146 -249 240 -410 39 -69 86 -148 103
-176 18 -28 32 -54 32 -58 0 -3 -80 -6 -179 -6 l-178 0 -164 216 c-208 274
-518 674 -677 873 -68 85 -130 164 -138 177 -13 19 -16 99 -18 533 -1 281 2
507 6 503 5 -5 49 -78 99 -163z m-2851 -1344 l0 -795 -60 0 -60 0 0 740 0 740
-150 0 -150 0 0 -740 0 -741 -57 3 -58 3 -1 793 -1 792 269 0 268 0 0 -795z
m-670 -120 l0 -675 -190 0 -190 0 0 675 0 675 190 0 190 0 0 -675z m928 3 l-3
-673 -64 -3 -64 -3 6 233 c4 128 7 432 7 676 l0 442 60 0 60 0 -2 -672z m2352
-148 l0 -530 -411 0 c-404 0 -411 0 -398 19 8 11 102 133 209 271 307 395 316
407 428 555 117 156 164 215 169 215 2 0 3 -238 3 -530z m276 345 c66 -82 178
-226 249 -319 72 -93 164 -213 207 -266 120 -153 208 -271 208 -281 0 -5 -175
-9 -400 -9 l-400 0 0 268 c0 148 -3 385 -6 528 -6 230 -5 257 8 244 9 -8 69
-82 134 -165z m3546 -756 c68 -55 125 -104 126 -110 2 -5 -90 -9 -237 -9 -133
0 -241 2 -241 4 0 2 33 35 73 73 39 37 88 85 107 105 19 21 38 38 42 38 4 0
63 -45 130 -101z m-1132 -19 l0 -100 -385 0 -385 0 0 100 0 100 385 0 385 0 0
-100z"/>
<path d="M2850 8655 l0 -65 855 0 855 0 0 65 0 65 -855 0 -855 0 0 -65z"/>
<path d="M5121 7977 c-41 -13 -91 -61 -114 -109 -40 -85 -7 -189 77 -245 124
-83 290 -8 304 138 7 70 -13 122 -64 169 -60 56 -127 71 -203 47z m111 -144
c22 -20 24 -76 3 -93 -36 -30 -105 2 -105 49 0 51 63 79 102 44z"/>
<path d="M4200 7805 l0 -65 59 0 59 0 4 65 3 65 -62 0 -63 0 0 -65z"/>
<path d="M4450 7805 l0 -66 56 3 55 3 3 63 2 62 -58 0 -58 0 0 -65z"/>
<path d="M4692 7808 l3 -63 58 -3 57 -3 0 66 0 65 -60 0 -61 0 3 -62z"/>
<path d="M2222 7648 l3 -63 58 -3 57 -3 0 66 0 65 -60 0 -61 0 3 -62z"/>
<path d="M2470 7645 l0 -65 55 0 55 0 0 65 0 65 -55 0 -55 0 0 -65z"/>
<path d="M4865 7053 c-15 -32 -42 -92 -60 -133 -18 -41 -52 -118 -77 -170 -24
-52 -64 -139 -88 -192 l-45 -98 -57 0 -58 0 0 125 0 125 -215 0 -215 0 0 -125
0 -125 -134 0 -134 0 2 -942 1 -943 1478 -3 1477 -2 -2 947 -3 947 -127 -3
-128 -3 0 201 0 201 -230 0 -230 0 0 -200 0 -200 -44 0 -44 0 -95 218 c-53
119 -111 253 -130 297 -19 44 -41 92 -48 107 l-14 28 -376 0 -377 0 -27 -57z
m693 -111 c7 -15 45 -97 84 -182 39 -85 83 -181 99 -212 15 -32 26 -58 24 -58
-1 0 -41 18 -87 40 -131 63 -255 90 -412 90 -174 0 -302 -29 -448 -100 l-56
-28 57 121 c32 67 81 175 110 240 l53 117 282 0 281 0 13 -28z m772 -352 l0
-130 -80 0 -80 0 0 130 0 130 80 0 80 0 0 -130z m-2000 -75 l0 -55 -70 0 -70
0 0 48 c0 27 3 52 7 55 3 4 35 7 70 7 l63 0 0 -55z m1043 -45 c314 -36 585
-271 687 -595 30 -98 38 -289 16 -405 -19 -99 -102 -277 -163 -350 -178 -211
-410 -311 -688 -297 -280 15 -501 138 -654 366 -87 130 -120 239 -128 418 -5
114 -3 143 17 224 86 357 368 605 730 642 68 7 96 7 183 -3z m-833 -148 c0 -4
-22 -39 -50 -77 -27 -38 -50 -73 -50 -77 0 -5 -117 -8 -260 -8 l-260 0 0 85 0
85 310 0 c171 0 310 -3 310 -8z m2060 -77 l0 -85 -253 0 -253 0 -52 76 c-29
42 -52 80 -52 85 0 5 132 9 305 9 l305 0 0 -85z m0 -280 l0 -65 -198 0 -198 0
-22 60 -21 60 217 3 c119 1 218 3 220 5 1 1 2 -27 2 -63z m-2256 -2 l-23 -58
-200 -3 -201 -2 0 60 0 60 224 0 224 0 -24 -57z m126 -894 c108 -158 262 -277
443 -344 26 -10 47 -20 47 -22 0 -3 -62 -2 -137 1 -76 2 -310 5 -520 5 l-383
1 0 55 0 55 285 0 c157 0 285 3 285 7 0 3 -33 47 -74 97 -78 97 -111 144 -105
150 13 13 95 75 99 75 3 0 30 -36 60 -80z m1701 39 c27 -22 49 -45 49 -49 0
-9 -91 -127 -142 -184 -21 -23 -38 -45 -38 -49 0 -3 126 -6 280 -6 l280 0 0
-55 0 -55 -378 0 c-209 0 -434 -3 -500 -7 -71 -3 -122 -2 -122 3 0 5 45 30 99
56 55 26 119 61 143 77 63 43 189 177 233 249 21 34 40 62 42 62 2 0 27 -19
54 -42z"/>
<path d="M5150 6279 c-184 -31 -354 -150 -444 -312 -58 -103 -77 -169 -83
-292 -5 -100 -3 -118 20 -196 106 -346 413 -532 759 -461 239 50 396 190 485
437 37 102 25 334 -22 441 -122 277 -414 432 -715 383z m309 -255 c112 -55
209 -161 245 -269 10 -27 22 -87 28 -133 9 -72 9 -89 -5 -118 -14 -27 -22 -34
-46 -34 -17 0 -33 6 -38 13 -4 6 -8 53 -9 102 0 117 -28 182 -113 265 -92 90
-195 120 -324 96 -186 -36 -297 -172 -297 -366 0 -73 -1 -77 -25 -88 -53 -24
-67 -11 -79 69 -29 198 137 436 344 494 39 10 83 14 149 11 84 -4 103 -9 170
-42z m-267 -241 c26 -23 23 -36 -22 -88 -22 -25 -41 -56 -42 -68 -6 -94 19
-151 81 -186 68 -37 80 -91 26 -111 -58 -22 -161 55 -195 147 -40 108 -15 233
59 296 37 31 66 34 93 10z"/>
<path d="M7390 5433 c-14 -2 -57 -20 -96 -39 -84 -40 -158 -113 -201 -202 -25
-51 -28 -68 -28 -157 0 -87 3 -107 26 -155 32 -69 91 -129 155 -161 74 -36
181 -34 247 4 51 30 94 86 98 127 8 91 -22 140 -84 140 -48 0 -71 -28 -62 -77
8 -48 -17 -75 -68 -75 -94 0 -177 92 -177 197 0 180 213 311 415 255 194 -54
319 -277 271 -483 -30 -130 -98 -226 -209 -298 -103 -67 -125 -69 -736 -69
-524 0 -541 -1 -551 -19 -13 -25 -13 -67 0 -92 10 -18 27 -19 584 -19 592 0
612 1 706 42 146 63 263 185 320 335 81 212 30 456 -129 614 -52 52 -83 72
-146 99 -74 31 -89 34 -195 36 -63 1 -126 0 -140 -3z"/>
<path d="M3230 4441 l0 -798 61 -7 c34 -3 171 -6 304 -6 l241 0 29 -30 c35
-37 84 -60 126 -60 41 0 118 50 142 92 27 48 22 118 -12 165 -65 90 -167 97
-248 16 l-44 -43 -232 2 -232 3 0 733 0 732 -67 0 -68 0 0 -799z"/>
<path d="M8841 4514 c-12 -15 -21 -37 -21 -50 0 -31 37 -64 72 -64 61 0 90 76
45 118 -32 30 -71 28 -96 -4z"/>
<path d="M8846 4259 c-51 -40 -18 -119 52 -119 60 0 85 81 36 119 -15 12 -34
21 -44 21 -10 0 -29 -9 -44 -21z"/>
<path d="M6397 4092 c-18 -19 -21 -50 -11 -89 l6 -23 1059 0 c1036 0 1059 0
1069 19 16 32 12 66 -13 89 l-23 22 -1036 0 c-990 0 -1036 -1 -1051 -18z"/>
<path d="M8845 4005 c-30 -30 -31 -54 -4 -89 39 -50 119 -22 119 43 0 20 -9
36 -26 50 -35 27 -59 26 -89 -4z"/>
<path d="M4220 3817 c42 -75 42 -152 0 -232 -16 -31 -30 -59 -30 -61 0 -2 22
-4 48 -4 40 0 53 5 74 28 78 84 81 217 5 300 -16 17 -31 22 -74 22 l-53 0 30
-53z"/>
<path d="M8260 3445 c-57 -26 -99 -74 -116 -132 -22 -76 -2 -144 60 -201 158
-146 410 40 316 233 -45 92 -169 140 -260 100z m106 -133 c20 -13 35 -52 29
-72 -9 -27 -42 -43 -73 -35 -31 8 -42 21 -42 54 0 45 51 77 86 53z"/>
<path d="M7020 3345 l0 -65 60 0 61 0 -3 63 -3 62 -57 3 -58 3 0 -66z"/>
<path d="M7298 3403 c-27 -4 -28 -7 -28 -64 l0 -59 60 0 61 0 -3 62 c-3 61 -3
62 -33 64 -16 0 -42 -1 -57 -3z"/>
<path d="M7530 3343 l0 -63 55 0 55 0 0 59 0 59 -55 4 -55 3 0 -62z"/>
<path d="M7780 3345 l0 -65 60 0 60 0 0 65 0 65 -60 0 -60 0 0 -65z"/>
<path d="M6982 2558 l3 -193 818 -3 817 -2 0 70 0 70 -65 0 -65 0 0 60 0 60
64 0 c73 0 76 3 76 81 l0 49 -825 0 -825 0 2 -192z m908 2 l0 -60 -385 0 -385
0 0 60 0 60 385 0 385 0 0 -60z"/>
<path d="M6992 2238 c-21 -27 -23 -57 -6 -83 l16 -25 806 2 806 3 12 23 c6 13
8 37 5 55 l-7 32 -811 3 c-641 2 -813 -1 -821 -10z"/>
<path d="M1217 1268 l1 -63 1483 -2 c1168 -2 1485 0 1491 10 4 6 8 36 8 65 l0
52 -1492 0 -1493 0 2 -62z"/>
<path d="M4422 1269 l3 -62 107 -1 c65 -1 109 3 111 9 2 5 4 33 3 60 l-1 50
-113 3 -113 3 3 -62z"/>
<path d="M4860 1270 l0 -60 90 0 90 0 0 60 0 60 -90 0 -90 0 0 -60z"/>
<path d="M5257 1323 c-9 -9 -9 -95 1 -110 5 -8 93 -11 315 -11 l307 0 0 41 c0
23 3 52 6 65 l6 22 -314 0 c-173 0 -318 -3 -321 -7z"/>
<path d="M6110 1268 l0 -63 1558 0 1557 0 3 63 3 62 -1561 0 -1560 0 0 -62z"/>
<path d="M4880 1065 l0 -65 275 0 275 0 0 65 0 65 -275 0 -275 0 0 -65z"/>
</g>
</svg>
