<?xml version="1.0" standalone="no"?>
<!DOCTYPE svg PUBLIC "-//W3C//DTD SVG 20010904//EN"
 "http://www.w3.org/TR/2001/REC-SVG-20010904/DTD/svg10.dtd">
<svg version="1.0" xmlns="http://www.w3.org/2000/svg"
 width="1024.000000pt" height="1024.000000pt" viewBox="0 0 1024.000000 1024.000000"
 preserveAspectRatio="xMidYMid meet">

<g transform="translate(0.000000,1024.000000) scale(0.100000,-0.100000)"
fill="#000000" stroke="none">
<path d="M4927 9196 c-126 -62 -230 -114 -233 -115 -2 0 -203 -99 -447 -220
-243 -121 -536 -265 -652 -320 -115 -56 -223 -109 -240 -117 -116 -61 -165
-90 -163 -96 2 -3 207 -108 456 -232 l452 -226 0 143 c0 175 14 230 72 293 22
24 44 44 48 44 4 0 157 74 341 164 606 297 540 269 614 264 60 -4 90 -17 499
-221 283 -142 445 -229 466 -250 61 -61 70 -94 70 -269 0 -87 2 -158 5 -158 3
0 40 17 83 39 42 21 87 42 100 45 l22 7 0 -149 c0 -145 0 -149 -23 -161 -13
-7 -32 -27 -43 -44 -18 -30 -19 -55 -19 -437 0 -374 1 -408 18 -439 71 -129
252 -129 318 0 19 38 20 56 17 443 l-3 404 -33 47 -32 46 2 196 3 196 253 126
c138 69 252 128 252 131 0 3 -76 42 -168 87 -92 45 -360 177 -596 292 -236
116 -432 211 -436 211 -5 0 -10 4 -12 8 -1 4 -52 32 -113 61 -60 29 -230 114
-378 187 -147 74 -268 134 -270 134 -1 0 -105 -51 -230 -114z"/>
<path d="M4752 8347 l-402 -199 0 -284 c0 -156 4 -284 8 -284 5 0 17 10 28 21
38 42 141 108 233 149 183 80 346 110 581 105 85 -2 169 -6 185 -9 231 -46
415 -123 524 -222 l61 -56 -2 289 -3 288 -300 152 c-165 83 -347 174 -405 201
l-106 49 -402 -200z"/>
<path d="M5050 7610 c-238 -23 -438 -109 -550 -238 -99 -114 -157 -296 -147
-466 19 -359 289 -646 670 -712 171 -30 342 -6 502 71 176 84 276 181 360 350
61 123 79 196 78 325 -1 127 -20 207 -75 313 -74 142 -182 236 -343 298 -142
55 -316 76 -495 59z"/>
<path d="M4435 6114 c-66 -31 -189 -89 -350 -164 -61 -28 -300 -145 -693 -338
-63 -30 -139 -75 -170 -99 -157 -121 -251 -307 -266 -528 -3 -44 -8 -89 -10
-100 -2 -11 -7 -45 -11 -75 -10 -79 -14 -109 -25 -165 -5 -27 -12 -72 -16
-100 -3 -27 -8 -58 -9 -67 -2 -9 -7 -48 -10 -85 -4 -37 -9 -71 -11 -74 -1 -3
-6 -32 -9 -65 -4 -32 -8 -61 -10 -64 -2 -3 -6 -29 -10 -59 -4 -30 -8 -61 -10
-70 -1 -9 -6 -41 -11 -71 -4 -30 -8 -57 -9 -60 -1 -3 -5 -30 -9 -60 -5 -30
-10 -64 -12 -75 -2 -11 -7 -40 -10 -65 -5 -39 -26 -180 -39 -260 -4 -26 -12
-84 -20 -147 -2 -21 -9 -74 -15 -118 l-12 -81 -56 -13 c-95 -21 -229 -93 -310
-167 -139 -126 -202 -243 -232 -424 -41 -258 10 -466 163 -655 100 -123 185
-182 412 -283 202 -91 325 -153 325 -164 0 -6 3 -9 6 -5 4 3 15 -4 24 -16 18
-21 18 -22 -3 -28 -34 -9 -47 0 -47 34 0 39 -11 29 -12 -12 -1 -24 -4 -28 -14
-20 -7 5 -14 6 -17 2 -3 -4 -315 -9 -693 -11 -737 -4 -727 -3 -781 -54 -31
-29 -56 -99 -50 -140 9 -70 54 -126 120 -147 22 -7 1176 -10 3648 -8 l3615 2
41 27 c107 71 94 243 -22 297 -37 18 -82 20 -660 25 -341 4 -629 8 -640 9 -11
2 -33 9 -48 15 -16 7 -31 12 -33 12 -3 0 -26 14 -52 32 l-47 32 40 10 c22 5
42 13 45 17 3 5 90 44 193 88 234 100 295 133 380 212 240 219 319 560 201
870 -80 214 -281 391 -508 449 l-71 18 -7 63 c-4 35 -9 73 -12 85 -2 12 -7 45
-11 75 -8 71 -22 164 -30 209 -8 42 -32 211 -40 275 -3 22 -7 51 -10 65 -3 14
-8 44 -10 68 -2 24 -9 69 -14 100 -5 31 -12 75 -15 97 -3 22 -8 54 -11 70 -3
17 -7 41 -10 55 -2 14 -7 52 -10 85 -4 33 -8 67 -10 75 -2 8 -7 47 -11 85 -3
39 -8 72 -9 75 -2 3 -7 33 -10 65 -4 33 -9 67 -10 76 -2 9 -6 40 -10 69 -4 29
-9 62 -11 74 -2 12 -8 66 -14 122 -18 195 -83 337 -206 454 -81 76 -132 108
-324 200 -74 36 -136 68 -138 73 -2 4 -7 7 -12 7 -4 0 -24 7 -44 15 -20 8 -39
15 -42 14 -4 0 -10 4 -14 11 -4 6 -13 12 -21 14 -8 1 -59 24 -114 50 -105 51
-472 229 -563 274 -28 14 -54 23 -56 21 -6 -6 -547 -1498 -611 -1686 -16 -46
-31 -83 -34 -83 -4 0 -15 24 -25 53 -10 28 -47 131 -83 227 -36 96 -112 303
-168 460 -225 623 -371 1019 -378 1026 -1 1 -33 -13 -72 -32z m2404 -1031 c19
-22 22 -35 19 -73 -7 -74 -27 -94 -162 -157 -66 -32 -247 -120 -401 -197 -327
-162 -351 -169 -411 -114 -33 31 -37 40 -37 82 0 62 24 93 104 133 197 100
748 365 779 375 23 8 82 -19 109 -49z m-2807 -161 c444 -219 438 -215 438
-301 0 -31 -7 -49 -29 -73 -27 -30 -34 -33 -88 -33 -55 1 -78 11 -453 197
-217 108 -405 207 -416 220 -46 50 -38 126 19 174 55 46 78 38 529 -184z m413
-642 l694 -351 40 21 c22 11 43 20 46 20 3 0 5 -142 5 -316 0 -272 -2 -321
-16 -350 -49 -103 -202 -74 -205 39 -3 146 11 125 -144 207 -55 28 -104 55
-110 59 -13 10 -157 87 -380 201 -99 51 -184 96 -190 100 -5 4 -136 72 -290
150 -154 79 -292 152 -308 162 -56 39 -71 115 -43 209 37 120 107 198 179 199
18 0 289 -132 722 -350z m2192 329 c77 -37 133 -143 133 -253 0 -68 -24 -120
-63 -135 -12 -5 -155 -74 -317 -153 -162 -80 -354 -173 -426 -207 l-132 -63
-5 -232 c-5 -259 -11 -290 -78 -426 -80 -162 -238 -288 -419 -337 -81 -21
-262 -23 -340 -4 -311 77 -510 329 -510 645 0 57 3 106 6 109 6 5 166 -71 212
-101 7 -5 17 -37 23 -72 50 -313 414 -462 686 -283 90 59 152 157 173 271 11
63 5 152 -10 152 -5 0 -10 -3 -12 -7 -5 -12 -61 -49 -85 -57 -13 -4 -22 -2
-25 6 -2 7 -5 148 -7 313 l-3 300 549 272 c301 150 555 274 563 277 28 9 44 6
87 -15z m-3269 -592 c417 -206 634 -320 649 -344 10 -15 18 -46 18 -70 0 -61
-44 -104 -112 -110 -47 -5 -62 1 -370 157 -177 89 -333 173 -347 187 -48 48
-45 122 6 173 37 38 88 40 156 7z m3696 13 c34 -13 66 -66 66 -110 0 -79 -13
-88 -368 -262 -180 -88 -343 -162 -363 -165 -109 -16 -179 111 -106 192 19 21
160 94 597 308 97 48 129 54 174 37z m-3609 -635 c25 -9 386 -185 803 -391
756 -375 858 -424 886 -424 20 0 509 235 1536 737 139 68 184 86 220 86 58 1
121 -33 157 -85 49 -72 40 -200 -20 -256 -12 -11 -130 -72 -262 -135 -132 -63
-325 -156 -430 -207 -104 -51 -226 -109 -270 -130 -155 -74 -737 -358 -741
-363 -6 -6 84 -56 296 -165 159 -81 265 -137 435 -227 183 -97 336 -175 344
-175 5 0 100 45 212 99 112 55 274 133 359 174 407 197 393 191 449 162 36
-18 65 -78 57 -116 -11 -55 -38 -81 -131 -124 -49 -24 -144 -69 -210 -100 -66
-31 -151 -72 -190 -90 -38 -18 -142 -68 -230 -110 -257 -124 -324 -155 -334
-155 -5 0 -62 29 -128 64 -65 34 -278 149 -473 253 -195 105 -422 227 -505
273 -82 45 -258 141 -390 212 -132 72 -253 138 -270 148 -61 36 -423 224 -865
450 -250 128 -468 244 -484 259 -103 95 -55 295 81 338 50 15 46 15 98 -2z
m93 -1570 c312 -157 572 -293 579 -301 6 -9 16 -13 22 -10 5 4 16 -3 24 -14 7
-11 16 -17 20 -14 3 3 12 2 19 -3 12 -7 12 -12 2 -33 l-13 -24 -10 24 -10 25
0 -26 c-1 -22 -5 -27 -26 -25 -26 1 -36 16 -11 16 8 0 17 7 20 16 5 14 4 15
-8 5 -7 -6 -20 -10 -27 -8 -8 2 -11 2 -7 0 4 -2 4 -11 1 -19 -7 -19 -33 -18
-33 1 0 8 -4 15 -10 15 -5 0 -7 -7 -4 -15 5 -13 -11 -15 -112 -15 l-118 0
-150 74 c-83 41 -302 148 -487 239 -347 170 -389 198 -389 252 0 71 51 125
118 125 36 0 130 -44 610 -285z m702 -390 c0 -8 -4 -15 -10 -15 -5 0 -10 7
-10 15 0 8 5 15 10 15 6 0 10 -7 10 -15z m40 -6 c0 -6 -4 -7 -10 -4 -5 3 -10
11 -10 16 0 6 5 7 10 4 6 -3 10 -11 10 -16z"/>
<path d="M4840 5998 c0 -17 112 -342 175 -508 27 -69 67 -181 90 -250 23 -69
46 -124 51 -123 10 2 53 108 103 253 18 52 36 104 41 115 50 121 182 507 175
513 -2 3 -44 -8 -92 -24 -80 -26 -100 -29 -228 -29 -142 0 -168 6 -297 60 -12
5 -18 3 -18 -7z"/>
<path d="M7386 1461 c-4 -5 -2 -12 3 -15 5 -4 12 -2 15 3 4 5 2 12 -3 15 -5 4
-12 2 -15 -3z"/>
<path d="M1019 1299 c-48 -28 -73 -73 -73 -130 0 -148 199 -192 266 -59 24 47
22 87 -5 134 -41 71 -120 94 -188 55z"/>
<path d="M9170 1313 c-76 -28 -116 -149 -71 -217 79 -120 254 -66 254 79 0 99
-94 170 -183 138z"/>
</g>
</svg>
