<?xml version="1.0" standalone="no"?>
<!DOCTYPE svg PUBLIC "-//W3C//DTD SVG 20010904//EN"
 "http://www.w3.org/TR/2001/REC-SVG-20010904/DTD/svg10.dtd">
<svg version="1.0" xmlns="http://www.w3.org/2000/svg"
 width="1024.000000pt" height="1024.000000pt" viewBox="0 0 1024.000000 1024.000000"
 preserveAspectRatio="xMidYMid meet">

<g transform="translate(0.000000,1024.000000) scale(0.100000,-0.100000)"
fill="#000000" stroke="none">
<path d="M4072 9873 c-46 -7 -107 -24 -137 -38 -91 -43 -174 -154 -194 -257
-4 -25 -22 -63 -38 -84 -17 -22 -50 -77 -74 -123 l-44 -84 -7 -196 c-10 -294
-54 -512 -119 -586 -74 -84 -254 -202 -483 -317 -150 -75 -274 -155 -306 -197
-63 -82 -73 -89 -162 -115 -89 -27 -98 -33 -230 -150 -71 -62 -101 -110 -163
-261 -74 -179 -98 -330 -74 -458 l10 -58 -50 -75 c-56 -84 -87 -171 -121 -339
-26 -131 -83 -364 -103 -420 -8 -22 -20 -71 -28 -109 -12 -63 -11 -78 8 -173
27 -129 67 -219 120 -263 53 -45 296 -124 446 -145 216 -30 372 -16 493 46
l82 42 88 -8 c62 -5 104 -14 139 -31 77 -37 161 -42 236 -14 55 20 66 21 101
9 l38 -12 0 -79 c0 -46 10 -126 25 -194 14 -64 25 -135 25 -159 0 -56 26 -82
89 -90 68 -10 70 -12 20 -20 -29 -4 -55 -3 -67 4 -11 6 -28 11 -36 11 -24 0
-47 -55 -47 -114 -1 -55 10 -86 42 -122 17 -18 18 -25 7 -77 -15 -70 -8 -84
50 -112 33 -15 43 -26 46 -50 3 -16 14 -85 26 -152 19 -105 20 -127 9 -157
-13 -35 -11 -40 48 -153 60 -117 60 -119 81 -273 12 -85 26 -204 32 -263 13
-131 37 -212 88 -297 33 -56 47 -69 97 -93 64 -32 74 -28 75 28 0 17 3 47 6
67 l7 37 43 -67 c24 -37 55 -99 70 -139 l26 -72 -42 -65 c-23 -36 -50 -67 -59
-70 -9 -2 -37 -9 -62 -16 -74 -19 -153 -109 -201 -229 -19 -49 -22 -74 -22
-196 0 -126 3 -152 33 -265 18 -69 35 -155 38 -192 5 -63 4 -69 -26 -115 -45
-68 -91 -221 -91 -304 0 -49 -4 -68 -14 -72 -8 -3 -22 -21 -32 -38 -13 -27
-15 -45 -8 -98 13 -110 7 -210 -21 -336 -35 -159 -54 -400 -35 -445 23 -55
114 -92 147 -59 7 7 18 3 38 -17 25 -25 29 -26 40 -11 10 15 14 14 34 -6 17
-18 34 -22 89 -24 44 -1 85 -9 119 -24 50 -22 53 -22 118 -6 98 24 134 45 166
96 38 59 37 81 -9 134 -40 46 -44 60 -87 327 -9 52 -21 119 -27 148 -9 40 -9
69 1 130 7 42 13 140 15 217 2 113 7 152 25 203 21 60 153 305 240 444 22 35
62 102 90 150 27 48 111 169 186 269 75 100 146 202 159 228 63 123 85 509 42
731 -8 41 -20 128 -27 193 l-12 119 44 38 c27 24 54 39 71 40 37 0 90 46 86
75 -4 29 101 150 146 169 53 22 70 71 71 201 0 106 1 110 23 113 12 2 22 7 22
12 0 5 18 27 40 50 26 28 46 40 57 36 36 -10 94 -17 360 -41 323 -30 293 -29
293 -10 0 8 19 44 43 80 33 52 46 64 62 60 26 -6 62 13 124 65 76 64 98 144
66 233 l-13 39 41 19 c74 33 72 36 72 -119 0 -102 4 -148 17 -182 50 -138 70
-184 89 -212 29 -41 133 -107 180 -114 34 -6 42 -13 79 -74 22 -38 40 -78 40
-90 0 -11 12 -43 26 -71 40 -80 82 -229 113 -404 l29 -160 -20 -90 c-22 -103
-19 -158 14 -217 30 -54 128 -101 268 -129 150 -30 146 -28 169 -104 10 -36
30 -80 44 -98 13 -18 34 -61 46 -97 51 -155 120 -224 223 -226 56 -1 59 -2 86
-40 40 -54 73 -74 126 -74 116 0 165 145 79 237 -31 34 -34 43 -30 78 7 50
-11 102 -53 155 -25 31 -47 88 -96 248 -36 114 -74 243 -85 286 -24 93 -51
151 -78 166 -34 18 -90 207 -181 620 -34 151 -79 343 -100 425 -52 197 -189
604 -235 696 -30 58 -38 89 -46 167 -17 164 -62 266 -144 322 -69 48 -52 43
-645 172 -52 12 -102 27 -110 34 -21 17 -189 61 -288 74 -89 12 -137 7 -164
-17 -13 -12 -59 -16 -225 -18 -119 -2 -221 -9 -238 -15 -16 -6 -50 -31 -77
-56 -64 -60 -92 -60 -118 0 -10 25 -28 49 -39 55 -30 16 -91 14 -97 -4 -4 -10
-20 -15 -48 -15 -23 0 -48 -6 -55 -12 -10 -11 -20 -4 -54 34 -23 26 -60 54
-82 63 -22 9 -49 25 -61 36 -19 17 -69 116 -87 171 -4 11 -21 20 -46 24 -44 7
-40 0 -61 123 -6 35 -22 101 -36 147 -17 61 -22 96 -18 126 l7 41 -34 -25
c-49 -37 -143 -55 -314 -62 -82 -3 -168 -8 -190 -11 l-40 -5 35 17 c26 12 74
19 185 23 120 5 161 11 206 29 57 22 136 69 176 104 13 11 24 19 25 16 2 -2
14 -26 28 -54 13 -27 50 -77 80 -110 31 -33 82 -90 114 -127 49 -57 68 -71
134 -99 42 -17 151 -69 242 -115 179 -91 242 -110 313 -100 56 9 134 69 199
154 24 31 56 71 71 87 71 76 111 142 186 303 44 95 89 185 99 200 11 15 27 51
36 79 14 42 26 58 59 80 48 32 97 122 142 261 15 46 35 98 45 116 23 38 80
287 80 347 0 210 -123 420 -294 505 -136 67 -257 69 -390 6 -76 -37 -147 -103
-196 -185 -19 -30 -28 -103 -12 -94 7 5 9 -16 13 -185 l3 -88 24 23 25 22 -7
-34 c-3 -18 -6 -37 -6 -42 0 -5 -11 -9 -24 -9 -35 0 -63 44 -77 122 -11 62
-11 67 15 123 14 32 24 60 22 62 -11 11 -67 -34 -81 -64 -12 -26 -15 -50 -10
-106 10 -105 21 -132 72 -174 38 -32 47 -35 64 -25 15 10 20 10 23 0 50 -184
64 -274 52 -323 -3 -13 -47 -64 -96 -113 -50 -50 -90 -94 -90 -100 0 -10 -86
-23 -106 -15 -7 2 -29 32 -50 66 -21 34 -75 98 -120 142 -62 61 -86 92 -99
130 -32 90 -116 276 -151 333 -83 139 -232 252 -370 281 l-61 13 4 47 c4 36
13 53 40 80 19 18 46 51 60 72 17 26 33 39 48 39 30 0 87 40 102 70 21 46 -26
262 -59 268 -25 5 -24 -56 3 -163 12 -47 18 -92 15 -101 -9 -24 -86 -13 -136
20 -29 19 -42 23 -44 14 -2 -7 -9 -28 -15 -45 -10 -33 -10 -33 25 -33 40 0 43
-15 16 -69 -25 -50 -44 -59 -87 -38 -40 19 -95 23 -95 6 0 -5 -4 -8 -10 -4
-13 8 -50 -69 -49 -102 1 -17 3 -21 6 -10 2 9 9 17 15 17 15 0 37 31 38 53 0
20 19 21 73 6 37 -10 51 -39 27 -54 -5 -3 -10 -21 -10 -40 0 -29 -4 -34 -30
-40 -32 -7 -50 -30 -50 -64 0 -33 -38 -26 -94 17 -56 42 -126 151 -126 194 0
35 39 114 72 148 37 37 48 64 48 115 0 53 -19 95 -88 187 -27 37 -55 81 -62
98 -12 28 -11 33 8 53 12 11 59 33 104 48 97 33 93 36 -10 10 -40 -11 -72 -15
-70 -9 2 5 42 24 88 42 127 47 174 76 178 108 3 23 -18 119 -34 163 -4 9 0 15
9 15 11 0 13 -6 9 -22 -3 -14 -2 -19 6 -14 7 4 12 25 12 46 0 70 10 73 41 15
16 -30 29 -61 29 -69 0 -8 5 -18 11 -22 9 -5 10 1 5 21 l-7 27 35 -28 c19 -16
44 -41 56 -57 26 -33 40 -27 40 18 0 43 15 53 28 17 6 -15 17 -36 26 -47 15
-20 15 -19 16 7 0 65 19 26 59 -120 48 -180 51 -214 19 -236 -32 -22 -42 -20
-18 4 30 30 27 52 -5 40 -20 -7 -41 -3 -102 22 -100 41 -180 47 -248 20 -58
-23 -70 -42 -26 -42 17 0 68 -11 113 -24 134 -39 132 -37 53 -63 -38 -12 -62
-22 -53 -22 11 -1 19 -13 24 -36 4 -25 12 -35 24 -35 12 0 17 6 14 18 -3 11 4
21 21 29 21 9 25 9 25 -4 0 -8 -5 -24 -12 -36 -10 -20 -10 -21 6 -8 10 8 26
31 36 52 21 41 40 49 121 49 45 0 60 4 77 23 28 29 28 49 -3 235 -30 181 -29
162 -9 162 10 0 14 5 10 15 -5 13 -2 14 17 4 20 -11 21 -11 9 4 -12 14 -10 16
10 15 13 -1 29 -6 36 -11 9 -8 12 -6 10 4 -2 8 -12 19 -23 26 -19 11 -19 12 5
10 14 0 29 -6 33 -12 23 -29 -7 66 -33 103 -28 39 -29 57 -2 30 22 -22 22 -2
-1 41 -40 74 -162 205 -252 270 -141 103 -308 170 -470 190 -151 18 -167 18
-253 4z m-122 -83 c-19 -12 -61 -49 -92 -83 -64 -68 -80 -66 -21 3 36 42 116
100 137 100 6 0 -5 -9 -24 -20z m-257 -431 c-35 -81 -37 -90 -45 -249 -19
-377 -42 -507 -108 -608 -58 -90 -173 -185 -325 -268 -39 -22 -133 -73 -208
-114 -270 -147 -310 -174 -338 -221 -32 -55 -137 -138 -149 -118 -11 17 -49 0
-142 -65 -109 -76 -137 -122 -216 -351 -45 -132 -57 -222 -42 -316 14 -89 7
-126 -38 -191 -64 -94 -91 -177 -142 -443 -11 -60 -41 -171 -67 -245 -59 -174
-63 -223 -29 -366 28 -116 50 -163 88 -188 26 -16 197 -73 328 -108 70 -19
111 -23 235 -23 147 0 152 1 255 36 118 41 187 53 260 43 85 -11 59 -27 -32
-20 -81 6 -86 5 -193 -35 -105 -41 -116 -43 -240 -47 -72 -2 -164 1 -205 7
-75 12 -312 79 -383 109 -69 29 -114 100 -143 227 -28 125 -23 199 25 350 23
72 53 184 67 250 61 291 86 367 152 467 42 63 44 71 38 115 -20 137 -19 197 4
283 31 115 101 288 138 342 65 93 194 190 303 228 75 26 86 34 126 84 49 63
66 75 253 176 352 190 437 243 532 329 115 105 163 281 177 651 l7 195 42 89
c23 49 44 87 47 85 2 -3 -12 -43 -32 -90z m1327 -119 c0 -5 -2 -10 -4 -10 -3
0 -8 5 -11 10 -3 6 -1 10 4 10 6 0 11 -4 11 -10z m-934 -159 c27 -13 46 -30
57 -54 17 -35 17 -37 -11 -99 -16 -35 -32 -72 -36 -84 -3 -11 -18 -32 -32 -45
l-26 -24 -19 24 c-25 31 -24 39 11 80 l29 34 -6 -36 c-7 -45 1 -47 23 -5 14
26 14 38 4 71 -6 22 -18 51 -26 63 -19 29 -67 48 -100 40 -28 -7 -74 -48 -74
-67 0 -6 12 0 27 15 50 51 103 43 129 -19 20 -48 18 -51 -12 -16 -28 33 -68
41 -96 19 -9 -7 -26 -44 -38 -82 -25 -75 -23 -147 3 -173 14 -14 18 -13 45 6
38 27 47 26 78 -4 19 -19 23 -31 18 -52 -11 -46 -43 -73 -85 -73 -76 0 -131
83 -131 196 1 68 34 192 66 241 38 59 126 78 202 44z m-146 -188 c-1 -5 -7
-19 -15 -33 -8 -14 -14 -38 -15 -54 0 -16 -3 -27 -6 -23 -10 10 -7 73 5 96 11
20 31 29 31 14z m300 -335 c17 -32 42 -71 56 -88 25 -30 25 -30 9 -73 -9 -23
-19 -65 -24 -92 l-7 -50 -32 62 c-27 53 -32 73 -32 132 0 49 -7 90 -25 139
-14 38 -25 73 -25 78 0 16 48 -49 80 -108z m-323 -140 c4 -7 10 -175 13 -373
4 -320 7 -364 23 -392 10 -18 24 -33 32 -33 8 0 15 -6 16 -12 0 -10 2 -10 6 0
2 6 10 12 17 12 7 0 41 32 76 70 49 56 79 79 141 111 68 34 79 43 79 65 0 14
-5 34 -11 46 -13 23 -83 58 -119 57 -20 0 -16 -5 25 -25 96 -49 98 -75 8 -115
-38 -17 -83 -42 -101 -55 -36 -28 -82 -95 -82 -119 0 -9 -5 -13 -11 -9 -23 14
-2 91 45 167 25 41 55 82 66 92 12 11 20 31 20 51 0 50 31 53 263 28 54 -6 60
-5 88 22 l29 28 28 -26 c15 -14 68 -46 118 -71 118 -59 123 -71 32 -74 -105
-4 -105 -17 -1 -23 89 -5 94 -7 128 -40 l35 -34 -32 59 c-43 80 -97 131 -193
180 -58 30 -80 46 -80 60 0 31 45 41 118 26 85 -18 152 -52 224 -116 81 -73
135 -158 198 -317 79 -200 91 -223 143 -270 91 -83 144 -143 169 -192 21 -41
23 -51 11 -62 -12 -12 -22 -3 -70 59 -149 194 -198 237 -283 251 -66 11 -67
12 -50 99 10 53 12 89 6 115 l-9 37 -1 -41 c-1 -37 -14 -83 -88 -314 -36 -110
-190 -416 -236 -467 -24 -27 -60 -29 -167 -9 -41 8 -88 12 -105 9 -29 -6 -30
-5 -12 14 9 11 17 23 17 27 0 13 -53 26 -117 28 -74 2 -72 7 22 55 74 37 167
95 162 99 -2 3 -60 -18 -128 -45 -223 -90 -232 -81 -49 45 69 47 114 83 100
79 -36 -11 -202 -94 -222 -112 -15 -13 -18 -11 -27 23 -8 29 -7 40 3 48 8 6
47 37 88 68 115 88 113 97 -5 25 -58 -36 -108 -63 -110 -59 -13 23 -15 61 -4
75 6 9 44 33 82 52 86 43 79 44 -25 4 -44 -17 -85 -27 -91 -23 -8 5 -10 1 -7
-12 66 -224 73 -301 39 -416 -22 -77 -59 -148 -76 -148 -7 0 -31 -14 -55 -31
-37 -27 -55 -32 -139 -40 -53 -5 -120 -12 -148 -17 -49 -8 -68 -2 -42 14 12 7
69 94 69 105 0 4 -17 -2 -37 -12 -37 -19 -123 -26 -123 -11 0 4 14 13 30 19
34 13 41 43 11 43 -11 0 -23 -4 -26 -10 -10 -16 -25 -11 -25 8 0 33 -45 64
-100 70 -41 4 -51 1 -56 -13 -4 -10 -1 -21 7 -26 22 -14 69 -10 75 6 6 15 34
21 34 8 -1 -34 -62 -59 -101 -42 -30 12 -59 49 -59 74 0 21 -17 19 -30 -5 -13
-24 -30 -18 -30 11 0 22 76 109 95 109 7 0 15 7 19 15 7 20 -18 19 -85 -4 -30
-10 -61 -15 -70 -12 -29 11 10 63 62 82 44 17 44 17 -76 12 -103 -4 -170 -15
-235 -40 -35 -13 9 18 80 56 45 24 105 46 150 56 94 19 201 47 197 51 -8 8
-289 -48 -354 -70 -40 -14 -73 -21 -73 -16 0 11 102 58 238 110 62 24 111 44
109 46 -4 5 -276 -85 -309 -102 -16 -8 -40 -19 -54 -25 -22 -8 -25 -7 -16 4
20 23 215 117 262 126 37 7 39 9 14 10 -43 1 -127 -25 -208 -66 -76 -38 -94
-39 -44 -1 44 32 122 64 178 72 75 11 102 18 97 23 -10 10 -183 -29 -232 -52
-27 -13 -79 -49 -115 -79 -35 -30 -67 -52 -70 -49 -3 3 11 18 30 35 145 124
323 227 503 288 127 44 131 49 14 20 -131 -33 -318 -138 -532 -298 l-50 -37
22 31 c12 17 29 36 37 43 8 7 13 18 10 25 -3 7 20 48 50 92 31 43 82 117 113
164 32 47 90 120 130 163 40 43 73 85 73 94 0 24 -45 8 -112 -38 -31 -22 -74
-46 -95 -53 -42 -15 -73 -9 -166 33 -83 36 -97 25 -26 -21 74 -48 121 -67 167
-68 24 0 32 -5 32 -17 0 -52 -125 -246 -218 -339 -46 -45 -132 -95 -218 -124
-86 -30 -136 -63 -212 -140 -93 -95 -118 -93 -51 3 76 106 86 115 184 164 110
54 126 68 166 151 27 56 31 73 26 118 -11 111 -95 205 -203 228 -31 7 -33 5
-72 -67 -41 -75 -165 -230 -188 -235 -14 -4 -11 9 24 104 14 35 57 106 103
167 89 121 90 121 186 85 78 -29 126 -62 156 -107 30 -45 57 -121 57 -159 0
-15 3 -44 6 -65 6 -36 8 -37 25 -21 44 39 42 130 -5 221 -47 95 -109 135 -245
163 -79 15 -83 17 -52 24 18 5 84 41 146 81 160 104 224 133 340 156 28 5 94
32 148 60 87 44 99 48 113 35 13 -14 12 -20 -7 -58 -30 -58 -123 -153 -174
-178 -43 -21 -213 -56 -223 -45 -3 3 13 21 36 41 23 20 47 45 53 57 8 14 -2 9
-27 -15 -22 -21 -54 -50 -73 -66 -60 -51 -43 -56 172 -48 152 6 200 11 239 27
98 38 142 16 119 -62 -9 -28 -30 -53 -84 -98 -39 -33 -73 -58 -76 -56 -2 2 25
36 60 75 50 57 60 73 49 80 -11 7 -22 1 -40 -23 -13 -18 -59 -66 -101 -107
-70 -69 -158 -195 -144 -208 3 -3 20 8 38 25 28 27 146 99 258 157 24 13 47
38 68 74 47 82 49 97 12 131 -17 16 -31 31 -31 33 0 7 247 -3 300 -12 41 -7
61 -17 78 -37 65 -78 83 -96 88 -90 4 4 -3 33 -15 66 -21 55 -23 76 -24 347
-2 225 1 296 12 322 14 33 34 41 48 20z m2311 -70 c76 -37 163 -114 204 -178
70 -110 99 -301 62 -416 -8 -27 -19 -82 -24 -123 -5 -42 -19 -93 -33 -120 -13
-25 -37 -84 -52 -131 -15 -47 -38 -105 -51 -130 -26 -50 -116 -134 -107 -100
3 11 9 20 13 20 15 0 59 47 78 85 11 22 32 81 47 130 15 50 38 109 51 131 20
34 23 46 14 68 -10 28 -30 36 -30 12 0 -21 -65 -71 -109 -85 -21 -6 -56 -10
-77 -10 -37 1 -37 2 11 9 28 4 69 17 92 29 40 20 93 76 93 98 0 6 9 22 21 37
30 38 38 78 28 128 -11 49 -60 108 -90 108 -38 0 -163 -66 -196 -103 -18 -20
-34 -37 -36 -37 -3 0 -4 11 -4 24 0 28 -32 75 -50 76 -22 0 -15 14 25 51 83
79 164 119 270 134 54 7 68 21 30 30 -30 7 -170 -29 -221 -57 -23 -13 -62 -49
-87 -80 -24 -31 -48 -54 -52 -52 -8 5 74 110 106 135 29 23 97 45 189 60 42 7
77 17 77 21 0 19 -153 3 -210 -21 -48 -20 -145 -80 -183 -111 -21 -18 -41 -29
-45 -25 -11 10 67 71 142 110 91 48 148 65 224 65 34 0 62 4 62 8 0 18 -64
104 -100 135 -77 66 -124 82 -235 82 -117 0 -163 -17 -243 -91 l-47 -43 80 39
c44 22 94 42 110 46 17 3 6 -5 -27 -19 -96 -41 -148 -76 -165 -112 -15 -32
-15 -35 6 -72 l22 -38 -35 40 c-48 55 -46 73 19 146 82 91 163 128 284 129 74
0 91 -4 149 -32z m-141 -24 c-3 -3 -12 -4 -19 -1 -8 3 -5 6 6 6 11 1 17 -2 13
-5z m-50 -10 c-3 -3 -12 -4 -19 -1 -8 3 -5 6 6 6 11 1 17 -2 13 -5z m93 -18
c-84 -19 -130 -36 -190 -69 -31 -18 -49 -24 -42 -15 30 37 194 98 262 96 14 0
0 -6 -30 -12z m106 -44 c7 -4 -25 -8 -70 -8 -55 -2 -100 -9 -141 -24 -62 -22
-105 -33 -105 -27 0 5 99 41 150 55 42 12 150 15 166 4z m-2572 -156 c-13 -82
-31 -173 -40 -202 l-15 -54 -88 0 -88 0 42 45 c24 26 76 113 124 206 46 88 84
159 86 157 2 -2 -8 -70 -21 -152z m2697 93 c16 -18 27 -34 24 -37 -3 -4 -16 7
-29 22 -23 29 -23 29 -143 29 -113 1 -124 -1 -177 -28 -31 -15 -56 -34 -56
-42 0 -7 -3 -13 -8 -13 -4 0 -25 -15 -47 -34 -33 -29 -37 -36 -23 -41 12 -5
35 8 74 44 39 34 77 57 117 71 82 27 107 25 31 -4 -67 -25 -104 -48 -148 -95
-16 -17 -33 -28 -38 -25 -11 7 -10 -7 2 -26 10 -15 5 -18 86 56 49 44 206 104
269 103 l50 -1 -65 -10 c-86 -12 -213 -74 -273 -134 l-45 -46 -50 40 -50 39
31 24 c54 39 87 71 82 79 -5 8 93 46 135 53 14 2 69 5 123 6 99 1 99 1 128
-30z m-485 2 c-4 -5 0 -12 6 -15 10 -3 8 -8 -4 -16 -9 -6 -24 -17 -32 -25 -16
-17 -26 -19 -26 -7 0 5 11 14 25 20 27 13 35 38 9 28 -14 -5 -15 -4 -4 9 13
16 35 21 26 6z m79 -41 c-3 -5 -13 -10 -22 -10 -9 0 -34 -18 -55 -41 -22 -23
-41 -39 -43 -37 -9 9 23 54 54 75 34 23 77 32 66 13z m-1894 -71 c9 -9 42 -20
74 -24 32 -4 67 -10 78 -14 17 -6 14 -9 -17 -14 -53 -8 -76 -32 -75 -76 0 -33
1 -34 10 -12 5 13 12 21 16 18 7 -8 -14 -41 -64 -98 -21 -25 -47 -64 -57 -87
-11 -23 -21 -41 -22 -39 -2 2 3 27 11 57 25 94 29 181 11 233 -9 26 -16 64
-15 85 l0 37 17 -25 c9 -13 24 -32 33 -41z m2008 -116 c-18 -21 -35 -40 -37
-42 -1 -3 -7 0 -13 6 -7 7 1 20 26 42 49 43 66 39 24 -6z m302 -106 c37 -31
49 -59 48 -109 -1 -43 -2 -43 -9 12 -7 46 -14 60 -46 88 -20 17 -33 32 -28 32
5 -1 21 -11 35 -23z m-588 -64 c-4 -45 2 -84 26 -174 17 -65 30 -137 30 -165
-1 -46 -2 -45 -10 21 -5 39 -21 106 -36 150 -26 78 -36 171 -21 208 13 31 16
18 11 -40z m566 16 c40 -39 43 -94 8 -127 -30 -29 -42 -17 -17 18 l19 26 -80
30 c-77 28 -106 44 -76 44 7 0 32 -9 55 -20 22 -11 46 -20 52 -20 5 0 19 -5
30 -12 25 -16 37 -4 19 18 -18 22 -71 44 -106 44 -26 0 -26 1 -7 15 31 24 69
18 103 -16z m-480 -40 c-20 -39 -6 -129 34 -212 38 -81 42 -100 10 -44 -59
100 -84 224 -54 261 19 23 24 20 10 -5z m-3434 -81 c-30 -30 -55 -51 -55 -47
0 11 100 112 106 107 2 -3 -21 -30 -51 -60z m3558 -82 c52 -50 32 -39 -31 19
-34 30 -72 93 -72 117 1 7 12 -9 26 -36 14 -27 49 -72 77 -100z m389 47 c-25
-48 -60 -87 -92 -103 -22 -12 -21 -10 6 16 17 16 39 45 49 64 19 39 46 72 52
66 3 -2 -4 -21 -15 -43z m-87 27 c-3 -5 -12 -10 -18 -10 -7 0 -6 4 3 10 19 12
23 12 15 0z m21 -47 c-7 -7 -26 7 -26 19 0 6 6 6 15 -2 9 -7 13 -15 11 -17z
m-360 -79 c40 -88 43 -105 9 -50 -13 22 -22 43 -19 48 3 4 0 8 -7 8 -7 0 -9 3
-6 7 4 3 3 11 -2 17 -11 15 -22 46 -15 46 3 0 21 -34 40 -76z m-3330 -18 c75
-78 105 -187 69 -256 -18 -34 -45 -54 -150 -110 -44 -24 -95 -54 -112 -67 -30
-21 -33 -22 -33 -6 0 10 16 29 36 42 94 64 184 200 184 275 l-1 41 -20 -40
c-42 -88 -131 -160 -179 -148 -27 7 -25 16 10 57 31 35 89 154 111 225 7 23
17 41 23 41 5 0 33 -24 62 -54z m3445 7 c13 -16 12 -17 -3 -4 -10 7 -18 15
-18 17 0 8 8 3 21 -13z m-63 -34 c-3 -8 -7 -3 -11 10 -4 17 -3 21 5 13 5 -5 8
-16 6 -23z m219 15 c-3 -3 -12 -4 -19 -1 -8 3 -5 6 6 6 11 1 17 -2 13 -5z
m-59 -28 c17 -16 38 -227 25 -250 -7 -13 -12 14 -16 96 -8 139 -12 152 -45
166 -26 11 -26 11 -2 6 14 -4 31 -11 38 -18z m-78 -63 c-10 -16 -11 -15 -6 7
3 14 7 36 7 50 2 19 3 18 6 -7 2 -18 -1 -41 -7 -50z m-68 42 c-2 -14 -9 -25
-14 -25 -5 0 -7 3 -5 8 2 4 7 15 10 25 9 25 15 21 9 -8z m351 15 c-15 -6 -23
-18 -23 -33 0 -28 -56 -207 -69 -220 -5 -5 -5 10 1 34 6 24 14 46 18 49 3 3
14 41 24 85 22 96 22 95 49 94 l22 0 -22 -9z m-115 -138 c-4 -151 -11 -162
-103 -162 -150 0 -312 88 -330 180 l-6 35 21 -42 c12 -24 36 -55 54 -70 64
-54 214 -101 279 -88 63 14 67 24 67 164 0 90 3 122 11 114 7 -7 10 -53 7
-131z m31 -16 c-9 -8 -10 -5 -5 14 3 14 7 50 8 80 2 52 2 51 5 -14 3 -45 0
-73 -8 -80z m-1144 34 c50 -19 88 -54 174 -160 75 -93 82 -105 72 -126 -6 -14
-22 -29 -35 -35 -21 -10 -32 -8 -69 14 -53 31 -104 87 -124 136 -19 44 -60
104 -107 155 -20 21 -36 40 -36 41 0 5 97 -14 125 -25z m658 -34 c-5 -9 -30
-40 -56 -69 -26 -28 -62 -70 -82 -92 -24 -28 -35 -35 -35 -23 0 9 39 59 88
111 83 89 105 108 85 73z m144 -156 c26 -11 40 -19 30 -20 -22 0 -93 35 -103
52 -6 10 -4 10 9 0 8 -8 37 -22 64 -32z m213 -113 c14 -77 10 -86 -52 -118
-65 -33 -117 -35 -174 -6 -80 40 -147 99 -177 155 -36 66 -29 67 13 2 67 -104
221 -182 290 -148 40 21 70 92 71 168 1 74 8 60 29 -53z m-127 86 c-7 -2 -19
-2 -25 0 -7 3 -2 5 12 5 14 0 19 -2 13 -5z m-563 -27 c0 -2 -15 -36 -34 -77
-19 -41 -42 -98 -52 -128 -16 -49 -18 -52 -31 -35 -14 19 -15 54 -5 91 12 38
122 174 122 149z m-2860 -126 c-20 -13 -43 -13 -35 0 3 6 16 10 28 10 18 0 19
-2 7 -10z m2726 -17 c-3 -10 -8 -30 -11 -44 -7 -28 -38 -39 -117 -39 -51 0
-48 15 5 28 24 7 55 24 72 42 32 33 59 40 51 13z m-2341 -122 c55 -42 129 -97
166 -123 60 -42 119 -97 79 -73 -124 75 -336 232 -380 281 l-25 28 30 -19 c17
-10 75 -52 130 -94z m2828 70 c35 -18 36 -19 13 -25 -13 -3 -43 -32 -67 -63
-81 -107 -90 -108 -29 -3 22 38 40 78 40 89 0 25 -3 25 43 2z m297 -30 c-11
-16 -27 -48 -35 -71 -24 -69 -93 -192 -142 -256 -92 -118 -196 -229 -242 -256
-79 -47 -136 -35 -354 75 -79 40 -180 87 -226 106 -71 29 -88 41 -127 90 -26
31 -67 79 -94 106 -45 48 -99 136 -83 134 5 0 59 -63 120 -139 l113 -138 82
-33 c46 -19 137 -61 203 -95 136 -70 238 -107 281 -102 27 3 29 6 34 58 3 30
9 61 14 68 6 10 0 9 -22 -2 -34 -18 -62 -21 -62 -7 0 11 121 64 128 56 3 -3 8
-24 11 -48 4 -27 11 -42 20 -42 22 0 88 102 121 190 17 44 37 87 44 95 30 35
28 40 -14 25 -55 -19 -52 -7 19 89 l55 74 56 4 c39 3 66 11 85 26 37 29 40 28
15 -7z m-3466 -15 c70 -29 125 -134 112 -213 -4 -21 -24 -81 -46 -133 -21 -52
-47 -117 -56 -143 -10 -27 -36 -70 -60 -95 l-42 -47 -188 -5 c-104 -3 -189 -5
-190 -5 0 0 5 52 11 117 14 129 24 151 99 213 31 25 61 68 105 148 70 129 90
153 146 166 57 13 72 13 109 -3z m843 -72 c-3 -3 -12 -4 -19 -1 -8 3 -5 6 6 6
11 1 17 -2 13 -5z m-1188 -101 c-50 -47 -80 -68 -97 -68 -39 0 -35 17 11 50
100 72 121 85 139 85 13 0 -3 -20 -53 -67z m3135 -152 c-7 -8 -46 35 -65 71
-34 66 -20 65 25 -2 24 -36 42 -67 40 -69z m-791 42 c58 -258 59 -315 11 -384
-41 -60 -107 -129 -123 -129 -21 0 -90 53 -97 75 -5 13 -15 -28 -30 -110 -35
-204 -111 -387 -191 -461 l-44 -41 31 -32 c39 -38 65 -39 130 -5 45 23 64 44
41 44 -4 0 -24 11 -44 24 -31 22 -38 23 -54 10 -17 -13 -17 -15 11 -39 15 -15
26 -28 24 -31 -3 -2 -22 12 -44 31 -28 25 -34 34 -21 35 9 0 17 6 17 14 0 7 7
19 15 26 12 10 15 10 15 -1 0 -7 9 -3 21 10 19 20 29 23 75 19 l54 -5 0 33 c0
42 -16 84 -32 84 -7 0 -30 -16 -51 -36 -21 -20 -40 -35 -42 -33 -5 6 38 54 55
62 8 4 22 12 32 19 27 19 44 -5 51 -72 6 -56 29 -110 47 -110 4 0 26 14 50 31
l42 31 -33 35 c-19 19 -51 46 -71 59 -21 13 -45 35 -54 49 -15 23 -15 27 2 54
11 16 47 48 82 71 35 24 69 51 75 61 15 24 26 24 53 -2 28 -26 40 -9 15 22
-18 23 -18 24 12 61 17 21 34 38 39 38 5 0 0 -12 -11 -26 -11 -15 -19 -29 -17
-33 5 -7 53 -31 112 -56 51 -21 77 -70 72 -135 -3 -43 -7 -47 -79 -103 l-76
-58 -47 42 c-26 24 -54 44 -62 45 -21 3 -27 11 -19 23 3 6 11 8 17 5 13 -8 3
11 -21 41 -9 11 16 -13 55 -52 39 -40 76 -73 81 -73 18 0 24 49 9 73 -7 12
-24 52 -36 89 -14 44 -28 69 -40 73 -17 5 -62 -10 -100 -34 -8 -5 -24 -12 -35
-16 -18 -6 -14 -11 30 -50 59 -52 55 -57 -14 -13 -50 30 -52 31 -71 13 -11
-10 -20 -25 -20 -32 0 -16 41 -54 126 -119 50 -37 61 -41 74 -30 9 8 23 11 35
6 21 -7 31 0 -150 -102 -142 -80 -311 -148 -333 -134 -5 3 -15 24 -22 48 -8
24 -15 45 -16 47 -2 1 -13 -7 -26 -19 -13 -12 -54 -38 -93 -57 -107 -55 -218
-57 -386 -7 -28 8 -49 17 -46 20 2 2 17 0 32 -6 45 -17 225 -41 264 -35 20 4
54 14 76 23 49 20 160 96 181 125 15 20 16 20 10 2 -5 -15 0 -12 19 10 83 95
205 450 208 599 0 36 3 43 13 35 7 -6 10 -18 7 -27 -6 -15 -4 -15 10 -4 22 19
45 9 95 -39 48 -48 55 -40 13 17 -38 52 -59 69 -104 84 -30 9 -36 15 -27 25 6
8 21 16 33 18 21 3 20 4 -6 15 -19 8 -36 31 -59 77 -33 70 -83 121 -153 158
-29 15 -68 22 -140 27 -55 4 -80 8 -55 9 25 1 74 6 110 11 36 5 133 14 215 20
83 6 173 17 200 25 83 22 82 23 98 -52z m-703 -43 c11 -7 5 -10 -23 -10 -80 0
-253 -78 -318 -142 -37 -37 -22 -52 20 -19 50 40 85 53 190 72 71 13 124 17
161 13 51 -6 110 -27 110 -40 0 -2 -10 0 -21 7 -39 20 -168 23 -263 5 -97 -19
-138 -35 -175 -72 -13 -13 -32 -24 -42 -24 -18 0 -59 -36 -59 -51 0 -4 39 3
88 17 81 23 262 43 397 44 46 0 48 1 32 17 -24 24 -122 28 -248 9 -58 -8 -115
-18 -125 -21 -10 -3 -5 1 12 9 52 24 221 47 326 44 53 -2 99 0 103 4 15 15 -6
58 -37 74 -54 28 -133 28 -238 0 -52 -13 -96 -23 -98 -21 -6 6 150 53 188 57
19 1 37 6 40 10 12 15 164 -12 218 -39 77 -39 94 -66 95 -145 0 -53 -47 -314
-59 -327 -7 -8 -4 12 16 119 11 58 20 116 19 130 -1 29 -69 -289 -72 -337 -1
-17 -4 -29 -6 -27 -3 2 -22 -31 -43 -73 -22 -43 -41 -79 -43 -81 -2 -2 -18 4
-35 13 -31 16 -33 16 -47 -4 -21 -31 -70 -54 -80 -39 -5 9 -9 5 -13 -12 -6
-24 -10 -25 -68 -23 -54 1 -200 39 -190 49 2 2 53 -6 113 -16 124 -23 133 -24
119 -11 -5 5 -25 11 -44 14 -30 3 -28 4 13 5 26 1 47 6 47 11 0 5 8 12 18 14
16 4 -197 12 -261 10 -16 -1 -26 2 -22 5 4 4 73 9 155 12 140 5 173 10 156 27
-9 9 -220 10 -316 1 -52 -5 -64 -4 -40 2 19 5 108 15 198 22 89 7 162 15 162
19 0 15 -47 21 -159 21 -112 0 -281 -26 -281 -43 0 -10 97 -96 145 -128 22
-15 60 -35 85 -46 53 -22 77 -41 40 -30 -121 34 -293 169 -347 274 -40 76 -43
130 -13 247 52 203 158 316 368 389 72 25 128 31 152 15z m-396 -75 c-53 -38
-190 -85 -248 -85 -37 0 -96 25 -148 62 -50 35 -30 35 38 1 44 -22 80 -33 108
-33 57 1 179 34 229 64 63 36 77 31 21 -9z m-64 -58 c0 -2 -10 -12 -22 -23
l-23 -19 19 23 c18 21 26 27 26 19z m-82 -132 c-36 -75 -43 -102 -55 -208 -22
-182 -14 -293 26 -392 17 -44 48 -104 67 -132 22 -34 29 -53 21 -53 -22 0 -44
30 -83 115 -53 118 -67 197 -59 335 11 187 33 278 91 378 40 68 36 49 -8 -43z
m-659 1 c17 -32 45 -76 62 -98 38 -47 33 -59 -9 -23 -55 46 -97 125 -93 174 1
19 5 15 40 -53z m-33 -95 c12 -29 31 -51 57 -68 35 -22 39 -28 33 -55 -3 -17
-7 -47 -8 -67 -1 -25 -3 -18 -7 22 l-6 59 -70 29 c-38 16 -86 43 -105 59 l-35
29 38 16 c27 11 42 25 49 47 l11 32 13 -30 c6 -16 20 -49 30 -73z m2014 36
c-24 -23 -35 -31 -25 -17 38 49 58 70 64 65 3 -3 -15 -25 -39 -48z m-1404 24
c-7 -11 -87 -31 -118 -30 -13 0 6 8 42 18 81 23 82 23 76 12z m1493 -55 c17
-33 33 -69 35 -80 6 -36 47 -96 65 -96 9 0 23 6 31 13 8 6 7 3 -3 -9 -23 -28
-22 -44 9 -107 32 -64 28 -100 -14 -162 -38 -54 -175 -171 -302 -257 -58 -39
-109 -76 -115 -83 -5 -6 -24 -14 -41 -18 -26 -5 -33 -3 -37 13 -5 21 7 27 18
10 12 -20 37 -9 98 40 34 27 109 84 167 126 157 114 216 177 233 245 11 43
-83 223 -157 303 -15 15 -24 31 -21 34 3 4 17 -7 30 -23 13 -17 24 -27 25 -23
0 11 -43 98 -49 98 -4 0 -48 -45 -100 -101 -109 -117 -349 -304 -278 -217 6 8
48 42 92 75 88 67 275 252 275 273 0 18 3 14 39 -54z m-2495 -21 c3 -8 13 -15
22 -15 13 0 14 3 4 15 -11 13 -3 15 59 15 81 0 118 -13 183 -62 38 -29 100
-59 171 -82 24 -8 12 -26 -17 -26 -13 0 -29 -7 -36 -15 -11 -13 -8 -17 19 -28
47 -17 38 -46 -23 -76 -84 -42 -214 -38 -361 9 -51 16 -56 20 -37 26 13 4 28
17 33 31 9 25 45 43 87 43 18 0 23 3 14 9 -17 10 -116 -5 -151 -24 -14 -7 -53
-34 -86 -59 -33 -25 -63 -46 -67 -46 -5 0 -8 11 -8 25 0 23 -2 24 -21 15 -11
-7 -22 -10 -24 -8 -11 11 21 32 95 63 46 19 93 43 104 54 28 26 68 41 97 35
14 -2 11 1 -7 7 -26 9 -38 7 -72 -10 -23 -12 -62 -24 -87 -28 -37 -5 -45 -3
-45 10 0 24 26 34 105 43 39 4 64 9 56 12 -15 5 -167 -13 -246 -30 -27 -6 -71
-21 -97 -33 -34 -16 -48 -18 -48 -9 0 22 51 74 93 95 96 50 278 77 291 44z
m891 -49 c-12 -28 -23 -82 -67 -324 -10 -53 -11 -55 -64 -79 -51 -23 -61 -24
-154 -18 -62 5 -100 12 -101 19 -7 88 -7 106 1 111 6 4 10 -19 10 -56 0 -93 9
-66 20 59 11 123 38 211 77 250 24 24 29 25 115 19 50 -3 91 -7 93 -9 1 -2 -5
-52 -15 -113 -22 -134 -27 -204 -15 -207 5 -2 15 37 22 86 7 49 22 127 33 174
11 46 20 85 20 88 0 2 -56 4 -124 4 -107 0 -127 -3 -148 -20 -31 -23 -69 -124
-78 -205 l-7 -60 -2 49 c-1 51 39 198 63 232 16 21 84 30 243 31 l91 1 -13
-32z m1598 -36 c6 0 8 -2 5 -5 -3 -3 -21 2 -39 12 -19 10 -36 19 -38 20 -1 1
0 7 4 13 4 7 16 2 32 -15 14 -14 30 -25 36 -25z m-24 -36 c18 -14 36 -35 42
-47 7 -12 -9 -3 -40 23 -28 24 -51 45 -51 47 0 10 22 0 49 -23z m-270 -22 c9
6 6 1 -7 -13 l-23 -24 -25 28 c-34 40 -30 54 7 23 26 -22 34 -24 48 -14z
m1769 -29 c50 -9 92 -20 92 -25 0 -10 -3 -10 -145 7 -174 21 -178 21 -194 -16
-12 -26 -17 -30 -40 -24 -14 3 -118 11 -231 16 -113 6 -207 13 -209 15 -15 15
33 19 201 16 144 -2 196 -6 218 -17 33 -17 50 -19 50 -6 0 5 5 22 10 37 10 26
11 26 83 20 39 -4 114 -14 165 -23z m-2071 -15 c-3 -8 -6 -5 -6 6 -1 11 2 17
5 13 3 -3 4 -12 1 -19z m1125 -58 c29 -45 36 -50 69 -50 24 0 50 10 78 31 41
29 42 30 39 7 -3 -25 -69 -68 -105 -68 -37 0 -70 21 -90 57 -21 39 -50 50 -94
34 -44 -15 -76 -14 -83 4 -4 12 0 14 17 10 12 -3 40 0 62 8 64 23 72 21 107
-33z m-2554 -107 c-1 -76 1 -153 6 -170 l8 -33 124 0 c104 0 124 -2 124 -15 0
-13 -21 -15 -129 -15 -93 0 -132 4 -138 13 -18 28 -15 357 3 357 2 0 3 -62 2
-137z m3487 25 c-117 -125 -139 -167 -185 -345 -13 -53 -31 -57 -24 -5 12 84
46 173 93 244 49 73 187 216 198 205 3 -3 -34 -48 -82 -99z m-1701 36 c3 -8 2
-12 -4 -9 -6 3 -10 10 -10 16 0 14 7 11 14 -7z m2225 -24 c53 0 61 -12 16 -23
-11 -3 27 -5 84 -6 195 -2 323 -57 376 -161 28 -55 50 -142 60 -240 4 -37 19
-94 36 -132 16 -36 29 -71 29 -76 0 -6 14 -46 31 -89 98 -244 188 -561 283
-998 60 -274 80 -351 122 -464 41 -110 49 -126 80 -164 13 -16 31 -54 40 -85
19 -67 57 -195 114 -377 25 -82 55 -154 80 -195 42 -68 60 -116 60 -162 0 -37
-9 -35 -50 7 -18 19 -35 33 -38 31 -10 -11 33 -69 67 -91 43 -26 76 -68 86
-106 7 -30 -27 -79 -55 -79 -27 0 -120 108 -157 182 -40 80 -54 140 -43 179 6
19 4 45 -5 74 -7 25 -9 42 -4 39 19 -12 7 5 -36 50 -25 26 -45 52 -45 57 0 6
-5 7 -12 3 -6 -4 -8 -3 -5 3 9 14 -22 75 -34 67 -5 -3 -3 -15 6 -27 21 -30 19
-45 -2 -16 -19 25 -23 32 -73 114 -16 28 -46 68 -65 90 -68 76 -115 201 -115
304 0 20 -14 90 -31 156 -22 85 -32 148 -34 215 -2 73 -8 112 -29 170 -15 43
-29 104 -31 144 -4 72 -11 91 -20 60 -5 -16 -51 -140 -74 -198 -17 -43 -33 97
-27 225 3 68 6 133 6 144 -7 381 -16 490 -47 585 l-18 55 -3 -65 c-1 -36 6
-107 16 -158 16 -84 17 -105 5 -200 -6 -59 -12 -128 -13 -153 0 -30 -11 -68
-34 -115 -18 -38 -39 -93 -46 -121 -6 -29 -15 -53 -19 -53 -4 0 -27 52 -50
115 -36 95 -42 122 -36 156 4 22 4 65 0 95 -5 43 -10 54 -25 54 -17 0 -30 -19
-30 -43 0 -7 7 -3 15 7 14 18 15 16 14 -30 0 -27 -4 -69 -8 -94 -8 -47 -8 -48
-34 25 -6 17 -25 61 -44 98 -65 136 -85 235 -62 308 6 19 13 40 15 48 4 11 7
12 16 3 15 -15 38 -16 38 -2 0 6 -7 10 -15 10 -20 0 -19 22 5 100 11 36 20 66
20 68 0 7 -45 0 -114 -18 -76 -20 -196 -25 -151 -6 11 4 38 16 61 26 22 10 66
23 99 29 70 13 75 16 34 25 -34 6 -96 -7 -141 -30 -16 -8 -28 -12 -28 -10 0 3
13 26 30 53 23 38 30 62 32 113 3 71 -2 75 -61 56 -21 -7 -23 -6 -17 10 4 11
12 45 18 76 20 116 -21 142 -222 136 -69 -2 -134 -8 -145 -13 -13 -6 -6 7 20
37 22 26 51 66 64 89 l24 42 -49 -28 c-69 -41 -122 -92 -156 -152 -17 -29 -31
-53 -33 -53 -1 0 4 26 12 58 7 31 16 72 20 91 3 19 22 50 44 74 38 39 40 40
91 34 53 -6 53 -6 29 12 -15 12 -21 23 -16 31 6 10 36 11 128 6 66 -3 145 -6
176 -6z m-1069 -82 c-56 -95 -108 -165 -140 -185 l-25 -17 17 25 c9 13 40 62
69 109 50 83 108 154 117 145 3 -2 -15 -37 -38 -77z m-1346 13 c-4 -17 -9 -30
-11 -27 -3 2 -2 19 2 36 9 41 17 33 9 -9z m720 -69 c0 -95 -13 -122 -57 -122
-28 0 -39 -8 -70 -48 -29 -38 -59 -61 -137 -102 -55 -30 -100 -57 -100 -60 0
-4 11 -12 24 -18 13 -6 45 -43 72 -84 26 -40 54 -77 60 -83 12 -10 104 -151
104 -159 0 -3 16 -31 35 -64 20 -33 46 -78 58 -101 78 -146 182 -271 225 -271
11 0 30 8 43 19 27 21 27 19 -36 225 -49 160 -76 224 -139 331 -94 157 -160
216 -265 236 l-46 8 52 -4 c68 -5 117 -32 179 -97 95 -99 154 -218 234 -468
70 -219 71 -224 29 -249 -52 -32 -89 -27 -131 17 -73 76 -115 142 -196 302
-45 91 -100 190 -122 220 -21 30 -59 85 -84 121 -24 37 -58 76 -76 89 -27 19
-35 20 -59 10 -18 -7 -34 -25 -43 -49 -22 -54 -71 -76 -171 -76 l-77 1 -11
-41 c-26 -97 -62 -117 -219 -122 -125 -4 -161 -12 -230 -51 l-45 -25 25 28
c47 51 123 78 214 76 l49 -1 -19 21 c-44 49 -182 -1 -293 -105 -73 -69 -103
-86 -149 -86 -37 0 -120 55 -126 82 -3 13 -15 66 -26 118 -24 106 -36 258 -25
316 11 63 22 21 28 -111 3 -66 12 -154 20 -195 9 -41 18 -91 21 -110 5 -32 11
-37 65 -58 40 -16 68 -21 87 -16 15 4 62 40 105 79 65 61 89 76 155 100 44 15
122 48 174 74 l95 46 137 0 c123 0 139 2 165 21 23 17 29 30 31 68 3 46 15 60
26 30 5 -13 9 -14 21 -4 14 11 14 15 -1 31 -24 26 -10 35 15 10 l20 -20 93 50
c96 52 184 127 160 136 -18 7 -64 82 -57 93 9 15 25 12 19 -3 -8 -21 45 -67
76 -67 15 0 35 9 45 20 18 19 8 29 -10 11 -21 -19 -50 -16 -73 8 -27 29 -22
39 10 17 12 -9 18 -16 14 -16 -5 0 -7 -3 -4 -6 3 -3 24 0 46 7 33 9 41 17 46
42 14 71 1 128 -25 111 -11 -6 -11 -4 0 10 13 16 16 16 30 1 12 -12 16 -35 15
-93z m1202 67 c-27 -16 -50 -28 -53 -25 -5 5 77 56 91 56 6 0 -12 -14 -38 -31z
m-2160 -61 c-8 -29 -22 -62 -30 -73 -10 -13 -6 6 9 50 14 39 25 79 26 90 1 17
2 17 6 3 2 -10 -2 -42 -11 -70z m1254 23 c-27 -29 -50 -48 -50 -43 0 12 91
104 97 98 2 -2 -19 -27 -47 -55z m-1773 23 c-3 -3 -12 -4 -19 -1 -8 3 -5 6 6
6 11 1 17 -2 13 -5z m1419 -72 c2 -8 -7 -4 -20 10 -12 13 -21 26 -19 30 2 3
-7 4 -19 1 -23 -4 -23 -4 -3 12 19 15 21 14 40 -12 10 -14 20 -33 21 -41z m10
53 c4 -8 10 -13 14 -10 4 2 8 -7 8 -20 0 -14 -5 -25 -10 -25 -5 0 -7 4 -4 9 3
5 -4 20 -15 35 -11 14 -15 26 -9 26 6 0 13 -7 16 -15z m-2426 -14 c0 -15 -76
-23 -133 -15 -44 6 -48 8 -27 15 37 10 160 11 160 0z m1440 -11 c0 -13 -54
-40 -77 -39 -10 0 -4 5 13 10 17 5 37 16 44 24 14 17 20 19 20 5z m574 -6 c3
-8 2 -12 -4 -9 -6 3 -10 10 -10 16 0 14 7 11 14 -7z m351 -10 c23 -15 37 -63
15 -49 -6 4 -8 10 -5 15 3 5 -7 18 -21 29 -32 25 -24 28 11 5z m-608 -26 c-3
-8 -6 -5 -6 6 -1 11 2 17 5 13 3 -3 4 -12 1 -19z m-77 -28 c-6 -11 -13 -20
-16 -20 -2 0 0 9 6 20 6 11 13 20 16 20 2 0 0 -9 -6 -20z m623 -72 c15 -14 14
-18 -10 -39 -20 -18 -25 -20 -20 -6 4 9 2 17 -2 17 -5 0 -12 8 -15 17 -6 15
-4 15 14 -2 31 -28 35 -10 5 29 -15 19 -23 40 -19 47 4 7 11 1 19 -18 7 -16
19 -36 28 -45z m-1327 -54 c123 -57 282 -78 369 -49 14 4 12 1 -5 -9 -84 -51
-391 17 -486 108 -59 57 -57 80 2 26 25 -23 79 -58 120 -76z m1255 67 c-6 -10
-8 -21 -5 -24 3 -3 7 -22 10 -43 3 -31 2 -35 -7 -21 -6 10 -8 24 -6 31 3 7 1
19 -4 27 -8 11 -13 10 -28 -8 -11 -13 -23 -23 -28 -23 -10 -1 -63 -47 -63 -55
0 -3 5 -3 10 0 6 4 18 1 27 -7 14 -11 15 -10 9 12 -6 20 -5 22 4 10 9 -12 13
-12 17 -2 4 10 8 10 20 0 14 -11 15 -10 9 10 -8 25 8 31 18 6 9 -23 0 -32 -41
-43 -27 -8 -41 -7 -52 2 -12 10 -14 9 -8 -8 7 -19 6 -19 -7 -2 -14 17 -36 23
-36 9 0 -4 6 -14 13 -21 10 -11 8 -11 -10 -2 -31 16 -70 -3 -52 -25 15 -18 2
-18 -17 0 -12 12 -7 19 39 47 50 31 115 80 167 127 30 27 34 27 21 3z m1899
-26 c37 -19 39 -47 5 -80 -31 -32 -61 -35 -43 -5 18 28 -2 39 -67 40 -27 1
-72 5 -99 9 -42 7 -58 5 -100 -15 -28 -13 -52 -21 -55 -19 -5 6 -7 4 58 49 53
36 53 36 163 36 78 0 117 -4 138 -15z m-3523 -19 c28 -6 55 -15 59 -19 13 -13
-54 -7 -103 9 -56 18 -85 41 -38 29 17 -5 53 -13 82 -19z m-4 -61 c47 -8 102
9 122 38 l15 21 0 -21 c0 -15 -12 -27 -43 -42 -24 -12 -52 -21 -64 -21 -29 0
-83 20 -115 42 -42 29 -33 42 10 14 20 -13 54 -27 75 -31z m1777 -15 c11 -7 5
-8 -20 -4 -43 8 -51 14 -19 14 13 0 31 -5 39 -10z m-415 -70 c-10 -11 -22 -20
-28 -20 -5 0 1 9 14 20 31 25 37 25 14 0z m35 -53 c0 -36 -15 -27 -25 16 -6
22 -4 26 9 21 10 -4 16 -18 16 -37z m-103 -14 l-26 -27 17 36 c11 23 21 33 27
27 6 -6 -1 -19 -18 -36z m458 23 c54 -23 97 -66 154 -156 89 -139 121 -213
167 -388 26 -101 31 -144 12 -104 -10 21 -37 29 -51 16 -11 -11 5 -35 29 -45
24 -9 33 -29 13 -29 -14 0 -109 102 -109 118 0 6 -5 12 -12 12 -6 0 -8 3 -4 7
3 4 19 -9 35 -27 25 -30 31 -33 45 -21 20 17 21 53 1 91 -18 35 -28 36 -81 11
-55 -27 -60 -16 -14 28 22 21 40 47 40 58 0 25 -25 47 -41 37 -7 -4 -10 -2 -7
7 3 8 -4 37 -14 64 -11 28 -24 61 -29 74 -8 19 -12 21 -24 11 -9 -8 -15 -8
-15 -2 0 6 5 12 11 14 13 4 -34 102 -79 165 -34 46 -67 60 -170 73 l-67 9 85
-3 c50 -2 102 -10 125 -20z m-115 -18 c60 -72 170 -271 157 -285 -6 -6 -72
118 -69 130 3 12 -48 89 -86 130 -20 20 -31 37 -24 37 6 0 16 -6 22 -12z
m-270 -18 c0 -11 1 -23 2 -27 4 -12 -73 -34 -93 -28 -27 9 -24 29 2 22 27 -7
79 2 79 14 0 5 -12 9 -27 9 l-28 1 25 14 c34 19 40 18 40 -5z m180 -52 l33
-43 -35 35 c-19 19 -47 45 -64 58 l-29 22 31 -14 c18 -9 46 -35 64 -58z m144
56 c10 -25 1 -27 -19 -4 -15 17 -16 20 -3 20 9 0 19 -7 22 -16z m82 -99 c17
-31 21 -45 11 -37 -9 8 -19 24 -23 35 -3 12 -18 38 -32 57 -18 25 -19 30 -4
15 11 -11 33 -42 48 -70z m-96 10 c7 -9 8 -15 2 -15 -5 0 -12 7 -16 15 -3 8
-4 15 -2 15 2 0 9 -7 16 -15z m-37 -91 c25 -34 69 -106 97 -160 89 -170 162
-287 214 -344 43 -46 46 -51 16 -29 -54 40 -103 111 -192 279 -45 85 -105 189
-133 230 -85 125 -85 134 -2 24z m197 -38 c0 -2 -8 -10 -17 -17 -16 -13 -17
-12 -4 4 13 16 21 21 21 13z m-20 -76 c0 -5 -4 -10 -10 -10 -5 0 -10 5 -10 10
0 6 5 10 10 10 6 0 10 -4 10 -10z m10 -30 c0 -5 -4 -10 -10 -10 -5 0 -10 5
-10 10 0 6 5 10 10 10 6 0 10 -4 10 -10z m24 -25 c-7 -16 -24 -21 -24 -6 0 8
7 13 27 20 1 1 0 -6 -3 -14z m11 -25 c-3 -5 -12 -10 -18 -10 -7 0 -6 4 3 10
19 12 23 12 15 0z m45 -5 c-7 -9 -15 -13 -19 -10 -3 3 1 10 9 15 21 14 24 12
10 -5z m1510 6 c0 -4 -33 -20 -72 -34 -101 -36 -118 -40 -118 -29 0 5 42 23
93 40 50 16 93 30 95 31 1 1 2 -3 2 -8z m-1460 -21 c0 -5 -2 -10 -4 -10 -3 0
-8 5 -11 10 -3 6 -1 10 4 10 6 0 11 -4 11 -10z m-30 -21 c0 -5 -4 -9 -10 -9
-5 0 -10 7 -10 16 0 8 5 12 10 9 6 -3 10 -10 10 -16z m-33 -29 c-1 -12 -5 -16
-10 -11 -5 5 -6 14 -3 20 11 16 15 13 13 -9z m-252 1 c-31 -30 -390 -152 -441
-150 -27 1 -26 2 11 14 47 16 314 111 365 130 42 16 78 19 65 6z m-1270 -18
c-4 -10 -10 -38 -12 -63 -5 -41 -2 -50 31 -89 41 -49 43 -58 19 -99 -21 -37
-11 -53 51 -81 l42 -18 13 -129 c7 -71 20 -152 30 -181 14 -42 15 -53 4 -57
-45 -18 47 -214 153 -326 l34 -36 9 -159 c10 -159 25 -287 37 -319 7 -18 28
-19 134 -6 160 21 293 86 590 288 107 72 292 215 339 260 8 7 44 34 82 58 37
25 95 69 128 99 34 30 67 55 73 55 21 0 -128 -143 -200 -191 -40 -27 -112 -81
-160 -120 -183 -148 -580 -395 -709 -440 -63 -23 -194 -49 -241 -49 -26 0 -35
5 -42 25 -15 39 -28 133 -46 320 l-16 169 -39 45 c-22 24 -60 75 -85 114 -79
120 -101 187 -70 211 13 9 12 23 -4 96 -11 47 -25 123 -32 170 l-13 85 -58 27
-58 28 15 27 c31 62 30 87 -9 132 -39 48 -46 92 -20 141 17 32 42 42 30 13z
m1603 -58 c-3 -3 -9 2 -12 12 -6 14 -5 15 5 6 7 -7 10 -15 7 -18z m32 5 c0 -5
-4 -10 -10 -10 -5 0 -10 5 -10 10 0 6 5 10 10 10 6 0 10 -4 10 -10z m1516
-220 c31 -100 66 -174 102 -212 14 -16 21 -28 15 -28 -18 0 -70 66 -92 116
-27 60 -71 222 -70 254 1 21 2 19 10 -10 5 -19 21 -73 35 -120z m-1956 90 c0
-5 -26 -47 -57 -92 -31 -46 -72 -105 -90 -132 -18 -26 -33 -57 -33 -67 0 -42
88 -10 143 50 23 25 37 35 37 26 0 -44 -53 -103 -170 -191 -36 -26 -101 -77
-145 -113 -111 -90 -115 -92 -74 -41 37 47 97 147 144 240 15 30 57 93 93 140
37 47 84 109 107 137 42 56 45 59 45 43z m805 -210 c-9 -14 -81 -50 -100 -50
-10 0 -15 7 -13 17 2 13 17 20 52 25 26 4 51 9 54 12 9 10 14 7 7 -4z m-345
-95 c0 -12 -13 -15 -55 -15 -70 0 -72 18 -2 23 28 2 53 4 55 5 1 1 2 -5 2 -13z
m-396 -122 c-22 -89 -137 -268 -208 -323 -11 -8 16 32 60 90 70 93 99 143 134
234 13 34 22 33 14 -1z m523 -132 c2 -12 -1 -30 -7 -39 -5 -10 -10 -12 -10 -4
0 23 -37 12 -96 -29 -161 -112 -162 -113 -124 -80 115 99 216 180 224 177 5
-1 11 -12 13 -25z m-168 -29 c-14 -9 -58 -54 -98 -98 -87 -99 -221 -217 -396
-349 -107 -81 -164 -117 -265 -164 -76 -35 -208 -72 -257 -71 -30 1 6 17 56
25 214 35 506 227 796 521 89 90 158 153 170 153 17 1 17 -1 -6 -17z m-1344
-326 c24 -54 31 -97 60 -363 9 -78 24 -168 35 -200 19 -57 19 -57 1 -33 -32
41 -51 126 -72 330 -17 167 -32 252 -55 308 -3 6 -3 12 1 12 3 0 17 -24 30
-54z m1184 -466 c14 -83 14 -197 0 -385 -18 -240 -6 -215 -281 -580 -88 -118
-186 -270 -231 -363 -18 -37 -66 -127 -106 -199 -102 -187 -112 -219 -122
-398 -4 -82 -12 -168 -18 -190 -13 -50 -13 -138 -1 -190 6 -22 21 -114 35
-205 14 -91 28 -180 31 -197 5 -28 3 -33 -14 -33 -28 0 -67 -49 -88 -112 l-18
-53 -12 50 c-7 28 -13 71 -13 98 -1 53 -12 59 -37 22 -17 -26 -16 -55 5 -137
8 -33 7 -38 -8 -38 -30 0 -65 46 -63 83 1 17 3 61 5 97 1 36 13 96 25 134 12
37 22 80 22 95 0 15 5 32 12 39 6 6 9 15 5 19 -4 3 -23 -9 -42 -27 -19 -19
-35 -29 -35 -23 0 6 7 16 15 23 19 16 19 44 -1 142 -16 77 -16 81 6 149 26 81
23 144 -9 185 -21 26 -27 67 -15 98 8 21 21 20 51 -4 14 -11 29 -17 33 -15 15
10 69 190 95 320 15 71 29 133 31 137 3 5 8 30 11 56 8 79 39 150 99 228 57
74 110 124 148 138 33 12 10 17 -34 7 -23 -5 -60 -23 -81 -41 -51 -41 -49 -27
4 31 37 41 55 51 150 84 103 36 109 39 129 78 11 23 36 64 54 91 33 51 55 116
37 116 -5 0 -17 -13 -26 -30 -22 -36 -31 -37 -51 -8 -11 15 -16 46 -16 95 0
40 -3 73 -7 73 -5 0 -18 -14 -30 -32 l-22 -31 -6 26 c-4 14 -4 31 0 36 3 6 1
11 -4 11 -6 0 -11 6 -11 14 0 7 -23 44 -51 82 -43 59 -50 74 -45 102 3 21 1
30 -6 26 -7 -5 -9 36 -7 132 5 152 16 186 76 230 44 32 57 39 49 26 -4 -7 -3
-12 3 -12 5 0 14 7 18 14 13 24 194 129 204 119 5 -5 18 -46 30 -92 17 -69 20
-106 17 -216 -3 -128 3 -161 17 -92 4 17 13 55 22 82 16 52 11 100 -29 279
l-13 58 40 75 40 76 12 -154 c6 -85 16 -183 22 -219z m2235 240 c5 -17 4 -20
-2 -10 -5 8 -13 26 -16 40 -5 17 -4 20 2 10 5 -8 13 -26 16 -40z m48 -400 c18
-11 57 -24 88 -30 100 -19 144 -32 209 -62 59 -28 65 -34 91 -92 15 -33 44
-84 63 -112 20 -29 43 -81 52 -115 21 -83 39 -110 105 -159 53 -40 54 -53 1
-26 -54 28 -107 98 -129 172 -12 38 -39 97 -60 130 -21 33 -42 73 -46 89 -19
76 -48 94 -219 136 -161 40 -199 62 -226 134 -30 80 -24 91 9 18 20 -43 39
-69 62 -83z m-3127 23 c15 -43 29 -85 32 -93 2 -8 -4 -1 -14 15 -25 38 -65
155 -53 155 5 0 20 -35 35 -77z m99 -380 c9 -26 16 -56 16 -68 0 -34 -58 -141
-85 -159 -32 -21 -32 -12 2 28 51 60 67 143 44 224 -14 49 5 29 23 -25z m-63
-5 c-5 -14 -30 -38 -55 -54 -25 -16 -67 -42 -93 -59 -26 -16 -64 -53 -84 -82
-86 -124 -95 -255 -36 -547 21 -99 37 -199 37 -223 0 -41 -32 -127 -51 -139
-31 -19 -65 -205 -53 -283 8 -52 -5 -145 -16 -115 -16 42 -22 170 -10 234 16
94 47 182 80 232 19 27 30 56 30 78 0 19 -18 123 -40 230 -62 303 -54 404 46
560 35 55 47 65 124 103 69 34 89 49 105 80 21 39 33 29 16 -15z m-393 -1574
c22 -134 15 -189 -10 -92 -21 79 -33 171 -24 194 11 28 16 13 34 -102z m-31
-231 c-3 -49 -17 -132 -30 -186 -43 -168 -52 -132 -13 48 13 61 27 136 31 168
10 88 18 68 12 -30z m3 -352 c-24 -61 -26 -104 -5 -121 17 -14 20 -9 29 54 3
22 15 49 27 60 l21 21 -6 -27 c-3 -14 -9 -33 -12 -42 -10 -27 14 -18 53 19 52
49 65 48 39 -4 -11 -20 -12 -38 -6 -65 10 -45 5 -63 -23 -77 -22 -12 -31 -3
-53 56 l-12 30 -11 -28 c-6 -16 -11 -34 -11 -41 0 -8 -6 -19 -14 -25 -10 -9
-19 -5 -40 16 -48 47 -45 93 12 191 32 56 38 48 12 -17z m250 -83 c17 -76 10
-152 -13 -156 -32 -6 -58 27 -51 63 5 27 2 33 -15 38 -33 8 -25 42 17 76 20
17 40 30 44 31 4 0 12 -24 18 -52z m331 -27 l22 -18 -22 -32 c-21 -28 -28 -32
-64 -29 -31 2 -43 8 -45 21 -4 21 23 55 53 68 29 11 30 11 56 -10z"/>
<path d="M4342 7912 c5 -62 -4 -176 -17 -229 -11 -47 13 -21 35 36 17 46 21
75 18 136 l-3 76 23 -26 c20 -23 22 -37 22 -125 0 -92 -19 -207 -41 -254 -6
-13 -1 -10 15 8 13 16 31 52 39 80 l15 51 2 -45 c1 -25 5 -65 10 -90 7 -32 8
-4 6 95 -3 108 -2 129 5 90 15 -77 47 -167 70 -195 17 -21 20 -21 14 -5 -3 11
-15 56 -25 101 -11 45 -33 119 -50 164 -16 46 -30 86 -30 89 1 9 40 -43 40
-52 0 -16 90 -164 112 -184 26 -24 119 -75 125 -69 3 2 -22 31 -55 64 -44 44
-75 89 -114 164 l-53 103 -84 42 -83 41 4 -66z"/>
<path d="M4798 7935 c38 -43 85 -127 95 -170 4 -19 5 -19 6 1 2 44 -55 144
-113 197 -34 31 -29 18 12 -28z"/>
<path d="M2952 7923 c-22 -9 -115 -73 -105 -73 10 0 123 69 123 76 0 4 0 4
-18 -3z"/>
<path d="M4146 7702 c-49 -56 -49 -56 -7 -17 35 33 70 77 59 74 -2 0 -25 -26
-52 -57z"/>
<path d="M3485 7610 c-9 -15 9 -18 128 -23 126 -4 122 6 -8 22 -110 13 -112
13 -120 1z"/>
<path d="M4073 7527 c3 -7 17 -51 31 -97 25 -76 25 -85 11 -106 -17 -26 -5
-33 15 -9 7 9 20 13 29 11 9 -3 39 6 66 20 28 13 39 21 25 18 -14 -3 -38 -12
-54 -20 -35 -17 -39 -17 -31 -4 3 6 2 10 -3 10 -5 0 -22 43 -38 95 -18 61 -33
95 -42 95 -8 0 -12 -6 -9 -13z"/>
<path d="M3340 7300 c-20 -6 -21 -8 -5 -8 11 0 31 4 45 8 20 6 21 8 5 8 -11 0
-31 -4 -45 -8z"/>
<path d="M3328 7263 c6 -2 18 -2 25 0 6 3 1 5 -13 5 -14 0 -19 -2 -12 -5z"/>
<path d="M4196 7083 c-6 -14 -5 -15 5 -6 7 7 10 15 7 18 -3 3 -9 -2 -12 -12z"/>
<path d="M4653 7055 c0 -22 2 -30 4 -17 2 12 2 30 0 40 -3 9 -5 -1 -4 -23z"/>
<path d="M3408 7063 c7 -3 16 -2 19 1 4 3 -2 6 -13 5 -11 0 -14 -3 -6 -6z"/>
<path d="M3934 6922 c8 -13 66 -56 66 -49 0 3 -17 17 -37 33 -20 15 -33 23
-29 16z"/>
<path d="M3386 6902 c-3 -5 8 -6 25 -4 16 2 29 6 29 8 0 8 -49 4 -54 -4z"/>
<path d="M3746 6866 c40 -13 84 -35 100 -50 16 -15 40 -33 54 -40 34 -18 83
-29 76 -18 -3 6 -18 13 -33 17 -16 3 -50 24 -78 45 -31 24 -73 44 -111 54 -88
23 -91 18 -8 -8z"/>
<path d="M3747 6653 c-37 -19 -30 -25 14 -13 18 6 69 10 111 10 43 0 78 4 78
10 0 15 -171 10 -203 -7z"/>
<path d="M6345 8031 c-76 -21 -156 -65 -209 -113 -34 -31 -38 -39 -26 -48 21
-14 19 -15 85 43 36 32 80 60 109 70 55 19 111 23 101 7 -3 -5 -21 -10 -38
-10 -49 -1 -110 -33 -171 -91 -61 -58 -66 -82 -8 -43 20 14 80 48 133 74 82
42 109 63 109 86 0 2 -10 4 -22 5 l-23 0 23 11 c24 12 30 28 10 27 -7 0 -40
-8 -73 -18z m4 -75 c-15 -14 -109 -55 -109 -47 0 4 21 18 48 29 44 19 71 27
61 18z"/>
<path d="M6473 7825 c0 -22 2 -30 4 -17 2 12 2 30 0 40 -3 9 -5 -1 -4 -23z"/>
<path d="M5910 6780 c0 -5 7 -7 15 -4 8 4 15 8 15 10 0 2 -7 4 -15 4 -8 0 -15
-4 -15 -10z"/>
<path d="M2490 6810 c-8 -5 -10 -10 -5 -10 6 0 17 5 25 10 8 5 11 10 5 10 -5
0 -17 -5 -25 -10z"/>
<path d="M2501 6737 c-40 -20 -49 -44 -26 -66 11 -10 31 -22 45 -26 23 -7 23
-7 -5 18 -29 25 -30 25 -11 46 11 12 31 21 45 21 20 0 23 2 11 10 -20 13 -30
12 -59 -3z"/>
<path d="M2741 6734 c0 -11 3 -14 6 -6 3 7 2 16 -1 19 -3 4 -6 -2 -5 -13z"/>
<path d="M2487 6583 c-4 -3 0 -14 8 -24 13 -14 22 -15 55 -7 44 11 51 23 20
31 -11 3 -17 1 -14 -4 10 -17 -29 -23 -41 -6 -13 19 -18 20 -28 10z"/>
<path d="M2305 6535 c-34 -33 -32 -70 10 -136 36 -58 70 -84 101 -77 16 4 15
6 -7 16 -26 10 -69 56 -69 73 0 5 15 13 33 18 l32 9 -32 1 c-40 1 -65 26 -61
60 3 23 8 26 47 29 65 5 102 -36 65 -72 -18 -18 -11 -21 17 -6 27 15 24 56 -6
85 -18 19 -35 25 -65 25 -30 0 -47 -6 -65 -25z"/>
<path d="M4680 6020 c0 -5 10 -10 23 -10 18 0 19 2 7 10 -19 13 -30 13 -30 0z"/>
<path d="M4722 5992 c-13 -2 -26 -10 -29 -19 -12 -31 65 -181 86 -168 4 2 8
23 10 47 2 49 8 58 22 38 10 -15 7 -60 -6 -92 -10 -25 10 -23 35 4 29 32 26
128 -5 166 -8 9 -93 27 -113 24z"/>
<path d="M4628 5983 c7 -3 16 -2 19 1 4 3 -2 6 -13 5 -11 0 -14 -3 -6 -6z"/>
<path d="M4331 5631 c-13 -23 8 -43 64 -59 32 -9 43 -9 62 4 32 20 16 50 -35
64 -54 15 -80 12 -91 -9z"/>
<path d="M3705 6323 c-56 -8 -170 -45 -189 -61 -19 -18 -39 -53 -51 -90 -6
-21 -5 -22 12 -14 41 22 199 53 368 72 99 11 183 20 188 20 4 0 7 4 7 9 0 42
-387 10 -525 -44 -18 -7 -18 -6 -5 7 32 32 199 62 415 74 61 4 112 9 115 11
21 19 -224 31 -335 16z"/>
<path d="M3765 6209 c-97 -10 -159 -23 -247 -51 -63 -19 -68 -23 -74 -55 -4
-19 -5 -36 -2 -38 2 -2 73 7 158 20 85 13 211 29 279 35 133 11 141 13 141 37
0 14 -14 15 -120 9 -128 -7 -310 -36 -379 -61 -56 -19 -87 -19 -41 1 53 23
251 61 385 74 145 14 165 17 165 30 0 12 -149 11 -265 -1z"/>
<path d="M3650 6079 c-159 -21 -217 -36 -224 -56 -6 -14 2 -63 10 -63 2 0 30
14 62 30 69 37 181 57 373 68 116 6 134 9 137 25 3 15 -7 17 -110 16 -62 -1
-174 -9 -248 -20z"/>
<path d="M3679 6029 c-61 -9 -193 -52 -215 -70 -19 -16 -18 -27 10 -64 l25
-32 123 19 c94 15 150 18 236 13 107 -6 114 -5 110 12 -2 13 -16 20 -53 25
-62 8 -257 0 -348 -14 -38 -5 -71 -8 -73 -5 -13 13 124 29 296 35 104 4 192
11 196 15 27 27 -86 37 -276 25 -79 -5 -91 -4 -50 3 30 5 119 12 198 15 111 5
142 10 142 20 0 11 -26 14 -132 13 -73 -1 -158 -5 -189 -10z"/>
<path d="M2358 5973 c6 -2 18 -2 25 0 6 3 1 5 -13 5 -14 0 -19 -2 -12 -5z"/>
<path d="M2985 6103 c-29 -7 -44 -22 -65 -63 -22 -43 -55 -248 -46 -284 6 -25
9 -26 89 -26 52 0 89 5 99 13 16 12 22 51 34 249 l7 97 -27 5 c-52 11 -71 13
-91 9z"/>
<path d="M7175 5480 l-30 -8 33 -1 c17 0 32 4 32 9 0 6 -1 9 -2 9 -2 -1 -16
-5 -33 -9z"/>
<path d="M7058 5355 c9 -19 25 -37 35 -41 14 -4 17 -19 18 -82 1 -42 1 -81 0
-85 -1 -4 7 -27 18 -50 11 -23 22 -60 26 -82 3 -22 14 -74 22 -115 9 -41 17
-82 18 -90 1 -18 56 -113 61 -107 3 2 -11 75 -31 162 -27 120 -35 178 -34 248
1 136 13 250 27 255 7 2 12 8 12 14 0 6 -11 3 -24 -5 -42 -28 -92 -31 -130 -9
l-35 21 17 -34z"/>
<path d="M7302 4600 c0 -14 2 -19 5 -12 2 6 2 18 0 25 -3 6 -5 1 -5 -13z"/>
<path d="M7623 3935 c30 -110 92 -305 95 -296 6 18 -70 285 -86 301 -12 13
-14 13 -9 -5z"/>
<path d="M7840 3426 c-14 -8 -36 -19 -50 -24 -25 -11 -25 -11 6 -11 20 -1 38
7 54 24 27 28 25 30 -10 11z"/>
<path d="M7797 3270 c3 -11 9 -20 15 -20 5 0 4 9 -2 20 -6 11 -12 20 -14 20
-2 0 -2 -9 1 -20z"/>
<path d="M7860 3140 c0 -5 5 -10 11 -10 5 0 7 5 4 10 -3 6 -8 10 -11 10 -2 0
-4 -4 -4 -10z"/>
<path d="M8025 2910 c3 -5 8 -10 11 -10 2 0 4 5 4 10 0 6 -5 10 -11 10 -5 0
-7 -4 -4 -10z"/>
<path d="M4274 5245 c-28 -14 -64 -37 -79 -51 l-27 -25 23 -25 c20 -22 30 -25
63 -20 61 10 76 22 76 61 0 18 -6 36 -12 39 -7 3 -4 5 7 3 16 -2 20 -10 20
-45 0 -71 22 -46 34 39 7 45 7 45 -24 47 -16 1 -53 -10 -81 -23z m43 -50 c5
-16 -10 -32 -37 -39 -23 -7 -23 -6 5 13 l30 21 -27 0 c-16 0 -28 5 -28 11 0
13 52 8 57 -6z m-67 -19 c0 -11 -19 -15 -25 -6 -3 5 1 10 9 10 9 0 16 -2 16
-4z"/>
<path d="M4877 3270 c-28 -208 -29 -220 -20 -220 12 0 33 73 33 113 0 19 5 58
11 88 6 34 7 73 2 104 -8 48 -9 46 -26 -85z"/>
<path d="M4616 3346 c-51 -61 -44 -70 9 -12 47 51 51 56 36 56 -5 0 -26 -20
-45 -44z"/>
<path d="M4664 3186 c-3 -8 -4 -27 -1 -43 3 -24 4 -23 6 9 0 20 7 39 14 41 9
4 9 6 -1 6 -7 1 -15 -5 -18 -13z"/>
<path d="M4810 3155 c0 -14 4 -25 9 -25 4 0 6 11 3 25 -2 14 -6 25 -8 25 -2 0
-4 -11 -4 -25z"/>
<path d="M4663 3075 c0 -22 2 -30 4 -17 2 12 2 30 0 40 -3 9 -5 -1 -4 -23z"/>
<path d="M4825 3000 c3 -5 19 -10 36 -10 16 0 29 5 29 10 0 6 -16 10 -36 10
-21 0 -33 -4 -29 -10z"/>
<path d="M4580 2963 c0 -5 12 -20 28 -34 l27 -24 -25 30 c-14 17 -26 32 -27
34 -2 2 -3 0 -3 -6z"/>
<path d="M4685 2850 c-3 -5 -1 -10 4 -10 6 0 11 5 11 10 0 6 -2 10 -4 10 -3 0
-8 -4 -11 -10z"/>
<path d="M4609 2228 c-65 -68 -219 -302 -219 -333 0 -22 52 44 79 100 17 35
63 106 101 159 69 96 80 116 39 74z"/>
<path d="M4343 1692 c-29 -43 -52 -102 -68 -177 -11 -48 2 -26 35 65 17 47 40
100 51 119 30 51 18 46 -18 -7z"/>
<path d="M4266 641 c-3 -5 1 -11 9 -15 9 -3 15 0 15 9 0 16 -16 20 -24 6z"/>
<path d="M4500 8975 c-14 -8 -20 -14 -15 -14 6 0 21 6 35 14 14 8 21 14 15 14
-5 0 -21 -6 -35 -14z"/>
<path d="M27 103 c-25 -4 -27 -8 -27 -54 0 -48 1 -49 30 -49 30 0 30 1 30 55
0 30 -1 54 -2 54 -2 -1 -15 -4 -31 -6z"/>
</g>
</svg>
