<?xml version="1.0" standalone="no"?>
<!DOCTYPE svg PUBLIC "-//W3C//DTD SVG 20010904//EN"
 "http://www.w3.org/TR/2001/REC-SVG-20010904/DTD/svg10.dtd">
<svg version="1.0" xmlns="http://www.w3.org/2000/svg"
 width="1024.000000pt" height="1024.000000pt" viewBox="0 0 1024.000000 1024.000000"
 preserveAspectRatio="xMidYMid meet">

<g transform="translate(0.000000,1024.000000) scale(0.100000,-0.100000)"
fill="#000000" stroke="none">
<path d="M3651 9589 c-100 -13 -209 -37 -255 -58 -101 -45 -241 -177 -327
-309 -73 -111 -82 -186 -53 -413 25 -192 45 -259 112 -363 82 -127 134 -227
177 -335 20 -51 35 -93 33 -94 -1 -1 -34 -18 -72 -37 -86 -43 -115 -67 -169
-139 -108 -141 -207 -364 -207 -463 0 -22 -18 -47 -80 -110 -59 -60 -85 -95
-98 -131 -11 -32 -25 -52 -40 -58 -12 -5 -35 -29 -50 -54 -21 -37 -45 -56
-113 -95 -116 -67 -158 -102 -229 -190 -102 -128 -151 -291 -129 -435 19 -126
133 -435 160 -435 7 0 -3 -10 -22 -22 -47 -31 -154 -247 -191 -383 -24 -89
-26 -112 -21 -205 4 -79 1 -124 -11 -177 -9 -40 -16 -85 -16 -100 0 -15 -15
-77 -34 -138 -18 -60 -51 -182 -72 -270 -33 -135 -43 -165 -70 -195 -95 -107
-202 -312 -244 -465 -21 -75 -58 -308 -66 -415 -3 -36 -9 -74 -14 -85 -55
-135 -79 -334 -47 -408 l16 -37 -38 -20 c-93 -47 -153 -163 -168 -323 -5 -59
-2 -77 21 -137 28 -71 57 -100 99 -100 49 0 107 69 107 127 1 26 2 27 15 9 19
-26 91 -32 138 -13 24 11 42 28 53 50 l17 35 32 -19 c18 -11 58 -42 89 -69 60
-53 91 -66 130 -56 26 6 56 67 56 113 l0 27 39 -38 c32 -32 47 -39 81 -40 33
0 46 4 61 23 27 33 24 64 -14 129 -18 31 -49 91 -69 132 -36 73 -108 160 -108
129 0 -7 18 -43 40 -79 22 -36 40 -72 40 -80 0 -8 -13 8 -29 36 -31 54 -69 88
-140 124 -51 25 -94 23 -166 -11 -91 -43 -115 -89 -115 -224 0 -94 -15 -125
-59 -125 -44 0 -77 34 -105 108 -14 37 -26 73 -26 80 0 21 -28 13 -36 -10 -11
-37 -8 -92 11 -147 16 -49 14 -101 -4 -101 -17 0 -76 47 -90 71 -13 23 -13 36
1 105 8 44 26 104 39 133 21 50 27 56 93 87 83 39 113 63 151 121 26 40 107
93 142 93 7 0 30 -23 50 -51 36 -48 38 -49 41 -24 2 15 -1 40 -7 57 -24 69 26
42 52 -28 31 -80 42 -99 61 -102 17 -4 18 1 13 43 -6 41 -5 46 8 35 8 -6 26
-31 40 -56 29 -49 50 -64 94 -64 22 0 38 10 66 42 39 46 60 107 70 205 12 106
36 132 273 290 329 218 549 322 682 323 75 0 173 -33 255 -86 76 -50 86 -65
61 -99 -13 -18 -17 -17 -122 17 -60 20 -154 44 -209 53 -95 16 -104 16 -177
-1 -43 -9 -78 -20 -78 -24 0 -4 53 -7 118 -9 95 -1 144 -8 257 -36 77 -18 153
-37 169 -40 27 -6 28 -8 22 -48 -4 -23 -11 -46 -15 -50 -5 -5 -55 3 -111 17
-57 14 -128 26 -159 25 l-56 0 41 -19 c57 -25 200 -60 247 -60 32 0 38 -3 33
-16 -3 -9 -6 -42 -6 -75 l0 -59 -232 0 c-283 0 -370 -14 -511 -84 -96 -46
-191 -105 -183 -113 2 -2 78 20 167 51 166 55 225 67 440 86 247 22 351 10
323 -37 -10 -16 -32 -19 -187 -24 -96 -4 -180 -10 -186 -13 -5 -4 -63 -11
-128 -16 -65 -5 -143 -14 -173 -21 l-55 -13 50 -13 c131 -36 216 -68 283 -106
39 -22 72 -45 72 -50 0 -6 -48 -7 -129 -3 -100 5 -152 3 -227 -10 -65 -11
-130 -15 -196 -12 -54 3 -97 4 -95 2 7 -7 175 -53 231 -63 91 -17 203 -13 412
14 130 16 221 34 286 55 77 24 112 30 185 30 79 0 264 21 318 36 11 3 63 28
115 54 112 56 171 76 193 64 8 -5 51 -43 95 -84 43 -41 101 -95 129 -120 32
-30 63 -72 86 -119 53 -105 46 -121 -11 -25 -63 106 -277 334 -313 334 -23 0
-104 -32 -189 -74 -137 -69 -245 -96 -386 -96 -106 0 -151 -14 -199 -60 -35
-33 -234 -131 -315 -154 -99 -29 -242 -56 -300 -56 -31 0 -81 7 -111 16 -55
17 -129 54 -129 65 0 15 49 18 108 8 35 -6 105 -9 155 -6 131 7 391 37 400 46
4 4 -39 13 -95 19 -109 13 -173 8 -258 -22 -56 -20 -113 -20 -165 -1 -23 8
-77 14 -126 15 -59 0 -91 5 -105 15 -56 42 -31 -9 48 -98 34 -39 75 -73 102
-86 58 -27 210 -44 349 -39 87 3 109 7 152 29 142 75 174 89 215 94 35 4 40 3
22 -4 -12 -6 -48 -28 -80 -49 -142 -97 -222 -118 -390 -102 -300 28 -393 77
-504 266 -33 57 -63 104 -65 104 -13 0 9 -95 37 -169 51 -133 117 -204 270
-296 36 -21 118 -76 182 -122 143 -102 168 -113 258 -113 87 0 113 13 200 94
36 33 90 77 120 97 30 20 100 65 156 102 124 81 281 233 309 297 10 25 20 46
21 48 1 2 25 -13 53 -33 57 -42 60 -51 31 -127 -25 -65 -25 -66 0 -38 11 13
20 26 20 30 0 10 36 50 45 50 4 0 24 -17 44 -38 59 -64 97 -74 169 -49 66 24
131 113 132 180 0 40 15 26 54 -51 49 -97 68 -160 56 -180 -8 -15 -9 -15 -10
4 0 11 -9 29 -19 38 -18 17 -21 16 -53 -19 -18 -21 -66 -55 -106 -77 -52 -29
-94 -63 -148 -122 -41 -44 -97 -97 -125 -116 -28 -19 -80 -57 -116 -83 -75
-55 -236 -142 -230 -124 2 6 46 34 98 62 194 104 277 180 347 315 7 14 40 45
72 70 33 24 60 48 60 52 0 8 -41 3 -107 -14 -48 -12 -140 -87 -265 -215 -60
-62 -96 -89 -162 -122 -105 -53 -136 -80 -181 -155 -19 -33 -35 -53 -35 -45 0
15 -65 22 -190 23 -77 0 -160 -72 -160 -139 0 -43 11 -47 150 -53 154 -6 178
1 55 16 -185 23 -175 20 -175 54 0 40 47 84 100 93 59 10 187 -5 250 -28 33
-13 80 -21 116 -22 55 0 67 4 145 51 181 111 305 166 438 196 166 37 276 89
330 158 86 108 92 216 22 367 -22 50 -41 95 -41 101 0 6 -20 73 -45 148 -25
74 -45 141 -45 148 0 9 27 18 76 25 42 7 77 11 79 9 2 -1 15 -29 28 -60 60
-135 144 -213 278 -260 107 -37 381 -124 435 -138 108 -27 282 -270 401 -559
55 -134 82 -227 83 -286 1 -80 116 -232 213 -282 28 -14 85 -29 134 -36 l86
-13 -2 -74 c-1 -65 2 -83 29 -139 l30 -64 -53 -96 c-55 -97 -97 -197 -97 -230
0 -15 9 -17 70 -17 42 1 69 5 66 11 -2 6 -18 9 -36 8 -31 -1 -32 0 -26 30 4
18 31 72 60 122 69 117 100 200 93 257 -11 104 -51 328 -68 383 l-19 60 23 18
c74 58 183 101 229 90 13 -3 31 -13 40 -21 24 -20 56 -108 63 -174 14 -119 29
-168 86 -281 33 -65 70 -157 83 -205 31 -114 37 -127 85 -201 43 -67 68 -152
57 -196 -16 -64 -106 -112 -161 -87 -27 13 -38 47 -54 169 -6 46 -17 95 -24
110 l-15 27 -21 -34 c-27 -44 -24 -102 9 -184 22 -52 23 -58 8 -73 -9 -9 -38
-18 -65 -20 -62 -6 -71 4 -89 98 -15 79 -41 141 -63 147 -12 4 -13 -11 -7 -92
6 -94 6 -97 -19 -122 -41 -41 -75 -30 -105 33 -14 28 -33 61 -44 72 -75 82
-306 -27 -306 -144 0 -42 25 -74 74 -96 50 -23 103 -24 176 -4 30 9 138 20
241 25 103 5 197 14 210 19 15 5 46 5 81 -2 46 -8 70 -7 124 6 95 24 130 53
138 116 10 77 -4 117 -89 256 -24 39 -55 110 -70 160 -15 50 -45 130 -66 178
-42 95 -46 130 -27 232 l11 63 58 11 c79 16 170 64 214 113 84 92 101 200 61
375 -30 131 -42 157 -133 280 -37 51 -78 110 -90 132 l-22 39 38 25 c21 14 73
55 117 92 50 41 114 83 174 111 52 25 161 84 242 131 159 91 159 91 208 38 14
-15 59 -55 100 -90 82 -68 181 -196 205 -265 21 -60 6 -221 -30 -308 -14 -34
-30 -86 -36 -115 -15 -67 -15 -67 -76 -116 -58 -45 -87 -92 -78 -122 17 -51
130 -65 208 -25 45 22 47 23 63 5 21 -23 77 -25 94 -4 12 14 15 14 36 0 32
-20 60 -19 81 5 19 19 19 19 48 0 38 -25 56 -25 88 0 16 13 40 20 66 20 117 0
191 42 191 109 0 55 -29 206 -58 301 -33 109 -34 203 -3 325 22 86 23 91 7
141 -25 80 -86 153 -174 212 -124 81 -209 195 -333 445 -43 88 -101 198 -128
246 -28 47 -66 127 -86 176 -56 135 -114 214 -282 382 -83 83 -163 170 -178
193 -35 56 -76 78 -157 86 -62 6 -67 8 -55 23 26 30 47 80 47 113 0 18 -11 68
-25 111 -30 93 -31 133 -5 211 15 43 22 100 26 205 l7 146 49 44 c57 51 97
123 105 191 8 64 0 89 -44 147 -21 26 -97 165 -168 308 -173 342 -226 425
-340 531 -50 45 -127 107 -170 137 -47 32 -79 60 -76 68 9 39 2 109 -16 149
-53 119 -268 370 -316 370 -44 0 -73 38 -106 140 -59 183 -248 510 -366 631
-89 91 -284 219 -412 270 -121 48 -280 98 -368 115 -220 42 -237 47 -313 93
-74 45 -88 60 -157 173 -32 51 -113 88 -195 88 l-68 0 -87 192 c-48 106 -103
214 -122 240 -51 70 -129 135 -208 172 -224 107 -222 106 -314 95z m82 -716
c8 -10 25 -44 37 -76 30 -80 68 -120 153 -160 40 -19 87 -46 104 -61 17 -14
40 -26 50 -26 44 0 99 81 118 175 8 39 26 83 45 110 26 38 36 45 64 45 19 0
38 -6 44 -12 16 -22 41 -121 48 -194 7 -77 -4 -111 -51 -159 -33 -32 -99 -36
-115 -6 -14 28 -14 29 29 50 87 45 113 116 66 184 -13 20 -20 39 -15 42 9 6
50 -50 50 -68 0 -5 4 -6 9 -2 12 7 -2 58 -24 91 -22 33 -58 31 -89 -6 -47 -56
-56 -148 -18 -169 13 -8 11 -13 -16 -36 -28 -24 -31 -30 -27 -72 3 -25 14 -75
25 -110 27 -88 26 -243 -1 -243 -5 0 -9 5 -9 11 0 5 -9 31 -21 56 l-21 46 -24
-41 c-13 -22 -40 -89 -59 -148 -35 -109 -68 -170 -112 -211 -13 -13 -25 -23
-27 -23 -1 0 -1 26 2 58 2 40 -1 63 -11 77 -14 19 -15 18 -30 -16 -16 -40 -96
-115 -164 -154 -47 -28 -95 -35 -145 -22 -40 11 -34 27 7 20 42 -7 173 38 201
68 17 19 16 19 -32 20 l-49 0 45 20 c57 26 100 66 100 95 0 19 -8 25 -42 34
-24 6 -73 20 -110 30 -79 24 -100 25 -138 5 -15 -8 -64 -26 -107 -40 -105 -35
-106 -34 -99 145 3 74 5 136 5 138 1 1 10 2 20 2 24 0 31 -18 32 -93 l1 -62 9
60 c5 33 11 66 14 73 7 18 39 14 69 -9 65 -51 235 -86 285 -59 23 12 53 58 46
70 -3 5 -20 3 -40 -6 -19 -8 -56 -14 -84 -14 -52 0 -151 27 -151 42 0 4 39 8
88 8 66 0 96 5 122 19 19 10 49 21 67 25 40 9 79 39 98 77 14 25 14 29 1 29
-8 0 -18 -4 -21 -10 -10 -17 -53 -11 -116 15 -117 50 -182 45 -330 -27 l-87
-41 -106 28 c-75 20 -114 36 -131 53 -27 27 -33 46 -12 40 122 -33 251 -59
269 -55 13 4 48 22 78 42 57 37 162 75 209 75 47 0 56 17 12 24 -57 9 -122 -8
-219 -56 l-84 -41 -117 20 c-178 31 -195 44 -206 159 -4 43 -3 53 4 37 22 -49
122 -83 248 -83 87 0 111 8 150 52 17 18 50 55 74 82 64 71 129 95 162 59z
m799 -42 c58 -37 85 -74 137 -186 23 -49 51 -108 62 -130 l19 -40 -3 58 c-4
56 0 66 19 47 22 -22 160 -64 309 -95 156 -32 354 -94 445 -140 97 -49 263
-168 332 -237 95 -96 122 -147 142 -274 9 -55 25 -127 37 -160 35 -97 30 -162
-20 -279 -105 -249 -137 -302 -245 -413 -97 -100 -242 -220 -252 -209 -8 8 14
45 46 81 16 17 41 49 55 71 15 22 53 71 84 108 119 144 134 164 168 237 40 84
103 240 103 254 0 17 -61 -48 -81 -87 -11 -20 -31 -70 -45 -109 -15 -40 -37
-89 -49 -109 -23 -35 -101 -109 -116 -109 -8 0 9 40 48 115 11 22 26 58 33 80
7 22 48 118 91 213 44 95 84 193 89 217 11 48 -1 128 -26 178 -23 43 -33 31
-18 -20 8 -25 14 -56 14 -68 0 -21 -149 -327 -183 -375 -10 -14 -33 -74 -52
-135 -19 -60 -45 -123 -58 -139 l-23 -29 -24 184 c-14 107 -26 247 -27 334 -1
93 -7 167 -16 194 -13 42 -14 33 -20 -164 -5 -126 -3 -271 4 -365 10 -142 9
-166 -10 -277 -14 -86 -35 -160 -70 -251 -30 -76 -59 -175 -71 -238 -33 -172
-40 -184 -35 -59 2 61 7 144 10 185 l6 75 -20 -60 c-25 -74 -48 -225 -56 -368
-6 -113 -40 -272 -94 -447 -26 -83 -30 -90 -30 -55 -1 22 10 96 24 165 22 110
53 455 42 466 -5 6 -34 -117 -56 -243 -36 -200 -91 -450 -116 -523 -46 -135
-135 -271 -274 -417 -69 -73 -127 -131 -128 -129 -9 9 66 118 127 186 64 72
99 125 115 180 4 14 36 84 71 156 53 107 64 139 64 180 l0 49 -34 -78 c-19
-43 -39 -83 -44 -90 -5 -7 -42 -76 -82 -155 -62 -122 -80 -148 -123 -182 -27
-22 -97 -90 -156 -152 -58 -61 -133 -134 -165 -161 -57 -47 -62 -49 -105 -43
-39 5 -246 71 -261 83 -6 6 24 23 89 51 64 28 145 31 210 7 72 -25 82 -21 159
59 82 87 149 183 221 320 29 55 68 123 86 152 54 84 73 126 90 200 8 38 18 78
21 89 13 44 -24 -20 -57 -100 -18 -44 -56 -116 -84 -160 -29 -44 -77 -124
-109 -177 -31 -54 -81 -140 -111 -192 -49 -85 -111 -156 -135 -156 -5 0 -32 9
-60 20 -101 40 -193 21 -293 -58 -21 -17 -61 -38 -88 -47 -27 -9 -47 -20 -44
-24 2 -5 24 -11 48 -14 23 -3 72 -19 107 -35 36 -16 76 -34 90 -40 23 -10 22
-11 -15 -11 -44 -1 -243 22 -343 40 -52 10 -71 19 -114 58 -57 50 -58 41 -5
-48 18 -29 59 -78 92 -110 92 -85 181 -109 288 -77 26 8 47 12 47 10 0 -9
-119 -62 -155 -68 -22 -4 -98 -11 -170 -16 -189 -11 -352 -44 -477 -95 -36
-14 -16 -21 52 -17 85 5 260 -7 260 -17 0 -13 -132 -31 -216 -29 -78 1 -82 0
-154 -43 -85 -50 -74 -63 21 -24 35 14 84 28 109 31 l45 6 -30 -19 c-128 -81
-191 -114 -211 -109 -47 12 -120 74 -171 145 -29 41 -53 82 -53 92 0 16 155
146 270 226 25 17 85 68 135 113 49 45 121 110 158 143 l69 61 -16 -37 c-13
-33 -13 -37 0 -37 33 0 84 75 126 187 22 59 108 163 134 163 8 0 46 -22 86
-49 107 -71 266 -148 368 -177 77 -22 94 -24 125 -14 60 20 75 62 95 273 12
124 36 206 85 297 19 36 54 103 76 150 23 47 71 146 107 220 67 139 144 321
139 326 -2 2 -23 -33 -47 -79 -24 -45 -58 -104 -76 -130 -18 -26 -57 -98 -87
-160 -30 -62 -92 -169 -139 -238 -106 -156 -126 -193 -142 -277 -11 -55 -14
-61 -16 -32 -1 19 -2 41 -1 48 4 29 -20 116 -41 144 -52 74 -180 91 -333 43
-52 -16 -101 -25 -127 -23 -42 3 -43 4 -42 38 7 169 6 185 -19 250 -13 36 -31
91 -38 124 -9 44 -15 54 -20 40 -14 -35 -9 -104 11 -161 25 -72 25 -81 -2
-164 l-21 -67 -27 77 c-14 42 -38 105 -53 141 -14 36 -31 91 -37 123 -17 85
-33 62 -27 -37 3 -54 17 -121 41 -200 20 -65 35 -123 33 -129 -6 -18 -87 178
-109 265 -19 76 -20 93 -10 203 6 66 18 142 28 168 21 61 14 116 -21 169 -15
22 -29 37 -32 35 -3 -3 3 -37 13 -75 18 -69 18 -69 -7 -158 -15 -58 -25 -80
-27 -64 -8 58 -46 161 -92 250 -27 52 -46 98 -42 102 15 14 168 27 232 18 180
-24 284 -54 353 -103 16 -11 65 -34 110 -52 45 -18 104 -43 130 -55 69 -31 89
-23 116 46 12 31 20 58 18 60 -2 2 -14 -7 -27 -21 -13 -14 -35 -25 -49 -25
-27 0 -218 54 -228 64 -3 3 2 43 11 88 9 46 25 176 36 290 19 190 25 224 75
395 30 104 74 247 98 318 25 72 72 213 107 315 34 102 88 253 120 335 73 188
76 203 55 263 -19 56 -40 83 -86 111 -19 12 -29 21 -23 21 5 0 31 -13 56 -29z
m-262 -159 c0 -13 -3 -12 -20 3 -11 10 -17 22 -14 27 8 12 34 -11 34 -30z
m174 -127 c-8 -28 -22 -81 -30 -120 -21 -103 -34 -137 -49 -131 -8 3 -21 -24
-39 -86 -15 -49 -29 -88 -32 -86 -2 3 1 40 6 84 10 78 1 163 -21 205 -7 13 -3
18 19 24 53 13 89 45 122 106 17 33 34 59 36 57 2 -2 -4 -26 -12 -53z m-1121
-234 c4 -1 7 -29 6 -63 l0 -63 -25 54 c-29 64 -30 80 -6 76 9 -2 20 -4 25 -4z
m412 -258 c41 -9 75 -20 75 -24 0 -11 -106 -49 -136 -49 -14 0 -39 7 -56 16
l-30 16 28 29 c33 34 24 33 119 12z m-292 -148 c21 -27 50 -74 64 -104 23 -48
25 -62 20 -135 -4 -51 -14 -100 -28 -131 -12 -29 -24 -80 -26 -121 -6 -79 0
-91 67 -127 27 -14 30 -20 20 -32 -16 -19 -38 -19 -86 1 -50 21 -78 46 -122
114 -42 64 -53 50 -24 -27 49 -128 116 -190 267 -247 103 -39 142 -58 128 -63
-24 -9 -179 38 -258 77 -118 59 -173 105 -231 193 -28 42 -70 97 -92 121 -22
24 -49 59 -59 77 l-18 34 -3 -37 c-4 -42 12 -77 63 -138 38 -46 40 -67 2 -32
-23 22 -47 29 -47 15 0 -28 100 -139 164 -182 71 -49 276 -151 304 -151 21 0
24 -2 12 -10 -52 -33 -311 90 -433 205 -62 58 -87 76 -87 60 0 -21 49 -94 99
-147 98 -106 106 -138 26 -102 -44 20 -81 27 -178 34 -67 5 -130 10 -139 10
-24 0 -78 49 -78 71 0 18 114 149 130 149 5 0 14 -16 20 -35 11 -35 108 -150
118 -141 2 3 -3 21 -12 40 -86 182 -88 295 -6 456 55 110 136 233 177 271 53
49 136 89 178 86 22 -1 39 -14 68 -52z m166 -11 c10 -9 -55 -3 -69 6 -10 6 -2
7 25 3 22 -3 42 -7 44 -9z m2494 -156 c15 -40 33 -101 39 -135 11 -62 11 -73
-21 -308 -14 -102 -66 -230 -114 -282 -47 -51 -59 -49 -28 3 93 158 150 450
117 599 -20 88 -35 195 -27 195 4 0 19 -33 34 -72z m-2440 -55 c34 -9 67 -20
73 -25 17 -13 59 -138 89 -263 37 -156 102 -289 188 -382 22 -24 37 -43 33
-43 -19 0 -89 55 -146 116 -81 86 -134 185 -160 300 -36 158 -60 222 -60 160
0 -65 24 -180 63 -300 35 -106 50 -138 89 -187 27 -32 46 -59 43 -59 -13 0
-97 65 -128 99 -56 62 -83 119 -115 241 -29 109 -55 360 -38 360 3 0 34 -8 69
-17z m313 -160 c50 -103 64 -143 64 -178 0 -25 -3 -45 -7 -45 -13 1 -100 198
-132 298 -27 86 -28 92 -9 75 11 -10 49 -78 84 -150z m-112 45 c39 -81 64
-150 86 -242 17 -70 30 -130 28 -132 -10 -10 -73 136 -102 237 -19 63 -45 144
-59 182 -41 105 -13 79 47 -45z m2367 -110 c9 -33 8 -54 -1 -91 -7 -27 -10
-50 -8 -52 2 -3 21 0 42 6 54 15 57 3 11 -37 -45 -39 -94 -68 -102 -60 -3 3 4
56 16 118 12 62 21 123 21 136 0 34 8 26 21 -20z m124 -210 c-16 -24 -63 -79
-105 -123 -42 -44 -106 -119 -143 -166 -41 -54 -94 -108 -139 -142 -40 -30
-89 -72 -108 -92 -19 -20 -51 -48 -71 -60 -41 -26 -166 -68 -180 -59 -5 3 24
28 64 55 39 27 91 64 115 82 23 18 92 68 152 112 87 64 115 90 136 130 40 73
114 169 149 193 16 12 57 44 89 71 33 28 62 49 64 46 3 -3 -8 -24 -23 -47z
m-2712 -58 c15 -35 25 -65 23 -67 -7 -7 -46 33 -60 61 -11 22 -12 34 -4 52 6
13 12 23 13 22 2 -2 14 -32 28 -68z m2338 -76 c-59 -168 -126 -254 -275 -351
-102 -67 -203 -119 -212 -110 -3 3 48 45 113 93 65 48 159 129 209 178 81 81
94 100 123 172 60 152 93 166 42 18z m445 -25 c-13 -145 -73 -266 -196 -394
-31 -33 -81 -92 -109 -132 -84 -114 -342 -307 -496 -370 -64 -26 -93 -32 -145
-32 l-65 1 52 8 c76 11 103 19 103 30 0 6 -6 10 -12 10 -7 0 -31 6 -53 12 -40
12 -39 13 50 18 89 6 91 6 210 75 125 72 165 101 165 120 0 33 196 236 315
327 79 60 115 118 115 183 l0 40 -21 -45 c-27 -61 -44 -77 -114 -112 -70 -35
-281 -192 -296 -219 -15 -28 -109 -79 -147 -79 -18 0 -49 7 -70 16 l-37 16 62
17 c63 18 93 37 173 111 25 23 68 57 97 77 44 30 94 85 216 242 15 19 62 69
104 109 72 69 78 73 91 55 10 -13 12 -36 8 -84z m-3558 -64 c171 -27 243 -45
305 -78 66 -35 188 -143 221 -196 31 -50 73 -154 90 -226 18 -70 32 -213 21
-203 -4 4 -23 73 -41 154 -65 281 -167 415 -372 486 -59 20 -83 23 -206 21
-160 -3 -148 1 -341 -121 -204 -130 -256 -193 -295 -354 -27 -113 -26 -190 5
-285 14 -43 37 -115 51 -161 54 -183 147 -306 287 -379 66 -35 115 -41 192
-24 22 5 75 12 118 16 102 9 133 34 171 138 54 145 147 277 196 277 17 0 47
-25 102 -82 42 -46 78 -88 78 -94 0 -16 -27 -37 -64 -49 -23 -8 -30 -15 -28
-31 2 -16 -20 -38 -94 -94 -53 -40 -115 -90 -137 -111 -71 -64 -139 -91 -243
-97 -152 -8 -207 20 -390 203 -50 49 -107 115 -127 145 -36 56 -140 339 -157
430 -15 80 24 256 76 346 35 61 145 158 251 220 78 46 96 61 118 103 28 51 57
73 88 66 10 -2 67 -11 125 -20z m1007 -112 c40 -16 61 -30 53 -34 -25 -13
-228 -39 -307 -39 -44 0 -112 -7 -152 -15 -74 -16 -99 -14 -99 5 0 15 37 27
164 54 61 14 129 31 151 39 62 23 117 20 190 -10z m2888 -187 c29 -19 84 -64
124 -100 80 -72 81 -68 -27 -85 -79 -13 -177 -60 -230 -110 -39 -37 -51 -61
-30 -61 6 0 36 13 68 29 63 32 265 91 321 94 26 1 36 -2 39 -15 4 -21 -111
-82 -185 -98 -91 -20 -123 -31 -123 -40 0 -16 28 -12 175 24 l139 34 44 -23
45 -24 -29 -7 c-16 -4 -51 -18 -79 -32 -28 -14 -109 -37 -185 -52 l-135 -26
145 -7 c80 -3 174 -2 210 3 107 16 106 16 125 -39 8 -26 29 -69 46 -95 16 -26
24 -44 17 -40 -7 4 -38 24 -68 44 -30 20 -71 40 -91 44 -32 6 -215 -16 -226
-27 -2 -3 32 -6 75 -9 64 -4 90 -11 143 -38 35 -18 94 -48 130 -66 56 -28 75
-45 118 -104 l52 -71 -59 30 c-32 16 -87 34 -123 41 -35 6 -118 26 -184 44
-66 19 -158 44 -205 56 -87 23 -261 98 -291 126 -16 14 -16 20 -3 56 19 55 18
115 -5 187 l-19 62 49 57 c27 31 68 93 90 137 43 82 76 135 85 135 3 0 29 -15
57 -34z m-1067 -251 c60 -19 124 -35 142 -35 17 0 32 -4 32 -10 0 -14 -86 -12
-145 4 -49 13 -155 62 -155 71 0 9 16 5 126 -30z m-107 -86 c31 -12 69 -24 85
-26 45 -9 10 -23 -57 -23 -77 0 -167 39 -167 73 0 13 70 1 139 -24z m791 -128
c5 -11 10 -39 10 -63 0 -48 -20 -86 -85 -163 -50 -58 -74 -104 -121 -227 -19
-50 -50 -116 -70 -148 -19 -31 -48 -90 -65 -131 -26 -66 -40 -84 -128 -169
-119 -114 -128 -137 -88 -224 14 -31 25 -56 23 -56 -1 0 -35 40 -75 89 -41 49
-103 114 -139 143 -85 68 -276 257 -269 265 12 11 104 -53 182 -127 78 -74
158 -140 168 -140 3 0 13 26 22 58 22 77 66 151 129 220 29 31 65 77 79 102
30 52 60 130 49 130 -12 0 -58 -64 -86 -119 -15 -29 -57 -95 -94 -146 -37 -51
-75 -107 -84 -125 -18 -32 -38 -33 -38 -2 0 9 25 62 55 117 30 54 55 101 55
104 0 15 -77 -72 -102 -116 -28 -49 -45 -62 -61 -47 -4 4 12 43 35 88 31 58
68 107 133 176 95 99 153 172 199 253 31 53 67 83 138 116 30 14 70 48 109 92
65 73 99 87 119 50z m290 -301 c145 -56 195 -78 270 -120 30 -16 81 -36 113
-42 l57 -12 0 -82 c0 -72 4 -88 32 -143 17 -33 29 -63 26 -66 -3 -3 -29 10
-58 30 -28 19 -56 35 -60 35 -17 0 -180 -105 -168 -108 8 -1 41 6 76 17 67 22
91 18 160 -22 37 -22 40 -35 13 -68 -17 -21 -28 -24 -82 -24 l-64 1 45 -14
c25 -7 67 -20 94 -27 l49 -14 29 31 c32 35 35 34 44 -9 5 -24 1 -35 -17 -52
-25 -23 -29 -24 -109 -25 l-54 -1 -13 -47 c-9 -30 -26 -57 -49 -77 -28 -26
-31 -31 -15 -31 25 0 77 44 97 82 l15 29 32 -27 c36 -29 68 -80 61 -98 -5 -12
-170 -114 -270 -166 -60 -31 -161 -121 -119 -106 109 39 194 56 287 56 113 0
148 -12 168 -60 15 -37 8 -57 -45 -118 -27 -31 -66 -57 -139 -93 -55 -27 -132
-68 -171 -90 l-70 -40 63 6 c35 3 92 15 126 25 34 11 95 24 136 30 41 5 110
17 153 26 42 10 79 15 81 13 3 -2 7 -15 10 -29 6 -23 0 -29 -66 -66 -113 -64
-123 -66 -374 -65 -124 0 -224 -2 -222 -3 13 -12 225 -59 317 -71 62 -8 118
-18 126 -22 7 -5 -55 -6 -138 -5 -115 3 -172 0 -237 -13 -47 -10 -105 -21
-130 -24 -53 -8 -39 -15 60 -30 70 -11 179 -3 324 24 43 8 107 15 143 15 l65
0 63 64 c34 35 71 78 81 95 10 17 22 31 27 31 42 0 287 -220 362 -325 64 -89
107 -210 53 -147 -8 9 -33 49 -56 87 -47 82 -102 141 -102 109 0 -46 54 -178
88 -216 l35 -39 -29 12 c-16 7 -50 28 -75 46 -26 18 -53 33 -61 33 -8 0 -48
-11 -89 -25 -81 -28 -230 -44 -409 -45 l-105 -1 90 -30 c128 -43 263 -56 421
-39 119 12 199 9 278 -11 53 -14 37 -25 -75 -51 -74 -17 -127 -22 -251 -22
-87 -1 -158 -4 -158 -7 0 -7 12 -13 148 -73 99 -45 161 -48 292 -17 98 24 204
28 198 9 -17 -50 -237 -125 -328 -112 -50 7 -223 95 -295 149 -70 54 -200 133
-315 193 -58 30 -134 72 -170 95 -36 22 -92 57 -125 78 -65 41 -165 84 -165
71 0 -21 80 -97 204 -197 75 -59 136 -109 136 -111 0 -31 -329 220 -363 276
l-22 37 -2 -96 c-1 -53 -6 -109 -11 -126 -8 -28 -9 -25 -21 37 -14 73 -24 85
-112 142 -75 47 -182 153 -210 207 -58 115 -92 276 -103 499 l-6 105 35 -90
c49 -127 55 -138 62 -131 13 13 1 119 -22 187 -28 80 -75 301 -75 347 0 53 17
44 23 -12 9 -85 71 -216 102 -216 11 0 9 11 -8 48 -19 41 -22 73 -28 252 l-8
205 57 117 c31 65 62 118 67 118 14 0 91 -91 121 -143 52 -91 18 44 -50 197
-14 32 -26 67 -26 78 0 21 36 78 49 78 4 0 12 -19 18 -42 11 -40 37 -85 104
-185 14 -21 35 -63 47 -93 11 -30 21 -52 21 -48 3 32 -29 131 -69 218 -27 58
-52 122 -56 144 l-7 39 49 -8 c27 -4 105 -29 174 -55z m-808 -52 c-10 -24 -44
-70 -74 -103 -54 -58 -109 -138 -138 -200 l-14 -30 -4 28 c-5 37 25 95 94 187
134 177 180 217 136 118z m-3490 -110 c17 -18 57 -65 89 -104 126 -155 303
-327 468 -455 104 -80 189 -198 179 -247 -2 -10 -20 14 -46 63 -38 72 -108
162 -118 152 -2 -2 13 -44 35 -93 21 -49 41 -100 45 -114 l7 -25 -21 25 c-12
13 -49 68 -82 122 -33 53 -84 122 -114 152 -58 58 -158 130 -174 124 -5 -2 33
-49 85 -106 51 -56 109 -124 128 -150 41 -56 101 -172 93 -180 -3 -3 -7 -3 -9
-1 -155 216 -508 546 -606 565 -42 9 -39 -1 12 -33 115 -74 188 -138 248 -215
35 -46 88 -109 117 -141 59 -64 60 -74 23 -147 -22 -42 -130 -105 -165 -94
-36 11 -136 63 -183 95 -25 16 -47 28 -50 25 -12 -11 112 -115 173 -145 92
-45 177 -52 306 -23 51 12 127 23 168 27 l75 6 -35 -30 c-58 -48 -138 -93
-193 -108 -158 -41 -424 20 -529 121 -63 60 -113 142 -139 226 -19 62 -21 88
-17 213 5 156 10 173 85 341 41 92 97 186 109 186 3 0 20 -15 36 -32z m1150
-9 c28 -21 30 -25 26 -75 -6 -76 -58 -157 -123 -195 -50 -29 -92 -35 -154 -23
-42 9 -40 24 4 24 90 0 215 55 215 95 0 19 -4 19 -39 1 -22 -12 -193 -46 -228
-46 -25 0 24 21 90 39 79 21 170 62 182 81 14 22 -7 50 -46 60 -44 12 -46 16
-22 42 22 24 58 23 95 -3z m786 -52 c32 -17 43 -49 21 -62 -28 -18 -230 -65
-277 -65 -46 0 -58 4 -83 29 -36 37 -36 46 1 81 39 37 51 39 190 36 85 -2 123
-7 148 -19z m908 -139 c0 -35 2 -85 7 -113 l7 -50 -19 50 c-11 28 -20 61 -20
74 -1 21 19 101 24 101 1 0 2 -28 1 -62z m-85 -36 c-6 -27 -10 -130 -9 -242 2
-144 -1 -211 -12 -255 l-15 -60 -6 120 c-11 201 -10 412 2 442 13 36 42 68 47
53 2 -6 -1 -32 -7 -58z m454 -13 c26 -34 45 -63 42 -65 -6 -6 -62 58 -87 100
-33 55 -10 37 45 -35z m-2468 -93 c-4 -10 -1 -13 9 -9 7 3 14 0 14 -6 0 -6 11
-11 25 -11 14 0 25 5 25 11 0 12 21 6 85 -22 30 -13 42 -24 39 -34 -7 -17
-163 -125 -181 -125 -17 0 -29 25 -52 110 -15 54 -18 77 -10 87 16 18 53 17
46 -1z m2089 -91 c3 -25 3 -66 -2 -92 -7 -46 -8 -47 -15 -18 -10 46 -10 167 0
160 6 -3 13 -26 17 -50z m-2206 14 c0 -22 -2 -22 -54 -8 -42 12 -38 25 9 31
38 5 45 1 45 -23z m1823 -251 c3 -13 9 -45 12 -73 10 -75 29 -133 68 -210 42
-84 60 -141 55 -178 -7 -61 -31 -23 -75 118 -12 41 -24 61 -36 63 -17 4 -18
-5 -11 -150 6 -144 5 -156 -15 -195 -34 -68 -100 -102 -87 -45 3 15 12 68 20
117 8 50 21 118 30 153 20 74 24 169 12 274 -9 77 -2 148 13 148 5 0 11 -10
14 -22z m663 -39 c35 -23 64 -43 64 -45 0 -3 -22 7 -49 20 -26 14 -79 30 -117
37 -79 13 -108 25 -84 33 59 20 102 10 186 -45z m110 -11 c102 -92 176 -144
264 -188 87 -43 140 -84 140 -107 0 -17 3 -18 -87 21 -191 82 -270 141 -357
266 -60 88 -52 90 40 8z m-580 27 c11 -27 43 -228 44 -274 0 -3 -4 -1 -10 5
-25 25 -75 304 -54 304 3 0 12 -16 20 -35z m-86 -11 c16 -41 48 -208 42 -222
-7 -20 -27 2 -50 56 -22 50 -39 163 -28 181 12 18 26 12 36 -15z m-240 -155
c-11 -68 -22 -136 -25 -151 -6 -35 2 -35 37 -1 40 38 36 8 -6 -44 -32 -40 -72
-159 -91 -268 -7 -38 -8 -39 -17 -15 -12 31 -3 180 17 275 8 39 20 108 25 155
17 140 20 149 49 164 14 8 27 13 29 11 1 -1 -6 -58 -18 -126z m-2525 26 c69
-101 143 -159 303 -238 168 -83 186 -100 186 -181 0 -109 -104 -252 -228 -314
-84 -42 -265 -38 -360 8 -45 22 -148 79 -154 85 -3 2 5 16 16 30 12 14 28 49
37 76 l17 50 97 -7 c79 -5 103 -4 128 10 41 21 54 40 18 26 -15 -6 -43 -10
-62 -10 -50 0 -153 30 -153 45 0 6 6 34 14 61 8 27 20 81 27 121 l12 72 31
-24 c17 -13 60 -35 95 -49 63 -25 156 -75 149 -80 -4 -4 -162 11 -200 18 -16
3 -28 1 -28 -4 0 -21 50 -34 150 -40 90 -6 114 -11 167 -38 61 -31 93 -64 113
-118 l11 -29 19 25 c26 34 25 89 -2 130 -23 33 -85 73 -301 193 -75 41 -115
57 -142 57 l-37 0 7 48 c7 48 26 132 30 132 1 0 19 -25 40 -55z m3324 15 c9
-5 -6 -10 -40 -15 -30 -4 -84 -18 -120 -31 -90 -32 -109 -31 -68 3 60 51 173
72 228 43z m-1435 -19 c13 -20 -90 -29 -144 -13 -18 5 -5 9 50 13 41 3 78 6
82 7 4 1 9 -2 12 -7z m1446 -76 c-6 -8 -36 -21 -65 -30 -30 -8 -87 -31 -127
-50 -86 -41 -116 -46 -73 -10 69 56 180 101 259 104 15 1 16 -2 6 -14z m-106
-136 c-190 -99 -271 -122 -143 -40 100 64 284 145 303 134 4 -3 -68 -45 -160
-94z m-1209 8 c-56 -44 -235 -228 -303 -312 -31 -38 -61 -73 -67 -77 -16 -12
-28 8 -17 28 18 33 315 324 367 359 63 43 73 44 20 2z m1465 29 c0 -6 -81 -53
-152 -88 -60 -29 -115 -74 -105 -84 3 -3 23 8 45 24 66 47 218 87 332 86 80 0
103 -4 145 -24 55 -27 128 -95 122 -113 -4 -15 -90 -63 -139 -79 -21 -6 -38
-15 -38 -19 0 -13 83 3 143 28 32 13 62 21 67 18 6 -4 10 -20 10 -36 0 -25 -9
-35 -60 -68 -33 -22 -126 -65 -205 -96 -322 -126 -620 -283 -726 -383 -34 -31
-175 -264 -226 -374 -18 -37 -25 -80 -34 -190 -15 -209 0 -280 79 -377 37 -46
32 -47 -26 -4 -31 24 -75 97 -94 158 -5 16 -13 100 -18 185 -5 85 -12 182 -16
216 l-6 60 57 64 c98 110 194 291 260 486 40 120 119 297 146 331 7 7 10 16 7
19 -10 10 -81 -81 -105 -135 -14 -31 -42 -94 -63 -141 -21 -47 -44 -112 -50
-145 -22 -108 -105 -266 -176 -330 -35 -32 -62 -47 -218 -120 -94 -44 -101
-46 -113 -29 -27 37 -56 132 -61 201 -4 59 -1 79 17 115 30 64 114 153 160
171 22 9 63 37 91 62 56 50 128 100 134 94 5 -5 -105 -153 -157 -209 -52 -57
-109 -102 -166 -132 -59 -31 -63 -51 -34 -173 30 -130 31 -131 45 -117 9 9 7
34 -6 102 -9 50 -15 98 -11 108 7 22 162 115 180 108 18 -7 44 -46 55 -86 8
-29 6 -36 -20 -61 -38 -38 -55 -38 -35 1 19 37 19 74 0 90 -12 10 -29 6 -90
-23 -84 -41 -88 -48 -52 -117 17 -35 28 -46 50 -48 69 -8 221 102 292 213 18
28 49 102 69 165 57 178 133 360 174 415 21 28 67 72 102 98 90 68 334 187
383 187 20 0 37 -2 37 -4z m-1408 -133 c-14 -26 -135 -190 -178 -241 -19 -23
-44 -47 -55 -53 -19 -10 -20 -9 -8 13 7 12 19 29 26 37 8 8 33 39 56 69 78
102 92 120 127 160 36 42 49 48 32 15z m-1343 -35 c4 -13 9 -50 10 -82 1 -32
4 -62 6 -66 4 -7 -37 -40 -50 -40 -7 0 -6 195 2 203 12 13 23 7 32 -15z m1353
-105 c-21 -27 -58 -73 -81 -103 -51 -66 -149 -149 -175 -150 -13 0 1 20 50 69
38 37 104 105 146 150 83 88 123 110 60 34z m222 -24 c-49 -51 -92 -77 -54
-33 33 40 84 83 89 78 3 -2 -13 -23 -35 -45z m-846 15 c35 -8 80 -14 100 -14
l37 -1 -35 -19 c-19 -11 -44 -19 -55 -20 -33 -1 -275 53 -275 61 0 21 120 18
228 -7z m2399 -251 c78 -84 130 -166 152 -241 11 -36 19 -68 17 -70 -10 -10
-157 152 -196 216 -44 71 -60 86 -60 57 0 -27 31 -78 75 -126 24 -25 50 -59
58 -75 9 -16 43 -56 78 -89 92 -89 195 -221 231 -295 17 -36 50 -117 75 -180
66 -172 132 -327 156 -368 22 -40 75 -107 146 -187 55 -62 65 -87 85 -204 22
-124 35 -147 36 -58 0 37 3 67 8 67 12 0 88 -148 131 -258 23 -56 46 -111 53
-122 7 -10 10 -21 8 -23 -3 -2 -70 -16 -150 -32 -164 -32 -261 -58 -405 -108
-80 -28 -125 -37 -225 -45 -105 -8 -141 -15 -221 -46 -107 -40 -109 -40 -109
-26 0 6 -20 43 -44 83 -50 82 -60 116 -75 242 -6 50 -17 111 -25 135 -8 25
-20 87 -26 139 -6 51 -15 101 -20 110 -17 33 -39 139 -49 242 -7 72 -20 132
-40 186 -16 43 -34 117 -40 164 -29 224 -33 271 -27 357 6 108 -5 113 -28 12
-28 -124 -14 -409 29 -580 13 -52 27 -120 30 -150 9 -70 30 -140 67 -213 16
-32 28 -66 26 -75 -4 -23 -76 92 -122 196 -20 45 -52 118 -72 163 -44 100 -78
233 -99 386 -9 65 -23 146 -31 181 -23 99 -20 179 11 274 15 46 33 93 41 106
9 13 14 28 12 33 -7 20 -58 -34 -95 -99 -36 -65 -38 -71 -42 -181 -2 -78 2
-142 14 -205 12 -65 15 -131 13 -230 l-3 -140 -38 93 c-49 120 -58 169 -46
256 5 39 13 139 18 223 8 150 9 154 47 230 36 72 45 81 119 130 154 102 382
199 474 201 17 1 40 -16 78 -56z m-4078 -2 c103 -76 132 -91 177 -91 23 0 93
-16 155 -36 191 -60 219 -64 344 -53 60 6 123 17 139 25 37 18 43 12 22 -21
-36 -55 -70 -66 -191 -62 -94 3 -130 9 -245 45 -135 41 -250 65 -250 52 0 -4
65 -33 145 -65 201 -81 205 -83 204 -142 0 -27 -4 -57 -8 -68 -6 -16 -9 -12
-15 20 -4 22 -9 47 -12 56 -9 31 -85 70 -217 110 -73 23 -186 58 -253 79 -74
24 -129 37 -144 33 -20 -5 -22 -3 -16 12 8 22 89 154 95 155 2 0 33 -22 70
-49z m1248 -4 c46 -76 116 -141 200 -185 40 -20 73 -39 73 -42 -1 -16 -168
-115 -231 -136 -87 -30 -361 -160 -434 -206 -95 -60 -290 -187 -330 -215 -22
-15 -43 -29 -47 -31 -9 -4 0 25 46 151 26 70 36 114 36 155 0 47 6 67 28 103
40 62 91 99 139 99 78 1 148 52 193 140 27 52 101 116 200 171 47 26 87 47 90
48 3 1 20 -23 37 -52z m2996 2 c7 -8 38 -34 70 -57 61 -46 70 -62 35 -62 -46
0 -102 53 -132 124 -26 61 -21 61 27 -5z m-1798 -219 c-28 -40 -45 -51 -45
-28 0 14 61 80 68 73 3 -3 -8 -23 -23 -45z m-2433 14 c121 -38 286 -102 341
-132 56 -30 67 -57 46 -115 -33 -94 -109 -107 -288 -48 -83 28 -141 41 -177
41 -86 0 -63 -15 42 -28 86 -10 109 -17 208 -67 125 -63 188 -74 226 -40 20
18 20 17 20 -9 0 -37 -37 -106 -56 -106 -9 0 -28 8 -42 19 -45 31 -113 62
-129 59 -12 -2 -3 -20 35 -71 28 -37 56 -76 62 -87 13 -24 13 -107 0 -115 -5
-3 -28 24 -52 61 -23 37 -44 62 -46 56 -2 -6 17 -54 43 -107 41 -87 45 -100
35 -129 -5 -17 -17 -67 -25 -111 -17 -89 -35 -121 -35 -63 0 64 -63 126 -195
193 -129 66 -248 80 -313 38 -48 -30 -94 -196 -69 -250 9 -21 8 -27 -8 -39
-25 -18 -30 -18 -32 4 0 9 -4 46 -8 82 -6 55 -3 83 24 184 17 66 37 129 45
141 9 14 12 37 9 68 -3 26 0 67 7 93 11 37 20 49 51 65 49 25 50 41 2 37 -21
-1 -38 2 -40 8 -2 7 5 57 17 112 21 106 67 231 96 263 25 27 105 25 206 -7z
m1798 -65 c24 -20 24 -21 5 -35 -10 -8 -22 -14 -27 -14 -9 0 -23 27 -32 63 -6
25 -5 27 11 18 10 -6 29 -20 43 -32z m-110 3 c0 -9 11 -38 25 -64 30 -56 30
-58 7 -58 -19 0 -92 66 -92 83 0 13 40 57 52 57 4 0 8 -8 8 -18z m3190 -256
c109 -113 333 -285 427 -327 34 -16 87 -34 116 -40 79 -17 93 -31 22 -24 -91
10 -169 40 -280 107 -261 158 -324 219 -449 428 -76 129 -72 157 6 44 34 -49
105 -133 158 -188z m-3255 137 c71 -35 101 -62 53 -47 -31 9 -109 49 -133 68
-35 27 2 17 80 -21z m1630 -18 c-8 -21 -18 -36 -20 -33 -3 3 2 22 10 43 9 20
18 35 21 32 3 -3 -2 -22 -11 -42z m-1717 -19 c74 -27 135 -50 140 -52 5 -3
-37 -82 -46 -88 -5 -3 -22 9 -38 26 -38 41 -137 105 -174 113 -17 4 -30 11
-30 16 0 17 80 9 148 -15z m606 -14 c18 -35 57 -154 52 -159 -3 -3 -43 86 -84
186 -10 25 17 2 32 -27z m523 3 c9 -20 8 -28 -4 -40 -8 -8 -20 -15 -28 -15
-27 0 -28 54 -1 72 17 12 20 10 33 -17z m-587 -39 c0 -31 84 -179 123 -216 22
-22 38 -40 34 -40 -4 0 -66 20 -138 45 -72 25 -140 45 -150 45 -26 0 -33 19
-14 40 9 10 23 38 30 62 9 28 14 35 14 20 1 -13 8 -36 15 -51 16 -29 80 -91
95 -91 5 0 1 23 -10 50 -20 53 -26 150 -9 150 6 0 10 -6 10 -14z m1220 -69 c0
-34 -7 -98 -14 -141 -16 -91 -12 -127 33 -299 31 -120 48 -160 126 -292 26
-44 56 -96 68 -115 l20 -35 -42 40 c-63 60 -160 198 -193 276 -30 72 -118 397
-118 438 0 27 101 201 113 194 4 -2 7 -32 7 -66z m1870 -46 c62 -30 136 -76
180 -112 41 -34 85 -68 97 -76 46 -31 131 -55 213 -60 75 -5 91 -3 128 16 88
45 212 133 256 182 48 53 62 46 23 -11 -26 -40 -186 -172 -237 -197 -71 -34
-261 -12 -375 44 -27 14 -79 53 -115 88 -50 47 -95 78 -185 124 -113 57 -165
90 -165 106 0 4 17 -7 38 -23 21 -17 85 -53 142 -81z m-325 -81 c149 -115 385
-249 503 -286 34 -10 62 -23 62 -27 0 -15 -101 4 -215 40 -139 45 -175 63
-250 126 -56 47 -235 226 -235 235 0 7 75 -42 135 -88z m1234 -79 c-24 -48
-58 -96 -80 -114 -66 -57 -206 -123 -334 -157 -66 -18 -172 -55 -235 -82 -195
-84 -312 -105 -380 -69 l-34 19 59 11 c33 7 98 23 145 36 47 12 132 33 190 45
58 12 151 37 208 56 164 54 223 93 456 306 22 20 42 35 44 33 2 -1 -16 -40
-39 -84z m-1499 -13 c21 -46 48 -117 59 -159 12 -42 32 -109 46 -148 13 -39
20 -71 16 -71 -17 0 -62 102 -115 260 -53 155 -64 200 -50 200 3 0 23 -37 44
-82z m-2529 18 c133 -48 167 -68 187 -110 19 -39 7 -44 -27 -12 -17 17 -76 45
-147 72 -130 48 -144 51 -144 30 0 -20 44 -49 115 -75 67 -25 185 -83 185 -91
0 -3 -22 -17 -49 -33 -39 -22 -67 -28 -139 -33 -104 -8 -148 -1 -182 27 l-25
21 55 -5 c30 -3 64 -2 75 3 19 7 19 8 -5 18 -104 41 -116 51 -108 86 2 11 27
0 96 -44 109 -68 139 -80 170 -69 33 12 27 23 -25 42 -98 36 -223 124 -223
157 0 15 42 60 55 60 8 0 69 -20 136 -44z m685 3 c10 -17 23 -79 15 -79 -12 0
-53 69 -46 79 8 14 22 14 31 0z m418 -41 c29 -92 86 -349 86 -389 0 -46 -18
-59 -83 -59 -61 0 -74 17 -53 72 23 64 38 165 31 212 -16 105 -17 106 -36 17
-18 -83 -56 -172 -75 -175 -30 -4 -2 121 79 347 15 41 32 33 51 -25z m1705
-63 c80 -105 97 -115 286 -157 l100 -23 -105 -7 c-58 -4 -120 -9 -139 -10 -33
-3 -37 1 -100 94 -74 109 -137 220 -101 178 11 -14 38 -48 59 -75z m-4508 -32
c-6 -21 -18 -47 -26 -58 -15 -19 -16 -18 -12 22 5 39 38 101 45 83 2 -5 -2
-26 -7 -47z m2334 8 c64 -29 83 -51 45 -51 -31 0 -126 46 -133 64 -9 24 14 20
88 -13z m-52 -101 c42 -16 90 -30 109 -31 27 0 29 -2 13 -8 -25 -10 -194 -36
-199 -30 -8 10 -15 99 -7 99 5 0 43 -13 84 -30z m-365 -55 c7 -14 12 -32 12
-38 0 -16 -116 -37 -201 -37 -33 0 -92 -6 -132 -14 -40 -8 -118 -20 -175 -26
-56 -6 -128 -20 -160 -31 -96 -33 -156 -35 -242 -6 -41 14 -91 29 -110 34 -33
9 -31 10 40 17 46 5 98 4 134 -3 63 -12 67 -11 195 25 57 17 109 24 166 24
125 0 383 42 425 70 24 16 36 12 48 -15z m3372 -60 c-21 -20 -157 -89 -269
-136 -72 -30 -107 -39 -150 -39 -87 0 -94 15 -14 30 37 7 91 24 118 38 61 30
294 121 315 121 13 1 13 -1 0 -14z m110 -20 c0 -6 -259 -177 -334 -220 -43
-25 -59 -29 -120 -27 -134 4 -349 24 -376 36 -22 9 12 11 169 12 l196 0 115
46 c63 25 166 71 229 102 119 58 121 59 121 51z m-4590 -56 c25 -5 93 -28 151
-49 59 -22 121 -43 139 -47 l33 -6 -27 -14 c-15 -8 -53 -14 -84 -15 -48 0 -69
6 -132 40 -79 43 -188 82 -226 82 -13 0 -26 5 -29 10 -8 13 115 13 175 -1z
m1183 -71 c4 -12 1 -28 -5 -35 -6 -7 -7 -13 -3 -13 4 0 -7 -19 -24 -42 -17
-23 -31 -53 -32 -67 0 -17 -5 -9 -14 24 -21 75 -19 90 20 124 42 37 51 38 58
9z m4268 -63 c10 -22 19 -49 18 -60 0 -11 -8 4 -18 33 -10 29 -31 67 -47 85
l-29 32 29 -25 c16 -14 37 -43 47 -65z m-4818 48 c-7 -2 -19 -2 -25 0 -7 3 -2
5 12 5 14 0 19 -2 13 -5z m1442 -128 l40 -14 -35 5 c-59 9 -140 34 -140 43 0
9 42 -2 135 -34z m-3215 -22 c36 -24 90 -75 90 -86 0 -5 -11 -7 -24 -5 -32 6
-39 -17 -41 -134 -2 -49 -3 -92 -4 -98 -2 -19 -30 -10 -65 20 -30 27 -37 43
-61 142 -21 91 -24 116 -15 134 23 42 79 55 120 27z m6591 -98 c-6 -24 -11
-62 -11 -85 l0 -42 -29 24 c-32 26 -86 106 -78 115 4 3 23 -4 43 -16 47 -28
62 -22 70 31 4 24 9 37 12 30 2 -7 -1 -33 -7 -57z m-4747 -33 c-28 -26 -78
-63 -110 -81 -127 -74 -311 -197 -359 -238 -114 -99 -222 -120 -322 -63 -29
17 -53 32 -53 35 0 2 18 -2 40 -10 23 -8 63 -17 91 -21 43 -6 57 -3 112 25 34
18 75 43 92 56 34 28 31 29 -65 42 l-65 8 110 22 c96 19 131 32 280 107 94 46
195 102 225 124 75 54 86 51 24 -6z m-2009 -2 c16 -32 20 -80 6 -80 -19 0 -61
43 -61 64 0 22 17 46 32 46 4 0 14 -13 23 -30z m380 -85 c14 -13 25 -36 25
-50 0 -39 -47 -34 -88 8 -34 35 -32 45 8 60 25 9 30 8 55 -18z m6266 -35 c121
-72 156 -134 179 -320 12 -103 12 -100 0 -100 -5 0 -10 13 -10 29 0 42 -45
212 -68 257 -11 21 -29 47 -41 58 -20 18 -20 18 3 -65 12 -46 37 -116 54 -156
50 -113 42 -238 -13 -193 -13 11 -13 16 0 41 22 41 19 65 -12 97 -16 15 -25
23 -20 18 12 -16 8 -33 -10 -40 -10 -4 -33 8 -67 36 -28 23 -52 45 -54 49 -1
3 -9 15 -17 25 -14 18 -14 17 -15 -9 0 -18 13 -42 38 -70 64 -70 72 -87 72
-148 0 -64 -18 -91 -45 -69 -11 9 -15 32 -15 81 l0 69 -39 24 c-62 39 -88 134
-61 226 6 19 15 64 20 100 19 119 20 120 121 60z m-201 -83 c0 -2 -5 -28 -10
-59 -16 -84 20 -230 69 -287 30 -35 36 -66 19 -109 -30 -80 -68 -34 -68 84 0
61 -1 64 -24 64 -40 0 -84 70 -74 117 3 13 10 4 25 -28 19 -43 43 -71 43 -52
0 4 -9 33 -21 63 -29 76 -29 127 -1 173 13 20 28 37 33 37 5 0 9 -1 9 -3z
m-3750 -27 c-8 -5 -19 -10 -25 -10 -5 0 -3 5 5 10 8 5 20 10 25 10 6 0 3 -5
-5 -10z m-3072 -37 c6 -19 -25 -16 -32 3 -4 11 -1 14 11 12 9 -2 18 -9 21 -15z
m5668 -95 c24 -47 26 -74 4 -52 -15 15 -52 117 -40 109 6 -4 22 -29 36 -57z
m52 -100 c24 -24 13 -38 -30 -38 -32 0 -39 -3 -28 -10 8 -5 29 -10 46 -10 30
0 31 -2 42 -64 18 -96 15 -120 -9 -60 -32 85 -42 89 -183 88 -108 -1 -135 -5
-246 -38 -146 -43 -389 -159 -443 -211 -22 -21 -39 -49 -43 -69 -9 -48 19
-134 61 -189 19 -25 35 -49 35 -52 0 -19 -85 46 -105 80 -23 39 -77 160 -89
201 -7 24 32 69 97 111 22 13 37 26 35 28 -18 18 -318 -99 -318 -124 0 -6 -5
-11 -11 -11 -15 0 -5 66 12 87 14 17 93 58 153 80 23 9 95 19 161 22 111 7
133 12 300 69 118 40 233 71 335 90 178 34 211 37 228 20z m1039 -112 c18 -47
15 -81 -7 -101 -28 -26 -38 -12 -50 71 -5 38 -12 80 -16 94 l-8 25 35 -29 c19
-16 39 -43 46 -60z m-149 -47 c4 -35 -28 -61 -69 -57 -46 4 -45 18 4 55 48 37
61 37 65 2z m-1208 -393 c0 -38 -3 -67 -6 -63 -9 9 -33 127 -34 162 l0 30 20
-30 c15 -23 20 -47 20 -99z m-462 -889 c3 -32 -2 -43 -31 -72 -22 -22 -45 -35
-61 -35 -37 0 -105 23 -110 37 -14 36 108 116 169 111 27 -3 30 -7 33 -41z"/>
<path d="M3845 8620 c11 -5 29 -9 40 -9 l20 0 -20 9 c-11 5 -29 9 -40 9 l-20
0 20 -9z"/>
<path d="M4060 8481 c-13 -26 -13 -31 5 -31 8 0 15 9 15 19 0 11 6 22 13 24 7
3 5 6 -5 6 -10 1 -22 -8 -28 -18z"/>
<path d="M3999 8342 c-48 -32 -101 -71 -120 -86 -32 -27 -65 -76 -51 -76 3 0
-5 -8 -18 -17 -18 -12 -42 -17 -84 -16 -94 2 -51 -19 51 -24 l89 -6 42 49 42
49 -6 -63 c-6 -55 -4 -67 15 -93 12 -16 23 -38 24 -49 1 -18 17 -18 17 0 0 5
5 21 12 37 6 15 12 30 12 33 4 17 32 70 37 70 10 0 27 48 39 113 11 55 6 138
-8 137 -4 -1 -46 -27 -93 -58z"/>
<path d="M4730 8362 c-7 -26 -23 -83 -36 -128 -26 -86 -29 -114 -15 -114 14 0
39 71 56 161 9 46 18 92 20 101 2 10 0 20 -5 23 -4 2 -13 -17 -20 -43z"/>
<path d="M5767 7945 c-11 -67 -15 -129 -11 -159 l7 -48 19 58 c27 85 34 181
16 224 l-14 35 -17 -110z"/>
<path d="M4705 7979 c-96 -80 -112 -102 -140 -190 -14 -45 -24 -83 -22 -86 2
-2 26 33 53 78 27 45 70 105 95 133 54 61 94 116 82 116 -4 0 -35 -23 -68 -51z"/>
<path d="M5580 7799 c0 -66 28 -362 43 -444 l12 -70 6 65 c4 36 7 125 8 199 1
144 -14 224 -49 271 l-20 25 0 -46z"/>
<path d="M4610 7713 c-29 -60 -80 -148 -113 -198 -42 -64 -67 -115 -85 -175
-24 -79 -26 -100 -26 -293 l-1 -208 -50 -32 c-45 -28 -48 -32 -26 -35 41 -6
87 7 130 39 44 31 48 39 147 264 26 61 61 130 77 155 l30 45 -57 -55 c-32 -30
-78 -89 -102 -130 -48 -82 -53 -76 -33 36 28 156 83 247 204 334 47 34 84 64
82 66 -6 7 -183 -92 -226 -126 -47 -36 -70 -76 -97 -165 -26 -86 -38 -92 -30
-15 10 100 32 162 76 217 21 28 50 72 64 99 35 71 106 249 106 268 0 36 -20
10 -70 -91z"/>
<path d="M5424 7480 c3 -25 9 -108 13 -186 6 -137 5 -143 -25 -245 -47 -161
-66 -289 -42 -289 11 0 31 65 64 215 52 231 55 320 20 465 -20 79 -39 106 -30
40z"/>
<path d="M4919 7263 c-140 -202 -139 -200 -166 -272 -13 -36 -49 -98 -79 -137
-55 -71 -138 -242 -168 -344 -25 -84 -39 -96 -33 -30 6 57 87 360 113 419 16
35 14 50 -3 29 -68 -86 -146 -218 -165 -278 -30 -96 -64 -129 -125 -121 -19 3
-16 -13 7 -42 36 -46 98 -178 92 -199 -4 -16 -70 -68 -85 -68 -3 0 -7 21 -11
46 -6 46 -59 157 -97 204 -11 14 -2 -12 20 -57 l41 -82 -6 -93 c-8 -107 -8
-108 -109 -183 -66 -48 -105 -85 -92 -85 25 0 152 84 209 138 21 20 66 52 100
72 57 32 68 44 110 120 27 47 55 110 64 140 20 71 122 263 191 362 65 93 224
403 263 513 16 44 28 81 26 82 -1 1 -45 -59 -97 -134z"/>
<path d="M4191 7022 c-13 -106 -14 -229 -2 -236 15 -9 21 32 28 175 7 161 -8
198 -26 61z"/>
<path d="M3882 6687 c62 -47 77 -54 48 -23 -23 25 -70 56 -85 56 -4 0 13 -15
37 -33z"/>
<path d="M3865 6540 c11 -5 47 -8 80 -8 l60 1 -50 7 c-27 5 -63 8 -80 8 -26 1
-27 -1 -10 -8z"/>
<path d="M3780 5362 c0 -28 32 -57 103 -93 77 -40 95 -32 26 11 -30 18 -71 49
-91 69 -35 32 -38 33 -38 13z"/>
<path d="M3630 5001 c0 -30 112 -135 166 -157 81 -31 79 -12 -4 49 -43 32 -88
66 -99 76 -27 25 -63 44 -63 32z"/>
<path d="M3441 7642 c-51 -148 -55 -170 -41 -222 l13 -45 19 70 c36 131 49
200 46 247 l-3 46 -34 -96z"/>
<path d="M3215 5967 c-55 -60 -64 -77 -17 -32 28 27 52 51 52 52 0 9 -18 -1
-35 -20z"/>
<path d="M3264 5934 c-69 -53 -148 -136 -187 -197 -50 -78 -55 -80 -180 -88
-64 -4 -128 -14 -149 -23 -37 -16 -55 -33 -45 -43 16 -15 95 -22 191 -16 99 5
112 9 155 37 25 17 59 52 76 77 16 25 64 86 106 135 86 101 101 125 90 143 -6
9 -21 2 -57 -25z"/>
<path d="M5931 5560 c-33 -42 -29 -57 5 -17 36 40 47 57 37 57 -5 0 -24 -18
-42 -40z"/>
<path d="M5801 5399 c-12 -28 -21 -55 -19 -61 4 -11 58 83 58 101 0 26 -19 7
-39 -40z"/>
<path d="M6610 5808 c22 -45 40 -88 40 -96 0 -7 5 -10 10 -7 18 11 11 86 -11
121 -20 32 -55 64 -71 64 -4 0 11 -37 32 -82z"/>
<path d="M6251 5629 c-16 -33 -33 -80 -37 -105 -7 -47 3 -154 14 -154 10 0 54
184 62 258 3 34 3 62 -1 62 -4 0 -21 -27 -38 -61z"/>
<path d="M6998 4702 c-116 -51 -143 -68 -88 -57 45 9 128 46 176 79 53 36 36
32 -88 -22z"/>
<path d="M7470 4237 c-30 -13 -79 -40 -109 -60 l-53 -37 -152 0 c-155 -1 -338
-21 -301 -33 57 -19 145 -27 283 -28 l154 0 142 69 c77 39 149 73 159 76 9 3
17 12 17 21 0 23 -75 19 -140 -8z"/>
<path d="M2220 5421 c0 -14 70 -81 102 -97 18 -9 59 -39 92 -67 59 -49 162
-105 173 -94 2 3 -15 19 -39 37 -23 17 -83 60 -133 95 -120 87 -195 135 -195
126z"/>
<path d="M2175 5285 c-16 -101 18 -199 115 -331 54 -74 101 -111 200 -156 97
-44 184 -60 267 -48 142 20 190 59 56 45 -112 -11 -156 -7 -242 21 -135 45
-195 88 -263 187 -51 75 -65 110 -89 221 -11 50 -24 95 -29 100 -5 5 -11 -12
-15 -39z"/>
<path d="M2300 5231 c0 -12 5 -21 10 -21 6 0 10 6 10 14 0 8 -4 18 -10 21 -5
3 -10 -3 -10 -14z"/>
<path d="M2374 5069 c102 -54 265 -86 294 -57 19 19 14 28 -15 28 -16 0 -84
12 -153 25 -154 31 -179 31 -126 4z"/>
<path d="M4781 4624 c0 -11 3 -14 6 -6 3 7 2 16 -1 19 -3 4 -6 -2 -5 -13z"/>
<path d="M2305 4460 c-109 -49 -195 -100 -195 -116 0 -16 23 -9 171 50 109 44
159 74 159 96 0 20 -47 9 -135 -30z"/>
<path d="M2145 4279 c11 -4 47 -8 80 -8 75 1 61 6 -30 12 -41 3 -62 1 -50 -4z"/>
<path d="M5730 4650 c-10 -6 1 -8 35 -4 48 6 67 1 180 -40 17 -7 17 -5 -3 13
-13 11 -40 25 -60 31 -46 13 -132 13 -152 0z"/>
<path d="M5489 4411 c-54 -30 -149 -108 -149 -122 0 -10 170 102 190 126 20
25 9 23 -41 -4z"/>
<path d="M5127 4151 c-29 -19 -62 -59 -55 -66 2 -3 24 16 48 40 48 49 50 55 7
26z"/>
<path d="M5511 3972 c-26 -50 -61 -185 -61 -233 0 -20 9 -90 21 -155 11 -66
29 -171 39 -234 10 -63 28 -142 40 -175 12 -33 24 -68 27 -77 9 -29 25 -20 19
10 -2 15 -12 81 -21 147 -9 66 -26 168 -36 226 -21 119 -25 306 -9 438 6 46 9
86 6 88 -2 3 -14 -13 -25 -35z"/>
<path d="M6095 3865 c6 -30 101 -337 113 -365 4 -9 8 -1 10 20 3 39 -49 255
-73 298 -8 15 -24 38 -35 52 l-22 25 7 -30z"/>
<path d="M6335 3281 c5 -60 82 -318 121 -407 45 -103 107 -185 179 -238 36
-26 68 -46 71 -43 3 2 -22 36 -56 73 -71 80 -133 200 -210 409 -29 77 -65 167
-81 200 l-29 60 5 -54z"/>
<path d="M1972 3865 c4 -4 230 -55 245 -55 2 0 1 4 -2 10 -11 17 -136 50 -193
50 -30 0 -53 -2 -50 -5z"/>
<path d="M1886 3562 c38 -37 70 -66 72 -66 2 1 -6 20 -17 42 -23 45 -77 92
-106 92 -13 0 3 -21 51 -68z"/>
<path d="M8380 2576 c0 -12 26 -73 93 -216 l17 -35 -6 80 c-7 106 -18 136 -57
163 -39 26 -47 27 -47 8z"/>
<path d="M8452 2110 c0 -19 2 -27 5 -17 2 9 2 25 0 35 -3 9 -5 1 -5 -18z"/>
<path d="M1715 2978 c-103 -74 -140 -135 -132 -219 8 -71 22 -109 42 -109 12
0 15 17 15 102 l0 101 76 74 c63 61 71 73 52 73 -13 0 -36 -10 -53 -22z"/>
<path d="M6476 1690 c14 -78 54 -175 85 -204 31 -31 31 -31 24 -6 -13 49 -115
246 -109 210z"/>
<path d="M6676 1483 c4 -10 14 -36 24 -58 9 -22 34 -84 55 -137 22 -53 42 -95
47 -92 4 3 8 29 8 57 0 61 -39 153 -90 210 -34 40 -53 48 -44 20z"/>
<path d="M6881 1145 c-1 -42 77 -327 92 -337 19 -12 43 -9 57 7 10 12 -1 42
-63 167 -41 84 -77 160 -80 168 -4 10 -6 9 -6 -5z"/>
<path d="M6483 1107 c-31 -46 -43 -82 -43 -131 0 -51 10 -106 19 -106 5 0 61
241 61 263 0 16 -16 5 -37 -26z"/>
<path d="M6620 1113 c2 -48 39 -155 51 -147 18 11 9 84 -13 119 -21 32 -38 45
-38 28z"/>
<path d="M27 103 c-25 -4 -27 -8 -27 -54 0 -48 1 -49 30 -49 30 0 30 1 30 55
0 30 -1 54 -2 54 -2 -1 -15 -4 -31 -6z"/>
</g>
</svg>
