<svg xmlns="http://www.w3.org/2000/svg" version="1.1" xmlns:xlink="http://www.w3.org/1999/xlink" xmlns:svgjs="http://svgjs.com/svgjs" width="512" height="512" x="0" y="0" viewBox="0 0 512 512" style="enable-background:new 0 0 512 512" xml:space="preserve" class=""><g><g data-name="Mobile app launch"><path fill="#e67925" d="m416.22 79.86-23.6 3.55a24.73 24.73 0 0 0-20.05 17.42l-18 60.66L318 164l-2.18 25.08 46.92-4.46a14.69 14.69 0 0 0 12.33-9.39q13-34.11 26-68.23 7.57-13.57 15.15-27.14z" data-original="#e67925" class=""></path><path fill="#1d1160" d="M458.63 74.24c-6.05-7.75-19.46-9.75-17-22.51s-6.37-19-6.37-19L401.48 54.9s-6.06 23.59 0 35.59S435.17 112 452.92 106s11.75-24 5.71-31.76z" data-original="#68003c" class="" opacity="1"></path><path fill="#e67925" d="m351.34 80.6-19.17 9.17L341 103.1l17-11.17a6.91 6.91 0 0 0 2-7.5 7 7 0 0 0-8.66-3.83z" data-original="#e67925" class=""></path><rect width="211.55" height="400.29" x="143.57" y="91.68" fill="#1d1160" rx="15.25" data-original="#2351fb" class="" opacity="1"></rect><rect width="188.39" height="377.13" x="155.14" y="103.26" fill="#ffffff" rx="12.5" data-original="#ffffff" class=""></rect><rect width="68.41" height="15" x="215.13" y="95.98" fill="#1d1160" rx="4.38" data-original="#2351fb" class="" opacity="1"></rect><rect width="28.94" height="6.31" x="298.63" y="109.13" fill="#1d1160" rx="3" data-original="#2351fb" class="" opacity="1"></rect><circle cx="174.48" cy="112.29" r="4.34" fill="#1d1160" data-original="#2351fb" class="" opacity="1"></circle><circle cx="189.22" cy="112.29" r="4.34" fill="#1d1160" data-original="#2351fb" class="" opacity="1"></circle><rect width="84.46" height="89.11" x="170.14" y="203.89" fill="#1d1160" rx="7.12" data-original="#2351fb" class="" opacity="1"></rect><rect width="84.46" height="89.11" x="249.34" y="345.62" fill="#1d1160" rx="7.13" data-original="#2351fb" class="" opacity="1"></rect><path fill="#e67925" d="m423.578 85.902-14.89-.865 1.644-28.284 14.89.866z" data-original="#e67925" class=""></path><path fill="#e67925" d="M418.94 29.89a17.11 17.11 0 0 0-19.13 19.19l1.12 13.29c.4 4.85 3.92 9 8.25 9.92a14.41 14.41 0 0 0 2.81.24c6.56-.16 11.06-6.38 13.58-9.86.43-.59.9-1.29 1.4-2.09a17.1 17.1 0 0 0-8-30.69z" data-original="#e67925" class=""></path><path fill="#262246" d="m411.34 62-2.1-.23a1.23 1.23 0 0 1-1-1.63l1.94-5.45a.5.5 0 1 1 .94.34l-1.94 5.45a.22.22 0 0 0 .18.29l2 .24a.5.5 0 0 1-.02.99zM405.75 52a1.46 1.46 0 1 0 1.25 1.63 1.46 1.46 0 0 0-1.25-1.63zM416.7 53.41A1.45 1.45 0 1 0 418 55a1.44 1.44 0 0 0-1.3-1.59zM420.76 50.12c-1.45-1.78-4-1.48-4.45-1.43s-1.6.19-1.72.76a.81.81 0 0 0 .25.65c.7.68 1.87-.3 3.45-.08 1.84.26 2.83 1.93 3.11 1.69s-.14-.98-.64-1.59zM407.21 47.47c-.4-.16-2.8-1.13-4.67.21-.64.45-1.18 1.15-1 1.36s1.61-1 3.44-.81c1.59.21 2.46 1.46 3.31 1a.78.78 0 0 0 .42-.56c-.01-.59-1.16-1.06-1.5-1.2z" data-original="#262246" class=""></path><path fill="#1d1160" d="M409.46 73a.5.5 0 0 1 .16-1 10.18 10.18 0 0 0 9.06-3.11.48.48 0 0 1 .7 0 .5.5 0 0 1 0 .71 11.16 11.16 0 0 1-9.92 3.4z" data-original="#68003c" class="" opacity="1"></path><path fill="#00788c" d="m380.17 191.49 3.32-102.12 34.17-11.66 22.09 8.22a14.13 14.13 0 0 1 9 15.56l-15.27 91.88z" data-original="#fdc500" class="" opacity="1"></path><path fill="#e67925" d="M388.67 176q-7 19.62-14.05 39.25a46.89 46.89 0 0 0-2.72 17q1.13 44.63 2.27 89.24 6.91 70.51 13.84 141l23.66-.82-6-148.24c11.4-109.86 8.67-81.68 12.67-129z" data-original="#e67925" class=""></path><path fill="#e67925" d="m433.87 174.39 11.37 32.67a44.12 44.12 0 0 1 1.8 22.09l-15.37 88.06a569.68 569.68 0 0 1 46 141.89l-21.9 3.48L399 323.56l8.66-134.8z" data-original="#e67925" class=""></path><path fill="#1d1160" d="m386.31 179.74-14.64 35.57a50.3 50.3 0 0 0-3.5 13.87l-5.5 52.82a157.37 157.37 0 0 0 37 4.5 148 148 0 0 0 48.5-5.5l1.68-57.93a49.64 49.64 0 0 0-4.09-21.23q-4.78-11-9.59-22.09z" data-original="#68003c" class="" opacity="1"></path><path fill="#00788c" d="m414.57 80.11-23.64 2.61A24.84 24.84 0 0 0 370 99.83l-13.34 41.66 24.39 18 14.05-36.87z" data-original="#fdc500" class="" opacity="1"></path><path fill="#1d1160" d="M368.65 225.77q8.46-69.53 20.94-142.86l7.59-.88q-2.25 20.73-4.51 41.46l14 21.67 17-.33 10.67 33.66q5 10.66 10 21.34-7.09 14.16-14.2 28.33z" data-original="#68003c" class="" opacity="1"></path><path fill="#e67925" d="M422.28 78.28 440.22 83a21.86 21.86 0 0 1 16.21 23.5l-9 83a19.41 19.41 0 0 1-24.12 16.72l-7-2.51 10.5-106.23q-2.24-9.61-4.53-19.2zM348.67 162l82.51 14.7c9.48 2.55 14.81 11.53 13 19.11a15.47 15.47 0 0 1-19.8 10.63c-8.56-2.88-36.6-10.54-75.23-20.94q-.22-11.75-.48-23.5z" data-original="#e67925" class=""></path><path fill="#00788c" d="m419.83 77.49 25.25 5.92a16.52 16.52 0 0 1 12.75 15.84q.39 27.44.8 54.88a135.92 135.92 0 0 1-37.62-1.3l1.21-52.65z" data-original="#fdc500" class="" opacity="1"></path><path fill="#1d1160" d="M392.67 123.49a143.05 143.05 0 0 1 28.52 21.38l-14.52.29z" data-original="#2351fb" class="" opacity="1"></path><path fill="#e67925" d="M406.49 81a11.47 11.47 0 0 0 9.73 6.66c7.12.33 11.91-8.22 11.91-8.22l-9.87-2.7-9 3.79z" data-original="#e67925" class=""></path><path fill="#ffffff" d="M395.11 285.33a.51.51 0 0 1-.5-.47l-2.16-29.94-7.31-23.92a.5.5 0 0 1 .34-.62.49.49 0 0 1 .62.33l7.33 24c0 .1-.08-1.29 2.18 30.11a.5.5 0 0 1-.5.51z" data-original="#ffffff" class=""></path><path fill="#1d1160" d="M406.86 343.29a.51.51 0 0 1-.47-.32l-5.65-13.85a35.36 35.36 0 0 1-2.57-11.32l-1.75-30a.52.52 0 0 1 .47-.53.51.51 0 0 1 .53.47l1.75 30a34.37 34.37 0 0 0 2.49 11l5.66 13.86a.51.51 0 0 1-.46.69z" data-original="#68003c" class="" opacity="1"></path><circle cx="387.65" cy="123.49" r="3.52" fill="#ffffff" data-original="#ffffff" class=""></circle><path fill="#ffffff" d="M424 219.39a35.07 35.07 0 0 1-6.06-6.36.51.51 0 0 1 .12-.7.5.5 0 0 1 .7.13c.09.12 8.93 12.58 20.43 11.33a.51.51 0 0 1 .55.45.5.5 0 0 1-.45.55c-5.63.61-10.96-1.85-15.29-5.4z" data-original="#ffffff" class=""></path><path fill="#1d1160" d="M424.86 47s-9.74-1-8.34-11.9c0 0-7-.92-8.35 4.75s-8.25 4.08-8.25 4.08v5.92s-7.5-10.31 2.13-20.08 23-1.26 23-1.26 13.05.43 14.16 12.88-14.81 27.85-14.81 27.85c.84-14.55.71-9.42.46-22.24z" data-original="#68003c" class="" opacity="1"></path><path fill="#e67925" d="M428.65 53.75c-1.74-1.21-4.29-.55-5.71 1.49s-1.16 4.66.57 5.87 4.3.55 5.72-1.49 1.16-4.62-.58-5.87z" data-original="#e67925" class=""></path><path fill="#262246" d="M424.76 59.23a1.26 1.26 0 0 0 .3-2.37.5.5 0 0 1 .29-.94l2.85.36a.5.5 0 0 1 .43.56.52.52 0 0 1-.56.44l-1.49-.19a2.23 2.23 0 0 1-1.58 3.12.5.5 0 0 1-.24-.98z" data-original="#262246" class=""></path><path fill="#e67925" d="M232.64 149.28c-14.08 2.57-19.55 9.41-21.25 11.86-9.24 13.34-4.5 37.75 15.26 58.4a1.82 1.82 0 0 0 3-1.87 86.31 86.31 0 0 1-5.62-28.53c-.13-7.74 1-11.87 4.08-14.16 4.08-3 9.83-1.58 11.75-1zM274 149.28c14.08 2.57 19.54 9.41 21.25 11.86 9.23 13.34 4.5 37.75-15.27 58.4a1.82 1.82 0 0 1-3-1.87 86.58 86.58 0 0 0 5.62-28.53c.13-7.74-1-11.87-4.08-14.16-4.08-3-9.83-1.58-11.75-1z" data-original="#e67925" class=""></path><path fill="#00788c" d="M283.27 120.64c.76 33.49-14.94 72.58-29.94 72.58s-30.7-39.09-29.93-72.58c.83-36.43 21.07-62.46 29.93-72.57 8.87 10.11 29.11 36.14 29.94 72.57z" data-original="#fdc500" class="" opacity="1"></path><path fill="#1d1160" d="M281 195a148.6 148.6 0 0 1-55.26 0q4.38-10.28 8.75-20.56h37.76z" data-original="#68003c" class="" opacity="1"></path><circle cx="252.18" cy="114.84" r="20.38" fill="#1d1160" data-original="#68003c" class="" opacity="1"></circle><circle cx="252.18" cy="114.84" r="15.38" fill="#e67925" data-original="#e67925" class=""></circle><path fill="#e67925" d="M255.31 222.72a2.12 2.12 0 0 1-1.63 1.75 2.14 2.14 0 0 1-2.37-1.75q-1.76-33.25-3.5-66.5a5.51 5.51 0 1 1 11 0q-1.76 33.24-3.5 66.5z" data-original="#e67925" class=""></path><path fill="#1d1160" d="M245.9 245.68c-.16-.23-3.94-5.67-.06-16.3 3.08-8.46-3.23-13.14-5.45-14.48v6.65a.5.5 0 0 1-.74.44c-.15-.09-3.77-2.16-6.64-8.74s2.36-12.93 2.58-13.19a.5.5 0 0 1 .76.65c0 .06-5.09 6-2.42 12.14a20.08 20.08 0 0 0 5.46 7.73v-6.53a.5.5 0 0 1 .72-.45c.11.05 10.61 5.32 6.67 16.12-2.72 7.43-1.49 12.22-.64 14.25.85-3.15 3.4-10.94 8-12.07 4.19-1 7.82-12.36 8.87-16.63a.5.5 0 0 1 1 0l1.53 8.35c2.45-1.81 10.9-9.08 6.68-20.75a.5.5 0 1 1 .94-.34c5.08 14-7.57 22.28-7.7 22.37a.5.5 0 0 1-.76-.34l-1.27-6.94c-1.29 4.41-4.59 14.14-9 15.23-5.05 1.24-7.54 12.51-7.57 12.62a.5.5 0 0 1-.96.21zM265.76 251.83c-.47-.22-11.49-5.6-10.11-14a.5.5 0 1 1 1 .16c-1 6.21 5.89 10.84 8.55 12.37a12.14 12.14 0 0 1 5-13.08c7.19-5 3.36-12.27 3.19-12.58a.5.5 0 0 1 .88-.48c0 .09 4.44 8.35-3.5 13.88a11.22 11.22 0 0 0-4.32 13.08.49.49 0 0 1-.69.65z" data-original="#68003c" class="" opacity="1"></path><path fill="#1d1160" d="M238.16 246.52c-.19-.27-4.74-6.49-1.63-12.37 2.83-5.35.85-9.39.83-9.43a.5.5 0 0 1 .22-.67.49.49 0 0 1 .67.22c.09.18 2.25 4.52-.84 10.35-2.07 3.91-.27 8.16.84 10.15.32-2.17 1.06-6.1 2.4-7.22a.52.52 0 0 1 .71.07.5.5 0 0 1-.07.7c-1.1.92-1.95 5.36-2.23 8a.5.5 0 0 1-.9.2zM212 356.72c34.34-3.9 31.39-99 31.36-100a.49.49 0 0 1 .48-.51.51.51 0 0 1 .52.48 316.06 316.06 0 0 1-2.71 48.84c-4.75 32.93-14.69 50.49-29.54 52.17a.5.5 0 0 1-.11-.98zM260.82 293.5c-2.39-20.56-2.51-39.59-2.51-39.78a.5.5 0 0 1 1 0c.13 23.71 4.27 97.47 27.38 92a.5.5 0 0 1 .23 1c-18.05 4.28-23.92-34.78-26.1-53.22zM256 366.9a.5.5 0 0 1-.5-.48l-2.8-56.18a.5.5 0 0 1 .48-.52.49.49 0 0 1 .52.47l2.8 56.18a.52.52 0 0 1-.5.53z" data-original="#68003c" class="" opacity="1"></path><path fill="#ffffff" d="m409 64.18 6.25-1.25c-.48 3.6-4.77 4.96-6.25 1.25z" data-original="#ffffff" class=""></path><path fill="#e67925" d="M372.17 168.24 363 156.05q-1.61-7.05-3.19-14.12a4.23 4.23 0 0 0-4.94-2.75 4 4 0 0 0-2.69 3.19v13.75l-10.27-3.3a6.14 6.14 0 0 0-5.5.89l-9.6 7c-1.85 1.45-2.06 3.91-.94 5.19a3.46 3.46 0 0 0 3.56.81l9.25-4.87-9.18 7.81c-2.5 1.94-2.63 5.75.63 6.95a2 2 0 0 0 1.63-.14l8.55-4.62-8.25 7.68a3.66 3.66 0 0 0-1.63 4 3.72 3.72 0 0 0 4.63 2.32q4-2.76 8-5.5l-6.19 7.43a3.67 3.67 0 0 0 4.06 6.07l6.37-6.84 15.62 5.38a7.86 7.86 0 0 0 8.5-7.63z" data-original="#e67925" class=""></path><path fill="#1d1160" d="M376.41 167.43c-.1 0 .4.11-7.87-1.83-.31-.07.21.66-6.3-10.25-.06-.11.11.64-2.43-11.08a.5.5 0 0 1 1-.21l2.35 10.85 5.83 9.77 7.55 1.77a.5.5 0 0 1-.13.98zM348.67 162.49c-.11 0 .07 0-5-1.54a4.11 4.11 0 0 0-3.54.5l-1.45 1a.5.5 0 0 1-.55-.83l1.45-1A5.16 5.16 0 0 1 344 160l4.82 1.53a.5.5 0 0 1-.15.96zM340.3 172.37a.5.5 0 0 1-.33-.88c3.35-2.91 2.51-2.56 9.39-2.56a.5.5 0 0 1 0 1c-6.63 0-5.57-.43-8.74 2.32a.49.49 0 0 1-.32.12zM343.05 180.87a.5.5 0 0 1-.32-.89l2.54-2.1a3.76 3.76 0 0 1 2.86-.83l4.36.57a.51.51 0 0 1 .43.56.5.5 0 0 1-.56.43L348 178a2.77 2.77 0 0 0-2.09.61c-2.75 2.31-2.61 2.26-2.86 2.26zM421.19 145.37a.5.5 0 0 1-.5-.56l5.82-43.38a.5.5 0 0 1 .56-.43.49.49 0 0 1 .43.56l-5.82 43.38a.49.49 0 0 1-.49.43zM436.46 178c-.11 0 1.08.2-18.21-3.14a.5.5 0 0 1 .17-1l18.12 3.14a.5.5 0 0 1-.08 1z" data-original="#68003c" class="" opacity="1"></path><path fill="#e67925" d="M340.17 91.12c-1.24-7.92-9.66-12-15-5.27-1.31-3.06-4.59-4.4-7-3.42a5.41 5.41 0 0 0-3.17 4.69 5.11 5.11 0 0 0-10 .76 4.87 4.87 0 0 0-9.45 2.12l3.11 18.5a4.26 4.26 0 1 0 8.35-.13l-1.32-9.72 2.44 10.69c.53 3.16 3.5 4.87 5.68 4.19a4.61 4.61 0 0 0 2.84-4.46q-.43-5.74-.85-11.49l4 10.92a4.41 4.41 0 0 0 8.78 0q-1.05-5.46-2.12-10.92 2.08 5.61 4.15 11.22a4.69 4.69 0 0 0 5.55 3.24 4.51 4.51 0 0 0 3-3.79l-2.43-15.41z" data-original="#e67925" class=""></path><path fill="#1d1160" d="M305.8 100a.5.5 0 0 1-.5-.46l-1-12.21a.5.5 0 0 1 .46-.54.51.51 0 0 1 .54.45l1 12.21a.51.51 0 0 1-.5.55zM315.8 98.12a.5.5 0 0 1-.5-.46l-.94-11a.5.5 0 1 1 1-.08l.94 11a.49.49 0 0 1-.5.54zM326.62 99.13a.51.51 0 0 1-.5-.45l-1.45-12.77a.5.5 0 1 1 1-.12l1.46 12.78a.5.5 0 0 1-.51.56zM340.17 91.62a.51.51 0 0 1-.47-.32l-1.7-4.47a.5.5 0 0 1 .29-.65.49.49 0 0 1 .64.29l1.71 4.53a.5.5 0 0 1-.47.62z" data-original="#68003c" class="" opacity="1"></path><path fill="#e67925" d="M71.29 55.23h14.82v28.16H71.29z" data-original="#e67925" class=""></path><path fill="#e67925" d="M97.1 43.8A17 17 0 1 0 69.24 58c.44.82.87 1.54 1.26 2.15 3.38 5.28 7.5 10.65 13.88 10.59 5.5.19 9.85-4.33 10.59-9.47C97.23 45.38 97.25 46 97.1 43.8z" data-original="#e67925" class=""></path><path fill="#262246" d="M84.69 60.27a.5.5 0 0 1 0-1c2.18-.13 2.12-.09 2.21-.21s.18.34-1.58-5.71a.5.5 0 0 1 1-.28l1.61 5.52a1.22 1.22 0 0 1-1.1 1.56zM90.77 50.71a1.45 1.45 0 1 0 1.55 1.34 1.46 1.46 0 0 0-1.55-1.34zM79.83 51.47a1.45 1.45 0 1 0 1.54 1.34 1.45 1.45 0 0 0-1.54-1.34zM80.49 46.82c-.42-.07-2.95-.52-4.5 1.16-.52.57-.9 1.37-.72 1.54s1.34-1.34 3.18-1.49c1.58-.13 2.69.9 3.42.27a.84.84 0 0 0 .29-.63c-.09-.57-1.31-.79-1.67-.85zM94.21 46.6c-1.78-1.43-4.21-.61-4.62-.47s-1.51.52-1.52 1.09a.81.81 0 0 0 .39.58c.81.52 1.75-.67 3.33-.78 1.84-.13 3.14 1.29 3.37 1s-.34-.93-.95-1.42z" data-original="#262246" class=""></path><path fill="#1d1160" d="M76.22 67.36a.49.49 0 0 1 .07-.7.49.49 0 0 1 .7.06 10.07 10.07 0 0 0 8.8 3.61.5.5 0 1 1 .1 1 11.06 11.06 0 0 1-9.67-3.97zM112.5 173l17.31 31a43.14 43.14 0 0 1 5.47 21v234.54H112.5a379.32 379.32 0 0 1-4.91-129.29L87.9 221.71l-1.42-37.91z" data-original="#68003c" class="" opacity="1"></path><path fill="#1d1160" d="M65.12 184.14 52.19 221A40.32 40.32 0 0 0 50 237.44q3.54 46.05 7.1 92.11a521.77 521.77 0 0 0-18 127.51l21.51 2.48 28.76-130.88 15.42-128-7.71-24.75z" data-original="#68003c" class="" opacity="1"></path><path fill="#00788c" d="M113.45 453.5 100 492h90.33a12.5 12.5 0 0 0-7.17-15.88A131.21 131.21 0 0 1 133 456z" data-original="#fdc500" class="" opacity="1"></path><path fill="#1d1160" d="M410.22 454.07 423.47 492h-89a12.32 12.32 0 0 1 7.07-15.65A129.18 129.18 0 0 0 391 456.54z" data-original="#68003c" class="" opacity="1"></path><path fill="#00788c" d="m39.32 450.47-18.7 41.5h62.94l-21.32-43.53z" data-original="#fdc500" class="" opacity="1"></path><path fill="#e67925" d="M75.19 78.44 45.53 85.3a21.33 21.33 0 0 0-16.27 17.55L14.2 201.23 44 194l13.5-87.41zM78.49 78.44l29.44 2A12.4 12.4 0 0 1 118.09 87l43.28 83.11L133 181.77 92.32 97.64z" data-original="#e67925" class=""></path><path fill="#00788c" d="m75.19 78.44-31.61 5a21 21 0 0 0-17.38 16.62l-12.15 60.57 34.83 6.51 7.35-45.42zM75.19 78.44h28.86a21.25 21.25 0 0 1 18.57 10.92l25.22 45.3L120.48 156c-27.54-48.84-17.18-31-45.29-77.56z" data-original="#fdc500" class="" opacity="1"></path><path fill="#e67925" d="m164.4 65.68-32.1 104.8c-2.27 8.76 2.28 17.65 9.89 20.69 8.67 3.45 19.47-1.42 22.71-11.3q8.64-52.77 17.26-105.56z" data-original="#e67925" class=""></path><path fill="#ffffff" d="M75.19 78.44 37.3 90.3q6 51.78 16.82 105.18a132.8 132.8 0 0 0 70.37-1.19L111.4 84.19z" data-original="#ffffff" class=""></path><path fill="#e67925" d="M71.29 79.05s1.37 4.86 7.91 5 6.91-5.66 6.91-5.66l-7-3.6z" data-original="#e67925" class=""></path><path fill="#00788c" d="m71.29 79.05 3 96.88-4 82.31L36 255q4.3-46.32 8.62-92.66l-8.94-72.76zM86.11 78.44c17.2 121.07 11.71 83 25.4 176.25l31.76-4.57-14.21-68.35-14.37-97.66z" data-original="#fdc500" class="" opacity="1"></path><path fill="#1d1160" d="m52 263.18-.33 65.6Q40.38 391 29.08 453.12a130.69 130.69 0 0 0 40.6.38l21.66-121 3.19-46.64zM94.72 260.78q3.21 33.24 6.43 66.48-4.5 66-2.78 132.28l38.34-1.14-1.43-127.92z" data-original="#68003c" class="" opacity="1"></path><path fill="#ffffff" d="M96.53 269.77a.5.5 0 0 1-.5-.56l5.59-46.35a.5.5 0 0 1 .55-.44.5.5 0 0 1 .44.56L97 269.33a.51.51 0 0 1-.47.44z" data-original="#ffffff" class=""></path><path fill="#00788c" d="M71.29 70.75A6 6 0 0 0 68 72.53c-1.31 1.48-2.17 5.28-2.39 7.41L72 102zM86.08 72l-.38 8.16 5.15 23.74 2-25.41c-2.24-2.89-2.22-4.27-2.88-5.1-.91-1.23-2.6-1.39-3.89-1.39z" data-original="#fdc500" class="" opacity="1"></path><path fill="#1d1160" d="m71.29 55.23 2.26-10.4s5.88-5.14 5.65-11c1.08-.32 6.49-1.78 11 1.2 3.56 2.34 5 6.37 5.89 8.71a22.6 22.6 0 0 1 .9 3.14c2.15-5.25 1.87-12.37-1.55-16.63s-10-5.8-16.41-4c-.92 0-13.31 0-18.78 8.71-5.61 8.91-2 23.94 11 32z" data-original="#68003c" class="" opacity="1"></path><path fill="#e67925" d="M73.54 52.93c-1.29-2.1-3.79-2.9-5.58-1.8s-2.2 3.7-.91 5.79 3.79 2.91 5.59 1.81 2.19-3.73.9-5.8z" data-original="#e67925" class=""></path><path fill="#262246" d="M71.25 57.75a2.23 2.23 0 0 1-1.44-3.19l-1.47.1a.5.5 0 1 1-.07-1l2.85-.2a.5.5 0 0 1 .23 1 1.24 1.24 0 0 0 .16 2.36.5.5 0 0 1-.26.93z" data-original="#262246" class=""></path><path fill="#00788c" d="m58.43 49.78 18.42-7.93c6.25-4.76 14.27-6.4 21.51-2.52 6.88-4.68 10.58-9.79 9.32-12.9a4.2 4.2 0 0 0-1.68-1.84c-5.15-3.52-14 2-14.52 2.35-7.83-8.54-21.68-9-28.93-2.41-5.33 4.85-8.44 15.3-4.12 25.25z" data-original="#fdc500" class="" opacity="1"></path><path fill="#1d1160" d="M76.6 41.15a.51.51 0 0 1-.38-.83c.07-.07 6.68-7.92 14.39-12.76a.49.49 0 0 1 .69.16.5.5 0 0 1-.16.69C83.56 33.16 77.05 40.89 77 41a.53.53 0 0 1-.4.15zM124.49 153.33a.5.5 0 0 1-.49-.43l-6.9-49a.5.5 0 0 1 1-.14l6.9 49a.5.5 0 0 1-.51.57zM44 166.72a.49.49 0 0 1-.49-.47l-3.37-62.37a.5.5 0 0 1 .47-.53.52.52 0 0 1 .53.48l3.36 62.37a.49.49 0 0 1-.5.52zM64 102.93a.5.5 0 0 1-.5-.53l1.62-22.5a.5.5 0 0 1 1 .07l-1.56 21.62 6.48-3.24a.5.5 0 0 1 .67.22.49.49 0 0 1-.22.67c-7.77 3.9-7.3 3.69-7.49 3.69zM98.4 100.48c-.12 0 .4.14-8.05-2.39a.5.5 0 0 1-.34-.62.51.51 0 0 1 .62-.34l7.06 2.12-5.31-20.69a.49.49 0 0 1 .35-.6.5.5 0 0 1 .61.35l5.54 21.55a.5.5 0 0 1-.48.62z" data-original="#68003c" class="" opacity="1"></path><path fill="#ffffff" d="m82.24 61.07 6.64 1.14A3.78 3.78 0 0 1 84 64.37a3.57 3.57 0 0 1-1.76-3.3z" data-original="#ffffff" class=""></path><circle cx="108.44" cy="145.39" r="6.5" fill="#1d1160" data-original="#68003c" class="" opacity="1"></circle><path fill="#1d1160" d="m123.394 140.14 16.787-11.319.637.945-16.787 11.32z" data-original="#68003c" class="" opacity="1"></path><circle cx="141.16" cy="128.18" r="2.76" fill="#1d1160" data-original="#68003c" class="" opacity="1"></circle><path fill="#1d1160" d="m95.911 153.235 29.107-19.627 5.674 8.414-29.107 19.627z" data-original="#2351fb" class="" opacity="1"></path><path fill="#e67925" d="M91.82 155.17 17.24 194a16.58 16.58 0 0 0-.34 19.07c4.62 6.48 14 8.61 21.66 4.4l65.11-45z" data-original="#e67925" class=""></path><path fill="#e67925" d="m81.16 160.73 7.66-14.24a7.19 7.19 0 0 1 2.34-2.59l8.4-5.64a3.91 3.91 0 0 1 4.57 1.27c.86 1.47-.37 3.54-.52 3.78l-6.84 7.89c4.16 3.41 9.54 3.44 14.08 1l15.86-9.2a2.68 2.68 0 1 1 2.8 4.57q-4.23 3.55-8.47 7.1a5 5 0 0 1-2.57 6.73 4.07 4.07 0 0 1-1.65 5.84 2.79 2.79 0 0 1-.94 5.34l-9.16 4a7.56 7.56 0 0 1-5.3 1l-9.52-1.65z" data-original="#e67925" class=""></path><path fill="#1d1160" d="M114.94 159.06a.5.5 0 0 1-.27-.92l6.1-3.94a.51.51 0 0 1 .69.15.49.49 0 0 1-.15.69c-6.68 4.31-6.16 4.02-6.37 4.02zM115.34 163.54a.5.5 0 0 1-.24-.94l3.13-1.69a.5.5 0 1 1 .48.88c-3.4 1.83-3.19 1.75-3.37 1.75zM113.73 169.15a.5.5 0 0 1-.21-1l3.08-1.46a.5.5 0 1 1 .43.91c-3.4 1.65-3.14 1.55-3.3 1.55zM21.81 192.12a.5.5 0 0 1-.22-1l20.46-9.85a.5.5 0 0 1 .44.9c-21.88 10.59-20.49 9.95-20.68 9.95z" data-original="#68003c" class="" opacity="1"></path><path fill="#e67925" d="m162.62 75.2-1.08-15.86a11.87 11.87 0 0 1 .89-5.37l6.28-15.06a4.38 4.38 0 0 1 6.09-1.14 4.24 4.24 0 0 1 1.14 4.82l-3.45 11 14.95-3.81a4.76 4.76 0 0 1 3.86 2.79 5.06 5.06 0 0 1-.51 4.7 3.89 3.89 0 0 1 2.41 6.34 4.33 4.33 0 0 1 2.41 2.67 4.38 4.38 0 0 1-.76 3.8 3.7 3.7 0 0 1 .25 6.6l-10.5 4.09c-1.23.47-.76.34-14 1.3z" data-original="#e67925" class=""></path><g fill="#68003c"><path d="M184.86 78.43a3.08 3.08 0 0 1-1.21-5.93L194 69.68a.5.5 0 0 1 .61.36.49.49 0 0 1-.35.61L184 73.44a2.09 2.09 0 0 0 1.37 3.94l8.73-1.62a.5.5 0 0 1 .18 1c-9.7 1.77-9.04 1.67-9.42 1.67z" fill="#1d1160" data-original="#68003c" class="" opacity="1"></path><path d="M183.85 73.46a3.77 3.77 0 0 1-2-6.92c.11-.07-.51.13 10.72-3.28a.5.5 0 0 1 .62.33.51.51 0 0 1-.33.63l-10.5 3.19a2.77 2.77 0 0 0 1.5 5 .5.5 0 0 1-.01 1.05z" fill="#1d1160" data-original="#68003c" class="" opacity="1"></path><path d="M182.16 67.45a4.24 4.24 0 0 1-3.67-2.5 4.33 4.33 0 0 1 1.7-5.26c.1-.07-.57.12 10.47-2.86a.5.5 0 0 1 .26 1l-10.24 2.77a3.38 3.38 0 0 0-1.27 4 3.29 3.29 0 0 0 2.79 1.89.5.5 0 0 1-.04.96z" fill="#1d1160" data-original="#68003c" class="" opacity="1"></path><path d="M180.42 60.6a4.35 4.35 0 0 1-2.68-7.36c.12-.12-.53.14 7.72-2.83a.5.5 0 0 1 .34.94L178.38 54a3.34 3.34 0 0 0 2.14 5.58.5.5 0 0 1-.1 1.02zM173.87 68.85a.51.51 0 0 1-.45-.73c4.26-8.55-1-13.91-1.28-14.13a.5.5 0 0 1 .7-.72c.06.06 6.07 6.07 1.48 15.3a.5.5 0 0 1-.45.28zM133.46 168.42a.5.5 0 0 1-.48-.65l8.5-28.08a.5.5 0 0 1 1 .29l-8.5 28.08a.49.49 0 0 1-.52.36zM75.75 486.23H30.08a.5.5 0 0 1-.5-.5.5.5 0 0 1 .5-.5h45.67a.5.5 0 0 1 .5.5.5.5 0 0 1-.5.5zM187.49 486.23h-78.16a.5.5 0 0 1-.5-.5.51.51 0 0 1 .5-.5h78.16a.5.5 0 0 1 .5.5.5.5 0 0 1-.5.5zM154.14 477.13a.87.87 0 0 1-.61-1.47l3.61-3.66-10.9 2.19a.86.86 0 0 1-.73-1.5l3.92-3.34-12.2 1.55a.87.87 0 0 1-.58-1.58l5.71-3.79-10.33.6a.86.86 0 0 1-.34-1.67l7.67-2.8a.5.5 0 0 1 .34.94l-6.78 2.48 9.9-.58a.86.86 0 0 1 .52 1.58l-5.65 3.75 12.08-1.53a.86.86 0 0 1 .66 1.51l-3.86 3.29 10.82-2.17a.86.86 0 0 1 .78 1.45l-3.42 3.47 8.09-3.57a.5.5 0 0 1 .41.91c-9.58 4.22-8.85 3.94-9.11 3.94zM60.57 475.11l-16-1.22a.8.8 0 0 1-.09-1.58L56.7 470l-10.91-1a.8.8 0 0 1-.12-1.57l10.74-2.59-9.67-.84a.8.8 0 0 1-.15-1.57l9.25-2.59-10.17-.61a.51.51 0 0 1-.47-.53.53.53 0 0 1 .53-.47l11.37.69a.79.79 0 0 1 .16 1.56l-9.32 2.62 9.8.82a.8.8 0 0 1 .12 1.57l-10.78 2.6 11.15 1.05a.8.8 0 0 1 .07 1.58L46.22 473l14.43 1.1a.5.5 0 0 1-.08 1.01zM438.34 492h61.33l-24.57-41.12-23.93 2.38q-6.42 19.35-12.83 38.74z" fill="#1d1160" data-original="#68003c" class="" opacity="1"></path></g><path fill="#00788c" d="m412.65 461-2.49-36.62-25.62 2.85 1.87 32.21c8.59-.31 11.58 1.68 12.68 3.64s.51 4.13 2.26 5.31c2 1.38 5.18-.1 5.82-.4 3.92-1.85 5.2-5.99 5.48-6.99zM438.34 419.88l28.16-9.3 11.76 45.5c-3.06 2.69-5.6 3.28-7.34 3.33-6.06.17-9.16-6-15.25-5.5a10.45 10.45 0 0 0-5.58 2.33q-5.88-18.18-11.75-36.36z" data-original="#fdc500" class="" opacity="1"></path><path fill="#ffffff" d="M477.67 476.49c-2 0 7.17.2-20.17-.55a.88.88 0 0 1-.2-1.72l14.14-3.73H458.6a.87.87 0 0 1-.29-1.69l12.57-4.43h-14.46a.51.51 0 0 1-.5-.5.5.5 0 0 1 .5-.5h15.2a.87.87 0 0 1 .29 1.69l-12.56 4.43h13.07a.87.87 0 0 1 .22 1.72L458.42 475l19.27.53a.5.5 0 0 1-.02.96zM491.92 486.62h-46a.51.51 0 0 1-.5-.5.5.5 0 0 1 .5-.5h46a.5.5 0 0 1 .5.5.5.5 0 0 1-.5.5zM414.42 486.62h-69.75a.51.51 0 0 1-.5-.5.5.5 0 0 1 .5-.5h69.75a.5.5 0 0 1 .5.5.5.5 0 0 1-.5.5zM368 478.58c-.57 0-.3.09-6.56-5.18a.5.5 0 1 1 .65-.76c6.24 5.26 5.85 5 6 4.92s.12.24-.6-5.47a1.14 1.14 0 0 1 1.83-1c7.27 5.6 6.82 5.31 6.94 5.23s.18.35-1.49-7.11a1.14 1.14 0 0 1 1.81-1.16c7.09 5.43 6.69 5.19 6.82 5.09s.24.42-2.26-7.33a1.14 1.14 0 0 1 1.63-1.36l8.34 4.49a.49.49 0 0 1 .2.67.5.5 0 0 1-.68.21l-8.34-4.49a.14.14 0 0 0-.2.17l2.32 7.17a1.15 1.15 0 0 1-1.78 1.27l-6.66-5.09a.15.15 0 0 0-.23.15l1.56 6.95a1.14 1.14 0 0 1-1.81 1.15l-6.78-5.22a.15.15 0 0 0-.23.14l.68 5.32a1.15 1.15 0 0 1-1.16 1.24z" data-original="#ffffff" class=""></path></g></g></svg>