<svg xmlns="http://www.w3.org/2000/svg" version="1.1" xmlns:xlink="http://www.w3.org/1999/xlink" xmlns:svgjs="http://svgjs.com/svgjs" width="512" height="512" x="0" y="0" viewBox="0 0 512 512" style="enable-background:new 0 0 512 512" xml:space="preserve" class=""><g><g data-name="Designing web (programer)"><path fill="#1d1160" d="M130.68 161.79a2.87 2.87 0 0 1-2.11-.88l-26.95-28.37c-1.09-1.15-.88-3.13.47-4.5l27.79-27.93a3.32 3.32 0 0 1 4.4-.48 2.81 2.81 0 0 1-.12 4.14l-25.36 25.87 25 25.85c2.1 2.17.02 6.3-3.12 6.3zM182 161.79c-3.14 0-4.38-4.13-1.84-6.3l30.22-25.85-20.18-25.87a2.91 2.91 0 0 1 .71-4.14 3.16 3.16 0 0 1 4.31.48L217.36 128a3.28 3.28 0 0 1-.43 4.5l-32.69 28.37a3.49 3.49 0 0 1-2.24.92zM149.09 163.64c-2.26 0-3.65-2.27-2.79-4.56l22.55-60.3a3.39 3.39 0 0 1 3.94-2 2.68 2.68 0 0 1 1.88 3.57L152.7 161a4 4 0 0 1-3.61 2.64z" data-original="#2351fb" class="" opacity="1"></path><path fill="#1d1160" d="M253.25 214H63.72a7.73 7.73 0 0 1-7.67-8.55L72.47 53.7a7.71 7.71 0 0 1 7.67-6.89h186a7.72 7.72 0 0 1 7.69 8.37L260.94 207a7.67 7.67 0 0 1-7.69 7zM80.14 48.81a5.7 5.7 0 0 0-5.68 5.1L58 205.7a5.72 5.72 0 0 0 5.72 6.3h189.53a5.69 5.69 0 0 0 5.7-5.23L271.85 55a5.72 5.72 0 0 0-5.7-6.2z" data-original="#2351fb" class="" opacity="1"></path><path fill="#00788c" d="M420.41 411.34H154.18a8.12 8.12 0 0 1-8.08-9l23.1-213.67a8.13 8.13 0 0 1 8.09-7.25h261.28a8.13 8.13 0 0 1 8.1 8.82L428.51 403.9a8.13 8.13 0 0 1-8.1 7.44z" data-original="#fdc500" class="" opacity="1"></path><circle cx="89.4" cy="61.91" r="4.8" fill="#1d1160" data-original="#2351fb" class="" opacity="1"></circle><circle cx="105.33" cy="61.91" r="4.8" fill="#1d1160" data-original="#2351fb" class="" opacity="1"></circle><circle cx="121.26" cy="61.91" r="4.8" fill="#1d1160" data-original="#2351fb" class="" opacity="1"></circle><circle cx="185.53" cy="195.22" r="6.06" fill="#ffffff" data-original="#ffffff" class=""></circle><circle cx="425.2" cy="195.22" r="6.06" fill="#ffffff" data-original="#ffffff" class=""></circle><path fill="#ffffff" d="M409.55 199h-45.82a3.75 3.75 0 0 1 0-7.5h45.82a3.75 3.75 0 0 1 0 7.5zM426.29 231.06H179.42a2.48 2.48 0 0 1-2.47-2.77l1.54-13.07A2.49 2.49 0 0 1 181 213h246.45a2.48 2.48 0 0 1 2.47 2.7l-1.15 13.07a2.49 2.49 0 0 1-2.48 2.29zM267.12 305.85h-93a2.49 2.49 0 0 1-2.47-2.77l7-60a2.47 2.47 0 0 1 2.47-2.19h92.27a2.48 2.48 0 0 1 2.47 2.75l-6.35 60a2.48 2.48 0 0 1-2.39 2.21zM405.87 387.13H315a2.48 2.48 0 0 1-2.47-2.74l7.76-76.3a2.49 2.49 0 0 1 2.47-2.24h90.06a2.49 2.49 0 0 1 2.48 2.71l-6.92 76.31a2.49 2.49 0 0 1-2.51 2.26zM256 375.29h-59.51a2.48 2.48 0 0 1-2.47-2.74l5-49.74a2.49 2.49 0 0 1 2.48-2.23h59a2.49 2.49 0 0 1 2.48 2.71L258.52 373a2.49 2.49 0 0 1-2.52 2.29z" data-original="#ffffff" class=""></path><g fill="#2351fb"><path d="M467.19 465.29H310.88a6.27 6.27 0 0 1-6.33-7.09l11.17-104.43a7.82 7.82 0 0 1 7.59-6.84h155.75a6.28 6.28 0 0 1 6.35 7l-10.64 104.48a7.8 7.8 0 0 1-7.58 6.88zM323.31 348.93a5.77 5.77 0 0 0-5.6 5.05l-11.17 104.43a4.27 4.27 0 0 0 4.34 4.88h156.31a5.76 5.76 0 0 0 5.59-5.09l10.64-104.43a4.28 4.28 0 0 0-4.36-4.84z" fill="#1d1160" data-original="#2351fb" class="" opacity="1"></path><path d="M331.89 358.41a4.4 4.4 0 0 1-4.27 3.85 3.41 3.41 0 0 1-3.46-3.85 4.4 4.4 0 0 1 4.28-3.85 3.4 3.4 0 0 1 3.45 3.85zM347.87 358.41a4.4 4.4 0 0 1-4.27 3.85 3.41 3.41 0 0 1-3.46-3.85 4.4 4.4 0 0 1 4.27-3.85 3.41 3.41 0 0 1 3.46 3.85zM363.85 358.41a4.4 4.4 0 0 1-4.27 3.85 3.41 3.41 0 0 1-3.46-3.85 4.4 4.4 0 0 1 4.27-3.85 3.41 3.41 0 0 1 3.46 3.85zM374.23 374.76h-49a1.2 1.2 0 0 1-1.23-1.36 1.56 1.56 0 0 1 1.51-1.36h49a1.2 1.2 0 0 1 1.22 1.36 1.55 1.55 0 0 1-1.5 1.36zM358.18 389.85h-20a1.2 1.2 0 0 1-1.22-1.36 1.55 1.55 0 0 1 1.5-1.36h20a1.2 1.2 0 0 1 1.22 1.36 1.55 1.55 0 0 1-1.5 1.36zM393.87 405h-57.31a1.2 1.2 0 0 1-1.22-1.36 1.56 1.56 0 0 1 1.51-1.36h57.3a1.2 1.2 0 0 1 1.22 1.36 1.55 1.55 0 0 1-1.5 1.36zM437.49 435.2H333.35a1.2 1.2 0 0 1-1.22-1.36 1.56 1.56 0 0 1 1.51-1.36h104.13a1.21 1.21 0 0 1 1.23 1.36 1.55 1.55 0 0 1-1.51 1.36zM368.94 450.35h-37.2a1.2 1.2 0 0 1-1.22-1.36 1.56 1.56 0 0 1 1.51-1.37h37.2a1.21 1.21 0 0 1 1.22 1.37 1.56 1.56 0 0 1-1.51 1.36zM409.73 374.76h-28.07a1.2 1.2 0 0 1-1.22-1.36 1.55 1.55 0 0 1 1.5-1.36H410a1.2 1.2 0 0 1 1.22 1.36 1.54 1.54 0 0 1-1.49 1.36zM470.08 389.85H368.62a1.2 1.2 0 0 1-1.21-1.36 1.54 1.54 0 0 1 1.5-1.36h101.45a1.2 1.2 0 0 1 1.22 1.36 1.55 1.55 0 0 1-1.5 1.36zM421.12 405h-17.21a1.2 1.2 0 0 1-1.22-1.36 1.55 1.55 0 0 1 1.51-1.36h17.2a1.21 1.21 0 0 1 1.23 1.36 1.55 1.55 0 0 1-1.51 1.36zM393.64 450.35h-14.42A1.2 1.2 0 0 1 378 449a1.55 1.55 0 0 1 1.51-1.37h14.41a1.21 1.21 0 0 1 1.22 1.37 1.54 1.54 0 0 1-1.5 1.35zM436 374.76h-16a1.2 1.2 0 0 1-1.22-1.36 1.55 1.55 0 0 1 1.5-1.36h16a1.21 1.21 0 0 1 1.22 1.36 1.55 1.55 0 0 1-1.5 1.36zM369.41 420.6h-49.05a1.2 1.2 0 0 1-1.22-1.36 1.56 1.56 0 0 1 1.51-1.36h49.05a1.21 1.21 0 0 1 1.22 1.36 1.56 1.56 0 0 1-1.51 1.36zM405 420.6h-28.15a1.2 1.2 0 0 1-1.22-1.36 1.55 1.55 0 0 1 1.5-1.36h28.12a1.21 1.21 0 0 1 1.22 1.36 1.56 1.56 0 0 1-1.47 1.36zM431.29 420.6h-16.05a1.21 1.21 0 0 1-1.23-1.36 1.56 1.56 0 0 1 1.51-1.36h16.05a1.21 1.21 0 0 1 1.23 1.36 1.55 1.55 0 0 1-1.51 1.36zM468.54 405h-37.15a1.2 1.2 0 0 1-1.22-1.36 1.55 1.55 0 0 1 1.5-1.36h37.15a1.2 1.2 0 0 1 1.22 1.36 1.55 1.55 0 0 1-1.5 1.36zM465.45 435.2h-18.64a1.2 1.2 0 0 1-1.22-1.36 1.54 1.54 0 0 1 1.5-1.36h18.64a1.2 1.2 0 0 1 1.22 1.36 1.55 1.55 0 0 1-1.5 1.36zM463.9 450.35h-59.3a1.21 1.21 0 0 1-1.23-1.36 1.56 1.56 0 0 1 1.51-1.37h59.3a1.22 1.22 0 0 1 1.23 1.37 1.55 1.55 0 0 1-1.51 1.36z" fill="#1d1160" data-original="#2351fb" class="" opacity="1"></path></g><path fill="#e67925" d="m56.82 317 21.27-40a26.2 26.2 0 0 1 10.59-10.71l28.9-15.77c8-2.79 16.93.83 13.38 9 6.67-6.22 17-4.38 18.8 5.07 9.46-5.91 21.76-2.8 20.62 9l27.82-8.74a11.18 11.18 0 0 1 8.68.84l23.17 12.6a10.55 10.55 0 1 1-13.38 16.27l-14.78-6.89-30.79 14.9c-1.58.76-11.93 6-14.46 17.36a23.82 23.82 0 0 0 .36 11.57l34.35-11.21a13.19 13.19 0 0 1 11.94 23.5l-43.71 16.61a16.47 16.47 0 0 1-5.89 1.08h-49.85l-30.16 27.97a8.08 8.08 0 0 1-9.52 1.08 75.53 75.53 0 0 1-36.85-53.88 5.16 5.16 0 0 1 2.69-5.39z" data-original="#e67925" class=""></path><path fill="#68003c" d="M113.8 269.3a.5.5 0 0 1-.23-.94l17.15-9.27a.5.5 0 0 1 .68.21.49.49 0 0 1-.2.67c-18.35 9.91-17.2 9.33-17.4 9.33zM131.3 275.05a.5.5 0 0 1-.23-.94l18.46-9.95a.49.49 0 0 1 .67.2.51.51 0 0 1-.2.68c-19.75 10.64-18.5 10.01-18.7 10.01zM144.05 288.3a.5.5 0 0 1-.23-.94l26.32-14.16a.51.51 0 0 1 .68.2.5.5 0 0 1-.21.68c-28.21 15.18-26.36 14.22-26.56 14.22z" data-original="#68003c" class=""></path></g></g></svg>