<svg xmlns="http://www.w3.org/2000/svg" version="1.1" xmlns:xlink="http://www.w3.org/1999/xlink" xmlns:svgjs="http://svgjs.com/svgjs" width="512" height="512" x="0" y="0" viewBox="0 0 512 512" style="enable-background:new 0 0 512 512" xml:space="preserve" class=""><g><g data-name="UI UX Designer"><path fill="#00788c" d="M477.72 273.44H196.11a5.92 5.92 0 0 1-5.91-5.91v-242a5.92 5.92 0 0 1 5.91-5.91h281.61a5.92 5.92 0 0 1 5.92 5.91v242a5.92 5.92 0 0 1-5.92 5.91zM196.11 21.61a3.92 3.92 0 0 0-3.91 3.91v242a3.91 3.91 0 0 0 3.91 3.91h281.61a3.92 3.92 0 0 0 3.92-3.91v-242a3.92 3.92 0 0 0-3.92-3.91z" data-original="#2351fb" opacity="1"></path><path fill="#68003c" d="M109.39 82.78a30.34 30.34 0 0 0-19.34-1c-10.66 3-13.66 13.56-11.66 22s-9.84 8.64-13.67 17.64-2 13.17 1.33 16.67S59.43 142 62.57 155s18.15 15.67 27.82 9.67 11.16-20.34 6.5-28.17-.84-9 3-13.83.51-5.1.72-14.09 3.94-11.76 3.94-11.76z" data-original="#68003c" class=""></path><circle cx="203.23" cy="28.48" r="3.17" fill="#00788c" data-original="#2351fb" opacity="1"></circle><circle cx="216.36" cy="28.48" r="3.17" fill="#00788c" data-original="#2351fb" opacity="1"></circle><circle cx="229.49" cy="28.48" r="3.17" fill="#00788c" data-original="#2351fb" opacity="1"></circle><path fill="#e67925" d="m248.64 96-13 12.66-5.25 17.59 13.22 7.72 11.94-8a7.78 7.78 0 0 0 3.07-4l5.53-16.45z" data-original="#e67925"></path><g fill="#2351fb"><rect width="84.21" height="74.07" x="389.37" y="48.13" rx="7.86" fill="#00788c" data-original="#2351fb" opacity="1"></rect><path d="M360.3 122.71a.5.5 0 0 1-.5-.5.5.5 0 0 1 .5-.5h10.82a.53.53 0 0 1 .53.5.48.48 0 0 1-.47.5c0-.55 0-.78-.05 0zm-10.83 0h-10.82a.5.5 0 0 1-.5-.5.5.5 0 0 1 .5-.5h10.82a.5.5 0 0 1 .5.5.5.5 0 0 1-.5.5zm-21.64 0H317a.51.51 0 0 1-.5-.5.5.5 0 0 1 .5-.5h10.83a.5.5 0 0 1 .5.5.51.51 0 0 1-.5.5zm-21.65 0h-3.56a8.29 8.29 0 0 1-6.67-3.33.5.5 0 1 1 .8-.6 7.32 7.32 0 0 0 5.87 2.93h3.56a.5.5 0 0 1 .5.5.5.5 0 0 1-.5.5zm72.66-6.41a.5.5 0 0 1-.49-.59c.18-1 .13-1.07.13-10.72a.5.5 0 0 1 .5-.5.5.5 0 0 1 .5.5c0 11.09.13 11.31-.64 11.31zm-84.07-7.19a.5.5 0 0 1-.5-.5V97.79a.5.5 0 0 1 .5-.5.5.5 0 0 1 .5.5v10.82a.51.51 0 0 1-.5.5zM379 94.67a.5.5 0 0 1-.5-.5V83.35a.5.5 0 0 1 .5-.5.5.5 0 0 1 .5.5v10.82a.51.51 0 0 1-.5.5zm-84.21-7.21a.5.5 0 0 1-.5-.5V76.14a.5.5 0 0 1 .5-.5.5.5 0 0 1 .5.5V87a.5.5 0 0 1-.52.46zM379 73a.5.5 0 0 1-.5-.5V61.7a.5.5 0 0 1 .5-.5.5.5 0 0 1 .5.5v10.82a.5.5 0 0 1-.5.48zm-84.21-7.2a.5.5 0 0 1-.5-.5c0-10-.06-9.84.15-10.91a.5.5 0 0 1 1 .19c-.2 1-.13 1.15-.13 10.72a.51.51 0 0 1-.54.52zm82.6-14.09a.49.49 0 0 1-.39-.19 7.32 7.32 0 0 0-5.86-2.91h-3.59a.5.5 0 0 1-.5-.5.5.5 0 0 1 .5-.5h3.59a8.29 8.29 0 0 1 6.65 3.3.5.5 0 0 1-.42.82zm-20.66-3.1h-10.84a.5.5 0 0 1-.5-.5.5.5 0 0 1 .5-.5h10.82a.51.51 0 0 1 .5.5.5.5 0 0 1-.5.52zm-21.65 0h-10.84a.5.5 0 0 1-.5-.5.5.5 0 0 1 .5-.5h10.82a.5.5 0 0 1 .5.5.5.5 0 0 1-.5.52zm-21.64 0h-10.8a.51.51 0 0 1-.51-.5.49.49 0 0 1 .48-.5c0 .53 0 .8 0 0h10.82a.51.51 0 0 1 .5.5.5.5 0 0 1-.51.52zM265.69 122.71a.51.51 0 0 1-.5-.5.5.5 0 0 1 .5-.5h10.82a.53.53 0 0 1 .54.5.48.48 0 0 1-.47.5c0-.55 0-.78-.05 0zm-10.82 0h-10.82a.5.5 0 0 1-.5-.5.5.5 0 0 1 .5-.5h10.82a.5.5 0 0 1 .5.5.5.5 0 0 1-.5.5zm-21.65 0H222.4a.5.5 0 0 1-.5-.5.5.5 0 0 1 .5-.5h10.82a.5.5 0 0 1 .5.5.5.5 0 0 1-.5.5zm-21.64 0H208a8.29 8.29 0 0 1-6.67-3.33.5.5 0 0 1 .1-.7.51.51 0 0 1 .7.1 7.29 7.29 0 0 0 5.87 2.93h3.56a.5.5 0 0 1 .5.5.51.51 0 0 1-.48.5zm72.66-6.41a.5.5 0 0 1-.49-.59c.18-1 .12-1.07.12-10.72a.5.5 0 0 1 .5-.5.5.5 0 0 1 .5.5c0 11.09.13 11.31-.63 11.31zm-84.08-7.19a.51.51 0 0 1-.5-.5V97.79a.5.5 0 0 1 .5-.5.5.5 0 0 1 .5.5v10.82a.5.5 0 0 1-.5.5zm84.21-14.44a.51.51 0 0 1-.5-.5V83.35a.5.5 0 0 1 .5-.5.5.5 0 0 1 .5.5v10.82a.5.5 0 0 1-.5.5zm-84.21-7.21a.5.5 0 0 1-.5-.5V76.14a.5.5 0 0 1 .5-.5.5.5 0 0 1 .5.5V87a.5.5 0 0 1-.5.46zM284.37 73a.5.5 0 0 1-.5-.5V61.7a.5.5 0 0 1 .5-.5.5.5 0 0 1 .5.5v10.82a.5.5 0 0 1-.5.48zm-84.21-7.2a.51.51 0 0 1-.5-.5c0-10.5-.2-11.49.74-11.31a.5.5 0 0 1 .39.59c-.2 1-.13 1.15-.13 10.72a.5.5 0 0 1-.5.52zm82.61-14.09a.53.53 0 0 1-.4-.19 7.29 7.29 0 0 0-5.86-2.91h-3.58a.5.5 0 0 1-.5-.5.5.5 0 0 1 .5-.5h3.58a8.3 8.3 0 0 1 6.66 3.3.5.5 0 0 1-.4.82zm-20.67-3.1h-10.82a.5.5 0 0 1-.5-.5.51.51 0 0 1 .5-.5h10.82a.5.5 0 0 1 .5.5.5.5 0 0 1-.5.52zm-21.64 0h-10.82a.5.5 0 0 1-.5-.5.5.5 0 0 1 .5-.5h10.82a.5.5 0 0 1 .5.5.5.5 0 0 1-.5.52zm-21.65 0H208a.51.51 0 0 1-.51-.5.52.52 0 0 1 .54-.5h10.76a.5.5 0 0 1 .5.5.5.5 0 0 1-.48.52zM465.72 258.88h-11a.51.51 0 0 1-.5-.5.5.5 0 0 1 .5-.5h11a.5.5 0 0 1 .5.5.5.5 0 0 1-.5.5zm-22 0h-11a.51.51 0 0 1-.5-.5.5.5 0 0 1 .5-.5h11a.5.5 0 0 1 .5.5.5.5 0 0 1-.5.5zm-22 0h-11a.51.51 0 0 1-.5-.5.5.5 0 0 1 .5-.5h11a.5.5 0 0 1 .5.5.5.5 0 0 1-.5.5zm-22 0h-2.49a8.34 8.34 0 0 1-7.38-4.44.49.49 0 0 1 .2-.67.5.5 0 0 1 .68.2 7.35 7.35 0 0 0 6.5 3.91h2.49a.5.5 0 0 1 .5.5.5.5 0 0 1-.5.5zm71.5-2.25a.5.5 0 0 1-.35-.86 7.27 7.27 0 0 0 2.21-5.25v-4.75a.51.51 0 0 1 .5-.5.5.5 0 0 1 .5.5v4.75a8.3 8.3 0 0 1-2.51 6 .5.5 0 0 1-.35.11zm-81.85-12.77a.5.5 0 0 1-.5-.5v-11a.5.5 0 0 1 1 0v11a.5.5 0 0 1-.5.5zm84.21-8.59a.5.5 0 0 1-.5-.5v-11a.51.51 0 0 1 .5-.5.5.5 0 0 1 .5.5v11a.5.5 0 0 1-.5.5zm-84.21-13.41a.5.5 0 0 1-.5-.5v-11a.5.5 0 0 1 1 0v11a.5.5 0 0 1-.5.5zm84.21-8.59a.5.5 0 0 1-.5-.5v-11a.51.51 0 0 1 .5-.5.5.5 0 0 1 .5.5v11a.5.5 0 0 1-.5.5zm-84.21-13.41a.5.5 0 0 1-.5-.5v-7.2a8.35 8.35 0 0 1 1-3.89.51.51 0 0 1 .67-.21.5.5 0 0 1 .21.68 7.39 7.39 0 0 0-.84 3.42v7.2a.5.5 0 0 1-.54.5zm84.09-8.58a.49.49 0 0 1-.49-.41 7.35 7.35 0 0 0-7.25-6.07.52.52 0 0 1-.52-.5.48.48 0 0 1 .48-.5 8.34 8.34 0 0 1 8.27 6.89.5.5 0 0 1-.49.59zm-18.78-6.48h-11a.5.5 0 0 1-.5-.5.5.5 0 0 1 .5-.5h11a.5.5 0 0 1 .5.5.5.5 0 0 1-.5.5zm-22 0h-11a.5.5 0 0 1-.5-.5.5.5 0 0 1 .5-.5h11a.5.5 0 0 1 .5.5.5.5 0 0 1-.5.5zm-22 0h-11a.5.5 0 0 1-.5-.5.5.5 0 0 1 .5-.5h11a.5.5 0 0 1 .5.5.5.5 0 0 1-.5.5z" fill="#00788c" data-original="#2351fb" opacity="1"></path><rect width="84.21" height="74.07" x="294.77" y="184.3" rx="7.86" fill="#00788c" data-original="#2351fb" opacity="1"></rect><path d="M265.69 258.88a.51.51 0 0 1-.5-.5.5.5 0 0 1 .5-.5h10.82a.53.53 0 0 1 .54.5.48.48 0 0 1-.47.5c0-.55 0-.78-.05 0zm-10.82 0h-10.82a.5.5 0 0 1-.5-.5.5.5 0 0 1 .5-.5h10.82a.5.5 0 0 1 .5.5.5.5 0 0 1-.5.5zm-21.65 0H222.4a.5.5 0 0 1-.5-.5.5.5 0 0 1 .5-.5h10.82a.5.5 0 0 1 .5.5.5.5 0 0 1-.5.5zm-21.64 0H208a8.29 8.29 0 0 1-6.67-3.33.5.5 0 0 1 .1-.7.51.51 0 0 1 .7.1 7.29 7.29 0 0 0 5.87 2.93h3.56a.5.5 0 0 1 .5.5.51.51 0 0 1-.48.5zm72.66-6.41a.5.5 0 0 1-.49-.59c.18-1 .12-1.07.12-10.72a.5.5 0 0 1 .5-.5.5.5 0 0 1 .5.5c0 11.09.13 11.31-.63 11.31zm-84.08-7.19a.5.5 0 0 1-.5-.5V234a.5.5 0 0 1 .5-.5.5.5 0 0 1 .5.5v10.82a.5.5 0 0 1-.5.46zm84.21-14.44a.51.51 0 0 1-.5-.5v-10.82a.5.5 0 0 1 .5-.5.5.5 0 0 1 .5.5v10.82a.5.5 0 0 1-.5.5zm-84.21-7.21a.5.5 0 0 1-.5-.5v-10.82a.5.5 0 0 1 .5-.5.5.5 0 0 1 .5.5v10.82a.5.5 0 0 1-.5.5zm84.21-14.44a.5.5 0 0 1-.5-.5v-10.82a.5.5 0 0 1 .5-.5.5.5 0 0 1 .5.5v10.82a.5.5 0 0 1-.5.5zM200.16 202a.51.51 0 0 1-.5-.5c0-10.13 0-9.86.15-10.91a.5.5 0 0 1 1 .19c-.2 1-.13 1.15-.13 10.72a.5.5 0 0 1-.52.5zm82.61-14.09a.53.53 0 0 1-.4-.19 7.29 7.29 0 0 0-5.86-2.91h-3.58a.5.5 0 0 1-.5-.5.5.5 0 0 1 .5-.5h3.58a8.3 8.3 0 0 1 6.66 3.3.5.5 0 0 1-.4.79zm-20.67-3.1h-10.82a.5.5 0 0 1-.5-.5.5.5 0 0 1 .5-.5h10.82a.5.5 0 0 1 .5.5.5.5 0 0 1-.5.49zm-21.64 0h-10.82a.5.5 0 0 1-.5-.5.5.5 0 0 1 .5-.5h10.82a.5.5 0 0 1 .5.5.5.5 0 0 1-.5.49zm-21.65 0H208a.51.51 0 0 1-.51-.5.48.48 0 0 1 .48-.5h10.82a.5.5 0 0 1 .5.5.5.5 0 0 1-.48.49zM201.78 132.7h271.8v39.69h-271.8z" fill="#00788c" data-original="#2351fb" opacity="1"></path></g><path fill="#ffffff" d="M415.86 67a3 3 0 0 1 4.54-2.62L452.52 83a3 3 0 0 1 0 5.24l-32.12 18.51a3 3 0 0 1-4.54-2.62zM299.72 231.49s18.79-16.23 27.17-20.53 14.26 14.94 19 16.07 9.5-14.6 17.2-16.7 12 21.16 12 21.16v9.58h-75.37z" data-original="#ffffff" class=""></path><circle cx="349.68" cy="200.09" r="7.09" fill="#ffffff" data-original="#ffffff" class=""></circle><path fill="#00788c" d="M29.36 315.41h217.33v175.98H29.36z" data-original="#2351fb" opacity="1"></path><path fill="#1d1160" d="m130.28 133.94 24.14 2.67a29.65 29.65 0 0 1 25 20.43l26.14 81.68-26.15 11.67-29.66-87.17z" data-original="#fdc500" class="" opacity="1"></path><path fill="#e67925" d="m226 123.61-42.73 108.48a17.74 17.74 0 0 0 34.47 8.12l29.55-109.49z" data-original="#e67925"></path><path fill="#00788c" d="m258.112 48.854 18.731 8.002-26.02 60.913-18.731-8.001z" data-original="#2351fb" opacity="1"></path><path fill="#ffffff" d="m258.802 51.1 15.953 6.815-4.594 10.755-15.953-6.815z" data-original="#ffffff" class=""></path><path fill="#68003c" d="m253.535 63.419 15.953 6.814-4.594 10.755-15.953-6.815z" data-original="#68003c" class=""></path><path fill="#e67925" d="m248.268 75.727 15.953 6.814-4.594 10.755-15.953-6.815z" data-original="#e67925"></path><path fill="#1d1160" d="m243.01 88.039 15.953 6.814-4.594 10.755-15.953-6.815z" data-original="#fdc500" class="" opacity="1"></path><path fill="#00788c" d="m280.522 57.158 14.476 14.313-46.546 47.075-14.476-14.313z" data-original="#2351fb" opacity="1"></path><path fill="#1d1160" d="m280.34 59.493 12.329 12.19-8.218 8.311-12.329-12.19z" data-original="#fdc500" class="" opacity="1"></path><path fill="#e67925" d="m270.934 69.01 12.329 12.19-8.218 8.31-12.329-12.19z" data-original="#e67925"></path><path fill="#68003c" d="m261.514 78.526 12.329 12.19-8.218 8.311-12.33-12.19z" data-original="#68003c" class=""></path><path fill="#ffffff" d="m252.108 88.052 12.329 12.19-8.218 8.312-12.33-12.19z" data-original="#ffffff" class=""></path><path fill="#00788c" d="m297.257 72.796 9.57 17.978-58.464 31.119-9.569-17.978z" data-original="#2351fb" opacity="1"></path><path fill="#e67925" d="m296.38 74.981 8.15 15.311-10.322 5.495-8.15-15.312z" data-original="#e67925"></path><path fill="#1d1160" d="m284.562 81.265 8.15 15.311-10.322 5.495-8.15-15.312z" data-original="#fdc500" class="" opacity="1"></path><path fill="#ffffff" d="m272.747 87.553 8.15 15.311-10.322 5.495-8.15-15.312z" data-original="#ffffff" class=""></path><path fill="#68003c" d="m260.934 93.846 8.15 15.311-10.323 5.494-8.15-15.31z" data-original="#68003c" class=""></path><path fill="#e67925" d="m226 127.72-1-13.39a9.36 9.36 0 0 1 1.92-6.46l10.92-14.12a3.81 3.81 0 0 1 5 .22c1.6 1.56 1.11 4.65-.38 6.38l-5.76 10.48q2.7 5.48 5.39 11l-2.38 8.67z" data-original="#e67925"></path><path fill="#68003c" d="M241.54 121.78c.24-6.72-5.12-10.5-5.17-10.54a.5.5 0 1 1 .56-.82 13.86 13.86 0 0 1 5.61 11.39.5.5 0 0 1-1-.03z" data-original="#68003c" class=""></path><path fill="#e67925" d="M118.49 109.6h18.31v34.79h-18.31z" data-original="#e67925"></path><path fill="#e67925" d="M146.14 91.36A21 21 0 1 0 116 115.5c.74.89 1.44 1.65 2.07 2.29 5.4 5.54 11.73 11 19.44 9.35 6.7-1.14 10.84-7.7 10.44-14.1-1.25-19.8-1.08-19.04-1.81-21.68z" data-original="#e67925"></path><path fill="#262246" d="M135.11 114.3a.5.5 0 0 1-.13-1c2.64-.7 2.6-.63 2.7-.86s.28.22-3.34-6.62a.5.5 0 1 1 .88-.46l3.33 6.27a1.39 1.39 0 0 1-.87 2 25.7 25.7 0 0 1-2.57.67zM140.22 101.31a1.79 1.79 0 1 0 2.2 1.24 1.78 1.78 0 0 0-2.2-1.24zM127.16 105a1.79 1.79 0 1 0 2.2 1.24 1.79 1.79 0 0 0-2.2-1.24zM126.8 99.17c-.53 0-3.71.1-5.15 2.52-.49.83-.75 1.88-.5 2s1.3-2 3.48-2.59c1.88-.55 3.48.42 4.2-.53a1 1 0 0 0 .2-.83c-.25-.63-1.78-.59-2.23-.57zM143.35 95.48c-2.51-1.29-5.25.31-5.71.58s-1.7 1-1.57 1.7c.08.4.59.6.61.61 1.12.42 2-1.26 3.85-1.79 2.19-.61 4.12.78 4.32.37s-.65-1.03-1.5-1.47z" data-original="#262246"></path><path fill="#68003c" d="M124.8 124.52a.49.49 0 0 1 0-.7.5.5 0 0 1 .71 0 12.58 12.58 0 0 0 11.4 3.27.5.5 0 0 1 .21 1 13.57 13.57 0 0 1-12.32-3.57z" data-original="#68003c" class=""></path><path fill="#1d1160" d="M130.28 133.94 89 151.72q5.39 65.5 10.76 131l71-21q-2-59.69-3.95-119.37z" data-original="#fdc500" class="" opacity="1"></path><path fill="#1d1160" d="m109.12 254.19 91.42-24.72-4.12 46.91-29.39 39h-81q11.55-30.57 23.09-61.19z" data-original="#fdc500" class="" opacity="1"></path><path fill="#e67925" d="M210.38 252.29A800.75 800.75 0 0 0 196 457.75l19.79 1.25 44.26-188c6.21-16.41-2.16-35.45-16.51-40.59-14.1-5.1-29.96 4.68-33.16 21.88z" data-original="#e67925"></path><path fill="#1d1160" d="m197 438.72-19.8 52.67h115c.15-.31 3.27-6.73-.42-12.42a12.26 12.26 0 0 0-7.16-5 152.45 152.45 0 0 1-68.62-30.5z" data-original="#fdc500" class="" opacity="1"></path><path fill="#e67925" d="M179.38 250.39a801 801 0 0 0-29.66 203.82l19.69 2.73 58.12-184.25c7.41-15.91.48-35.51-13.46-41.7-13.68-6.09-30.23 2.48-34.69 19.4z" data-original="#e67925"></path><path fill="#1d1160" d="m151.53 438.72-19.83 52.67h115c.15-.31 3.27-6.73-.42-12.42a12.26 12.26 0 0 0-7.16-5 152.45 152.45 0 0 1-68.59-30.47zM124 133.72 95.3 143.9a37.22 37.22 0 0 0-23.85 26.75q-12.07 52.53-24.14 105.07l33 3.5 29-103.5zM104.92 254.72l-19 46.17a70 70 0 0 0-5.17 30.21l4.91 95.62s36.46 1 61.32-25.42c12.92-13.76 16.86-29.5 20.92-45.08 5.05-19.43 5.73-39 7.05-72.16.3-7.62.71-21.3 7.83-36.84a83.49 83.49 0 0 1 9-15.16z" data-original="#fdc500" class="" opacity="1"></path><path fill="#e67925" d="M111.39 138.2s6.9 7.77 16.65 7.69 13.35-10.72 13.35-10.72c-13.78-2.13-10-1.63-17.1-2.36z" data-original="#e67925"></path><path fill="#68003c" d="M117.12 101.24s6.77-3.85 4.47-15.68c0 0 9.85-2.34 13.19 3s10.08 1.83 10.08 1.83l2.06 6.31c2.72-8 1.42-16.56-3.63-21.48-7.32-7.12-22.47-6.53-31.9 4.67a15.24 15.24 0 0 0-8.6 4c-3.8 3.67-4.28 8.33-4.5 10.5-.93 9 4.36 16.18 6.33 18.83 0 0 1.84 2.47 13.87 12.79.91-7.84.1-12.1-1.37-24.77z" data-original="#68003c" class=""></path><path fill="#e67925" d="M119.92 108.29c-2.09-2.21-5.32-2.57-7.21-.78s-1.74 5 .35 7.23 5.31 2.57 7.2.79 1.74-5.02-.34-7.24z" data-original="#e67925"></path><path fill="#262246" d="M118.38 114.58A2.63 2.63 0 0 1 116 111l-2 .56a.5.5 0 0 1-.27-1l3.4-1a.5.5 0 0 1 .42.9 1.65 1.65 0 0 0 .85 3 .5.5 0 0 1-.02 1.12z" data-original="#262246"></path><path fill="#00788c" d="M118.49 130a8.72 8.72 0 0 0-3.18 6.52c4.43 7.77 13 10.71 21.49 8.66q2.28-5 4.57-10a5.5 5.5 0 0 0-4.57-5.18l-1.55 12.6a40.53 40.53 0 0 1-16.76-12.6z" data-original="#2351fb" opacity="1"></path><path fill="#00788c" d="m134.54 144.4 1.37 19.2a40.51 40.51 0 0 0 11.13 13 25.71 25.71 0 0 0-.92-20.71l-9.62-12.59z" data-original="#2351fb" opacity="1"></path><path fill="#00788c" d="m136.8 142 12.2 6.34a47.94 47.94 0 0 1 9.6 15.54 20.81 20.81 0 0 1-14.34-7l-8.5-13.13z" data-original="#2351fb" opacity="1"></path><circle cx="136.6" cy="143.62" r="2.65" fill="#00788c" data-original="#2351fb" opacity="1"></circle><path fill="#68003c" d="M95.58 225.21a.5.5 0 0 1-.49-.43l-6.56-46.65a.51.51 0 0 1 .43-.57.49.49 0 0 1 .56.43l6.56 46.65a.5.5 0 0 1-.5.57zM169.48 222.58a.51.51 0 0 1-.5-.49l-2.24-67.68a.5.5 0 1 1 1 0l2.26 67.65a.52.52 0 0 1-.52.52zM194.59 377.6a.5.5 0 0 1-.48-.64l35.95-117.38a27.37 27.37 0 0 0-5.66-21.73.51.51 0 0 1 .08-.71.5.5 0 0 1 .7.08 28.32 28.32 0 0 1 5.82 22.59l-36 117.44a.5.5 0 0 1-.41.35z" data-original="#68003c" class=""></path><path fill="#e67925" d="M144 212.06q-48.17 31.24-96.3 62.5c-5.4 9.49-3.69 21.25 3.66 28.16 8.49 8 22.78 7.92 31.92-1l74-69q-6.66-10.32-13.28-20.66z" data-original="#e67925"></path><path fill="#ffffff" d="m152 405.74 32.07 4.8-8.55 36.68s-6.7-3.5-12.87 5.5-14.85-4-14.85-4a378 378 0 0 1 4.2-42.98zM194.62 403.4l33.74 2.34-6.76 41.92s-3.81-.06-8.06 5.19-17.64 4.87-19.76-5.5z" data-original="#ffffff" class=""></path><path fill="#68003c" d="M246.7 491.89a.5.5 0 0 1-.44-.75 12 12 0 0 0 .57-10.21c-2.45-5.6-8.41-6.61-8.66-6.65a223.57 223.57 0 0 1-48.51-17.39.5.5 0 0 1 .45-.9 222.26 222.26 0 0 0 48.25 17.31c.24 0 6.71 1.13 9.39 7.22a13 13 0 0 1-.62 11.12.5.5 0 0 1-.43.25z" data-original="#68003c" class=""></path><path fill="#68003c" d="M201.86 473.15a1.21 1.21 0 0 1-.78-2.13c3.42-2.94 3.33-2.78 3.24-3s.63-.25-12.54 1.72a1.21 1.21 0 0 1-.86-2.2c5.35-3.63 5.07-3.36 5-3.57s.67-.23-13.68 1.26a1.21 1.21 0 0 1-.79-2.21c5.18-3.42 4.91-3.16 4.85-3.38s.7-.15-12.42-.15a1.21 1.21 0 0 1-.45-2.33l7.85-3.09a.51.51 0 0 1 .65.28.5.5 0 0 1-.28.65l-7.85 3.09a.21.21 0 0 0 .08.4h12.22a1.21 1.21 0 0 1 .66 2.22l-4.76 3.16a.21.21 0 0 0 .14.39l13.46-1.41a1.22 1.22 0 0 1 .81 2.21l-4.91 3.33a.21.21 0 0 0 .14.38l12.36-1.84a1.21 1.21 0 0 1 1 2.11l-3.19 2.74a.21.21 0 0 0 .18.37l11.94-2.58a.49.49 0 0 1 .59.38.5.5 0 0 1-.38.6c-12.8 2.74-12.07 2.6-12.28 2.6zM248 472.45a1.27 1.27 0 0 1-.95-2.09l2.52-3a.25.25 0 0 0 0-.31c-.15-.26.53-.28-11.9 1.94a1.28 1.28 0 0 1-1.18-2.1l2.8-3.16a.27.27 0 0 0-.26-.45l-9.09 1.72a1.27 1.27 0 0 1-1-2.25l3.47-2.73a.25.25 0 0 0 .09-.3c-.09-.27.62-.19-10-.19a1.27 1.27 0 0 1-.55-2.41l6.23-3a.49.49 0 0 1 .67.23.51.51 0 0 1-.23.67l-6.24 3a.27.27 0 0 0 .12.51h9.76a1.28 1.28 0 0 1 .79 2.28l-3.47 2.72a.27.27 0 0 0 .21.48l9.08-1.68a1.27 1.27 0 0 1 1.13 2.07l-2.8 3.16a.28.28 0 0 0 .26.45l11.61-2.07a1.27 1.27 0 0 1 1.2 2.07l-2.53 3a.27.27 0 0 0 .28.44l10.12-2.7a.5.5 0 0 1 .61.36.5.5 0 0 1-.35.61c-11.07 2.94-10.2 2.73-10.4 2.73zM288 487.47H139.54a.5.5 0 0 1-.5-.5.5.5 0 0 1 .5-.5H288a.51.51 0 0 1 .5.5.5.5 0 0 1-.5.5z" data-original="#68003c" class=""></path><path fill="#e67925" d="m138 215.9 18-11.37a10.22 10.22 0 0 1 10.19-.44l27 14L176 234.13l-21.34-2.07z" data-original="#e67925"></path><path fill="#68003c" d="M178.44 218.17c-.2 0 .65.44-13.08-7.23a.5.5 0 0 1 .49-.87l12.83 7.17a.5.5 0 0 1-.24.93zM175.15 224.16c-.2 0 .66.47-13.42-7.82a.5.5 0 0 1-.17-.68.49.49 0 0 1 .68-.18l13.17 7.75a.5.5 0 0 1-.26.93zM174 231.22c-.21 0 .83.57-15.67-9.06a.5.5 0 0 1 .51-.87l15.41 9a.5.5 0 0 1-.25.93z" data-original="#68003c" class=""></path><path fill="#68003c" d="M258.16 236.22h-88.83a1.27 1.27 0 0 1-1.27-1.41l8.1-72.95a1.28 1.28 0 0 1 1.27-1.14h89.43a1.28 1.28 0 0 1 1.26 1.43l-8.7 72.95a1.27 1.27 0 0 1-1.26 1.12z" data-original="#68003c" class=""></path><rect width="125.64" height="6.81" x="133.65" y="230.72" fill="#68003c" rx="1.27" data-original="#68003c" class=""></rect><circle cx="221.5" cy="198.47" r="9.04" fill="#ffffff" data-original="#ffffff" class=""></circle><path fill="#262246" d="m131.87 116.67 7.38-1.36a4 4 0 0 1-3.71 4.37 3.93 3.93 0 0 1-3.67-3.01z" data-original="#262246"></path><path fill="#68003c" d="M147.87 160.94a.52.52 0 0 1-.46-.29l-2.86-6-6.55-8.52a.5.5 0 1 1 .79-.61l6.55 8.57c.08.1.06.1 2.95 6.13a.5.5 0 0 1-.42.72z" data-original="#68003c" class=""></path></g></g></svg>